<svg width="89" height="89" viewBox="0 0 89 89" fill="none" xmlns="http://www.w3.org/2000/svg">
<g clip-path="url(#clip0_2581_16731)">
<path d="M35.3679 36.296L44.7324 45.65C45.9352 46.8515 47.8606 46.923 49.1492 45.814L73.0505 25.2441" stroke="#01DF5A" stroke-width="6.5" stroke-linecap="round"/>
<path d="M73.0634 48.2247C72.2024 54.2753 69.4678 59.9043 65.2436 64.3211C61.0195 68.7378 55.5179 71.7205 49.5116 72.8502C43.5053 73.9798 37.296 73.1997 31.7559 70.6195C26.2157 68.0392 21.6229 63.7883 18.6225 58.4639C15.6221 53.1395 14.3649 47.009 15.0274 40.9334C15.6899 34.8578 18.2389 29.1424 22.3163 24.5898C26.3937 20.0371 31.7948 16.8761 37.7609 15.5505C43.727 14.2249 49.9584 14.8014 55.5801 17.1991" stroke="#01DF5A" stroke-width="6.5" stroke-linecap="round"/>
</g>
<defs>
<clipPath id="clip0_2581_16731">
<rect width="88.2101" height="88.2101" fill="white"/>
</clipPath>
</defs>
</svg>
