<svg width="25" height="24" viewBox="0 0 25 24" fill="none" xmlns="http://www.w3.org/2000/svg">
<path d="M13.5 15.9203H14.15C14.8 15.9203 15.34 15.3403 15.34 14.6403C15.34 13.7703 15.03 13.6003 14.52 13.4203L13.51 13.0703V15.9203H13.5Z" fill="white"/>
<path d="M12.7201 1.90041C7.20007 1.92041 2.73007 6.41041 2.75007 11.9304C2.77007 17.4504 7.26007 21.9204 12.7801 21.9004C18.3001 21.8804 22.7701 17.3904 22.7501 11.8704C22.7301 6.35041 18.2401 1.89041 12.7201 1.90041ZM15.0101 12.0004C15.7901 12.2704 16.8401 12.8504 16.8401 14.6404C16.8401 16.1804 15.6301 17.4204 14.1501 17.4204H13.5001V18.0004C13.5001 18.4104 13.1601 18.7504 12.7501 18.7504C12.3401 18.7504 12.0001 18.4104 12.0001 18.0004V17.4204H11.6401C10.0001 17.4204 8.67007 16.0404 8.67007 14.3404C8.67007 13.9304 9.01007 13.5904 9.42007 13.5904C9.83007 13.5904 10.1701 13.9304 10.1701 14.3404C10.1701 15.2104 10.8301 15.9204 11.6401 15.9204H12.0001V12.5404L10.4901 12.0004C9.71007 11.7304 8.66007 11.1504 8.66007 9.36041C8.66007 7.82041 9.87007 6.58041 11.3501 6.58041H12.0001V6.00041C12.0001 5.59041 12.3401 5.25041 12.7501 5.25041C13.1601 5.25041 13.5001 5.59041 13.5001 6.00041V6.58041H13.8601C15.5001 6.58041 16.8301 7.96041 16.8301 9.66041C16.8301 10.0704 16.4901 10.4104 16.0801 10.4104C15.6701 10.4104 15.3301 10.0704 15.3301 9.66041C15.3301 8.79041 14.6701 8.08041 13.8601 8.08041H13.5001V11.4604L15.0101 12.0004Z" fill="white"/>
<path d="M10.1699 9.37008C10.1699 10.2401 10.4799 10.4101 10.9899 10.5901L11.9999 10.9401V8.08008H11.3499C10.6999 8.08008 10.1699 8.66008 10.1699 9.37008Z" fill="white"/>
</svg>
