<svg width="25" height="24" viewBox="0 0 25 24" fill="none" xmlns="http://www.w3.org/2000/svg">
<path d="M12.75 2C7.23 2 2.75 6.48 2.75 12C2.75 17.52 7.23 22 12.75 22C18.27 22 22.75 17.52 22.75 12C22.75 6.48 18.27 2 12.75 2ZM18.6 14.1C18.56 14.19 18.51 14.27 18.44 14.34L15.4 17.38C15.25 17.53 15.06 17.6 14.87 17.6C14.68 17.6 14.49 17.53 14.34 17.38C14.05 17.09 14.05 16.61 14.34 16.32L16.1 14.56H7.6C7.19 14.56 6.85 14.22 6.85 13.81C6.85 13.4 7.19 13.06 7.6 13.06H17.91C18.01 13.06 18.1 13.08 18.2 13.12C18.38 13.2 18.53 13.34 18.61 13.53C18.67 13.71 18.67 13.92 18.6 14.1ZM17.9 10.93H7.6C7.5 10.93 7.4 10.91 7.31 10.87C7.13 10.79 6.98 10.65 6.9 10.46C6.82 10.28 6.82 10.07 6.9 9.89C6.94 9.8 6.99 9.72 7.06 9.65L10.1 6.61C10.39 6.32 10.87 6.32 11.16 6.61C11.45 6.9 11.45 7.38 11.16 7.67L9.41 9.43H17.91C18.32 9.43 18.66 9.77 18.66 10.18C18.66 10.59 18.32 10.93 17.9 10.93Z" fill="white"/>
</svg>
