<svg width="88" height="32" viewBox="0 0 88 32" fill="none" xmlns="http://www.w3.org/2000/svg">
<rect width="88" height="32" rx="12" fill="white"/>
<rect width="88" height="32" rx="12" fill="#00FF38" fill-opacity="0.2"/>
<path d="M38.0658 20L42.5318 10.13H44.0018L48.4678 20H46.6478L45.6678 17.718H40.8518L39.8858 20H38.0658ZM43.2458 12.076L41.4678 16.29H45.0518L43.2738 12.076H43.2458ZM51.8577 20.14C50.1777 20.14 49.3377 19.1973 49.3377 17.312V13.154H51.0877V17.34C51.0877 17.8253 51.1857 18.1847 51.3817 18.418C51.5777 18.6513 51.8904 18.768 52.3197 18.768C52.7864 18.768 53.1691 18.6093 53.4677 18.292C53.7664 17.9653 53.9157 17.536 53.9157 17.004V13.154H55.6657V20H53.9577V18.978C53.5004 19.7527 52.8004 20.14 51.8577 20.14ZM60.6231 20.14C58.8125 20.14 57.9071 19.244 57.9071 17.452V14.47H56.5911V13.154H57.9071V11.11H59.6571V13.154H61.7291V14.47H59.6571V17.354C59.6571 17.802 59.7551 18.138 59.9511 18.362C60.1471 18.586 60.4645 18.698 60.9031 18.698C61.0338 18.698 61.1691 18.684 61.3091 18.656C61.4491 18.6187 61.5938 18.5813 61.7431 18.544L62.0091 19.832C61.8411 19.9253 61.6265 20 61.3651 20.056C61.1131 20.112 60.8658 20.14 60.6231 20.14ZM65.9138 20.14C65.2045 20.14 64.5885 19.9953 64.0658 19.706C63.5432 19.4167 63.1372 19.006 62.8478 18.474C62.5585 17.9327 62.4138 17.298 62.4138 16.57C62.4138 15.842 62.5585 15.212 62.8478 14.68C63.1372 14.148 63.5432 13.7373 64.0658 13.448C64.5885 13.1587 65.2045 13.014 65.9138 13.014C66.6232 13.014 67.2392 13.1587 67.7618 13.448C68.2845 13.7373 68.6905 14.148 68.9798 14.68C69.2692 15.212 69.4138 15.842 69.4138 16.57C69.4138 17.298 69.2692 17.9327 68.9798 18.474C68.6905 19.006 68.2845 19.4167 67.7618 19.706C67.2392 19.9953 66.6232 20.14 65.9138 20.14ZM65.9138 18.81C66.4365 18.81 66.8565 18.6233 67.1738 18.25C67.4912 17.8673 67.6498 17.3073 67.6498 16.57C67.6498 15.8233 67.4912 15.268 67.1738 14.904C66.8565 14.5307 66.4365 14.344 65.9138 14.344C65.3912 14.344 64.9712 14.5307 64.6538 14.904C64.3365 15.268 64.1778 15.8233 64.1778 16.57C64.1778 17.3073 64.3365 17.8673 64.6538 18.25C64.9712 18.6233 65.3912 18.81 65.9138 18.81Z" fill="#38CB89"/>
<path d="M21 11.5C21.7749 11.4989 22.5368 11.6996 23.2105 12.0825L22.6465 12.6465C22.5766 12.7164 22.529 12.8055 22.5097 12.9025C22.4904 12.9995 22.5003 13.1 22.5382 13.1913C22.576 13.2827 22.6401 13.3608 22.7223 13.4157C22.8045 13.4707 22.9011 13.5 23 13.5H25C25.1326 13.5 25.2598 13.4473 25.3536 13.3536C25.4473 13.2598 25.5 13.1326 25.5 13V11C25.5 10.9011 25.4706 10.8045 25.4157 10.7223C25.3608 10.6401 25.2827 10.576 25.1913 10.5382C25.1 10.5003 24.9995 10.4904 24.9025 10.5097C24.8055 10.529 24.7164 10.5766 24.6465 10.6465L23.9415 11.35C23.1095 10.8234 22.1514 10.5298 21.1672 10.4999C20.183 10.4699 19.2088 10.7048 18.3463 11.1799C17.4838 11.655 16.7647 12.3529 16.2641 13.2007C15.7634 14.0486 15.4995 15.0154 15.5 16C15.5 16.1326 15.5527 16.2598 15.6464 16.3536C15.7402 16.4473 15.8674 16.5 16 16.5C16.1326 16.5 16.2598 16.4473 16.3536 16.3536C16.4473 16.2598 16.5 16.1326 16.5 16C16.5013 14.8069 16.9759 13.6631 17.8195 12.8195C18.6631 11.9759 19.8069 11.5013 21 11.5Z" fill="#38CB89"/>
<path d="M26 15.5C25.8674 15.5 25.7402 15.5527 25.6464 15.6465C25.5527 15.7402 25.5 15.8674 25.5 16C25.4987 17.1931 25.0241 18.3369 24.1805 19.1805C23.3369 20.0242 22.1931 20.4987 21 20.5C20.2251 20.5014 19.4633 20.3004 18.79 19.917L19.3535 19.3535C19.4234 19.2836 19.471 19.1945 19.4903 19.0975C19.5096 19.0006 19.4997 18.9 19.4618 18.8087C19.424 18.7173 19.3599 18.6393 19.2777 18.5843C19.1955 18.5294 19.0989 18.5 19 18.5H17C16.8674 18.5 16.7402 18.5527 16.6464 18.6465C16.5527 18.7402 16.5 18.8674 16.5 19V21C16.5 21.0989 16.5293 21.1956 16.5842 21.2778C16.6391 21.36 16.7172 21.4241 16.8085 21.462C16.8692 21.4873 16.9343 21.5002 17 21.5C17.1326 21.5 17.2598 21.4473 17.3535 21.3535L18.059 20.65C18.938 21.2085 19.9586 21.5035 21 21.5C22.4582 21.4983 23.8561 20.9183 24.8872 19.8872C25.9183 18.8561 26.4983 17.4582 26.5 16C26.5 15.8674 26.4473 15.7402 26.3536 15.6465C26.2598 15.5527 26.1326 15.5 26 15.5Z" fill="#38CB89"/>
</svg>
