<svg width="64" height="64" viewBox="0 0 64 64" fill="none" xmlns="http://www.w3.org/2000/svg">
<path d="M32 64C49.6731 64 64 49.6731 64 32C64 14.3269 49.6731 0 32 0C14.3269 0 0 14.3269 0 32C0 49.6731 14.3269 64 32 64Z" fill="#275ACE"/>
<path d="M13.0003 30.15C14.9057 30.15 16.4503 28.6054 16.4503 26.7C16.4503 24.7946 14.9057 23.25 13.0003 23.25C11.0949 23.25 9.55029 24.7946 9.55029 26.7C9.55029 28.6054 11.0949 30.15 13.0003 30.15Z" fill="#0E5B94"/>
<path d="M13.5003 29.65C11.6003 29.65 10.0503 28.1 10.0503 26.2C10.0503 25.35 10.3503 24.6 10.8003 24C10.0003 24.65 9.55029 25.6 9.55029 26.7C9.55029 28.6 11.1003 30.15 13.0003 30.15C14.1003 30.15 15.0503 29.65 15.7003 28.9C15.1003 29.35 14.3003 29.65 13.5003 29.65Z" fill="#008AC3"/>
<path d="M54.1001 35.15C55.2047 35.15 56.1001 34.2545 56.1001 33.15C56.1001 32.0454 55.2047 31.15 54.1001 31.15C52.9955 31.15 52.1001 32.0454 52.1001 33.15C52.1001 34.2545 52.9955 35.15 54.1001 35.15Z" fill="#0E5B94"/>
<path d="M54.4001 34.8C53.3001 34.8 52.4001 33.9 52.4001 32.8C52.4001 32.35 52.5501 31.9 52.8501 31.6C52.4001 31.95 52.1001 32.55 52.1001 33.15C52.1001 34.25 53.0001 35.15 54.1001 35.15C54.7501 35.15 55.3001 34.85 55.6501 34.4C55.3001 34.65 54.9001 34.8 54.4001 34.8Z" fill="#008AC3"/>
<path d="M48.4001 18.6499C49.1181 18.6499 49.7001 18.0679 49.7001 17.3499C49.7001 16.632 49.1181 16.0499 48.4001 16.0499C47.6821 16.0499 47.1001 16.632 47.1001 17.3499C47.1001 18.0679 47.6821 18.6499 48.4001 18.6499Z" fill="#0E5B94"/>
<path d="M48.7001 18.3499C48.0001 18.3499 47.4001 17.7499 47.4001 17.0499C47.4001 16.7499 47.5001 16.4999 47.6501 16.2999C47.3001 16.5499 47.1001 16.8999 47.1001 17.3499C47.1001 18.0499 47.7001 18.6499 48.4001 18.6499C48.8501 18.6499 49.2501 18.4499 49.4501 18.0999C49.2501 18.2499 49.0001 18.3499 48.7001 18.3499Z" fill="#008AC3"/>
<path d="M13.7 46.9499C14 46.8999 14.3 46.8499 14.6 46.7999C13.6 43.2499 11.1 40.3499 7.75 38.9499C10.75 40.6499 12.95 43.4999 13.7 46.9499Z" fill="#008AC3"/>
<path d="M24.5498 51.7999C24.6498 51.5499 24.7498 51.2999 24.8998 51.0499C23.6498 49.4499 21.9498 48.1499 20.0498 47.3499C21.8998 48.3999 23.4498 49.9499 24.5498 51.7999Z" fill="#008AC3"/>
<path d="M4.54971 37.0999C4.54971 37.4499 4.49971 37.7499 4.44971 38.0499C4.79971 38.0999 5.19971 38.1999 5.54971 38.2999C5.59971 38.0999 5.59971 37.8499 5.59971 37.5999C5.59971 34.6999 3.99971 32.7499 1.69971 31.9499C3.39971 32.9999 4.54971 34.8999 4.54971 37.0999Z" fill="#008AC3"/>
<path d="M50.7003 46.9999C50.4003 46.9499 50.1003 46.8999 49.8003 46.8499C50.7003 43.1999 52.6003 40.6499 56.4503 38.9499C53.4503 40.5999 51.4503 43.5499 50.7003 46.9999Z" fill="#008AC3"/>
<path d="M40.1 51.55C40 51.3 39.9 51.05 39.75 50.8C41 49.1 42.35 47.85 44.7 47.1C42.9 48.2 41.2 49.7 40.1 51.55Z" fill="#008AC3"/>
<path d="M59.5501 36.9C59.5501 37.25 59.6001 37.65 59.6501 38C59.3001 38.05 58.9501 38.2 58.6501 38.3C58.6001 38.05 58.6001 37.8 58.6001 37.5C58.6001 34.45 60.3501 32.75 62.5001 31.9C60.8501 33.15 59.5501 34.45 59.5501 36.9Z" fill="#008AC3"/>
<path d="M40.55 30.1L45.35 34.85C46.45 35.9 47.2 37.25 47.6 38.75L50.1 48.35C50.25 49 49.75 49.65 49.1 49.65C48.05 49.65 47.15 49.05 46.7 48.15L44.1 42.65C43.6 41.6 42.55 40.95 41.35 40.95H39L40.55 30.1Z" fill="#ECEFF0"/>
<path d="M23.9503 30.1L19.1503 34.85C18.0503 35.9 17.3003 37.25 16.9003 38.75L14.4003 48.35C14.2503 49 14.7503 49.65 15.4003 49.65C16.4503 49.65 17.3503 49.05 17.8003 48.15L20.4003 42.65C20.9003 41.6 21.9503 40.95 23.1503 40.95H25.5003L23.9503 30.1Z" fill="#ECEFF0"/>
<path opacity="0.7" d="M20.8501 33.1L23.9501 30.1L25.5501 40.95H23.6001C22.3001 37.95 21.3501 34.9 20.8501 33.1Z" fill="#D8DEE0"/>
<path opacity="0.7" d="M43.65 33.1L40.55 30.1L39 40.95H40.95C42.2 37.95 43.2 34.9 43.65 33.1Z" fill="#D8DEE0"/>
<path d="M43.0501 22.7C41.5501 14.45 34.0001 6.5 32.3501 6.5C32.3001 6.5 32.3001 6.5 32.3001 6.5C30.6501 6.5 23.1501 14.5 21.6501 22.75C20.5001 29 23.3501 37.9 24.9501 42.7C25.6501 44.75 25.9501 46.3 28.0001 46.85C28.0001 46.85 30.4501 47.4 32.3001 47.4C32.3501 47.4 32.3501 47.4 32.3501 47.4C32.3501 47.4 32.3501 47.4 32.4001 47.4C34.2501 47.4 36.7001 46.85 36.7001 46.85C38.8001 46.3 39.1001 44.75 39.8001 42.7C41.3501 37.9 44.2001 28.95 43.0501 22.7Z" fill="white"/>
<path opacity="0.5" d="M32.2999 28.8C35.8345 28.8 38.6999 25.9346 38.6999 22.4C38.6999 18.8654 35.8345 16 32.2999 16C28.7653 16 25.8999 18.8654 25.8999 22.4C25.8999 25.9346 28.7653 28.8 32.2999 28.8Z" fill="#B0BDC1" stroke="white" stroke-width="0.5" stroke-miterlimit="10"/>
<path d="M35.5001 52.1C35.5001 53.85 34.0501 58.65 32.3001 58.65C30.5501 58.65 29.1001 53.85 29.1001 52.1C29.1001 50.35 30.5501 49.65 32.3001 49.65C34.1001 49.65 35.5001 50.35 35.5001 52.1Z" fill="#FFD800"/>
<path d="M34.4002 52C34.4002 53.15 33.4502 56.2 32.3002 56.2C31.1502 56.2 30.2002 53.1 30.2002 52C30.2002 50.9 31.1502 50.4 32.3002 50.4C33.4502 50.4 34.4002 50.85 34.4002 52Z" fill="#FCB813"/>
<path d="M33.6 51.9C33.6 52.5 33 54.2 32.3 54.2C31.6 54.2 31 52.55 31 51.9C31 51.3 31.6 51.05 32.3 51.05C33 51 33.6 51.25 33.6 51.9Z" fill="#F6921E"/>
<path d="M33.65 32.75L41.1 40.25L39.25 46.5L35.25 47.75H32.75V32.75H33.65Z" fill="#C8D6D7"/>
<path d="M16.5497 11.8L17.0497 13.2C17.0497 13.25 17.0997 13.25 17.0997 13.25L18.4997 13.75C18.5997 13.8 18.5997 13.9 18.4997 13.95L17.0997 14.45C17.0497 14.45 17.0497 14.5 17.0497 14.5L16.5497 15.9C16.4997 16 16.3997 16 16.3497 15.9L15.8497 14.5C15.8497 14.45 15.7997 14.45 15.7997 14.45L14.3997 13.95C14.2997 13.9 14.2997 13.8 14.3997 13.75L15.7997 13.25C15.8497 13.25 15.8497 13.2 15.8497 13.2L16.3497 11.8C16.3997 11.7 16.4997 11.7 16.5497 11.8Z" fill="white"/>
<path d="M49.0003 24.5999L49.4003 25.6499L49.4503 25.6999L50.5003 26.0999C50.5503 26.1499 50.5503 26.1999 50.5003 26.2499L49.4503 26.6499L49.4003 26.6999L49.0003 27.6999C48.9503 27.7499 48.9003 27.7499 48.8503 27.6999L48.5003 26.6499L48.4503 26.5999L47.4003 26.1999C47.3503 26.1499 47.3503 26.0999 47.4003 26.0499L48.4503 25.6499L48.5003 25.5999L48.9003 24.5499C48.9003 24.5499 49.0003 24.5499 49.0003 24.5999Z" fill="white"/>
<path d="M32.3003 26.9C29.8003 26.9 27.8003 24.85 27.8003 22.4C27.8003 19.9 29.8503 17.9 32.3003 17.9C34.8003 17.9 36.8003 19.95 36.8003 22.4C36.8503 24.9 34.8003 26.9 32.3003 26.9Z" fill="#4880FF"/>
<path d="M32.3003 18.15C34.6503 18.15 36.5503 20.05 36.5503 22.4C36.5503 24.75 34.6503 26.65 32.3003 26.65C29.9503 26.65 28.0503 24.75 28.0503 22.4C28.0503 20.05 29.9503 18.15 32.3003 18.15ZM32.3003 17.65C29.6503 17.65 27.5503 19.8 27.5503 22.4C27.5503 25 29.7003 27.15 32.3003 27.15C34.9503 27.15 37.0503 25 37.0503 22.4C37.0503 19.8 34.9503 17.65 32.3003 17.65Z" fill="#2D65E4"/>
<path d="M32.3 24.95C33.7083 24.95 34.85 23.8084 34.85 22.4C34.85 20.9917 33.7083 19.85 32.3 19.85C30.8917 19.85 29.75 20.9917 29.75 22.4C29.75 23.8084 30.8917 24.95 32.3 24.95Z" fill="#2D65E4"/>
<path d="M32.3 23.1499C32.7418 23.1499 33.1 22.7918 33.1 22.3499C33.1 21.9081 32.7418 21.5499 32.3 21.5499C31.8582 21.5499 31.5 21.9081 31.5 22.3499C31.5 22.7918 31.8582 23.1499 32.3 23.1499Z" fill="#4880FF"/>
<path d="M31.4999 32.0999L30.8999 32.6499C30.6499 32.8499 30.5499 33.1999 30.5999 33.4999L31.1999 47.6499C31.3499 48.8999 33.2499 48.8999 33.3999 47.6499L33.9999 33.4999C34.0499 33.1999 33.8999 32.8499 33.6999 32.6499L33.0999 32.0999C32.5999 31.6999 31.8999 31.6999 31.4999 32.0999Z" fill="#4880FF"/>
</svg>
