<svg width="20" height="20" viewBox="0 0 20 20" fill="none" xmlns="http://www.w3.org/2000/svg">
<rect width="20" height="20" rx="10" fill="#E4CA40"/>
<g clip-path="url(#clip0)">
<path d="M7.05416 9.31957L9.61314 6.7606L12.1733 9.32068L13.6623 7.83174L9.61314 3.78271L5.56533 7.83053L7.05421 9.31947L7.05416 9.31957ZM3.0249 10.371L4.5139 8.88175L6.00278 10.3706L4.51379 11.8596L3.0249 10.371ZM7.05416 11.4225L9.61314 13.9813L12.1733 11.4213L13.663 12.9094L13.6623 12.9102L9.61314 16.9592L5.56533 12.9114L5.56322 12.9093L7.05432 11.4223L7.05416 11.4225ZM13.2235 10.3716L14.7125 8.88259L16.2014 10.3715L14.7124 11.8605L13.2235 10.3716Z" fill="white"/>
<path d="M11.1229 10.3695H11.1235L9.61276 8.85864L8.49606 9.97499L8.36777 10.1033L8.10318 10.368L8.10107 10.37L8.10318 10.3722L9.61276 11.8819L11.1236 10.3711L11.1244 10.3702L11.123 10.3695" fill="white"/>
</g>
<defs>
<clipPath id="clip0">
<rect width="14" height="14" fill="white" transform="translate(3 3)"/>
</clipPath>
</defs>
</svg>
