<svg width="20" height="20" viewBox="0 0 20 20" fill="none" xmlns="http://www.w3.org/2000/svg">
<path d="M9.27029 2.32218L5.18949 6.33221C5.03101 6.48794 5.02888 6.73145 5.18461 6.88992L6.53168 8.26076C6.68741 8.41923 6.93091 8.42136 7.08939 8.26563L11.1702 4.25561C11.3287 4.09988 11.3308 3.85637 11.1751 3.69789L9.828 2.32706C9.6722 2.17644 9.4287 2.17431 9.27029 2.32218Z" fill="#FFC247"/>
<path d="M12.3069 5.42128L5.13579 12.468C4.97731 12.6237 4.97518 12.8673 5.13091 13.0257L6.47797 14.3966C6.6337 14.555 6.8772 14.5572 7.03568 14.4014L14.2068 7.35471C14.3653 7.19898 14.3674 6.95547 14.2117 6.79699L12.8646 5.42616C12.7168 5.26775 12.4654 5.26555 12.3069 5.42128Z" fill="#FFC247"/>
<path d="M15.3514 8.51112L8.18034 15.5579C8.02186 15.7136 8.01973 15.9571 8.17546 16.1156L9.52253 17.4864C9.67826 17.6449 9.92176 17.647 10.0802 17.4913L17.2513 10.4446C17.4098 10.2888 17.4119 10.0453 17.2562 9.88684L15.9092 8.516C15.7535 8.35753 15.5021 8.35533 15.3514 8.51112Z" fill="#FFC247"/>
<path d="M3.44917 11.297L2.10211 9.92614C1.94638 9.76767 1.94851 9.52416 2.10698 9.36843L3.47782 8.02137C3.6363 7.86564 3.87981 7.86777 4.03553 8.02625L5.3826 9.39708C5.53833 9.55556 5.5362 9.79907 5.37772 9.9548L4.00688 11.3019C3.8484 11.4576 3.59704 11.4554 3.44917 11.297Z" fill="#FFC247"/>
</svg>
