<svg width="20" height="20" viewBox="0 0 20 20" fill="none" xmlns="http://www.w3.org/2000/svg">
<g clip-path="url(#clip0_2542_1637)">
<path d="M5.88328 8.57566L9.35934 5.15989L12.7767 8.63746L14.7993 6.64999L9.39442 1.14987L3.89596 6.55297L5.88335 8.57552L5.88328 8.57566ZM0.445096 9.94398L2.46772 7.95616L4.45512 9.97864L2.4325 11.9662L0.445096 9.94398ZM5.85851 11.4074L9.27428 14.8833L12.7519 11.4661L14.7405 13.4876L14.7395 13.4887L9.23921 18.8933L3.8361 13.3948L3.83329 13.392L5.85872 11.4072L5.85851 11.4074ZM14.1785 10.065L16.2011 8.07743L18.1885 10.0999L16.166 12.0874L14.1785 10.065Z" fill="#F3BA2F"/>
<path d="M11.3499 10.4178L11.3507 10.4178L9.33409 8.36546L7.8172 9.85558L7.64293 10.0269L7.28352 10.3801L7.28066 10.3829L7.28347 10.3858L9.29848 12.4366L11.3508 10.4199L11.3518 10.4188L11.35 10.4178" fill="#F3BA2F"/>
</g>
<defs>
<clipPath id="clip0_2542_1637">
<rect width="18.8531" height="18.8531" fill="white" transform="translate(0.498291 0.398438) rotate(0.501206)"/>
</clipPath>
</defs>
</svg>
