<svg width="20" height="21" viewBox="0 0 20 21" fill="none" xmlns="http://www.w3.org/2000/svg">
    <g opacity="0.3">
      <path
        d="M1 4.99878H12C12 5.52921 12.2107 6.03792 12.5858 6.41299C12.9609 6.78806 13.4696 6.99878 14 6.99878H16C16.5304 6.99878 17.0391 6.78806 17.4142 6.41299C17.7893 6.03792 18 5.52921 18 4.99878H19C19.2652 4.99878 19.5196 4.89342 19.7071 4.70588C19.8946 4.51835 20 4.26399 20 3.99878C20 3.73356 19.8946 3.47921 19.7071 3.29167C19.5196 3.10414 19.2652 2.99878 19 2.99878H18C18 2.46835 17.7893 1.95964 17.4142 1.58456C17.0391 1.20949 16.5304 0.998779 16 0.998779H14C13.4696 0.998779 12.9609 1.20949 12.5858 1.58456C12.2107 1.95964 12 2.46835 12 2.99878H1C0.734784 2.99878 0.48043 3.10414 0.292893 3.29167C0.105357 3.47921 0 3.73356 0 3.99878C0 4.26399 0.105357 4.51835 0.292893 4.70588C0.48043 4.89342 0.734784 4.99878 1 4.99878ZM14 2.99878H16V3.99878V4.99878H14V2.99878ZM19 9.99878H10C10 9.46835 9.78929 8.95964 9.41421 8.58457C9.03914 8.20949 8.53043 7.99878 8 7.99878H6C5.46957 7.99878 4.96086 8.20949 4.58579 8.58457C4.21071 8.95964 4 9.46835 4 9.99878H1C0.734784 9.99878 0.48043 10.1042 0.292893 10.2917C0.105357 10.4792 0 10.7336 0 10.9988C0 11.264 0.105357 11.5184 0.292893 11.7059C0.48043 11.8935 0.734784 11.9988 1 11.9988H4C4 12.5293 4.21071 13.038 4.58579 13.413C4.96086 13.7881 5.46957 13.9988 6 13.9988H8C8.53043 13.9988 9.03914 13.7881 9.41421 13.413C9.78929 13.038 10 12.5293 10 11.9988H19C19.2652 11.9988 19.5196 11.8935 19.7071 11.7059C19.8946 11.5184 20 11.264 20 10.9988C20 10.7336 19.8946 10.4792 19.7071 10.2917C19.5196 10.1042 19.2652 9.99878 19 9.99878ZM6 11.9988V9.99878H8V10.9988V11.9988H6ZM19 16.9988H16C16 16.4684 15.7893 15.9597 15.4142 15.5846C15.0391 15.2095 14.5304 14.9988 14 14.9988H12C11.4696 14.9988 10.9609 15.2095 10.5858 15.5846C10.2107 15.9597 10 16.4684 10 16.9988H1C0.734784 16.9988 0.48043 17.1042 0.292893 17.2917C0.105357 17.4792 0 17.7336 0 17.9988C0 18.264 0.105357 18.5184 0.292893 18.7059C0.48043 18.8935 0.734784 18.9988 1 18.9988H10C10 19.5293 10.2107 20.038 10.5858 20.413C10.9609 20.7881 11.4696 20.9988 12 20.9988H14C14.5304 20.9988 15.0391 20.7881 15.4142 20.413C15.7893 20.038 16 19.5293 16 18.9988H19C19.2652 18.9988 19.5196 18.8935 19.7071 18.7059C19.8946 18.5184 20 18.264 20 17.9988C20 17.7336 19.8946 17.4792 19.7071 17.2917C19.5196 17.1042 19.2652 16.9988 19 16.9988ZM12 18.9988V16.9988H14V17.9988V18.9988H12Z"
        fill="#231F20"
      />
    </g>
  </svg>