<svg width="18" height="18" viewBox="0 0 18 18" fill="none" xmlns="http://www.w3.org/2000/svg">
<path fill-rule="evenodd" clip-rule="evenodd" d="M0.9 14.4L1.00496 14.394C1.41813 14.3459 1.74595 14.0181 1.79394 13.6049L1.8 13.5V1.8H13.5L13.6049 1.79394C14.0526 1.74196 14.4 1.36156 14.4 0.9C14.4 0.438444 14.0526 0.0580411 13.6049 0.00605707L13.5 0H0.9L0.795042 0.00605707C0.38187 0.0540451 0.0540451 0.38187 0.00605707 0.795042L0 0.9V13.5L0.00605707 13.6049C0.0540451 14.0181 0.38187 14.3459 0.795042 14.394L0.9 14.4ZM17.1 18L17.2049 17.994C17.6181 17.946 17.946 17.6181 17.994 17.2049L18 17.1V4.5L17.994 4.39504C17.95 4.01629 17.6709 3.70928 17.3064 3.62377L17.2049 3.60606L17.1 3.6H4.5L4.39504 3.60606C3.98187 3.65404 3.65404 3.98187 3.60606 4.39504L3.6 4.5V17.1L3.60606 17.2049C3.65005 17.5837 3.92917 17.8907 4.29364 17.9762L4.39504 17.994L4.5 18H17.1ZM5.4 5.4V16.2H16.2V5.4H5.4Z" fill="#4880FF"/>
</svg>
