<svg width="16" height="16" viewBox="0 0 16 16" fill="none" xmlns="http://www.w3.org/2000/svg">
<path fill-rule="evenodd" clip-rule="evenodd" d="M0.5 8.3125C0.5 6.32338 1.29018 4.41572 2.6967 3.0092C4.10322 1.60268 6.01088 0.8125 8 0.8125C9.98912 0.8125 11.8968 1.60268 13.3033 3.0092C14.7098 4.41572 15.5 6.32338 15.5 8.3125C15.5 10.3016 14.7098 12.2093 13.3033 13.6158C11.8968 15.0223 9.98912 15.8125 8 15.8125C6.01088 15.8125 4.10322 15.0223 2.6967 13.6158C1.29018 12.2093 0.5 10.3016 0.5 8.3125H0.5ZM7.572 11.5225L11.89 6.1245L11.11 5.5005L7.428 10.1015L4.82 7.9285L4.18 8.6965L7.572 11.5235V11.5225Z" fill="#FFA800"/>
</svg>
