<svg width="20" height="20" viewBox="0 0 20 20" fill="none" xmlns="http://www.w3.org/2000/svg">
<rect width="20" height="20" rx="10" fill="#6C75CD"/>
<g clip-path="url(#clip0)">
<path d="M6.16382 10.9436C7.58788 11.6802 9.07386 12.4512 10.2216 13.0477L14.2461 10.9436C12.7889 13.052 11.5747 14.8073 10.2216 16.75C8.86602 14.8116 7.36899 12.6728 6.16382 10.9436ZM6.3186 10.362L10.226 8.33129L14.0825 10.3471L10.2282 12.3801L6.3186 10.362ZM10.2216 7.68067L6.16382 9.76117L10.2039 4L14.2461 9.77408L10.2216 7.68067Z" fill="white"/>
<path d="M10.2216 13.0477L14.2462 10.9436C12.7889 13.052 10.2216 16.75 10.2216 16.75V13.0477ZM10.226 8.33129L14.0825 10.3471L10.2282 12.3801L10.226 8.33129ZM10.2216 7.68083L10.2039 4L14.2462 9.77408L10.2216 7.68083Z" fill="white"/>
<path d="M6.31885 10.3615L10.2264 10.6739L14.0829 10.3486L10.2284 12.3817L6.31885 10.3615Z" fill="white"/>
<path d="M10.2261 10.6739L14.0826 10.3486L10.2283 12.3817L10.2261 10.6739Z" fill="white"/>
</g>
<defs>
<clipPath id="clip0">
<rect width="9" height="12.75" fill="white" transform="translate(6 4)"/>
</clipPath>
</defs>
</svg>
