<svg width="60" height="60" viewBox="0 0 52 46" fill="none" xmlns="http://www.w3.org/2000/svg">
<path d="M49.5234 40.0625L51.1484 45.75H18.6484L27.5859 35.1875L30.0234 36.8125L38.1484 28.6875L49.5234 40.0625Z" fill="#CCD1D9"/>
<path d="M49.5234 40.0625L38.1484 28.6875L36.5234 30.3125L47.0859 40.875L48.3437 45.75H51.1484L49.5234 40.0625Z" fill="#AAB2BD"/>
<path d="M51.1484 7.15625C51.1484 9.95938 49.4828 12.3644 47.0859 13.445C46.2174 13.8431 45.2578 14.0625 44.2422 14.0625C43.2266 14.0625 42.2678 13.8431 41.3984 13.4531C39.0024 12.3725 37.3359 9.95938 37.3359 7.15625C37.3359 3.3375 40.4243 0.25 44.2422 0.25C48.0536 0.25 51.1484 3.3375 51.1484 7.15625Z" fill="#FFCE54"/>
<path d="M44.2422 0.25C43.6816 0.25 43.1388 0.323937 42.6156 0.449875C45.6437 1.18031 47.8984 3.89894 47.8984 7.15625C47.8984 9.95938 46.2328 12.3644 43.8359 13.445C43.4467 13.6237 43.0372 13.7602 42.6147 13.8626C43.1372 13.9894 43.6799 14.0625 44.2422 14.0625C45.2578 14.0625 46.2174 13.8431 47.0859 13.445C49.4828 12.3644 51.1484 9.95938 51.1484 7.15625C51.1484 3.3375 48.0536 0.25 44.2422 0.25Z" fill="#F6BB42"/>
<path d="M47.0859 13.445C46.2174 13.8431 45.2578 14.0625 44.2422 14.0625C43.2266 14.0625 42.2678 13.8431 41.3984 13.4531C39.0024 12.3725 37.3359 9.95938 37.3359 7.15625V10.4062C37.3359 13.2013 39.0024 15.6144 41.3984 16.7031C42.2678 17.0931 43.2266 17.3125 44.2422 17.3125C45.2578 17.3125 46.2174 17.0931 47.0859 16.695C49.4828 15.6144 51.1484 13.2013 51.1484 10.4062V7.15625C51.1484 9.95938 49.4828 12.3644 47.0859 13.445Z" fill="#EDAB37"/>
<path d="M51.1899 26.6562V29.0938C51.1899 30.6619 49.9143 31.9375 48.3462 31.9375C46.7773 31.9375 45.5024 30.6619 45.5024 29.0938V26.6562C45.5024 28.2244 46.7773 29.5 48.3462 29.5C49.9143 29.5 51.1899 28.2244 51.1899 26.6562Z" fill="#EDAB37"/>
<path d="M51.1899 26.6562C51.1899 28.2244 49.9143 29.5 48.3462 29.5C46.7773 29.5 45.5024 28.2244 45.5024 26.6562C45.5024 25.0881 46.7773 23.8125 48.3462 23.8125C49.9143 23.8125 51.1899 25.0881 51.1899 26.6562Z" fill="#FFCE54"/>
<path d="M41.0337 24.625C42.1555 24.625 43.0649 23.7156 43.0649 22.5938C43.0649 21.4719 42.1555 20.5625 41.0337 20.5625C39.9119 20.5625 39.0024 21.4719 39.0024 22.5938C39.0024 23.7156 39.9119 24.625 41.0337 24.625Z" fill="#FFCE54"/>
<path d="M31.7385 28.1919L22.5491 19.0025L20.2498 16.7031L11.0596 7.51373C11.0596 7.51373 18.2664 9.15498 23.3202 13.631C23.7264 13.9885 24.1246 14.3623 24.5064 14.7442C24.8891 15.126 25.2629 15.5242 25.6196 15.9304C30.0964 20.985 31.7385 28.1919 31.7385 28.1919Z" fill="#CCD1D9"/>
<path d="M26.5703 14.9806L25.6197 15.9312C25.263 15.525 24.8893 15.1268 24.5066 14.745C24.1247 14.3631 23.7266 13.9893 23.3203 13.6318L24.2709 12.6812L26.5703 14.9806Z" fill="#965353"/>
<path d="M3.58463 37.9662C2.95169 38.6 1.92712 38.6 1.28525 37.9662C0.652312 37.3244 0.652312 36.3006 1.28525 35.6669L20.2498 16.7031L22.5492 19.0025L3.58463 37.9662Z" fill="#965353"/>
<path d="M34.8943 28.6875C34.445 28.6875 34.0818 28.3243 34.0818 27.875V23C34.0818 22.5507 34.445 22.1875 34.8943 22.1875C35.3436 22.1875 35.7068 22.5507 35.7068 23V27.875C35.7068 28.3243 35.3436 28.6875 34.8943 28.6875Z" fill="#FFCE54"/>
<path d="M30.8318 31.9375H25.9568C25.5075 31.9375 25.1443 31.5743 25.1443 31.125C25.1443 30.6757 25.5075 30.3125 25.9568 30.3125H30.8318C31.2811 30.3125 31.6443 30.6757 31.6443 31.125C31.6443 31.5743 31.2811 31.9375 30.8318 31.9375Z" fill="#FFCE54"/>
<path d="M46.877 6.40225C47.0046 6.13737 47.0818 5.84325 47.0818 5.53125C47.0818 4.41081 46.171 3.5 45.0505 3.5H44.6443C44.6443 3.05069 44.2811 2.6875 43.8318 2.6875C43.3825 2.6875 43.0193 3.05069 43.0193 3.5H42.2068C41.7575 3.5 41.3943 3.86319 41.3943 4.3125C41.3943 4.76181 41.7575 5.125 42.2068 5.125V9.1875C41.7575 9.1875 41.3943 9.55069 41.3943 10C41.3943 10.4493 41.7575 10.8125 42.2068 10.8125H43.0193C43.0193 11.2618 43.3825 11.625 43.8318 11.625C44.2811 11.625 44.6443 11.2618 44.6443 10.8125H45.4568C46.8007 10.8125 47.8943 9.71888 47.8943 8.375C47.8943 7.5625 47.4905 6.84587 46.877 6.40225ZM45.0505 5.125C45.274 5.125 45.4568 5.30781 45.4568 5.53125C45.4568 5.75469 45.274 5.9375 45.0505 5.9375H43.8318V5.125H45.0505ZM45.4568 9.1875H43.8318V7.5625H45.4568C45.9053 7.5625 46.2693 7.92731 46.2693 8.375C46.2693 8.82269 45.9053 9.1875 45.4568 9.1875Z" fill="#EDAB37"/>
<path d="M46.2693 13.7505V17.0005C46.5488 16.9144 46.8226 16.8153 47.0859 16.695C47.367 16.5683 47.6351 16.4204 47.8943 16.2587V13.0087C47.6351 13.1704 47.367 13.3183 47.0859 13.445C46.8226 13.5661 46.5488 13.6644 46.2693 13.7505Z" fill="#DB9531"/>
<path d="M40.5818 13.012V16.2595C40.8434 16.4236 41.1148 16.5748 41.3984 16.7031C41.6592 16.821 41.9305 16.9168 42.2068 17.0013V13.7513C41.9305 13.6668 41.6592 13.5701 41.3984 13.4531C41.1156 13.3256 40.8442 13.1753 40.5818 13.012Z" fill="#DB9531"/>
</svg>
