<svg width="20" height="20" viewBox="0 0 20 20" fill="none" xmlns="http://www.w3.org/2000/svg">
<rect width="20" height="20" rx="10" fill="url(#paint0_linear)"/>
<g clip-path="url(#clip0)">
<path d="M13.0585 5C12.5445 4.99951 12.0513 5.24901 11.6872 5.69374C11.3231 6.13847 11.1178 6.74208 11.1165 7.37207V10.0021C10.9165 10.0187 10.712 10.0291 10.5 10.0291C10.288 10.0291 10.0845 10.0395 9.8835 10.0542V7.37207C9.87532 6.74754 9.66715 6.15198 9.30389 5.71387C8.94063 5.27576 8.4514 5.03022 7.94175 5.03022C7.4321 5.03022 6.94287 5.27576 6.57961 5.71387C6.21635 6.15198 6.00818 6.74754 6 7.37207V13.658C6.00818 14.2825 6.21635 14.878 6.57961 15.3162C6.94287 15.7543 7.4321 15.9998 7.94175 15.9998C8.4514 15.9998 8.94063 15.7543 9.30389 15.3162C9.66715 14.878 9.87532 14.2825 9.8835 13.658V11.0279C10.0835 11.0114 10.288 11.0009 10.5 11.0009C10.712 11.0009 10.9155 10.9905 11.1165 10.9758V13.658C11.1247 14.2825 11.3329 14.878 11.6961 15.3162C12.0594 15.7543 12.5486 15.9998 13.0582 15.9998C13.5679 15.9998 14.0571 15.7543 14.4204 15.3162C14.7836 14.878 14.9918 14.2825 15 13.658V7.37207C14.9987 6.74218 14.7935 6.13867 14.4295 5.69396C14.0655 5.24925 13.5725 4.99967 13.0585 5ZM7.9415 5.97187C8.24487 5.97171 8.53591 6.11904 8.75076 6.38154C8.9656 6.64404 9.08671 7.00027 9.0875 7.37207V10.1572C8.51939 10.258 7.96461 10.4503 7.4375 10.7289C7.20912 10.8517 6.99412 11.009 6.7975 11.197V7.37207C6.79829 7.00069 6.91912 6.64483 7.13354 6.3824C7.34795 6.11997 7.63847 5.97235 7.9415 5.97187ZM9.0875 13.658C9.0875 14.0305 8.96676 14.3877 8.75184 14.6511C8.53693 14.9145 8.24544 15.0624 7.9415 15.0624C7.63756 15.0624 7.34607 14.9145 7.13116 14.6511C6.91624 14.3877 6.7955 14.0305 6.7955 13.658V13.0274C6.7955 12.4704 7.1555 11.9428 7.759 11.6143C8.18424 11.3895 8.63042 11.2296 9.0875 11.1382V13.658ZM13.0585 15.0582C12.7551 15.0583 12.4641 14.911 12.2492 14.6485C12.0344 14.386 11.9133 14.0298 11.9125 13.658V10.8729C12.4806 10.772 13.0354 10.5798 13.5625 10.3012C13.7909 10.1783 14.0059 10.021 14.2025 9.83299V13.658C14.2017 14.0293 14.0809 14.3852 13.8665 14.6476C13.6521 14.9101 13.3615 15.0577 13.0585 15.0582ZM13.241 9.41201C12.8158 9.63685 12.3696 9.79676 11.9125 9.88814V7.37207C11.9125 6.99958 12.0332 6.64234 12.2482 6.37894C12.4631 6.11555 12.7546 5.96758 13.0585 5.96758C13.3624 5.96758 13.6539 6.11555 13.8688 6.37894C14.0838 6.64234 14.2045 6.99958 14.2045 7.37207V8.00262C14.2045 8.55718 13.8445 9.08479 13.241 9.41201Z" fill="white"/>
</g>
<defs>
<linearGradient id="paint0_linear" x1="16.1111" y1="1.66667" x2="5.55556" y2="18.8889" gradientUnits="userSpaceOnUse">
<stop stop-color="#08E6CB"/>
<stop offset="1" stop-color="#4072D3"/>
</linearGradient>
<clipPath id="clip0">
<rect width="9" height="11" fill="white" transform="translate(6 5)"/>
</clipPath>
</defs>
</svg>
