<svg width="15" height="15" viewBox="0 0 15 15" fill="none" xmlns="http://www.w3.org/2000/svg">
<path fill-rule="evenodd" clip-rule="evenodd" d="M7.49897 0C6.51794 0 5.72266 0.795285 5.72266 1.77632V5.72471H1.77631C0.795283 5.72471 0 6.52 0 7.50103C0 8.48206 0.795283 9.27734 1.77631 9.27734H5.72266V13.2237C5.72266 14.2047 6.51794 15 7.49897 15C8.48 15 9.27529 14.2047 9.27529 13.2237V9.27734H13.2237C14.2047 9.27734 15 8.48206 15 7.50103C15 6.52 14.2047 5.72471 13.2237 5.72471H9.27529V1.77632C9.27529 0.795284 8.48 0 7.49897 0Z" fill="white"/>
</svg>
