<svg width="19" height="19" viewBox="0 0 19 19" fill="none" xmlns="http://www.w3.org/2000/svg">
<path d="M9.00195 14.248C9.48736 14.248 9.88086 13.8545 9.88086 13.3691C9.88086 12.8837 9.48736 12.4902 9.00195 12.4902C8.51655 12.4902 8.12305 12.8837 8.12305 13.3691C8.12305 13.8545 8.51655 14.248 9.00195 14.248Z" fill="#FFA800"/>
<path d="M9.00195 0.0625C4.02791 0.0625 0.00195312 4.08778 0.00195312 9.0625C0.00195312 14.0365 4.02724 18.0625 9.00195 18.0625C13.976 18.0625 18.002 14.0372 18.002 9.0625C18.002 4.08845 13.9767 0.0625 9.00195 0.0625ZM9.00195 16.6562C4.80511 16.6562 1.4082 13.2599 1.4082 9.0625C1.4082 4.86565 4.80454 1.46875 9.00195 1.46875C13.1988 1.46875 16.5957 4.86509 16.5957 9.0625C16.5957 13.2593 13.1994 16.6562 9.00195 16.6562Z" fill="#FFA800"/>
<path d="M9.00195 4.58008C7.45114 4.58008 6.18945 5.84177 6.18945 7.39258C6.18945 7.78091 6.50424 8.0957 6.89258 8.0957C7.28091 8.0957 7.5957 7.78091 7.5957 7.39258C7.5957 6.61717 8.22655 5.98633 9.00195 5.98633C9.77736 5.98633 10.4082 6.61717 10.4082 7.39258C10.4082 8.16798 9.77736 8.79883 9.00195 8.79883C8.61362 8.79883 8.29883 9.11362 8.29883 9.50195V11.2598C8.29883 11.6481 8.61362 11.9629 9.00195 11.9629C9.39029 11.9629 9.70508 11.6481 9.70508 11.2598V10.1161C10.9168 9.8031 11.8145 8.70071 11.8145 7.39258C11.8145 5.84177 10.5528 4.58008 9.00195 4.58008Z" fill="#FFA800"/>
</svg>
