<svg width="12" height="13" viewBox="0 0 12 13" fill="none" xmlns="http://www.w3.org/2000/svg">
<g clip-path="url(#clip0_359_10727)">
<path d="M6 2.06225C6.77492 2.06111 7.53678 2.26187 8.2105 2.64475L7.6465 3.20875C7.5766 3.27868 7.52899 3.36776 7.50971 3.46474C7.49043 3.56171 7.50033 3.66223 7.53816 3.75358C7.576 3.84493 7.64007 3.92301 7.72227 3.97795C7.80448 4.03289 7.90113 4.06223 8 4.06225H10C10.1326 4.06225 10.2598 4.00957 10.3536 3.91581C10.4473 3.82204 10.5 3.69486 10.5 3.56225V1.56225C10.5 1.46338 10.4706 1.36673 10.4157 1.28452C10.3608 1.20232 10.2827 1.13825 10.1913 1.10041C10.1 1.06258 9.99946 1.05268 9.90248 1.07196C9.80551 1.09124 9.71643 1.13885 9.6465 1.20875L8.9415 1.91225C8.1095 1.38564 7.15137 1.09204 6.16717 1.06211C5.18296 1.03218 4.20877 1.26702 3.3463 1.74211C2.48384 2.2172 1.76473 2.91512 1.26406 3.76299C0.763391 4.61086 0.499521 5.57759 0.500001 6.56225C0.500001 6.69486 0.552679 6.82204 0.646447 6.91581C0.740215 7.00957 0.867392 7.06225 1 7.06225C1.13261 7.06225 1.25979 7.00957 1.35355 6.91581C1.44732 6.82204 1.5 6.69486 1.5 6.56225C1.50132 5.36918 1.97585 4.22536 2.81948 3.38173C3.66311 2.53811 4.80693 2.06358 6 2.06225Z" fill="#00A3FF"/>
<path d="M11 6.0625C10.8674 6.0625 10.7402 6.11518 10.6464 6.20895C10.5527 6.30271 10.5 6.42989 10.5 6.5625C10.4987 7.75557 10.0241 8.89939 9.18052 9.74302C8.33689 10.5866 7.19307 11.0612 6 11.0625C5.22514 11.0639 4.46335 10.8629 3.79 10.4795L4.3535 9.916C4.4234 9.84608 4.47101 9.75699 4.49029 9.66002C4.50958 9.56304 4.49967 9.46252 4.46184 9.37117C4.424 9.27982 4.35993 9.20174 4.27773 9.1468C4.19552 9.09186 4.09888 9.06252 4 9.0625H2C1.86739 9.0625 1.74021 9.11518 1.64645 9.20895C1.55268 9.30271 1.5 9.42989 1.5 9.5625V11.5625C1.49998 11.6614 1.52927 11.7581 1.58418 11.8403C1.63909 11.9225 1.71716 11.9866 1.8085 12.0245C1.86917 12.0498 1.93427 12.0627 2 12.0625C2.1326 12.0625 2.25975 12.0098 2.3535 11.916L3.059 11.2125C3.93799 11.771 4.95859 12.066 6 12.0625C7.45816 12.0608 8.85611 11.4808 9.88719 10.4497C10.9183 9.41861 11.4983 8.02066 11.5 6.5625C11.5 6.42989 11.4473 6.30271 11.3536 6.20895C11.2598 6.11518 11.1326 6.0625 11 6.0625Z" fill="#00A3FF"/>
</g>
<defs>
<clipPath id="clip0_359_10727">
<rect width="12" height="12" fill="white" transform="translate(0 0.5625)"/>
</clipPath>
</defs>
</svg>
