<svg width="11" height="12" viewBox="0 0 11 12" fill="none" xmlns="http://www.w3.org/2000/svg">
<path d="M3.54576 9.78613C3.48795 9.78613 3.45904 9.78613 3.4346 9.78541C2.56168 9.75953 1.8601 9.05795 1.83422 8.18503C1.8335 8.16059 1.8335 8.13168 1.8335 8.07387L1.8335 3.2484C1.8335 3.19059 1.8335 3.16168 1.83422 3.13724C1.8601 2.26432 2.56168 1.56274 3.4346 1.53686C3.45904 1.53613 3.48795 1.53613 3.54576 1.53613L4.06463 1.53613C4.35119 1.53613 4.5835 1.76844 4.5835 2.055V2.055C4.5835 2.52783 4.9668 2.91113 5.43963 2.91113L5.5607 2.91113C6.03353 2.91113 6.41683 2.52783 6.41683 2.055V2.055C6.41683 1.76844 6.64913 1.53613 6.9357 1.53613L7.45456 1.53613C7.51238 1.53613 7.54128 1.53613 7.56572 1.53686C8.43865 1.56274 9.14023 2.26432 9.1661 3.13724C9.16683 3.16168 9.16683 3.19059 9.16683 3.2484L9.16683 8.07387C9.16683 8.13168 9.16683 8.16059 9.1661 8.18503C9.14023 9.05795 8.43865 9.75953 7.56572 9.78541C7.54128 9.78613 7.51238 9.78613 7.45457 9.78613L6.9357 9.78613C6.64913 9.78613 6.41683 9.55383 6.41683 9.26726V9.26726C6.41683 8.79444 6.03353 8.41113 5.5607 8.41113L5.43963 8.41113C4.9668 8.41113 4.5835 8.79444 4.5835 9.26726V9.26726C4.5835 9.55383 4.35119 9.78613 4.06463 9.78613L3.54576 9.78613Z" stroke="#FFAB04" stroke-width="1.1"/>
<path d="M4.89908 5.86461C4.69972 5.78755 4.60004 5.74902 4.58622 5.68642C4.58259 5.66996 4.58259 5.65295 4.58622 5.63649C4.60004 5.5739 4.69972 5.53537 4.89908 5.45831C5.01246 5.41449 5.06914 5.39257 5.1077 5.35158C5.11851 5.34008 5.12814 5.32759 5.13646 5.3143C5.1661 5.26691 5.1716 5.20776 5.18259 5.08945C5.20121 4.88917 5.21051 4.78903 5.26977 4.75845C5.28204 4.75212 5.29532 4.74781 5.30907 4.74571C5.37546 4.73558 5.44497 4.80919 5.58398 4.95643L5.62258 4.99731C5.68757 5.06615 5.72007 5.10056 5.76062 5.12047C5.78495 5.13241 5.81115 5.14042 5.83817 5.14417C5.88321 5.15043 5.93036 5.14035 6.02464 5.12019L6.05832 5.11299C6.2274 5.07684 6.31194 5.05877 6.3535 5.08133C6.39082 5.1016 6.41472 5.13893 6.41676 5.18016C6.41904 5.22607 6.36434 5.29076 6.25493 5.42013C6.18285 5.50537 6.14681 5.54799 6.13274 5.5953C6.11987 5.63853 6.11987 5.68438 6.13274 5.72762C6.14681 5.77493 6.18285 5.81755 6.25493 5.90278C6.36434 6.03216 6.41904 6.09684 6.41676 6.14275C6.41472 6.18399 6.39082 6.22132 6.3535 6.24159C6.31194 6.26415 6.2274 6.24608 6.05832 6.20993L6.02464 6.20273C5.93036 6.18257 5.88321 6.17249 5.83817 6.17874C5.81115 6.1825 5.78495 6.1905 5.76062 6.20244C5.72007 6.22235 5.68757 6.25677 5.62258 6.3256L5.58398 6.36649C5.44497 6.51372 5.37546 6.58734 5.30907 6.5772C5.29532 6.5751 5.28204 6.5708 5.26977 6.56446C5.21051 6.53388 5.20121 6.43374 5.18259 6.23347C5.1716 6.11516 5.1661 6.056 5.13646 6.00862C5.12814 5.99532 5.11851 5.98284 5.1077 5.97134C5.06914 5.93034 5.01246 5.90843 4.89908 5.86461Z" fill="#FFAB04" stroke="#FFAB04" stroke-width="0.55"/>
</svg>
