<svg width="24" height="24" viewBox="0 0 24 24" fill="none" xmlns="http://www.w3.org/2000/svg">
<path fill-rule="evenodd" clip-rule="evenodd" d="M18.7459 18.804C19.3249 17.9208 19.5408 17.4693 19.9824 16.4781C16.7242 15.2415 16.204 10.5995 19.423 8.82311C18.4416 7.58653 17.0578 6.87012 15.7526 6.87012C14.8104 6.87012 14.1627 7.11548 13.5837 7.3412C13.0929 7.52767 12.6513 7.6945 12.1017 7.6945C11.5129 7.6945 10.9927 7.50804 10.4432 7.31176C9.84449 7.09585 9.21639 6.87012 8.43127 6.87012C6.96897 6.87012 5.40854 7.7632 4.41732 9.29419C3.02372 11.4533 3.26907 15.4967 5.51649 18.9512C6.32125 20.1878 7.40079 21.5716 8.80421 21.5912C9.39305 21.601 9.7758 21.4244 10.1978 21.2379C10.6787 21.022 11.1988 20.7865 12.1115 20.7865C13.0242 20.7766 13.5346 21.022 14.0155 21.2379C14.4277 21.4244 14.8006 21.601 15.3796 21.5912C16.8027 21.5716 17.9411 20.0406 18.7459 18.804Z" fill="#000462"/>
<path fill-rule="evenodd" clip-rule="evenodd" d="M15.5468 1.96289C15.7038 3.04244 15.2622 4.11218 14.6832 4.85805C14.0649 5.6628 12.9853 6.29089 11.9451 6.25163C11.7586 5.21134 12.2395 4.1416 12.8283 3.42518C13.4859 2.64005 14.5948 2.03159 15.5468 1.96289Z" fill="#000462"/>
</svg>
