<svg width="21" height="20" viewBox="0 0 21 20" fill="none" xmlns="http://www.w3.org/2000/svg">
<rect width="21" height="20" rx="5" fill="#272727"/>
<path d="M15.45 9.4502V10.5502C15.45 12.6244 15.45 13.6615 14.8056 14.3058C14.1612 14.9502 13.1241 14.9502 11.05 14.9502H9.94995C7.87577 14.9502 6.83868 14.9502 6.19432 14.3058C5.54995 13.6615 5.54995 12.6244 5.54995 10.5502V9.4502C5.54995 7.37602 5.54995 6.33893 6.19432 5.69456C6.83868 5.0502 7.87577 5.0502 9.94995 5.0502H10.5" stroke="#CCD2E3" stroke-width="1.1"/>
<path fill-rule="evenodd" clip-rule="evenodd" d="M14.3496 10.8725L14.2159 10.7388L14.2078 10.7307C14.1728 10.6957 14.1434 10.6662 14.1174 10.6423C13.3308 9.91958 12.0753 10.1233 11.5577 11.0577C11.5406 11.0885 11.522 11.1258 11.4998 11.1701L11.4998 11.1701L11.4947 11.1804L11.4792 11.2112L11.4781 11.2133L11.4766 11.2116L11.4541 11.1854L8.71724 7.99237C8.51955 7.76174 8.17234 7.73503 7.94171 7.93271C7.71108 8.13039 7.68437 8.47761 7.88205 8.70824L10.6189 11.9012L10.6237 11.9069L10.6238 11.9069C10.6396 11.9254 10.6583 11.9472 10.6753 11.9653C11.1849 12.5096 12.077 12.3998 12.4394 11.7482C12.4515 11.7264 12.4643 11.7008 12.4752 11.679L12.4786 11.6723C12.5087 11.6121 12.5157 11.5982 12.5199 11.5908C12.6924 11.2793 13.1109 11.2114 13.3731 11.4523C13.3794 11.4581 13.3905 11.469 13.4381 11.5166L14.319 12.3975C14.3444 12.0027 14.3489 11.5119 14.3496 10.8725Z" fill="#CCD2E3"/>
<path d="M15.45 5.0498V4.4998H16V5.0498H15.45ZM13.0435 7.67928C12.8063 7.86904 12.4602 7.83058 12.2705 7.59339C12.0807 7.35619 12.1192 7.01008 12.3564 6.82033L13.0435 7.67928ZM14.9 7.7998V5.0498H16V7.7998H14.9ZM15.45 5.5998H12.7V4.4998H15.45V5.5998ZM15.7935 5.47928L13.0435 7.67928L12.3564 6.82033L15.1064 4.62033L15.7935 5.47928Z" fill="#CCD2E3"/>
</svg>
