<svg width="89" height="89" viewBox="0 0 89 89" fill="none" xmlns="http://www.w3.org/2000/svg">
<g clip-path="url(#clip0_1322_6033)">
<path d="M35.3676 36.296L44.7321 45.65C45.9349 46.8515 47.8604 46.923 49.149 45.814L73.0503 25.2441" stroke="#01DF5A" stroke-width="6.5" stroke-linecap="round"/>
<path d="M73.0633 48.2256C72.2023 54.2763 69.4677 59.9053 65.2435 64.322C61.0193 68.7388 55.5178 71.7215 49.5115 72.8511C43.5052 73.9808 37.2959 73.2007 31.7557 70.6204C26.2155 68.0401 21.6227 63.7893 18.6224 58.4649C15.622 53.1405 14.3648 47.01 15.0273 40.9344C15.6898 34.8588 18.2388 29.1433 22.3162 24.5907C26.3936 20.0381 31.7946 16.877 37.7607 15.5515C43.7268 14.2259 49.9583 14.8024 55.58 17.2" stroke="#01DF5A" stroke-width="6.5" stroke-linecap="round"/>
</g>
<defs>
<clipPath id="clip0_1322_6033">
<rect width="88.2101" height="88.2101" fill="white"/>
</clipPath>
</defs>
</svg>
