<svg width="9" height="9" viewBox="0 0 9 9" fill="none" xmlns="http://www.w3.org/2000/svg">
<path d="M8.55508 3.05508V1.83262C8.55508 0.820703 7.73438 0 6.72246 0H1.83262C0.820703 0 0 0.820703 0 1.83262V6.72246C0 7.73438 0.820703 8.55508 1.83262 8.55508H3.05508C3.39238 8.55508 3.66523 8.28223 3.66523 7.94492C3.66523 7.60762 3.39238 7.33477 3.05508 7.33477H1.83262C1.49531 7.33477 1.22246 7.05977 1.22246 6.72461V1.83477C1.22246 1.49746 1.49746 1.22461 1.83262 1.22461H6.72246C7.05977 1.22461 7.33262 1.49746 7.33262 1.83477V3.05723C7.33262 3.39453 7.60547 3.66738 7.94277 3.66738C8.28008 3.66738 8.55508 3.39238 8.55508 3.05508Z" fill="#A0A0A0"/>
</svg>
