<svg width="40" height="40" viewBox="0 0 40 40" fill="none" xmlns="http://www.w3.org/2000/svg">
<path d="M15.0002 9.99997C15.0002 10.6566 15.1296 11.3068 15.3808 11.9134C15.6321 12.52 16.0004 13.0712 16.4647 13.5355C16.929 13.9998 17.4802 14.3681 18.0868 14.6194C18.6935 14.8706 19.3436 15 20.0002 15C20.6569 15 21.307 14.8706 21.9137 14.6194C22.5203 14.3681 23.0715 13.9998 23.5358 13.5355C24.0001 13.0712 24.3684 12.52 24.6196 11.9134C24.8709 11.3068 25.0002 10.6566 25.0002 9.99997C25.0002 9.34336 24.8709 8.69318 24.6196 8.08655C24.3684 7.47992 24.0001 6.92873 23.5358 6.46443C23.0715 6.00014 22.5203 5.63184 21.9137 5.38057C21.307 5.1293 20.6569 4.99997 20.0002 4.99997C19.3436 4.99997 18.6935 5.1293 18.0868 5.38057C17.4802 5.63185 16.929 6.00014 16.4647 6.46444C16.0004 6.92873 15.6321 7.47993 15.3808 8.08655C15.1296 8.69318 15.0002 9.34336 15.0002 9.99997L15.0002 9.99997Z" stroke="#686868" stroke-width="3.34967"/>
<path d="M7.39668 23.1692C6.82804 23.4975 6.32963 23.9346 5.92992 24.4555C5.5302 24.9764 5.237 25.571 5.06705 26.2052C4.89711 26.8395 4.85375 27.5009 4.93946 28.1519C5.02516 28.8029 5.23825 29.4307 5.56656 29.9993C5.89486 30.568 6.33195 31.0664 6.85288 31.4661C7.3738 31.8658 7.96835 32.159 8.60259 32.3289C9.23682 32.4989 9.89832 32.5422 10.5493 32.4565C11.2003 32.3708 11.828 32.1577 12.3967 31.8294C12.9653 31.5011 13.4637 31.064 13.8634 30.5431C14.2632 30.0222 14.5564 29.4276 14.7263 28.7934C14.8963 28.1592 14.9396 27.4977 14.8539 26.8467C14.7682 26.1957 14.5551 25.5679 14.2268 24.9993C13.8985 24.4307 13.4614 23.9323 12.9405 23.5325C12.4196 23.1328 11.825 22.8396 11.1908 22.6697C10.5565 22.4997 9.89504 22.4564 9.24405 22.5421C8.59306 22.6278 7.96532 22.8409 7.39668 23.1692L7.39668 23.1692Z" stroke="#686868" stroke-width="3.34967"/>
<path d="M32.6038 23.1692C33.1725 23.4975 33.6709 23.9346 34.0706 24.4555C34.4703 24.9764 34.7635 25.571 34.9334 26.2052C35.1034 26.8395 35.1467 27.501 35.061 28.1519C34.9753 28.8029 34.7622 29.4307 34.4339 29.9993C34.1056 30.568 33.6685 31.0664 33.1476 31.4661C32.6267 31.8658 32.0321 32.159 31.3979 32.3289C30.7637 32.4989 30.1022 32.5422 29.4512 32.4565C28.8002 32.3708 28.1724 32.1577 27.6038 31.8294C27.0352 31.5011 26.5368 31.064 26.137 30.5431C25.7373 30.0222 25.4441 29.4276 25.2742 28.7934C25.1042 28.1592 25.0609 27.4977 25.1466 26.8467C25.2323 26.1957 25.4454 25.5679 25.7737 24.9993C26.102 24.4307 26.5391 23.9323 27.06 23.5325C27.5809 23.1328 28.1755 22.8396 28.8097 22.6697C29.444 22.4997 30.1055 22.4564 30.7564 22.5421C31.4074 22.6278 32.0352 22.8409 32.6038 23.1692L32.6038 23.1692Z" stroke="#686868" stroke-width="3.34967"/>
<path fill-rule="evenodd" clip-rule="evenodd" d="M15.055 10.7405C15.0184 10.4961 14.9999 10.2488 14.9999 10.0005C14.9999 9.34393 15.1293 8.69375 15.3805 8.08712C15.4383 7.94768 15.5022 7.81118 15.5721 7.67798C15.1709 7.80496 14.7747 7.94935 14.3847 8.11092C12.6044 8.84832 10.9869 9.92914 9.62433 11.2917C8.2618 12.6542 7.18098 14.2718 6.44359 16.052C5.70619 17.8322 5.32666 19.7403 5.32666 21.6672C5.32666 22.7323 5.44261 23.7916 5.67086 24.8267C5.75132 24.6995 5.83761 24.5758 5.92954 24.456C6.32925 23.9351 6.82766 23.498 7.3963 23.1697C7.61127 23.0456 7.83469 22.9379 8.06461 22.8474C8.0259 22.4559 8.0064 22.062 8.0064 21.6672C8.0064 20.0922 8.31662 18.5326 8.91934 17.0775C9.52207 15.6224 10.4055 14.3002 11.5192 13.1865C12.5416 12.1641 13.7397 11.3358 15.055 10.7405ZM24.9449 10.7406C26.2602 11.3359 27.4582 12.1642 28.4805 13.1865C29.5942 14.3002 30.4776 15.6224 31.0804 17.0775C31.6831 18.5326 31.9933 20.0922 31.9933 21.6672C31.9933 22.062 31.9738 22.4559 31.9351 22.8474C32.1651 22.9379 32.3886 23.0456 32.6036 23.1697C33.1722 23.498 33.6706 23.9351 34.0704 24.456C34.1622 24.5758 34.2485 24.6994 34.3289 24.8265C34.5571 23.7914 34.6731 22.7322 34.6731 21.6672C34.6731 19.7403 34.2935 17.8322 33.5561 16.052C32.8187 14.2718 31.7379 12.6542 30.3754 11.2917C29.0128 9.92913 27.3953 8.84831 25.615 8.11091C25.2251 7.94937 24.8289 7.80501 24.4278 7.67804C24.4977 7.81122 24.5616 7.9477 24.6193 8.08712C24.8706 8.69374 24.9999 9.34392 24.9999 10.0005C24.9999 10.2488 24.9815 10.4962 24.9449 10.7406ZM29.9016 32.4958C29.7512 32.4897 29.6008 32.4768 29.451 32.4571C28.8 32.3714 28.1722 32.1583 27.6036 31.83C27.3887 31.7059 27.1839 31.5663 26.9906 31.4126C26.2458 31.9469 25.4404 32.3953 24.5896 32.7477C23.1344 33.3504 21.5749 33.6606 19.9999 33.6606C18.4249 33.6606 16.8653 33.3504 15.4102 32.7477C14.5593 32.3953 13.754 31.9469 13.0092 31.4126C12.8159 31.5664 12.6111 31.7059 12.3963 31.83C11.8277 32.1583 11.1999 32.3714 10.5489 32.4571C10.3991 32.4768 10.2486 32.4897 10.0981 32.4958C11.3562 33.6462 12.8065 34.5698 14.3847 35.2235C16.1649 35.9609 18.073 36.3404 19.9999 36.3404C21.9268 36.3404 23.8348 35.9609 25.6151 35.2235C27.1932 34.5698 28.6435 33.6462 29.9016 32.4958Z" fill="#686868"/>
<path d="M14.9999 10.0005H15.6699V10.0005L14.9999 10.0005ZM15.055 10.7405L15.3312 11.3509L15.7925 11.1421L15.7176 10.6414L15.055 10.7405ZM15.3805 8.08712L15.9995 8.34349V8.34349L15.3805 8.08712ZM15.5721 7.67798L16.1654 7.98917L16.9212 6.54829L15.37 7.03927L15.5721 7.67798ZM14.3847 8.11092L14.641 8.72986L14.3847 8.11092ZM9.62433 11.2917L9.15062 10.818L9.62433 11.2917ZM5.32666 21.6672H5.99659V21.6672L5.32666 21.6672ZM5.67086 24.8267L5.01664 24.971L5.36703 26.5601L6.23701 25.1849L5.67086 24.8267ZM5.92954 24.456L6.46103 24.8639H6.46103L5.92954 24.456ZM7.3963 23.1697L7.06134 22.5895H7.06134L7.3963 23.1697ZM8.06461 22.8474L8.31003 23.4708L8.78111 23.2853L8.73129 22.7815L8.06461 22.8474ZM8.91934 17.0775L9.53828 17.3339V17.3339L8.91934 17.0775ZM11.5192 13.1865L11.0455 12.7128L11.5192 13.1865ZM24.9449 10.7406L24.2823 10.6414L24.2074 11.1422L24.6687 11.351L24.9449 10.7406ZM28.4805 13.1865L28.0068 13.6602V13.6602L28.4805 13.1865ZM31.0804 17.0775L30.4614 17.3339L31.0804 17.0775ZM31.9933 21.6672L32.6633 21.6672L31.9933 21.6672ZM31.9351 22.8474L31.2684 22.7814L31.2186 23.2853L31.6897 23.4707L31.9351 22.8474ZM32.6036 23.1697L32.2686 23.7499L32.6036 23.1697ZM34.0704 24.456L33.5389 24.8639V24.8639L34.0704 24.456ZM34.3289 24.8265L33.7628 25.1847L34.6328 26.5598L34.9831 24.9707L34.3289 24.8265ZM30.3754 11.2917L30.8491 10.8179V10.8179L30.3754 11.2917ZM25.615 8.11091L25.3587 8.72985V8.72985L25.615 8.11091ZM24.4278 7.67804L24.63 7.03934L23.0788 6.54834L23.8345 7.98923L24.4278 7.67804ZM24.6193 8.08712L25.2383 7.83074V7.83074L24.6193 8.08712ZM29.451 32.4571L29.3635 33.1213L29.451 32.4571ZM29.9016 32.4958L30.3537 32.9902L31.5545 31.8921L29.9287 31.8264L29.9016 32.4958ZM27.6036 31.83L27.9386 31.2498L27.9386 31.2498L27.6036 31.83ZM26.9906 31.4126L27.4077 30.8883L27.0115 30.5731L26.6001 30.8682L26.9906 31.4126ZM24.5896 32.7477L24.8459 33.3666L24.5896 32.7477ZM15.4102 32.7477L15.6665 32.1288H15.6665L15.4102 32.7477ZM13.0092 31.4126L13.3997 30.8683L12.9883 30.5732L12.5921 30.8884L13.0092 31.4126ZM12.3963 31.83L12.0613 31.2498H12.0613L12.3963 31.83ZM10.5489 32.4571L10.4615 31.7929L10.4615 31.7929L10.5489 32.4571ZM10.0981 32.4958L10.0711 31.8264L8.44513 31.892L9.64602 32.9902L10.0981 32.4958ZM14.3847 35.2235L14.641 34.6045L14.3847 35.2235ZM25.6151 35.2235L25.3587 34.6045H25.3587L25.6151 35.2235ZM14.33 10.0005C14.33 10.2821 14.351 10.5625 14.3925 10.8397L15.7176 10.6414C15.6859 10.4297 15.6699 10.2155 15.6699 10.0005H14.33ZM14.7616 7.83075C14.4767 8.51866 14.33 9.25595 14.33 10.0005L15.6699 10.0005C15.6699 9.4319 15.7819 8.86884 15.9995 8.34349L14.7616 7.83075ZM14.9788 7.36679C14.8996 7.51783 14.8271 7.67263 14.7616 7.83075L15.9995 8.34349C16.0495 8.22274 16.1049 8.10452 16.1654 7.98917L14.9788 7.36679ZM15.37 7.03927C14.9504 7.17205 14.5362 7.32303 14.1283 7.49198L14.641 8.72986C15.0133 8.57566 15.3914 8.43787 15.7743 8.31668L15.37 7.03927ZM14.1283 7.49198C12.2668 8.26304 10.5754 9.39321 9.15062 10.818L10.0981 11.7654C11.3984 10.4651 12.9421 9.43359 14.641 8.72986L14.1283 7.49198ZM9.15062 10.818C7.72588 12.2427 6.59571 13.9341 5.82465 15.7956L7.06253 16.3084C7.76625 14.6094 8.79773 13.0657 10.0981 11.7654L9.15062 10.818ZM5.82465 15.7956C5.05358 17.6571 4.65672 19.6523 4.65673 21.6672L5.99659 21.6672C5.99659 19.8283 6.3588 18.0073 7.06253 16.3084L5.82465 15.7956ZM4.65673 21.6672C4.65673 22.7809 4.77797 23.8886 5.01664 24.971L6.32508 24.6824C6.10725 23.6946 5.99659 22.6836 5.99659 21.6672H4.65673ZM5.39804 24.0482C5.2938 24.184 5.19594 24.3243 5.10471 24.4685L6.23701 25.1849C6.30669 25.0747 6.38142 24.9676 6.46103 24.8639L5.39804 24.0482ZM7.06134 22.5895C6.4165 22.9618 5.85132 23.4575 5.39804 24.0482L6.46103 24.8639C6.80719 24.4127 7.23882 24.0342 7.73127 23.7499L7.06134 22.5895ZM7.81919 22.2241C7.55846 22.3267 7.30511 22.4488 7.06134 22.5895L7.73127 23.7499C7.91744 23.6424 8.11092 23.5492 8.31003 23.4708L7.81919 22.2241ZM8.73129 22.7815C8.69474 22.4119 8.67633 22.04 8.67633 21.6672H7.33646C7.33646 22.0841 7.35705 22.5 7.39793 22.9134L8.73129 22.7815ZM8.67633 21.6672C8.67633 20.1802 8.96922 18.7077 9.53828 17.3339L8.30041 16.8211C7.66401 18.3575 7.33646 20.0042 7.33646 21.6672H8.67633ZM9.53828 17.3339C10.1073 15.96 10.9414 14.7117 11.9929 13.6602L11.0455 12.7128C9.86958 13.8887 8.9368 15.2847 8.3004 16.8211L9.53828 17.3339ZM11.9929 13.6602C12.9582 12.695 14.0893 11.9129 15.3312 11.3509L14.7788 10.1302C13.39 10.7587 12.125 11.6333 11.0455 12.7128L11.9929 13.6602ZM24.6687 11.351C25.9105 11.913 27.0416 12.695 28.0068 13.6602L28.9542 12.7128C27.8748 11.6333 26.6098 10.7588 25.2211 10.1303L24.6687 11.351ZM28.0068 13.6602C29.0583 14.7117 29.8924 15.96 30.4614 17.3339L31.6993 16.8211C31.0629 15.2847 30.1301 13.8887 28.9542 12.7128L28.0068 13.6602ZM30.4614 17.3339C31.0305 18.7077 31.3234 20.1802 31.3234 21.6672L32.6633 21.6672C32.6633 20.0042 32.3357 18.3575 31.6993 16.8211L30.4614 17.3339ZM31.3234 21.6672C31.3234 22.04 31.305 22.4118 31.2684 22.7814L32.6018 22.9133C32.6427 22.4999 32.6633 22.0841 32.6633 21.6672H31.3234ZM32.9386 22.5895C32.6947 22.4488 32.4413 22.3267 32.1805 22.224L31.6897 23.4707C31.8889 23.5491 32.0824 23.6424 32.2686 23.7499L32.9386 22.5895ZM34.6019 24.0482C34.1486 23.4575 33.5834 22.9618 32.9386 22.5895L32.2686 23.7499C32.7611 24.0342 33.1927 24.4127 33.5389 24.8639L34.6019 24.0482ZM34.895 24.4683C34.8039 24.3242 34.706 24.184 34.6019 24.0482L33.5389 24.8639C33.6184 24.9676 33.6931 25.0746 33.7628 25.1847L34.895 24.4683ZM34.9831 24.9707C35.2218 23.8884 35.343 22.7808 35.343 21.6672H34.0031C34.0031 22.6836 33.8925 23.6944 33.6747 24.6823L34.9831 24.9707ZM35.343 21.6672C35.343 19.6523 34.9461 17.6571 34.1751 15.7956L32.9372 16.3084C33.6409 18.0073 34.0031 19.8282 34.0031 21.6672H35.343ZM34.1751 15.7956C33.404 13.9341 32.2738 12.2427 30.8491 10.8179L29.9017 11.7654C31.202 13.0657 32.2335 14.6094 32.9372 16.3084L34.1751 15.7956ZM30.8491 10.8179C29.4244 9.3932 27.7329 8.26304 25.8714 7.49197L25.3587 8.72985C27.0576 9.43358 28.6013 10.4651 29.9017 11.7654L30.8491 10.8179ZM25.8714 7.49197C25.4636 7.32306 25.0494 7.1721 24.63 7.03934L24.2257 8.31675C24.6084 8.43791 24.9865 8.57569 25.3587 8.72985L25.8714 7.49197ZM25.2383 7.83074C25.1728 7.67265 25.1003 7.51788 25.0211 7.36686L23.8345 7.98923C23.895 8.10456 23.9504 8.22276 24.0004 8.34349L25.2383 7.83074ZM25.6699 10.0005C25.6699 9.25595 25.5232 8.51865 25.2383 7.83074L24.0004 8.34349C24.218 8.86884 24.33 9.4319 24.33 10.0005H25.6699ZM25.6074 10.8398C25.6489 10.5626 25.6699 10.2821 25.6699 10.0005H24.33C24.33 10.2155 24.314 10.4298 24.2823 10.6414L25.6074 10.8398ZM29.3635 33.1213C29.5334 33.1436 29.7039 33.1582 29.8746 33.1651L29.9287 31.8264C29.7984 31.8211 29.6682 31.8099 29.5384 31.7929L29.3635 33.1213ZM27.2686 32.4101C27.9135 32.7824 28.6253 33.0241 29.3635 33.1213L29.5384 31.7929C28.9746 31.7186 28.431 31.5341 27.9386 31.2498L27.2686 32.4101ZM26.5735 31.9368C26.7927 32.1112 27.025 32.2695 27.2686 32.4101L27.9386 31.2498C27.7525 31.1423 27.5751 31.0215 27.4077 30.8883L26.5735 31.9368ZM26.6001 30.8682C25.8969 31.3727 25.1365 31.796 24.3332 32.1288L24.8459 33.3666C25.7443 32.9945 26.5947 32.5211 27.3811 31.9569L26.6001 30.8682ZM24.3332 32.1288C22.9594 32.6978 21.4869 32.9907 19.9999 32.9907V34.3306C21.6628 34.3306 23.3095 34.003 24.8459 33.3666L24.3332 32.1288ZM19.9999 32.9907C18.5128 32.9907 17.0404 32.6978 15.6665 32.1288L15.1538 33.3666C16.6902 34.003 18.3369 34.3306 19.9999 34.3306V32.9907ZM15.6665 32.1288C14.8632 31.796 14.1029 31.3727 13.3997 30.8683L12.6187 31.957C13.4051 32.5211 14.2555 32.9945 15.1538 33.3666L15.6665 32.1288ZM12.7313 32.4101C12.9749 32.2695 13.2071 32.1112 13.4263 31.9369L12.5921 30.8884C12.4247 31.0215 12.2474 31.1424 12.0613 31.2498L12.7313 32.4101ZM10.6364 33.1213C11.3746 33.0241 12.0864 32.7824 12.7313 32.4101L12.0613 31.2498C11.5689 31.5341 11.0253 31.7186 10.4615 31.7929L10.6364 33.1213ZM10.1251 33.1651C10.2958 33.1583 10.4664 33.1436 10.6364 33.1213L10.4615 31.7929C10.3317 31.8099 10.2014 31.8211 10.0711 31.8264L10.1251 33.1651ZM9.64602 32.9902C10.9616 34.1931 12.4781 35.1589 14.1283 35.8424L14.641 34.6045C13.135 33.9807 11.7509 33.0993 10.5502 32.0014L9.64602 32.9902ZM14.1283 35.8424C15.9898 36.6135 17.985 37.0103 19.9999 37.0103V35.6705C18.1609 35.6705 16.34 35.3082 14.641 34.6045L14.1283 35.8424ZM19.9999 37.0103C22.0148 37.0103 24.0099 36.6135 25.8714 35.8424L25.3587 34.6045C23.6597 35.3082 21.8388 35.6705 19.9999 35.6705V37.0103ZM25.8714 35.8424C27.5216 35.1589 29.0381 34.1931 30.3537 32.9902L29.4495 32.0014C28.2489 33.0993 26.8648 33.9807 25.3587 34.6045L25.8714 35.8424Z" fill="#686868"/>
</svg>
