<svg width="129" height="126" viewBox="0 0 129 126" fill="none" xmlns="http://www.w3.org/2000/svg">
<path d="M80.3407 54.1234C78.6235 54.1234 77.1516 52.8969 76.7836 51.1797C76.293 49.2172 77.6422 47.2547 79.6047 46.7641C79.7274 46.7641 95.1821 43.207 102.541 33.5172C107.57 26.8937 108.429 18.0625 108.429 13.1562H90.0305C87.9453 13.1562 86.3508 11.5617 86.3508 9.47656C86.3508 7.39141 87.9453 5.79688 90.0305 5.79688H111.986C113.826 5.79688 115.42 7.14609 115.666 9.10859C115.788 9.84453 117.505 26.2805 108.429 38.1781C99.475 49.9531 81.9352 54.0008 81.1992 54.1234C80.8313 54.1234 80.586 54.1234 80.3407 54.1234Z" fill="#FFE078"/>
<path d="M53.2345 54.1234C54.9517 54.1234 56.4236 52.8969 56.7916 51.1797C57.2822 49.2172 55.933 47.2547 53.9705 46.7641C53.8478 46.7641 38.3931 43.207 31.0337 33.5172C26.0048 26.8937 25.1462 18.0625 25.1462 13.1562H43.5447C45.6298 13.1562 47.2244 11.5617 47.2244 9.47656C47.2244 7.39141 45.6298 5.79688 43.5447 5.79688H21.5892C19.7494 5.79688 18.1548 7.14609 17.9095 9.10859C17.7869 9.84453 16.0697 26.2805 25.1462 38.1781C34.1001 49.9531 51.64 54.0008 52.3759 54.1234C52.6212 54.1234 52.9892 54.1234 53.2345 54.1234Z" fill="#FFE078"/>
<path d="M84.0202 50.5664L66.7257 56.5766L49.4312 50.5664C49.4312 50.5664 62.5554 57.0672 62.5554 68.9648C62.5554 80.8625 60.2249 85.5234 60.2249 85.5234H66.7257H73.2265C73.2265 85.5234 70.896 80.9852 70.896 68.9648C70.896 57.0672 84.0202 50.5664 84.0202 50.5664Z" fill="#FFCD03"/>
<path d="M84.0213 50.5664L66.7268 56.5766V85.5234H73.2276C73.2276 85.5234 70.8971 80.9852 70.8971 68.9648C70.8971 57.0672 84.0213 50.5664 84.0213 50.5664Z" fill="#FBB116"/>
<path d="M77.7659 81.8438H66.7268H55.6877C52.2534 81.8438 49.5549 84.2969 49.5549 87.9766H66.7268H83.8987C83.8987 84.2969 81.2002 81.8438 77.7659 81.8438Z" fill="#FBB116"/>
<path d="M83.8987 87.9766H66.7268H49.5549C45.5073 87.9766 42.1956 91.2883 42.1956 95.3359V96.5625H66.7268H91.2581V95.3359C91.2581 91.2883 87.9463 87.9766 83.8987 87.9766Z" fill="#F7971D"/>
<path d="M77.7659 81.8438H70.4065C73.8409 81.8438 76.5393 84.2969 76.5393 87.9766H83.8987C83.8987 84.2969 81.2002 81.8438 77.7659 81.8438Z" fill="#F7971D"/>
<path d="M83.8987 87.9766H76.5393C80.587 87.9766 83.8987 91.2883 83.8987 95.3359V96.5625H91.2581V95.3359C91.2581 91.2883 87.9463 87.9766 83.8987 87.9766Z" fill="#EB8623"/>
<path d="M97.7589 3.22109C97.7589 1.87187 96.655 0.890625 95.3058 0.890625H66.7269H38.148C36.7987 0.890625 35.6948 1.87187 35.6948 3.22109C35.5722 10.8258 35.8175 31.432 44.1581 44.9242C53.3573 59.7656 64.7644 61.2375 66.4816 61.4828C66.6042 61.4828 66.7269 61.4828 66.9722 61.4828C68.6894 61.3601 80.0964 59.7656 89.2956 44.9242C97.6363 31.432 97.8816 10.8258 97.7589 3.22109Z" fill="#FFCD03"/>
<path d="M97.7582 3.22109C97.7582 1.87187 96.6543 0.890625 95.305 0.890625H85.8605C85.9832 10.7031 86.9644 32.9039 78.9918 48.1133C75.9253 53.8781 70.6511 58.5391 67.5847 61.3602C70.5285 60.9922 80.8316 58.5391 89.2949 44.9242C97.6355 31.432 97.8808 10.8258 97.7582 3.22109Z" fill="#FBB116"/>
<path d="M104.628 54.7412L107.694 62.7139L108.062 71.2998L104.751 63.3271L104.628 54.7412Z" fill="white"/>
<path d="M97.8818 64.6781L105.854 61.4891L114.44 61.1211L106.468 64.5555L97.8818 64.6781Z" fill="white"/>
<path d="M109.166 58.668L107.081 63.5742L103.524 67.4992L105.486 62.4703L109.166 58.668Z" fill="white"/>
<path d="M101.929 60.1367L106.712 62.2219L110.637 65.7789L105.731 63.8164L101.929 60.1367Z" fill="white"/>
<path d="M28.9483 57.6895L28.8257 66.2754L25.8819 74.3707L25.7593 65.6621L28.9483 57.6895Z" fill="white"/>
<path d="M19.0132 64.3115L27.5991 64.4342L35.5718 67.3779L26.9858 67.5006L19.0132 64.3115Z" fill="white"/>
<path d="M31.646 63.085L27.8437 66.7646L23.0601 68.9725L26.7397 65.1701L31.646 63.085Z" fill="white"/>
<path d="M24.4104 61.6162L28.0901 65.4186L30.2979 70.2021L26.4956 66.5225L24.4104 61.6162Z" fill="white"/>
<path d="M124.62 38.9189L125.234 42.8439L124.62 46.8916L123.884 42.8439L124.62 38.9189Z" fill="white"/>
<path d="M120.572 42.8453L124.619 42.1094L128.544 42.8453L124.619 43.5813L120.572 42.8453Z" fill="white"/>
<path d="M126.337 41.125L124.865 43.2102L122.903 44.682L124.252 42.5969L126.337 41.125Z" fill="white"/>
<path d="M122.903 41.125L124.865 42.5969L126.337 44.5594L124.252 43.2102L122.903 41.125Z" fill="white"/>
<path d="M114.317 82.834L114.93 86.8816L114.317 90.9293L113.458 86.8816L114.317 82.834Z" fill="white"/>
<path d="M110.147 86.7607L114.195 86.1475L118.243 86.7607L114.195 87.6193L110.147 86.7607Z" fill="white"/>
<path d="M116.035 85.1631L114.563 87.1256L112.478 88.5975L113.95 86.5123L116.035 85.1631Z" fill="white"/>
<path d="M112.478 85.04L114.563 86.5119L116.035 88.5971L113.95 87.1252L112.478 85.04Z" fill="white"/>
<path d="M5.398 36.2246L6.13394 40.8855L5.398 45.4238L4.41675 40.8855L5.398 36.2246Z" fill="white"/>
<path d="M0.737061 40.7643L5.27534 40.0283L9.93628 40.7643L5.27534 41.6229L0.737061 40.7643Z" fill="white"/>
<path d="M7.36016 38.8018L5.64297 41.2549L3.3125 42.8494L4.90703 40.5189L7.36016 38.8018Z" fill="white"/>
<path d="M3.3125 38.8018L5.64297 40.5189L7.36016 42.8494L4.90703 41.2549L3.3125 38.8018Z" fill="white"/>
<path d="M27.3523 90.5645L26.2484 94.4895L23.918 97.8012L24.8992 93.8762L27.3523 90.5645Z" fill="white"/>
<path d="M21.9558 92.4043L25.8808 93.5082L29.1925 95.8387L25.2675 94.8574L21.9558 92.4043Z" fill="white"/>
<path d="M24.7761 91.915L26.0027 94.0002L26.4933 96.4533L25.1441 94.3682L24.7761 91.915Z" fill="white"/>
<path d="M66.7268 96.5625H38.5159V126H66.7268H94.9377V96.5625H66.7268Z" fill="#54889F"/>
<path opacity="0.3" d="M45.3843 113.612L58.2632 126H98.6171L88.0687 113.612L80.2187 110.055H53.6022L45.3843 113.612Z" fill="#184562"/>
<path d="M88.069 102.695H77.7659V109.687C77.7659 111.649 78.8698 113.734 80.8323 113.734H87.9463L85.7385 108.215L88.069 102.695Z" fill="#A0BEC7"/>
<path d="M47.5924 108.215L45.3846 113.734H52.4987C54.4612 113.734 55.5651 111.649 55.5651 109.687V102.695H45.262L47.5924 108.215Z" fill="#A0BEC7"/>
<path d="M66.7268 101.469H53.2346V111.281H66.7268H80.219V101.469H66.7268Z" fill="#E6E5DB"/>
<path d="M68.6889 15.8517L71.142 23.3337C71.2647 23.8244 71.7553 24.1923 72.3686 24.1923H80.0959C81.3225 24.1923 81.8131 25.7869 80.8318 26.4001L74.5764 30.6931C74.0858 31.0611 73.9631 31.5517 74.0858 32.0423L76.4162 39.279C76.7842 40.383 75.435 41.3642 74.5764 40.6283L68.1983 35.9673C67.7076 35.5994 67.217 35.5994 66.7264 35.9673L60.3483 40.5056C59.367 41.2415 58.1405 40.2603 58.5084 39.1564L60.8389 31.9197C60.9615 31.429 60.8389 30.8158 60.3483 30.5705L54.0928 26.1548C53.1115 25.4189 53.6022 23.947 54.8287 23.947H62.5561C63.0467 23.947 63.5373 23.579 63.7826 23.0884L66.2358 15.6064C66.7264 14.7478 68.3209 14.7478 68.6889 15.8517Z" fill="#F1F3BA"/>
</svg>
