<svg width="15" height="15" viewBox="0 0 15 15" fill="none" xmlns="http://www.w3.org/2000/svg">
<path d="M8.79199 2.09065H8.17003V2.12167L8.17312 2.15253L8.79199 2.09065ZM8.79199 2.09064H9.41394V2.05962L9.41085 2.02875L8.79199 2.09064ZM8.97541 2.99651L8.48091 3.37373L8.48092 3.37373L8.97541 2.99651ZM9.55282 3.23568L9.63575 3.85208L9.63575 3.85208L9.55282 3.23568ZM10.3231 2.72484L10.7169 3.20621L10.7304 3.19513L10.7433 3.18332L10.3231 2.72484ZM10.3231 2.72484L9.92923 2.24347L9.91569 2.25454L9.9028 2.26636L10.3231 2.72484ZM10.7506 2.43132L10.9399 3.02377L10.9399 3.02377L10.7506 2.43132ZM11.1872 2.45309L10.9399 3.02377L10.9399 3.02377L11.1872 2.45309ZM11.5834 2.7877L11.1436 3.22749L11.1436 3.22749L11.5834 2.7877ZM12.1391 3.3434L11.6993 3.78318L11.7306 3.81444L11.7659 3.84096L12.1391 3.3434ZM12.1391 3.3434L12.5789 2.90362L12.5476 2.87236L12.5123 2.84584L12.1391 3.3434ZM12.4737 3.73963L13.0444 3.49236V3.49236L12.4737 3.73963ZM12.4955 4.17617L11.903 3.98691L11.903 3.98691L12.4955 4.17617ZM12.2019 4.60374L11.7206 4.2099V4.2099L12.2019 4.60374ZM11.6911 5.374L11.0747 5.29109V5.29109L11.6911 5.374ZM11.9303 5.9514L12.3075 5.45691H12.3075L11.9303 5.9514ZM12.8362 6.13483L12.898 5.51596L12.8362 6.13483ZM13.3461 6.22961L13.061 6.78236L13.061 6.78236L13.3461 6.22961ZM13.6394 6.55368L13.061 6.78236L13.061 6.78237L13.6394 6.55368ZM13.6394 8.37308L13.061 8.14445L13.061 8.14445L13.6394 8.37308ZM13.346 8.69724L13.6311 9.25002L13.6311 9.25002L13.346 8.69724ZM12.8362 8.79198L12.8981 9.41085H12.8981L12.8362 8.79198ZM11.9306 8.97532L12.3077 9.46988H12.3077L11.9306 8.97532ZM11.6913 9.55292L11.075 9.63595L11.075 9.63596L11.6913 9.55292ZM12.202 10.3229L12.6834 9.92904L12.6834 9.92904L12.202 10.3229ZM12.4955 10.7503L13.0879 10.5609L13.0879 10.5609L12.4955 10.7503ZM12.4737 11.187L13.0443 11.4343L13.0444 11.4343L12.4737 11.187ZM11.1872 12.4735L10.9399 11.9028L10.9399 11.9028L11.1872 12.4735ZM10.7506 12.4952L10.9399 11.9028H10.9399L10.7506 12.4952ZM10.3231 12.2017L9.88331 12.6415L9.90524 12.6634L9.92925 12.6831L10.3231 12.2017ZM10.3231 12.2017L10.7629 11.7619L10.7409 11.74L10.7169 11.7203L10.3231 12.2017ZM9.55285 11.6909L9.63577 11.0745H9.63577L9.55285 11.6909ZM8.97544 11.93L8.48094 11.5528L8.48094 11.5528L8.97544 11.93ZM8.792 12.836L9.40549 12.9383L9.40884 12.9182L9.41087 12.8979L8.792 12.836ZM8.792 12.836L8.17851 12.7338L8.17516 12.7539L8.17313 12.7741L8.792 12.836ZM8.69718 13.3461L8.14445 13.061L8.14445 13.061L8.69718 13.3461ZM8.3732 13.6393L8.60195 14.2177L8.60195 14.2177L8.3732 13.6393ZM6.55368 13.6394L6.32499 14.2177H6.32499L6.55368 13.6394ZM6.22961 13.3461L5.67685 13.6312L5.67685 13.6312L6.22961 13.3461ZM6.13483 12.8362L6.7537 12.7743V12.7743L6.13483 12.8362ZM5.95139 11.9303L5.45691 12.3075L5.45691 12.3075L5.95139 11.9303ZM5.37401 11.6911L5.2911 11.0747L5.37401 11.6911ZM4.60372 12.202L4.20988 11.7206L4.20988 11.7206L4.60372 12.202ZM4.17614 12.4955L3.98688 11.9031L3.98688 11.9031L4.17614 12.4955ZM3.73961 12.4737L3.49234 13.0444L3.49234 13.0444L3.73961 12.4737ZM3.34336 12.1391L2.90357 12.5789L2.90357 12.5789L3.34336 12.1391ZM2.78768 11.5834L3.22756 11.1436L3.21841 11.1348L2.78768 11.5834ZM2.78768 11.5834L2.3478 12.0233L2.35695 12.0321L2.78768 11.5834ZM2.45306 11.1872L1.88237 11.4345H1.88237L2.45306 11.1872ZM2.43128 10.7507L1.83883 10.5614L1.83883 10.5614L2.43128 10.7507ZM2.72483 10.3231L3.20619 10.7169L2.72483 10.3231ZM3.23568 9.55282L2.61928 9.4699L3.23568 9.55282ZM2.99651 8.97541L2.61928 9.4699L2.61928 9.4699L2.99651 8.97541ZM2.09064 8.79199L2.15253 8.17312L2.12166 8.17003H2.09064V8.79199ZM2.09064 8.79199L2.02875 9.41085L2.05962 9.41394H2.09064V8.79199ZM1.58075 8.69721L1.86585 8.14445L1.86585 8.14445L1.58075 8.69721ZM1.28746 8.37313L0.709077 8.60181L0.709077 8.60181L1.28746 8.37313ZM1.28749 6.55363L1.86585 6.78236H1.86585L1.28749 6.55363ZM1.5807 6.22963L1.29555 5.6769L1.29555 5.6769L1.5807 6.22963ZM2.09072 6.13482L2.02883 5.51596H2.02883L2.09072 6.13482ZM2.99681 5.95133L2.61951 5.45689L2.61951 5.45689L2.99681 5.95133ZM3.23592 5.37406L3.85233 5.29124L3.23592 5.37406ZM2.72493 4.60356L3.2063 4.20972L3.2063 4.20972L2.72493 4.60356ZM2.43129 4.17581L3.02377 3.98663L3.02377 3.98663L2.43129 4.17581ZM2.45305 3.73943L3.02377 3.98663L3.02377 3.98663L2.45305 3.73943ZM2.78779 3.34304L3.22757 3.78282L3.22757 3.78282L2.78779 3.34304ZM3.34339 2.78743L3.78317 3.22722L3.80753 3.20286L3.82905 3.17596L3.34339 2.78743ZM3.34339 2.78743L2.90361 2.34765L2.87925 2.372L2.85773 2.3989L3.34339 2.78743ZM3.73964 2.4528L3.49237 1.88212V1.88212L3.73964 2.4528ZM4.17617 2.43103L3.98691 3.02349L3.98691 3.02349L4.17617 2.43103ZM4.6038 2.72461L4.20996 3.20598L4.20996 3.20598L4.6038 2.72461ZM5.37393 3.23543L5.29092 3.85181H5.29092L5.37393 3.23543ZM5.95149 2.99619L6.44604 3.37335L6.44604 3.37335L5.95149 2.99619ZM6.13484 2.09057L6.7537 2.15245L6.75679 2.12159V2.09057H6.13484ZM6.13484 2.09056L5.51597 2.02868L5.51289 2.05954V2.09056H6.13484ZM6.22957 1.58081L6.78236 1.86585L6.78236 1.86585L6.22957 1.58081ZM6.55375 1.28744L6.32513 0.70903L6.32513 0.70903L6.55375 1.28744ZM8.37313 1.28746L8.60181 0.709078L8.60181 0.709078L8.37313 1.28746ZM8.69721 1.58075L9.24997 1.29566V1.29566L8.69721 1.58075ZM9.41394 2.09065V2.09064H8.17003V2.09065H9.41394ZM9.4699 2.61928C9.50925 2.67086 9.49673 2.69367 9.4749 2.57235C9.45413 2.45698 9.43742 2.29447 9.41085 2.02876L8.17312 2.15253C8.1976 2.39736 8.21918 2.61775 8.25066 2.79266C8.28106 2.96162 8.33473 3.1821 8.48091 3.37373L9.4699 2.61928ZM9.4699 2.61928L9.4699 2.61928L8.48092 3.37373C8.75198 3.72906 9.19282 3.91166 9.63575 3.85208L9.4699 2.61928ZM9.92922 2.24348C9.72255 2.41257 9.59582 2.51567 9.49955 2.58257C9.39833 2.65292 9.40561 2.62793 9.4699 2.61928L9.63575 3.85208C9.87462 3.81995 10.0685 3.70199 10.2094 3.60402C10.3554 3.5026 10.5265 3.36202 10.7169 3.20621L9.92922 2.24348ZM9.9028 2.26636L9.90279 2.26637L10.7433 3.18332L10.7433 3.18331L9.9028 2.26636ZM10.5613 1.83886C10.4188 1.8844 10.3047 1.95484 10.2123 2.02069C10.1249 2.08295 10.0277 2.16288 9.92923 2.24347L10.7169 3.2062C10.8282 3.11515 10.8883 3.06635 10.9341 3.03377C10.9748 3.00479 10.9696 3.01429 10.9399 3.02377L10.5613 1.83886ZM11.4345 1.88241C11.1583 1.76274 10.8481 1.74726 10.5613 1.83886L10.9399 3.02377L10.9399 3.02377L11.4345 1.88241ZM12.0232 2.34792C11.9332 2.25792 11.8444 2.16872 11.7637 2.09807C11.6783 2.02334 11.5717 1.9419 11.4345 1.88241L10.9399 3.02377C10.9113 3.01138 10.9071 3.00142 10.9447 3.0343C10.9869 3.07127 11.0419 3.12581 11.1436 3.22749L12.0232 2.34792ZM12.5789 2.90361L12.0232 2.34792L11.1436 3.22749L11.6993 3.78318L12.5789 2.90361ZM12.5123 2.84584L12.5123 2.84584L11.7659 3.84096L11.7659 3.84096L12.5123 2.84584ZM13.0444 3.49236C12.9849 3.35505 12.9035 3.24855 12.8287 3.16312C12.7581 3.08237 12.6689 2.99361 12.5789 2.90362L11.6993 3.78319C11.801 3.88486 11.8555 3.93986 11.8925 3.98212C11.9254 4.01972 11.9154 4.01549 11.903 3.98691L13.0444 3.49236ZM13.0879 4.36544C13.1795 4.07873 13.1641 3.76853 13.0444 3.49236L11.903 3.98691L11.903 3.98691L13.0879 4.36544ZM12.6833 4.99758C12.7639 4.89908 12.8438 4.80189 12.9061 4.7145C12.972 4.62206 13.0424 4.50798 13.0879 4.36544L11.903 3.98691C11.9125 3.95724 11.922 3.95204 11.893 3.99272C11.8604 4.03845 11.8116 4.0986 11.7206 4.2099L12.6833 4.99758ZM12.3075 5.45691C12.2989 5.5212 12.2739 5.52848 12.3442 5.42726C12.4111 5.33099 12.5142 5.20426 12.6833 4.99758L11.7206 4.2099C11.5648 4.40033 11.4242 4.57144 11.3228 4.71737C11.2248 4.85835 11.1068 5.05221 11.0747 5.29109L12.3075 5.45691ZM12.3075 5.45691V5.45691L11.0747 5.29109C11.0151 5.734 11.1977 6.17483 11.553 6.44589L12.3075 5.45691ZM12.898 5.51596C12.6323 5.48939 12.4698 5.47268 12.3544 5.45192C12.2331 5.43008 12.2559 5.41756 12.3075 5.45691L11.553 6.44589C11.7447 6.59208 11.9652 6.64575 12.1341 6.67616C12.309 6.70763 12.5294 6.72921 12.7743 6.75369L12.898 5.51596ZM13.6312 5.67685C13.4982 5.60826 13.3677 5.57739 13.2558 5.5586C13.1499 5.54083 13.0247 5.52863 12.898 5.51596L12.7743 6.75369C12.9174 6.768 12.9944 6.77603 13.0498 6.78533C13.099 6.7936 13.0887 6.79664 13.061 6.78236L13.6312 5.67685ZM14.2177 6.32499C14.1071 6.0451 13.8987 5.81482 13.6312 5.67685L13.061 6.78236L13.061 6.78236L14.2177 6.32499ZM14.3049 7.07049C14.3049 6.94321 14.3052 6.81736 14.298 6.7103C14.2905 6.59705 14.2728 6.46414 14.2177 6.32498L13.061 6.78237C13.0495 6.7534 13.0536 6.74336 13.0569 6.7932C13.0606 6.84922 13.061 6.92669 13.061 7.07049H14.3049ZM14.3049 7.85641V7.07049H13.061V7.85641H14.3049ZM14.2178 8.60172C14.2728 8.46259 14.2905 8.32972 14.298 8.2165C14.3052 8.10946 14.3049 7.98365 14.3049 7.85641H13.061C13.061 8.00017 13.0606 8.07761 13.0569 8.13362C13.0536 8.18345 13.0495 8.17341 13.061 8.14445L14.2178 8.60172ZM13.6311 9.25002C13.8986 9.11204 14.1071 8.8817 14.2178 8.60171L13.061 8.14445L13.061 8.14445L13.6311 9.25002ZM12.8981 9.41085C13.0247 9.39818 13.1499 9.38598 13.2557 9.36822C13.3676 9.34943 13.4981 9.31859 13.6311 9.25002L13.061 8.14445C13.0887 8.13018 13.099 8.13322 13.0498 8.14149C12.9944 8.15078 12.9174 8.15881 12.7743 8.17312L12.8981 9.41085ZM12.3077 9.46988C12.2562 9.50921 12.2334 9.49669 12.3547 9.47487C12.47 9.45412 12.6325 9.43741 12.8981 9.41085L12.7743 8.17312C12.5296 8.19759 12.3092 8.21916 12.1344 8.25063C11.9655 8.28102 11.7451 8.33465 11.5535 8.48075L12.3077 9.46988ZM12.3077 9.46989V9.46988L11.5535 8.48075C11.198 8.75185 11.0153 9.19288 11.075 9.63595L12.3077 9.46989ZM12.6834 9.92904C12.5144 9.72244 12.4113 9.59576 12.3444 9.49953C12.2741 9.39834 12.2991 9.40562 12.3077 9.46988L11.075 9.63596C11.1071 9.87474 11.2251 10.0685 11.323 10.2094C11.4244 10.3553 11.5649 10.5264 11.7207 10.7167L12.6834 9.92904ZM13.0879 10.5609C13.0424 10.4185 12.972 10.3044 12.9061 10.212C12.8439 10.1247 12.764 10.0275 12.6834 9.92904L11.7207 10.7167C11.8117 10.828 11.8605 10.8881 11.8931 10.9338C11.922 10.9745 11.9125 10.9693 11.9031 10.9396L13.0879 10.5609ZM13.0444 11.4343C13.1641 11.1581 13.1796 10.8478 13.0879 10.5609L11.9031 10.9396V10.9396L13.0444 11.4343ZM12.579 12.0229C12.6689 11.9329 12.7581 11.8442 12.8287 11.7634C12.9034 11.6781 12.9849 11.5716 13.0443 11.4343L11.9031 10.9396C11.9154 10.9111 11.9254 10.9068 11.8925 10.9444C11.8556 10.9867 11.801 11.0416 11.6994 11.1433L12.579 12.0229ZM12.0232 12.5786L12.579 12.0229L11.6994 11.1433L11.1436 11.6991L12.0232 12.5786ZM11.4345 13.0441C11.5718 12.9846 11.6783 12.9032 11.7637 12.8285C11.8445 12.7578 11.9332 12.6686 12.0232 12.5786L11.1436 11.6991C11.042 11.8007 10.987 11.8553 10.9447 11.8922C10.9071 11.9251 10.9113 11.9152 10.9399 11.9028L11.4345 13.0441ZM10.5614 13.0877C10.8481 13.1793 11.1583 13.1638 11.4345 13.0441L10.9399 11.9028H10.9399L10.5614 13.0877ZM9.92925 12.6831C10.0278 12.7637 10.1249 12.8436 10.2123 12.9058C10.3048 12.9717 10.4188 13.0421 10.5614 13.0877L10.9399 11.9028C10.9696 11.9123 10.9748 11.9218 10.9341 11.8928C10.8884 11.8602 10.8282 11.8114 10.7169 11.7203L9.92925 12.6831ZM9.8833 12.6415L9.88331 12.6415L10.7629 11.7619L10.7629 11.7619L9.8833 12.6415ZM9.46993 12.3073C9.40564 12.2986 9.39836 12.2736 9.49958 12.344C9.59585 12.4109 9.72258 12.514 9.92925 12.6831L10.7169 11.7203C10.5265 11.5645 10.3554 11.4239 10.2095 11.3225C10.0685 11.2245 9.87464 11.1066 9.63577 11.0745L9.46993 12.3073ZM9.46993 12.3073L9.46993 12.3073L9.63577 11.0745C9.19285 11.0149 8.752 11.1975 8.48094 11.5528L9.46993 12.3073ZM9.41087 12.8979C9.43744 12.6322 9.45416 12.4696 9.47492 12.3542C9.49676 12.2329 9.50928 12.2557 9.46993 12.3073L8.48094 11.5528C8.33475 11.7444 8.28109 11.9649 8.25068 12.1339C8.2192 12.3088 8.19762 12.5293 8.17314 12.7741L9.41087 12.8979ZM9.40549 12.9383L9.40549 12.9383L8.17851 12.7338L8.17851 12.7338L9.40549 12.9383ZM9.2499 13.6313C9.31854 13.4983 9.34941 13.3677 9.36821 13.2558C9.38599 13.1499 9.39819 13.0246 9.41086 12.8979L8.17313 12.7741C8.15882 12.9173 8.15079 12.9944 8.14149 13.0498C8.13321 13.0991 8.13016 13.0887 8.14445 13.061L9.2499 13.6313ZM8.60195 14.2177C8.88175 14.107 9.11195 13.8987 9.24991 13.6313L8.14445 13.061L8.14445 13.061L8.60195 14.2177ZM7.85625 14.3049C7.98356 14.3049 8.10944 14.3052 8.21653 14.298C8.32982 14.2905 8.46276 14.2727 8.60195 14.2177L8.14445 13.061C8.17343 13.0495 8.18347 13.0536 8.13362 13.0569C8.07758 13.0606 8.00009 13.061 7.85625 13.061V14.3049ZM7.07048 14.3049H7.85625V13.061H7.07048V14.3049ZM6.32499 14.2177C6.46415 14.2728 6.59705 14.2905 6.7103 14.298C6.81736 14.3052 6.94321 14.3049 7.07048 14.3049V13.061C6.92669 13.061 6.84922 13.0606 6.7932 13.0569C6.74336 13.0536 6.7534 13.0495 6.78236 13.061L6.32499 14.2177ZM5.67685 13.6312C5.81482 13.8987 6.0451 14.1071 6.32499 14.2177L6.78237 13.061L6.78236 13.061L5.67685 13.6312ZM5.51597 12.8981C5.52863 13.0247 5.54083 13.15 5.5586 13.2558C5.57739 13.3677 5.60826 13.4982 5.67685 13.6312L6.78236 13.061C6.79664 13.0887 6.7936 13.099 6.78533 13.0498C6.77603 12.9944 6.768 12.9174 6.7537 12.7743L5.51597 12.8981ZM5.45691 12.3075C5.41756 12.2559 5.43008 12.2331 5.45192 12.3544C5.47268 12.4698 5.48939 12.6323 5.51597 12.8981L6.7537 12.7743C6.72921 12.5294 6.70763 12.309 6.67615 12.1341C6.64575 11.9651 6.59207 11.7447 6.44588 11.553L5.45691 12.3075ZM5.45691 12.3075H5.45691L6.44588 11.553C6.17482 11.1977 5.734 11.0151 5.2911 11.0747L5.45691 12.3075ZM4.99757 12.6833C5.20425 12.5142 5.33099 12.4111 5.42726 12.3442C5.52848 12.2739 5.5212 12.2989 5.45691 12.3075L5.2911 11.0747C5.05222 11.1068 4.85836 11.2248 4.71737 11.3228C4.57143 11.4242 4.40032 11.5648 4.20988 11.7206L4.99757 12.6833ZM4.36539 13.088C4.50794 13.0424 4.62203 12.972 4.71447 12.9061C4.80186 12.8439 4.89906 12.7639 4.99757 12.6833L4.20988 11.7206C4.09858 11.8117 4.03842 11.8605 3.99269 11.8931C3.95201 11.922 3.95721 11.9125 3.98688 11.9031L4.36539 13.088ZM3.49234 13.0444C3.76851 13.1641 4.07869 13.1796 4.36539 13.088L3.98688 11.9031H3.98688L3.49234 13.0444ZM2.90357 12.5789C2.99357 12.6689 3.08233 12.7581 3.16309 12.8288C3.24852 12.9035 3.35504 12.9849 3.49234 13.0444L3.98688 11.9031C4.01546 11.9154 4.01969 11.9254 3.98209 11.8925C3.93983 11.8556 3.88483 11.801 3.78315 11.6993L2.90357 12.5789ZM2.3479 12.0232L2.90357 12.5789L3.78315 11.6993L3.22747 11.1436L2.3479 12.0232ZM2.35695 12.0321L2.35696 12.0321L3.21841 11.1348L3.2184 11.1348L2.35695 12.0321ZM1.88237 11.4345C1.94187 11.5718 2.02331 11.6783 2.09804 11.7637C2.16868 11.8445 2.25789 11.9332 2.34789 12.0232L3.22746 11.1436C3.12578 11.042 3.07124 10.987 3.03427 10.9447C3.00138 10.9071 3.01136 10.9113 3.02374 10.9399L1.88237 11.4345ZM1.83883 10.5614C1.74724 10.8481 1.76271 11.1583 1.88237 11.4345L3.02374 10.9399V10.9399L1.83883 10.5614ZM2.24346 9.92923C2.16287 10.0277 2.08293 10.1249 2.02067 10.2123C1.95481 10.3048 1.88436 10.4188 1.83883 10.5614L3.02374 10.9399C3.01426 10.9696 3.00476 10.9748 3.03374 10.9341C3.06633 10.8884 3.11513 10.8282 3.20619 10.7169L2.24346 9.92923ZM2.61928 9.4699C2.62793 9.40561 2.65291 9.39833 2.58256 9.49956C2.51566 9.59582 2.41256 9.72256 2.24346 9.92923L3.20619 10.7169C3.362 10.5265 3.50259 10.3554 3.60401 10.2094C3.70199 10.0685 3.81994 9.87461 3.85208 9.63574L2.61928 9.4699ZM2.61928 9.4699H2.61928L3.85208 9.63574C3.91166 9.19282 3.72906 8.75198 3.37374 8.48092L2.61928 9.4699ZM2.02875 9.41085C2.29446 9.43742 2.45698 9.45413 2.57235 9.47489C2.69367 9.49673 2.67085 9.50924 2.61928 9.4699L3.37374 8.48092C3.18211 8.33473 2.96162 8.28106 2.79266 8.25066C2.61775 8.21918 2.39736 8.1976 2.15253 8.17312L2.02875 9.41085ZM2.09064 9.41394H2.09064V8.17003H2.09064V9.41394ZM1.29566 9.24997C1.42865 9.31856 1.55912 9.34942 1.67105 9.36822C1.77686 9.38598 1.90211 9.39819 2.02875 9.41085L2.15252 8.17312C2.00945 8.15881 1.9324 8.15078 1.87703 8.14149C1.82777 8.13322 1.83817 8.13018 1.86585 8.14445L1.29566 9.24997ZM0.709077 8.60181C0.819745 8.88172 1.02815 9.112 1.29566 9.24997L1.86585 8.14445L1.86585 8.14445L0.709077 8.60181ZM0.621945 7.85634C0.621945 7.98361 0.621624 8.10945 0.628773 8.21651C0.636337 8.32976 0.654059 8.46266 0.709077 8.60181L1.86585 8.14445C1.8773 8.17342 1.87324 8.18346 1.86991 8.13362C1.86617 8.0776 1.86585 8.00014 1.86585 7.85634H0.621945ZM0.621945 7.07055V7.85634H1.86585V7.07055H0.621945ZM0.709123 6.32489C0.654076 6.46408 0.636344 6.59701 0.628777 6.71029C0.621623 6.81737 0.621945 6.94324 0.621945 7.07055H1.86585C1.86585 6.92672 1.86617 6.84924 1.86991 6.7932C1.87324 6.74335 1.87731 6.75339 1.86585 6.78236L0.709123 6.32489ZM1.29555 5.6769C1.02813 5.81486 0.819788 6.04507 0.709123 6.32489L1.86585 6.78236L1.86585 6.78236L1.29555 5.6769ZM2.02883 5.51596C1.90216 5.52863 1.77688 5.54083 1.67103 5.5586C1.55908 5.5774 1.42857 5.60828 1.29555 5.6769L1.86585 6.78236C1.83816 6.79665 1.82776 6.7936 1.87703 6.78533C1.93242 6.77603 2.00949 6.768 2.1526 6.75369L2.02883 5.51596ZM2.61951 5.45689C2.67109 5.41753 2.69392 5.43005 2.57257 5.45189C2.45717 5.47266 2.29461 5.48938 2.02883 5.51596L2.1526 6.75369C2.3975 6.7292 2.61795 6.70761 2.7929 6.67613C2.96191 6.64571 3.18245 6.59202 3.37411 6.44576L2.61951 5.45689ZM2.61951 5.45689L2.61951 5.45689L3.37411 6.44576C3.72929 6.17473 3.91183 5.73404 3.85233 5.29124L2.61951 5.45689ZM2.24357 4.99741C2.41272 5.20415 2.51586 5.33093 2.58278 5.42722C2.65315 5.52849 2.62815 5.5212 2.61951 5.45689L3.85233 5.29124C3.82023 5.05229 3.70224 4.85837 3.60424 4.71736C3.50279 4.57137 3.36216 4.40022 3.2063 4.20972L2.24357 4.99741ZM1.8388 4.36499C1.88434 4.50759 1.9548 4.62173 2.02069 4.7142C2.08297 4.80162 2.16294 4.89886 2.24357 4.99741L3.2063 4.20972C3.1152 4.09838 3.06638 4.0382 3.03378 3.99244C3.00478 3.95174 3.01429 3.95694 3.02377 3.98663L1.8388 4.36499ZM1.88233 3.49224C1.76276 3.76832 1.74729 4.07838 1.8388 4.36499L3.02377 3.98663L3.02377 3.98663L1.88233 3.49224ZM2.348 2.90325C2.25797 2.99328 2.16872 3.08207 2.09805 3.16286C2.0233 3.24832 1.94183 3.35488 1.88233 3.49224L3.02377 3.98663C3.01138 4.01522 3.00141 4.01945 3.03431 3.98184C3.07129 3.93956 3.12585 3.88454 3.22757 3.78282L2.348 2.90325ZM2.9036 2.34765L2.348 2.90325L3.22757 3.78282L3.78317 3.22722L2.9036 2.34765ZM2.85773 2.3989L2.85773 2.3989L3.82905 3.17596L3.82905 3.17596L2.85773 2.3989ZM3.49237 1.88212C3.35506 1.94161 3.24855 2.02305 3.16312 2.09779C3.08236 2.16843 2.9936 2.25765 2.90361 2.34765L3.78318 3.22722C3.88486 3.12554 3.93986 3.07099 3.98212 3.03402C4.01972 3.00113 4.01549 3.0111 3.98691 3.02349L3.49237 1.88212ZM4.36542 1.83857C4.07872 1.74699 3.76854 1.76246 3.49237 1.88212L3.98691 3.02349V3.02349L4.36542 1.83857ZM4.99764 2.24325C4.89912 2.16264 4.80191 2.08269 4.71451 2.02042C4.62207 1.95456 4.50798 1.88411 4.36542 1.83857L3.98691 3.02349C3.95723 3.01401 3.95203 3.0045 3.99273 3.0335C4.03847 3.06609 4.09864 3.1149 4.20996 3.20598L4.99764 2.24325ZM5.45694 2.61904C5.52122 2.6277 5.5285 2.65268 5.42727 2.58232C5.33101 2.51542 5.20429 2.41233 4.99764 2.24325L4.20996 3.20598C4.40037 3.36177 4.57145 3.50234 4.71735 3.60374C4.85829 3.7017 5.0521 3.81965 5.29092 3.85181L5.45694 2.61904ZM5.45694 2.61904L5.45694 2.61904L5.29092 3.85181C5.73396 3.91148 6.17495 3.72882 6.44604 3.37335L5.45694 2.61904ZM5.51597 2.02868C5.48941 2.29431 5.4727 2.45678 5.45195 2.57212C5.43013 2.69341 5.41761 2.67061 5.45694 2.61904L6.44604 3.37335C6.59215 3.18175 6.6458 2.96133 6.67619 2.79241C6.70765 2.61755 6.72923 2.39722 6.7537 2.15245L5.51597 2.02868ZM5.51289 2.09056V2.09057H6.75679V2.09056H5.51289ZM5.67678 1.29577C5.60823 1.42873 5.57738 1.55917 5.55859 1.67107C5.54083 1.77686 5.52864 1.90207 5.51597 2.02868L6.7537 2.15245C6.76801 2.00941 6.77603 1.93239 6.78533 1.87703C6.79359 1.82778 6.79663 1.83817 6.78236 1.86585L5.67678 1.29577ZM6.32513 0.70903C6.04513 0.819702 5.81477 1.02817 5.67678 1.29577L6.78236 1.86585V1.86585L6.32513 0.70903ZM7.07039 0.621945C6.94316 0.621945 6.81735 0.621624 6.71033 0.62877C6.59711 0.636329 6.46425 0.654042 6.32513 0.70903L6.78236 1.86585C6.75341 1.87729 6.74337 1.87324 6.79319 1.86991C6.8492 1.86617 6.92664 1.86585 7.07039 1.86585V0.621945ZM7.85634 0.621945H7.07039V1.86585H7.85634V0.621945ZM8.60181 0.709078C8.46266 0.65406 8.32976 0.636337 8.21651 0.628774C8.10946 0.621624 7.98361 0.621945 7.85634 0.621945V1.86585C8.00014 1.86585 8.0776 1.86617 8.13362 1.86991C8.18346 1.87324 8.17342 1.8773 8.14445 1.86585L8.60181 0.709078ZM9.24997 1.29566C9.112 1.02815 8.88172 0.819746 8.60181 0.709078L8.14445 1.86585L8.14445 1.86585L9.24997 1.29566ZM9.41085 2.02875C9.39819 1.90211 9.38598 1.77687 9.36822 1.67105C9.34942 1.55912 9.31856 1.42864 9.24997 1.29566L8.14445 1.86585C8.13018 1.83817 8.13322 1.82777 8.14149 1.87703C8.15078 1.9324 8.15881 2.00945 8.17312 2.15253L9.41085 2.02875ZM9.32927 7.46341C9.32927 8.4939 8.4939 9.32927 7.46341 9.32927V10.5732C9.18089 10.5732 10.5732 9.18089 10.5732 7.46341H9.32927ZM7.46341 5.59756C8.4939 5.59756 9.32927 6.43293 9.32927 7.46341H10.5732C10.5732 5.74594 9.18089 4.35366 7.46341 4.35366V5.59756ZM5.59756 7.46341C5.59756 6.43293 6.43293 5.59756 7.46341 5.59756V4.35366C5.74594 4.35366 4.35366 5.74594 4.35366 7.46341H5.59756ZM7.46341 9.32927C6.43293 9.32927 5.59756 8.4939 5.59756 7.46341H4.35366C4.35366 9.18089 5.74594 10.5732 7.46341 10.5732V9.32927Z" fill="#6C6C6C"/>
</svg>
