<svg width="16" height="15" viewBox="0 0 16 15" fill="none" xmlns="http://www.w3.org/2000/svg">
<path d="M9.86586 5.59753H13.5976V11.1951C13.5976 11.7815 13.5976 12.0747 13.4154 12.2568C13.2332 12.439 12.94 12.439 12.3537 12.439H9.86586V5.59753Z" stroke="#6C6C6C" stroke-width="1.2439" stroke-linecap="round"/>
<path d="M2.40244 5.59753H6.13414V12.439H3.64634C3.05996 12.439 2.76677 12.439 2.5846 12.2568C2.40244 12.0747 2.40244 11.7815 2.40244 11.1951V5.59753Z" stroke="#6C6C6C" stroke-width="1.2439" stroke-linecap="round"/>
<rect x="6.13414" y="5.59753" width="3.73171" height="6.84146" stroke="#6C6C6C" stroke-width="1.2439" stroke-linecap="round"/>
<path d="M2.40244 3.7317C2.40244 3.14531 2.40244 2.85212 2.5846 2.66996C2.76677 2.48779 3.05996 2.48779 3.64634 2.48779H12.3537C12.94 2.48779 13.2332 2.48779 13.4154 2.66996C13.5976 2.85212 13.5976 3.14531 13.5976 3.7317V5.59755H2.40244V3.7317Z" stroke="#6C6C6C" stroke-width="1.2439" stroke-linecap="round"/>
</svg>
