<svg width="11" height="11" viewBox="0 0 11 11" fill="none" xmlns="http://www.w3.org/2000/svg">
<path d="M3.54576 9.625C3.48795 9.625 3.45904 9.625 3.4346 9.62428C2.56168 9.5984 1.8601 8.89682 1.83422 8.02389C1.8335 7.99945 1.8335 7.97055 1.8335 7.91274L1.8335 3.08726C1.8335 3.02945 1.8335 3.00055 1.83422 2.9761C1.8601 2.10318 2.56168 1.4016 3.4346 1.37572C3.45904 1.375 3.48795 1.375 3.54576 1.375L4.06463 1.375C4.35119 1.375 4.5835 1.6073 4.5835 1.89387V1.89387C4.5835 2.3667 4.9668 2.75 5.43963 2.75L5.5607 2.75C6.03353 2.75 6.41683 2.3667 6.41683 1.89387V1.89387C6.41683 1.6073 6.64913 1.375 6.9357 1.375L7.45456 1.375C7.51238 1.375 7.54128 1.375 7.56572 1.37572C8.43865 1.4016 9.14023 2.10318 9.1661 2.9761C9.16683 3.00055 9.16683 3.02945 9.16683 3.08726L9.16683 7.91274C9.16683 7.97055 9.16683 7.99945 9.1661 8.02389C9.14023 8.89682 8.43865 9.5984 7.56572 9.62428C7.54128 9.625 7.51238 9.625 7.45457 9.625L6.9357 9.625C6.64913 9.625 6.41683 9.39269 6.41683 9.10613V9.10613C6.41683 8.6333 6.03353 8.25 5.5607 8.25L5.43963 8.25C4.9668 8.25 4.5835 8.6333 4.5835 9.10613V9.10613C4.5835 9.39269 4.35119 9.625 4.06463 9.625L3.54576 9.625Z" stroke="#B07A0D" stroke-width="1.1"/>
<path d="M4.89908 5.70348C4.69972 5.62642 4.60004 5.58789 4.58622 5.52529C4.58259 5.50883 4.58259 5.49182 4.58622 5.47536C4.60004 5.41276 4.69972 5.37423 4.89908 5.29717C5.01246 5.25335 5.06914 5.23144 5.1077 5.19044C5.11851 5.17894 5.12814 5.16646 5.13646 5.15317C5.1661 5.10578 5.1716 5.04663 5.18259 4.92832C5.20121 4.72804 5.21051 4.6279 5.26977 4.59732C5.28204 4.59099 5.29532 4.58668 5.30907 4.58458C5.37546 4.57444 5.44497 4.64806 5.58398 4.79529L5.62258 4.83618C5.68757 4.90501 5.72007 4.93943 5.76062 4.95934C5.78495 4.97128 5.81115 4.97929 5.83817 4.98304C5.88321 4.98929 5.93036 4.97922 6.02464 4.95906L6.05832 4.95186C6.2274 4.91571 6.31194 4.89763 6.3535 4.9202C6.39082 4.94046 6.41472 4.97779 6.41676 5.01903C6.41904 5.06494 6.36434 5.12963 6.25493 5.259C6.18285 5.34424 6.14681 5.38685 6.13274 5.43417C6.11987 5.4774 6.11987 5.52325 6.13274 5.56649C6.14681 5.6138 6.18285 5.65641 6.25493 5.74165C6.36434 5.87103 6.41904 5.93571 6.41676 5.98162C6.41472 6.02286 6.39082 6.06019 6.3535 6.08045C6.31194 6.10302 6.2274 6.08494 6.05832 6.04879L6.02464 6.04159C5.93036 6.02144 5.88321 6.01136 5.83817 6.01761C5.81115 6.02136 5.78495 6.02937 5.76062 6.04131C5.72007 6.06122 5.68757 6.09564 5.62258 6.16447L5.58398 6.20536C5.44497 6.35259 5.37546 6.42621 5.30907 6.41607C5.29532 6.41397 5.28204 6.40966 5.26977 6.40333C5.21051 6.37275 5.20121 6.27261 5.18259 6.07233C5.1716 5.95402 5.1661 5.89487 5.13646 5.84748C5.12814 5.83419 5.11851 5.82171 5.1077 5.81021C5.06914 5.76921 5.01246 5.7473 4.89908 5.70348Z" fill="#B07A0D" stroke="#B07A0D" stroke-width="0.55"/>
</svg>
