<svg width="58" height="57" viewBox="0 0 58 57" fill="none" xmlns="http://www.w3.org/2000/svg">
<g filter="url(#filter0_d_1769_17235)">
<mask id="path-1-outside-1_1769_17235" maskUnits="userSpaceOnUse" x="4.75" y="0.25" width="49" height="49" fill="black">
<rect fill="white" x="4.75" y="0.25" width="49" height="49"/>
<path fill-rule="evenodd" clip-rule="evenodd" d="M29.0002 1.25C26.2088 1.25 23.9459 3.51291 23.9459 6.30435V19.445H11.3098C8.2392 19.445 5.75 21.9342 5.75 25.0047C5.75 28.0753 8.2392 30.5645 11.3098 30.5645H23.9459V42.6957C23.9459 45.4871 26.2088 47.75 29.0002 47.75C31.7916 47.75 34.0545 45.4871 34.0545 42.6957V30.5645H46.6902C49.7608 30.5645 52.25 28.0753 52.25 25.0047C52.25 21.9342 49.7608 19.445 46.6902 19.445H34.0545V6.30435C34.0545 3.51291 31.7916 1.25 29.0002 1.25Z"/>
</mask>
<path fill-rule="evenodd" clip-rule="evenodd" d="M29.0002 1.25C26.2088 1.25 23.9459 3.51291 23.9459 6.30435V19.445H11.3098C8.2392 19.445 5.75 21.9342 5.75 25.0047C5.75 28.0753 8.2392 30.5645 11.3098 30.5645H23.9459V42.6957C23.9459 45.4871 26.2088 47.75 29.0002 47.75C31.7916 47.75 34.0545 45.4871 34.0545 42.6957V30.5645H46.6902C49.7608 30.5645 52.25 28.0753 52.25 25.0047C52.25 21.9342 49.7608 19.445 46.6902 19.445H34.0545V6.30435C34.0545 3.51291 31.7916 1.25 29.0002 1.25Z" fill="url(#paint0_linear_1769_17235)"/>
<path d="M23.9459 19.445V20.295H24.7959V19.445H23.9459ZM23.9459 30.5645H24.7959V29.7145H23.9459V30.5645ZM34.0545 30.5645V29.7145H33.2045V30.5645H34.0545ZM34.0545 19.445H33.2045V20.295H34.0545V19.445ZM24.7959 6.30435C24.7959 3.98235 26.6782 2.1 29.0002 2.1V0.4C25.7393 0.4 23.0958 3.04347 23.0958 6.30435H24.7959ZM24.7959 19.445V6.30435H23.0958V19.445H24.7959ZM11.3098 20.295H23.9459V18.595H11.3098V20.295ZM6.6 25.0047C6.6 22.4036 8.70864 20.295 11.3098 20.295V18.595C7.76976 18.595 4.9 21.4647 4.9 25.0047H6.6ZM11.3098 29.7145C8.70864 29.7145 6.6 27.6059 6.6 25.0047H4.9C4.9 28.5448 7.76976 31.4145 11.3098 31.4145V29.7145ZM23.9459 29.7145H11.3098V31.4145H23.9459V29.7145ZM24.7959 42.6957V30.5645H23.0958V42.6957H24.7959ZM29.0002 46.9C26.6782 46.9 24.7959 45.0177 24.7959 42.6957H23.0958C23.0958 45.9565 25.7393 48.6 29.0002 48.6V46.9ZM33.2045 42.6957C33.2045 45.0177 31.3222 46.9 29.0002 46.9V48.6C32.2611 48.6 34.9045 45.9565 34.9045 42.6957H33.2045ZM33.2045 30.5645V42.6957H34.9045V30.5645H33.2045ZM46.6902 29.7145H34.0545V31.4145H46.6902V29.7145ZM51.4 25.0047C51.4 27.6059 49.2914 29.7145 46.6902 29.7145V31.4145C50.2302 31.4145 53.1 28.5448 53.1 25.0047H51.4ZM46.6902 20.295C49.2914 20.295 51.4 22.4036 51.4 25.0047H53.1C53.1 21.4647 50.2302 18.595 46.6902 18.595V20.295ZM34.0545 20.295H46.6902V18.595H34.0545V20.295ZM33.2045 6.30435V19.445H34.9045V6.30435H33.2045ZM29.0002 2.1C31.3222 2.1 33.2045 3.98235 33.2045 6.30435H34.9045C34.9045 3.04347 32.2611 0.4 29.0002 0.4V2.1Z" fill="url(#paint1_linear_1769_17235)" mask="url(#path-1-outside-1_1769_17235)"/>
</g>
<defs>
<filter id="filter0_d_1769_17235" x="0.900391" y="0.400391" width="56.1992" height="56.1992" filterUnits="userSpaceOnUse" color-interpolation-filters="sRGB">
<feFlood flood-opacity="0" result="BackgroundImageFix"/>
<feColorMatrix in="SourceAlpha" type="matrix" values="0 0 0 0 0 0 0 0 0 0 0 0 0 0 0 0 0 0 127 0" result="hardAlpha"/>
<feOffset dy="4"/>
<feGaussianBlur stdDeviation="2"/>
<feComposite in2="hardAlpha" operator="out"/>
<feColorMatrix type="matrix" values="0 0 0 0 0 0 0 0 0 0 0 0 0 0 0 0 0 0 0.18 0"/>
<feBlend mode="normal" in2="BackgroundImageFix" result="effect1_dropShadow_1769_17235"/>
<feBlend mode="normal" in="SourceGraphic" in2="effect1_dropShadow_1769_17235" result="shape"/>
</filter>
<linearGradient id="paint0_linear_1769_17235" x1="-51.0607" y1="-11.2842" x2="-48.837" y2="63.9239" gradientUnits="userSpaceOnUse">
<stop stop-color="#FF6969"/>
<stop offset="1" stop-color="#952D2D"/>
</linearGradient>
<linearGradient id="paint1_linear_1769_17235" x1="-51.0607" y1="-11.2842" x2="-51.0607" y2="21.3669" gradientUnits="userSpaceOnUse">
<stop stop-color="#DFDFDF"/>
<stop offset="1" stop-color="#505050"/>
</linearGradient>
</defs>
</svg>
