<svg width="16" height="15" viewBox="0 0 16 15" fill="none" xmlns="http://www.w3.org/2000/svg">
<path d="M13.8293 8.08543H14.4512H13.8293ZM13.1026 4.34802L13.6896 4.55344L13.1026 4.34802ZM11.9577 5.49292L11.7523 4.90587L11.9577 5.49292ZM10.2797 8.26759L9.83993 7.8278L10.2797 8.26759ZM13.6471 5.77979L13.2073 6.21957L13.6471 5.77979ZM12.5854 13.061V13.683V13.061ZM5.12194 13.061V12.4391V13.061ZM2.99847 12.6967L3.43825 12.2569L2.99847 12.6967ZM12.999 2.50531L13.2045 1.91827L12.999 2.50531ZM13.1899 2.69613L12.6028 2.90155L13.1899 2.69613ZM4.18902 3.10982L12.7631 3.10982V1.86591L4.18902 1.86591V3.10982ZM5.12194 13.683L12.5854 13.683V12.4391L5.12194 12.4391V13.683ZM2.01219 4.04274L2.01219 10.5732H3.25609L3.25609 4.04274H2.01219ZM12.5854 4.97567L4.18901 4.97567V6.21957L12.5854 6.21957V4.97567ZM13.2073 10.5732V11.8171H14.4512V10.5732H13.2073ZM13.2073 6.84152L13.2073 8.08543H14.4512L14.4512 6.84152H13.2073ZM11.3414 11.1952H13.8293V9.95128H11.3414V11.1952ZM13.2073 8.08543L13.2073 10.5732H14.4512L14.4512 8.08543H13.2073ZM13.8293 7.46347H11.3414V8.70738H13.8293L13.8293 7.46347ZM10.5418 4.97567H10.0975L10.0975 6.21957H10.5418L10.5418 4.97567ZM12.5854 2.93212C12.5854 3.72862 12.5766 3.96826 12.5155 4.1426L13.6896 4.55344C13.8381 4.12932 13.8293 3.62451 13.8293 2.93212H12.5854ZM10.5418 6.21957C11.2342 6.21957 11.739 6.22837 12.1631 6.07996L11.7523 4.90587C11.5779 4.96687 11.3383 4.97567 10.5418 4.97567L10.5418 6.21957ZM12.5155 4.1426C12.3905 4.49991 12.1096 4.78084 11.7523 4.90587L12.1631 6.07996C12.8777 5.82991 13.4396 5.26805 13.6896 4.55344L12.5155 4.1426ZM9.4756 9.32933C9.4756 9.60494 9.47427 9.87421 9.50391 10.0947C9.53596 10.333 9.61402 10.6049 9.83993 10.8309L10.7195 9.95128C10.7632 9.99502 10.7502 10.0293 10.7367 9.9289C10.7208 9.81061 10.7195 9.6401 10.7195 9.32933H9.4756ZM11.3414 9.95128C11.0307 9.95128 10.8602 9.94996 10.7419 9.93405C10.6415 9.92056 10.6758 9.90754 10.7195 9.95128L9.83993 10.8309C10.0658 11.0568 10.3378 11.1348 10.5761 11.1669C10.7966 11.1965 11.0658 11.1952 11.3414 11.1952V9.95128ZM10.7195 9.32933C10.7195 9.01855 10.7208 8.84804 10.7367 8.72975C10.7502 8.62935 10.7632 8.66364 10.7195 8.70738L9.83993 7.8278C9.61402 8.05371 9.53596 8.32567 9.50391 8.564C9.47427 8.78445 9.4756 9.05372 9.4756 9.32933H10.7195ZM11.3414 7.46347C11.0658 7.46347 10.7966 7.46215 10.5761 7.49179C10.3378 7.52383 10.0658 7.6019 9.83993 7.8278L10.7195 8.70738C10.6758 8.75111 10.6415 8.7381 10.7419 8.7246C10.8602 8.7087 11.0307 8.70738 11.3414 8.70738V7.46347ZM12.5854 6.21957C12.8961 6.21957 13.0666 6.22089 13.1849 6.2368C13.2853 6.25029 13.251 6.26331 13.2073 6.21957L14.0869 5.34C13.861 5.1141 13.589 5.03603 13.3507 5.00399C13.1302 4.97435 12.861 4.97567 12.5854 4.97567V6.21957ZM14.4512 6.84152C14.4512 6.56592 14.4525 6.29664 14.4229 6.0762C14.3908 5.83787 14.3128 5.5659 14.0869 5.34L13.2073 6.21957C13.1636 6.17583 13.1766 6.14155 13.1901 6.24195C13.206 6.36024 13.2073 6.53075 13.2073 6.84152H14.4512ZM12.5854 13.683C12.861 13.683 13.1302 13.6843 13.3507 13.6547C13.589 13.6226 13.861 13.5446 14.0869 13.3187L13.2073 12.4391C13.251 12.3953 13.2853 12.4084 13.1849 12.4219C13.0666 12.4378 12.8961 12.4391 12.5854 12.4391V13.683ZM13.2073 11.8171C13.2073 12.1279 13.206 12.2984 13.1901 12.4167C13.1766 12.5171 13.1636 12.4828 13.2073 12.4391L14.0869 13.3187C14.3128 13.0928 14.3908 12.8208 14.4229 12.5825C14.4525 12.362 14.4512 12.0927 14.4512 11.8171H13.2073ZM5.12194 12.4391C4.51798 12.4391 4.12757 12.4378 3.83992 12.3991C3.57015 12.3628 3.4856 12.3043 3.43825 12.2569L2.55868 13.1365C2.87567 13.4535 3.26647 13.5771 3.67417 13.6319C4.06398 13.6843 4.55314 13.683 5.12194 13.683V12.4391ZM2.01219 10.5732C2.01219 11.142 2.01087 11.6312 2.06327 12.021C2.11809 12.4287 2.2417 12.8195 2.55868 13.1365L3.43825 12.2569C3.39091 12.2096 3.33235 12.125 3.29608 11.8553C3.25741 11.5676 3.25609 11.1772 3.25609 10.5732H2.01219ZM2.01219 4.04274C2.01219 5.24497 2.98678 6.21957 4.18901 6.21957V4.97567C3.67377 4.97567 3.25609 4.55798 3.25609 4.04274H2.01219ZM12.7631 3.10982C12.7951 3.10982 12.8184 3.10982 12.8382 3.11005C12.858 3.11027 12.8679 3.11066 12.8725 3.11093C12.8769 3.11119 12.8701 3.111 12.8566 3.10876C12.842 3.10633 12.8199 3.10156 12.7936 3.09236L13.2045 1.91827C13.0297 1.85712 12.8351 1.86591 12.7631 1.86591V3.10982ZM13.8293 2.93212C13.8293 2.86009 13.8381 2.66547 13.7769 2.49071L12.6028 2.90155C12.5936 2.87526 12.5888 2.85321 12.5864 2.83855C12.5842 2.82507 12.584 2.81823 12.5842 2.82265C12.5845 2.82725 12.5849 2.83719 12.5851 2.85697C12.5853 2.87676 12.5854 2.90008 12.5854 2.93212H13.8293ZM12.7936 3.09236C12.7043 3.06111 12.6341 2.99088 12.6028 2.90155L13.7769 2.49071C13.6831 2.22273 13.4724 2.01204 13.2045 1.91827L12.7936 3.09236ZM3.25609 4.04274C3.25609 3.5275 3.67377 3.10982 4.18902 3.10982V1.86591C2.98679 1.86591 2.01219 2.84051 2.01219 4.04274H3.25609Z" fill="#6C6C6C"/>
</svg>
