<svg width="15" height="16" viewBox="0 0 15 16" fill="none" xmlns="http://www.w3.org/2000/svg">
<path d="M9.0625 10.9688H5.9375C5.68125 10.9688 5.46875 10.7563 5.46875 10.5C5.46875 10.2438 5.68125 10.0312 5.9375 10.0312H9.0625C9.31875 10.0312 9.53125 10.2438 9.53125 10.5C9.53125 10.7563 9.31875 10.9688 9.0625 10.9688Z" fill="#6C6C6C"/>
<path d="M3.24908 7.03742C3.13033 7.03742 3.01158 6.98742 2.91783 6.89992C2.78658 6.76867 2.74283 6.56242 2.81783 6.38742L3.98033 3.61242C4.00533 3.55617 4.01783 3.51867 4.03658 3.48742C4.96158 1.35617 6.14283 0.837423 8.23033 1.63742C8.34908 1.68117 8.44283 1.77492 8.49283 1.89367C8.54283 2.01242 8.54283 2.14367 8.49283 2.26242L6.66158 6.51242C6.58658 6.68117 6.41783 6.79367 6.23033 6.79367H4.44908C4.09283 6.79367 3.75533 6.86242 3.43033 6.99992C3.37408 7.02492 3.31158 7.03742 3.24908 7.03742ZM6.63033 2.21867C5.85533 2.21867 5.38033 2.72492 4.88658 3.87492C4.88033 3.89367 4.86783 3.91242 4.86158 3.93117L4.04283 5.87492C4.18033 5.86242 4.31158 5.85617 4.44908 5.85617H5.91783L7.42408 2.35617C7.13033 2.26242 6.86783 2.21867 6.63033 2.21867Z" fill="#6C6C6C"/>
<path d="M11.4302 6.91931C11.3864 6.91931 11.3364 6.91306 11.2927 6.90056C11.0614 6.83181 10.8052 6.79431 10.5427 6.79431H6.23017C6.07392 6.79431 5.92392 6.71306 5.83642 6.58181C5.75517 6.45056 5.73642 6.28181 5.79892 6.13806L7.61142 1.93181C7.70517 1.70681 7.97392 1.55681 8.21142 1.63181C8.28642 1.65681 8.35517 1.68806 8.43017 1.71931L9.90517 2.33806C10.7677 2.69431 11.3427 3.06931 11.7177 3.51931C11.7927 3.60681 11.8552 3.70056 11.9114 3.79431C11.9802 3.90056 12.0427 4.03181 12.0864 4.16306C12.1052 4.20681 12.1364 4.28806 12.1552 4.37556C12.3302 4.96306 12.2427 5.69431 11.8677 6.63181C11.7927 6.80681 11.6177 6.91931 11.4302 6.91931ZM6.94267 5.85681H10.5489C10.7489 5.85681 10.9427 5.87556 11.1364 5.90681C11.3114 5.36306 11.3489 4.94431 11.2489 4.60681C11.2364 4.55056 11.2239 4.52556 11.2177 4.50056C11.1802 4.40056 11.1552 4.34431 11.1239 4.29431C11.0802 4.22556 11.0489 4.16931 10.9989 4.11306C10.7302 3.78806 10.2552 3.48806 9.54892 3.20056L8.31142 2.68181L6.94267 5.85681Z" fill="#6C6C6C"/>
<path d="M9.9375 14.7189H5.0625C4.8875 14.7189 4.725 14.7064 4.5625 14.6877C2.36875 14.5377 1.11875 13.2877 0.96875 11.0689C0.95 10.9314 0.9375 10.7627 0.9375 10.5939V9.3752C0.9375 7.96895 1.775 6.7002 3.06875 6.1377C3.50625 5.9502 3.975 5.85645 4.45625 5.85645H10.5562C10.9125 5.85645 11.2563 5.90645 11.575 6.00645C13.0437 6.4502 14.075 7.8377 14.075 9.3752V10.5939C14.075 10.7314 14.0688 10.8627 14.0625 10.9877C13.925 13.4314 12.5 14.7189 9.9375 14.7189ZM4.45 6.79395C4.09375 6.79395 3.75625 6.8627 3.43125 7.0002C2.48125 7.4127 1.86875 8.34395 1.86875 9.3752V10.5939C1.86875 10.7252 1.88125 10.8564 1.89375 10.9814C2.0125 12.7627 2.8875 13.6377 4.64375 13.7564C4.8 13.7752 4.925 13.7877 5.05625 13.7877H9.93125C11.9938 13.7877 13.0062 12.8814 13.1062 10.9439C13.1125 10.8314 13.1187 10.7189 13.1187 10.5939V9.3752C13.1187 8.24395 12.3625 7.23145 11.2875 6.9002C11.0562 6.83145 10.8 6.79395 10.5375 6.79395H4.45Z" fill="#6C6C6C"/>
<path d="M1.40039 9.84387C1.14414 9.84387 0.931641 9.63137 0.931641 9.37512V7.54387C0.931641 5.57512 2.32539 3.87512 4.25039 3.50012C4.41914 3.46887 4.59414 3.53137 4.70664 3.66262C4.81289 3.79387 4.84414 3.98137 4.77539 4.13762L3.68164 6.75012C3.63164 6.86262 3.54414 6.95012 3.43789 7.00012C2.48789 7.41262 1.87539 8.34387 1.87539 9.37512C1.86914 9.63137 1.66289 9.84387 1.40039 9.84387ZM3.50039 4.76262C2.70039 5.21262 2.11914 6.00012 1.93789 6.91887C2.21289 6.63762 2.53164 6.40012 2.89414 6.22512L3.50039 4.76262Z" fill="#6C6C6C"/>
<path d="M13.6007 9.84361C13.3444 9.84361 13.1319 9.63111 13.1319 9.37486C13.1319 8.24361 12.3757 7.23111 11.3007 6.89986C11.1757 6.86236 11.0695 6.77486 11.0132 6.65611C10.957 6.53736 10.9507 6.39986 11.0007 6.28111C11.2945 5.54986 11.3694 5.01861 11.2507 4.60611C11.2382 4.54986 11.2257 4.52486 11.2195 4.49986C11.1382 4.31861 11.182 4.10611 11.3257 3.96861C11.4695 3.83111 11.6882 3.79986 11.8632 3.89361C13.2257 4.60611 14.0694 6.00611 14.0694 7.54361V9.37486C14.0694 9.63111 13.8569 9.84361 13.6007 9.84361ZM12.0319 6.18111C12.4257 6.36236 12.7757 6.61861 13.0694 6.92486C12.9507 6.31236 12.6569 5.75611 12.2257 5.31861C12.1944 5.58111 12.1319 5.86861 12.0319 6.18111Z" fill="#6C6C6C"/>
</svg>
