<svg width="18" height="17" viewBox="0 0 18 17" fill="none" xmlns="http://www.w3.org/2000/svg">
<path d="M9 0C4.023 0 0 3.7995 0 8.5C0 13.2005 4.023 17 9 17C13.977 17 18 13.2005 18 8.5C18 3.7995 13.977 0 9 0ZM9 15.3C5.031 15.3 1.8 12.2485 1.8 8.5C1.8 4.7515 5.031 1.7 9 1.7C12.969 1.7 16.2 4.7515 16.2 8.5C16.2 12.2485 12.969 15.3 9 15.3ZM12.231 4.25L9 7.3015L5.769 4.25L4.5 5.4485L7.731 8.5L4.5 11.5515L5.769 12.75L9 9.6985L12.231 12.75L13.5 11.5515L10.269 8.5L13.5 5.4485L12.231 4.25Z" fill="white"/>
</svg>
