<svg width="38" height="38" viewBox="0 0 38 38" fill="none" xmlns="http://www.w3.org/2000/svg">
<mask id="path-1-inside-1_634_555" fill="white">
<path fill-rule="evenodd" clip-rule="evenodd" d="M19 0C16.5147 0 14.5 2.01472 14.5 4.5V14.5L4.5 14.5C2.01472 14.5 0 16.5147 0 19C0 21.4853 2.01472 23.5 4.5 23.5H14.5V33.5C14.5 35.9853 16.5147 38 19 38C21.4853 38 23.5 35.9853 23.5 33.5V23.5H33.5C35.9853 23.5 38 21.4853 38 19C38 16.5147 35.9853 14.5 33.5 14.5L23.5 14.5V4.5C23.5 2.01472 21.4853 0 19 0Z"/>
</mask>
<path fill-rule="evenodd" clip-rule="evenodd" d="M19 0C16.5147 0 14.5 2.01472 14.5 4.5V14.5L4.5 14.5C2.01472 14.5 0 16.5147 0 19C0 21.4853 2.01472 23.5 4.5 23.5H14.5V33.5C14.5 35.9853 16.5147 38 19 38C21.4853 38 23.5 35.9853 23.5 33.5V23.5H33.5C35.9853 23.5 38 21.4853 38 19C38 16.5147 35.9853 14.5 33.5 14.5L23.5 14.5V4.5C23.5 2.01472 21.4853 0 19 0Z" fill="url(#paint0_linear_634_555)"/>
<path d="M14.5 14.5V15.5H15.5V14.5H14.5ZM4.5 14.5V15.5V14.5ZM14.5 23.5H15.5V22.5H14.5V23.5ZM23.5 23.5V22.5H22.5V23.5H23.5ZM33.5 14.5V13.5V14.5ZM23.5 14.5H22.5V15.5H23.5V14.5ZM15.5 4.5C15.5 2.567 17.067 1 19 1V-1C15.9624 -1 13.5 1.46244 13.5 4.5H15.5ZM15.5 14.5V4.5H13.5V14.5H15.5ZM4.5 15.5L14.5 15.5V13.5L4.5 13.5V15.5ZM1 19C1 17.067 2.567 15.5 4.5 15.5V13.5C1.46243 13.5 -1 15.9624 -1 19H1ZM4.5 22.5C2.567 22.5 1 20.933 1 19H-1C-1 22.0376 1.46244 24.5 4.5 24.5V22.5ZM14.5 22.5H4.5V24.5H14.5V22.5ZM15.5 33.5V23.5H13.5V33.5H15.5ZM19 37C17.067 37 15.5 35.433 15.5 33.5H13.5C13.5 36.5376 15.9624 39 19 39V37ZM22.5 33.5C22.5 35.433 20.933 37 19 37V39C22.0376 39 24.5 36.5376 24.5 33.5H22.5ZM22.5 23.5V33.5H24.5V23.5H22.5ZM33.5 22.5H23.5V24.5H33.5V22.5ZM37 19C37 20.933 35.433 22.5 33.5 22.5V24.5C36.5376 24.5 39 22.0376 39 19H37ZM33.5 15.5C35.433 15.5 37 17.067 37 19H39C39 15.9624 36.5376 13.5 33.5 13.5V15.5ZM23.5 15.5L33.5 15.5V13.5L23.5 13.5V15.5ZM22.5 4.5V14.5H24.5V4.5H22.5ZM19 1C20.933 1 22.5 2.567 22.5 4.5H24.5C24.5 1.46243 22.0376 -1 19 -1V1Z" fill="url(#paint1_linear_634_555)" mask="url(#path-1-inside-1_634_555)"/>
<defs>
<linearGradient id="paint0_linear_634_555" x1="19" y1="0" x2="19" y2="38" gradientUnits="userSpaceOnUse">
<stop stop-color="#FF6969"/>
<stop offset="1" stop-color="#952D2D"/>
</linearGradient>
<linearGradient id="paint1_linear_634_555" x1="19" y1="0" x2="19" y2="38" gradientUnits="userSpaceOnUse">
<stop stop-color="#DFDFDF"/>
<stop offset="1" stop-opacity="0"/>
</linearGradient>
</defs>
</svg>
