<svg width="40" height="40" viewBox="0 0 40 40" fill="none" xmlns="http://www.w3.org/2000/svg">
<path d="M27.6665 4.65076C27.6605 4.77742 27.6475 4.87776 27.5425 4.99376C27.4625 5.08176 27.2985 5.18209 27.3272 5.36209C27.3308 5.38409 27.2828 5.41609 27.2555 5.43976C27.2412 5.45209 27.2108 5.45176 27.2032 5.46542C27.1288 5.60076 27.0575 5.73742 26.9752 5.89242C26.8595 6.00976 26.7055 6.12809 26.7052 6.27109L26.3528 6.80942C26.3195 6.87309 26.2862 6.94276 26.2472 7.00942C26.2198 7.05642 26.1845 7.09909 26.1555 7.14542C26.1265 7.19176 26.0952 7.24909 26.0518 7.32309L25.9585 7.34542C25.9552 7.37432 25.9504 7.40303 25.9442 7.43142C25.9222 7.51209 25.9582 7.62509 25.8168 7.64209C25.7958 7.64442 25.7835 7.72709 25.7638 7.78742L25.6538 7.81276C25.6092 7.92842 25.6645 8.08909 25.4848 8.11876C25.4822 8.27276 25.2688 8.32142 25.2968 8.49409C25.2998 8.51409 25.2605 8.54442 25.2362 8.56442C25.2218 8.57609 25.1882 8.57176 25.1808 8.58476C25.1038 8.72042 25.0302 8.85842 24.9442 8.98676L24.6288 9.47143L24.6665 9.50009L24.5428 9.52909C24.5385 9.55609 24.5362 9.58609 24.5288 9.61476C24.5072 9.69576 24.5432 9.80809 24.4025 9.82676C24.3808 9.82942 24.3692 9.91143 24.3482 9.97143L24.2288 9.99943C24.2274 10.041 24.2231 10.0824 24.2162 10.1234C24.1998 10.1901 24.2285 10.2901 24.1035 10.2861C24.0895 10.2861 24.0732 10.3194 24.0598 10.3384C24.0251 10.3939 23.9839 10.4452 23.9372 10.4911C23.8875 10.5861 23.9322 10.7048 23.7765 10.7818C23.6765 10.8314 23.6405 11.0128 23.5765 11.1344C23.5581 11.1665 23.538 11.1976 23.5162 11.2274C23.4908 11.2631 23.4622 11.2968 23.4375 11.3334C23.4268 11.3494 23.4252 11.3844 23.4148 11.3861C23.2418 11.4194 23.2975 11.5731 23.2482 11.6861L23.1482 11.7124C23.0662 11.8624 22.9932 11.9968 22.9202 12.1308L22.9085 12.1238C22.8138 12.2858 22.7185 12.4484 22.6225 12.6118L22.5942 12.6021C22.5608 12.6658 22.5275 12.7311 22.4915 12.7928C22.4615 12.8431 22.4218 12.8874 22.3915 12.9374C22.3612 12.9874 22.3388 13.0374 22.3005 13.1098L22.2055 13.1371C22.1505 13.2398 22.2418 13.4188 22.0345 13.4328C22.0295 13.4808 22.0245 13.5254 22.0195 13.5751L21.8882 13.6044C21.8795 13.6938 21.8705 13.7831 21.8605 13.8841L22.0178 13.8991C22.0288 13.6848 22.2025 13.7628 22.3238 13.7238C22.3318 13.6834 22.3398 13.6404 22.3485 13.5961L22.4982 13.5804C22.5172 13.3968 22.6695 13.4441 22.7905 13.4161C22.8008 13.3761 22.8115 13.3338 22.8215 13.2934C22.9358 13.2638 23.0415 13.2738 23.1258 13.1484C23.1925 13.0484 23.3622 13.0171 23.4788 12.9438C23.5895 12.8748 23.6908 12.7908 23.7965 12.7134L23.7742 12.6801C23.8392 12.6687 23.9035 12.6531 23.9665 12.6334C24.002 12.6148 24.0334 12.5893 24.0588 12.5584C24.0682 12.5494 24.0635 12.5228 24.0732 12.5171C24.1762 12.4558 24.2792 12.3944 24.3858 12.3401C24.4243 12.3269 24.4645 12.3193 24.5052 12.3174L24.4832 12.2808L24.9922 11.9828C24.9985 11.9628 25.0125 11.9204 25.0218 11.8924C25.1165 11.8291 25.2428 11.9131 25.3092 11.7724C25.3425 11.6998 25.4478 11.6604 25.5112 11.5918C25.7675 11.5251 25.7675 11.5251 25.7842 11.4584C25.8725 11.3874 25.9348 11.3378 25.9968 11.2884L25.9785 11.2618L26.2198 11.2264L26.1965 11.1931L26.6632 10.8804H26.6715C26.7382 10.8424 26.8092 10.8074 26.8745 10.7658C26.9285 10.7324 26.9745 10.6841 27.0292 10.6508C27.1442 10.5798 27.2625 10.5158 27.3792 10.4458C27.4238 10.4188 27.4632 10.3824 27.5055 10.3514C27.5307 10.3317 27.5576 10.314 27.5858 10.2988C27.6075 10.2878 27.6525 10.2881 27.6548 10.2781C27.6842 10.0981 27.8338 10.1534 27.8945 10.1384L28.1325 9.92376C28.1425 9.77876 28.3102 9.85309 28.4325 9.81276C28.4408 9.77742 28.4508 9.73509 28.4622 9.68609C28.4986 9.68552 28.5349 9.6824 28.5708 9.67676C28.6442 9.66042 28.7375 9.68376 28.7545 9.55976C28.7578 9.53409 28.8458 9.51909 28.9098 9.49309C28.9188 9.46742 28.9332 9.42642 28.9505 9.37509C29.1718 9.38742 29.2838 9.22409 29.4128 9.07676C29.4922 9.06209 29.5905 9.07109 29.6462 9.02676C29.7128 8.97376 29.8195 8.91009 29.8392 8.86676C29.9085 8.71376 30.0452 8.76276 30.1448 8.71409L30.1285 8.68076C30.1878 8.64742 30.2455 8.60876 30.3072 8.57909C30.3688 8.54942 30.4602 8.56642 30.4775 8.45676C30.4815 8.42976 30.5705 8.41609 30.6052 8.36409C30.6718 8.33076 30.7385 8.29542 30.8028 8.26009C30.8624 8.23049 30.9175 8.19267 30.9665 8.14776L31.1582 8.01209L31.1348 7.97009L31.3978 7.93676L31.4362 7.80642L31.5772 7.79342C31.5882 7.58442 31.7625 7.66976 31.8772 7.62142C31.8845 7.58509 31.8935 7.54242 31.9012 7.50609C32.0132 7.46576 32.1515 7.50809 32.2012 7.35476C32.2098 7.32842 32.2915 7.32609 32.3212 7.27976C32.3752 7.24642 32.4268 7.20942 32.4832 7.18142C32.5498 7.14809 32.6195 7.14809 32.6742 7.05942C32.7288 6.97076 32.8645 6.91876 32.9742 6.87109C33.0462 6.83974 33.1108 6.79338 33.1635 6.73509C33.2695 6.62576 33.4342 6.57342 33.5722 6.48376C33.6308 6.45042 33.6882 6.41709 33.7478 6.38876C33.8075 6.36042 33.9108 6.38409 33.9168 6.26876C33.9168 6.25476 33.9542 6.24276 33.9738 6.22942C34.024 6.19919 34.0683 6.16025 34.1048 6.11442C34.1932 6.03476 34.3858 6.14776 34.3935 5.92909L34.5445 5.91042C34.5512 5.72476 34.6932 5.76542 34.8025 5.76276C34.8242 5.76276 34.8722 5.82742 34.8665 5.85342C34.8468 5.94242 34.8428 6.02009 34.7332 6.09142C34.6162 6.16642 34.5705 6.35209 34.4838 6.48242C34.3818 6.63931 34.2796 6.79631 34.1772 6.95342L34.2145 6.98342L34.1032 7.01676L33.8785 7.43342L33.9118 7.45876L33.7972 7.49209L33.5665 7.89642L33.5998 7.92642L33.4628 7.96676C33.4768 8.19242 33.3152 8.31376 33.1705 8.44609C33.1135 8.54109 33.1185 8.64876 33.0185 8.75009C32.9348 8.83542 32.7778 8.94276 32.8035 9.12176C32.8065 9.14309 32.7682 9.17342 32.7445 9.19409C32.7302 9.20609 32.6962 9.20076 32.6888 9.21342C32.6102 9.35109 32.5352 9.49109 32.4452 9.65576C32.3412 9.77243 32.1642 9.87676 32.1838 10.0841C32.0172 10.2278 31.8812 10.3648 31.8685 10.5898L31.7422 10.6231L31.7698 10.6454L31.5548 11.0454L31.5268 11.0324C31.4872 11.1041 31.4505 11.1778 31.4072 11.2474C31.3738 11.2978 31.3348 11.3421 31.2985 11.3894C31.2842 11.4078 31.2708 11.4271 31.2575 11.4464C31.2241 11.4976 31.1846 11.5445 31.1398 11.5861C31.0842 11.6838 31.1382 11.8444 30.9595 11.8734C30.9572 12.0278 30.7382 12.0734 30.7698 12.2478C30.7735 12.2681 30.7365 12.2994 30.7132 12.3198C30.6995 12.3321 30.6645 12.3268 30.6575 12.3394C30.5908 12.4601 30.5318 12.5841 30.4642 12.7041C30.4343 12.7542 30.3919 12.7957 30.3412 12.8244L30.1188 13.2334L30.1478 13.2588L30.0262 13.2841C29.9755 13.3928 30.0595 13.5564 29.8708 13.5871C29.8535 13.5898 29.8488 13.6688 29.8352 13.7254L29.7075 13.7588C29.7235 13.9884 29.5492 14.1008 29.4158 14.2404C29.3665 14.3388 29.3732 14.4428 29.2618 14.5424C29.1772 14.6181 29.0238 14.7354 29.0475 14.9134C29.0505 14.9348 29.0095 14.9618 28.9888 14.9861C28.9628 15.0168 28.9348 15.0458 28.9118 15.0784C28.9012 15.0941 28.9035 15.1314 28.8938 15.1338C28.7245 15.1754 28.7698 15.3308 28.7445 15.4004C28.5632 15.5521 28.4362 15.6884 28.4272 15.8831C28.2605 16.0191 28.1235 16.1561 28.1132 16.3831L27.9868 16.4198C27.9608 16.5338 28.0062 16.6778 27.8358 16.7198C27.8162 16.7244 27.8142 16.8024 27.8025 16.8468L27.7692 16.8288C27.7312 16.8954 27.6955 16.9648 27.6538 17.0288C27.6205 17.0824 27.5772 17.1311 27.5385 17.1824C27.5272 17.1974 27.5165 17.2131 27.5052 17.2288C27.4721 17.283 27.432 17.3327 27.3858 17.3764C27.3248 17.4734 27.3648 17.5998 27.2088 17.6764C27.1115 17.7248 27.0822 17.9068 27.0178 18.0261C26.996 18.0593 26.9693 18.089 26.9385 18.1141C26.9285 18.1238 26.9035 18.1214 26.8978 18.1318C26.8222 18.2681 26.7488 18.4054 26.6488 18.5904C26.5408 18.6834 26.3998 18.8214 26.3865 19.0491L26.2648 19.0778C26.2623 19.1114 26.2576 19.1448 26.2508 19.1778C26.2302 19.2544 26.2582 19.3601 26.1245 19.3718C26.1045 19.3718 26.0912 19.4558 26.0752 19.5004L26.0418 19.4848C26.0062 19.5514 25.9725 19.6181 25.9338 19.6814C25.9028 19.7324 25.8672 19.7814 25.8308 19.8284C25.8172 19.8471 25.7975 19.8618 25.7848 19.8808C25.7525 19.9368 25.7127 19.9882 25.6665 20.0334C25.6085 20.1278 25.6395 20.2458 25.4998 20.3288C25.3982 20.3884 25.3665 20.5654 25.2998 20.6888C25.2806 20.7199 25.2582 20.7491 25.2332 20.7758C25.2078 20.8068 25.1782 20.8341 25.1558 20.8668C25.1422 20.8864 25.1422 20.9314 25.1298 20.9334C24.9562 20.9684 25.0212 21.1274 24.9582 21.2168C24.8465 21.3621 24.6688 21.4638 24.6742 21.6864L24.6308 21.6671C24.5938 21.7388 24.5565 21.8101 24.5202 21.8821C24.5043 21.9229 24.4853 21.9623 24.4632 22.0001C24.4248 22.0531 24.3778 22.1001 24.3588 22.1751L24.2332 22.2128C24.1955 22.4848 24.1952 22.4794 23.9182 22.5164C23.8578 22.5244 23.8035 22.5744 23.7455 22.6031C23.7124 22.6237 23.6759 22.6384 23.6378 22.6468C23.5155 22.6588 23.3912 22.6548 23.2712 22.6738C23.2108 22.6834 23.1565 22.7301 23.0985 22.7581C23.0686 22.7756 23.0361 22.7881 23.0022 22.7951C22.8902 22.8068 22.7775 22.8104 22.6655 22.8204C22.5888 22.8274 22.5092 22.8098 22.4585 22.9098C22.4385 22.9498 22.3412 22.9604 22.2772 22.9668C22.1602 22.9778 22.0412 22.9718 21.9238 22.9811C21.8435 22.9878 21.7418 22.9621 21.7165 23.0888C21.7128 23.1058 21.6582 23.1221 21.6262 23.1221C21.5135 23.1291 21.4005 23.1261 21.2878 23.1348C21.2032 23.1414 21.0958 23.1088 21.0685 23.2438C21.0652 23.2601 21.0088 23.2728 20.9762 23.2748C20.8532 23.2824 20.7302 23.2848 20.6072 23.2898C20.5375 23.2928 20.4608 23.2774 20.4448 23.3841C20.4422 23.4034 20.3805 23.4238 20.3448 23.4268C20.2375 23.4361 20.1295 23.4354 20.0222 23.4418C19.9338 23.4471 19.8365 23.4251 19.7912 23.5441C19.7812 23.5701 19.7112 23.5818 19.6678 23.5851C19.5402 23.5948 19.4098 23.5851 19.2842 23.6064C19.2065 23.6188 19.1352 23.6711 19.0602 23.7034C19.0263 23.7215 18.9897 23.734 18.9518 23.7404C18.8445 23.7491 18.7358 23.7444 18.6292 23.7571C18.5495 23.7664 18.4488 23.7444 18.4148 23.8628C18.4095 23.8808 18.3545 23.8911 18.3215 23.8938C18.2142 23.9024 18.1058 23.9008 17.9992 23.9134C17.9202 23.9231 17.8438 23.9134 17.7955 24.0281C17.7585 24.1158 17.6262 24.1594 17.5465 24.2334C17.4668 24.3074 17.4025 24.3938 17.3305 24.4744C17.3095 24.4984 17.2865 24.5204 17.2638 24.5438C17.2354 24.5769 17.2053 24.6085 17.1735 24.6384C17.1248 24.6798 17.0682 24.7114 17.0222 24.7551C16.9821 24.7979 16.9452 24.8435 16.9115 24.8914L16.8735 24.8678C16.8662 24.9114 16.8585 24.9551 16.8512 24.9988L16.8142 24.9754C16.781 25.0226 16.7444 25.0672 16.7045 25.1088C16.6585 25.1432 16.6096 25.1735 16.5582 25.1991C16.5552 25.2184 16.5485 25.2621 16.5422 25.3058L16.5138 25.2838L16.3578 25.4388L16.3602 25.4441L16.1212 25.6668V25.6701L15.9612 25.8301L15.9632 25.8374C15.9165 25.8771 15.8665 25.9134 15.8238 25.9568C15.7508 26.0311 15.6832 26.1104 15.6115 26.1861C15.5838 26.2151 15.5512 26.2398 15.5215 26.2668C15.4978 26.2881 15.4745 26.3098 15.4518 26.3334C15.4196 26.3629 15.389 26.394 15.3602 26.4268C15.3228 26.4738 15.2958 26.5301 15.2542 26.5718C15.2125 26.6134 15.1542 26.6474 15.1062 26.6978L14.9455 26.8481L14.9488 26.8578C14.8712 26.9294 14.7938 27.0014 14.6858 27.1018L14.5525 27.2404H14.5462L14.3298 27.4738H14.3175C14.2782 27.5241 14.2415 27.5774 14.1982 27.6241C14.1495 27.6764 14.0948 27.7241 14.0418 27.7714C13.9618 27.8441 13.8808 27.9158 13.8008 27.9884C13.7772 28.0098 13.7565 28.0344 13.7342 28.0551C13.7001 28.0836 13.668 28.1142 13.6378 28.1468C13.6065 28.1858 13.5912 28.2411 13.5545 28.2724C13.4722 28.3421 13.3808 28.4004 13.2945 28.4654C13.2798 28.4761 13.2735 28.4971 13.2612 28.5121C13.2245 28.5588 13.1872 28.6048 13.1652 28.6318L12.9595 28.8244C12.9715 28.8978 12.9148 28.9441 12.8032 28.9274C12.7955 28.9771 12.7895 29.0164 12.7825 29.0651L12.6548 29.0914L12.6752 29.1144L12.5212 29.2704L12.5192 29.2678L12.3542 29.4398L11.5795 30.2178H11.5772L11.3925 30.3944C11.4042 30.4721 11.2985 30.6174 11.4965 30.6851C11.5268 30.6958 11.5205 30.8074 11.5352 30.8714C11.5558 30.9631 11.5158 31.0848 11.6572 31.1214C11.6722 31.1254 11.6805 31.1741 11.6832 31.2028C11.6922 31.3101 11.6938 31.4181 11.7058 31.5251C11.7158 31.6171 11.6908 31.7194 11.7995 31.7844C11.8278 31.8014 11.8255 31.8788 11.8272 31.9288C11.8315 32.0518 11.8332 32.1751 11.8292 32.2981C11.8262 32.3904 11.8528 32.4898 11.7422 32.5561C11.7105 32.5751 11.7142 32.6601 11.7088 32.7154C11.6985 32.8431 11.6985 32.9721 11.6835 33.0991C11.6745 33.1741 11.6898 33.2658 11.5785 33.2991C11.5525 33.3068 11.5468 33.3864 11.5355 33.4324C11.5168 33.5101 11.5498 33.6134 11.4182 33.6324C11.3998 33.6351 11.3875 33.7098 11.3788 33.7524C11.3608 33.8401 11.3835 33.9551 11.2052 33.9248L11.2595 33.9731C11.2128 34.0168 11.1648 34.0594 11.1205 34.1064C11.0998 34.1258 11.0846 34.1503 11.0765 34.1774C11.0582 34.2718 11.0578 34.3704 10.9315 34.4008C10.9075 34.4064 10.8982 34.4781 10.8595 34.5008C10.8155 34.5588 10.7828 34.6341 10.7245 34.6701C10.6542 34.7118 10.5622 34.7174 10.5245 34.7274L10.3318 34.9054L10.3038 34.8814L10.2705 35.0031C10.1595 35.0484 10.0022 34.9748 9.96249 35.1518C9.95949 35.1651 9.90849 35.1691 9.87949 35.1744C9.78649 35.1924 9.67016 35.1534 9.63249 35.3001C9.62616 35.3248 9.52216 35.3258 9.46283 35.3334C9.34849 35.3504 9.21816 35.3068 9.14016 35.4481C9.12316 35.4784 9.03549 35.4768 8.98016 35.4778C8.68783 35.4824 8.39549 35.4881 8.10316 35.4828C7.98283 35.4804 7.86183 35.4998 7.75683 35.3758C7.70616 35.3158 7.55216 35.3491 7.44783 35.3261C7.39449 35.3144 7.34783 35.2728 7.29849 35.2428C7.28649 35.2351 7.27716 35.2094 7.26883 35.2118C7.04749 35.2411 6.92916 34.9878 6.70849 35.0184C6.71549 35.0041 6.72249 34.9898 6.72916 34.9754C6.67415 34.9368 6.61632 34.9024 6.55616 34.8724C6.48649 34.8434 6.38716 34.8688 6.38116 34.7434C6.38116 34.7228 6.29816 34.7061 6.27016 34.6748L6.11349 34.5168L6.10983 34.5214C6.05816 34.4668 6.00683 34.4118 5.95549 34.3571H5.95349C5.90346 34.31 5.85605 34.2601 5.81149 34.2078C5.78634 34.1709 5.76752 34.1301 5.75583 34.0871C5.73283 34.0204 5.74716 33.9281 5.63349 33.9251C5.61983 33.9251 5.60016 33.8784 5.59583 33.8514C5.57916 33.7594 5.59583 33.6531 5.46583 33.6211C5.44916 33.6168 5.44316 33.5598 5.43616 33.5268C5.41616 33.4358 5.46283 33.3168 5.31249 33.2821C5.28983 33.2771 5.29049 33.1721 5.27916 33.1131C5.25916 32.9991 5.33049 32.8521 5.15649 32.7918C5.13749 32.7851 5.13383 32.7171 5.13349 32.6774C5.13116 32.3491 5.13149 32.0208 5.13183 31.6924C5.13183 31.6624 5.12983 31.6118 5.14416 31.6054C5.34416 31.5158 5.24849 31.3321 5.27983 31.1898C5.29983 31.0998 5.24649 30.9898 5.39583 30.9391C5.44016 30.9234 5.43516 30.7651 5.45516 30.6578L5.57016 30.6244C5.58349 30.5318 5.59616 30.4461 5.60849 30.3608L5.64183 30.3791C5.67512 30.3244 5.7114 30.2715 5.75049 30.2208C5.81716 30.1428 5.89083 30.0698 5.96249 29.9954C5.96883 29.9888 5.98883 29.9894 5.98983 29.9844C6.02983 29.7771 6.22849 29.7178 6.35649 29.5968C6.44116 29.5168 6.54549 29.4578 6.64149 29.3904C6.65349 29.3821 6.68016 29.3804 6.68116 29.3728C6.70883 29.1794 6.87583 29.2598 6.99216 29.2141C6.97483 29.0778 7.08016 29.0948 7.17049 29.0808C7.27916 29.0624 7.42816 29.1304 7.47316 28.9511C7.47683 28.9364 7.53683 28.9318 7.57083 28.9301C7.69383 28.9241 7.81716 28.9218 7.94016 28.9174C8.01516 28.9148 8.09649 28.9301 8.12516 28.8244C8.13083 28.8041 8.18349 28.7864 8.21516 28.7851C8.34849 28.7804 8.48183 28.7778 8.61516 28.7851C8.65283 28.7871 8.68883 28.8231 8.72583 28.8424C8.77149 28.8664 8.81683 28.9091 8.86349 28.9091C9.06349 28.9164 9.26349 28.9121 9.46349 28.9121C9.45849 28.9344 9.45383 28.9568 9.44916 28.9788C9.52916 29.0121 9.60616 29.0611 9.68983 29.0788C9.79716 29.1001 9.91616 29.0741 9.97216 29.2121C9.98116 29.2341 10.0548 29.2298 10.0842 29.2351C10.1335 29.1774 10.1702 29.1314 10.2105 29.0884C10.2522 29.0508 10.2881 29.0072 10.3172 28.9591C10.3958 28.9324 10.4915 28.9241 10.4458 28.7848C10.5535 28.7788 10.6458 28.7678 10.6005 28.6244C10.7262 28.6404 10.7868 28.5984 10.7725 28.5244L10.9518 28.3518L10.9482 28.3478L11.1105 28.1934C11.3738 27.9301 11.6369 27.6667 11.8998 27.4031L11.8965 27.3968L12.1272 27.1854L12.2872 27.0158H12.2898L12.4712 26.8361C12.4686 26.8212 12.4698 26.8059 12.4746 26.7915C12.4795 26.7772 12.4877 26.7642 12.4987 26.7538C12.5098 26.7434 12.5232 26.7359 12.5378 26.732C12.5524 26.728 12.5677 26.7277 12.5825 26.7311L12.7508 26.5498L12.7548 26.5518L12.9432 26.3628C12.9815 26.3305 13.0214 26.3002 13.0628 26.2721C13.1295 26.2294 13.1015 26.1241 13.2212 26.0981C13.3042 26.0801 13.3545 25.9368 13.4305 25.8584C13.5065 25.7801 13.5922 25.7124 13.6742 25.6408C13.6922 25.6254 13.7285 25.6131 13.7292 25.5984C13.7322 25.5134 13.7815 25.4948 13.8538 25.4754C13.8838 25.4674 13.8962 25.3938 13.9338 25.3678L14.0872 25.2048L14.0925 25.2094L14.2625 25.0301C14.3415 25.0458 14.3798 24.9814 14.3992 24.8998L14.5485 24.7588L14.5332 24.7441C14.5792 24.7084 14.6268 24.6751 14.6705 24.6364C14.7142 24.5978 14.7482 24.5581 14.8095 24.4951C14.8388 24.4718 14.8895 24.4328 14.9388 24.3924C15.0008 24.3414 14.9885 24.2414 15.1088 24.2134C15.1908 24.1941 15.2378 24.0468 15.3132 23.9698C15.3885 23.8928 15.4798 23.8304 15.5628 23.7598C15.5818 23.7386 15.5995 23.7163 15.6158 23.6931C15.6428 23.6638 15.6742 23.6381 15.6992 23.6074C15.7392 23.5581 15.7702 23.5008 15.8145 23.4561C15.8588 23.4114 15.9145 23.3804 15.9625 23.3304L16.1218 23.1781C16.2082 23.1601 16.2642 23.1138 16.2522 23.0428L16.4312 22.8664C16.5035 22.8331 16.5882 22.8151 16.5485 22.6871L16.7082 22.6584C16.7082 22.5788 16.6948 22.4954 16.7118 22.4184C16.7288 22.3414 16.7785 22.2718 16.8098 22.1978C16.8279 22.1634 16.8401 22.1262 16.8458 22.0878C16.8545 21.9598 16.8458 21.8294 16.8658 21.7041C16.8828 21.6068 16.9382 21.5161 16.9742 21.4218C16.9895 21.3856 16.9996 21.3474 17.0042 21.3084C17.0135 21.1804 17.0098 21.0514 17.0268 20.9248C17.0345 20.8674 17.0808 20.8158 17.1068 20.7604C17.1293 20.7224 17.1454 20.681 17.1545 20.6378C17.1672 20.5044 17.1658 20.3711 17.1805 20.2378C17.1912 20.1431 17.1575 20.0274 17.2852 19.9711C17.3045 19.9631 17.3078 19.9068 17.3105 19.8711C17.3208 19.7228 17.3222 19.5738 17.3392 19.4261C17.3482 19.3474 17.3208 19.2461 17.4365 19.2061C17.4562 19.1994 17.4662 19.1451 17.4698 19.1118C17.4818 18.9688 17.4875 18.8254 17.4992 18.6821C17.5068 18.5884 17.4888 18.4848 17.6035 18.4304C17.6245 18.4204 17.6302 18.3671 17.6335 18.3328C17.6449 18.2515 17.6496 18.1695 17.6475 18.0874C17.6415 17.9931 17.6512 17.8661 17.5965 17.8141C17.5208 17.7421 17.2215 17.8314 17.1432 17.9058C17.1118 17.9299 17.0737 17.9435 17.0342 17.9448C16.8962 17.9554 16.7558 17.9481 16.6202 17.9704C16.5395 17.9841 16.4662 18.0414 16.3888 18.0768C16.3585 18.0921 16.3258 18.1023 16.2922 18.1071C16.1795 18.1154 16.0648 18.1091 15.9545 18.1284C15.8878 18.1401 15.8282 18.1904 15.7642 18.2208C15.7306 18.2398 15.6943 18.2533 15.6565 18.2608C15.5392 18.2728 15.4195 18.2688 15.3042 18.2891C15.2375 18.3011 15.1795 18.3501 15.1165 18.3794C15.086 18.3952 15.0533 18.4065 15.0195 18.4128C14.9132 18.4278 14.8065 18.4388 14.7195 18.4831C14.6616 18.5211 14.6068 18.5636 14.5555 18.6101C14.4852 18.6841 14.4248 18.7681 14.3598 18.8474C14.3426 18.8692 14.3242 18.8901 14.3048 18.9101C14.2715 18.9434 14.2382 18.9768 14.2048 19.0101C14.1848 19.0294 14.1645 19.0484 14.1452 19.0684C14.1118 19.1018 14.0785 19.1351 14.0468 19.1708C14.0368 19.1818 14.0348 19.2014 14.0238 19.2094C13.9368 19.2721 13.8275 19.3171 13.7678 19.3991C13.7188 19.4658 13.7012 19.5494 13.6012 19.5558C13.6142 19.6828 13.4795 19.6778 13.4278 19.7488C13.3612 19.8398 13.2835 19.9214 13.2092 20.0061C13.1771 20.0434 13.1427 20.0787 13.1062 20.1118C13.0255 20.1841 12.9422 20.2541 12.8608 20.3261C12.8375 20.3468 12.8175 20.3714 12.7962 20.3944C12.7692 20.4234 12.7428 20.4531 12.7155 20.4821C12.6882 20.5111 12.6648 20.5308 12.6418 20.5571C12.6188 20.5834 12.6048 20.6098 12.5835 20.6331C12.5502 20.6664 12.5168 20.6998 12.4835 20.7331C12.4598 20.7548 12.4332 20.7728 12.4078 20.7921C12.3825 20.8114 12.3558 20.8284 12.3325 20.8494C12.2975 20.8828 12.2635 20.9161 12.2325 20.9494C12.2115 20.9728 12.1968 21.0018 12.1762 21.0254C12.1555 21.0491 12.1262 21.0764 12.1002 21.1008C12.0742 21.1251 12.0468 21.1471 12.0215 21.1714C11.9962 21.1958 11.9662 21.2288 11.9385 21.2568C11.9108 21.2848 11.8882 21.3068 11.8625 21.3314C11.8368 21.3561 11.8058 21.3881 11.7755 21.4141C11.7578 21.4294 11.7285 21.4358 11.7175 21.4538C11.6454 21.5691 11.5481 21.6666 11.4328 21.7388C11.3662 21.7831 11.3212 21.8671 11.2545 21.9281C11.1545 22.0208 11.0692 22.1314 10.9528 22.2164C10.8705 22.2764 10.8302 22.3904 10.7568 22.4671C10.679 22.5406 10.5964 22.6089 10.5095 22.6714C10.4982 22.6804 10.4712 22.6824 10.4705 22.6894C10.4608 22.7828 10.3905 22.8024 10.3228 22.8478C10.2402 22.9038 10.2032 23.0234 10.1308 23.1011C10.0585 23.1788 9.96616 23.2268 9.89416 23.3011C9.86949 23.3258 9.86749 23.3891 9.87883 23.4281C9.89316 23.4788 9.94083 23.5194 9.95683 23.5698C9.98483 23.6574 9.96183 23.7621 10.0752 23.8168C10.1062 23.8318 10.1195 23.9088 10.1198 23.9578C10.1218 24.4244 10.1198 24.8911 10.1142 25.3578C10.1142 25.3994 10.0575 25.4381 10.0375 25.4831C10.0095 25.5444 9.99483 25.6118 9.96783 25.6738C9.94583 25.7234 9.91349 25.7684 9.88683 25.8164C9.8676 25.8497 9.85013 25.884 9.83449 25.9191C9.80116 25.9954 9.81583 26.0811 9.69483 26.1244C9.61149 26.1544 9.57249 26.2964 9.50316 26.3794C9.43885 26.4508 9.36968 26.5176 9.29616 26.5794C9.25183 26.6191 9.20283 26.6531 9.16049 26.6974L8.99049 26.8374L9.01249 26.8728L8.73616 26.9014L8.69683 27.0321C8.59883 27.0371 8.50716 27.0398 8.41549 27.0474C8.33849 27.0538 8.24649 27.0291 8.22083 27.1474C8.21616 27.1678 8.15416 27.1861 8.11616 27.1868C7.82883 27.1904 7.54149 27.1898 7.25416 27.1898C7.23383 27.1898 7.19949 27.1931 7.19516 27.1838C7.08916 26.9548 6.86983 27.0921 6.70216 27.0214C6.67949 26.8314 6.51049 26.9131 6.39649 26.8801L6.41516 26.8401C6.34583 26.8028 6.28016 26.7521 6.20616 26.7321C6.13716 26.7134 6.09149 26.7044 6.07116 26.6194C6.05216 26.5408 5.88283 26.5831 5.90183 26.4478C5.78516 26.4341 5.76416 26.3281 5.71149 26.2518C5.67516 26.1991 5.61883 26.1558 5.59716 26.0988C5.57216 26.0321 5.57983 25.9591 5.47983 25.9478C5.46149 25.9454 5.45249 25.8724 5.43616 25.8334C5.40283 25.7548 5.36949 25.6768 5.33416 25.5984L5.28949 25.6148C5.28416 25.5178 5.28016 25.4204 5.27249 25.3231C5.26716 25.2544 5.27883 25.1754 5.17249 25.1604C5.15516 25.1578 5.13383 25.1041 5.13349 25.0741C5.13149 24.7818 5.13349 24.4891 5.13549 24.1968C5.13549 24.1678 5.14483 24.1174 5.15949 24.1138C5.32083 24.0718 5.26283 23.9384 5.28049 23.8371C5.29683 23.7448 5.24716 23.6248 5.40149 23.5918C5.42383 23.5868 5.42916 23.4918 5.43783 23.4401C5.44916 23.3734 5.43449 23.2954 5.54549 23.2874C5.57183 23.2854 5.59216 23.2021 5.60016 23.1874L6.25349 22.5541C6.34416 22.4944 6.49283 22.5344 6.54349 22.3801C6.54816 22.3661 6.59983 22.3694 6.62883 22.3611C6.71416 22.3371 6.83283 22.3801 6.86216 22.2404C6.86549 22.2251 6.92516 22.2148 6.95849 22.2144C7.41472 22.2106 7.87027 22.2083 8.32516 22.2074C8.35016 22.2074 8.38649 22.2074 8.39816 22.2231C8.56816 22.4444 8.80316 22.3418 9.01216 22.3674L8.99783 22.3264C9.04783 22.2851 9.11616 22.2534 9.14416 22.2004C9.19283 22.1088 9.27216 22.0601 9.34416 21.9954C9.43916 21.9101 9.50116 21.7954 9.61783 21.7221C9.70483 21.6678 9.76049 21.5634 9.82983 21.4808C9.84234 21.4609 9.85638 21.4421 9.87183 21.4244C9.92016 21.3821 9.97183 21.3428 10.0222 21.2928L10.2575 21.0741V21.0611C10.3102 21.0272 10.36 20.9888 10.4062 20.9464C10.4372 20.9131 10.4495 20.8628 10.4805 20.8354L10.6422 20.6824V20.6784L10.8002 20.5214L10.8025 20.5234L11.9025 19.4194H11.9052L12.0555 19.2614L12.2952 19.0394L12.2935 19.0241C12.3465 18.9905 12.3965 18.9524 12.4428 18.9101C12.4738 18.8768 12.4862 18.8264 12.5185 18.7991L12.6792 18.6444L12.8385 18.4938C12.875 18.4369 12.9161 18.3831 12.9615 18.3331C13.0365 18.2614 13.1225 18.1998 13.2022 18.1331C13.2262 18.1128 13.2435 18.0851 13.2662 18.0624C13.2972 18.0314 13.3288 18.0008 13.3622 17.9728C13.3768 17.9604 13.4048 17.9598 13.4132 17.9458C13.4842 17.8175 13.5897 17.7117 13.7178 17.6404C13.7745 17.6108 13.8025 17.5261 13.8632 17.4774C13.9178 17.3741 13.8902 17.2484 14.0115 17.1491C14.0698 17.1014 14.0382 16.9451 14.0498 16.8384C14.0628 16.7184 14.0242 16.5924 14.1532 16.4928C14.2035 16.4541 14.1925 16.3301 14.2002 16.2441C14.2098 16.1318 14.2028 16.0178 14.2178 15.9064C14.2245 15.8571 14.2692 15.8134 14.2945 15.7661C14.3145 15.7288 14.3438 15.6901 14.3468 15.6504C14.3582 15.5024 14.3575 15.3531 14.3672 15.2048C14.3725 15.1194 14.3422 15.0158 14.4708 14.9791C14.4912 14.9734 14.5022 14.9091 14.5042 14.8708C14.5125 14.7428 14.5122 14.6144 14.5208 14.4864C14.5282 14.3811 14.4875 14.2531 14.6392 14.2041C14.6562 14.1988 14.6608 14.1408 14.6628 14.1068C14.6685 13.9891 14.6685 13.8708 14.6748 13.7531C14.6792 13.6774 14.6502 13.5864 14.7705 13.5584C14.7932 13.5534 14.8098 13.4808 14.8125 13.4384C14.8235 13.2694 14.8232 13.0998 14.8385 12.9314C14.8425 12.8871 14.8832 12.8431 14.9142 12.8048C14.9855 12.7174 15.0612 12.6334 15.1345 12.5478C15.1408 12.5404 15.1395 12.5248 15.1462 12.5204C15.2254 12.4627 15.3081 12.4099 15.3938 12.3624C15.4812 12.3191 15.6142 12.3514 15.6332 12.2021C15.6332 12.1914 15.6908 12.1938 15.7158 12.1794C15.7805 12.1428 15.8418 12.1004 15.9045 12.0601C15.9252 12.0471 15.9448 12.0331 15.9655 12.0198C16.0206 11.9877 16.071 11.9484 16.1155 11.9028C16.3642 11.8438 16.3642 11.8438 16.4002 11.7184L16.5425 11.7008C16.5502 11.6588 16.5582 11.6161 16.5662 11.5724L16.8365 11.5364C16.8468 11.4968 16.8565 11.4584 16.8698 11.4091C17.0395 11.4538 17.0618 11.1928 17.2435 11.2314C17.2732 11.2378 17.3198 11.1648 17.3668 11.1218C17.4955 11.0551 17.6825 11.0174 17.7668 10.9031C17.8512 10.7888 17.9522 10.7944 18.0415 10.7391C18.1308 10.6838 18.2012 10.5791 18.2885 10.5081C18.3282 10.4748 18.3928 10.4748 18.4418 10.4524C18.5066 10.4242 18.5618 10.3779 18.6008 10.3191L18.9948 10.0998L18.9912 10.0928L19.4778 9.77942L19.5085 9.81976C19.5212 9.77709 19.5335 9.73443 19.5462 9.69109C19.6632 9.66776 19.8058 9.70876 19.8482 9.54042C19.8528 9.52109 19.9308 9.52009 19.9842 9.50709C19.9942 9.46909 20.0058 9.42643 20.0175 9.38276C20.0882 9.37243 20.1538 9.36542 20.2175 9.35209C20.2457 9.3459 20.2719 9.33233 20.2932 9.31276C20.3392 9.26909 20.3805 9.22042 20.4458 9.15009C20.4892 9.12542 20.5458 9.08876 20.6058 9.06042C20.6725 9.02909 20.7485 9.04942 20.7902 8.93776C20.8205 8.85676 20.9602 8.81509 21.0542 8.76042C21.0838 8.74309 21.1278 8.74976 21.1562 8.73142C21.2868 8.64709 21.4135 8.55576 21.5438 8.47042C21.5971 8.43965 21.6519 8.41172 21.7082 8.38676C21.7415 8.28676 21.7415 8.28676 21.9462 8.24976L22.1502 8.07476L22.1788 8.09909C22.1878 8.05642 22.1965 8.01376 22.2058 7.96942L22.4762 7.93609C22.4855 7.89576 22.4945 7.85742 22.5022 7.82342L22.9242 7.59809L22.9465 7.62576C22.9592 7.58342 22.9715 7.54076 22.9855 7.49476C23.2122 7.49876 23.3292 7.33242 23.4732 7.20809C23.5792 7.16209 23.6818 7.14376 23.7835 7.04142C23.8645 6.95942 23.9785 6.80976 24.1565 6.83876C24.1792 6.84242 24.2152 6.76309 24.2565 6.73876C24.3085 6.69442 24.3588 6.64776 24.4132 6.60542C24.4427 6.58675 24.4741 6.57122 24.5068 6.55909C24.5808 6.52576 24.6998 6.55742 24.7048 6.41876C24.7048 6.40742 24.7805 6.40609 24.8138 6.38709C24.8738 6.35376 24.9282 6.31009 24.9848 6.27076C25.0045 6.25709 25.0242 6.24276 25.0442 6.22976C25.0995 6.19795 25.1495 6.15755 25.1922 6.11009C25.2922 6.05209 25.4588 6.12376 25.4742 5.92709L25.6225 5.91042L25.6505 5.79409C25.7415 5.71542 25.9505 5.85309 25.9468 5.67842C26.0238 5.59976 26.0628 5.54509 26.1152 5.51176C26.1622 5.48076 26.2252 5.47542 26.2778 5.45176C26.3366 5.42614 26.3892 5.38804 26.4318 5.34009C26.5722 5.26842 26.7585 5.23009 26.8398 5.11642C26.9212 5.00276 27.0235 5.00676 27.1148 4.95376C27.2062 4.90076 27.2738 4.78542 27.3702 4.73142C27.4565 4.68276 27.5685 4.68009 27.6702 4.65709L27.6665 4.65076ZM7.51249 33.5761C7.60416 33.6374 7.75483 33.5964 7.80949 33.7524C7.81283 33.7624 7.84683 33.7654 7.86683 33.7654C8.27549 33.7654 8.68416 33.7654 9.09283 33.7598C9.12449 33.7598 9.15616 33.7264 9.18683 33.7048C9.22383 33.6804 9.26116 33.6318 9.29616 33.6338C9.46849 33.6421 9.50916 33.4531 9.64916 33.4094C9.70016 33.3938 9.73016 33.3121 9.76983 33.2604C9.81183 33.2364 9.81616 33.1641 9.84149 33.1558C9.97483 33.1114 9.96283 32.9971 9.98383 32.8968C9.98883 32.8741 10.0002 32.8371 10.0145 32.8341C10.1448 32.8071 10.1268 32.6928 10.1295 32.6131C10.1385 32.3061 10.1328 31.9984 10.1295 31.6911C10.1295 31.6578 10.1222 31.5978 10.1055 31.5911C9.91283 31.5331 10.0372 31.2774 9.84849 31.1938C9.78816 31.1671 9.73783 31.0158 9.67149 30.9248C9.58216 30.8018 9.48549 30.8114 9.37849 30.7791C9.36316 30.7354 9.34716 30.6898 9.33416 30.6521C9.21616 30.6218 9.07683 30.6741 9.02616 30.5164C9.02149 30.5014 8.97249 30.4944 8.94416 30.4944C8.63683 30.4921 8.32916 30.4904 8.02183 30.4944C7.98849 30.4944 7.95249 30.5221 7.91883 30.5391C7.85416 30.5724 7.79183 30.6094 7.72549 30.6391C7.69449 30.6531 7.62883 30.6478 7.62549 30.6601C7.59216 30.8351 7.43916 30.7814 7.35383 30.8384L7.19983 30.9964C7.16349 31.0224 7.15149 31.1051 7.12983 31.1078C6.97116 31.1268 7.01783 31.2518 6.99649 31.3411C6.99083 31.3648 6.98883 31.3894 6.98549 31.4111L6.83983 31.4591V32.8148L6.98583 32.8554C6.99516 32.9504 7.00383 33.0364 7.01249 33.1221L7.03549 33.1038L7.19183 33.2618L7.18816 33.2658C7.24049 33.3184 7.29316 33.3708 7.37516 33.4534L7.51249 33.5761ZM8.33716 23.5841C8.25916 23.5174 8.21583 23.4508 8.17049 23.4508C7.82283 23.4441 7.47449 23.4508 7.12649 23.4548C7.08747 23.4573 7.05024 23.4721 7.02016 23.4971C6.97288 23.5403 6.92835 23.5864 6.88683 23.6351L6.87949 23.6321L6.71716 23.7868L6.72283 23.7911L6.54216 23.9741C6.52416 24.0928 6.52349 24.0921 6.40349 24.2408C6.38936 24.2618 6.38235 24.2868 6.38349 24.3121C6.38349 24.5578 6.38583 24.8034 6.39049 25.0491C6.39049 25.0824 6.40783 25.1424 6.42016 25.1431C6.54483 25.1511 6.52283 25.2471 6.53683 25.3228C6.54949 25.3894 6.54383 25.4704 6.64949 25.4748C6.66549 25.4748 6.67783 25.5211 6.69549 25.5414C6.72007 25.5717 6.7468 25.6001 6.77549 25.6264C6.79949 25.6478 6.82783 25.6644 6.85383 25.6838C6.89423 25.718 6.93688 25.7495 6.98149 25.7781C7.03983 25.8098 7.10483 25.8288 7.16416 25.8584C7.20483 25.8791 7.24016 25.9291 7.27883 25.9304C7.52416 25.9398 7.76983 25.9394 8.01516 25.9404C8.03916 25.9404 8.07983 25.9328 8.08449 25.9191C8.13816 25.7621 8.28716 25.8168 8.37549 25.7588L8.53716 25.6021L8.53916 25.6038L8.69949 25.4461L8.69249 25.4421L8.87116 25.2384C8.87116 25.2241 8.87616 25.1678 8.88283 25.1121C8.89616 25.0051 8.84616 24.8818 8.99749 24.8121C9.03083 24.7974 9.03283 24.5958 8.99949 24.5788C8.84549 24.5014 8.90116 24.3708 8.88549 24.2588C8.87716 24.1991 8.87549 24.1384 8.87116 24.0834L8.74183 24.0334C8.70783 23.7488 8.58483 23.6271 8.33716 23.5841Z" fill="#9E9E9E"/>
<path d="M27.6694 4.65436C27.675 4.60873 27.6862 4.56396 27.7027 4.52103C27.7077 4.5107 27.7727 4.51736 27.7977 4.53436C27.8049 4.54629 27.8097 4.55953 27.8118 4.57332C27.8138 4.58711 27.8131 4.60118 27.8097 4.6147C27.7631 4.63077 27.7153 4.64314 27.6667 4.65169L27.6694 4.65436Z" fill="#9E9E9E"/>
</svg>
