<svg width="40" height="40" viewBox="0 0 40 40" fill="none" xmlns="http://www.w3.org/2000/svg">
<path d="M29.3587 29.1227C29.3684 29.0594 29.3154 29.0097 29.194 29.0284C29.2117 28.9094 29.1634 28.8554 29.049 28.8737C29.0417 28.8247 29.0357 28.7854 29.0284 28.737L28.892 28.7107C28.886 28.6687 28.8797 28.6254 28.8734 28.582L28.8347 28.604C28.8009 28.5519 28.7626 28.5027 28.7204 28.457C28.687 28.4267 28.637 28.4147 28.5827 28.3904C28.578 28.31 28.5627 28.2214 28.479 28.246L28.1457 27.9094L27.674 27.4384L27.671 27.443L27.517 27.2827L27.5127 27.2874L27.364 27.1274L27.3597 27.1297L27.2067 26.9747L27.1734 26.9977L27.156 26.8644L27.0227 26.847C27.0157 26.8027 27.0087 26.7597 27.001 26.7137L26.87 26.694C26.8627 26.65 26.8554 26.607 26.8467 26.556H26.5764C26.385 26.756 26.2077 26.9467 26.0234 27.131C25.839 27.3154 25.6567 27.483 25.4514 27.6804C25.4514 27.6904 25.443 27.7344 25.4357 27.7804L25.326 27.8064L25.0407 28.292C24.9704 28.392 24.9044 28.4834 24.8424 28.5767C24.8334 28.6001 24.8279 28.6247 24.826 28.6497C24.803 28.7367 24.8284 28.8497 24.7004 28.883C24.686 28.8867 24.677 28.9244 24.6727 28.9477C24.653 29.0504 24.6894 29.172 24.549 29.2307C24.5217 29.2424 24.5217 29.334 24.5197 29.389C24.509 29.6847 24.5037 29.9807 24.4914 30.2764C24.4894 30.326 24.4597 30.4174 24.4467 30.4167C24.3743 30.4102 24.3032 30.3932 24.2357 30.366C24.1897 30.349 24.152 30.305 24.1054 30.2937C24.0114 30.2704 23.8854 30.3247 23.8507 30.1694C23.8467 30.1514 23.7777 30.1484 23.739 30.1384C23.622 30.1077 23.464 30.169 23.4117 29.9907C23.408 29.979 23.3657 29.9784 23.341 29.9747C23.1687 29.949 23.0447 29.8494 22.941 29.7177C22.9195 29.6989 22.8941 29.6849 22.8667 29.6767C22.7844 29.6397 22.6857 29.667 22.6334 29.533C22.5974 29.4434 22.4334 29.4094 22.337 29.338C22.2307 29.2594 22.137 29.165 22.0337 29.081C21.9947 29.0477 21.9474 29.0274 21.9187 28.9897L21.773 28.8414L21.767 28.8477L21.6064 28.6764C21.535 28.6004 21.6104 28.434 21.423 28.4097C21.4077 28.408 21.4017 28.328 21.3897 28.2737L21.266 28.247C21.275 28.2367 21.2837 28.226 21.2927 28.2137C21.2447 28.1614 21.1927 28.111 21.1504 28.0557C21.1303 28.0275 21.1161 27.9955 21.1087 27.9617C21.0877 27.879 21.112 27.769 20.9787 27.7584C20.975 27.7584 20.9684 27.7507 20.969 27.748C21.0154 27.545 20.7917 27.443 20.787 27.256C20.7844 27.153 20.809 27.0397 20.6717 26.9704C20.6277 26.948 20.641 26.8124 20.6237 26.6997C20.8517 26.6997 21.057 26.6997 21.266 26.6997C21.3327 26.6997 21.4117 26.7204 21.43 26.612C21.4337 26.5907 21.4934 26.5694 21.53 26.5644C21.63 26.5504 21.7324 26.5447 21.8337 26.5357L21.8177 26.4957C21.8844 26.4607 21.9557 26.429 22.021 26.3894C22.0757 26.356 22.1234 26.3107 22.1764 26.2737C22.2684 26.21 22.4034 26.1687 22.446 26.0817C22.5244 25.9217 22.7177 25.944 22.802 25.8004C22.8554 25.71 22.9647 25.6527 23.0464 25.578C23.0671 25.5569 23.0842 25.5324 23.097 25.5057C23.1374 25.4307 23.1304 25.3247 23.2537 25.3057C23.276 25.302 23.287 25.219 23.3047 25.1654L23.4234 25.1397C23.4297 25.0974 23.4367 25.0534 23.445 24.9987C23.5287 24.9894 23.6284 24.982 23.5507 24.8697L23.399 24.7137L23.423 24.6804L23.2934 24.661L23.3164 24.6304L23.1624 24.4764V24.4794L23.0224 24.328L23.0077 24.3417C22.887 24.2 22.789 24.0224 22.639 23.9267C22.4747 23.822 22.3994 23.6234 22.2467 23.565C22.1724 23.4914 22.119 23.439 22.0657 23.3867V23.377C22.0129 23.3432 21.9633 23.3047 21.9174 23.262C21.8864 23.2287 21.8744 23.179 21.847 23.1227L21.7277 23.103C21.721 23.0594 21.7147 23.02 21.7074 22.973L21.574 22.9497C21.5674 22.9087 21.561 22.8694 21.5617 22.874L21.3667 22.6894H21.37L21.2084 22.5467C21.1722 22.4898 21.1312 22.4361 21.086 22.386C21.012 22.3154 20.9277 22.2557 20.849 22.19C20.8253 22.1694 20.803 22.1471 20.7824 22.1234C20.7557 22.0937 20.731 22.0624 20.704 22.033C20.677 22.0037 20.6467 21.9774 20.6214 21.947C20.606 21.929 20.6027 21.895 20.585 21.8857C20.4589 21.8216 20.3563 21.7193 20.2917 21.5934C20.2767 21.5647 20.2124 21.562 20.1634 21.545C20.1547 21.506 20.1454 21.463 20.1347 21.4154H19.8947C19.8077 21.5154 19.734 21.601 19.6614 21.686L19.658 21.6834L19.4857 21.8484L19.3414 21.996C19.282 22.0347 19.181 22.0337 19.2117 22.1144C19.145 22.198 19.1117 22.259 19.0604 22.3047C18.9814 22.3764 18.8937 22.438 18.8087 22.5047C18.7912 22.5196 18.775 22.536 18.7604 22.5537C18.722 22.6011 18.6802 22.6457 18.6354 22.687L18.4804 22.848L18.4767 22.8444L18.323 23.0037L18.2964 22.9827C18.2887 23.022 18.2814 23.061 18.2724 23.107L18.1424 23.1297L18.1644 23.158L18.0077 23.3114V23.321C17.9559 23.3554 17.9069 23.394 17.8614 23.4364C17.8307 23.4697 17.8174 23.519 17.7904 23.574C17.7 23.565 17.636 23.6044 17.657 23.7237L17.5307 23.7484L17.551 23.7817C17.489 23.82 17.4301 23.8632 17.375 23.911C17.3265 23.9673 17.2826 24.0274 17.2437 24.0907C17.1227 24.1937 17.0014 24.285 16.8947 24.3907C16.788 24.4964 16.7027 24.611 16.5987 24.7194C16.554 24.758 16.4987 24.7904 16.4677 24.838C16.4434 24.8744 16.4247 24.9584 16.4424 24.9714C16.6425 25.1262 16.8069 25.3223 16.9244 25.5464C16.97 25.6354 17.132 25.674 17.1577 25.761C17.2174 25.9534 17.4807 25.867 17.5244 26.0697C17.5334 26.111 17.7034 26.086 17.6614 26.212L18.1114 26.451C18.1114 26.5264 18.188 26.544 18.2894 26.551C18.4014 26.5597 18.5434 26.5094 18.598 26.677C18.604 26.6947 18.672 26.6984 18.711 26.6987C18.9247 26.7007 19.138 26.6987 19.3627 26.6987C19.3627 26.832 19.4044 26.9537 19.2497 27.023C19.2217 27.0357 19.2264 27.125 19.2194 27.1794C19.2054 27.2904 19.2407 27.4207 19.0894 27.475C19.0717 27.4814 19.0727 27.539 19.0644 27.5727C19.044 27.6557 19.0714 27.7647 18.9404 27.7877C18.9254 27.7904 18.9147 27.838 18.907 27.866C18.8874 27.9534 18.8717 28.0267 18.7834 28.0924C18.695 28.158 18.6734 28.31 18.5864 28.3774C18.4734 28.4647 18.4197 28.5644 18.412 28.644L18.0787 28.9834L18.084 28.9857L17.921 29.1337V29.1394C17.8784 29.183 17.8357 29.227 17.7924 29.27C17.7754 29.287 17.759 29.31 17.738 29.3174C17.638 29.3507 17.525 29.3387 17.478 29.4787C17.4634 29.522 17.3014 29.4827 17.3464 29.6234C17.2177 29.6647 17.099 29.66 17.006 29.79C16.934 29.89 16.7574 29.9137 16.6267 29.9707C16.613 29.9764 16.5867 29.973 16.5837 29.9807C16.5087 30.168 16.3314 30.1074 16.1947 30.1427C16.1797 30.1467 16.1537 30.145 16.1514 30.1524C16.0944 30.319 15.9454 30.2637 15.8284 30.294C15.7564 30.313 15.7004 30.3897 15.6284 30.4154C15.537 30.4487 15.4917 30.407 15.492 30.2997C15.492 29.9834 15.484 29.6664 15.476 29.3504C15.4744 29.2837 15.483 29.2057 15.3807 29.1837C15.3584 29.1787 15.3444 29.1124 15.3344 29.0724C15.3134 28.9874 15.3627 28.867 15.2164 28.8477C15.2127 28.8477 15.206 28.8397 15.2067 28.8367C15.2487 28.6134 14.9734 28.5077 15.0107 28.287L14.969 28.306C14.9304 28.2394 14.8914 28.1727 14.853 28.103C14.7847 27.982 14.717 27.8614 14.5937 27.783C14.5694 27.7677 14.564 27.7254 14.5444 27.6997C14.5231 27.6711 14.4983 27.6453 14.4707 27.6227C14.4524 27.608 14.4197 27.608 14.4064 27.5914C14.2944 27.452 14.193 27.3027 14.073 27.172C14.0014 27.0947 13.8944 27.051 13.812 26.9817C13.7827 26.957 13.7787 26.9017 13.735 26.8817C13.7006 26.8295 13.6616 26.7806 13.6184 26.7354C13.585 26.7057 13.5334 26.696 13.476 26.6714C13.4704 26.643 13.462 26.6004 13.4524 26.551H13.1564C13.145 26.6007 13.135 26.644 13.1254 26.6877L13.092 26.6634C13.0556 26.7101 13.0164 26.7546 12.9747 26.7967C12.9384 26.83 12.8924 26.8527 12.8644 26.899C12.8137 26.937 12.762 26.9737 12.713 27.0137C12.6964 27.0304 12.6817 27.0489 12.6694 27.069C12.647 27.1008 12.6229 27.1314 12.5974 27.1607C12.559 27.2007 12.517 27.237 12.4794 27.2794L12.321 27.4364L12.3227 27.441L12.0854 27.659V27.6707C12.0336 27.7069 11.9847 27.7471 11.939 27.7907C11.9141 27.8245 11.8941 27.8617 11.8794 27.901L11.6127 28.1294L11.617 28.1347C11.577 28.1754 11.5354 28.215 11.497 28.2574C11.4587 28.2997 11.4304 28.3394 11.3734 28.409L11.3277 28.417C11.2277 28.5284 11.154 28.6087 11.1037 28.6647C11.025 28.7367 10.9704 28.7867 10.9174 28.8364L10.9207 28.8404L10.7667 28.995V29.0007L10.5334 29.221V29.234C10.4806 29.2687 10.4307 29.3075 10.384 29.35C10.353 29.3834 10.3397 29.4324 10.305 29.4584L10.149 29.617H10.147L9.99571 29.7764H9.99005C9.95378 29.8282 9.91355 29.8771 9.86971 29.9227C9.83638 29.954 9.78705 29.969 9.75938 29.9994L9.61204 30.1634L9.57871 30.139L9.55471 30.2694L9.52771 30.2477L9.21871 30.5477L9.24438 30.581L9.11538 30.605L9.13471 30.6277C9.08705 30.673 9.02871 30.7124 8.99605 30.7667C8.97705 30.798 8.99038 30.858 9.00638 30.8984C9.02505 30.946 9.06805 30.9834 9.09105 31.0317C9.12438 31.1014 9.08405 31.214 9.21371 31.23C9.23005 31.232 9.24205 31.2884 9.25171 31.3207C9.27638 31.406 9.24205 31.5124 9.37171 31.5577C9.40505 31.5694 9.40105 31.687 9.41371 31.7577C9.43138 31.856 9.43671 31.941 9.51838 32.0354C9.59404 32.1224 9.56138 32.302 9.57638 32.4427L9.52738 32.43C9.49498 32.4861 9.45701 32.5387 9.41405 32.587C9.33638 32.6604 9.24738 32.7204 9.16605 32.7907C9.09431 32.8482 9.02844 32.9126 8.96938 32.983C8.88504 33.0934 8.80271 33.1977 8.68071 33.2747C8.59571 33.3277 8.53971 33.4267 8.47105 33.5054C8.46471 33.5127 8.46005 33.529 8.45538 33.529C8.26605 33.519 8.07171 33.529 7.89138 33.482C7.84671 33.471 7.77638 33.4154 7.70638 33.399C7.63638 33.3827 7.57305 33.392 7.52871 33.2947C7.50571 33.242 7.36938 33.239 7.30238 33.1924L6.81505 32.881C6.81171 32.8877 6.80805 32.894 6.80471 32.9004L6.53805 32.6337L6.31771 32.6004C6.31771 32.5034 6.28971 32.4254 6.16405 32.467C6.15505 32.412 6.14871 32.373 6.14871 32.3737L5.95138 32.1974C5.44763 31.877 5.02044 31.4498 4.70005 30.946C4.64971 30.8924 4.60005 30.839 4.52471 30.7604C4.46171 30.768 4.40838 30.719 4.43238 30.5997L4.29505 30.5754C4.28271 30.4867 4.27171 30.4064 4.26471 30.3554C4.16738 30.2574 4.08871 30.1777 4.01038 30.0984C3.95271 30.0067 3.92105 29.907 3.84371 29.8057C3.76638 29.7044 3.59471 29.6034 3.64138 29.4197C3.50405 29.335 3.54138 29.1374 3.46605 29.0664C3.30438 28.9154 3.36838 28.7504 3.35105 28.5904C3.34338 28.5187 3.33571 28.448 3.44605 28.3997C3.53305 28.362 3.57638 28.23 3.64605 28.1464C3.70385 28.0745 3.76923 28.009 3.84105 27.951C3.94971 27.8677 4.05005 27.7844 4.12705 27.6644C4.18071 27.58 4.29571 27.5367 4.37638 27.467C4.40971 27.4377 4.42605 27.3884 4.45605 27.3387C4.55771 27.3387 4.66905 27.3387 4.78038 27.3387C4.80971 27.3387 4.85838 27.345 4.86471 27.3614C4.91905 27.5034 5.04505 27.4614 5.14805 27.4807C5.23538 27.4974 5.35105 27.459 5.38138 27.5974C5.38471 27.612 5.43405 27.6167 5.46205 27.625C5.55038 27.651 5.67705 27.6027 5.70171 27.7547C5.70405 27.7694 5.76571 27.7717 5.79738 27.785C5.87171 27.816 5.99738 27.765 6.00605 27.9097C6.00605 27.9187 6.08371 27.94 6.09771 27.9267C6.18138 27.8477 6.25705 27.76 6.34238 27.6677L6.57171 27.46L6.80005 27.21L6.80538 27.2134L7.12505 26.9007L7.12205 26.894L7.35905 26.676V26.6667C7.41152 26.6318 7.46092 26.5924 7.50671 26.549C7.53771 26.5157 7.55138 26.466 7.58271 26.4384L7.76305 26.2677L7.92405 26.099L8.12405 25.9077L8.27371 25.7467L8.28838 25.7564L8.51205 25.4967L8.52405 25.5007C8.55957 25.448 8.59949 25.3984 8.64338 25.3524C8.73305 25.2714 8.83005 25.1984 8.91005 25.1007C8.96385 25.068 9.01471 25.0306 9.06204 24.989C9.09371 24.9557 9.10738 24.906 9.13871 24.879C9.19271 24.829 9.24693 24.7793 9.30138 24.7297L9.29938 24.7244L9.45571 24.5654V24.5624L9.69171 24.346V24.331C9.7441 24.2963 9.7935 24.2573 9.83938 24.2144C9.87005 24.181 9.88238 24.1307 9.91471 24.103L10.0754 23.948V23.9447L10.3384 23.6947V23.483L10.1614 23.308L10.1674 23.303L9.98905 23.1314C9.96205 23.095 9.93305 23.033 9.88471 22.9954C9.81805 22.9437 9.75138 22.9154 9.71104 22.8197C9.67771 22.7387 9.55104 22.7004 9.47771 22.6314C9.40438 22.5624 9.33505 22.471 9.26238 22.392C9.24123 22.3743 9.21896 22.3579 9.19571 22.343C9.16238 22.315 9.12905 22.2857 9.09571 22.2547C9.08571 22.245 9.08738 22.2214 9.07705 22.2154C8.94371 22.137 8.80671 22.0607 8.64738 21.9707C8.64971 21.897 8.58071 21.8707 8.48238 21.8657C8.41805 21.8627 8.33538 21.868 8.32138 21.7627C8.31871 21.743 8.24771 21.7317 8.20738 21.7184C8.13238 21.6944 8.03205 21.726 8.00471 21.5997C7.99938 21.5737 7.88671 21.5757 7.82771 21.554C7.78049 21.5311 7.73474 21.5053 7.69071 21.4767C7.64505 21.453 7.59738 21.4177 7.54938 21.416C7.23838 21.4047 6.92671 21.4034 6.61605 21.3937C6.56671 21.3937 6.47771 21.365 6.47705 21.3477C6.47471 21.2754 6.47705 21.1557 6.51805 21.138C6.63171 21.0874 6.60105 20.999 6.61138 20.9214C6.62005 20.8547 6.60771 20.795 6.70138 20.7707C6.73271 20.7627 6.74938 20.6707 6.75938 20.6157C6.77871 20.5057 6.74638 20.3757 6.89571 20.3237C6.91171 20.3184 6.91238 20.269 6.91971 20.24C6.94105 20.1557 6.94638 20.0787 7.03971 20.0137C7.12638 19.9537 7.16838 19.826 7.22238 19.7237C7.26038 19.652 7.23371 19.56 7.36105 19.5237C7.43738 19.501 7.47838 19.362 7.53771 19.2767C7.59705 19.1914 7.65505 19.117 7.70971 19.0344C7.72238 19.0157 7.71638 18.9847 7.75171 18.98C7.7866 18.9225 7.82689 18.8683 7.87205 18.8184C7.94838 18.7467 8.03505 18.685 8.11738 18.6207C8.13605 18.606 8.17071 18.591 8.17038 18.5767C8.17038 18.4814 8.23905 18.4877 8.30071 18.4647C8.36738 18.4394 8.45405 18.4437 8.48171 18.3314C8.49571 18.2757 8.60571 18.244 8.67805 18.198C8.76405 18.1377 8.84471 18.0417 8.94138 18.022C9.09871 17.9887 9.20805 17.8724 9.33905 17.8074C9.51105 17.722 9.69971 17.7294 9.84438 17.6474C9.95371 17.5857 10.0374 17.514 10.1934 17.533C10.1934 17.7457 10.1877 17.9584 10.197 18.1707C10.1994 18.2237 10.2574 18.2707 10.2747 18.327C10.305 18.42 10.3273 18.5153 10.3414 18.612C10.3534 18.702 10.345 18.796 10.489 18.768C10.4714 19.0154 10.6327 19.1347 10.7647 19.2814C10.8092 19.3225 10.8536 19.3634 10.898 19.404C10.9124 19.4174 10.939 19.4287 10.9404 19.4427C10.9634 19.695 11.211 19.7804 11.334 19.9597C11.406 20.0647 11.5614 20.112 11.677 20.1887C11.7009 20.2097 11.7217 20.2338 11.739 20.2604C11.7594 20.2844 11.779 20.31 11.8014 20.332C11.833 20.366 11.8677 20.3969 11.905 20.4244C11.9384 20.4464 11.9997 20.4807 12.011 20.4697C12.0967 20.388 12.173 20.2967 12.2584 20.2147C12.5188 19.9534 12.7789 19.6919 13.0387 19.4304L13.1957 19.2734C13.248 19.2224 13.3 19.171 13.321 19.1504C13.4034 19.0654 13.4544 19.0124 13.5057 18.9597L13.5117 18.964C13.5614 18.9104 13.6117 18.857 13.6604 18.8034L13.6654 18.8084C13.715 18.755 13.7654 18.702 13.84 18.622L14.04 18.436C14.1007 18.3724 14.1524 18.3187 14.231 18.236C14.252 18.219 14.3007 18.1834 14.3457 18.1434C14.366 18.1257 14.3767 18.0977 14.3954 18.0767C14.425 18.0434 14.4577 18.0157 14.4884 17.9847C14.5104 17.9627 14.53 17.9384 14.5524 17.9164C14.5834 17.886 14.615 17.856 14.6484 17.8277C14.666 17.8124 14.7037 17.8024 14.7044 17.7884C14.7094 17.7084 14.7454 17.677 14.8254 17.663C14.8527 17.6584 14.867 17.5814 14.9037 17.5557L15.0604 17.398L15.217 17.2444H15.2194L15.3704 17.085L15.3504 17.0614L15.4837 17.039C15.479 16.9894 15.4927 16.924 15.4667 16.898C15.343 16.7734 15.2034 16.6647 15.0797 16.5404C14.956 16.416 14.8464 16.2714 14.7224 16.1434C14.6484 16.0674 14.558 16.0074 14.4774 15.937C14.4214 15.8884 14.3674 15.837 14.3164 15.783C14.2427 15.7064 14.173 15.626 14.101 15.5477C14.0794 15.5244 14.0554 15.503 14.032 15.481C14.0007 15.4514 13.9707 15.4207 13.9377 15.393C13.8952 15.3624 13.8577 15.3254 13.8264 15.2834L12.2704 13.73L12.237 13.7584L12.2087 13.625L12.0774 13.6064C12.07 13.5624 12.0634 13.519 12.0554 13.47L11.9434 13.4534C11.8734 13.3347 11.81 13.222 11.7407 13.112C11.7146 13.0765 11.6858 13.043 11.6544 13.012C11.6357 12.9866 11.6152 12.9626 11.593 12.94C11.478 12.842 11.4334 12.7037 11.3727 12.5734C11.3469 12.5251 11.3159 12.4797 11.2804 12.438C11.2609 12.4123 11.2385 12.3888 11.2137 12.368C11.199 12.3564 11.1604 12.3517 11.1607 12.3477C11.1867 12.1537 10.9777 12.0614 10.9607 11.8837C10.9564 11.838 10.9037 11.797 10.874 11.753C10.8539 11.7277 10.8371 11.7 10.824 11.6704C10.7934 11.5794 10.844 11.4467 10.6907 11.4194C10.7154 11.2164 10.527 11.091 10.5024 10.9054C10.4887 10.8037 10.533 10.679 10.3767 10.6317C10.3497 10.6237 10.3564 10.511 10.3434 10.4474C10.3244 10.3474 10.385 10.2214 10.224 10.1707C10.1937 10.161 10.204 10.031 10.1907 9.95738C10.1734 9.86438 10.2374 9.73438 10.0754 9.70138C10.06 9.69838 10.0497 9.63971 10.047 9.60604C10.0387 9.48904 10.0434 9.37038 10.0254 9.25538C10.0174 9.20338 9.96605 9.15871 9.93738 9.10938C9.91507 9.07972 9.89938 9.04562 9.89138 9.00938C9.88105 8.86671 9.88938 8.72238 9.86905 8.58171C9.85705 8.49871 9.80238 8.42271 9.77071 8.34238C9.75241 8.30286 9.74059 8.26065 9.73571 8.21738C9.72705 8.03371 9.72604 7.85071 9.71838 7.66638C9.71404 7.55804 9.74305 7.43571 9.60705 7.37538C9.59471 7.36971 9.58771 7.33938 9.58771 7.32038C9.58771 7.04071 9.58771 6.76138 9.58771 6.45371C9.86005 6.46571 10.1624 6.40338 10.3877 6.50704C10.701 6.65104 11.011 6.56971 11.3147 6.63338C11.3634 6.64338 11.4067 6.67738 11.4534 6.70004C11.5 6.72271 11.541 6.75004 11.5867 6.75471C11.7287 6.76971 11.8724 6.76904 12.014 6.78604C12.0914 6.79504 12.1897 6.76304 12.2307 6.88304C12.2404 6.91071 12.3307 6.91638 12.3847 6.92238C12.476 6.93271 12.568 6.93371 12.6594 6.94204C12.6997 6.94571 12.763 6.94538 12.775 6.96838C12.8584 7.12771 13.0084 7.07638 13.1357 7.09371C13.211 7.10371 13.2937 7.08104 13.329 7.19671C13.3397 7.23004 13.4644 7.23004 13.5364 7.24671C13.628 7.26804 13.7537 7.20171 13.7944 7.36304C13.8014 7.39071 13.923 7.38971 13.9917 7.40171C14.085 7.41771 14.2024 7.37704 14.239 7.52271C14.2447 7.54404 14.3284 7.54904 14.3764 7.55604C14.4667 7.56738 14.5764 7.54704 14.55 7.69838L14.8374 7.72204C14.8587 7.92771 15.033 7.84471 15.1587 7.87904C15.1694 7.91904 15.1807 7.96104 15.192 8.00071C15.4634 8.04338 15.4634 8.04338 15.492 8.15104L15.9094 8.37438C15.9584 8.41138 16.0427 8.44104 16.054 8.49038C16.1044 8.68371 16.3507 8.60404 16.424 8.78104C16.4597 8.86704 16.5994 8.90538 16.6784 8.97938C16.7574 9.05338 16.8054 9.14371 16.8784 9.21838C16.9514 9.29304 17.0394 9.36271 17.1194 9.43571C17.143 9.45704 17.1614 9.48404 17.1837 9.50671C17.2117 9.53504 17.2414 9.56138 17.2704 9.58871C17.2994 9.61604 17.3234 9.63638 17.3464 9.66304C17.3631 9.68939 17.3811 9.71487 17.4004 9.73938C17.4434 9.78004 17.4914 9.81538 17.557 9.86871C18.305 10.699 19.1874 11.4287 19.8974 12.3634C19.9687 12.4027 20.1414 12.3237 20.1667 12.517C20.169 12.5367 20.246 12.5467 20.2667 12.5837L20.7487 13.06C20.8002 13.091 20.8486 13.1267 20.8934 13.1667C20.975 13.2534 21.048 13.349 21.1394 13.4587C21.2204 13.4457 21.2727 13.4977 21.2614 13.5647L21.4237 13.722L23 15.296L22.9974 15.298L23.1804 15.4777C23.2417 15.4687 23.2984 15.514 23.2777 15.6307L23.3817 15.6494C23.458 15.7467 23.525 15.8277 23.587 15.9124C23.6324 15.9744 23.7344 15.952 23.758 16.0714C23.7737 16.1507 23.9127 16.2014 23.988 16.2737C24.0686 16.3528 24.1439 16.4371 24.2134 16.526C24.2667 16.5927 24.3974 16.595 24.383 16.721C24.5977 16.7414 24.4867 16.921 24.5134 16.981L24.708 17.1617L24.6837 17.195L24.817 17.2194C24.8244 17.2627 24.831 17.302 24.839 17.3484L24.9687 17.3714L24.948 17.395L25.1 17.5534L25.2534 17.7104C25.2867 17.782 25.3067 17.8644 25.3887 17.8397L25.5644 18.0234V18.0324C25.6162 18.0685 25.6653 18.1085 25.711 18.152C25.7834 18.2304 25.8474 18.316 25.9157 18.398C25.9337 18.419 25.956 18.4364 25.976 18.456C26.007 18.4864 26.0384 18.5164 26.0677 18.548C26.0811 18.5676 26.0955 18.5865 26.111 18.6044C26.1607 18.646 26.211 18.6847 26.2747 18.7327C26.309 18.7847 26.3476 18.8338 26.39 18.8794C26.4234 18.9104 26.472 18.9244 26.4977 18.9594L26.6784 19.1357C26.7074 19.1654 26.758 19.2174 26.809 19.269L26.8167 19.2657L27.0024 19.4727L27.196 19.661L27.1734 19.69L27.3 19.7117C27.3084 19.7537 27.317 19.7967 27.3174 19.7997L27.586 20.048L27.5837 20.0627C27.6371 20.0989 27.6878 20.1389 27.7354 20.1824C27.8067 20.256 27.8687 20.3387 27.9374 20.4157C27.9584 20.4394 27.987 20.4687 28.014 20.47C28.041 20.4714 28.072 20.4447 28.098 20.4257C28.14 20.395 28.1804 20.3617 28.2194 20.3257C28.286 20.2647 28.3527 20.2014 28.422 20.1394C28.4697 20.0957 28.517 20.051 28.5664 20.0094C28.6587 19.9317 28.7627 19.8654 28.8424 19.776C28.9317 19.676 29.0594 19.603 29.061 19.433C29.061 19.377 29.264 19.4047 29.1817 19.2454L29.3317 19.222L29.307 19.1887C29.3552 19.1469 29.401 19.1024 29.444 19.0554C29.4647 19.0236 29.4799 18.9885 29.489 18.9517C29.5167 18.875 29.474 18.7607 29.616 18.7424C29.6367 18.7397 29.6457 18.6244 29.6547 18.5604C29.668 18.4604 29.6597 18.3604 29.7694 18.2964C29.7957 18.2814 29.8027 18.2147 29.8027 18.1717C29.8057 17.963 29.8027 17.7547 29.8027 17.5384C29.9334 17.5207 30.038 17.5 30.1194 17.6294C30.1434 17.6677 30.237 17.6687 30.2997 17.6747C30.406 17.6847 30.5147 17.6777 30.5757 17.7954C30.5854 17.8147 30.6274 17.8197 30.656 17.826C30.7524 17.8474 30.8344 17.8454 30.9157 17.9547C31.001 18.0704 31.185 18.113 31.3097 18.1794C31.3724 18.2247 31.4457 18.2504 31.4664 18.2984C31.5367 18.465 31.7527 18.4204 31.8347 18.5814C31.8787 18.668 32.0097 18.706 32.085 18.7814C32.1647 18.8678 32.2367 18.961 32.3 19.06C32.3387 19.1167 32.331 19.1854 32.4194 19.2324C32.5147 19.2834 32.5677 19.414 32.6597 19.5377L32.744 19.554C32.803 19.661 32.6957 19.8414 32.8494 19.8514L33.0297 20.0484C33.0334 20.052 33.0394 20.054 33.041 20.058C33.1044 20.2247 33.1714 20.389 33.2284 20.558C33.2577 20.6447 33.195 20.774 33.3537 20.7967C33.3674 20.7987 33.3747 20.8564 33.382 20.889C33.4027 20.9787 33.3544 21.089 33.4954 21.141C33.5317 21.1544 33.524 21.2877 33.5414 21.3944C33.4237 21.3944 33.3294 21.3944 33.2347 21.3944C32.9897 21.398 32.7447 21.4 32.5014 21.4094C32.4217 21.4124 32.3247 21.3904 32.2967 21.5184C32.291 21.543 32.191 21.5517 32.1337 21.559C32.0597 21.5684 31.9737 21.5497 31.9594 21.659C31.9594 21.6677 31.947 21.6824 31.9417 21.6817C31.76 21.6627 31.6594 21.83 31.5034 21.8724C31.4382 21.8956 31.3801 21.9352 31.3347 21.9874C31.2417 22.0507 31.1134 22.013 31.0444 22.163C31.0027 22.2537 30.8647 22.2997 30.78 22.3834C30.729 22.4214 30.676 22.4567 30.6274 22.4974C30.5686 22.5438 30.5129 22.594 30.4607 22.6477C30.386 22.7274 30.3207 22.8144 30.2454 22.894C30.17 22.9737 30.0944 23.038 30.0167 23.1077C29.999 23.1237 29.9724 23.1297 29.9557 23.146C29.939 23.1624 29.6874 23.417 29.6844 23.4307C29.6637 23.5254 29.6487 23.6214 29.6317 23.7167L29.68 23.698C29.78 23.813 29.876 23.9334 29.984 24.041C30.092 24.1487 30.2057 24.2354 30.3107 24.3257C30.349 24.3825 30.3917 24.4363 30.4384 24.4864C30.4717 24.517 30.5217 24.53 30.5467 24.5664L30.703 24.7214L30.7297 24.6997C30.7364 24.7387 30.743 24.778 30.751 24.8257L30.8877 24.8524C30.8934 24.8934 30.8997 24.9367 30.9064 24.984L31.0397 25.0017L31.0614 25.1374L31.1547 25.153L31.2994 25.3357C31.3704 25.3864 31.4327 25.4177 31.479 25.467C31.5507 25.5457 31.604 25.6417 31.6757 25.7204C31.7474 25.799 31.831 25.8597 31.9057 25.9324C31.999 26.0227 32.0884 26.1167 32.1877 26.207C32.2238 26.2588 32.2638 26.3077 32.3074 26.3534C32.3407 26.3844 32.3894 26.3987 32.416 26.431L32.5687 26.59L32.6004 26.5667C32.607 26.61 32.6137 26.6534 32.621 26.7L32.7544 26.7174C32.7617 26.7607 32.769 26.8037 32.7774 26.8507L32.9067 26.8697C32.9144 26.9114 32.9224 26.9547 32.9227 26.9577L33.1544 27.166C33.239 27.2534 33.293 27.3097 33.3474 27.366V27.376C33.3977 27.4154 33.45 27.4527 33.4974 27.495C33.554 27.5464 33.5564 27.6317 33.6607 27.6634C33.7447 27.6887 33.8037 27.8054 33.8684 27.886C33.9264 27.9584 33.9684 27.958 34.0157 27.876C34.0382 27.8421 34.0712 27.8166 34.1097 27.8034C34.1984 27.7734 34.3187 27.8094 34.348 27.665C34.352 27.645 34.44 27.6434 34.4887 27.6317C34.5524 27.6164 34.6307 27.6404 34.6554 27.5317C34.6617 27.5027 34.7684 27.4907 34.8307 27.4794C34.9384 27.46 35.0544 27.496 35.134 27.363C35.1614 27.318 35.2954 27.3297 35.3807 27.3297C35.457 27.3297 35.551 27.2907 35.585 27.426C35.6007 27.488 35.691 27.5324 35.7494 27.5824C35.829 27.649 35.916 27.7124 35.9904 27.784C36.0647 27.8557 36.1344 27.9387 36.2077 28.015C36.2974 28.108 36.389 28.1997 36.4767 28.2937C36.5274 28.3477 36.5767 28.402 36.6524 28.4807C36.6524 28.5914 36.6524 28.7437 36.6524 28.896C36.6524 28.9257 36.648 28.9774 36.634 28.9817C36.4557 29.0367 36.5264 29.1937 36.4954 29.308L36.4574 29.293C36.422 29.367 36.389 29.442 36.351 29.5147C36.3177 29.5775 36.279 29.6372 36.2354 29.6934C36.1914 29.7434 36.1464 29.7934 36.1044 29.844C36.0865 29.8664 36.0719 29.8912 36.061 29.9177C36.0277 30.003 36.0277 30.0844 35.9187 30.1537C35.8014 30.23 35.752 30.4104 35.6854 30.5554C35.6084 30.5814 35.5234 30.604 35.5494 30.6827C35.489 30.7494 35.4537 30.7944 35.4137 30.834C35.3738 30.8689 35.3363 30.9065 35.3017 30.9467C35.2537 30.9924 35.2047 31.0364 35.159 31.0837C35.1385 31.1039 35.123 31.1287 35.114 31.156C35.09 31.245 35.0884 31.326 34.969 31.3747C34.8857 31.408 34.855 31.554 34.7777 31.6237C34.713 31.6817 34.631 31.7094 34.5904 31.804C34.5637 31.866 34.485 31.9374 34.4237 31.9457C34.267 31.967 34.2024 32.121 34.0637 32.1637C34.0324 32.1734 34.0204 32.2447 33.9954 32.297L33.8687 32.318C33.859 32.3617 33.85 32.401 33.8487 32.4074L33.652 32.5567L33.6774 32.593C33.5677 32.629 33.4107 32.5824 33.3774 32.7597C33.3747 32.7737 33.3024 32.7744 33.2527 32.783C33.242 32.8204 33.23 32.8624 33.216 32.9127C33.0057 32.916 32.8774 33.0557 32.758 33.2127C32.7084 33.2207 32.658 33.2254 32.6097 33.237C32.4457 33.2764 32.3317 33.4397 32.1457 33.4257C31.9837 33.6287 31.763 33.5257 31.567 33.5257C31.5097 33.5257 31.447 33.446 31.3984 33.3924C31.328 33.3154 31.2687 33.2284 31.203 33.147C31.1838 33.1273 31.1635 33.1087 31.142 33.0914C31.111 33.062 31.0797 33.0324 31.0507 33.001C31.0347 32.984 31.0264 32.9594 31.009 32.9447C30.9614 32.9034 30.909 32.865 30.8614 32.8174C30.8137 32.7697 30.7567 32.7124 30.704 32.66H30.694C30.6596 32.6076 30.6213 32.5578 30.5794 32.511C30.54 32.481 30.4971 32.4557 30.4517 32.4357C30.4517 32.324 30.4517 32.2074 30.4517 32.0904C30.4517 32.0704 30.4517 32.0384 30.4607 32.032C30.6574 31.9177 30.5607 31.713 30.617 31.546C30.817 31.524 30.7227 31.348 30.769 31.229L30.8917 31.1917C30.9004 31.1 30.9087 31.0147 30.9144 30.9547L31.052 30.8234L30.8724 30.6334L30.897 30.6024L30.7637 30.5807C30.757 30.5377 30.751 30.4987 30.7494 30.489L30.4747 30.2504L30.481 30.2417L30.3217 30.087L30.3254 30.084L29.3587 29.1227Z" fill="#9E9E9E"/>
<path d="M29.313 11.4261L29.1997 11.4594C29.1913 11.5464 29.183 11.6368 29.1737 11.7368C28.9663 11.7514 29.054 11.9221 29.0173 12.0458L28.902 12.0814C28.8353 12.1814 28.9577 12.3758 28.7887 12.3794C28.714 12.4658 28.6637 12.5178 28.622 12.5758C28.6 12.609 28.5844 12.6461 28.576 12.6851C28.5573 12.7598 28.5637 12.8291 28.452 12.8621C28.378 12.8841 28.3187 12.9954 28.278 13.0788C28.236 13.1681 28.2187 13.2534 28.1187 13.3171C28.032 13.3721 27.9923 13.4964 27.9187 13.5794C27.8687 13.6364 27.7973 13.6748 27.7343 13.7324L27.2727 14.1938V14.1918L25.5393 15.9141L25.0393 15.5971C25.0297 15.6081 25.0203 15.6194 25.011 15.6304L24.98 15.5021L24.954 15.5248C24.9047 15.4808 24.856 15.4354 24.8053 15.3914C24.7844 15.3717 24.7595 15.3567 24.7323 15.3474C24.643 15.3254 24.5633 15.3251 24.5117 15.2068C24.4757 15.1238 24.2843 15.1024 24.2577 15.0218C24.1927 14.8244 23.9537 14.9384 23.8687 14.7498C23.815 14.6314 23.6097 14.5814 23.479 14.4961C23.365 14.4144 23.2517 14.3321 23.137 14.2518C23.0777 14.2101 23.0037 14.2228 22.9503 14.1288C22.897 14.0348 22.745 13.9931 22.638 13.9258C22.593 13.8974 22.5543 13.8591 22.5097 13.8301C22.4586 13.8031 22.4127 13.7673 22.374 13.7244C22.3143 13.6911 22.2553 13.6558 22.195 13.6228C22.1347 13.5898 22.0667 13.5561 22.0023 13.5228L22.0187 13.4761L21.8853 13.4574C21.891 13.4451 21.897 13.4324 21.9027 13.4198C21.8443 13.3841 21.7837 13.3514 21.7277 13.3121C21.661 13.2641 21.5963 13.2084 21.5277 13.1598C21.4726 13.1259 21.4211 13.0864 21.374 13.0421C21.1887 12.9964 21.034 12.9058 20.9307 12.7358C20.9233 12.7238 20.9073 12.7064 20.8973 12.7081C20.7207 12.7384 20.6123 12.5874 20.5333 12.4984C20.449 12.4041 20.2247 12.3778 20.2923 12.1681C20.2983 12.1491 20.2923 12.1224 20.3013 12.1084C20.3823 12.0021 20.463 11.8951 20.5497 11.7931C20.6363 11.6911 20.7227 11.6021 20.8107 11.5078C20.8603 11.4548 20.9107 11.4018 20.9643 11.3531C21.042 11.2831 21.125 11.2198 21.2027 11.1491C21.2763 11.0885 21.3451 11.0222 21.4083 10.9508C21.4907 10.8508 21.5667 10.7508 21.68 10.6761C21.7467 10.6334 21.783 10.5541 21.855 10.4984C21.9963 10.3888 22.091 10.2211 22.216 10.0874C22.2863 10.0124 22.3827 9.96342 22.4593 9.89175C22.536 9.82009 22.599 9.73075 22.668 9.64975C22.6841 9.62809 22.7019 9.6078 22.7213 9.58909C22.7653 9.55042 22.812 9.51475 22.8547 9.46942C23.0084 9.31653 23.1622 9.16364 23.316 9.01075L23.3103 9.00642L23.4437 8.87908C23.519 8.80842 23.564 8.76242 23.6137 8.72175C23.6427 8.69775 23.6803 8.68408 23.712 8.66275C23.776 8.62008 23.899 8.64908 23.8913 8.51775C24.043 8.52442 24.049 8.29775 24.2163 8.31775C24.254 8.32208 24.2983 8.26442 24.34 8.23575C24.3698 8.21375 24.4009 8.19371 24.4333 8.17575C24.455 8.16475 24.4877 8.17075 24.5043 8.15608C24.6557 8.02275 24.655 8.02275 24.8093 8.00475C24.821 7.96608 24.8337 7.92408 24.846 7.88408C24.9483 7.82708 25.134 7.94508 25.1537 7.72408L25.435 7.69908L25.4683 7.57075C25.5407 7.56508 25.6063 7.56108 25.6717 7.55408C25.701 7.55075 25.7507 7.54875 25.7557 7.53408C25.8137 7.36742 25.9593 7.41475 26.0773 7.39742C26.1467 7.38708 26.2143 7.39742 26.244 7.30142C26.254 7.27042 26.346 7.26342 26.4017 7.25042C26.514 7.22375 26.659 7.29542 26.7233 7.11975C26.735 7.08642 26.866 7.10275 26.941 7.09042C27.0323 7.07508 27.147 7.12375 27.196 6.98308C27.206 6.95442 27.296 6.94975 27.3503 6.94175C27.4503 6.92942 27.5547 6.93142 27.6547 6.91375C27.7017 6.90542 27.7427 6.86408 27.788 6.84075C27.8196 6.81971 27.8549 6.80479 27.892 6.79675C28.0253 6.78308 28.1567 6.77775 28.289 6.76742C28.393 6.75942 28.5047 6.77508 28.5713 6.65875C28.5827 6.63808 28.6357 6.63642 28.6713 6.63475C28.855 6.62508 29.038 6.62108 29.222 6.60942C29.3327 6.60242 29.4553 6.63975 29.536 6.50942C29.554 6.48075 29.631 6.48242 29.681 6.48075C29.89 6.47275 30.0997 6.47208 30.3087 6.46242C30.4037 6.45775 30.4347 6.49575 30.4307 6.58642C30.422 6.79042 30.4287 6.99542 30.4117 7.19842C30.4053 7.27408 30.3487 7.34508 30.3203 7.42008C30.3044 7.46208 30.295 7.50625 30.2923 7.55108C30.2803 7.77008 30.272 7.98942 30.2613 8.20842C30.2613 8.24375 30.265 8.29808 30.2453 8.31108C30.086 8.41675 30.143 8.58442 30.1173 8.72808C30.0907 8.87775 30.1507 9.04175 29.9963 9.17142C29.9427 9.21709 29.97 9.35608 29.9567 9.45208C29.9417 9.55975 29.974 9.67208 29.8417 9.75608C29.7873 9.78942 29.8083 9.94609 29.797 10.0464C29.789 10.1131 29.8063 10.1798 29.7067 10.2131C29.67 10.2251 29.6617 10.3344 29.648 10.4011C29.627 10.5054 29.6847 10.6344 29.5267 10.6941C29.4933 10.7061 29.5007 10.8244 29.4913 10.8941C29.4793 10.9858 29.4913 11.0701 29.3793 11.1368C29.3247 11.1714 29.3353 11.3191 29.313 11.4261Z" fill="#9E9E9E"/>
</svg>
