<svg width="40" height="40" viewBox="0 0 40 40" fill="none" xmlns="http://www.w3.org/2000/svg">
<path d="M19.3242 24.1111L19.2049 24.1194L19.2236 24.1434C19.1729 24.1907 19.1213 24.2364 19.0726 24.2854C19.0576 24.3039 19.0456 24.3246 19.0369 24.3467C18.9939 24.4291 19.0249 24.5504 18.8793 24.5817C18.8386 24.5907 18.8609 24.7567 18.7749 24.7304C18.7059 24.7971 18.6609 24.8384 18.6206 24.8831C18.5999 24.908 18.5827 24.9356 18.5693 24.9651C18.5313 25.0404 18.5693 25.1617 18.4289 25.1784C18.4086 25.1811 18.3982 25.2644 18.3829 25.3117L18.3496 25.2937C18.3162 25.3517 18.2829 25.4104 18.2469 25.4671C18.2159 25.5167 18.1802 25.5634 18.1492 25.6124C18.1293 25.6428 18.1114 25.6746 18.0956 25.7074C18.0836 25.7327 18.0786 25.7837 18.0679 25.7844C17.9179 25.7931 17.9632 25.9131 17.9432 25.9954C17.9356 26.0287 17.9316 26.0857 17.9182 26.0881C17.7566 26.1157 17.8086 26.2444 17.8012 26.3374C17.7896 26.4914 17.7936 26.6471 17.7876 26.8017C17.7846 26.8831 17.8016 26.9747 17.6876 27.0081C17.6676 27.0137 17.6543 27.0747 17.6543 27.1121C17.6463 27.3017 17.6459 27.4917 17.6359 27.6814C17.6309 27.7764 17.6506 27.8837 17.5316 27.9401C17.5099 27.9501 17.5066 28.0111 17.5049 28.0487C17.4966 28.2684 17.4956 28.4887 17.4819 28.7081C17.4789 28.7581 17.4346 28.8051 17.4126 28.8551C17.3906 28.9051 17.3576 28.9587 17.3546 29.0121C17.3403 29.2564 17.3409 29.5014 17.3246 29.7454C17.3149 29.8881 17.2482 29.9304 17.1059 29.9121C17.0959 29.9121 17.0829 29.9137 17.0766 29.9084C16.9676 29.8164 16.8606 29.7224 16.7513 29.6311C16.6666 29.5601 16.5749 29.4977 16.4949 29.4207C16.4149 29.3437 16.3539 29.2591 16.2779 29.1834C16.2429 29.1501 16.1926 29.1297 16.1632 29.0924L16.0066 28.9414H16.0019L15.7839 28.7081L15.6303 28.5667L15.6519 28.5384L15.5649 28.5221L15.3279 28.2554L15.3226 28.2597L15.1666 28.1097H15.1596C15.122 28.0595 15.0814 28.0116 15.0379 27.9664C14.9639 27.8997 14.8843 27.8364 14.8046 27.7731C14.7866 27.7584 14.7546 27.7531 14.7463 27.7354C14.6889 27.6117 14.5739 27.5494 14.4773 27.4657C14.4003 27.3991 14.3439 27.3097 14.2743 27.2324C14.2146 27.1657 14.1599 27.0887 14.0882 27.0374C13.9756 26.9564 13.8769 26.8727 13.8069 26.7477C13.7646 26.6724 13.6769 26.6227 13.6119 26.5594C13.5786 26.5261 13.5529 26.4847 13.5172 26.4544C13.4776 26.4278 13.4409 26.3972 13.4076 26.3631L13.2743 26.2084C13.1983 26.1241 13.2632 25.9634 13.0936 25.9104C13.0746 25.9044 13.0783 25.8271 13.0713 25.7827C13.0593 25.7124 13.0642 25.6457 12.9759 25.5994C12.9326 25.5764 12.9333 25.4661 12.9166 25.3967C12.8956 25.3071 12.9339 25.2004 12.8063 25.1444C12.7709 25.1291 12.7793 25.0164 12.7659 24.9484C12.7473 24.8551 12.7956 24.7387 12.6559 24.6854C12.6252 24.6737 12.6226 24.5774 12.6156 24.5187C12.6049 24.4247 12.6032 24.3297 12.5956 24.2351C12.5932 24.2061 12.5902 24.1571 12.5756 24.1521C12.4089 24.0934 12.4726 23.9521 12.4579 23.8384C12.4466 23.7487 12.4516 23.6717 12.3636 23.5921C12.3039 23.5394 12.3239 23.3967 12.3079 23.2944C12.2919 23.1921 12.3559 23.0487 12.1906 22.9944C12.1736 22.9891 12.1682 22.9317 12.1662 22.8981C12.1592 22.7684 12.1602 22.6384 12.1499 22.5091C12.1426 22.4177 12.1832 22.3014 12.0382 22.2671C12.0229 22.2634 12.0143 22.2067 12.0126 22.1744C12.0056 22.0594 12.0046 21.9444 11.9986 21.8297C11.9946 21.7527 12.0096 21.6677 11.9019 21.6351C11.8809 21.6287 11.8686 21.5684 11.8659 21.5311C11.8576 21.3917 11.8589 21.2514 11.8489 21.1121C11.8426 21.0251 11.8776 20.9144 11.7406 20.8824C11.7252 20.8791 11.7166 20.8221 11.7146 20.7897C11.7062 20.6501 11.7049 20.5097 11.6949 20.3704C11.6883 20.2801 11.7079 20.1767 11.5916 20.1271C11.5719 20.1187 11.5653 20.0667 11.5629 20.0341C11.5543 19.9007 11.5539 19.7644 11.5419 19.6301C11.5326 19.5274 11.5683 19.4057 11.4346 19.3441C11.4163 19.3357 11.4152 19.2804 11.4132 19.2467C11.4046 19.0871 11.4039 18.9267 11.3892 18.7677C11.3786 18.6551 11.3742 18.5517 11.2862 18.4431C11.2196 18.3591 11.2612 18.1857 11.2549 18.0521C11.3042 18.0557 11.3572 18.0491 11.4016 18.0661C11.4509 18.0851 11.4879 18.1371 11.5376 18.1544C11.6529 18.1951 11.8116 18.1257 11.8759 18.2994C11.8832 18.3194 11.9592 18.3154 12.0039 18.3194C12.0886 18.3271 12.1886 18.3127 12.1576 18.4527L12.4269 18.4804L12.4119 18.5184C12.4836 18.5517 12.5522 18.5997 12.6279 18.6184C12.7036 18.6371 12.7806 18.6134 12.7973 18.7201C12.7996 18.7354 12.8346 18.7534 12.8566 18.7561C12.9633 18.7744 13.0882 18.7537 13.1279 18.8987C13.3259 18.8541 13.4279 19.0527 13.6019 19.0907C13.7226 19.1167 13.8266 19.2474 13.9773 19.2427C14.0033 19.4187 14.1556 19.3557 14.2559 19.3911L14.2416 19.4244C14.3116 19.4648 14.3841 19.5009 14.4586 19.5324C14.5166 19.5537 14.5919 19.5364 14.5969 19.6324C14.5969 19.6477 14.6496 19.6657 14.6799 19.6737C14.7629 19.7011 14.8413 19.6967 14.9076 19.7987C14.9703 19.8951 15.1232 19.9321 15.2359 19.9964C15.2919 20.0252 15.3429 20.0628 15.3869 20.1077C15.4816 20.1561 15.6132 20.1274 15.6622 20.2744C15.6709 20.3004 15.7489 20.3034 15.8023 20.3191C15.8083 20.3524 15.8146 20.3914 15.8223 20.4364L15.9589 20.4584C15.9646 20.6584 16.1399 20.5711 16.2186 20.6407L16.3749 20.7897V20.7861L16.5259 20.9394L16.5316 20.9344L16.7039 21.1037C16.7514 21.1354 16.7961 21.1712 16.8373 21.2107C16.9079 21.2891 16.9686 21.3774 17.0356 21.4584C17.0933 21.5376 17.1574 21.6119 17.2273 21.6807C17.3063 21.7504 17.3912 21.9914 17.3406 22.0757C17.3279 22.0895 17.3124 22.1005 17.2952 22.1079C17.2779 22.1153 17.2593 22.119 17.2406 22.1187C16.7209 22.1187 16.2013 22.1217 15.6816 22.1134C15.6216 22.1134 15.5649 22.0467 15.5026 22.0211C15.4395 21.9991 15.3751 21.9815 15.3096 21.9684C15.2156 21.9454 15.0913 21.9917 15.0489 21.8497C15.0446 21.8354 15.0072 21.8274 14.9839 21.8231C14.8856 21.8061 14.8082 21.7937 14.7279 21.6944C14.6372 21.5824 14.4613 21.5381 14.3213 21.4611L14.1679 21.3194C14.1389 21.2464 14.1092 21.1734 14.0402 21.1924L13.8569 21.0194L13.8589 21.0104C13.8129 20.9751 13.7646 20.9437 13.7213 20.9034C13.7017 20.8794 13.6837 20.8543 13.6672 20.8281C13.6455 20.8021 13.6198 20.7796 13.5912 20.7614C13.5836 20.7571 13.5406 20.7864 13.5419 20.7981C13.546 20.8348 13.5573 20.8704 13.5753 20.9027C13.6056 20.9614 13.6612 21.0134 13.6716 21.0741C13.6866 21.1614 13.6886 21.2384 13.8112 21.2074C13.8412 21.3317 13.8026 21.4771 13.9676 21.5201C13.9856 21.5247 13.9849 21.6017 13.9942 21.6534L14.1223 21.6924C14.1029 21.9187 14.2763 22.0221 14.4223 22.1981C14.4139 22.3691 14.5716 22.4837 14.7073 22.6131C14.7569 22.7111 14.7276 22.8287 14.8716 22.9101C14.9716 22.9661 14.9982 23.1434 15.0612 23.2667C15.0796 23.2917 15.1012 23.3142 15.1256 23.3334C15.1502 23.3591 15.1756 23.3837 15.1989 23.4104C15.2306 23.4467 15.2599 23.4847 15.2909 23.5214C15.3003 23.5324 15.3226 23.5417 15.3216 23.5501C15.3052 23.7147 15.4549 23.7937 15.5132 23.9221C15.5592 24.0274 15.6446 24.1154 15.6949 24.2197L15.8432 24.3724H15.8463C15.8923 24.4211 15.9336 24.5057 15.9849 24.5114C16.1182 24.5284 16.2706 24.5421 16.3899 24.4944C16.4403 24.4744 16.4929 24.4161 16.5669 24.4141C16.6218 24.4179 16.6769 24.4147 16.7309 24.4047C16.7936 24.3815 16.8541 24.3529 16.9119 24.3194C16.9066 24.3041 16.9013 24.2887 16.8956 24.2734C16.9639 24.2674 17.0329 24.2644 17.1006 24.2541C17.1316 24.2494 17.1853 24.2317 17.1863 24.2171C17.1936 24.1037 17.2832 24.1277 17.3492 24.1061C17.4136 24.081 17.4764 24.0522 17.5373 24.0197L17.5216 23.9734L17.7806 23.9421L17.8139 23.8247C17.9289 23.7861 18.0472 23.8224 18.1286 23.6731C18.1809 23.5771 18.3819 23.5731 18.4762 23.4857C18.5846 23.3857 18.7246 23.3631 18.8309 23.2857C18.9626 23.1887 19.0526 23.0351 19.2393 23.0191C19.2633 23.0171 19.2866 22.9911 19.3059 22.9724C19.3489 22.9321 19.3896 22.8894 19.4313 22.8477L19.4646 22.8714C19.4726 22.8291 19.4803 22.7871 19.4879 22.7471C19.6603 22.7514 19.6943 22.4704 19.8913 22.5877C19.9409 22.4334 19.9409 22.4334 20.0659 22.4321C20.0796 22.4744 20.0939 22.5194 20.1089 22.5654C20.2173 22.5924 20.3582 22.5521 20.3929 22.7191C20.3962 22.7364 20.4736 22.7387 20.5226 22.7491C20.5313 22.7854 20.5406 22.8231 20.5499 22.8607L20.5719 22.8407C20.6412 22.9007 20.7033 22.9741 20.7819 23.0174C20.8606 23.0607 20.9449 23.0724 21.0273 23.1507C21.1036 23.2247 21.1983 23.3841 21.3709 23.3571C21.4043 23.3524 21.4459 23.4201 21.5166 23.4841C21.6676 23.4977 21.8166 23.6027 21.9346 23.7607C21.9512 23.7827 21.9976 23.7824 22.0296 23.7941C22.1056 23.8204 22.2186 23.7884 22.2296 23.9234C22.2296 23.9354 22.2893 23.9444 22.3216 23.9524C22.4009 23.9721 22.5099 23.9367 22.5269 24.0707C22.5286 24.0847 22.5746 24.0984 22.6019 24.1041C22.6949 24.1197 22.7886 24.1021 22.8449 24.2281C22.8659 24.2754 23.0159 24.2654 23.1199 24.2834C23.1292 24.3141 23.1419 24.3547 23.1563 24.4011C23.2703 24.4071 23.3803 24.4067 23.4896 24.4214C23.5385 24.4292 23.5832 24.4535 23.6166 24.4901C23.6999 24.5867 23.9673 24.5727 24.0416 24.4707C24.0706 24.4314 24.1343 24.4171 24.1766 24.3944L24.3146 24.2207C24.3756 24.1347 24.3349 23.9904 24.4956 23.9481C24.5166 23.9427 24.5189 23.8677 24.5289 23.8251L24.5689 23.8417C24.6023 23.7797 24.6323 23.7161 24.6689 23.6554C24.6979 23.6064 24.7356 23.5624 24.7646 23.5137C24.7936 23.4651 24.8173 23.4164 24.8543 23.3471L24.9506 23.3184C24.9839 23.2081 24.9326 23.0617 25.1039 23.0287C25.1203 23.0254 25.1222 22.9481 25.1326 22.8954L25.2549 22.8621C25.2653 22.7761 25.2753 22.6931 25.2863 22.5991C25.3916 22.6011 25.4619 22.5624 25.4196 22.4374C25.6363 22.4247 25.5399 22.2487 25.6229 22.1707C25.6563 22.1197 25.6896 22.0671 25.7276 22.0184C25.7492 21.9944 25.7726 21.9721 25.7976 21.9517C25.8224 21.932 25.8441 21.9086 25.8619 21.8824C25.9233 21.7667 25.9533 21.6001 26.0519 21.5334C26.1763 21.4497 26.1733 21.3447 26.2299 21.2534C26.2663 21.2021 26.3046 21.1534 26.3383 21.0984C26.3873 21.0272 26.4303 20.9519 26.4666 20.8734C26.4769 20.8474 26.4383 20.8014 26.4223 20.7647C26.3969 20.7924 26.3723 20.8211 26.3463 20.8481C26.3261 20.8713 26.3038 20.8927 26.2796 20.9117C26.2573 20.9277 26.2176 20.9297 26.2066 20.9497C26.1398 21.0654 26.0415 21.1599 25.9233 21.2221C25.8899 21.2417 25.8779 21.3021 25.8413 21.3254L25.6776 21.4727L25.6733 21.4614C25.5903 21.5201 25.5146 21.6037 25.4223 21.6311C25.2796 21.6737 25.2156 21.8594 25.0396 21.8277C25.0216 21.8244 24.9876 21.8277 24.9836 21.8384C24.9136 22.0087 24.7526 21.9491 24.6289 21.9841C24.5833 21.9971 24.5443 22.0324 24.5016 22.0567C24.4683 22.0754 24.4369 22.1074 24.4039 22.1081C23.8499 22.1157 23.2956 22.1197 22.7413 22.1231C22.7196 22.1231 22.6783 22.1031 22.6793 22.0957C22.6929 21.9661 22.6936 21.8291 22.7403 21.7114C22.7559 21.6721 22.8403 21.6447 22.8506 21.5644C22.8536 21.5377 22.9279 21.5194 22.9506 21.4804C22.9889 21.4407 23.0286 21.4024 23.0653 21.3614C23.1019 21.3204 23.1319 21.2807 23.1413 21.2691L23.3219 21.0991C23.3839 21.0591 23.4789 21.0537 23.4343 20.9194L23.5839 20.9004L23.6003 20.7961L24.1669 20.4294L24.1576 20.4161C24.2129 20.3777 24.2889 20.3514 24.3196 20.2987C24.3939 20.1707 24.5809 20.1897 24.6219 20.1207C24.6959 19.9951 24.8349 20.0321 24.8849 19.9617C24.9543 19.8644 25.1086 19.8777 25.1339 19.7404C25.1373 19.7234 25.1926 19.7174 25.2223 19.7034C25.2979 19.6681 25.4222 19.7161 25.4366 19.5701C25.4366 19.5581 25.4979 19.5524 25.5299 19.5414C25.6059 19.5157 25.7193 19.5514 25.7299 19.4151C25.7299 19.4021 25.7876 19.3914 25.8196 19.3817C25.9003 19.3617 26.0063 19.3894 26.0259 19.2591C26.0279 19.2441 26.0833 19.2324 26.1153 19.2257C26.2016 19.2127 26.2986 19.2257 26.3289 19.1071C26.3333 19.0907 26.3779 19.0787 26.4049 19.0757C26.4983 19.0654 26.5976 19.0727 26.6313 18.9501C26.6353 18.9347 26.6816 18.9261 26.7093 18.9231C26.8019 18.9137 26.8996 18.9261 26.9389 18.8024C26.9463 18.7794 27.0259 18.7791 27.0723 18.7691C27.1563 18.7514 27.2693 18.7744 27.2473 18.6381C27.3706 18.5917 27.5422 18.6867 27.5616 18.4884C27.6749 18.4371 27.8516 18.5397 27.8726 18.3351C27.9979 18.2987 28.1536 18.3594 28.2229 18.1917C28.2329 18.1674 28.3163 18.1751 28.3649 18.1647C28.4649 18.1441 28.5926 18.1914 28.6336 18.0381C28.6379 18.0221 28.7103 18.0244 28.7613 18.0167C28.7613 18.1557 28.7613 18.2747 28.7613 18.3934C28.7613 18.4081 28.7596 18.4311 28.7513 18.4357C28.5593 18.5384 28.6469 18.7227 28.6253 18.8734C28.6119 18.9667 28.6219 19.0631 28.6153 19.1577C28.6089 19.2441 28.6249 19.3401 28.5136 19.3861C28.4916 19.3951 28.4832 19.4527 28.4802 19.4914C28.4716 19.6247 28.4719 19.7614 28.4616 19.8957C28.4543 19.9957 28.4816 20.1094 28.3556 20.1677C28.3359 20.1767 28.3319 20.2297 28.3296 20.2631C28.3196 20.4027 28.3196 20.5431 28.3032 20.6817C28.2932 20.7681 28.3246 20.8771 28.2032 20.9234C28.1856 20.9301 28.1819 20.9861 28.1796 21.0201C28.1696 21.1644 28.1719 21.3104 28.1503 21.4534C28.1393 21.5281 28.0869 21.5961 28.0556 21.6677C28.0405 21.698 28.0303 21.7303 28.0253 21.7637C28.0153 21.8681 28.0153 21.9737 28.0023 22.0774C27.9919 22.1594 28.0223 22.2557 27.9069 22.3064C27.8736 22.3211 27.8672 22.4137 27.8616 22.4731C27.8509 22.5824 27.8536 22.6927 27.8439 22.8021C27.8359 22.8914 27.8616 22.9951 27.7439 23.0451C27.7219 23.0541 27.7173 23.1164 27.7139 23.1547C27.7053 23.2547 27.7036 23.3547 27.6959 23.4547C27.6923 23.4994 27.6959 23.5707 27.6716 23.5831C27.4933 23.6754 27.5766 23.8444 27.5416 23.9781C27.5276 24.0314 27.4846 24.0781 27.4606 24.1277C27.4344 24.1743 27.4159 24.2249 27.4059 24.2774C27.3939 24.3774 27.3949 24.4774 27.3906 24.5774C27.3876 24.6411 27.4003 24.7107 27.3026 24.7214C27.2843 24.7234 27.2619 24.7721 27.2579 24.8014C27.2476 24.8707 27.2436 24.9407 27.2459 25.0107C27.2503 25.1107 27.2259 25.1864 27.1302 25.1941C27.0356 25.3434 27.2029 25.5681 26.9552 25.6514C26.9499 25.7144 26.9459 25.7791 26.9386 25.8434C26.9352 25.8717 26.9286 25.9217 26.9166 25.9241C26.7326 25.9574 26.8199 26.1117 26.7556 26.1931C26.7159 26.2514 26.6843 26.3177 26.6349 26.3664C26.5636 26.4371 26.4773 26.4921 26.4016 26.5587C26.341 26.6139 26.2836 26.6724 26.2296 26.7341C26.1113 26.8674 26.0006 27.0067 25.8766 27.1341C25.8026 27.2094 25.7036 27.2601 25.6262 27.3341C25.5489 27.4081 25.4929 27.4884 25.4262 27.5654C25.4079 27.5858 25.388 27.6046 25.3666 27.6217C25.3369 27.6464 25.3039 27.6671 25.2756 27.6934C25.2344 27.7316 25.1955 27.7722 25.1593 27.8151L24.9903 27.9714L24.7856 28.1861L24.7796 28.1881L24.6279 28.3414C24.5516 28.3667 24.4796 28.3971 24.5072 28.5131L24.3739 28.5341L24.3933 28.5611C24.3422 28.5983 24.2932 28.6384 24.2466 28.6811C24.1753 28.7527 24.1106 28.8307 24.0419 28.9051C24.0189 28.9304 23.9916 28.9517 23.9673 28.9757C23.9429 28.9997 23.9132 29.0314 23.8866 29.0597C23.8656 29.0817 23.8449 29.1041 23.8239 29.1264C23.7939 29.1577 23.7633 29.1881 23.7339 29.2197C23.7186 29.2364 23.7099 29.2617 23.6919 29.2731C23.5861 29.3429 23.4934 29.4308 23.4179 29.5327C23.3469 29.6227 23.2316 29.6771 23.1373 29.7491C23.0879 29.7867 23.0466 29.8417 22.9916 29.8644C22.927 29.8915 22.8565 29.9015 22.7869 29.8934C22.7536 29.8884 22.7059 29.8247 22.7032 29.7847C22.6856 29.5404 22.6856 29.2951 22.6649 29.0514C22.6586 28.9764 22.6032 28.9064 22.5739 28.8327C22.5584 28.7974 22.5487 28.7598 22.5453 28.7214C22.5343 28.5267 22.5296 28.3317 22.5169 28.1374C22.5113 28.0481 22.5349 27.9464 22.4226 27.8907C22.4009 27.8797 22.3996 27.8181 22.3972 27.7794C22.3869 27.6097 22.3833 27.4397 22.3709 27.2704C22.3626 27.1571 22.3883 27.0407 22.2709 26.9461C22.2233 26.9074 22.2376 26.7864 22.2316 26.7024C22.2219 26.5727 22.2252 26.4421 22.2116 26.3134C22.2026 26.2287 22.2406 26.1134 22.1003 26.0871C22.0873 26.0847 22.0756 26.0471 22.0722 26.0244C22.0569 25.9244 22.0599 25.8421 21.9449 25.7611C21.8299 25.6801 21.7972 25.4997 21.7156 25.3384L21.6199 25.3127C21.6152 25.2691 21.6116 25.2294 21.6063 25.1794C21.4266 25.1657 21.4702 25.0157 21.4452 24.8977L21.3163 24.8581C21.3106 24.8164 21.3049 24.7734 21.2989 24.7304L21.2683 24.7507L21.1279 24.5894L21.1106 24.5917C21.0773 24.5371 21.0459 24.4804 21.0106 24.4281C20.9753 24.3757 20.9282 24.3207 20.8869 24.2671C20.8229 24.1841 20.7606 24.1004 20.6939 24.0181C20.6744 23.994 20.6482 23.9763 20.6186 23.9671C20.6036 23.9627 20.5639 23.9867 20.5636 24.0004C20.5636 24.0371 20.5659 24.1004 20.5839 24.1067C20.7056 24.1497 20.6792 24.2561 20.6989 24.3434C20.7186 24.4307 20.6893 24.5387 20.8196 24.5711C20.8369 24.5754 20.8369 24.6421 20.8486 24.6784C20.8719 24.7514 20.8386 24.8571 20.9649 24.8734C20.9803 24.8754 20.9929 24.9301 20.9983 24.9617C21.0169 25.0514 20.9769 25.1724 21.1262 25.1887C21.1326 25.1887 21.1443 25.2051 21.1426 25.2114C21.0886 25.4357 21.3546 25.5644 21.3139 25.7911C21.3036 25.8484 21.3679 25.9191 21.4139 25.9754C21.5229 26.1054 21.3433 26.3351 21.6113 26.4291C21.6113 26.5511 21.6073 26.6804 21.6113 26.8097C21.6146 26.8887 21.5939 26.9831 21.7113 27.0147C21.7319 27.0204 21.7446 27.0907 21.7446 27.1317C21.7533 27.3651 21.7493 27.6021 21.7676 27.8357C21.7739 27.9197 21.8326 27.9991 21.8649 28.0814C21.8807 28.1161 21.8907 28.1531 21.8946 28.1911C21.9033 28.4107 21.9056 28.6307 21.9156 28.8504C21.9206 28.9611 21.9006 29.0821 22.0242 29.1564C22.0462 29.1697 22.0439 29.2297 22.0452 29.2684C22.0532 29.5381 22.0563 29.8081 22.0676 30.0777C22.0723 30.1867 22.0456 30.3111 22.1739 30.3831C22.1956 30.3951 22.1946 30.4567 22.1949 30.4954C22.1994 31.3701 22.2028 32.2445 22.2052 33.1187C22.2052 33.1854 22.2053 33.2397 22.1269 33.2911C22.0686 33.3284 22.0626 33.4471 22.0202 33.5167C21.9229 33.6747 21.8259 33.8327 21.7202 34.0067L21.6333 34.0217L21.4093 34.4104L21.4202 34.4131L21.2623 34.5847C21.1409 34.6946 21.0407 34.8259 20.9669 34.9721C20.8933 35.1167 20.7629 35.2324 20.6459 35.3561C20.6096 35.4067 20.5793 35.4944 20.5363 35.5017C20.3319 35.5351 20.4509 35.8181 20.2489 35.8571C20.2019 35.8661 20.1732 35.9691 20.1156 36.0214L20.0066 36.1687L19.8966 36.0254L19.8946 36.0291L19.7279 35.8444C19.5683 35.8444 19.6559 35.6674 19.5886 35.5887L19.4159 35.4101C19.3881 35.3653 19.357 35.3226 19.3229 35.2824C19.2929 35.2491 19.2483 35.2324 19.2229 35.1994C19.1749 35.1481 19.1263 35.0971 19.0796 35.0447C19.0625 35.0279 19.0494 35.0076 19.0412 34.9851C18.9969 34.8184 18.8886 34.7071 18.7503 34.6047C18.6656 34.5421 18.6216 34.4227 18.5646 34.3257C18.5313 34.2677 18.5559 34.1667 18.4419 34.1681C18.4306 34.1681 18.4206 34.1284 18.4066 34.1094C18.3756 34.0661 18.3426 34.0241 18.3266 34.0031C18.2666 33.9502 18.21 33.8935 18.1572 33.8334C18.1274 33.7939 18.1084 33.7472 18.1023 33.6981C18.0936 33.6101 18.0863 33.5314 17.9673 33.5647C17.9303 33.4421 17.9859 33.2897 17.8166 33.2451C17.8039 33.2417 17.8029 33.1807 17.8029 33.1451C17.8029 32.2604 17.8052 31.3757 17.8116 30.4911C17.8116 30.4444 17.8619 30.3991 17.8853 30.3514C17.9056 30.3104 17.9346 30.2677 17.9363 30.2251C17.9466 29.9304 17.9473 29.6351 17.9589 29.3407C17.9623 29.2587 17.9333 29.1567 18.0539 29.1124C18.0773 29.1037 18.0873 29.0341 18.0873 28.9921C18.0963 28.7374 18.0963 28.4824 18.1113 28.2281C18.1146 28.1711 18.1676 28.1181 18.1939 28.0614C18.215 28.0244 18.2292 27.9838 18.2356 27.9417C18.2459 27.7084 18.2472 27.4721 18.2599 27.2377C18.2652 27.1447 18.2376 27.0341 18.3599 26.9777C18.3826 26.9674 18.3879 26.9077 18.3916 26.8697C18.4039 26.7507 18.4113 26.6311 18.4216 26.5117C18.4239 26.4821 18.4216 26.4321 18.4363 26.4264C18.5926 26.3641 18.5363 26.2231 18.5609 26.1111C18.5759 26.0397 18.5566 25.9564 18.6673 25.9207C18.7006 25.9097 18.7006 25.7874 18.7159 25.7154C18.7342 25.6291 18.7003 25.5204 18.8289 25.4821C18.8499 25.4757 18.8559 25.4154 18.8656 25.3774C18.8879 25.2947 18.8406 25.1774 18.9802 25.1541C18.9842 25.1541 18.9909 25.1467 18.9903 25.1437C18.9526 24.9437 19.1786 24.8387 19.1756 24.6494C19.1756 24.6217 19.1796 24.5774 19.1966 24.5684C19.4033 24.4571 19.3116 24.2684 19.3193 24.1081L19.4679 24.0564C19.4476 24.0257 19.4303 23.9721 19.4059 23.9684C19.2976 23.9524 19.3362 24.0434 19.3242 24.0974C19.324 24.1019 19.324 24.1065 19.3242 24.1111V24.1111Z" fill="#9E9E9E"/>
<path d="M7.7495 10.8568L7.73016 10.7235L7.70683 10.7428C7.65583 10.6945 7.60683 10.6445 7.55316 10.5985C7.53022 10.5818 7.50524 10.5681 7.47883 10.5578C7.40216 10.5195 7.2975 10.5398 7.26583 10.4108C7.2535 10.3605 7.1325 10.3741 7.09416 10.2691C7.0685 10.1951 6.94916 10.1541 6.87283 10.0965C6.85124 10.0789 6.83198 10.0586 6.8155 10.0361C6.78016 9.99112 6.7465 9.94445 6.7125 9.89845L6.67717 9.91945C6.67183 9.87612 6.6665 9.83245 6.6605 9.78412L6.53483 9.75912C6.5255 9.67079 6.5165 9.58279 6.5065 9.48945L6.39316 9.46212C6.3265 9.36212 6.45317 9.16912 6.23183 9.14679C6.2255 9.07179 6.22116 9.00279 6.21316 8.93412C6.20883 8.89479 6.21317 8.84112 6.1885 8.81979C6.07383 8.71479 6.11483 8.51512 6.04383 8.45312C5.8685 8.29746 5.94816 8.10612 5.8915 7.94012C5.87416 7.88912 5.83417 7.84612 5.8105 7.79646C5.79265 7.75103 5.7774 7.70462 5.76483 7.65746C5.8945 7.66646 6.0145 7.61012 6.06483 7.76646C6.06983 7.78312 6.1255 7.78946 6.1585 7.79146C6.26816 7.79879 6.37783 7.80212 6.4875 7.80712L6.47316 7.85112C6.54917 7.88747 6.62706 7.91974 6.7065 7.94779C6.8065 7.97846 6.95583 7.89446 6.99483 8.07479C6.99783 8.08879 7.0575 8.09012 7.09083 8.09746C7.17616 8.11579 7.28816 8.07646 7.32083 8.21112C7.32483 8.22812 7.38083 8.23446 7.4135 8.24246C7.4945 8.26246 7.59983 8.23412 7.62516 8.36146C7.62816 8.37812 7.68583 8.38312 7.71783 8.39479C7.79316 8.42246 7.89216 8.38579 7.9275 8.51779C7.93916 8.56145 8.08616 8.56912 8.15583 8.61779C8.20383 8.65112 8.2845 8.67612 8.2945 8.71779C8.3395 8.91112 8.60516 8.80779 8.6515 8.99612C8.6585 9.02412 8.73183 9.03612 8.75616 9.08045C8.80183 9.11579 8.8485 9.14979 8.8925 9.18712C8.91216 9.20379 8.9225 9.23345 8.9435 9.24712C9.0855 9.33945 9.06783 9.54945 9.22683 9.63045C9.24316 9.63845 9.24183 9.67679 9.2575 9.69145C9.36383 9.79145 9.37816 9.96679 9.45916 10.0461C9.5475 10.1325 9.5575 10.2091 9.57683 10.3031C9.58083 10.3225 9.57683 10.3545 9.58716 10.3601C9.77516 10.4601 9.6905 10.6478 9.73016 10.7955C9.74916 10.8661 9.79683 10.9288 9.82416 10.9971C9.84515 11.0407 9.85781 11.0879 9.8615 11.1361C9.8615 11.4458 9.85816 11.7555 9.85683 12.0651C9.85516 12.3651 9.85383 12.6651 9.85683 12.9651C9.85683 13.0688 9.8685 13.1728 9.90783 13.2521C9.9565 13.2991 9.99816 13.3585 10.0555 13.3895C10.1128 13.4205 10.1848 13.4258 10.2512 13.4388C10.3482 13.4578 10.4678 13.3998 10.5235 13.5525C10.5362 13.5875 10.6695 13.5788 10.7472 13.5905C10.8335 13.6035 10.9392 13.5651 10.9772 13.6995C10.9845 13.7255 11.0735 13.7305 11.1255 13.7415C11.2365 13.7651 11.3748 13.6961 11.4458 13.8611C11.4608 13.8945 11.5852 13.8805 11.6582 13.8945C11.7412 13.9101 11.8528 13.8611 11.8868 14.0028C11.8928 14.0288 11.9928 14.0345 12.0502 14.0455C12.1585 14.0661 12.2888 14.0148 12.3558 14.1648C12.3698 14.1958 12.4662 14.1905 12.5248 14.2015C12.6295 14.2215 12.7415 14.1865 12.8278 14.3091C12.8658 14.3631 13.0062 14.3395 13.0968 14.3635C13.1515 14.3778 13.1968 14.4195 13.2515 14.4418C13.3128 14.4699 13.377 14.4914 13.4428 14.5061C13.5475 14.5258 13.6545 14.4935 13.7402 14.6158C13.7798 14.6728 13.9258 14.6565 14.0238 14.6721C14.0528 14.6765 14.0825 14.6768 14.1208 14.6795C14.1328 14.8898 14.3155 14.7818 14.4072 14.8481C14.5405 14.9758 14.6472 15.1481 14.8765 15.1274C14.8885 15.1731 14.8982 15.2104 14.8968 15.2061L15.1048 15.3751L15.1088 15.3688C15.1898 15.4284 15.2702 15.4891 15.3522 15.5474C15.4525 15.6136 15.5462 15.6891 15.6322 15.7731C15.6825 15.8084 15.7468 15.8338 15.7792 15.8811C15.8318 15.9588 15.9382 16.0081 15.9618 16.0664C16.0008 16.1618 16.0702 16.1584 16.1285 16.1864C16.2491 16.2442 16.35 16.3362 16.4188 16.4508C16.4308 16.4694 16.4522 16.4958 16.4705 16.4948C16.5498 16.4911 16.5745 16.5318 16.5788 16.6024C16.5788 16.6164 16.6035 16.6408 16.6165 16.6404C16.6972 16.6404 16.7235 16.6798 16.7395 16.7551C16.7455 16.7834 16.8165 16.7981 16.8688 16.8244C16.8742 16.8504 16.8822 16.8888 16.8918 16.9361L16.9778 16.9524C17.0492 17.0288 17.0982 17.0814 17.1475 17.1338L17.1522 17.1304L17.3028 17.2858L17.3068 17.2811L17.4548 17.4391C17.4918 17.5058 17.5078 17.5914 17.6328 17.5544C17.6418 17.6101 17.6482 17.6484 17.6555 17.6951L17.7872 17.7228L17.8085 17.8521L17.8328 17.8354L18.0662 18.0538L18.0615 18.0691C18.1095 18.1084 18.1615 18.1444 18.2048 18.1874C18.2689 18.2431 18.3264 18.3057 18.3765 18.3741C18.4482 18.4858 18.4945 18.6144 18.5708 18.7221C18.6295 18.8044 18.7188 18.8651 18.7925 18.9374C18.8152 18.9587 18.8338 18.984 18.8472 19.0121C18.8858 19.0964 18.8342 19.2308 18.9868 19.2538C18.9988 19.2558 19.0008 19.3171 19.0098 19.3501C19.0318 19.4288 19.0022 19.5271 19.1272 19.5648C19.1605 19.5748 19.1605 19.6981 19.1745 19.7701C19.1902 19.8534 19.1632 19.9534 19.2838 19.9908C19.3065 19.9981 19.3172 20.0661 19.3212 20.1071C19.3302 20.1864 19.3298 20.2668 19.3358 20.3464C19.3378 20.3754 19.3395 20.4254 19.3528 20.4298C19.5258 20.4848 19.4618 20.6298 19.4712 20.7414C19.4828 20.8808 19.4792 21.0211 19.4862 21.1608C19.4905 21.2421 19.4732 21.3354 19.5862 21.3691C19.6032 21.3744 19.6168 21.4184 19.6172 21.4448C19.6198 21.6638 19.6172 21.8828 19.6172 22.1608L19.4505 22.0311C19.4012 21.9674 19.3708 21.8978 19.3172 21.8644C19.2385 21.8194 19.1572 21.7108 19.1215 21.7091C18.9548 21.7011 18.8958 21.5464 18.7675 21.4908C18.6772 21.4518 18.6312 21.3208 18.5465 21.2554C18.4219 21.1647 18.2886 21.0865 18.1485 21.0221L17.9972 20.8694L17.9638 20.8941C17.9555 20.8521 17.9468 20.8101 17.9408 20.7811L17.5442 20.5578L17.5165 20.5878L17.4888 20.4634L17.4658 20.4851L17.2965 20.3464C17.2152 20.2798 17.0985 20.3108 17.0225 20.1698C16.9705 20.0734 16.8028 20.0394 16.6892 19.9761C16.6582 19.9577 16.6285 19.9373 16.6002 19.9151C16.5645 19.8891 16.5308 19.8604 16.4948 19.8351C16.4722 19.8194 16.4282 19.8088 16.4258 19.7934C16.4188 19.6801 16.3202 19.7084 16.2592 19.6784C16.1986 19.6504 16.143 19.6126 16.0948 19.5664C15.9992 19.5081 15.8815 19.5454 15.7948 19.3998C15.7358 19.2998 15.5202 19.3051 15.4172 19.2148C15.3078 19.1188 15.2035 19.0641 15.0642 19.0628C14.9775 18.8454 14.7722 18.9628 14.6178 18.8991C14.6072 18.8681 14.5928 18.8274 14.5772 18.7828C14.5105 18.7778 14.4412 18.7828 14.3818 18.7651C14.2995 18.7378 14.2272 18.6818 14.1448 18.6548C14.0514 18.63 13.9566 18.6108 13.8608 18.5974C13.8525 18.4678 13.7432 18.4768 13.6395 18.4641C13.5428 18.4534 13.4208 18.4874 13.3805 18.3468C13.3785 18.3422 13.3756 18.3381 13.3718 18.3348C13.3681 18.3315 13.3636 18.3291 13.3588 18.3278C13.1815 18.2714 13.0022 18.2201 12.8255 18.1578C12.7528 18.1321 12.6892 18.0818 12.6208 18.0444C12.5961 18.0301 12.5697 18.0189 12.5422 18.0111C12.4498 17.9881 12.3442 18.0224 12.2855 17.8891C12.2652 17.8424 12.1218 17.8501 12.0242 17.8311C12.0035 17.6528 11.8458 17.7178 11.7272 17.6798C11.7128 17.4888 11.5428 17.5674 11.4355 17.5271L11.4588 17.4918L10.9968 17.1918L10.9668 17.2294L10.9302 17.1018L10.8525 17.0921L10.6598 16.9098L10.6565 16.9114L10.4445 16.6781L10.4368 16.6801L10.2922 16.5201L10.2782 16.5224C10.2448 16.4724 10.2132 16.4224 10.1782 16.3724C10.1631 16.3489 10.1449 16.3275 10.1242 16.3088C10.1062 16.2934 10.0685 16.2908 10.0622 16.2734C9.9955 16.1068 9.93216 15.9384 9.87683 15.7681C9.8505 15.6871 9.87316 15.5934 9.75683 15.5508C9.7255 15.5391 9.73383 15.4241 9.72016 15.3574C9.7005 15.2638 9.7515 15.1401 9.60683 15.0954C9.59083 15.0908 9.5865 15.0338 9.58383 15.0001C9.57416 14.8808 9.57483 14.7601 9.55616 14.6421C9.5475 14.5861 9.50283 14.5365 9.4785 14.4818C9.45557 14.4403 9.4398 14.3952 9.43183 14.3485C9.4185 14.1591 9.41583 13.9688 9.40183 13.7798C9.39583 13.7021 9.41716 13.6048 9.28916 13.5851C9.26183 13.5808 9.2455 13.5058 9.21983 13.4548C9.12816 13.4255 8.99183 13.4568 8.95583 13.3025C8.95116 13.2821 8.87683 13.2778 8.8225 13.2625C8.81483 13.2315 8.80483 13.1898 8.79283 13.1398L8.66783 13.1205C8.6745 13.1105 8.6815 13.1008 8.6885 13.0911L8.5285 12.9488V12.9335C8.47489 12.897 8.41924 12.8636 8.36183 12.8335C8.23629 12.772 8.12648 12.6826 8.04083 12.5721C7.97416 12.4928 7.8805 12.4388 7.80016 12.3721C7.77629 12.3523 7.7555 12.3291 7.7385 12.3031C7.72583 12.2835 7.72516 12.2398 7.71416 12.2365C7.6235 12.2215 7.6095 12.1138 7.56716 12.0915C7.44116 12.0248 7.4385 11.9248 7.42316 11.8148C7.42316 11.8051 7.41983 11.7888 7.41483 11.7871C7.2215 11.7295 7.30383 11.5521 7.2595 11.4298C7.24983 11.4025 7.2545 11.3591 7.2365 11.3465C7.0115 11.1881 7.16116 10.9541 7.1185 10.7598C7.10583 10.7011 7.3715 10.6598 7.3985 10.7288C7.47316 10.9228 7.6295 10.8288 7.75183 10.8541C7.7465 10.8778 7.7295 10.9101 7.73883 10.9231C7.75989 10.9547 7.79015 10.979 7.8255 10.9928C7.84116 10.9975 7.8705 10.9578 7.89383 10.9385C7.87254 10.9075 7.84758 10.8793 7.8195 10.8545C7.80583 10.8428 7.77383 10.8548 7.7495 10.8568Z" fill="#9E9E9E"/>
<path d="M32.2876 10.8586C32.3423 10.8546 32.3969 10.8486 32.4519 10.8476C32.5379 10.8476 32.6226 10.8476 32.5943 10.7253C32.8993 10.6763 32.8993 10.6763 32.8903 10.9603C32.8883 11.0303 32.8863 11.1 32.8826 11.17C32.8789 11.24 32.9023 11.313 32.7953 11.329C32.7749 11.332 32.7536 11.391 32.7489 11.4263C32.7356 11.5263 32.7309 11.6246 32.7219 11.7343L32.5969 11.7746C32.5883 11.8553 32.5796 11.9389 32.5746 11.9839L32.3946 12.1766H32.3853C32.3537 12.2301 32.3169 12.2803 32.2756 12.3266C32.1989 12.398 32.1116 12.4576 32.0313 12.525C31.9509 12.5923 31.8763 12.662 31.7979 12.73C31.7655 12.7618 31.7296 12.7898 31.6909 12.8136C31.6243 12.8496 31.5196 12.831 31.5089 12.953C31.5069 12.9723 31.4249 12.9863 31.3969 13.016L31.2403 13.166L31.2153 13.1446C31.2073 13.183 31.1996 13.221 31.1919 13.2593C31.0253 13.265 30.9919 13.54 30.8303 13.4593C30.7698 13.5064 30.7126 13.5576 30.6589 13.6123C30.6327 13.6457 30.6172 13.6862 30.6146 13.7286C30.6049 13.913 30.6033 14.098 30.5959 14.2826C30.5923 14.371 30.6006 14.464 30.4926 14.5113C30.4703 14.521 30.4626 14.578 30.4593 14.6163C30.4496 14.736 30.4533 14.857 30.4353 14.9746C30.4269 15.0276 30.3713 15.0716 30.3509 15.125C30.3287 15.1927 30.3117 15.262 30.2999 15.3323C30.2796 15.4296 30.3393 15.5543 30.1833 15.604C30.1539 15.6133 30.1563 15.7216 30.1436 15.784C30.1249 15.8756 30.1529 15.99 30.0209 16.027C30.0059 16.031 29.9943 16.0673 29.9909 16.0903C29.9769 16.1876 29.9766 16.2853 29.8609 16.3356C29.8316 16.3483 29.8296 16.4236 29.7909 16.4523C29.7572 16.5008 29.7205 16.5472 29.6813 16.5913C29.5982 16.6788 29.5032 16.7543 29.3993 16.8156C29.3913 16.854 29.3829 16.8923 29.3736 16.937L29.2403 16.9603C29.2329 17.0006 29.2259 17.0386 29.2176 17.083C29.1463 17.1043 29.0239 17.0766 29.0796 17.2343C28.8389 17.221 28.7129 17.3676 28.5773 17.5296C28.3329 17.571 28.3329 17.571 28.2899 17.684C28.1829 17.721 28.0313 17.6636 27.9843 17.8343C27.9793 17.8523 27.9009 17.849 27.8576 17.8583C27.7909 17.8726 27.6979 17.8506 27.6879 17.962C27.6866 17.9667 27.6842 17.971 27.681 17.9747C27.6778 17.9784 27.6738 17.9813 27.6693 17.9833C27.4893 18.0446 27.3089 18.1059 27.1283 18.1656C27.0553 18.1896 26.9483 18.1546 26.9353 18.28C26.9353 18.284 26.9279 18.2906 26.9253 18.29C26.7183 18.2513 26.5999 18.463 26.4073 18.471C26.3166 18.475 26.1973 18.4443 26.1719 18.5896C26.1687 18.5959 26.164 18.6013 26.1582 18.6053C26.1524 18.6093 26.1456 18.6118 26.1386 18.6126C25.8843 18.5696 25.7186 18.8776 25.4423 18.7613C25.4336 18.9416 25.3143 18.921 25.2089 18.928C25.1036 18.935 24.9783 18.9096 24.9639 19.0643C24.8483 19.102 24.6929 19.031 24.6513 19.2106C24.6483 19.2233 24.5846 19.215 24.5543 19.2293C24.4916 19.26 24.4333 19.2996 24.3726 19.335C24.3449 19.351 24.3169 19.3683 24.2876 19.381C24.2583 19.3936 24.2026 19.4036 24.2009 19.4186C24.1883 19.5456 24.0813 19.511 24.0106 19.54C23.9557 19.5625 23.9073 19.5982 23.8696 19.644C23.7649 19.698 23.6569 19.7046 23.5556 19.8163C23.4796 19.9 23.3649 20.0473 23.1823 20.0276C23.1559 20.0246 23.0256 20.1256 22.9896 20.1853C22.9383 20.2703 22.8726 20.277 22.8046 20.3093C22.7599 20.3303 22.7266 20.3743 22.6846 20.4026C22.6403 20.4258 22.6004 20.4565 22.5666 20.4933L22.0706 20.8046C22.0706 20.8096 22.0616 20.848 22.0593 20.8586L21.8709 20.9993L21.9013 21.043C21.6796 21.0403 21.5649 21.191 21.4206 21.3193C21.3786 21.371 21.3443 21.4316 21.2936 21.4723C21.2053 21.5398 21.1133 21.6022 21.0179 21.6593C20.9573 21.698 20.8846 21.6926 20.8406 21.7886C20.8026 21.8723 20.6766 21.9146 20.5933 21.9806C20.5669 22.0016 20.5566 22.0423 20.5329 22.0686C20.5093 22.095 20.4826 22.1223 20.4603 22.12C20.4456 22.1154 20.4323 22.1071 20.4217 22.0959C20.4111 22.0846 20.4036 22.0709 20.3999 22.056C20.3999 21.846 20.3406 21.5993 20.4303 21.4353C20.5793 21.1616 20.5046 20.8846 20.5593 20.6153C20.5713 20.5566 20.6219 20.507 20.6433 20.4486C20.6683 20.3808 20.6866 20.3107 20.6979 20.2393C20.7149 20.1326 20.6793 20.0206 20.8043 19.9373C20.8529 19.904 20.8396 19.7796 20.8543 19.6966C20.8619 19.6526 20.8593 19.5746 20.8766 19.57C21.0503 19.5236 20.9906 19.3756 21.0216 19.254L21.1446 19.2156C21.1539 19.1356 21.1639 19.0523 21.1749 18.959C21.2506 18.934 21.3643 18.93 21.3033 18.7906L21.4456 18.763C21.4123 18.6056 21.6623 18.598 21.6243 18.4246C21.6193 18.4023 21.6729 18.3666 21.7006 18.3383C21.7223 18.316 21.7463 18.2959 21.7673 18.2739C21.7973 18.2436 21.8249 18.211 21.8559 18.182C21.8726 18.166 21.9029 18.1596 21.9116 18.1416C21.9728 18.0243 22.0651 17.9259 22.1783 17.8573C22.2616 17.8013 22.3116 17.696 22.3783 17.617C22.4416 17.544 22.5096 17.475 22.5783 17.4076C22.6203 17.3673 22.6683 17.3336 22.7096 17.2883L22.8666 17.1406L22.8623 17.136L23.0183 16.9883C23.0869 16.955 23.1743 16.944 23.1323 16.811L23.2759 16.7906L23.2533 16.7543C23.299 16.7212 23.3425 16.685 23.3833 16.646C23.4166 16.611 23.4376 16.565 23.4703 16.5363L23.6126 16.4113C23.6819 16.3423 23.7276 16.294 23.7763 16.2496C23.7978 16.231 23.8224 16.2164 23.8489 16.2063C23.9993 16.147 24.1076 16.0443 24.2063 15.9156C24.2699 15.8323 24.4316 15.8033 24.4613 15.7193C24.5223 15.545 24.7456 15.6213 24.7993 15.457C24.8096 15.4236 24.8899 15.4146 24.9489 15.3903C24.9539 15.3636 24.9613 15.3253 24.9699 15.281L25.1093 15.2606C25.1163 15.22 25.1229 15.1783 25.1303 15.1356L25.3303 15.11L25.5303 14.935L25.5559 14.959C25.5686 14.918 25.5816 14.8766 25.5946 14.835L25.8593 14.8016C25.8689 14.688 25.9476 14.6683 26.0453 14.664C26.1573 14.6603 26.2719 14.6683 26.3419 14.5396C26.3589 14.5083 26.4529 14.5203 26.5109 14.5096C26.6156 14.49 26.7443 14.533 26.8019 14.386C26.8126 14.3596 26.9019 14.3656 26.9563 14.356C27.0656 14.336 27.1939 14.3786 27.2646 14.234C27.2803 14.2006 27.3853 14.2136 27.4486 14.203C27.5453 14.1866 27.6556 14.2173 27.7153 14.0886C27.7313 14.0553 27.8329 14.0586 27.8959 14.0486C27.9979 14.0326 28.1159 14.0686 28.1739 13.9293C28.1863 13.8996 28.2826 13.905 28.3406 13.8943C28.4476 13.8743 28.5829 13.937 28.6406 13.7726C28.6506 13.7446 28.7606 13.7543 28.8236 13.7433C28.9206 13.726 29.0466 13.7806 29.0903 13.6223C29.0973 13.597 29.2076 13.6 29.2703 13.589C29.3703 13.5736 29.4883 13.6223 29.5436 13.472C29.5556 13.4386 29.6799 13.4486 29.7523 13.4386C29.8399 13.426 29.9446 13.4596 29.9833 13.3266C29.9913 13.298 30.0759 13.2913 30.1619 13.2623C30.1619 13.0936 30.1619 12.906 30.1619 12.7183C30.1589 12.2033 30.1546 11.6886 30.1533 11.174C30.1533 11.0933 30.1533 11.0216 30.2346 10.9516C30.2906 10.9043 30.2796 10.7769 30.2966 10.6849C30.3173 10.5726 30.2609 10.4423 30.4176 10.364C30.4639 10.341 30.4509 10.1973 30.4663 10.1L30.5849 10.0589C30.5953 9.97528 30.6056 9.89228 30.6183 9.80095L30.7409 9.77562C30.7469 9.73528 30.7536 9.69228 30.7623 9.63762C30.9556 9.64262 30.8659 9.45728 30.9343 9.37662C31.0026 9.29595 31.1093 9.24662 31.1879 9.17195C31.2666 9.09728 31.3213 9.01428 31.3879 8.93595C31.4029 8.9177 31.4211 8.90234 31.4416 8.89062C31.5583 8.82662 31.7173 8.79228 31.7826 8.69462C31.8603 8.57828 31.9513 8.56895 32.0569 8.54462C32.0799 8.53928 32.0963 8.50762 32.1163 8.48928C32.1453 8.46295 32.1709 8.42495 32.2049 8.41428C32.2933 8.38662 32.4116 8.41828 32.4383 8.27862C32.4406 8.26662 32.4909 8.26362 32.5189 8.25662C32.6023 8.23628 32.7153 8.27395 32.7406 8.13528C32.7436 8.11895 32.8193 8.11628 32.8613 8.10662C32.9363 8.08928 33.0279 8.12195 33.0596 7.99662C33.0673 7.96562 33.2003 7.96128 33.2766 7.95262C33.3766 7.94095 33.4963 7.96595 33.5099 7.79862C33.6059 7.79862 33.6956 7.80162 33.7846 7.79862C33.8643 7.79495 33.9463 7.81428 33.9889 7.69862C34.0013 7.66528 34.1399 7.67595 34.2206 7.66528C34.2229 7.70628 34.2359 7.77962 34.2259 7.78295C34.0779 7.83095 34.1259 7.95795 34.1069 8.05828C34.0839 8.18695 34.1403 8.34362 33.9736 8.42295C33.9556 8.43128 33.9609 8.48762 33.9546 8.52295C33.9383 8.61028 33.9689 8.71295 33.8483 8.76362C33.8173 8.77662 33.8149 8.86162 33.8026 8.91462C33.7806 9.01728 33.8226 9.13562 33.6759 9.20128C33.6293 9.22228 33.6379 9.36595 33.6196 9.46062C33.4433 9.48495 33.5146 9.64695 33.4733 9.73828L32.6793 10.5246C32.6019 10.5579 32.4519 10.5186 32.4126 10.6843C32.4083 10.7036 32.3329 10.7066 32.2769 10.7206C32.2803 10.7699 32.2833 10.818 32.2863 10.866C32.2616 10.862 32.2323 10.848 32.2139 10.8566C32.1796 10.8731 32.1499 10.8977 32.1273 10.9283C32.1223 10.9353 32.1606 10.974 32.1799 10.9983C32.2142 10.9745 32.2467 10.9483 32.2773 10.92C32.2929 10.9056 32.2863 10.8783 32.2876 10.8586Z" fill="#9E9E9E"/>
<path d="M21.0548 11.8643C21.0892 11.9175 21.1281 11.9676 21.1711 12.014C21.2458 12.0823 21.3315 12.1393 21.4095 12.2047C21.4705 12.2557 21.5398 12.3047 21.5828 12.368C21.7078 12.5543 21.9005 12.6707 22.0445 12.8347C22.0995 12.8973 22.0445 13.091 21.9681 13.1347C21.9521 13.1443 21.9295 13.1553 21.9251 13.1703C21.8655 13.3743 21.8078 13.579 21.7505 13.784C21.7425 13.812 21.7435 13.8643 21.7321 13.8667C21.5431 13.9053 21.6251 14.058 21.6035 14.1667C21.5891 14.2363 21.6071 14.3133 21.5035 14.3437C21.4731 14.3523 21.4658 14.4527 21.4555 14.5127C21.4438 14.5813 21.4758 14.669 21.3578 14.6793C21.3411 14.6793 21.3205 14.732 21.3165 14.762C21.3051 14.846 21.3031 14.9313 21.2941 15.0157C21.2911 15.0437 21.2811 15.0937 21.2695 15.095C21.1128 15.113 21.1778 15.2403 21.1491 15.323C21.1169 15.4043 21.0797 15.4836 21.0378 15.5603C21.0338 15.5683 21.0158 15.575 21.0171 15.579C21.0705 15.7873 20.8531 15.9057 20.8458 16.0963C20.8418 16.1963 20.8721 16.314 20.7335 16.377C20.7001 16.393 20.7111 16.5067 20.6961 16.574C20.6765 16.662 20.7235 16.7773 20.5841 16.8207C20.5578 16.8287 20.5538 16.9187 20.5451 16.972C20.5258 17.093 20.5588 17.2187 20.4318 17.32C20.3771 17.3633 20.3938 17.498 20.3815 17.5913C20.3678 17.6943 20.4008 17.809 20.2678 17.873C20.2371 17.888 20.2441 17.9827 20.2345 18.0397C20.2158 18.154 20.2701 18.286 20.1268 18.3697C20.0901 18.3913 20.0911 18.4897 20.0875 18.5533C20.0771 18.738 20.0761 18.923 20.0651 19.1073C20.0631 19.1437 20.0318 19.1783 20.0148 19.2137C19.9908 19.1787 19.9481 19.1447 19.9455 19.108C19.9328 18.899 19.9358 18.6883 19.9195 18.4797C19.9151 18.4243 19.8591 18.3737 19.8301 18.319C19.8101 18.2878 19.7961 18.2531 19.7891 18.2167C19.7801 18.1273 19.7808 18.037 19.7751 17.9473C19.7731 17.9183 19.7691 17.869 19.7555 17.865C19.5888 17.817 19.6478 17.6777 19.6298 17.569C19.6105 17.451 19.6718 17.3067 19.5021 17.2357C19.4711 17.2227 19.4871 17.1063 19.4751 17.0387C19.4581 16.9427 19.5211 16.8087 19.3545 16.776C19.3405 16.7733 19.3418 16.7033 19.3321 16.666C19.3011 16.544 19.3868 16.3817 19.1988 16.3103C19.1715 16.2997 19.1818 16.19 19.1741 16.126C19.1628 16.0303 19.1818 15.9227 19.0588 15.8737C19.0395 15.866 19.0341 15.814 19.0295 15.7813C19.0095 15.648 19.0428 15.497 18.8918 15.41C18.8755 15.4007 18.8825 15.354 18.8755 15.3253C18.8545 15.2393 18.9088 15.1203 18.7588 15.087C18.7348 15.0813 18.7311 14.9793 18.7198 14.9203C18.6995 14.8167 18.7441 14.6907 18.5951 14.6333C18.5661 14.622 18.5681 14.524 18.5598 14.4667C18.5455 14.3667 18.5701 14.2547 18.4428 14.2C18.4211 14.1907 18.4221 14.129 18.4125 14.0913C18.3918 14.008 18.4335 13.9003 18.2991 13.8613C18.2695 13.8527 18.2658 13.7453 18.2558 13.6823C18.2421 13.587 18.2538 13.4973 18.1388 13.4313C18.0871 13.4013 18.0995 13.26 18.0588 13.1817C18.0255 13.115 17.9795 13.0483 17.9588 12.9777C17.9315 12.888 17.9798 12.8427 18.0588 12.7807C18.1958 12.6723 18.2921 12.514 18.4158 12.3867C18.4875 12.3127 18.5855 12.2637 18.6601 12.1917C18.7348 12.1197 18.7801 11.9967 18.8655 11.961C19.0321 11.891 18.9921 11.684 19.1381 11.6107C19.1611 11.599 19.1675 11.5417 19.1715 11.5047C19.1801 11.39 19.1751 11.274 19.1928 11.161C19.2011 11.1077 19.2501 11.061 19.2785 11.0097C19.2997 10.9795 19.3149 10.9456 19.3231 10.9097C19.3318 10.8153 19.3275 10.72 19.3351 10.6253C19.3431 10.523 19.3018 10.4067 19.4351 10.339C19.4661 10.3233 19.4715 10.239 19.4725 10.1853C19.4781 9.88068 19.4825 9.57601 19.4778 9.27134C19.4778 9.22534 19.4248 9.18167 19.4015 9.13434C19.3641 9.05834 19.3308 8.98001 19.2861 8.88068L19.1888 8.85367C19.1965 8.84234 19.2045 8.83101 19.2121 8.82034C19.1611 8.7842 19.113 8.7442 19.0681 8.70067C19.0015 8.62534 18.9428 8.54201 18.8801 8.46267C18.8605 8.43767 18.8385 8.41467 18.8178 8.39067C18.7879 8.35954 18.7605 8.32611 18.7358 8.29067C18.6938 8.22134 18.7025 8.14067 18.5988 8.08567C18.5091 8.03834 18.4608 7.89101 18.4201 7.77867C18.3795 7.66634 18.4301 7.53701 18.3021 7.44534C18.2708 7.42334 18.3021 7.29701 18.3221 7.22301C18.3395 7.15834 18.3861 7.10201 18.4091 7.03801C18.4321 6.97401 18.4061 6.88234 18.5188 6.87134C18.5351 6.87134 18.5455 6.80467 18.5578 6.77134C18.5835 6.69734 18.5615 6.59501 18.6815 6.57701C18.6965 6.57467 18.7101 6.52967 18.7148 6.50267C18.7321 6.41334 18.7178 6.30934 18.8405 6.27501C18.8571 6.27067 18.8655 6.22601 18.8738 6.19867C18.8951 6.10901 18.8585 5.99067 19.0001 5.96167C19.0131 5.95901 19.0175 5.91001 19.0245 5.88234C19.0461 5.79801 19.0118 5.68234 19.1508 5.66334C19.1621 5.66334 19.1728 5.62301 19.1768 5.60034C19.1925 5.50501 19.1525 5.38267 19.3065 5.35567C19.3205 5.35301 19.3228 5.28434 19.3305 5.24667C19.3458 5.17067 19.3141 5.06801 19.4441 5.05667C19.4575 5.05667 19.4731 5.00967 19.4775 4.98301C19.4865 4.91401 19.4891 4.84434 19.4948 4.77101L19.6231 4.72867C19.6301 4.63934 19.6368 4.55534 19.6435 4.47101L19.6848 4.48701C19.7181 4.41567 19.7641 4.34701 19.7848 4.27167C19.8018 4.20501 19.7961 4.15734 19.8788 4.11334C19.9345 4.08367 19.9345 3.95034 19.9648 3.84667C20.0178 3.83267 20.0768 3.80667 20.0875 3.92534C20.0951 4.01134 20.0795 4.12334 20.2138 4.14734C20.2268 4.14967 20.2278 4.21034 20.2371 4.24301C20.2601 4.32167 20.2241 4.43201 20.3561 4.45401C20.3701 4.45634 20.3761 4.51401 20.3838 4.54634C20.4038 4.63034 20.3641 4.74634 20.5055 4.76601C20.5185 4.76767 20.5268 4.81567 20.5335 4.84334C20.5561 4.93667 20.5171 5.06234 20.6641 5.09034C20.6675 5.09034 20.6711 5.09767 20.6728 5.10201C20.7335 5.26667 20.7571 5.46301 20.8645 5.58767C20.9718 5.71234 20.9461 5.90134 21.0978 5.99001C21.1066 5.99465 21.1138 6.00186 21.1185 6.01067C21.1911 6.19367 21.2631 6.37734 21.3421 6.57734L21.4471 6.61367C21.4568 6.69634 21.4658 6.77501 21.4758 6.86067L21.6028 6.90001C21.6065 6.94734 21.6081 6.99201 21.6138 7.03601C21.6238 7.10967 21.6071 7.18401 21.7095 7.23134C21.7448 7.24767 21.7428 7.46067 21.7178 7.47067C21.6028 7.51367 21.6251 7.60001 21.6158 7.67801C21.6065 7.75601 21.6055 7.83634 21.6001 7.92301L21.4698 7.95634C21.4648 8.00667 21.4601 8.05034 21.4555 8.09401L21.4161 8.07534C21.3776 8.12937 21.3441 8.18684 21.3161 8.24701C21.2908 8.31367 21.2875 8.36867 21.1978 8.40901C21.1145 8.44667 21.0695 8.56734 21.0045 8.64934C20.9823 8.67116 20.9588 8.69164 20.9341 8.71067C20.9064 8.73768 20.8804 8.76653 20.8565 8.79701C20.8395 8.81901 20.8281 8.86534 20.8135 8.86567C20.7135 8.86834 20.7161 8.94401 20.7008 9.00968C20.6928 9.04301 20.6848 9.09301 20.6621 9.10401C20.4918 9.18467 20.5441 9.33734 20.5425 9.46768C20.5398 9.69234 20.5485 9.91701 20.5595 10.1417C20.5641 10.236 20.5415 10.345 20.6595 10.4013C20.6788 10.4107 20.6821 10.464 20.6848 10.4977C20.6951 10.637 20.6928 10.7783 20.7145 10.9157C20.7275 10.9963 20.7811 11.07 20.8088 11.149C20.8261 11.1995 20.8385 11.2515 20.8458 11.3043C20.8678 11.4377 20.8208 11.589 20.9675 11.6937C21.0128 11.727 21.0155 11.8183 21.0378 11.8837L21.0548 11.8643Z" fill="#9E9E9E"/>
<path d="M14.1 6.77109C14.1464 6.82042 14.1927 6.87109 14.2507 6.93209C14.3039 6.96685 14.3539 7.00634 14.4 7.05009C14.4667 7.12276 14.5244 7.20476 14.584 7.28342C14.595 7.29842 14.5947 7.33409 14.6044 7.33609C14.769 7.36942 14.7297 7.51276 14.767 7.62976L14.878 7.65942C14.923 7.76676 14.878 7.91209 15.0307 7.95942C15.0427 7.96309 15.0434 8.00409 15.049 8.02609C15.0704 8.11242 15.0474 8.22376 15.1757 8.25009C15.1827 8.25176 15.1907 8.26409 15.193 8.27309C15.2504 8.48142 15.3124 8.68876 15.362 8.89876C15.3877 9.00842 15.3364 9.13542 15.464 9.22009C15.4954 9.24076 15.4937 9.32276 15.494 9.37676C15.496 9.74642 15.499 10.1161 15.4897 10.4854C15.4897 10.5544 15.4297 10.6214 15.4014 10.6911C15.3861 10.7266 15.3767 10.7643 15.3734 10.8028C15.3647 10.9271 15.3674 11.0528 15.3517 11.1764C15.3457 11.2251 15.3047 11.2701 15.277 11.3154C15.2674 11.3311 15.2384 11.3411 15.2374 11.3551C15.222 11.5648 15.1374 11.7751 15.2294 11.9841C15.2427 12.0148 15.292 12.0354 15.3294 12.0488C15.4507 12.0928 15.6124 12.0328 15.6887 12.1998C15.6997 12.2244 15.785 12.2081 15.8294 12.2264C15.8794 12.2519 15.9265 12.2829 15.9697 12.3188C15.9807 12.3264 15.9897 12.3521 15.9954 12.3521C16.2117 12.3058 16.3257 12.5591 16.5387 12.5348C16.608 12.5268 16.7054 12.5248 16.727 12.6364C16.7297 12.6436 16.7342 12.6499 16.74 12.6548C16.7459 12.6597 16.7529 12.663 16.7604 12.6644C16.901 12.6704 17.012 12.7531 17.1337 12.7978C17.308 12.8618 17.3494 12.9568 17.3527 13.1134L17.4704 13.1468C17.537 13.2541 17.409 13.4411 17.6327 13.4524C17.6384 13.5244 17.6424 13.5888 17.649 13.6524C17.652 13.6814 17.654 13.7304 17.6677 13.7348C17.8344 13.7861 17.7777 13.9298 17.803 14.0421C17.8184 14.1088 17.86 14.1721 17.8897 14.2371L17.9387 14.2208C17.944 14.3148 17.9477 14.4088 17.9557 14.5024C17.9614 14.5691 17.952 14.6441 18.052 14.6638C18.0727 14.6678 18.0854 14.7341 18.0944 14.7734C18.123 14.8991 18.056 15.0564 18.232 15.1341C18.2594 15.1461 18.246 15.2464 18.254 15.3054C18.268 15.4078 18.233 15.5261 18.3734 15.5841C18.4024 15.5961 18.3967 15.6931 18.4067 15.7508C18.4234 15.8574 18.3854 15.9791 18.5234 16.0488C18.5567 16.0654 18.5457 16.1681 18.5567 16.2308C18.5744 16.3354 18.5234 16.4691 18.6767 16.5174C18.6807 16.5203 18.6839 16.5241 18.686 16.5286C18.6882 16.533 18.6892 16.5378 18.689 16.5428C18.643 16.8321 18.9024 17.0491 18.875 17.3364C18.8667 17.4231 18.8667 17.5181 18.9807 17.5731C19.0167 17.5901 19.0074 17.7014 19.019 17.7694C19.0364 17.8694 18.993 17.9841 19.126 18.0544C19.166 18.0758 19.1594 18.1918 19.165 18.2651C19.165 18.2801 19.1247 18.3134 19.105 18.3118C19.0744 18.3052 19.0469 18.2887 19.0267 18.2648C18.986 18.2218 18.9514 18.1734 18.9017 18.1118C18.8527 18.0774 18.8065 18.0393 18.7634 17.9978C18.6924 17.9204 18.63 17.8354 18.5634 17.7538C18.5496 17.7352 18.5344 17.7177 18.518 17.7014C18.4734 17.6618 18.427 17.6238 18.3847 17.5791L18.193 17.4001L18.0704 17.2734H18.068L17.903 17.0954C17.8883 17.0991 17.8728 17.0988 17.8582 17.0948C17.8435 17.0908 17.8302 17.0831 17.8193 17.0724C17.8085 17.0618 17.8006 17.0485 17.7963 17.0339C17.7921 17.0193 17.7916 17.0039 17.795 16.9891C17.3654 16.5594 16.9574 16.1511 16.549 15.7431L16.5354 15.7488C16.5008 15.698 16.462 15.6502 16.4194 15.6061C16.386 15.5764 16.3364 15.5651 16.311 15.5301L16.156 15.3804L16.1297 15.4024C16.122 15.3644 16.1144 15.3264 16.106 15.2861C15.9394 15.2838 15.911 15.0034 15.697 15.1194C15.678 15.0071 15.6664 14.9131 15.5897 14.9408C15.5097 14.8791 15.4594 14.8428 15.4124 14.8024C15.3924 14.7854 15.3814 14.7581 15.3627 14.7388C15.336 14.7118 15.3064 14.6871 15.2774 14.6624C15.2484 14.6378 15.2144 14.6118 15.185 14.5844C15.168 14.5684 15.1517 14.5301 15.1417 14.5318C14.972 14.5578 14.9227 14.3614 14.7804 14.3361C14.7637 14.3331 14.7454 14.2778 14.747 14.2471C14.7554 13.9078 14.7627 13.5678 14.7824 13.2288C14.7857 13.1704 14.873 13.1161 14.8747 13.0584C14.884 12.7358 14.879 12.4124 14.879 12.0818C14.8207 12.0758 14.763 12.0654 14.7064 12.0504C14.6675 12.0321 14.6319 12.0076 14.6007 11.9781C14.575 11.9545 14.5481 11.9322 14.52 11.9114C14.5004 11.8991 14.455 11.9011 14.4534 11.8908C14.4217 11.7211 14.2767 11.7691 14.203 11.7478L14.0454 11.5698L14.0077 11.5961C13.999 11.5538 13.9904 11.5118 13.9797 11.4608L13.853 11.4448L13.8754 11.4161L13.7264 11.2634C13.6954 11.1928 13.6747 11.1121 13.5884 11.1008C13.525 11.0164 13.4334 10.9404 13.4057 10.8458C13.3644 10.7038 13.1724 10.6504 13.2057 10.4764C13.0184 10.4024 13.146 10.1328 12.9487 10.0614C12.9344 10.0564 12.9367 10.0068 12.9294 9.97809C12.896 9.84842 12.9064 9.72309 12.8094 9.58942C12.7217 9.46842 12.776 9.24342 12.776 9.06442C12.8155 9.05348 12.8561 9.04688 12.897 9.04476C12.9347 9.23176 13.0987 9.14476 13.21 9.19476C13.2234 9.35542 13.3534 9.32309 13.4627 9.31942C13.4773 9.31514 13.4906 9.3072 13.5013 9.29635C13.5119 9.2855 13.5197 9.2721 13.5237 9.25742C13.526 9.23309 13.4997 9.20042 13.4777 9.18009C13.4347 9.14042 13.386 9.10676 13.356 9.08342C13.2944 9.01409 13.2534 8.96476 13.2087 8.91876C13.1517 8.85391 13.0892 8.79403 13.022 8.73976C12.916 8.66242 12.7977 8.60242 12.6917 8.52509C12.6564 8.49942 12.644 8.44276 12.619 8.40142C12.583 8.34242 12.5447 8.28476 12.519 8.24342C12.457 8.17376 12.4007 8.13242 12.3757 8.07676C12.346 7.99982 12.3258 7.91957 12.3154 7.83776C12.2994 7.74842 12.3244 7.63776 12.1617 7.64176C12.1617 7.54442 12.1654 7.45509 12.1617 7.36609C12.158 7.27709 12.1814 7.18476 12.0597 7.14476C12.0344 7.13642 12.0234 7.05776 12.0214 7.01142C12.0127 6.82176 12.0147 6.63176 12.004 6.44209C11.997 6.31776 12.029 6.17542 11.8894 6.09276C11.8754 6.08442 11.8747 6.04676 11.8747 6.02276C11.8747 5.85909 11.8747 5.69509 11.8747 5.50842C12.008 5.51476 12.129 5.52042 12.2514 5.52776C12.265 5.52776 12.289 5.53642 12.2904 5.54409C12.3214 5.73809 12.4904 5.63342 12.5967 5.69076C12.6084 5.88376 12.7804 5.79409 12.886 5.83409L12.8694 5.87509C12.9307 5.90642 12.9937 5.93509 13.053 5.96976C13.1064 6.00309 13.153 6.04276 13.2064 6.07442C13.2556 6.09743 13.3016 6.12667 13.3434 6.16142C13.394 6.19842 13.474 6.22576 13.4907 6.27442C13.5504 6.45042 13.809 6.36276 13.85 6.55876C13.8547 6.58009 13.9284 6.58676 13.9524 6.61542L14.1027 6.77342L14.1 6.77109Z" fill="#9E9E9E"/>
<path d="M26.7726 9.32463C26.7872 9.26496 26.7966 9.22763 26.8059 9.18696L27.0279 9.16329L27.1996 9.00929L27.2389 9.04263C27.2389 9.2204 27.2389 9.39818 27.2389 9.57596C27.2389 9.58596 27.2389 9.60229 27.2332 9.60429C27.0099 9.69763 27.1392 9.90763 27.0439 10.0416C27.0106 10.1143 26.9629 10.184 26.9459 10.2606C26.9306 10.33 26.9229 10.3746 26.8509 10.4223C26.7949 10.459 26.7926 10.5773 26.7752 10.6306L26.3086 11.277L26.2952 11.263L26.1396 11.4166H26.1419L25.9832 11.5636L25.9856 11.5666L25.7999 11.7423C25.6229 11.7276 25.5226 11.8986 25.3999 12.0423L25.1309 12.084C25.1309 12.412 25.1309 12.735 25.1309 13.058C25.1309 13.0723 25.1339 13.0956 25.1426 13.0996C25.3259 13.181 25.2519 13.347 25.2572 13.4773C25.2689 13.761 25.2609 14.0456 25.2609 14.335L25.1292 14.3643L25.1482 14.4003C25.0962 14.4336 25.0446 14.467 24.9922 14.5003C24.9309 14.5376 24.8522 14.5193 24.8092 14.622C24.7759 14.7043 24.6492 14.7486 24.5656 14.8113C24.5409 14.8296 24.5206 14.8536 24.4989 14.8746C24.4676 14.9036 24.4356 14.9323 24.4036 14.9603C24.4002 14.963 24.3896 14.9603 24.3892 14.9623C24.3672 15.1623 24.0976 15.059 24.0519 15.2386C24.0452 15.2643 23.9669 15.272 23.9539 15.2766L23.7222 15.5266L23.4636 15.758L23.3236 15.9066L23.3176 15.9026L22.0882 17.125L22.0906 17.1363C22.0396 17.17 21.9917 17.208 21.9472 17.25C21.9176 17.2833 21.9059 17.3323 21.8746 17.359L21.6919 17.5333C21.6778 17.5313 21.6635 17.5328 21.6501 17.5375C21.6367 17.5422 21.6246 17.55 21.6148 17.5603C21.6051 17.5706 21.5979 17.5831 21.5939 17.5967C21.5899 17.6103 21.5892 17.6247 21.5919 17.6386L21.4186 17.8193L21.4206 17.823L21.1576 18.0666C21.1576 18.0633 21.1516 18.1023 21.1452 18.141L21.1156 18.121C21.0721 18.1849 21.0239 18.2454 20.9712 18.302C20.9546 18.318 20.9016 18.296 20.8652 18.2916C20.8819 18.2046 20.8922 18.1156 20.9172 18.0313C20.9336 17.977 20.9799 17.9313 20.9972 17.8776C21.0362 17.754 20.9432 17.5933 21.1276 17.5043C21.1692 17.484 21.1446 17.3356 21.1586 17.2473C21.1762 17.1353 21.1112 16.9953 21.2822 16.93C21.3132 16.9183 21.2979 16.7913 21.3092 16.7183C21.3229 16.6293 21.2729 16.5113 21.4229 16.4796C21.4422 16.4756 21.4432 16.3916 21.4562 16.3463C21.4876 16.2263 21.3926 16.0693 21.5816 15.989C21.6206 15.9723 21.6012 15.8223 21.6109 15.7326C21.6192 15.6593 21.5902 15.572 21.7109 15.5483C21.7369 15.5433 21.7442 15.437 21.7586 15.3766C21.7826 15.274 21.7062 15.139 21.8759 15.079C21.9092 15.067 21.8996 14.932 21.9132 14.8543C21.9269 14.7766 21.8876 14.673 22.0186 14.637C22.0472 14.629 22.0519 14.5226 22.0619 14.461C22.0802 14.3563 22.0286 14.2276 22.1846 14.1726C22.2126 14.1626 22.2106 14.0633 22.2179 14.006C22.2319 13.91 22.2179 13.806 22.3359 13.752C22.3589 13.7416 22.3599 13.682 22.3692 13.645C22.3926 13.5633 22.3472 13.445 22.4876 13.4236C22.4999 13.4216 22.5029 13.3706 22.5126 13.3433C22.5412 13.2606 22.4892 13.129 22.6459 13.122C22.6492 13.122 22.6556 13.1143 22.6549 13.1116C22.5986 12.8376 22.9082 12.8696 22.9929 12.7116C23.0046 12.69 23.0659 12.6966 23.1032 12.687C23.1809 12.667 23.2879 12.713 23.3172 12.5773C23.3229 12.5523 23.4236 12.5463 23.4809 12.534C23.5809 12.5126 23.7076 12.5566 23.7499 12.408C23.7539 12.3933 23.8026 12.3906 23.8306 12.3833C23.9192 12.361 24.0406 12.402 24.0666 12.2596C24.0666 12.256 24.0729 12.252 24.0772 12.2503C24.2549 12.19 24.4296 12.117 24.6106 12.0733C24.7666 12.036 24.8279 11.991 24.8259 11.8296C24.8277 11.7148 24.8192 11.6 24.8006 11.4866C24.7879 11.4226 24.7316 11.368 24.7006 11.3063C24.6832 11.2728 24.6727 11.2362 24.6696 11.1986C24.6609 11.059 24.6672 10.9176 24.6472 10.78C24.6359 10.699 24.5842 10.624 24.5532 10.5466C24.5365 10.5122 24.526 10.4751 24.5222 10.437C24.5199 10.077 24.5166 9.71729 24.5246 9.35763C24.5262 9.29629 24.5839 9.23696 24.6116 9.17496C24.6311 9.13644 24.6443 9.09502 24.6506 9.05229C24.6596 8.95229 24.6572 8.85229 24.6659 8.75229C24.6722 8.67763 24.6582 8.59929 24.7629 8.55763C24.7989 8.54329 24.7929 8.43363 24.8156 8.37063C24.8329 8.32263 24.8692 8.28196 24.8899 8.23463C24.9266 8.15196 24.9566 8.06796 24.9996 7.95996C25.1572 7.94396 25.0996 7.78529 25.1279 7.65996L25.2442 7.63829C25.2912 7.53096 25.2242 7.39596 25.3966 7.33829C25.4819 7.31029 25.5282 7.16363 25.6092 7.08263C25.6479 7.03329 25.6796 6.97496 25.7276 6.93696C25.796 6.8801 25.8604 6.8185 25.9202 6.75263C26.0132 6.65596 26.1366 6.58763 26.2102 6.46696C26.2206 6.44996 26.2522 6.44429 26.2769 6.43763C26.3599 6.41329 26.4509 6.41029 26.4866 6.30096C26.4952 6.27396 26.5729 6.26763 26.6269 6.25163C26.6346 6.22029 26.6439 6.18229 26.6529 6.14429L26.6819 6.16829C26.7306 6.11563 26.7702 6.04629 26.8302 6.01429C26.9012 5.97629 26.9896 5.97063 27.0879 5.94763L27.1189 5.83529L27.3799 5.81063L27.4189 5.68529C27.4732 5.67896 27.5319 5.67396 27.5899 5.66496C27.6276 5.65929 27.6899 5.65729 27.6976 5.63696C27.7762 5.43096 27.9542 5.54696 28.0846 5.51629C28.1009 5.51263 28.1512 5.56529 28.1512 5.59163C28.1532 5.79136 28.145 5.99106 28.1266 6.18996C28.1162 6.27929 28.0409 6.35963 28.0242 6.44963C28.0029 6.56629 28.0116 6.68863 28.0062 6.80829C28.0022 6.88829 27.9972 6.96796 27.9906 7.04763C27.9882 7.07696 27.9906 7.12229 27.9726 7.13263C27.8219 7.22329 27.8696 7.37563 27.8492 7.50663C27.8392 7.57029 27.8616 7.63563 27.7666 7.67496C27.7249 7.69229 27.7226 7.80629 27.7039 7.87496C27.6816 7.96129 27.7232 8.06363 27.5839 8.11429C27.5349 8.13229 27.4342 8.27129 27.4319 8.31796C27.4236 8.48063 27.2699 8.52463 27.2209 8.64363C27.2167 8.65232 27.2105 8.65989 27.2028 8.66569C27.1951 8.67149 27.1861 8.67535 27.1766 8.67696C27.0122 8.66896 26.9579 8.83696 26.8299 8.89463C26.7469 8.93196 26.7039 9.05496 26.6376 9.13496C26.6189 9.15763 26.5749 9.15796 26.5526 9.17896C26.526 9.20105 26.5081 9.2319 26.5022 9.26596C26.5022 9.28463 26.5436 9.31763 26.5689 9.32096C26.6367 9.32643 26.7047 9.32766 26.7726 9.32463V9.32463Z" fill="#9E9E9E"/>
</svg>
