<svg width="40" height="40" viewBox="0 0 40 40" fill="none" xmlns="http://www.w3.org/2000/svg">
<path d="M25.3366 12.2361C25.3816 12.3754 25.5949 12.5231 25.8203 12.5654C25.8286 12.6037 25.8369 12.6444 25.8473 12.6924L25.9919 12.7167C25.9986 12.7601 26.0053 12.8054 26.0139 12.8604C26.1313 12.8427 26.1893 12.8921 26.1699 13.0161C26.2826 13.0137 26.3669 13.0357 26.3223 13.1914L26.3766 13.1447C26.4136 13.1996 26.4549 13.2516 26.4999 13.3001C26.5809 13.3754 26.6706 13.4411 26.7553 13.5127C26.7769 13.5311 26.7926 13.5564 26.8126 13.5771C26.8473 13.6133 26.8827 13.6487 26.9189 13.6834C26.9333 13.6971 26.9523 13.7054 26.9663 13.7197C27.0606 13.8241 27.1573 13.9271 27.2463 14.0357C27.2746 14.0691 27.2836 14.1211 27.3003 14.1651C27.3259 14.2334 27.3089 14.3347 27.4313 14.3274C27.4426 14.3274 27.4563 14.3567 27.4679 14.3731C27.5035 14.4294 27.5456 14.4813 27.5933 14.5277C27.6553 14.7794 27.6553 14.7794 27.7866 14.8277C27.7909 14.8671 27.7956 14.9087 27.8016 14.9611C28.0229 14.9674 27.9243 15.1571 27.9769 15.2794L28.0949 15.3084C28.1519 15.4291 28.0316 15.6251 28.2583 15.6317C28.3066 15.7547 28.2146 15.9301 28.4249 15.9614C28.4313 16.0364 28.4353 16.1097 28.4443 16.1824C28.4479 16.2117 28.4603 16.2631 28.4733 16.2647C28.6399 16.2851 28.5793 16.4191 28.6006 16.5104C28.6219 16.6017 28.5866 16.7231 28.7276 16.7737C28.7589 16.7851 28.7549 16.8981 28.7649 16.9644C28.7813 17.0737 28.7489 17.1944 28.8889 17.2644C28.9263 17.2834 28.9123 17.4024 28.9223 17.4751C28.9439 17.6307 28.8889 17.8084 29.0599 17.9217C29.0829 17.9371 29.0753 18.0021 29.0776 18.0441C29.0879 18.2247 29.0946 18.4057 29.1066 18.5864C29.1143 18.6984 29.0859 18.8224 29.2136 18.8981C29.2339 18.9101 29.2333 18.9674 29.2333 19.0037C29.2333 19.6161 29.2359 20.2284 29.2333 20.8411C29.2333 20.8907 29.1916 20.9411 29.1709 20.9897C29.1503 21.0384 29.1226 21.0827 29.1186 21.1311C29.1033 21.3114 29.1006 21.4927 29.0853 21.6731C29.0749 21.7914 29.1076 21.9114 28.9799 22.0154C28.9166 22.0671 28.9413 22.2257 28.9246 22.3357C28.9079 22.4457 28.9529 22.5617 28.8156 22.6537C28.7536 22.6954 28.7823 22.8634 28.7566 22.9714C28.7443 23.0247 28.6999 23.0714 28.6793 23.1224C28.6492 23.1985 28.624 23.2765 28.6036 23.3557C28.5806 23.4444 28.6313 23.5621 28.4819 23.5971C28.4553 23.6034 28.4456 23.7074 28.4386 23.7677C28.4299 23.8404 28.4309 23.8911 28.3406 23.9374C28.2816 23.9681 28.2809 24.1111 28.2489 24.2207C28.0609 24.2381 28.1346 24.4087 28.1059 24.5411L27.9726 24.5797C27.9619 24.6647 27.9509 24.7534 27.9393 24.8421L27.9059 24.8237C27.8686 24.8831 27.8319 24.9427 27.7936 25.0014C27.7803 25.0217 27.7603 25.0387 27.7473 25.0591C27.7066 25.1187 27.6659 25.1784 27.6276 25.2394C27.5976 25.2932 27.5617 25.3435 27.5206 25.3894C27.2773 25.7561 27.0253 26.1051 26.6919 26.4017C26.6373 26.4362 26.586 26.4756 26.5386 26.5194C26.5053 26.5527 26.4949 26.6071 26.4599 26.6337L26.2933 26.7881L26.3183 26.8214L26.1786 26.8417C26.1713 26.8897 26.1646 26.9304 26.1569 26.9794L26.0159 26.9997C26.0086 27.0481 26.0023 27.0887 25.9946 27.1377L25.8563 27.1587L25.8773 27.2031C25.8179 27.2397 25.7586 27.2771 25.6989 27.3131C25.5686 27.3864 25.4504 27.4794 25.3483 27.5887C25.2559 27.6917 25.1049 27.7414 24.9816 27.8167C24.9417 27.8422 24.9033 27.8701 24.8666 27.9001C24.8406 27.9207 24.8179 27.9577 24.7899 27.9621C24.6883 27.9771 24.6209 28.0204 24.5406 28.0954C24.4203 28.2081 24.2469 28.2644 24.0616 28.3621C24.0616 28.4621 23.9453 28.4461 23.8409 28.4571C23.7366 28.4681 23.6296 28.4404 23.5629 28.5841C23.5383 28.6371 23.3703 28.6231 23.2573 28.6414C23.2473 28.7644 23.1573 28.7747 23.0473 28.7831C22.9329 28.7914 22.7806 28.7247 22.7289 28.9081C22.7249 28.9227 22.6729 28.9287 22.6429 28.9304C22.5313 28.9374 22.4169 28.9304 22.3096 28.9504C22.2366 28.9651 22.1729 29.0224 22.1029 29.0564C22.0679 29.0756 22.0294 29.0877 21.9896 29.0921C21.8143 29.1014 21.6383 29.1017 21.4629 29.1127C21.3396 29.1207 21.2056 29.0994 21.1186 29.2307C21.1029 29.2541 21.0396 29.2514 20.9983 29.2517C20.4069 29.2517 19.8156 29.2544 19.2243 29.2471C19.1576 29.2471 19.0909 29.1871 19.0216 29.1604C18.9694 29.1372 18.914 29.1218 18.8573 29.1147C18.6766 29.1034 18.4949 29.1041 18.3146 29.0904C18.2743 29.0871 18.2373 29.0431 18.1979 29.0191C18.1586 28.9951 18.1243 28.9611 18.0846 28.9567C17.9629 28.9431 17.8403 28.9417 17.7179 28.9347C17.6459 28.9307 17.5913 28.9287 17.5429 28.8407C17.5146 28.7891 17.3763 28.7914 17.2849 28.7817C17.1803 28.7707 17.0626 28.7917 17.0566 28.6314C16.9743 28.6261 16.9003 28.6227 16.8266 28.6157C16.7966 28.6127 16.7443 28.6061 16.7416 28.5931C16.7083 28.4331 16.5793 28.4744 16.4749 28.4551C16.3883 28.4387 16.2749 28.4674 16.2513 28.3274C16.2489 28.3127 16.1883 28.3077 16.1546 28.2981C16.0699 28.2737 15.9909 28.2804 15.9246 28.1724C15.8639 28.0724 15.7059 28.0351 15.5913 27.9724C15.5268 27.9407 15.4667 27.9007 15.4126 27.8534C15.3126 27.7901 15.1829 27.8237 15.1066 27.6697C15.0583 27.5717 14.8986 27.5307 14.7926 27.4584C14.7009 27.3957 14.6146 27.3251 14.5186 27.2724L14.3503 27.1127L14.3476 27.1181L14.1916 26.9537L14.1849 26.9601C14.1329 26.9051 14.0806 26.8504 14.0286 26.7957L13.9933 26.8207C13.9863 26.7757 13.9789 26.7304 13.9719 26.6854L13.9326 26.7094C13.8981 26.6601 13.86 26.6134 13.8186 26.5697C13.771 26.5339 13.7204 26.5022 13.6673 26.4751C13.6636 26.4541 13.6556 26.4084 13.6479 26.3634L13.6106 26.3867C13.5726 26.3387 13.5353 26.2901 13.4959 26.2431C13.4773 26.2214 13.4539 26.2041 13.4339 26.1834C13.4023 26.1501 13.3706 26.1194 13.3416 26.0834C13.3289 26.0684 13.3276 26.0394 13.3129 26.0307C13.1463 25.9347 13.0533 25.7947 12.9843 25.6131C12.9416 25.4997 12.8146 25.4184 12.7153 25.3314C12.6666 25.2291 12.7099 25.0744 12.5366 25.0314C12.5176 25.0267 12.5169 24.9454 12.5059 24.8891L12.3766 24.8557C12.3653 24.7611 12.3546 24.6721 12.3433 24.5734L12.2099 24.5471C12.2003 24.4471 12.1919 24.3591 12.1823 24.2607L12.0579 24.2241C12.0013 24.1054 12.1109 23.9161 11.8886 23.8967C11.8823 23.8191 11.8783 23.7504 11.8703 23.6821C11.8666 23.6521 11.8599 23.5991 11.8466 23.5964C11.6756 23.5631 11.7313 23.4231 11.7133 23.3181C11.6966 23.2294 11.7199 23.1221 11.5916 23.0847C11.5693 23.0781 11.5673 23.0021 11.5583 22.9577C11.5296 22.8284 11.5893 22.6714 11.4219 22.5834C11.3886 22.5664 11.4029 22.4641 11.3939 22.4014C11.3699 22.2374 11.4373 22.0467 11.2529 21.9277C11.2359 21.9167 11.2419 21.8674 11.2403 21.8357C11.2296 21.6441 11.2223 21.4524 11.2089 21.2614C11.2009 21.1501 11.2313 21.0261 11.1039 20.9487C11.0806 20.9347 11.0826 20.8694 11.0826 20.8281C11.0826 20.2261 11.0799 19.6244 11.0846 19.0224C11.0846 18.9684 11.1299 18.9151 11.1513 18.8601C11.1745 18.815 11.1909 18.7667 11.1999 18.7167C11.2163 18.4937 11.2253 18.2701 11.2373 18.0471C11.2393 18.0097 11.2299 17.9541 11.2499 17.9387C11.4499 17.7854 11.3619 17.5604 11.4043 17.3684C11.4149 17.3201 11.4613 17.2807 11.4793 17.2327C11.5067 17.1563 11.5299 17.0784 11.5486 16.9994C11.5729 16.9024 11.5153 16.7797 11.6669 16.7221C11.7056 16.7074 11.7003 16.5764 11.7156 16.4991C11.7343 16.4111 11.6823 16.2857 11.8393 16.2657C11.8536 16.2641 11.8676 16.2141 11.8726 16.1851C11.8816 16.1184 11.8843 16.0477 11.8903 15.9697C12.1046 15.9454 12.0123 15.7661 12.0569 15.6391C12.2613 15.6184 12.1816 15.4434 12.2166 15.3134C12.3409 15.3134 12.3743 15.2281 12.3689 15.1187C12.3639 15.0187 12.3996 14.9644 12.4689 14.9704L12.6356 14.7564L12.6633 14.7754L12.7023 14.5571L13.0066 14.2464C13.0293 14.1897 13.0066 14.0661 13.1526 13.9967C13.2426 13.9541 13.2806 13.8124 13.3569 13.7301C13.4409 13.6374 13.5423 13.5601 13.6593 13.4554C13.6633 13.3951 13.6829 13.3061 13.7733 13.3314L14.0066 13.0797L14.1916 12.9047L14.1689 12.8757L14.3023 12.8551C14.3109 12.8124 14.3199 12.7674 14.3216 12.7597L14.5239 12.6024L14.4979 12.5654C14.6123 12.5297 14.7593 12.5557 14.8079 12.3954C14.8149 12.3727 14.8939 12.3721 14.9203 12.3287C14.9746 12.2917 15.0303 12.2557 15.0833 12.2167C15.1069 12.1997 15.1246 12.1747 15.1466 12.1554C15.178 12.122 15.2137 12.0927 15.2526 12.0684C15.3299 12.0301 15.4559 12.0684 15.4673 11.9254C15.4673 11.9141 15.5233 11.9107 15.5496 11.8967C15.6199 11.8587 15.6876 11.8157 15.7576 11.7771C15.7909 11.7581 15.8319 11.7464 15.8656 11.7261C15.8975 11.7063 15.927 11.6828 15.9533 11.6561C15.9669 11.6424 15.9676 11.6084 15.9816 11.6031C16.1603 11.5334 16.3393 11.4637 16.5209 11.4031C16.6056 11.3744 16.7169 11.4057 16.7499 11.2754C16.7549 11.2557 16.8229 11.2491 16.8626 11.2421C16.9593 11.2247 17.0773 11.2654 17.1196 11.1157C17.1273 11.0881 17.2343 11.0881 17.2956 11.0761C17.4039 11.0551 17.5499 11.1261 17.5956 10.9484C17.5999 10.9324 17.6623 10.9264 17.6979 10.9241C17.8199 10.9157 17.9439 10.9201 18.0646 10.9007C18.1183 10.8921 18.1646 10.8341 18.2156 10.8071C18.2524 10.7833 18.2939 10.7679 18.3373 10.7621C18.5606 10.7517 18.7846 10.7527 19.0076 10.7374C19.0653 10.7334 19.1193 10.6821 19.1743 10.6547C19.2139 10.6354 19.2546 10.6044 19.2949 10.6041C19.8759 10.6007 20.4566 10.6017 21.0373 10.6041C21.0676 10.6041 21.1193 10.6074 21.1253 10.6234C21.1919 10.7884 21.3343 10.7377 21.4533 10.7454C21.6019 10.7551 21.7533 10.7484 21.9003 10.7587C21.9899 10.7647 22.1119 10.7161 22.1379 10.8717C22.1406 10.8874 22.2016 10.8994 22.2379 10.9021C22.3546 10.9107 22.4713 10.9131 22.5886 10.9211C22.6646 10.9264 22.7439 10.9114 22.7793 11.0211C22.7899 11.0544 22.8969 11.0621 22.9609 11.0741C23.0713 11.0947 23.2096 11.0337 23.2649 11.2054C23.2746 11.2351 23.3933 11.2231 23.4569 11.2437C23.5086 11.2607 23.5509 11.3037 23.6016 11.3257C23.6709 11.3561 23.7446 11.3764 23.8159 11.4024C23.9049 11.4357 24.0406 11.3761 24.0703 11.5334C24.0729 11.5484 24.1369 11.5481 24.1703 11.5617C24.2483 11.5951 24.3303 11.5787 24.3986 11.6867C24.4669 11.7947 24.6426 11.8291 24.7696 11.8991C24.8082 11.9235 24.8454 11.9501 24.8809 11.9787C24.9098 12.0043 24.9419 12.026 24.9763 12.0434C25.0629 12.0751 25.1836 12.0434 25.2036 12.1904C25.1969 12.2101 25.2856 12.2201 25.3366 12.2361ZM16.2393 24.5774C16.2466 24.6261 16.2533 24.6711 16.2623 24.7327C16.4019 24.6837 16.4189 24.7754 16.4526 24.8477L16.6333 25.0044C16.7696 25.0777 16.9563 25.1237 17.0476 25.2431C17.1303 25.3514 17.2126 25.3637 17.3143 25.3854C17.3346 25.3897 17.3696 25.3954 17.3716 25.4054C17.4029 25.5721 17.5423 25.5274 17.6466 25.5531C17.6699 25.5591 17.7086 25.5744 17.7099 25.5864C17.7209 25.7084 17.8209 25.6787 17.8909 25.6961C17.9366 25.7077 18.0143 25.6961 18.0269 25.7197C18.1269 25.9121 18.3099 25.8401 18.4603 25.8701C18.5269 25.8831 18.6376 25.8821 18.6503 25.9164C18.6983 26.0454 18.7983 26.0197 18.8876 26.0247C19.0523 26.0344 19.2176 26.0351 19.3826 26.0424C19.4183 26.0424 19.4753 26.0457 19.4856 26.0657C19.5436 26.1821 19.6523 26.1727 19.7486 26.1734C20.0413 26.1757 20.3343 26.1691 20.6269 26.1631C20.6736 26.1631 20.7463 26.1631 20.7623 26.1347C20.8363 26.0097 20.9539 26.0427 21.0599 26.0347C21.2089 26.0257 21.3583 26.0251 21.5069 26.0177C21.5426 26.0157 21.6023 26.0101 21.6069 25.9917C21.6566 25.8457 21.7833 25.8917 21.8843 25.8657C22.1076 25.8081 22.3549 25.7797 22.5396 25.6591C22.6351 25.5924 22.743 25.5457 22.8569 25.5217C22.8746 25.5181 22.9019 25.4994 22.9029 25.4864C22.9109 25.3804 22.9973 25.3984 23.0623 25.3697C23.1839 25.3157 23.3289 25.2641 23.4013 25.1654C23.4573 25.0887 23.5173 25.0764 23.5826 25.0431C23.6479 25.0097 23.7036 24.9707 23.7636 24.9344C23.7479 24.9124 23.7326 24.8904 23.7169 24.8677C23.8896 24.9344 23.8973 24.8234 23.9103 24.7307L24.0556 24.7117C24.0376 24.5934 24.0923 24.5417 24.2186 24.5634C24.2013 24.4394 24.2519 24.3814 24.3399 24.3967C24.4333 24.2824 24.5099 24.1824 24.5939 24.0891C24.6414 24.0422 24.692 23.9985 24.7453 23.9584C24.7746 23.9121 24.8216 23.8854 24.8609 23.8504C24.9006 23.8121 24.9377 23.7712 24.9719 23.7281C24.9892 23.7104 25.0042 23.6907 25.0166 23.6694C25.0833 23.5361 25.1129 23.3494 25.2189 23.2857C25.3686 23.1954 25.3443 23.0747 25.3806 22.9504L25.5079 22.9137C25.5193 22.8114 25.5299 22.7177 25.5413 22.6237L25.5959 22.6391C25.6262 22.5845 25.6532 22.5282 25.6766 22.4704C25.6963 22.4124 25.6913 22.3037 25.7169 22.2971C25.8836 22.2564 25.8259 22.1254 25.8436 22.0261C25.8553 21.9594 25.8456 21.8381 25.8719 21.8301C26.0759 21.7701 25.9789 21.6054 26.0053 21.4867C26.0349 21.3534 25.9443 21.1824 26.1386 21.1047C26.1536 21.0987 26.1539 21.0461 26.1539 21.0151C26.1539 20.2855 26.1539 19.5558 26.1539 18.8261C26.1539 18.7891 26.1333 18.7234 26.1133 18.7197C25.9946 18.6974 26.0189 18.6067 26.0133 18.5327C26.0057 18.4372 26.0032 18.3412 26.0059 18.2454C26.0103 18.1337 25.9879 18.0454 25.8589 18.0334C25.8506 17.9134 25.8466 17.8001 25.8326 17.6907C25.8279 17.6551 25.8019 17.5977 25.7776 17.5927C25.6776 17.5734 25.6946 17.5021 25.6846 17.4347C25.6746 17.3674 25.6619 17.2604 25.6316 17.2537C25.5276 17.2304 25.5416 17.1614 25.5226 17.0911C25.5013 17.0114 25.4536 16.9391 25.4173 16.8637L25.3716 16.8821C25.3813 16.6644 25.2179 16.5524 25.0996 16.4067C25.0106 16.2974 25.0099 16.1344 24.8709 16.0401C24.7836 15.9807 24.7473 15.8501 24.6633 15.7811C24.5539 15.6907 24.4349 15.6144 24.3763 15.4784C24.3696 15.4627 24.3429 15.4551 24.3286 15.4427C24.2806 15.4054 24.2326 15.3674 24.1849 15.3294L24.1879 15.3194L24.0213 15.1607L24.0186 15.1624C23.9639 15.1091 23.9095 15.0555 23.8553 15.0017V15.0047L23.6386 14.8071C23.5719 14.7934 23.4123 14.8437 23.3999 14.6621C23.3369 14.6421 23.2493 14.6317 23.2466 14.6107C23.2269 14.4574 23.1076 14.4957 23.0173 14.4774C22.9879 14.4711 22.9356 14.4614 22.9343 14.4494C22.9179 14.2861 22.7869 14.3341 22.6936 14.3127C22.6636 14.3061 22.6113 14.2981 22.6089 14.2841C22.5833 14.1247 22.4536 14.1777 22.3606 14.1567C22.3306 14.1501 22.2796 14.1481 22.2746 14.1327C22.2236 13.9684 22.0829 14.0161 21.9709 13.9994C21.8709 13.9834 21.7236 14.0051 21.6813 13.9477C21.5663 13.7924 21.4146 13.8541 21.2793 13.8274C21.1013 13.7924 20.8936 13.8877 20.7459 13.7061C20.7339 13.6911 20.6949 13.6957 20.6686 13.6957C20.3276 13.6957 19.9869 13.6941 19.6463 13.6957C19.6103 13.6957 19.5529 13.6981 19.5419 13.7187C19.4753 13.8404 19.3609 13.8101 19.2603 13.8187C19.1066 13.8311 18.9519 13.8341 18.7979 13.8444C18.7626 13.8467 18.7043 13.8534 18.6979 13.8734C18.6459 14.0087 18.5259 13.9734 18.4276 13.9911C18.3549 14.0037 18.2336 13.9881 18.2159 14.0244C18.1383 14.1857 17.9933 14.1397 17.8719 14.1671C17.8266 14.1771 17.7439 14.1804 17.7413 14.1964C17.7163 14.3591 17.5846 14.3047 17.4923 14.3297C17.4589 14.3387 17.4069 14.3577 17.4059 14.3751C17.3989 14.4851 17.3236 14.4844 17.2473 14.4827C17.1379 14.4804 17.0669 14.5231 17.0606 14.6374L16.9063 14.6557C16.8926 14.7034 16.8799 14.7474 16.8679 14.7891L16.6089 14.8261L16.6296 14.8551L16.4416 15.0161L16.4493 15.0301L16.2543 15.1817C16.2969 15.2951 16.1876 15.2841 16.1243 15.3211C15.9085 15.5433 15.6927 15.7655 15.4769 15.9877C15.4363 16.0391 15.3899 16.0827 15.3456 16.1291C15.3254 16.15 15.3083 16.1737 15.2946 16.1994C15.2279 16.3271 15.1929 16.5161 15.0883 16.5707C14.9259 16.6551 14.9696 16.7831 14.9263 16.9041C14.7059 16.9157 14.8209 17.1081 14.7579 17.2277C14.6286 17.2191 14.6326 17.3214 14.6246 17.4184C14.6203 17.4697 14.6173 17.5594 14.5953 17.5654C14.4196 17.6141 14.4853 17.7574 14.4636 17.8654C14.4509 17.9294 14.4439 18.0407 14.4153 18.0474C14.2906 18.0757 14.3113 18.1654 14.3063 18.2451C14.2986 18.3617 14.3019 18.4784 14.2906 18.5957C14.2869 18.6351 14.2543 18.6717 14.2333 18.7084C14.2076 18.7527 14.1573 18.7954 14.1569 18.8391C14.1519 19.5634 14.1529 20.2877 14.1546 21.0121C14.1546 21.0507 14.1686 21.1191 14.1879 21.1234C14.3266 21.1567 14.2933 21.2664 14.2973 21.3541C14.3039 21.4921 14.2993 21.6304 14.2993 21.7751C14.4863 21.7947 14.4576 21.9251 14.4659 22.0377C14.4743 22.1504 14.4419 22.2831 14.6073 22.2977C14.6569 22.4247 14.5523 22.6141 14.7723 22.6361C14.7829 22.7361 14.7929 22.8254 14.8026 22.9147L14.8476 22.8957C14.8809 22.9571 14.9143 23.0187 14.9476 23.0791C15.0143 23.1957 15.0573 23.3491 15.1576 23.4167C15.2499 23.4791 15.2476 23.5581 15.2909 23.6274C15.3519 23.7244 15.4206 23.8164 15.4866 23.9101C15.4886 23.9131 15.4979 23.9101 15.5016 23.9137C15.5859 23.9851 15.6733 24.0531 15.7526 24.1294C15.7972 24.1788 15.838 24.2315 15.8746 24.2871L15.9293 24.2404C15.8849 24.3991 15.9753 24.4147 16.0766 24.4151C16.0853 24.4677 16.0929 24.5131 16.1006 24.5587L16.2393 24.5774Z" fill="#9E9E9E"/>
<path d="M28.7124 13.0639C28.6764 13.0085 28.6356 12.9564 28.5904 12.9082C28.5571 12.8749 28.5028 12.8646 28.4754 12.8306L28.3188 12.6639C28.2821 12.5909 28.2641 12.5009 28.1778 12.5272L27.9911 12.3422L27.9944 12.3392L26.6891 11.0332L26.6821 11.0372L26.4541 10.7886H26.4498L26.2874 10.6279L26.1541 10.4946C26.0798 10.4179 26.0331 10.3699 25.9874 10.3216L26.0208 10.2792C26.1408 10.2876 26.2721 10.2176 26.3694 10.3716C26.3954 10.4122 26.4968 10.4142 26.5644 10.4182C26.7344 10.4279 26.9058 10.4209 27.0754 10.4352C27.1801 10.4439 27.2824 10.4792 27.4341 10.5136C27.5564 10.4469 27.6294 10.3169 27.6221 10.0996C27.6024 9.51455 27.6154 8.92855 27.6154 8.34322L27.6621 8.36122C27.7151 8.30955 27.7658 8.25522 27.8218 8.20689C27.8456 8.18793 27.8744 8.17635 27.9048 8.17356C27.9683 8.16739 28.0322 8.16472 28.0961 8.16555C29.2101 8.16555 30.3239 8.16555 31.4374 8.16555C31.6707 8.16555 31.6841 8.17955 31.6844 8.40755C31.6844 9.532 31.6844 10.6563 31.6844 11.7806C31.6844 11.8806 31.6884 11.9806 31.5704 12.0386C31.5341 12.0566 31.5294 12.1386 31.4981 12.2252H31.1001C30.6047 12.2252 30.1084 12.2396 29.6138 12.2179C29.4284 12.2096 29.4031 12.3732 29.2861 12.4296C29.2788 12.4332 29.2861 12.5072 29.3014 12.5122C29.4261 12.5582 29.3951 12.6689 29.4014 12.7562C29.4161 12.9206 29.4138 13.0862 29.4244 13.2509C29.4308 13.3509 29.4151 13.4509 29.5244 13.5329C29.5741 13.5699 29.5578 13.6996 29.5608 13.7886C29.5608 13.7986 29.4624 13.8319 29.4484 13.8172C29.3741 13.7396 29.3188 13.6432 29.2441 13.5659C29.1625 13.4881 29.0766 13.415 28.9868 13.3469C28.9678 13.3312 28.9284 13.3202 28.9278 13.3056C28.9231 13.2216 28.8818 13.1922 28.8014 13.1749C28.7718 13.1686 28.7571 13.0902 28.7348 13.0449L28.7124 13.0639Z" fill="#9E9E9E"/>
<path d="M26.1901 29.1143L26.3118 29.0903L26.2881 29.0609L26.7881 28.5639C26.8248 28.5353 26.8798 28.4973 26.9288 28.4523C26.9834 28.4023 27.0348 28.3483 27.0844 28.2936C27.1598 28.2109 27.2324 28.1269 27.3068 28.0416C27.3288 28.0173 27.3521 27.9939 27.3751 27.9703C27.4054 27.9358 27.438 27.9035 27.4728 27.8736C27.5141 27.8403 27.5728 27.8259 27.6061 27.7876C27.6778 27.7026 27.7298 27.5999 27.8061 27.5189C27.8824 27.4379 27.9728 27.3856 28.0514 27.3143C28.0897 27.2727 28.1244 27.2281 28.1554 27.1809L28.4064 26.9583L28.4018 26.9513L28.5351 26.8219L28.7208 26.6239C28.7744 26.5853 28.8408 26.5519 28.8874 26.5009C28.9628 26.4196 29.0248 26.3263 29.0934 26.2386C29.1092 26.2199 29.1263 26.2023 29.1444 26.1859C29.1831 26.1476 29.2224 26.1103 29.2611 26.0719C29.3255 26.0029 29.3936 25.9373 29.4651 25.8756C29.4818 25.8626 29.5671 25.8986 29.5651 25.9089C29.5586 26.0011 29.5434 26.0925 29.5198 26.1819C29.5011 26.2463 29.4411 26.3029 29.4354 26.3663C29.4168 26.5663 29.4154 26.7703 29.4061 26.9723C29.4041 27.0146 29.4121 27.0786 29.3888 27.0956C29.2194 27.2189 29.3194 27.3116 29.4221 27.3956C29.4699 27.436 29.5291 27.4605 29.5914 27.4656C30.1081 27.4709 30.6248 27.4679 31.1414 27.4699C31.2631 27.4699 31.3848 27.4819 31.4658 27.4863C31.5408 27.5779 31.6034 27.6353 31.6411 27.7063C31.6716 27.7685 31.687 27.837 31.6861 27.9063C31.6888 29.0409 31.6888 30.1755 31.6861 31.3099C31.6861 31.5056 31.6604 31.5316 31.4648 31.5316C30.3199 31.5336 29.1747 31.5336 28.0291 31.5316C27.9354 31.5316 27.8221 31.5553 27.7881 31.4113C27.7828 31.3883 27.7044 31.3823 27.6391 31.3623C27.6324 31.2046 27.6198 31.0363 27.6188 30.8676C27.6158 30.3989 27.6044 29.9296 27.6241 29.4616C27.6321 29.2753 27.4698 29.2616 27.4024 29.1556C27.3984 29.1493 27.3518 29.1556 27.3471 29.1666C27.2848 29.3073 27.1564 29.2539 27.0538 29.2633C26.8898 29.2786 26.7238 29.2743 26.5594 29.2886C26.4704 29.2966 26.3831 29.2933 26.3078 29.3886C26.2658 29.4413 26.1314 29.4219 25.9851 29.4396C26.0224 29.3613 26.0348 29.3133 26.0638 29.2796C26.1071 29.2358 26.1538 29.1955 26.2034 29.1589C26.1978 29.1419 26.1941 29.1283 26.1901 29.1143Z" fill="#9E9E9E"/>
<path d="M13.9999 10.3226L13.8599 10.4673C13.8266 10.5356 13.8206 10.6289 13.7166 10.5949L13.5579 10.7863L13.5462 10.7823L13.2129 11.1136L12.2346 12.0956C12.1799 12.1496 12.1255 12.2038 12.0712 12.2583V12.2696C12.0162 12.3045 11.9645 12.3442 11.9166 12.3883C11.8832 12.4216 11.8726 12.4756 11.8362 12.5023L11.6716 12.6639L10.6912 13.6333L10.6969 13.6436L10.4609 13.8476L10.4209 13.8143C10.4339 13.6973 10.3449 13.5583 10.5186 13.4739C10.5456 13.4606 10.5519 13.3893 10.5546 13.3439C10.5646 13.1206 10.5649 12.8966 10.5799 12.6736C10.5832 12.6233 10.6326 12.5759 10.6599 12.5273C10.6766 12.4979 10.6916 12.4676 10.7072 12.4379C10.5779 12.4083 10.5876 12.2133 10.4072 12.2189C9.90724 12.2343 9.40724 12.2243 8.9049 12.2243H8.47757L8.50057 12.1739C8.45057 12.1193 8.39157 12.0699 8.3539 12.0073C8.32271 11.9545 8.30572 11.8946 8.30457 11.8333C8.30024 11.3643 8.30124 10.8956 8.3009 10.4266V8.17927C8.40324 8.17394 8.48657 8.16561 8.56957 8.16561C9.6779 8.16561 10.7862 8.16361 11.8942 8.16794C12.0072 8.16794 12.1576 8.10927 12.2069 8.29561C12.2126 8.31694 12.2926 8.31861 12.3656 8.33561V8.88661C12.3656 9.34461 12.3789 9.8036 12.3589 10.2609C12.3512 10.4439 12.5296 10.4336 12.5769 10.5459C12.584 10.5487 12.5916 10.5499 12.5992 10.5493C12.6068 10.5488 12.6142 10.5466 12.6209 10.5429C12.7812 10.3453 13.0049 10.4653 13.1966 10.4293C13.2792 10.4139 13.3669 10.4269 13.4516 10.4183C13.5032 10.4129 13.5786 10.4066 13.5989 10.3733C13.6929 10.2213 13.8322 10.2909 13.9536 10.2753L13.9999 10.3226Z" fill="#9E9E9E"/>
<path d="M13.1333 28.4933L13.2973 28.6599H13.2993C13.341 28.7019 13.3843 28.7423 13.4243 28.7856C13.4643 28.8289 13.4963 28.8719 13.5376 28.9113L13.8023 29.1583L14.0266 29.4123C13.8386 29.4159 13.7043 29.4679 13.597 29.3263C13.5706 29.2913 13.4883 29.2929 13.4303 29.2879C13.255 29.2773 13.079 29.2763 12.9036 29.2639C12.81 29.2573 12.696 29.2939 12.6423 29.1666C12.6366 29.1533 12.5756 29.1466 12.573 29.1509C12.5256 29.2649 12.3513 29.2629 12.3576 29.4433C12.3756 29.9593 12.364 30.4766 12.364 30.9929C12.364 31.1149 12.364 31.2369 12.364 31.3596L12.325 31.3426C12.274 31.3893 12.225 31.4389 12.1706 31.4816C12.1432 31.5038 12.1102 31.5182 12.0753 31.5233C11.9905 31.5315 11.9054 31.5354 11.8203 31.5349C10.7443 31.5349 9.66818 31.5349 8.59196 31.5349C8.50263 31.5349 8.41363 31.5266 8.31096 31.5216C8.30663 31.4423 8.29996 31.3746 8.29996 31.3069C8.29996 30.1829 8.30074 29.0589 8.3023 27.9349C8.3023 27.8296 8.25296 27.6926 8.4283 27.6523C8.4523 27.6466 8.45696 27.5579 8.47529 27.4909C8.61129 27.4849 8.75396 27.4736 8.89663 27.4729C9.38663 27.4709 9.87763 27.4549 10.3663 27.4809C10.5553 27.4909 10.5713 27.3143 10.698 27.2773C10.6893 27.2499 10.6866 27.2029 10.6713 27.1983C10.5566 27.1633 10.576 27.0699 10.573 26.9879C10.5663 26.8016 10.566 26.6153 10.557 26.4289C10.5523 26.3343 10.569 26.2413 10.4523 26.1703C10.405 26.1413 10.4323 25.9873 10.432 25.8903C10.432 25.8849 10.5046 25.8649 10.5153 25.8769C10.547 25.9129 10.5643 25.9609 10.6076 25.9873C10.6474 26.0406 10.6907 26.0911 10.7373 26.1386C10.8303 26.2233 10.9296 26.3009 11.0153 26.3909L11.1796 26.5513L11.1823 26.5489L11.349 26.7123H11.3526L11.5603 26.9386L11.8336 27.1936V27.1999C11.888 27.2378 11.9394 27.2798 11.9873 27.3256C12.0206 27.3606 12.0336 27.4123 12.073 27.4379L12.2346 27.6046L12.2383 27.6026L12.397 27.7726L12.4056 27.7693C12.4443 27.8183 12.481 27.8693 12.5216 27.9153C12.5403 27.9366 12.5686 27.9486 12.5883 27.9689C12.6216 27.9999 12.6503 28.0356 12.682 28.0663C12.7056 28.0896 12.7313 28.1109 12.7556 28.1329C12.7856 28.1609 12.8146 28.1896 12.845 28.2169C12.8753 28.2443 12.9073 28.2713 12.9383 28.2983C12.9603 28.316 12.9813 28.3349 13.0013 28.3549C13.0436 28.4009 13.0836 28.4486 13.1246 28.4959L13.1333 28.4933Z" fill="#9E9E9E"/>
<path d="M31.4078 18.0116L31.5892 18.2239C31.7558 18.2239 31.6665 18.4103 31.7385 18.4963L31.9128 18.6993C31.9812 18.6796 32.1325 18.7869 32.1795 18.5706C32.1948 18.5013 32.2885 18.4466 32.3505 18.3903C32.4905 18.2626 32.6345 18.1396 32.7732 18.0109C32.7982 17.9876 32.7998 17.9409 32.8232 17.9146C32.9182 17.8073 33.0125 17.6989 33.1158 17.6003C33.2328 17.4883 33.3612 17.3883 33.4825 17.2789C33.5492 17.2179 33.7648 17.2549 33.8085 17.3346C33.8312 17.3639 33.8601 17.3877 33.8932 17.4043C33.9138 17.4179 33.9525 17.4176 33.9598 17.4346C34.0285 17.5709 34.1432 17.6543 34.2632 17.7419C34.3482 17.8039 34.3932 17.9173 34.4695 17.9946C34.5518 18.0789 34.6622 18.1373 34.7362 18.2279C34.7995 18.3033 34.8465 18.3853 34.9435 18.4279C34.9768 18.4426 35.2102 18.6836 35.2378 18.7176C35.3102 18.8016 35.3758 18.8919 35.4422 18.9813C35.4915 19.0479 35.6005 19.0333 35.6228 19.1626C35.6365 19.2409 35.7895 19.2936 35.8775 19.3626C35.8985 19.3793 35.9042 19.4146 35.9222 19.4373C35.9448 19.4656 35.9738 19.4886 35.9988 19.5149C36.0238 19.5413 36.0548 19.5753 36.0815 19.6066C36.0998 19.6283 36.1148 19.6536 36.1335 19.6733C36.1688 19.7146 36.2072 19.753 36.2485 19.7883C36.3058 19.8287 36.3651 19.8662 36.4262 19.9006C36.4015 19.9803 36.3878 20.0909 36.3345 20.1769C36.2812 20.2629 36.1918 20.3126 36.1198 20.3819L35.9298 20.5693C35.9328 20.6273 35.9002 20.7026 35.7508 20.6596C35.7665 20.6776 35.7822 20.6953 35.7982 20.7129C35.7512 20.7523 35.7012 20.7886 35.6578 20.8316C35.5828 20.9066 35.5118 20.9856 35.4395 21.0629C35.4125 21.0943 35.3839 21.1242 35.3538 21.1526C35.3355 21.1686 35.2958 21.1703 35.2872 21.1876C35.2302 21.3316 35.1025 21.4039 34.9928 21.4979C34.9102 21.5686 34.8535 21.6696 34.7802 21.7523C34.7163 21.8294 34.6454 21.9005 34.5685 21.9646C34.4609 22.0454 34.365 22.1409 34.2838 22.2483C34.2202 22.3339 34.1142 22.3869 34.0332 22.4616C34.0053 22.4913 33.9821 22.525 33.9642 22.5616L33.7642 22.7206L33.7855 22.7669C33.7018 22.7669 33.5782 22.8003 33.5415 22.7603C33.4442 22.6503 33.2988 22.6396 33.2035 22.5603C33.0968 22.4703 33.0465 22.3169 32.9562 22.2033C32.8895 22.1196 32.7985 22.0559 32.7182 21.9836C32.6488 21.9209 32.5768 21.8613 32.5098 21.7963C32.4015 21.6913 32.2728 21.5963 32.1975 21.4716C32.1382 21.3716 32.0738 21.3286 31.9735 21.3139C31.9428 21.3093 31.9108 21.3139 31.9002 21.3473C31.8475 21.3979 31.7925 21.4473 31.7428 21.5009C31.7236 21.5239 31.7101 21.5511 31.7035 21.5803C31.6795 21.6706 31.6885 21.7543 31.5638 21.8136C31.4672 21.8593 31.4228 22.0169 31.3565 22.1256C31.2945 22.2273 31.2455 22.3393 31.1688 22.4279C31.1278 22.4753 31.0442 22.4693 31.0328 22.3723C31.0265 22.3087 31.0238 22.2448 31.0248 22.1809C31.0248 20.7365 31.0248 19.2929 31.0248 17.8503C31.0233 17.7864 31.0267 17.7226 31.0352 17.6593C31.0388 17.645 31.0457 17.6318 31.0553 17.6206C31.0649 17.6094 31.0769 17.6006 31.0905 17.5949C31.1162 17.5869 31.1662 17.5949 31.1768 17.6126C31.2612 17.7443 31.3362 17.8839 31.4078 18.0116Z" fill="#9E9E9E"/>
<path d="M4.60528 21.1372L4.35695 20.8672H4.34895L4.18562 20.6982L4.02695 20.5442L4.02928 20.5376L3.80562 20.3302L3.61728 20.1409L3.57495 20.1612C3.57015 20.0883 3.57138 20.015 3.57862 19.9422C3.58462 19.9059 3.62428 19.8736 3.65328 19.8422C3.68228 19.8109 3.71262 19.7946 3.74062 19.7689C3.77395 19.7379 3.80728 19.7022 3.84062 19.6729C3.85895 19.6562 3.88862 19.6486 3.89995 19.6292C3.97195 19.5059 4.05495 19.3979 4.19228 19.3369C4.22095 19.3242 4.21395 19.2449 4.24328 19.2169C4.27262 19.1889 4.32762 19.1836 4.35028 19.1479L4.86662 18.6332C4.91166 18.6039 4.95384 18.5705 4.99262 18.5332C5.04795 18.4759 5.05362 18.3932 5.15928 18.3572C5.24428 18.3289 5.29028 18.1906 5.35928 18.1062C5.41044 18.0472 5.46533 17.9916 5.52362 17.9396C5.60495 17.8639 5.69028 17.7936 5.76995 17.7156C5.85462 17.6319 5.93295 17.5416 6.01462 17.4549C6.03153 17.4369 6.05005 17.4205 6.06995 17.4059C6.12356 17.3712 6.17193 17.329 6.21362 17.2806C6.32328 17.2729 6.47828 17.1666 6.53928 17.3732C6.54328 17.3862 6.58762 17.3859 6.61228 17.3939C6.71228 17.4272 6.78995 17.4692 6.83895 17.5832C6.88495 17.6899 6.98695 17.7736 7.07228 17.8619C7.21628 18.0142 7.36362 18.1636 7.51228 18.3119C7.58595 18.3856 7.66495 18.4546 7.74295 18.5239C7.76228 18.5409 7.79395 18.5459 7.80962 18.5652C7.92128 18.7106 7.92028 18.7112 8.11528 18.7029C8.12095 18.6819 8.12928 18.6582 8.13362 18.6342C8.13795 18.6102 8.13995 18.5826 8.14328 18.5502C8.36662 18.5466 8.26328 18.3576 8.32128 18.2469L8.44362 18.2209C8.46428 18.1356 8.44562 18.0089 8.56462 18.0422C8.65228 17.8812 8.72462 17.7422 8.80895 17.6089C8.81662 17.5969 8.92162 17.6196 8.94628 17.6522C8.97095 17.6849 8.96095 17.7546 8.96095 17.8076C8.96095 19.2729 8.96095 20.7382 8.96095 22.2036C8.96517 22.2353 8.96359 22.2675 8.95628 22.2986C8.93275 22.3487 8.90615 22.3974 8.87662 22.4442C8.84562 22.4066 8.81395 22.3699 8.78462 22.3309C8.77262 22.3149 8.76928 22.2922 8.75762 22.2759C8.69495 22.1886 8.63128 22.1022 8.56795 22.0156L8.60362 21.9822L8.47028 21.9462L8.49462 21.9202L8.34362 21.7422C8.27328 21.6592 8.34362 21.4949 8.15662 21.4609C8.13795 21.4572 8.13295 21.3762 8.11662 21.3106C8.00795 21.3332 7.88528 21.2686 7.80728 21.4376C7.76428 21.5312 7.64262 21.5879 7.55795 21.6632C7.48862 21.7256 7.41762 21.7872 7.35495 21.8559C7.23195 21.9892 7.11762 22.1336 6.99428 22.2682C6.89028 22.3816 6.78262 22.4922 6.66862 22.5956C6.61328 22.6456 6.53962 22.6752 6.47428 22.7142L6.49428 22.7592H6.23762L4.60528 21.1372Z" fill="#9E9E9E"/>
<path d="M20.3143 36.2563C20.2119 36.2616 20.1199 36.2776 20.1619 36.418H19.8823C19.7903 36.318 19.7106 36.229 19.6309 36.1413L19.6203 36.1453C19.5792 36.0908 19.5346 36.0389 19.4869 35.99C19.4063 35.916 19.3149 35.8533 19.2349 35.7786C19.1549 35.704 19.0826 35.6186 19.0049 35.5403C18.9216 35.4563 18.8353 35.3736 18.7513 35.292C18.6746 35.2156 18.5993 35.138 18.5233 35.0613C18.4899 35.028 18.4586 34.9966 18.4256 34.965C18.4049 34.9453 18.3809 34.9283 18.3623 34.9066C18.3216 34.8603 18.2833 34.8113 18.2369 34.7666L18.0836 34.6073L17.9119 34.4406V34.4293C17.8572 34.3932 17.8045 34.3541 17.7539 34.3123C17.7018 34.2626 17.6528 34.2097 17.6073 34.154C17.5333 34.0686 17.4613 33.982 17.3896 33.8946C17.3739 33.8753 17.3683 33.845 17.3496 33.8313C17.2019 33.724 17.1976 33.5863 17.3306 33.4713C17.4013 33.4103 17.4569 33.3313 17.5199 33.261C17.6429 33.1233 17.7533 32.968 17.8939 32.854C18.0118 32.7606 18.1188 32.6543 18.2129 32.537C18.3286 32.3923 18.5009 32.2946 18.6266 32.1566C18.6809 32.097 18.6799 31.9876 18.7016 31.9096L18.2433 31.643C18.2043 31.612 18.1483 31.5833 18.1156 31.538C18.0253 31.4126 17.8903 31.3793 17.7569 31.3293C17.6963 31.3066 17.6569 31.227 17.5903 31.1816C17.5376 31.089 17.5763 31.0483 17.6843 31.0483C17.9293 31.0483 18.1743 31.0463 18.4176 31.0463C19.6843 31.0463 20.9521 31.0471 22.2209 31.0486C22.3053 31.0486 22.4476 31.0003 22.4129 31.1856L21.9543 31.445L21.7046 31.6823C21.5966 31.6823 21.4923 31.7606 21.3853 31.8646C21.3116 31.936 21.2596 32.0813 21.3416 32.1576C21.3919 32.204 21.4346 32.2593 21.4863 32.3036C21.5733 32.3783 21.6716 32.441 21.7529 32.5213C21.8282 32.599 21.8959 32.6837 21.9549 32.7743C22.0036 32.847 22.0883 32.8663 22.1416 32.953C22.2333 33.1006 22.4236 33.1833 22.5416 33.3196C22.6516 33.449 22.8309 33.5716 22.6999 33.7763C22.6645 33.8348 22.626 33.8915 22.5846 33.946C22.5362 34.0018 22.4838 34.054 22.4279 34.1023C22.3349 34.1863 22.2393 34.267 22.1686 34.328L21.9926 34.516L21.9869 34.513L21.8229 34.6766L21.8253 34.686C21.7776 34.7246 21.7289 34.7626 21.6829 34.8033C21.6615 34.8221 21.6429 34.844 21.6279 34.8683C21.6126 34.894 21.6116 34.9393 21.5913 34.949C21.4519 35.0156 21.3716 35.1343 21.2829 35.2543C21.2163 35.3436 21.1006 35.3946 21.0119 35.4686C20.9583 35.5167 20.9083 35.5686 20.8623 35.624C20.7873 35.7086 20.7139 35.795 20.6403 35.881C20.6373 35.8843 20.6403 35.8943 20.6366 35.8956C20.5464 35.9335 20.4741 36.0043 20.4343 36.0936C20.4073 36.146 20.3343 36.174 20.2803 36.2133L20.3143 36.2563Z" fill="#9E9E9E"/>
<path d="M17.5744 8.82863L17.995 8.59529L18.0257 8.62863L18.059 8.48796L18.2007 8.47096C18.2094 8.42429 18.2167 8.38396 18.224 8.34263C18.3404 8.29929 18.501 8.34829 18.548 8.17229C18.5534 8.15329 18.6247 8.15196 18.6837 8.13896C18.6724 8.02796 18.7447 7.90729 18.5697 7.82796C18.4777 7.78596 18.4227 7.66396 18.3487 7.57996C18.2929 7.51248 18.2331 7.44837 18.1697 7.38796C18.029 7.26196 17.874 7.15063 17.7414 7.01663C17.6087 6.88263 17.496 6.72363 17.369 6.58096C17.3154 6.52063 17.207 6.50529 17.2394 6.38363C17.259 6.30896 17.2204 6.22563 17.3464 6.18929C17.4177 6.16896 17.4167 6.03463 17.528 5.98929C17.6127 5.95596 17.649 5.81663 17.7237 5.74163C17.7984 5.66663 17.9127 5.61229 17.9884 5.52996C18.0524 5.46063 18.1274 5.39829 18.1834 5.33196C18.2733 5.22911 18.3705 5.13275 18.474 5.04363C18.5407 4.98396 18.587 4.89996 18.674 4.85029C18.727 4.82029 18.7564 4.75029 18.7947 4.69896C18.8544 4.64963 18.905 4.61163 18.951 4.56863C19.0234 4.50196 19.093 4.42996 19.1634 4.35963C19.26 4.26329 19.3597 4.16963 19.4517 4.06929C19.529 3.98529 19.581 3.85163 19.6737 3.81529C19.805 3.76363 19.807 3.56229 19.994 3.58663C20.1017 3.60096 20.184 3.60596 20.2074 3.71763C20.247 3.76629 20.2834 3.81763 20.327 3.86363C20.3994 3.93796 20.4747 4.00996 20.552 4.07896C20.6357 4.15396 20.7244 4.22363 20.8087 4.29763C20.851 4.33392 20.8906 4.37313 20.9274 4.41496C21.0017 4.50029 21.072 4.58929 21.146 4.67463C21.1697 4.69727 21.1955 4.71759 21.223 4.73529C21.2497 4.75529 21.2787 4.77263 21.3034 4.79496C21.34 4.82829 21.3744 4.86163 21.4084 4.89796C21.4284 4.91896 21.445 4.94296 21.4654 4.96463C21.4967 4.99796 21.5287 5.02863 21.562 5.05896C21.5804 5.07529 21.6107 5.08363 21.6207 5.10296C21.6844 5.22729 21.7967 5.29996 21.899 5.38663C21.9827 5.45763 22.044 5.55563 22.1144 5.64229C22.1267 5.65763 22.1317 5.68496 22.1477 5.69129C22.288 5.74963 22.3637 5.86663 22.4477 5.98429C22.5207 6.08429 22.6324 6.15796 22.738 6.25329C22.7117 6.34863 22.8324 6.49229 22.6267 6.56329C22.5484 6.59029 22.5137 6.72996 22.4457 6.80329C22.367 6.89029 22.2727 6.96329 22.1864 7.04329C22.111 7.11329 22.0366 7.18418 21.963 7.25596C21.8697 7.34729 21.7767 7.43896 21.6867 7.53296C21.6127 7.61007 21.5413 7.6894 21.4724 7.77096C21.4137 7.84063 21.3447 7.90829 21.3094 7.98963C21.274 8.07096 21.3054 8.11263 21.4007 8.17496C21.5117 8.24763 21.6034 8.32829 21.742 8.34429C21.7637 8.34663 21.7754 8.42363 21.7964 8.47463L21.933 8.49363C21.9417 8.53996 21.9494 8.58029 21.9584 8.62696C21.9843 8.62948 22.01 8.63359 22.0354 8.63929C22.122 8.66429 22.2497 8.61429 22.266 8.77263C22.268 8.79363 22.354 8.80596 22.4104 8.82529C22.4577 8.94563 22.393 8.97129 22.2807 8.97096C21.6254 8.97096 20.9704 8.97096 20.314 8.97096C19.4507 8.97096 18.5876 8.97096 17.7247 8.97096C17.6334 8.96863 17.5294 8.97796 17.5744 8.82863Z" fill="#9E9E9E"/>
<path d="M9.27611 22.6066C9.27178 22.5066 9.26478 22.4239 9.26478 22.3399C9.26478 20.7626 9.26644 19.1853 9.26111 17.6066C9.26111 17.4556 9.29711 17.3866 9.45477 17.4113C9.50754 17.4187 9.56091 17.4209 9.61411 17.4179C9.71611 17.4143 9.75111 17.4583 9.75077 17.5613C9.74811 19.1759 9.74811 20.7906 9.75077 22.4053C9.75077 22.5666 9.69611 22.6256 9.53844 22.6073C9.45108 22.6022 9.3635 22.602 9.27611 22.6066Z" fill="#9E9E9E"/>
<path d="M30.7076 17.4148V22.5964H30.2379V22.3518C30.2379 20.7711 30.2399 19.1908 30.2343 17.6101C30.2343 17.4641 30.2759 17.4068 30.4179 17.4138C30.5119 17.4184 30.6062 17.4148 30.7076 17.4148Z" fill="#9E9E9E"/>
<path d="M22.5765 9.29468V9.74201H17.4172V9.29468H22.5765Z" fill="#9E9E9E"/>
<path d="M17.4086 30.722V30.274H22.5666V30.722H17.4086Z" fill="#9E9E9E"/>
<path d="M25.9464 11.2776C25.9101 11.228 25.8797 11.1663 25.8301 11.1236C25.7634 11.064 25.6784 10.9593 25.6394 10.9476C25.4184 10.881 25.5637 10.728 25.5417 10.6643C25.6084 10.587 25.6504 10.531 25.6997 10.4786C25.7184 10.4596 25.7664 10.4376 25.7734 10.4453C25.81 10.4904 25.8435 10.5381 25.8734 10.588L25.9881 10.604C25.9964 10.6473 26.0051 10.6926 26.0157 10.747L26.1531 10.7653C26.1594 10.815 26.1647 10.856 26.1711 10.9063L26.3064 10.9303L26.2851 10.956L26.4464 11.1173L26.6084 11.284V11.2906C26.6557 11.3323 26.7041 11.3723 26.7494 11.416C26.8241 11.4876 26.9007 11.5583 26.9694 11.636C27.0381 11.7136 27.0927 11.823 27.1764 11.8876C27.2917 11.9766 27.4067 12.0543 27.4811 12.1876C27.5194 12.2543 27.6954 12.2103 27.6124 12.4033L27.6814 12.3476C27.7154 12.4021 27.7543 12.4533 27.7977 12.5006C27.8311 12.534 27.8841 12.5446 27.9417 12.5723C27.9464 12.6033 27.9534 12.6486 27.9611 12.6973L28.1011 12.7153L28.1251 12.8563L28.2201 12.8733L28.4681 13.1566L28.4734 13.1483L29.3911 14.0816C29.2461 14.1256 29.2507 14.355 29.0577 14.3256C29.0048 14.3116 28.9572 14.2824 28.9207 14.2416C28.8501 14.1726 28.8001 14.075 28.7207 14.0246C28.6041 13.9452 28.5035 13.8445 28.4244 13.7276C28.3534 13.6316 28.2371 13.569 28.1547 13.4706C28.1003 13.4334 28.0486 13.3923 28.0001 13.3476C27.9264 13.2706 27.8611 13.1856 27.7917 13.1046C27.7704 13.0796 27.7484 13.055 27.7251 13.032C27.6917 12.9986 27.6584 12.9716 27.6271 12.9393C27.6101 12.9213 27.6017 12.8946 27.5834 12.8783C27.5331 12.8343 27.4797 12.7936 27.4061 12.734C26.9354 12.2651 26.4488 11.7796 25.9464 11.2776Z" fill="#9E9E9E"/>
<path d="M12.0767 26.4668L12.2387 26.6275L12.4017 26.7885L12.4054 26.7851C12.9465 27.3269 13.4877 27.8685 14.0291 28.4098L14.0247 28.4135L14.1874 28.5748C14.2611 28.6081 14.3487 28.6298 14.3084 28.7625L14.4664 28.7921L14.4541 29.0705L14.4247 29.0525C14.3781 29.1015 14.3341 29.1525 14.2837 29.1981C14.2607 29.2188 14.2067 29.2441 14.1984 29.2355C14.1137 29.1518 14.0357 29.0615 13.9524 28.9771L13.7667 28.7955L13.6277 28.6551H13.6174C13.5821 28.6006 13.5422 28.5492 13.4981 28.5015C13.4061 28.4171 13.3064 28.3411 13.2214 28.2525L12.2407 27.2718L12.2381 27.2755L12.0794 27.1108L12.0767 27.1135L11.9177 26.9488C11.8881 26.8691 11.8581 26.7911 11.7824 26.8128L11.5901 26.6275H11.5867L11.3594 26.3821H11.3477C11.3067 26.3298 11.2617 26.2798 11.2251 26.2245C11.1797 26.1561 11.0727 26.1811 11.0427 26.0601C11.0214 25.9731 10.8801 25.9165 10.7937 25.8445C10.7735 25.8234 10.7546 25.8011 10.7371 25.7778C10.6864 25.7238 10.6054 25.6758 10.5944 25.6145C10.5874 25.5761 10.7164 25.5251 10.7277 25.4681C10.7547 25.3315 10.8594 25.3778 10.9277 25.3681C10.9701 25.3631 11.0251 25.4145 11.0647 25.4508C11.1424 25.5225 11.2144 25.6008 11.2874 25.6775C11.3781 25.7731 11.4737 25.8651 11.5541 25.9681C11.6044 26.0311 11.7087 26.0091 11.7347 26.1348C11.7521 26.2178 11.8984 26.2708 11.9791 26.3455C12.0164 26.3788 12.0347 26.4351 12.0617 26.4788L12.0767 26.4668Z" fill="#9E9E9E"/>
<path d="M12.1667 13.1564L11.9147 13.3867L11.9187 13.4001C11.8641 13.4399 11.8121 13.4832 11.763 13.5297C11.689 13.6091 11.6267 13.6997 11.5513 13.7781C11.476 13.8564 11.382 13.9314 11.3007 14.0114C11.206 14.1051 11.1163 14.2034 11.0043 14.3207C10.913 14.3161 10.771 14.3664 10.724 14.1737C10.7153 14.1374 10.6473 14.1154 10.6077 14.0874L10.7703 13.8971H10.7723C10.8723 13.7907 10.967 13.6811 11.0703 13.5791C11.1533 13.4974 11.2457 13.4247 11.334 13.3481C11.3373 13.3454 11.348 13.3481 11.349 13.3451C11.3912 13.2578 11.4607 13.1868 11.547 13.1427C11.5993 13.1121 11.627 13.0404 11.6787 12.9914L11.8403 12.8281L11.868 12.8507C11.875 12.8097 11.8817 12.7691 11.89 12.7174L12.0277 12.6884L12.0437 12.5947L12.2333 12.4434L12.226 12.4287L12.422 12.2431C12.6077 12.0274 12.8323 11.8144 13.0527 11.5971C13.273 11.3797 13.472 11.1557 13.693 10.9467C13.7747 10.9207 13.872 10.9101 13.823 10.7657C13.931 10.7567 14.0333 10.7517 13.9833 10.6067L14.137 10.5841L14.1167 10.5607L14.2277 10.4387L14.416 10.6284L14.4563 10.6027C14.462 10.6964 14.4673 10.7901 14.4733 10.8904C14.3903 10.9284 14.2497 10.9061 14.315 11.0704C14.1877 11.0667 14.115 11.1037 14.1553 11.2497L14.097 11.2037C14.0593 11.2571 14.0253 11.3134 13.9827 11.3627C13.9329 11.419 13.8796 11.4722 13.8233 11.5221C13.7423 11.5954 13.6567 11.6647 13.5753 11.7371C13.5003 11.8037 13.4133 11.8604 13.3557 11.9391C13.2761 12.0569 13.1741 12.158 13.0557 12.2367C12.9687 12.2914 12.9223 12.4067 12.848 12.4867C12.8147 12.5244 12.758 12.5431 12.7273 12.5824L12.5607 12.7437V12.7527C12.5064 12.7896 12.4552 12.8308 12.4077 12.8761C12.3743 12.9111 12.3617 12.9627 12.3247 12.9891L12.1603 13.1497L12.1667 13.1564Z" fill="#9E9E9E"/>
<path d="M28.7189 26.3051L28.5565 26.4667C28.4699 26.4867 28.4065 26.5301 28.4302 26.6617C28.3085 26.6461 28.2472 26.6917 28.2702 26.8217C28.1529 26.8101 28.0832 26.8474 28.1092 26.9764L27.9629 26.9977C27.9705 27.0101 27.9785 27.0224 27.9865 27.0347C27.9374 27.0707 27.8909 27.11 27.8472 27.1524C27.8139 27.1907 27.7905 27.2407 27.7499 27.2691L26.9282 28.0874V28.0901L26.7595 28.2667C26.6849 28.3357 26.6035 28.4117 26.5222 28.4874V28.4907C26.4695 28.5451 26.4165 28.5991 26.3635 28.6534L26.3335 28.6297C26.3265 28.6704 26.3196 28.7111 26.3112 28.7604C26.2446 28.7891 26.1062 28.7584 26.1509 28.8737L25.9415 29.0811L25.7562 29.2334L25.5702 29.0587L25.5396 29.0787C25.5316 28.9904 25.5235 28.9017 25.5179 28.8351L25.7792 28.5997L25.9586 28.4137H25.9615L26.1149 28.2621L26.2405 28.1211L27.7439 26.6211L27.7485 26.6254L27.9125 26.4627L27.9095 26.4581L28.0762 26.2997L28.0722 26.2877C28.1271 26.2521 28.1787 26.2117 28.2265 26.1671C28.3009 26.0847 28.3599 25.9897 28.4355 25.9081C28.5112 25.8264 28.5929 25.7557 28.6739 25.6821C28.7549 25.6084 28.8532 25.5551 28.9029 25.4687C28.9415 25.4021 28.9615 25.3447 29.0452 25.3631C29.1289 25.3814 29.2525 25.3397 29.2552 25.4934C29.2565 25.5035 29.2602 25.5132 29.266 25.5216C29.2718 25.53 29.2795 25.5369 29.2885 25.5417C29.4669 25.5957 29.4145 25.6174 29.2885 25.6921C29.1942 25.7481 29.1475 25.8797 29.0702 25.9694C29.0032 26.0413 28.932 26.1091 28.8569 26.1724C28.8109 26.2147 28.7622 26.2544 28.7145 26.2951L28.7189 26.3051Z" fill="#9E9E9E"/>
<path d="M16.8764 16.4258C16.9147 16.5568 16.9404 16.6824 16.7764 16.7521C16.7574 16.7601 16.7481 16.7908 16.7341 16.8111C16.7009 16.863 16.6604 16.9099 16.6137 16.9501C16.5501 17.0501 16.6317 17.2224 16.4367 17.2574C16.4254 17.2594 16.4237 17.3151 16.4177 17.3458C16.4001 17.4358 16.4431 17.5521 16.2917 17.5821C16.2671 17.5871 16.2604 17.7034 16.2527 17.7694C16.2451 17.8354 16.2661 17.9061 16.1651 17.9298C16.1357 17.9364 16.1091 18.0124 16.1054 18.0588C16.0924 18.2231 16.0917 18.3884 16.0827 18.5531C16.0807 18.5944 16.0761 18.6638 16.0554 18.6711C15.8974 18.7254 15.9414 18.8568 15.9404 18.9641C15.9367 19.2994 15.9364 19.6351 15.9477 19.9704C15.9497 20.0351 16.0117 20.0974 16.0437 20.1621C16.0643 20.1959 16.0783 20.2332 16.0851 20.2721C16.0941 20.3994 16.0851 20.5284 16.1041 20.6544C16.1144 20.7251 16.1631 20.7904 16.1941 20.8581L16.2441 20.8418C16.2481 20.9104 16.2327 20.9881 16.2601 21.0458C16.3287 21.1904 16.4067 21.3284 16.4661 21.4791C16.4917 21.5458 16.5677 21.6158 16.5811 21.7084C16.5847 21.7341 16.5891 21.7801 16.5984 21.7814C16.7471 21.8044 16.7141 21.9431 16.7667 22.0271C16.8357 22.1378 16.9361 22.2291 17.0307 22.3271L17.2567 22.5834L17.2611 22.5798L17.4031 22.7168L17.5971 22.8918L17.5891 22.8991L17.7681 23.0481C17.9721 23.0874 18.1074 23.2378 18.2874 23.4178C18.3521 23.4464 18.5207 23.3711 18.5827 23.5511C18.5907 23.5754 18.6694 23.5781 18.7161 23.5861C18.8341 23.6061 18.9677 23.5691 19.0457 23.7174C19.0644 23.7528 19.1751 23.7374 19.2427 23.7508C19.4054 23.7811 19.5971 23.7054 19.7221 23.8804C19.7307 23.8924 19.7624 23.8911 19.7834 23.8911C20.1397 23.8911 20.5134 23.9578 20.8467 23.8691C21.0821 23.8071 21.3467 23.8251 21.5431 23.7168C21.7097 23.6248 21.9167 23.6528 22.0317 23.5501C22.1467 23.4474 22.2754 23.4501 22.3861 23.3858C22.4861 23.3298 22.5461 23.2111 22.6407 23.1438C22.7057 23.0981 22.7997 23.0938 22.8634 23.0524L23.0387 22.8974L23.0434 22.9064L23.2004 22.7364L23.2074 22.7418L23.3704 22.5778C23.4127 22.5111 23.4204 22.4111 23.5167 22.4411L23.6901 22.2448L23.7054 22.2601C23.7836 22.1226 23.8621 21.9851 23.9407 21.8478L23.9147 21.8254L24.0461 21.7888C24.0724 21.6621 24.0224 21.5091 24.2021 21.4571C24.2241 21.4508 24.2094 21.3458 24.2284 21.2924C24.2508 21.2423 24.2806 21.1958 24.3167 21.1544C24.3277 21.1398 24.3667 21.1304 24.3654 21.1241C24.3127 20.8654 24.6244 20.7128 24.5561 20.4388C24.5247 20.3134 24.5727 20.1681 24.5847 20.0318L24.6427 20.0288C24.6564 20.0578 24.6814 20.0864 24.6817 20.1158C24.6857 20.3128 24.6844 20.5094 24.6841 20.7064C24.6841 20.7274 24.6881 20.7598 24.6764 20.7681C24.4691 20.9188 24.5687 21.1458 24.5354 21.3384C24.5237 21.4071 24.5354 21.4741 24.4421 21.4978C24.4171 21.5041 24.3951 21.5644 24.3904 21.6004C24.3764 21.7108 24.3714 21.8221 24.3627 21.9371L24.2274 21.9831C24.2197 22.0794 24.2124 22.1691 24.2044 22.2674L24.0711 22.3104C24.0621 22.4018 24.0534 22.4908 24.0434 22.5908L23.9051 22.6241C23.8997 22.6691 23.8941 22.7151 23.8881 22.7641C23.6834 22.7814 23.7547 22.9594 23.6881 23.0518L23.4474 23.2894V23.3001C23.3951 23.3411 23.3394 23.3791 23.2907 23.4244C23.2361 23.4751 23.1871 23.5321 23.1364 23.5868C23.0601 23.6694 22.9931 23.7638 22.9064 23.8334C22.7704 23.9416 22.6236 24.0354 22.4684 24.1134C22.4547 24.2171 22.3734 24.2278 22.2754 24.2421C22.2087 24.2518 22.1471 24.3034 22.0927 24.3568C21.9967 24.4384 21.8011 24.3234 21.7811 24.5494C21.7041 24.5544 21.6301 24.5578 21.5564 24.5644C21.5261 24.5671 21.4731 24.5701 21.4691 24.5841C21.4154 24.7724 21.2594 24.7024 21.1397 24.7174C21.0607 24.7274 20.9801 24.7228 20.9004 24.7291C20.8707 24.7314 20.8207 24.7404 20.8164 24.7564C20.7754 24.9058 20.6537 24.8704 20.5547 24.8714C20.1767 24.8751 19.7984 24.8744 19.4214 24.8714C19.3304 24.8714 19.2247 24.8934 19.1851 24.7634C19.1791 24.7438 19.1227 24.7318 19.0891 24.7301C18.9774 24.7224 18.8654 24.7231 18.7537 24.7164C18.6677 24.7111 18.5671 24.7328 18.5391 24.6044C18.5347 24.5854 18.4801 24.5711 18.4471 24.5664C18.3734 24.5574 18.2991 24.5561 18.2167 24.5514C18.2007 24.3284 18.0141 24.4304 17.8934 24.3804C17.8774 24.1804 17.6984 24.2638 17.5897 24.2161L17.6077 24.1794C17.5464 24.1461 17.4831 24.1128 17.4244 24.0744C17.3657 24.0361 17.3094 23.9861 17.2507 23.9431C17.1544 23.8731 17.0507 23.8124 16.9617 23.7331C16.8794 23.6588 16.8147 23.5664 16.7417 23.4801C16.7227 23.4588 16.6997 23.4411 16.6794 23.4208C16.6477 23.3874 16.6184 23.3541 16.5847 23.3238C16.5421 23.2895 16.5016 23.2527 16.4634 23.2134C16.4107 23.1578 16.3577 23.1024 16.3047 23.0468L16.2784 23.0681C16.2651 22.9801 16.2521 22.8921 16.2377 22.7984L16.1091 22.7651C16.1031 22.7194 16.0971 22.6731 16.0894 22.6164L15.9601 22.5928C15.9214 22.3068 15.9214 22.3068 15.7934 22.2594C15.7451 22.1464 15.8434 21.9628 15.6301 21.9341C15.6227 21.8321 15.6261 21.7341 15.6057 21.6421C15.5924 21.5828 15.5437 21.5314 15.5124 21.4754C15.4896 21.4439 15.4729 21.4084 15.4631 21.3708C15.4517 21.2708 15.4564 21.1681 15.4434 21.0681C15.4304 20.9681 15.4647 20.8511 15.3334 20.7931C15.3111 20.7831 15.3064 20.7161 15.3064 20.6754C15.3047 20.2281 15.3034 19.7811 15.3087 19.3341C15.3087 19.2861 15.3541 19.2388 15.3777 19.1908C15.4 19.1575 15.4168 19.1208 15.4274 19.0821C15.4421 18.9554 15.4484 18.8278 15.4581 18.7004C15.4634 18.6291 15.4537 18.5651 15.5507 18.5238C15.5947 18.5051 15.5971 18.3841 15.6137 18.3081C15.6351 18.2101 15.5804 18.0914 15.7377 18.0354C15.7827 18.0191 15.7774 17.8618 15.7977 17.7554C15.9821 17.7391 15.9267 17.5768 15.9461 17.4838C16.1044 17.3201 16.2861 17.2008 16.2687 16.9504L16.4144 16.9128L16.4337 16.7734L16.5711 16.7511C16.5794 16.7078 16.5881 16.6628 16.5981 16.6114L16.7314 16.5874C16.7394 16.5431 16.7474 16.4978 16.7561 16.4498L16.8837 16.4264L16.8764 16.4258Z" fill="#9E9E9E"/>
<path d="M16.8801 16.4287C16.8898 16.401 16.8925 16.3657 16.9111 16.347C16.9394 16.3187 16.9744 16.2982 17.0128 16.2873C17.0218 16.2847 17.0648 16.3423 17.0588 16.3627C17.0521 16.3794 17.042 16.3945 17.0292 16.407C17.0163 16.4196 17.001 16.4294 16.9841 16.4357C16.9531 16.446 16.9135 16.4307 16.8771 16.4263L16.8801 16.4287Z" fill="#9E9E9E"/>
</svg>
