<svg width="40" height="40" viewBox="0 0 40 40" fill="none" xmlns="http://www.w3.org/2000/svg">
<path d="M34.9066 25.612C34.8724 25.6678 34.8434 25.7266 34.8199 25.7876C34.7866 25.9003 34.8532 26.052 34.6812 26.109C34.6669 26.1136 34.6732 26.1733 34.6649 26.2063C34.6452 26.2826 34.6886 26.3913 34.5509 26.4113C34.5316 26.414 34.5246 26.5066 34.5126 26.5576C34.5026 26.599 34.4976 26.675 34.4826 26.677C34.3416 26.696 34.4029 26.83 34.3529 26.8886C34.2419 27.0186 34.2482 27.2083 34.1129 27.322C34.0906 27.3406 34.0862 27.381 34.0746 27.412C34.0452 27.4906 34.0746 27.59 33.9452 27.63C33.9022 27.6433 33.8999 27.788 33.8452 27.8573C33.8149 27.914 33.7806 27.969 33.7552 28.028C33.7276 28.0923 33.7632 28.1946 33.6392 28.1986C33.6269 28.1986 33.6139 28.244 33.6042 28.2693C33.5946 28.2946 33.5936 28.336 33.5846 28.336C33.4022 28.3586 33.4766 28.5126 33.4339 28.6216L33.3312 28.655L33.1146 29.0426L33.1249 29.0446L32.9716 29.2166H32.9532C32.9199 29.2776 32.8899 29.3413 32.8512 29.399C32.8066 29.4656 32.7512 29.5263 32.7056 29.591C32.6722 29.636 32.6442 29.6836 32.6212 29.7183C32.5482 29.7783 32.4822 29.8106 32.4502 29.864C32.4046 29.9393 32.3122 30.014 32.3009 30.066C32.2676 30.2156 32.1342 30.28 32.0769 30.4036C32.0376 30.4876 31.9209 30.5326 31.8472 30.6036C31.8139 30.637 31.7982 30.6903 31.7542 30.718C31.7189 30.7633 31.6876 30.8106 31.6479 30.8513C31.6253 30.872 31.6003 30.89 31.5736 30.905C31.5497 30.9181 31.5273 30.9339 31.5069 30.952C31.4669 30.998 31.4312 31.0473 31.3966 31.0916L31.0942 31.3916L31.0912 31.388L30.9432 31.5416L30.9399 31.538C30.8902 31.5886 30.8399 31.638 30.7912 31.6896L30.7629 31.6673C30.7546 31.7046 30.7466 31.742 30.7362 31.7893L30.6136 31.8116L30.6336 31.845C30.5822 31.8764 30.5336 31.9122 30.4882 31.952C30.4576 31.983 30.4549 32.0443 30.4216 32.0686C30.3256 32.1396 30.2182 32.195 30.1216 32.2636C30.0249 32.3323 29.9089 32.3936 29.8422 32.506C29.824 32.5261 29.8011 32.5414 29.7756 32.5506C29.7512 32.564 29.7132 32.5666 29.7016 32.5863C29.609 32.7423 29.4613 32.8578 29.2876 32.91C29.2366 32.9433 29.1542 32.967 29.1406 33.012C29.0862 33.1886 28.8316 33.093 28.7936 33.2806C28.7912 33.292 28.7602 33.297 28.7456 33.307C28.6932 33.3403 28.6419 33.3736 28.5899 33.407L28.6079 33.4423L28.3672 33.4723C28.3546 33.5096 28.3409 33.55 28.3269 33.59C28.1692 33.5856 28.1199 33.8206 27.9352 33.7666C27.9206 33.7623 27.8842 33.8333 27.8629 33.8723C27.7816 33.9496 27.5852 33.8203 27.5832 34.039C27.5076 34.048 27.4079 34.0306 27.3776 34.0683C27.2806 34.1896 27.1046 34.1683 27.0279 34.2543C26.9512 34.3403 26.8796 34.3413 26.7986 34.3673C26.7896 34.3703 26.7769 34.3673 26.7696 34.371C26.7029 34.413 26.6392 34.4626 26.5696 34.4976C26.4999 34.5326 26.3899 34.4886 26.3596 34.6163C26.3532 34.6433 26.2549 34.6496 26.1979 34.6626C26.0979 34.6826 25.9749 34.6413 25.9256 34.782C25.9206 34.7966 25.8726 34.7966 25.8442 34.8036C25.7572 34.825 25.6489 34.7876 25.6022 34.919C25.5912 34.9503 25.4859 34.9523 25.4236 34.9613C25.3292 34.978 25.2189 34.9406 25.1696 35.0803C25.1582 35.1136 25.0362 35.1033 24.9632 35.1136C24.8699 35.1286 24.7576 35.0826 24.7066 35.2253C24.6952 35.2586 24.5732 35.2463 24.5009 35.2586C24.4096 35.2756 24.2872 35.218 24.2476 35.3676C24.2426 35.3866 24.1786 35.3963 24.1409 35.399C24.0329 35.4073 23.9246 35.4103 23.8162 35.415C23.7522 35.4176 23.6876 35.4096 23.6722 35.5026C23.6692 35.5223 23.6116 35.544 23.5779 35.5463C23.4446 35.556 23.3112 35.5543 23.1779 35.5643C23.0779 35.572 22.9556 35.5336 22.9002 35.6736C22.8926 35.693 22.8296 35.696 22.7919 35.6973C22.5752 35.705 22.3586 35.7066 22.1416 35.7193C22.0986 35.7216 22.0592 35.7673 22.0156 35.786C21.9659 35.8086 21.9136 35.839 21.8612 35.8413C21.4326 35.8596 21.0036 35.869 20.5749 35.8896C20.4989 35.8936 20.4259 35.94 20.3502 35.9633C20.3089 35.9769 20.266 35.9849 20.2226 35.9873C20.0847 35.9946 19.9464 35.994 19.8086 35.9853C19.7179 35.9766 19.6306 35.9333 19.5419 35.9096C19.4948 35.8969 19.4464 35.8893 19.3976 35.887C18.9839 35.872 18.5696 35.859 18.1556 35.8446C18.0792 35.842 17.9979 35.8563 17.9612 35.753C17.9529 35.7296 17.8846 35.7196 17.8436 35.7176C17.6269 35.7083 17.4102 35.7076 17.1929 35.695C17.1429 35.692 17.0956 35.6513 17.0456 35.6323C16.9805 35.6022 16.9122 35.5798 16.8419 35.5656C16.7349 35.5523 16.6252 35.5603 16.5172 35.5526C16.4312 35.5466 16.3222 35.5826 16.2946 35.4443C16.2916 35.4296 16.2352 35.4203 16.2029 35.418C16.0949 35.4103 15.9849 35.418 15.8789 35.3983C15.8226 35.389 15.7732 35.34 15.7196 35.311C15.6892 35.2905 15.6553 35.2757 15.6196 35.2673C15.5316 35.257 15.4426 35.257 15.3529 35.2506C15.3246 35.2486 15.2752 35.2446 15.2716 35.2316C15.2289 35.071 15.0962 35.126 14.9936 35.1116C14.9072 35.0996 14.8059 35.1306 14.7712 34.9993C14.7652 34.9756 14.6742 34.9726 14.6219 34.963C14.5179 34.9443 14.3956 34.9846 14.3339 34.8413C14.3202 34.808 14.2166 34.8163 14.1546 34.8046C14.0629 34.7873 13.9546 34.8123 13.9056 34.69C13.8976 34.6693 13.8346 34.6726 13.7979 34.6613C13.7212 34.637 13.6102 34.6766 13.5869 34.5476C13.5846 34.5343 13.5476 34.5246 13.5252 34.5186C13.4299 34.493 13.3039 34.5303 13.2656 34.3853C13.2619 34.371 13.2009 34.375 13.1689 34.3636C13.0986 34.3393 12.9882 34.3796 12.9802 34.2506C12.9802 34.247 12.9732 34.24 12.9706 34.2403C12.7562 34.2636 12.6456 34.007 12.4412 34.007L12.2369 33.8983C12.1766 33.8695 12.1216 33.8307 12.0742 33.7836C11.8546 33.7806 11.7442 33.6126 11.6152 33.469L11.3696 33.44L11.3362 33.3293L10.9539 33.1173C10.8872 33.072 10.8059 33.046 10.7942 33.0013C10.7456 32.8166 10.5159 32.8953 10.4416 32.7346C10.4039 32.654 10.2592 32.6276 10.2109 32.5476C10.1222 32.4013 9.91457 32.433 9.84424 32.271C9.83057 32.2403 9.76157 32.234 9.73091 32.2013L9.51091 31.9823L9.53324 31.9666L9.40357 31.9476C9.39691 31.903 9.39124 31.8653 9.38424 31.8196L9.25724 31.8006L9.27857 31.7706L9.12391 31.6283L9.11924 31.635L7.77791 30.264L7.78157 30.255C7.73384 30.2172 7.68811 30.1769 7.64457 30.1343C7.62535 30.1083 7.611 30.0791 7.60224 30.048C7.57191 29.9743 7.60224 29.8623 7.46891 29.8523C7.45091 29.8506 7.43891 29.77 7.42124 29.7173L7.34257 29.701L7.19991 29.519L7.18924 29.5283C7.11824 29.395 7.05824 29.2556 6.97224 29.1336C6.91424 29.051 6.81824 28.9953 6.74257 28.924C6.72632 28.902 6.71495 28.8767 6.70924 28.85C6.67957 28.7703 6.70724 28.6736 6.57791 28.6316C6.50724 28.6086 6.46424 28.4886 6.41791 28.4073C6.37157 28.326 6.41791 28.1923 6.26891 28.176C6.25991 28.176 6.25657 28.132 6.24891 28.1093C6.22091 28.0263 6.26357 27.9013 6.11557 27.8866C6.10424 27.8866 6.10024 27.826 6.08991 27.7946C6.06624 27.7223 6.09657 27.6176 5.97224 27.603C5.95791 27.6013 5.95057 27.555 5.93657 27.5316C5.91391 27.4943 5.88857 27.459 5.86457 27.423C5.83961 27.3945 5.81792 27.3633 5.79991 27.33C5.76891 27.248 5.81791 27.119 5.66391 27.1106C5.65624 27.1106 5.64891 27.068 5.64424 27.044C5.62624 26.9523 5.67124 26.8306 5.52191 26.8006C5.50691 26.7976 5.50057 26.7403 5.49424 26.7073C5.47891 26.627 5.50224 26.5406 5.38357 26.4963C5.34191 26.4803 5.35624 26.3336 5.33257 26.2503C5.30876 26.1853 5.27978 26.1223 5.24591 26.062L5.20024 26.0773C5.19457 26.014 5.18991 25.9506 5.18324 25.8873C5.18024 25.859 5.18057 25.8106 5.16657 25.8053C5.00324 25.7436 5.06057 25.595 5.02824 25.4803C5.01224 25.424 4.95991 25.3803 4.93391 25.324C4.91386 25.2764 4.89921 25.2268 4.89024 25.176C4.86557 25.065 4.92524 24.9203 4.76357 24.8646C4.75757 24.8626 4.75424 24.848 4.75224 24.8386C4.69313 24.5633 4.63435 24.2879 4.57591 24.0123C4.56057 23.9396 4.54924 23.879 4.49157 23.8123C4.43391 23.7456 4.44591 23.6003 4.42857 23.49C4.41191 23.3853 4.46191 23.261 4.32557 23.1923C4.30091 23.1796 4.29824 23.1113 4.29557 23.068C4.28591 22.8956 4.28291 22.723 4.27191 22.551C4.26657 22.4626 4.28324 22.3713 4.17924 22.3063C4.13991 22.282 4.13957 22.18 4.13791 22.113C4.12824 21.7433 4.12691 21.373 4.11357 21.0036C4.11124 20.9396 4.06257 20.8783 4.03991 20.8143C4.01567 20.7616 4.00014 20.7053 3.99391 20.6476C3.99057 20.204 3.98857 19.76 3.99591 19.3163C3.99791 19.2053 3.97657 19.0776 4.10024 18.996C4.12391 18.9803 4.11657 18.9126 4.11757 18.869C4.12524 18.509 4.12524 18.1486 4.14257 17.7893C4.14657 17.7016 4.20624 17.6166 4.23857 17.5296C4.254 17.4951 4.26411 17.4585 4.26857 17.421C4.27657 17.2683 4.27457 17.115 4.28724 16.963C4.29357 16.8863 4.27224 16.7903 4.38224 16.7513C4.40091 16.7446 4.40891 16.692 4.41191 16.6596C4.42457 16.5323 4.42791 16.4036 4.44524 16.2773C4.45191 16.2316 4.49224 16.1913 4.51424 16.1473C4.53641 16.1119 4.55252 16.073 4.56191 16.0323C4.57457 15.9296 4.57491 15.8256 4.58591 15.7226C4.59324 15.6536 4.57791 15.5703 4.67957 15.5446C4.69557 15.5406 4.70757 15.4966 4.71291 15.4696C4.72457 15.392 4.74624 15.3116 4.73691 15.2363C4.71424 15.0253 4.95624 14.8966 4.90357 14.6793C5.06624 14.5983 5.02257 14.4386 5.04691 14.3046C5.05191 14.2773 5.05857 14.2303 5.07257 14.227C5.21324 14.196 5.17624 14.0803 5.18957 13.99C5.20291 13.8996 5.18957 13.818 5.29924 13.7566C5.35124 13.7276 5.34191 13.59 5.36324 13.4863C5.55224 13.467 5.46324 13.2943 5.50591 13.175L5.62391 13.1436C5.63191 13.0533 5.63891 12.9703 5.64724 12.877L5.75957 12.842C5.81791 12.7353 5.71491 12.556 5.90757 12.542C5.97157 12.435 5.85791 12.2513 6.06557 12.2456C6.10924 12.134 6.07524 12.0246 6.20824 11.9376C6.32091 11.864 6.36024 11.6786 6.44157 11.5456C6.47491 11.493 6.50824 11.442 6.53591 11.387C6.56924 11.3203 6.56291 11.2463 6.66391 11.199C6.74691 11.16 6.78091 11.0203 6.84091 10.928C6.87691 10.8726 6.92157 10.8226 6.96191 10.7703C6.97357 10.7553 6.98491 10.7403 6.99524 10.7246C7.02857 10.6743 7.06191 10.6246 7.10357 10.5613C7.15224 10.516 7.20357 10.4713 7.24924 10.4243C7.26322 10.4113 7.27317 10.3945 7.27791 10.376C7.29657 10.282 7.29657 10.181 7.42357 10.1513C7.44324 10.1466 7.44691 10.073 7.45191 10.054L7.72991 9.79598C7.73291 9.74964 7.73691 9.65598 7.86091 9.69231C7.89991 9.48898 8.01324 9.36264 8.16624 9.25264C8.24857 9.19364 8.29224 9.08398 8.36391 9.00698C8.4353 8.93649 8.51029 8.86973 8.58857 8.80698C8.65791 8.74631 8.74257 8.69598 8.79257 8.62198C8.86559 8.51074 8.95997 8.41511 9.07024 8.34064C9.14891 8.28731 9.19524 8.18764 9.25957 8.11198C9.2824 8.09036 9.30809 8.07196 9.33591 8.05731C9.35824 8.04264 9.40091 8.02964 9.40257 8.01531C9.40257 7.89431 9.50624 7.92198 9.56924 7.88998C9.61185 7.86431 9.65124 7.83365 9.68657 7.79864C9.70357 7.78398 9.71424 7.76198 9.73157 7.74831C9.77857 7.71064 9.82757 7.67598 9.84957 7.65964L10.0379 7.48531L10.0426 7.48798C10.0876 7.44298 10.1309 7.39664 10.1779 7.35464C10.2006 7.33954 10.2242 7.32584 10.2486 7.31364C10.3129 7.27031 10.3759 7.22464 10.4399 7.18031C10.5302 7.11898 10.6399 7.07498 10.7066 6.99398C10.7949 6.88464 10.9032 6.84531 11.0272 6.81231C11.0479 6.80698 11.0532 6.74564 11.0886 6.73031C11.1302 6.68898 11.1699 6.64564 11.2142 6.60764C11.2399 6.58838 11.2681 6.57258 11.2979 6.56064C11.3762 6.52298 11.4576 6.53164 11.5286 6.42898C11.6056 6.31764 11.7859 6.27798 11.9432 6.19564C11.9546 6.02664 12.1276 6.11864 12.2392 6.07331C12.2506 6.03764 12.2632 5.99731 12.2726 5.96631C12.3786 5.91098 12.5522 6.01131 12.5616 5.81298C12.6679 5.76531 12.8282 5.84631 12.8649 5.66298C12.8669 5.65164 12.9289 5.65498 12.9609 5.64531C13.0339 5.62264 13.1352 5.65598 13.1609 5.53531C13.1652 5.51598 13.2352 5.50998 13.2752 5.49931C13.3486 5.47931 13.4526 5.51198 13.4629 5.38331C13.4629 5.37098 13.5099 5.35898 13.5366 5.35264C13.6296 5.33098 13.7442 5.36931 13.7922 5.23064C13.8022 5.20164 13.9092 5.20664 13.9716 5.19564C14.0592 5.17998 14.1656 5.20264 14.2049 5.08398C14.2066 5.07938 14.2092 5.07518 14.2126 5.07163C14.216 5.06808 14.2201 5.06525 14.2246 5.06331C14.4146 5.00398 14.6039 4.94431 14.7946 4.88798C14.8639 4.86731 14.9456 4.89631 14.9879 4.79264C15.0026 4.75631 15.1106 4.75398 15.1772 4.74398C15.2832 4.72764 15.3929 4.75564 15.4772 4.63898C15.5122 4.59031 15.6329 4.60364 15.7149 4.58998C15.8372 4.56998 15.9629 4.60898 16.0729 4.48164C16.1269 4.41864 16.2869 4.44831 16.3989 4.43364C16.4886 4.42198 16.5912 4.46231 16.6509 4.33898C16.6679 4.30398 16.7669 4.30031 16.8292 4.29698C17.0116 4.28698 17.1959 4.28931 17.3762 4.27498C17.4229 4.27131 17.4652 4.22231 17.5116 4.19831C17.5509 4.17798 17.5932 4.14998 17.6349 4.14864C17.9899 4.13931 18.3449 4.13564 18.7016 4.12864C18.7732 4.12864 18.8509 4.14098 18.8812 4.04064C18.8879 4.01931 18.9479 4.00264 18.9812 4.00264C19.6524 4.00042 20.3231 4.00042 20.9936 4.00264C21.0269 4.00264 21.0829 4.00831 21.0889 4.02531C21.1409 4.17164 21.2639 4.12531 21.3639 4.12998C21.6892 4.13931 22.0146 4.14231 22.3402 4.14764C22.4042 4.14764 22.4672 4.13998 22.4869 4.23131C22.4919 4.25398 22.5562 4.27531 22.5946 4.27731C22.7766 4.28764 22.9612 4.28198 23.1412 4.30098C23.2199 4.30931 23.2936 4.36398 23.3702 4.39564C23.4039 4.41198 23.4399 4.42321 23.4769 4.42898C23.5649 4.43731 23.6542 4.43598 23.7436 4.44398C23.8376 4.45264 23.9376 4.43798 23.9959 4.55331C24.0116 4.58398 24.1022 4.57898 24.1589 4.58664C24.2782 4.60264 24.4132 4.55331 24.4972 4.70131C24.5169 4.73631 24.6162 4.72498 24.6789 4.73664C24.8066 4.76064 24.9586 4.71164 25.0456 4.86231C25.0552 4.87898 25.0996 4.87664 25.1279 4.88198C25.2222 4.89864 25.3329 4.86231 25.3866 4.99664C25.3996 5.02998 25.5036 5.02464 25.5649 5.03964C25.6549 5.06164 25.7712 5.01331 25.8192 5.15431C25.8299 5.18531 25.9352 5.18498 25.9972 5.19731C26.0902 5.21598 26.2082 5.17364 26.2516 5.31431C26.2579 5.33464 26.3316 5.33331 26.3732 5.34431C26.4422 5.36231 26.5399 5.33198 26.5496 5.45331C26.5496 5.46731 26.5949 5.48398 26.6209 5.48898C26.7156 5.50631 26.8309 5.47398 26.8676 5.61531C26.8726 5.63398 26.9476 5.63398 26.9902 5.64298C27.0599 5.65731 27.1366 5.63131 27.1716 5.74664C27.1852 5.79198 27.3332 5.79631 27.4356 5.82331L27.4629 5.92998L27.7262 5.95964C27.7356 6.00098 27.7442 6.04164 27.7529 6.08064C27.8149 6.08404 27.8765 6.09206 27.9372 6.10464C27.9725 6.12076 28.0044 6.14338 28.0312 6.17131C28.0369 6.17631 28.0312 6.19531 28.0376 6.19898C28.1243 6.26528 28.2153 6.32586 28.3099 6.38031C28.3806 6.41698 28.4709 6.38864 28.5146 6.50698C28.5312 6.55198 28.6686 6.65198 28.7212 6.65364C28.8879 6.65864 28.9722 6.78864 29.0686 6.86564C29.1545 6.93317 29.251 6.9859 29.3542 7.02164C29.4166 7.04531 29.4562 7.12831 29.5152 7.18131C29.6402 7.32264 29.7649 7.45531 29.9209 7.46464L30.1132 7.63664H30.1116L30.2689 7.78198V7.79431C30.3208 7.82421 30.3706 7.85762 30.4179 7.89431C30.4899 7.95864 30.5546 8.03064 30.6239 8.09798C30.6549 8.12831 30.6886 8.15598 30.7212 8.18431C30.8302 8.27798 30.9382 8.37198 31.0482 8.46398C31.1326 8.53464 31.2242 8.59731 31.3032 8.67331C31.3716 8.74484 31.4361 8.82006 31.4962 8.89864C31.4989 8.90198 31.4962 8.91231 31.4986 8.91264C31.6569 8.95631 31.6396 9.14164 31.7549 9.22831C31.8456 9.29498 31.8986 9.41231 31.9782 9.49764C32.0476 9.57198 32.1346 9.62931 32.2069 9.70164C32.2402 9.73498 32.2572 9.78631 32.3002 9.81598C32.3369 9.86598 32.3649 9.94764 32.4116 9.96064C32.5959 10.0113 32.5092 10.257 32.6939 10.3196C32.7702 10.3456 32.7879 10.517 32.8672 10.5673C32.9859 10.6426 33.0092 10.7416 33.0356 10.858C33.0412 10.8833 33.1089 10.8943 33.1542 10.915C33.1596 10.954 33.1652 10.997 33.1719 11.0483L33.2949 11.0776C33.3059 11.1643 33.3156 11.242 33.3259 11.3263L33.4526 11.3676C33.4569 11.4093 33.4612 11.4523 33.4669 11.506C33.6079 11.4856 33.5886 11.594 33.6142 11.6726C33.6347 11.7317 33.6716 11.7838 33.7206 11.8226C33.7442 12.027 33.8746 12.1666 34.0206 12.3003C34.0452 12.323 34.0456 12.3723 34.0566 12.4096C34.0766 12.4793 34.0512 12.5763 34.1702 12.5863C34.1802 12.5863 34.1886 12.6276 34.1956 12.6503C34.2239 12.74 34.1859 12.8663 34.3289 12.892C34.3096 13.0823 34.4929 13.19 34.5212 13.3623C34.5289 13.4083 34.5652 13.4493 34.5879 13.4933C34.6136 13.5443 34.6499 13.5933 34.6602 13.6476C34.6809 13.7553 34.6376 13.8876 34.7962 13.931C34.8079 13.9343 34.8072 13.9846 34.8116 14.0133C34.8266 14.1073 34.7882 14.221 34.9299 14.2653C34.9562 14.2736 34.9522 14.373 34.9656 14.4296C34.9872 14.5226 34.9186 14.6586 35.0862 14.687C35.0979 14.689 35.1056 14.738 35.1079 14.7656C35.1149 14.849 35.1159 14.9323 35.1239 15.0163C35.1269 15.0476 35.1412 15.1036 35.1529 15.1043C35.2742 15.1116 35.2529 15.2023 35.2622 15.2763C35.2796 15.4033 35.2326 15.5356 35.3772 15.643C35.4379 15.6883 35.4049 15.8566 35.4176 15.969C35.4269 16.056 35.3929 16.163 35.5239 16.1983C35.5406 16.2026 35.5496 16.2573 35.5516 16.2893C35.5602 16.4226 35.5596 16.556 35.5722 16.6893C35.5809 16.7803 35.5499 16.892 35.6799 16.9376C35.6986 16.9443 35.7019 17.0076 35.7039 17.0453C35.7152 17.262 35.7202 17.4786 35.7372 17.6953C35.7412 17.7453 35.7872 17.791 35.8062 17.8416C35.8312 17.8974 35.8475 17.9566 35.8546 18.0173C35.8709 18.456 35.8796 18.895 35.8982 19.3333C35.9012 19.405 35.9419 19.4753 35.9649 19.546C35.9773 19.572 35.9858 19.5998 35.9902 19.6283C35.9926 19.8453 36.0446 20.0793 35.9816 20.276C35.8079 20.819 35.9266 21.376 35.8529 21.919C35.8466 21.9653 35.8079 22.007 35.7909 22.0523C35.7631 22.1127 35.7439 22.1766 35.7339 22.2423C35.7189 22.4636 35.7159 22.6856 35.7042 22.909C35.7002 22.9783 35.7156 23.0596 35.6136 23.0886C35.5922 23.0946 35.5782 23.1536 35.5749 23.1886C35.5662 23.2766 35.5692 23.366 35.5609 23.4553C35.5516 23.5553 35.5782 23.6553 35.4672 23.742C35.4086 23.7883 35.4309 23.9356 35.4136 24.037C35.3962 24.1383 35.4606 24.2656 35.2986 24.3176C35.2702 24.327 35.2769 24.4443 35.2669 24.5116C35.2519 24.6146 35.3026 24.7363 35.1556 24.8003C35.1222 24.8153 35.1329 24.9276 35.1176 24.9936C35.0899 25.115 35.1712 25.2666 34.9902 25.3506C34.9462 25.371 34.9639 25.5246 34.9529 25.6173L34.9066 25.612ZM23.1666 16.7593C22.9686 16.583 22.8232 16.4293 22.6666 16.281C22.5099 16.1326 22.3666 15.9763 22.2179 15.8246L22.0769 15.6666H22.0666L21.8566 15.4416H21.8536L21.7016 15.2943V15.286L21.4756 15.077L21.4772 15.0713L21.3226 14.9213C21.2789 14.8786 21.2319 14.842 21.1892 14.8003C21.1209 14.7316 21.0559 14.6606 20.9892 14.5886C20.9189 14.511 20.8602 14.418 20.7772 14.3583C20.7319 14.325 20.6936 14.3176 20.6666 14.252C20.6332 14.1733 20.5496 14.1146 20.4832 14.052C20.4357 14.0109 20.3861 13.9723 20.3346 13.9363C20.2966 13.8886 20.2629 13.8436 20.2259 13.8006C20.2071 13.7821 20.1873 13.7645 20.1666 13.748C20.1366 13.7196 20.1079 13.6893 20.0769 13.662C20.0542 13.6423 20.0269 13.6096 20.0046 13.612C19.9752 13.615 19.9469 13.6453 19.9212 13.6663C19.8896 13.6934 19.8594 13.7223 19.8309 13.7526C19.8096 13.774 19.7909 13.798 19.7699 13.8193C19.7442 13.847 19.7186 13.8746 19.6912 13.9006C19.6692 13.9216 19.6422 13.938 19.6216 13.9603C19.5486 14.039 19.4769 14.1196 19.4049 14.1993C19.3612 14.248 19.3206 14.2993 19.2716 14.3453C19.2226 14.3913 19.1742 14.424 19.1249 14.463C19.0446 14.552 18.9516 14.6226 18.8659 14.7013C18.8243 14.7462 18.7866 14.7946 18.7532 14.846C18.7489 14.95 18.6662 14.9663 18.5652 14.9673C18.5822 15.0803 18.5352 15.1313 18.4222 15.112C18.4149 15.1633 18.4086 15.2053 18.4022 15.2483L18.2729 15.2663C18.2662 15.311 18.2596 15.353 18.2532 15.395L18.2239 15.373L18.0749 15.5256L18.0719 15.522L17.7752 15.8183L17.3152 16.276L17.3176 16.2786L16.8616 16.7383L16.8819 16.7583L16.7692 16.779L16.7446 16.908L16.6196 16.9263C16.6109 16.9726 16.6029 17.0143 16.5956 17.0546L16.4686 17.073L16.4469 17.2033L16.4172 17.1796L15.3689 18.2333L15.3726 18.2403L15.1059 18.4736L15.0909 18.561L15.0612 18.5396L14.9189 18.6976L14.9102 18.6886L14.7696 18.844L14.7649 18.8376L14.5952 19.0093C14.5149 18.9843 14.5046 19.0736 14.4952 19.176C14.3619 19.1316 14.3536 19.2236 14.3266 19.2973C14.2304 19.3704 14.1399 19.4505 14.0556 19.537C14.0282 19.5636 14.0042 19.5933 13.9779 19.621C13.9516 19.6486 13.9236 19.6766 13.8962 19.7043C13.8746 19.726 13.8532 19.7476 13.8296 19.769C13.7572 19.838 13.6829 19.905 13.6139 19.9773C13.6089 19.9883 13.6069 20.0004 13.6079 20.0124C13.6088 20.0244 13.6129 20.036 13.6196 20.046C13.6746 20.1 13.7356 20.146 13.7942 20.1976L13.7752 20.223L13.8892 20.2453L13.8689 20.2696L14.1656 20.5673L14.3172 20.7166L14.3202 20.713L14.4699 20.8663L14.6199 21.0176L14.6176 21.0216L14.7716 21.1676C14.8499 21.2483 14.9206 21.3396 14.9979 21.4253C15.0426 21.4689 15.0903 21.5093 15.1406 21.5463C15.1809 21.594 15.2176 21.6393 15.2566 21.6823C15.2759 21.7013 15.2965 21.7189 15.3182 21.735C15.3946 21.7993 15.4739 21.86 15.5456 21.929C15.5863 21.9745 15.6236 22.0231 15.6569 22.0743C15.7526 22.1516 15.8236 22.2453 15.9019 22.332C15.9463 22.3745 15.994 22.4134 16.0446 22.4483V22.4576L16.2616 22.6536L16.4199 22.8203L16.4222 22.8183L16.5936 22.999C16.5719 23.0723 16.6566 23.0873 16.7229 23.122L16.8762 23.2713L16.8692 23.278C16.9695 23.376 17.0695 23.4741 17.1692 23.5723L17.7772 24.179L17.8022 24.158C17.8106 24.1996 17.8189 24.2413 17.8272 24.2816L17.9666 24.305C17.9272 24.432 18.0162 24.4423 18.0809 24.447C18.1073 24.4952 18.1375 24.5412 18.1712 24.5846C18.2118 24.6238 18.2548 24.6605 18.2999 24.6943L18.2942 24.704L18.4499 24.849C18.5456 24.8553 18.5719 24.9296 18.6039 25.001L18.7499 25.1583V25.1563L19.5039 25.9093L19.6559 26.0613L19.8059 26.2126V26.211L19.9869 26.386L20.2169 26.1993L20.2322 26.1123L20.3609 26.087C20.3676 26.0403 20.3732 26.0026 20.3812 25.9486C20.4989 25.982 20.5309 25.9153 20.5549 25.837L20.7052 25.6833C20.7842 25.6083 20.8916 25.5536 20.9559 25.4673C21.0386 25.3563 21.1169 25.2513 21.2429 25.1866C21.2619 25.177 21.2622 25.1346 21.2762 25.1103C21.2888 25.0865 21.3056 25.0653 21.3259 25.0476C21.4066 24.981 21.4926 24.9233 21.5692 24.854C21.6114 24.8088 21.6493 24.76 21.6826 24.708H21.6909L21.8389 24.5553H21.8409L22.0139 24.3803C22.0056 24.3216 22.0532 24.2706 22.1659 24.2896C22.1732 24.2383 22.1789 24.1963 22.1849 24.154L22.2182 24.177L22.3639 24.024C22.3899 23.9933 22.4376 23.98 22.4696 23.9503C22.516 23.8998 22.5588 23.846 22.5976 23.7893C22.6565 23.7478 22.7132 23.7033 22.7676 23.656C22.8036 23.6226 23.0116 23.4076 23.0416 23.384C23.0589 23.3706 23.0666 23.3453 23.0816 23.328C23.1089 23.2946 23.1392 23.266 23.1672 23.2343C23.1902 23.2083 23.2109 23.1803 23.2339 23.1546C23.3006 23.0823 23.3672 23.009 23.4382 22.9396C23.4786 22.8996 23.5256 22.8663 23.5696 22.83V22.8223L23.7332 22.65L23.9726 22.4356C23.9689 22.4209 23.969 22.4055 23.9729 22.3909C23.9767 22.3762 23.9843 22.3628 23.9948 22.3518C24.0053 22.3408 24.0184 22.3327 24.0328 22.3282C24.0473 22.3237 24.0627 22.3229 24.0776 22.326C24.1706 22.226 24.2406 22.1496 24.3109 22.0743L24.3169 22.077L25.3786 21.0156C25.4012 20.9796 25.4496 20.9673 25.4812 20.9376C25.5217 20.8932 25.5584 20.8455 25.5909 20.795L25.6499 20.8453C25.5832 20.6706 25.7039 20.686 25.7759 20.668C25.7872 20.6203 25.7846 20.568 25.8092 20.549C25.8379 20.5243 25.8889 20.5253 25.9272 20.5156C25.9352 20.4703 25.9419 20.4326 25.9509 20.3793C26.0786 20.4223 26.0899 20.333 26.0942 20.281C26.2032 20.1896 26.2906 20.1196 26.3732 20.0443C26.38 20.0341 26.384 20.0223 26.3849 20.0101C26.3857 19.9979 26.3834 19.9857 26.3782 19.9746C26.3116 19.901 26.2422 19.8316 26.1732 19.7616C26.1466 19.7346 26.1189 19.7086 26.0916 19.6826C26.0642 19.6566 26.0419 19.635 26.0152 19.6133C25.9894 19.5979 25.9647 19.5806 25.9416 19.5613C25.9036 19.519 25.8712 19.4716 25.8366 19.428H25.8332C25.783 19.378 25.7329 19.3278 25.6829 19.2773V19.274L25.5256 19.1303C25.4956 19.1043 25.4829 19.0566 25.4532 19.0236C25.4065 18.9789 25.3565 18.9378 25.3036 18.9006C25.2702 18.8583 25.2336 18.8143 25.1972 18.7706C25.1836 18.7525 25.1681 18.7358 25.1509 18.721C25.0699 18.6573 24.9796 18.603 24.9089 18.53C24.8382 18.457 24.7992 18.338 24.7172 18.2823C24.5962 18.2006 24.4839 18.122 24.4259 17.9823C24.4202 17.969 24.3926 17.9676 24.3766 17.9563C24.2989 17.894 24.2192 17.834 24.1466 17.766C24.1048 17.7209 24.0664 17.6728 24.0319 17.622C24.0276 17.52 23.9466 17.5 23.8696 17.4983C23.8419 17.4453 23.8286 17.3983 23.7986 17.365C23.7607 17.3295 23.7198 17.2975 23.6762 17.2693L23.5072 17.0923C23.4739 17.0573 23.4336 17.0256 23.3959 16.9923C23.3582 16.959 23.3182 16.916 23.2759 16.8736L23.1666 16.7593ZM18.3939 11.329V11.318C18.4422 11.283 18.4939 11.2513 18.5379 11.2116C18.5572 11.1956 18.5646 11.1656 18.5799 11.145C18.5965 11.1192 18.6159 11.0953 18.6376 11.0736C18.7179 11.0016 18.8042 10.936 18.8806 10.8606C18.9569 10.7853 19.0159 10.7056 19.0862 10.6303C19.1379 10.575 19.1952 10.525 19.2489 10.4716C19.3309 10.3901 19.4124 10.3079 19.4932 10.225C19.5619 10.155 19.6172 10.0523 19.7002 10.02C19.8102 9.97731 19.7852 9.92631 19.7669 9.85631C19.7166 9.84698 19.6422 9.84898 19.6359 9.82931C19.5846 9.67031 19.4406 9.71431 19.3692 9.69598C19.2692 9.58164 19.1926 9.49331 19.1136 9.40864C19.0712 9.36331 19.0222 9.32398 18.9499 9.25764C18.7232 9.25764 18.4529 9.25764 18.1832 9.25764C18.1606 9.25764 18.1249 9.26498 18.1166 9.27998C18.0542 9.40364 17.9392 9.38598 17.8332 9.39131C17.7102 9.39764 17.5866 9.39731 17.4639 9.40764C17.4269 9.41098 17.3916 9.44098 17.3569 9.45931C17.3122 9.48498 17.2722 9.52931 17.2236 9.53698C17.1308 9.54977 17.0371 9.55423 16.9436 9.55031C16.8396 9.54864 16.7516 9.56398 16.7419 9.68664C16.6269 9.69398 16.5232 9.69698 16.4206 9.70864C16.3872 9.71231 16.3316 9.73531 16.3286 9.75531C16.3156 9.84964 16.2502 9.83631 16.1869 9.84398C16.1236 9.85164 16.0179 9.85531 16.0022 9.89164C15.9562 9.99831 15.8729 9.97998 15.7942 9.99164C15.7276 10.0026 15.6122 10.0003 15.6022 10.0313C15.5582 10.1646 15.4536 10.1346 15.3642 10.1536C15.3309 10.1606 15.2769 10.1733 15.2756 10.187C15.2626 10.3153 15.1566 10.2783 15.0856 10.3013C15.0489 10.3133 14.9812 10.3193 14.9792 10.3346C14.9649 10.4593 14.8566 10.4193 14.7912 10.454C14.6912 10.5076 14.5962 10.5733 14.4989 10.6333C14.4322 10.674 14.3682 10.7163 14.3009 10.754C14.2732 10.7696 14.2182 10.7683 14.2119 10.7873C14.1546 10.958 13.9059 10.8636 13.8556 11.0516C13.8436 11.0963 13.7592 11.1213 13.7079 11.1553C13.6839 11.196 13.6116 11.1976 13.6046 11.2193C13.5579 11.3696 13.4199 11.3393 13.3322 11.3673C13.3032 11.421 13.2892 11.4673 13.2589 11.4986C13.2139 11.5374 13.1657 11.5723 13.1149 11.603L13.1552 11.6563C13.0242 11.619 12.9826 11.6776 12.9886 11.7673C12.9316 11.793 12.8752 11.803 12.8422 11.8363C12.7719 11.9066 12.7189 11.994 12.6492 12.0646C12.5886 12.1263 12.5222 12.1943 12.4449 12.225C12.3326 12.269 12.2532 12.3273 12.2242 12.4463C12.2205 12.4704 12.2098 12.4928 12.1936 12.511C12.0316 12.649 11.8602 12.7776 11.7749 12.9836C11.7709 12.9933 11.7489 12.995 11.7379 13.0036C11.6936 13.0386 11.6499 13.0746 11.6046 13.1106L11.6069 13.1206C11.5579 13.1723 11.5092 13.2243 11.4602 13.2763L11.4819 13.3003L11.3626 13.3286C11.3252 13.5776 11.3252 13.5776 11.1979 13.6173C11.1916 13.6586 11.1852 13.7013 11.1789 13.7436L11.0649 13.7686C11.0496 13.8216 11.0449 13.902 11.0212 13.907C10.8646 13.9473 10.9106 14.0843 10.8762 14.1886L10.7569 14.228C10.7132 14.386 10.6742 14.5663 10.5629 14.6473C10.4629 14.7206 10.4596 14.793 10.4369 14.8806C10.4296 14.908 10.4192 14.956 10.4069 14.9573C10.2736 14.971 10.3136 15.0866 10.2846 15.16C10.2722 15.1906 10.2732 15.2516 10.2606 15.254C10.1229 15.2773 10.1686 15.3963 10.1386 15.4746C10.1269 15.5056 10.1286 15.5576 10.1086 15.567C9.98457 15.6256 9.99824 15.7386 9.98224 15.8436C9.97157 15.898 9.9528 15.9505 9.92657 15.9993C9.90224 16.0496 9.83657 16.1013 9.84424 16.142C9.88824 16.3753 9.61991 16.516 9.67757 16.7473C9.67957 16.7546 9.65691 16.7656 9.65057 16.7776C9.61357 16.8443 9.56191 16.911 9.54624 16.9826C9.52591 17.0776 9.53691 17.179 9.52857 17.2773C9.52624 17.3073 9.50857 17.3593 9.49257 17.3616C9.38191 17.376 9.39824 17.4593 9.39491 17.5283C9.38891 17.6563 9.39091 17.7846 9.38224 17.9126C9.37624 18.0023 9.42024 18.1183 9.27591 18.15C9.26357 18.1526 9.25291 18.192 9.25257 18.2143C9.25091 18.4303 9.25257 18.6476 9.25257 18.8786C9.36924 18.8426 9.39491 18.9173 9.42424 18.988L9.57591 19.1346L9.55591 19.1576L9.65991 19.182C9.69024 19.2443 9.71024 19.2906 9.73524 19.3346C9.76557 19.388 9.81191 19.4346 9.82957 19.492C9.84724 19.5493 9.83657 19.6196 9.84691 19.6823C9.85157 19.7106 9.87524 19.7543 9.89557 19.7573C9.93225 19.76 9.96858 19.7487 9.99724 19.7256C10.0912 19.648 10.1816 19.5653 10.2699 19.481C10.3366 19.419 10.3976 19.3533 10.4566 19.2853C10.5232 19.2073 10.5846 19.1223 10.6539 19.0453C10.6981 19.0015 10.7451 18.9605 10.7946 18.9226V18.9166L10.9446 18.7666L11.2486 18.4646L11.2522 18.4683L12.6059 17.1156L12.6029 17.1106L12.7489 16.9553C12.7749 16.9256 12.8236 16.9143 12.8552 16.885C12.8963 16.8409 12.9333 16.7933 12.9659 16.7426C13.0569 16.662 13.1252 16.5666 13.2079 16.4856C13.2846 16.4106 13.3832 16.358 13.4596 16.2826C13.5299 16.2133 13.5799 16.1243 13.6446 16.0493C13.6945 15.9919 13.7491 15.9389 13.8079 15.8906C13.8876 15.824 13.9746 15.7673 14.0536 15.6986C14.112 15.6435 14.1662 15.584 14.2156 15.5206C14.2822 15.4413 14.3392 15.354 14.4086 15.279C14.4558 15.2348 14.5068 15.1947 14.5609 15.1593L14.7009 15.0066C14.7462 14.961 14.7829 14.9126 14.8229 14.8673C14.8405 14.8529 14.8588 14.8394 14.8779 14.827C14.9089 14.7986 14.9386 14.769 14.9676 14.7386C14.9838 14.7173 15.0014 14.697 15.0202 14.678C15.1002 14.6113 15.1889 14.5556 15.2616 14.483C15.3342 14.4103 15.3809 14.3246 15.4462 14.2496C15.5003 14.1899 15.5587 14.1342 15.6209 14.083C15.6999 14.0163 15.7876 13.9573 15.8636 13.8873C15.9201 13.8308 15.9732 13.7712 16.0229 13.7086C16.0896 13.631 16.1562 13.551 16.2279 13.4753C16.2693 13.4349 16.3127 13.3966 16.3579 13.3606L16.3539 13.353L16.5069 13.2053L16.5049 13.1996L16.6992 13.0233L18.2426 11.4773L18.3939 11.329ZM10.0046 24.2593L10.0476 24.2563C10.0809 24.3119 10.111 24.3693 10.1379 24.4283C10.1576 24.477 10.1546 24.5716 10.1769 24.5766C10.3136 24.607 10.2662 24.7216 10.2962 24.8C10.3095 24.8336 10.3259 24.866 10.3452 24.8966C10.3756 24.9463 10.4186 24.9903 10.4386 25.0433C10.4598 25.1108 10.495 25.173 10.5419 25.226C10.6269 25.32 10.6549 25.472 10.7419 25.5873C10.8196 25.691 10.8656 25.8186 10.9276 25.94L11.0192 25.9586C11.0459 26.017 11.0622 26.0976 11.0879 26.101C11.1992 26.1146 11.1799 26.201 11.1986 26.2676C11.2066 26.3052 11.2113 26.3433 11.2126 26.3816L11.3369 26.406C11.3439 26.453 11.3502 26.4956 11.3529 26.512C11.4096 26.5546 11.4602 26.576 11.4846 26.614C11.5559 26.7253 11.6106 26.8473 11.6846 26.9573C11.7342 27.0249 11.7917 27.0863 11.8559 27.1403C11.9322 27.2106 12.0176 27.2706 12.0929 27.3403C12.1357 27.3866 12.175 27.436 12.2106 27.488H12.2202L12.4312 27.7213L12.7036 27.9516C12.7056 27.9626 12.7119 28.0003 12.7182 28.0383L12.7456 28.0166L12.8956 28.1666C12.9222 28.1973 13.0012 28.2133 13.0019 28.2333C13.0059 28.343 13.0896 28.3333 13.1546 28.3553C13.1997 28.3714 13.242 28.3946 13.2799 28.424C13.3256 28.4626 13.3692 28.5037 13.4106 28.547C13.4752 28.6013 13.5792 28.6306 13.5939 28.6843C13.6272 28.803 13.7249 28.7843 13.7939 28.825C13.8819 28.878 14.0092 28.9186 14.0422 28.997C14.0899 29.1096 14.1756 29.0883 14.2466 29.1263C14.3429 29.1783 14.4312 29.246 14.5226 29.3076C14.5712 29.341 14.6172 29.378 14.6676 29.4076C14.7306 29.445 14.7969 29.477 14.8619 29.5113L14.8462 29.5466C14.9499 29.578 15.1002 29.5133 15.1359 29.6883C15.1379 29.6976 15.1806 29.7003 15.2042 29.7026C15.2679 29.7096 15.3316 29.7146 15.4042 29.721C15.4126 29.844 15.4996 29.8593 15.5996 29.8633C15.6399 29.865 15.7112 29.878 15.7149 29.8966C15.7406 30.0253 15.8429 29.9966 15.9239 30.0093C15.9956 30.0216 16.1179 30.0123 16.1309 30.0463C16.1869 30.1913 16.3029 30.1413 16.3996 30.1613C16.4689 30.1763 16.5368 30.1977 16.6022 30.225C16.6532 30.2456 16.6962 30.2893 16.7479 30.3026C16.8419 30.3276 16.9862 30.3046 17.0259 30.3606C17.1049 30.472 17.2002 30.4463 17.2952 30.4606C17.4069 30.4763 17.5582 30.4503 17.6209 30.5136C17.7116 30.6046 17.8009 30.5956 17.8976 30.603C18.0549 30.6153 18.2129 30.6156 18.3699 30.629C18.4312 30.634 18.5162 30.64 18.5459 30.6793C18.6239 30.7826 18.7329 30.766 18.8126 30.74C18.8922 30.714 18.9582 30.626 19.0212 30.5573C19.0909 30.481 19.1456 30.3906 19.2166 30.316C19.2616 30.2683 19.3246 30.238 19.3796 30.2C19.3816 30.1666 19.4026 30.1593 19.4202 30.1643C19.5922 30.2103 19.6336 30.0406 19.7349 29.9713C19.7405 29.9611 19.7435 29.9496 19.7435 29.938C19.7435 29.9263 19.7405 29.9148 19.7349 29.9046C19.6806 29.8443 19.6299 29.7643 19.5602 29.738C19.3552 29.6586 19.2156 29.527 19.1426 29.3203C19.1352 29.3 19.0972 29.29 19.0732 29.2766C18.9136 29.1873 18.7649 29.0883 18.7042 28.9016C18.6987 28.8785 18.6851 28.858 18.6659 28.844C18.5659 28.7963 18.4792 28.7533 18.3992 28.6553C18.2992 28.534 18.1842 28.422 18.0799 28.2973C17.9788 28.171 17.8673 28.0534 17.7466 27.9456C17.5892 27.815 17.4302 27.7123 17.3322 27.5193C17.2869 27.4303 17.1676 27.3803 17.0839 27.31C16.9582 27.2046 16.7929 27.1373 16.7506 26.95C16.7439 26.9193 16.6959 26.8903 16.6609 26.874C16.506 26.8005 16.3793 26.6785 16.2999 26.5266C16.2666 26.469 16.1999 26.4303 16.1472 26.385C16.0629 26.3133 15.9716 26.2486 15.8929 26.1716C15.8142 26.0946 15.7576 26.005 15.6822 25.9293C15.5729 25.8203 15.4359 25.7366 15.3889 25.5756C15.3861 25.5643 15.381 25.5536 15.3739 25.5443C15.3669 25.535 15.358 25.5271 15.3479 25.5213C15.1459 25.4516 15.0069 25.3213 14.9392 25.116C14.9341 25.1053 14.9268 25.0958 14.9178 25.088C14.9089 25.0802 14.8985 25.0743 14.8872 25.0706C14.6892 25.0073 14.5649 24.8686 14.4809 24.685C14.4677 24.6593 14.4481 24.6375 14.4239 24.6216C14.3239 24.55 14.2719 24.407 14.1182 24.4093C14.1076 24.4093 14.0982 24.3786 14.0849 24.3643C14.0106 24.281 13.9352 24.1976 13.8609 24.115C13.7709 24.015 13.6836 23.9106 13.5916 23.8116C13.5092 23.723 13.4249 23.6363 13.3359 23.554C13.2319 23.4576 13.0879 23.3873 13.0259 23.2686C12.9732 23.1686 12.9222 23.1043 12.8239 23.0686C12.7969 23.0583 12.7572 23.0583 12.7436 23.0393C12.6676 22.933 12.5979 22.8223 12.5256 22.713C12.5126 22.6933 12.5029 22.6613 12.4852 22.6563C12.3852 22.6263 12.3089 22.596 12.2389 22.4896C12.1432 22.3456 11.9799 22.2473 11.8492 22.125C11.7879 22.068 11.7159 22.0096 11.6842 21.9363C11.6329 21.8183 11.5679 21.7323 11.4392 21.7003C11.4166 21.6921 11.3976 21.6763 11.3852 21.6556C11.3186 21.5483 11.1666 21.4986 11.1686 21.3403C11.1686 21.3266 11.1079 21.317 11.0816 21.2973C10.9772 21.2193 10.8046 21.1516 10.7862 21.0553C10.7442 20.832 10.5056 20.8433 10.4232 20.6763C10.3659 20.5596 10.2129 20.49 10.1566 20.373C10.0836 20.219 9.98491 20.2173 9.84791 20.2396C9.83791 20.332 9.82824 20.4186 9.81957 20.5003C9.77524 20.5183 9.72691 20.5236 9.70824 20.55C9.68491 20.5833 9.68657 20.6313 9.67724 20.673L9.55891 20.6943L9.57457 20.7233L9.36657 20.9403L9.38224 20.9663L9.25424 20.9853C9.25424 21.2186 9.25424 21.4453 9.25424 21.6713C9.25424 21.6926 9.26857 21.7286 9.28291 21.7326C9.40424 21.766 9.38291 21.866 9.38524 21.949C9.39191 22.092 9.39224 22.235 9.39991 22.3776C9.40157 22.4133 9.41524 22.4756 9.43324 22.4776C9.55791 22.5003 9.52957 22.5983 9.53657 22.6753C9.54591 22.778 9.54257 22.8823 9.55291 22.985C9.55591 23.0183 9.58424 23.0476 9.60291 23.0776C9.63395 23.118 9.66107 23.1612 9.68391 23.2066C9.72657 23.3236 9.63024 23.4906 9.81724 23.5603C9.83891 23.5683 9.83191 23.6513 9.83924 23.6993C9.85124 23.7766 9.83924 23.897 9.88124 23.9233C10.0209 24.0103 9.97791 24.1436 10.0046 24.2593ZM27.0666 11.7886L26.8702 11.622C26.8209 11.5793 26.7702 11.5423 26.7212 11.5043C26.7062 11.4933 26.6829 11.479 26.6826 11.4656C26.6802 11.3683 26.6092 11.3636 26.5402 11.3546C26.4712 11.3456 26.3869 11.348 26.3876 11.239C26.3876 11.2283 26.3606 11.217 26.3459 11.2056C26.2959 11.1696 26.2457 11.1339 26.1952 11.0983L26.1882 11.107L25.6802 10.7633C25.6102 10.725 25.4492 10.6726 25.3429 10.566C25.2786 10.4966 25.1918 10.4521 25.0979 10.4403C25.0752 10.437 25.0392 10.426 25.0356 10.412C25.0066 10.2933 24.9022 10.3153 24.8229 10.293C24.7919 10.2846 24.7402 10.2773 24.7349 10.2596C24.6986 10.1336 24.5899 10.1666 24.5056 10.1443C24.4419 10.127 24.3797 10.1047 24.3196 10.0776C24.2679 10.055 24.2222 10.0183 24.1712 9.99464C24.0962 9.95964 24.0182 9.93064 23.9419 9.89931L23.9549 9.85898C23.8676 9.84998 23.7252 9.86998 23.7019 9.82564C23.6092 9.65298 23.4569 9.71798 23.3269 9.69231C23.2884 9.68096 23.2517 9.66424 23.2179 9.64264C23.1676 9.61498 23.1219 9.56631 23.0692 9.55831C22.9579 9.54164 22.8432 9.54731 22.7302 9.53931C22.6992 9.53698 22.6456 9.52231 22.6432 9.50764C22.6249 9.38098 22.5259 9.41598 22.4499 9.40164C22.2449 9.36364 22.0046 9.47964 21.8396 9.26364C21.8352 9.25831 21.8206 9.25964 21.8109 9.25964H21.0542L20.6282 9.69298C20.6059 9.70064 20.5266 9.70998 20.5236 9.73098C20.5032 9.86764 20.3959 9.82798 20.3172 9.84531C20.2896 9.85131 20.2609 9.85364 20.2289 9.85831V9.99164L20.2622 9.97031L20.4016 10.1293C20.5902 10.3363 20.7929 10.532 20.9916 10.7326C21.1902 10.9333 21.3916 11.1376 21.5872 11.3096L21.7572 11.4736C21.7744 11.4734 21.7914 11.4767 21.8072 11.4835C21.8229 11.4902 21.8371 11.5002 21.8488 11.5128C21.8604 11.5253 21.8693 11.5402 21.8749 11.5565C21.8804 11.5727 21.8825 11.5899 21.8809 11.607L22.0576 11.7736L22.0369 11.8006L22.1602 11.8223C22.1706 11.872 22.1796 11.9136 22.1876 11.952L22.3102 11.976C22.3016 11.9856 22.2932 11.9956 22.2846 12.0056L23.5096 13.2326C23.4782 13.3206 23.5882 13.3166 23.6779 13.3326L23.6446 13.366L23.9396 13.65L23.9679 13.6276C23.9746 13.6696 23.9809 13.712 23.9856 13.7426C24.0382 13.767 24.0879 13.7776 24.1189 13.8073C24.1602 13.852 24.1973 13.9004 24.2296 13.952C24.3726 14.1623 24.5782 14.3236 24.7542 14.4906C24.9302 14.6576 25.0706 14.8876 25.2642 14.9756L25.4429 15.1576V15.16L25.5962 15.3063H25.5942L25.7439 15.455L25.7732 15.4323L25.7922 15.559L25.8229 15.5366L25.9896 15.7173L26.0639 15.731L26.0396 15.7593L27.0932 16.817L27.0999 16.8096L27.2529 16.967L27.4012 17.11L27.4272 17.089L27.4472 17.215L27.4806 17.1916L27.6242 17.3443L27.6266 17.3416L27.7732 17.496L27.7549 17.5126L27.8452 17.535C27.8899 17.6016 27.9119 17.648 27.9452 17.6796C28.0189 17.7463 28.1186 17.793 28.1736 17.8716C28.2435 17.9816 28.3366 18.075 28.4462 18.1453C28.5182 18.189 28.5729 18.2643 28.6292 18.3303C28.6959 18.4096 28.7542 18.497 28.8242 18.575C28.8652 18.6139 28.9098 18.6487 28.9576 18.679L29.1242 18.8436L29.1029 18.8713L29.2289 18.8896L29.2102 18.9186L29.4416 19.175L29.5302 19.192L29.5056 19.2253L29.6666 19.3666C29.704 19.4116 29.7448 19.4536 29.7886 19.4923C29.8076 19.5106 29.8329 19.5306 29.8379 19.5533C29.8696 19.701 29.9889 19.625 30.0676 19.6373C30.0886 19.6406 30.1302 19.5623 30.1492 19.5163C30.1792 19.4436 30.1362 19.3513 30.2609 19.3033C30.3106 19.2843 30.3609 19.173 30.4376 19.1223C30.4872 19.089 30.5196 19.0306 30.5599 18.9833H30.5689L30.7556 18.8076C30.7486 18.7113 30.7889 18.532 30.7179 18.4483C30.6059 18.317 30.6409 18.1856 30.6152 18.053C30.5776 17.8573 30.6842 17.6276 30.4789 17.4703C30.4682 17.462 30.4759 17.432 30.4709 17.4133C30.4242 17.2313 30.4999 17.0343 30.3326 16.8593C30.2369 16.7593 30.3112 16.5526 30.1816 16.4043C30.0909 16.301 30.1969 16.0746 30.0116 15.9776C30.0086 15.9776 30.0086 15.9683 30.0082 15.9636C29.9952 15.8503 30.0082 15.7483 29.8812 15.656C29.8106 15.6053 29.8426 15.4203 29.7202 15.3296C29.6806 15.3 29.6999 15.1903 29.6926 15.1173C29.6646 15.1092 29.6388 15.0951 29.6169 15.076C29.5949 15.0569 29.5774 15.0332 29.5656 15.0066C29.5359 14.9173 29.5842 14.7916 29.4322 14.7673C29.4196 14.7653 29.4209 14.7033 29.4069 14.673C29.3736 14.6013 29.3362 14.532 29.3002 14.4616C29.2542 14.395 29.2512 14.3036 29.2069 14.2413C29.1452 14.1556 29.0256 14.1053 28.9806 14.015C28.9302 13.915 28.9209 13.8103 28.8182 13.7183C28.7233 13.6268 28.6367 13.527 28.5592 13.4203C28.4806 13.3176 28.4659 13.168 28.3442 13.087C28.3194 13.0645 28.2971 13.0395 28.2776 13.0123C28.2516 12.9846 28.2229 12.9596 28.1989 12.931C28.1833 12.9051 28.1661 12.8802 28.1472 12.8566C28.0696 12.7873 27.9852 12.7233 27.9099 12.653C27.8616 12.5985 27.817 12.5409 27.7766 12.4803L27.0666 11.7886ZM25.7432 24.54L25.7612 24.557C25.7189 24.5756 25.6659 24.5836 25.6369 24.6143C25.5616 24.6933 25.5036 24.7893 25.4262 24.866C25.3542 24.9373 25.2596 24.9856 25.1876 25.0576C25.1156 25.1296 25.0662 25.2243 24.9979 25.3003C24.9388 25.3609 24.8759 25.4177 24.8096 25.4703C24.7316 25.537 24.6506 25.6036 24.5742 25.6703C24.5217 25.7178 24.4721 25.7685 24.4256 25.822C24.3849 25.8686 24.3502 25.922 24.3192 25.962C24.2572 26.023 24.2072 26.0726 24.1576 26.122C24.1242 26.1463 24.1112 26.1946 24.0812 26.2263C24.0365 26.2668 23.9882 26.3032 23.9369 26.335L22.2586 28.014C22.2219 28.055 22.1779 28.104 22.1336 28.1526C22.1119 28.1823 22.0479 28.183 22.0336 28.2096C21.9674 28.3329 21.8666 28.434 21.7436 28.5006C21.6726 28.5426 21.6209 28.6186 21.5649 28.6833C21.4982 28.761 21.4399 28.8466 21.3706 28.922C21.2842 29.016 21.1912 29.1043 21.0992 29.193C21.0326 29.258 20.9619 29.3206 20.8919 29.383C20.8219 29.4453 20.7342 29.509 20.6662 29.583C20.5982 29.657 20.5392 29.7453 20.4682 29.8383L20.3586 29.8623C20.3669 29.9566 20.3749 30.0463 20.3829 30.1356L20.6302 30.1626C20.7156 30.2626 20.7852 30.3586 20.8669 30.4406C20.9432 30.5173 21.0406 30.574 21.1136 30.653C21.1866 30.732 21.3469 30.7923 21.4049 30.7196C21.4956 30.605 21.6112 30.6256 21.7242 30.6173C21.8862 30.6053 22.0492 30.601 22.2112 30.5893C22.2482 30.5847 22.284 30.5734 22.3169 30.556C22.3689 30.5313 22.4169 30.486 22.4699 30.4766C22.5809 30.4576 22.6952 30.4573 22.8079 30.4473C22.8412 30.4443 22.8972 30.4423 22.9036 30.4253C22.9589 30.277 23.0882 30.3253 23.1922 30.3073C23.2536 30.2963 23.3589 30.2956 23.3676 30.2676C23.4062 30.1343 23.5092 30.1716 23.5942 30.1553C23.6889 30.1366 23.8222 30.2003 23.8522 30.0366C23.8522 30.027 23.8856 30.021 23.9039 30.0166C24.0429 29.9833 24.2039 30.05 24.3146 29.872C24.3549 29.808 24.5299 29.8546 24.6212 29.7236C24.6666 29.6586 24.8369 29.705 24.9292 29.576C24.9746 29.513 25.1592 29.567 25.2162 29.4196C25.2266 29.3926 25.3369 29.3956 25.3399 29.376C25.3572 29.2536 25.4569 29.276 25.5296 29.2536C25.5629 29.2436 25.6226 29.2406 25.6236 29.2303C25.6356 29.082 25.7676 29.1303 25.8442 29.0913C25.8712 29.0828 25.8971 29.0711 25.9212 29.0563C25.9672 29.014 26.0076 28.9656 26.0592 28.9103C26.1089 28.877 26.1592 28.8436 26.2129 28.8103C26.3169 28.7466 26.4266 28.691 26.5249 28.6196C26.5772 28.582 26.6109 28.5196 26.6722 28.444C26.7786 28.3683 26.9009 28.282 27.0222 28.194C27.0602 28.1663 27.0966 28.1356 27.1322 28.1046C27.1522 28.0873 27.1679 28.0643 27.1886 28.0473C27.2322 28.011 27.2776 27.9766 27.3219 27.9413C27.3079 27.9246 27.2942 27.908 27.2802 27.8916C27.4136 27.925 27.4469 27.8583 27.4469 27.7536C27.5599 27.7696 27.6136 27.7246 27.5962 27.6146L27.7296 27.5846L27.7046 27.5513C27.7472 27.5133 27.7906 27.476 27.8322 27.437C27.8512 27.419 27.8656 27.3966 27.8846 27.377C27.9579 27.2963 28.0319 27.216 28.1052 27.1353C28.1312 27.1066 28.1572 27.0783 28.1806 27.0476C28.2302 26.989 28.2748 26.9264 28.3139 26.8603C28.3574 26.7823 28.4167 26.7142 28.4879 26.6603C28.5639 26.597 28.5859 26.4473 28.6649 26.4133C28.8156 26.349 28.7792 26.2163 28.8442 26.1273C28.9636 25.992 29.1372 25.894 29.1402 25.674C29.1892 25.6376 29.2262 25.5875 29.2466 25.53C29.2709 25.4653 29.2466 25.375 29.3546 25.3633C29.3709 25.3613 29.3849 25.33 29.3976 25.31C29.4329 25.2543 29.4672 25.1973 29.5019 25.1406L29.5352 25.157C29.5436 25.0746 29.5519 24.9903 29.5566 24.944C29.6159 24.8876 29.6712 24.8586 29.6869 24.815C29.7202 24.7246 29.6619 24.592 29.8202 24.565C29.8292 24.5633 29.8336 24.521 29.8366 24.4983C29.8446 24.4353 29.8506 24.372 29.8576 24.309L29.9022 24.3256C29.9374 24.2654 29.9673 24.2023 29.9916 24.137C30.0159 24.0533 29.9959 23.9123 30.0429 23.8876C30.1762 23.8186 30.1326 23.709 30.1549 23.6123C30.1707 23.5474 30.1912 23.4838 30.2162 23.422C30.2379 23.369 30.2766 23.322 30.2929 23.2676C30.3222 23.1713 30.3352 23.07 30.3646 22.9736C30.3826 22.9143 30.4276 22.8633 30.4446 22.804C30.4919 22.6403 30.3949 22.4373 30.5829 22.3106C30.5942 22.303 30.5909 22.2733 30.5946 22.254C30.6426 21.999 30.5642 21.7336 30.7186 21.4803C30.7902 21.3626 30.7309 21.1653 30.7309 21.056C30.6119 20.9353 30.5196 20.8433 30.4289 20.749C30.3622 20.6803 30.2979 20.6096 30.2346 20.5383C30.203 20.5096 30.1775 20.475 30.1596 20.4363C30.1402 20.3773 30.1379 20.313 30.1199 20.1966C30.0062 20.2913 29.9199 20.3633 29.8352 20.4353C29.8066 20.4603 29.7869 20.4953 29.7596 20.5223C29.7382 20.5433 29.7082 20.5556 29.6882 20.5783C29.6506 20.62 29.6172 20.6653 29.5822 20.7093L29.5729 20.7066L29.4249 20.8593C29.3846 20.8856 29.3642 20.935 29.3286 20.9676C29.2529 21.0373 29.1659 21.0946 29.0896 21.164C28.9986 21.2466 28.9132 21.336 28.8269 21.4233C28.7602 21.49 28.6936 21.5583 28.6299 21.629C28.5616 21.7046 28.4999 21.7863 28.4299 21.8623C28.3462 21.9526 28.2572 22.0383 28.1716 22.127C28.1099 22.191 28.0522 22.2603 27.9882 22.3203C27.9442 22.3623 27.8926 22.3963 27.8442 22.434L27.8472 22.4446L27.6929 22.594C27.6446 22.6436 27.5956 22.694 27.5466 22.7456L27.5386 22.737L26.0252 24.253V24.2556L25.8889 24.3966H25.8919L25.7432 24.54ZM10.4136 27.931C10.4822 28.0213 10.5322 28.15 10.6229 28.1933C10.7856 28.2706 10.7422 28.4803 10.9059 28.5536C10.9942 28.593 11.0486 28.7043 11.1236 28.7773C11.1986 28.8503 11.3056 28.8976 11.3469 28.982C11.4249 29.1396 11.6322 29.102 11.7079 29.263C11.7459 29.344 11.8569 29.3883 11.9299 29.455C11.9762 29.502 12.0199 29.5517 12.0606 29.6036C12.1009 29.6273 12.1212 29.6703 12.1539 29.6993C12.2017 29.738 12.2518 29.7737 12.3039 29.8063L12.2802 29.8433C12.5032 29.8333 12.5932 30.0126 12.7376 30.1186L12.8879 30.2456C13.0336 30.329 13.2039 30.376 13.2849 30.488C13.3579 30.588 13.4379 30.5843 13.5222 30.6146C13.5479 30.624 13.5922 30.638 13.5932 30.652C13.6006 30.761 13.6909 30.7433 13.7549 30.766C13.7956 30.7803 13.8572 30.7833 13.8726 30.8113C13.9579 30.9663 14.1532 30.9253 14.2672 31.052C14.3522 31.1466 14.5602 31.1346 14.6386 31.2313C14.7506 31.3693 14.8849 31.3413 15.0142 31.3736C15.0436 31.381 15.0916 31.4006 15.0929 31.4176C15.1012 31.5263 15.1816 31.4993 15.2452 31.511C15.3039 31.5213 15.4019 31.5286 15.4119 31.5596C15.4432 31.6596 15.5146 31.6526 15.5859 31.6596C15.6692 31.6663 15.7526 31.6686 15.8406 31.673C15.8562 31.7146 15.8709 31.755 15.8879 31.8006C15.9979 31.8066 16.1062 31.8096 16.2132 31.821C16.2466 31.8246 16.3006 31.848 16.3039 31.8686C16.3186 31.9633 16.3856 31.9516 16.4482 31.955C16.5419 31.9596 16.6359 31.958 16.7286 31.9703C16.7852 31.9812 16.8399 32.0001 16.8912 32.0263C16.9426 32.049 16.9872 32.093 17.0399 32.1043C17.1732 32.1356 17.3399 32.058 17.4329 32.229C17.4416 32.245 17.4882 32.2403 17.5172 32.2453C17.8419 32.3016 18.1949 32.1723 18.4942 32.3946C18.8242 32.3983 19.1546 32.4043 19.4846 32.4026C19.5229 32.4026 19.5609 32.362 19.5989 32.34C19.5619 32.3153 19.5222 32.2666 19.4876 32.27C19.3289 32.2846 19.3122 32.0923 19.1759 32.0673C19.1292 32.059 19.0979 31.9673 19.0596 31.9146C19.0222 31.8953 19.0232 31.829 19.0059 31.824C18.8499 31.778 18.8896 31.6303 18.8392 31.503C18.6302 31.503 18.4189 31.506 18.2079 31.503C18.1412 31.503 18.0412 31.5006 18.0136 31.4606C17.9396 31.348 17.8359 31.3743 17.7386 31.3666C17.6352 31.3586 17.5312 31.3623 17.4282 31.3536C17.3652 31.3486 17.2699 31.3496 17.2476 31.313C17.1742 31.1906 17.0626 31.2273 16.9619 31.213C16.8992 31.204 16.7952 31.213 16.7816 31.1813C16.7202 31.0356 16.5952 31.0883 16.4942 31.0623C16.2866 31.0083 16.0809 30.9456 15.8749 30.886C15.8666 30.8836 15.8619 30.871 15.8536 30.8663C15.7936 30.833 15.7309 30.7663 15.6732 30.77C15.4649 30.7833 15.3526 30.5336 15.1362 30.5876C15.1309 30.5876 15.1169 30.5766 15.1159 30.5693C15.0999 30.436 14.9866 30.4763 14.9102 30.452C14.8829 30.4433 14.8309 30.4476 14.8279 30.436C14.7842 30.2693 14.6309 30.3283 14.5219 30.285C14.5139 30.0736 14.3289 30.1896 14.2402 30.114C14.1937 30.0674 14.1378 30.0314 14.0762 30.0083C14.0096 29.985 13.9212 30.0053 13.9172 29.8953C13.9172 29.883 13.8919 29.8693 13.8762 29.8596C13.8166 29.824 13.7562 29.7893 13.6962 29.7543C13.5036 29.7183 13.3936 29.566 13.2802 29.4663C13.1299 29.3766 12.9669 29.3263 12.8859 29.2156C12.8312 29.1403 12.7496 29.129 12.7059 29.064C12.6281 28.9548 12.5267 28.8644 12.4092 28.7996C12.3582 28.7649 12.3106 28.7255 12.2669 28.682C12.1972 28.6206 12.1302 28.556 12.0592 28.496C11.9802 28.4293 11.8949 28.3706 11.8182 28.3016C11.7748 28.2574 11.7347 28.2101 11.6982 28.16C11.6886 28.065 11.6149 28.0376 11.5316 28.0166C11.4953 27.9664 11.4512 27.9222 11.4009 27.886C11.3856 27.8748 11.3727 27.8604 11.3632 27.844C11.3049 27.726 11.1592 27.6556 11.1749 27.4976C11.0619 27.4903 11.0606 27.3773 11.0026 27.318C10.9599 27.274 10.9109 27.2363 10.8692 27.199L10.7526 27.0366C10.7419 27.0213 10.7342 26.9973 10.7192 26.992C10.5562 26.9316 10.6026 26.7143 10.4526 26.64C10.4069 26.6173 10.3829 26.5506 10.3319 26.481C10.2746 26.377 10.2032 26.2476 10.1319 26.117C10.0754 26.0789 10.031 26.0255 10.0039 25.963C9.98224 25.916 9.97624 25.8206 9.95724 25.8193C9.82724 25.8086 9.86624 25.7036 9.83491 25.6356C9.78691 25.531 9.74624 25.4 9.66057 25.342C9.56791 25.2793 9.56057 25.211 9.54491 25.126C9.53957 25.0926 9.53124 25.0393 9.51557 25.0363C9.36257 25.003 9.40857 24.8816 9.39691 24.7873C9.38524 24.693 9.40524 24.5803 9.26357 24.582C9.21924 24.4626 9.31924 24.2873 9.10757 24.271C9.10698 24.1843 9.10119 24.0977 9.09024 24.0116C9.08057 23.9583 9.04591 23.9093 9.02091 23.8593C8.99924 23.8166 8.96424 23.7783 8.95424 23.7336C8.93124 23.6336 8.95424 23.4853 8.89691 23.4403C8.78991 23.3583 8.81357 23.266 8.79691 23.1706C8.78024 23.0753 8.84091 22.9446 8.68424 22.904C8.67057 22.9003 8.66424 22.852 8.66191 22.8236C8.65391 22.7303 8.65224 22.6366 8.64291 22.5436C8.63257 22.441 8.65324 22.2993 8.59491 22.2436C8.47824 22.1353 8.50491 22.0143 8.49691 21.8943C8.47957 21.6253 8.50024 21.355 8.34391 21.107C8.29624 21.0313 8.26224 20.9736 8.17724 20.984C8.01924 21.0063 8.01457 20.815 7.88657 20.789C7.84157 20.78 7.81157 20.698 7.77491 20.6493L7.74157 20.6676C7.73657 20.6253 7.73157 20.583 7.72691 20.5416C7.61824 20.5053 7.57124 20.5336 7.57391 20.6453C7.58324 21.0346 7.58724 21.4243 7.59791 21.8136C7.59957 21.8706 7.60724 21.9553 7.64291 21.978C7.74591 22.0446 7.72524 22.1356 7.72991 22.225C7.73524 22.3283 7.73557 22.432 7.74257 22.5353C7.74491 22.5686 7.75624 22.622 7.77157 22.625C7.90324 22.6506 7.86824 22.7546 7.87557 22.8356C7.88491 22.9386 7.88391 23.0423 7.89191 23.1456C7.89424 23.179 7.90291 23.2296 7.92191 23.2366C8.04191 23.2803 8.01691 23.3816 8.02691 23.47C8.03957 23.582 8.01424 23.7426 8.07724 23.795C8.19157 23.8893 8.17157 23.995 8.18991 24.1026C8.21724 24.2693 8.38991 24.382 8.35657 24.5693C8.51324 24.6233 8.46124 24.7666 8.48991 24.8763C8.52957 25.0286 8.67924 25.1353 8.67091 25.3096C8.67091 25.3143 8.68591 25.324 8.69424 25.3246C8.79257 25.334 8.78624 25.4073 8.79157 25.477C8.79557 25.5253 8.79791 25.6103 8.81824 25.615C8.98724 25.6626 8.92224 25.813 8.96457 25.9236L9.07424 25.9596C9.11357 26.0723 9.04424 26.2323 9.23657 26.2513C9.24057 26.2976 9.24424 26.341 9.24824 26.3846L9.37424 26.42C9.38457 26.51 9.39391 26.5923 9.40324 26.6746L9.44224 26.6556C9.47557 26.7063 9.50557 26.7556 9.53857 26.8073C9.55124 26.8266 9.56624 26.858 9.58191 26.859C9.68024 26.8656 9.66757 26.9453 9.69191 27.0063C9.72054 27.067 9.75398 27.1253 9.79191 27.1806H9.80224L9.93924 27.3473C10.0286 27.5963 10.2429 27.7466 10.4136 27.931ZM31.8899 20.9666C31.7809 20.9823 31.7809 20.9823 31.6349 21.1163C31.6276 21.1228 31.6183 21.1268 31.6086 21.1276C31.4932 21.1293 31.5086 21.2153 31.5086 21.2866C31.5026 21.523 31.4999 21.76 31.4919 21.9963C31.4919 22.0433 31.4832 22.1223 31.4586 22.1296C31.3252 22.1773 31.3622 22.285 31.3559 22.3766C31.3489 22.4796 31.3496 22.5833 31.3439 22.6866C31.3439 22.7143 31.3346 22.762 31.3216 22.7653C31.1736 22.7986 31.2186 22.9226 31.2046 23.016C31.1846 23.1493 31.2359 23.3083 31.0736 23.395C31.0626 23.401 31.0632 23.431 31.0606 23.4503C31.0406 23.598 31.0456 23.7323 30.9329 23.877C30.8412 23.9946 30.8502 24.201 30.7716 24.3693C30.7019 24.5183 30.5422 24.6543 30.5829 24.8523C30.5823 24.8572 30.5805 24.8619 30.5776 24.8659C30.5747 24.8698 30.5708 24.873 30.5662 24.875C30.4259 24.8906 30.4692 25.0106 30.4432 25.0906C30.4329 25.124 30.4312 25.1783 30.4149 25.1826C30.2916 25.216 30.3099 25.32 30.2879 25.4056C30.2802 25.435 30.2616 25.4826 30.2439 25.4846C30.1509 25.494 30.1652 25.5626 30.1466 25.6226C30.118 25.6964 30.0837 25.7679 30.0439 25.8363L30.0359 25.8393C29.9646 25.9702 29.8932 26.1016 29.8219 26.2336L29.7189 26.2566C29.6689 26.364 29.7582 26.5343 29.5522 26.542L29.5386 26.678L29.4166 26.709C29.4022 26.7593 29.3982 26.8323 29.3772 26.8373C29.2256 26.8756 29.2569 27.0066 29.2382 27.0813C29.1895 27.1177 29.1433 27.1573 29.0999 27.2C29.0286 27.281 28.9646 27.3666 28.8956 27.4513C28.8512 27.505 28.8046 27.5566 28.7569 27.6076C28.6779 27.6916 28.5756 27.7626 28.5236 27.8603C28.4532 27.9993 28.3465 28.1166 28.2149 28.2C28.1406 28.2466 28.0919 28.3333 28.0296 28.4C28.001 28.4312 27.9693 28.4593 27.9349 28.484C27.8272 28.5606 27.7106 28.6266 27.6109 28.7126C27.5369 28.7763 27.4922 28.874 27.4189 28.9386C27.3382 29.01 27.1916 29.042 27.1586 29.1246C27.0899 29.298 26.8469 29.208 26.8042 29.4016C26.7939 29.4493 26.7002 29.479 26.6452 29.517L26.6579 29.535L26.2422 29.7613C26.2422 29.7596 26.2329 29.8006 26.2242 29.8356C26.1116 29.8776 25.9479 29.8023 25.9382 29.948L25.7332 30.1166L25.7489 30.1353L25.5012 30.164C25.5062 30.179 25.5112 30.1943 25.5159 30.2093C25.4602 30.2393 25.4062 30.2726 25.3492 30.298C25.3019 30.3186 25.2099 30.3236 25.2069 30.3453C25.1899 30.466 25.0972 30.4366 25.0272 30.4533C24.9849 30.4633 24.9106 30.4643 24.9052 30.4836C24.8669 30.6286 24.7466 30.5836 24.6542 30.606C24.6272 30.6123 24.5832 30.6223 24.5789 30.6393C24.5456 30.7683 24.4352 30.7323 24.3522 30.756C24.2836 30.7734 24.2158 30.7943 24.1492 30.8186C24.1016 30.8376 24.0592 30.8906 24.0139 30.8916C23.7566 30.8973 23.5582 31.1233 23.2902 31.0813C23.2853 31.0812 23.2805 31.0822 23.2761 31.0845C23.2718 31.0867 23.268 31.0899 23.2652 31.094C23.2126 31.2416 23.0816 31.1916 22.9776 31.2096C22.9108 31.2179 22.8447 31.2312 22.7799 31.2493C22.6972 31.277 22.6216 31.3336 22.5376 31.3493C22.4169 31.3696 22.2919 31.3616 22.1689 31.3693C22.1262 31.372 22.0602 31.371 22.0456 31.396C21.9762 31.5143 21.8632 31.499 21.7589 31.5016C21.5589 31.507 21.3566 31.5016 21.2009 31.5016C21.1036 31.6816 21.0302 31.818 20.9566 31.954L20.9299 31.9313L20.8156 32.0563L20.6069 32.2516C20.5685 32.2573 20.5306 32.2661 20.4936 32.278C20.4575 32.2952 20.4232 32.316 20.3912 32.34C20.4246 32.3593 20.4609 32.3946 20.4959 32.395C20.8356 32.3973 21.1752 32.395 21.5149 32.391C21.5326 32.391 21.5482 32.3766 21.5679 32.3696C21.6536 32.3363 21.7372 32.281 21.8259 32.2696C22.0016 32.2493 22.1802 32.2546 22.3572 32.2463C22.3952 32.2441 22.4325 32.2349 22.4672 32.2193C22.5382 32.186 22.6032 32.134 22.6766 32.1193C22.7766 32.099 22.8829 32.1093 22.9859 32.1C23.022 32.0927 23.0566 32.0791 23.0879 32.0596C23.1486 32.0293 23.2052 31.9806 23.2692 31.9683C23.3692 31.9493 23.4752 31.9556 23.5782 31.947C23.6099 31.9443 23.6652 31.931 23.6672 31.9166C23.6869 31.7803 23.7942 31.8203 23.8732 31.8103C23.9522 31.8003 24.0292 31.8003 24.1182 31.7956C24.1129 31.676 24.1829 31.6623 24.2782 31.66C24.3736 31.6576 24.5182 31.6573 24.5382 31.6113C24.5889 31.4936 24.6732 31.5226 24.7529 31.506C24.7972 31.4966 24.8719 31.4843 24.8769 31.461C24.8972 31.3663 24.9629 31.366 25.0319 31.364C25.1986 31.3586 25.2916 31.1606 25.4736 31.193C25.4779 31.193 25.4902 31.179 25.4902 31.1713C25.4902 31.0573 25.5859 31.0853 25.6489 31.062C25.7119 31.0386 25.7746 31.0053 25.8369 30.9763L25.8229 30.9376C25.9229 30.8883 26.0786 30.9566 26.1179 30.7866C26.1179 30.78 26.1456 30.7736 26.1586 30.776C26.3356 30.8093 26.3896 30.6073 26.5432 30.576C26.6382 30.5576 26.7186 30.466 26.8056 30.4073C26.8556 30.374 26.9036 30.3406 26.9516 30.3073C26.9706 30.2943 26.9902 30.282 27.0089 30.2686C27.0642 30.2293 27.1186 30.188 27.1756 30.1496C27.2259 30.1163 27.2782 30.0853 27.3292 30.0533L27.3109 30.0153L27.4399 29.9973C27.4512 29.95 27.4609 29.909 27.4702 29.8713C27.6766 29.846 27.8669 29.712 27.9009 29.5963C27.9616 29.5526 28.0049 29.5243 28.0452 29.492C28.0774 29.4655 28.108 29.4372 28.1369 29.4073C28.1586 29.386 28.1772 29.362 28.1982 29.3406C28.2236 29.3127 28.2504 29.2861 28.2786 29.261C28.305 29.2441 28.3306 29.2258 28.3552 29.2063C28.4246 29.132 28.4886 29.054 28.5589 28.9786C28.5942 28.94 28.6322 28.9033 28.6709 28.8673C28.7426 28.8006 28.8156 28.736 28.8879 28.6703C28.9602 28.6046 29.0382 28.5396 29.1066 28.468C29.1452 28.4215 29.18 28.3721 29.2106 28.32H29.2219C29.2706 28.269 29.3196 28.218 29.3926 28.1423C29.3842 28.0846 29.4259 28.028 29.5419 28.047C29.5479 27.9943 29.5526 27.952 29.5572 27.9093L29.5946 27.9293C29.6279 27.8803 29.6612 27.8293 29.6986 27.7826C29.7126 27.7643 29.7336 27.7516 29.7479 27.7336C29.7812 27.6913 29.8146 27.6486 29.8452 27.6036C29.9119 27.5056 29.9549 27.381 30.0429 27.313C30.1592 27.2226 30.2242 27.1063 30.2972 26.9896C30.3609 26.8896 30.4026 26.7543 30.4932 26.6943C30.5839 26.6343 30.5806 26.5636 30.6112 26.4943C30.6242 26.4643 30.6299 26.4043 30.6402 26.404C30.7619 26.4013 30.7316 26.296 30.7632 26.233C30.7949 26.17 30.8276 26.1203 30.8602 26.0643C30.9099 25.988 30.9376 25.8976 30.9742 25.8136C30.9939 25.7686 31.0409 25.7343 31.0562 25.6886C31.0802 25.6146 31.0519 25.513 31.1742 25.502C31.1819 25.3443 31.2879 25.2316 31.3529 25.0996C31.3772 25.0503 31.3659 24.9836 31.3709 24.9203L31.4929 24.8746C31.5262 24.759 31.4529 24.598 31.6339 24.546C31.6432 24.5433 31.6419 24.5003 31.6439 24.476C31.6506 24.3973 31.6526 24.3183 31.6646 24.2406C31.6699 24.2073 31.6932 24.1533 31.7129 24.151C31.8106 24.1406 31.7929 24.0713 31.8016 24.01C31.8152 23.9133 31.8016 23.7713 31.8579 23.7316C31.9696 23.653 31.9412 23.5563 31.9579 23.4623C31.9688 23.3861 31.9845 23.3106 32.0049 23.2363C32.0276 23.168 32.0812 23.1083 32.0946 23.0396C32.1142 22.9396 32.1072 22.8333 32.1182 22.7306C32.1266 22.6949 32.1414 22.661 32.1619 22.6306C32.1872 22.5843 32.2342 22.5413 32.2386 22.4936C32.2576 22.2936 32.2629 22.0903 32.2752 21.8886C32.2779 21.8453 32.2752 21.776 32.2999 21.7643C32.4239 21.7026 32.3936 21.5893 32.3999 21.493C32.4116 21.321 32.4112 21.148 32.4146 20.9756C32.4172 20.8523 32.4232 20.7286 32.4146 20.606C32.4122 20.5726 32.3639 20.5393 32.3369 20.506C32.3064 20.53 32.2785 20.5573 32.2539 20.5873C32.2434 20.6134 32.2382 20.6412 32.2386 20.6693L32.2052 20.6463L32.0689 20.7923H32.0719L31.8899 20.9666ZM30.9206 14.041L30.9539 14.0176C30.8836 13.8843 30.8449 13.6996 30.7342 13.6326C30.5932 13.547 30.6322 13.4326 30.5876 13.3233C30.5542 13.3136 30.4899 13.3073 30.4876 13.2916C30.4679 13.1513 30.3932 13.0473 30.2996 12.9466C30.2282 12.8706 30.1769 12.776 30.1152 12.691C30.0782 12.6396 30.0362 12.591 29.9999 12.5403C29.9636 12.4896 29.9276 12.428 29.9092 12.3993L29.5932 12.0506C29.5442 11.968 29.5672 11.8506 29.4202 11.7993C29.3512 11.776 29.3039 11.683 29.2506 11.6186C29.2119 11.5726 29.1792 11.522 29.1442 11.4733C29.0519 11.388 28.9746 11.2973 28.8922 11.211C28.8498 11.1708 28.8053 11.1328 28.7589 11.0973C28.6769 11.0116 28.5806 10.9423 28.4966 10.8603C28.4249 10.7903 28.3822 10.6733 28.2999 10.635C28.1739 10.5763 28.1229 10.3976 27.9496 10.4226C27.9396 10.4243 27.9252 10.396 27.9122 10.3826C27.8716 10.34 27.8302 10.298 27.7892 10.2556H27.7852L27.6289 10.1106L27.6069 10.1313L27.5846 10.0313L27.1586 9.78898C27.1586 9.78464 27.1496 9.74731 27.1406 9.70664L26.9979 9.68898C26.9979 9.57298 26.9186 9.54998 26.8229 9.54264C26.7857 9.54221 26.7494 9.5306 26.7189 9.50931C26.6359 9.43398 26.5712 9.33164 26.4779 9.27598C26.3846 9.22031 26.2426 9.27198 26.2049 9.11531C26.2009 9.09864 26.1226 9.10264 26.0796 9.09231C26.0366 9.08198 25.9759 9.07964 25.9596 9.05198C25.8659 8.89264 25.6752 8.90431 25.5436 8.80598C25.4119 8.70764 25.2342 8.67764 25.0769 8.61698C25.0724 8.61512 25.0684 8.61231 25.0651 8.60874C25.0618 8.60517 25.0594 8.60093 25.0579 8.59631C25.0412 8.47331 24.9379 8.50464 24.8629 8.48664C24.8256 8.47764 24.7602 8.48398 24.7526 8.46531C24.6859 8.29531 24.5286 8.36298 24.4109 8.32964C24.3688 8.31618 24.3284 8.29783 24.2906 8.27498C24.2499 8.25198 24.2156 8.20831 24.1732 8.19998C24.0779 8.17864 23.9219 8.20531 23.8926 8.15398C23.8019 7.99464 23.6649 8.06098 23.5472 8.03531C23.4972 8.02464 23.4139 8.01498 23.4066 7.98998C23.3812 7.88298 23.3039 7.89964 23.2332 7.89564C23.1299 7.88998 23.0262 7.88964 22.9229 7.88231C22.8862 7.87931 22.8229 7.86998 22.8182 7.84898C22.7789 7.72031 22.6732 7.75198 22.5866 7.74631C22.4439 7.73664 22.3006 7.73898 22.1582 7.72931C22.1177 7.72137 22.079 7.70551 22.0446 7.68264C21.9956 7.65698 21.9499 7.60464 21.9012 7.60264C21.5909 7.58998 21.2799 7.58964 20.9696 7.57998C20.9202 7.57998 20.8449 7.56498 20.8276 7.53264C20.7682 7.42198 20.6739 7.46831 20.5922 7.46264C20.5812 7.46484 20.5708 7.46982 20.5622 7.4771C20.5536 7.48439 20.5469 7.49375 20.5429 7.50431C20.5439 7.53157 20.5544 7.55762 20.5726 7.57798C20.6139 7.62764 20.6602 7.67298 20.7059 7.71998L20.7116 7.71631L20.9626 7.94164C20.9732 7.95898 21.0006 8.00464 21.0292 8.04931C21.0549 8.08831 21.0922 8.12264 21.1072 8.16498C21.1215 8.21846 21.1309 8.27313 21.1352 8.32831C21.2972 8.38764 21.4866 8.31498 21.6059 8.47531C21.6159 8.48831 21.6529 8.48098 21.6772 8.48398C21.9479 8.51731 22.2226 8.46431 22.4872 8.61931C22.6412 8.70964 22.8639 8.63198 23.0419 8.76498C23.1296 8.83164 23.2899 8.79831 23.4169 8.81398C23.4502 8.81764 23.5046 8.82231 23.5102 8.83964C23.5566 8.97864 23.6769 8.93231 23.7706 8.95164C23.8372 8.96531 23.9559 8.96531 23.9609 8.98964C23.9899 9.13331 24.1016 9.08298 24.1819 9.10431C24.2182 9.11398 24.2762 9.11098 24.2882 9.13331C24.3489 9.24598 24.4522 9.24098 24.5549 9.25264C24.6096 9.25898 24.7029 9.27464 24.7086 9.30098C24.7309 9.40831 24.8056 9.40098 24.8752 9.39898C24.9786 9.39498 25.0419 9.43431 25.0519 9.53831L25.3186 9.56298C25.3349 9.61098 25.3482 9.65098 25.3599 9.68598L25.6156 9.71698C25.6276 9.76264 25.6369 9.79931 25.6489 9.84198C25.8736 9.82798 25.9866 9.98964 26.1742 10.1363C26.2241 10.1434 26.2722 10.1602 26.3155 10.1859C26.3589 10.2116 26.3967 10.2456 26.4269 10.286C26.5059 10.3816 26.6626 10.413 26.7846 10.474C26.7967 10.4812 26.8073 10.4905 26.8159 10.5016C26.8852 10.5803 26.9432 10.674 27.0256 10.735C27.1299 10.812 27.2539 10.8623 27.3689 10.925C27.3853 10.9344 27.4003 10.9462 27.4132 10.96C27.4616 11.0083 27.5092 11.0576 27.5572 11.1066V11.1136L27.7299 11.266L27.8529 11.389L27.8836 11.3663L27.9042 11.4913L27.9359 11.4683L28.0822 11.6203C28.1076 11.652 28.1552 11.665 28.1872 11.6946C28.2302 11.7398 28.2695 11.7884 28.3046 11.84C28.3542 11.8803 28.3989 11.9173 28.4442 11.9533C28.4516 11.959 28.4689 11.9606 28.4692 11.9653C28.4779 12.0653 28.5412 12.112 28.6296 12.1366C28.6349 12.1366 28.6336 12.156 28.6389 12.1633C28.7029 12.2476 28.7572 12.343 28.8342 12.413C28.9649 12.5316 29.1106 12.6343 29.1466 12.813L29.3022 13.0016C29.3872 12.978 29.3989 13.0636 29.4159 13.1456C29.4646 13.1756 29.5159 13.21 29.5342 13.2573C29.5579 13.3136 29.5552 13.381 29.5639 13.444L29.6639 13.4636L29.9502 13.952C30.0436 14.1123 30.1169 14.287 30.1996 14.4576C30.2346 14.5303 30.2726 14.6356 30.3329 14.655C30.4542 14.6946 30.4296 14.785 30.4519 14.8626C30.4609 14.896 30.4599 14.9516 30.4762 14.9566C30.6246 15.0036 30.5859 15.133 30.6096 15.2356C30.6209 15.2876 30.6256 15.379 30.6489 15.384C30.7782 15.4136 30.7372 15.521 30.7632 15.5963C30.7739 15.6296 30.7732 15.6866 30.7889 15.6906C30.9429 15.7316 30.8889 15.8606 30.9096 15.9573C30.9226 16.0214 30.9413 16.0842 30.9656 16.145C30.9876 16.196 31.0352 16.237 31.0512 16.2886C31.0892 16.4116 30.9989 16.5796 31.1846 16.6523C31.1982 16.6576 31.1966 16.7066 31.1986 16.736C31.2042 16.8193 31.2036 16.9026 31.2149 16.9863C31.2192 17.0173 31.2482 17.045 31.2682 17.074C31.2942 17.1136 31.3399 17.1513 31.3432 17.1926C31.3579 17.3643 31.3572 17.5373 31.3679 17.7096C31.3702 17.7483 31.3889 17.812 31.4126 17.819C31.5079 17.8456 31.4976 17.9163 31.4979 17.9836C31.4979 18.2243 31.4979 18.465 31.4979 18.7056L31.5462 18.69L31.6999 18.8666L31.9252 18.8893L31.9062 18.915L32.2439 19.2433C32.2402 19.219 32.2392 19.24 32.2469 19.2573C32.2759 19.324 32.3076 19.388 32.3379 19.453C32.3652 19.38 32.4149 19.307 32.4159 19.2336C32.4189 18.953 32.4069 18.672 32.3986 18.391C32.3986 18.353 32.3956 18.2936 32.3732 18.2813C32.2569 18.2166 32.2799 18.1083 32.2732 18.0083C32.2636 17.8363 32.2572 17.6636 32.2446 17.4916C32.2394 17.4499 32.2263 17.4095 32.2059 17.3726C32.1809 17.3206 32.1329 17.2753 32.1229 17.222C32.1032 17.1163 32.1092 17.0056 32.0916 16.8993C32.0832 16.85 32.0436 16.806 32.0206 16.7583C32.0016 16.7264 31.9877 16.6916 31.9796 16.6553C31.9646 16.543 31.9589 16.43 31.9442 16.3176C31.9389 16.276 31.9286 16.2083 31.9042 16.2C31.7932 16.1626 31.8149 16.0723 31.8042 15.9933C31.7982 15.9496 31.8059 15.877 31.7846 15.8673C31.6222 15.7936 31.6712 15.6443 31.6489 15.521C31.6429 15.4876 31.6422 15.4273 31.6302 15.425C31.4582 15.3916 31.5319 15.251 31.5032 15.1543C31.4752 15.076 31.4425 14.9994 31.4052 14.925L31.3636 14.9393C31.3569 14.8563 31.3502 14.7726 31.3429 14.6836L31.2239 14.6503C31.1786 14.5346 31.2672 14.3646 31.0696 14.3436C31.0599 14.2533 31.0516 14.1703 31.0422 14.0833L30.9206 14.041ZM12.2819 11.238L12.2846 11.2423L12.4442 11.0966C12.5276 11.017 12.6596 10.9633 12.7029 10.8706C12.7516 10.766 12.8342 10.7883 12.8962 10.7463C12.9582 10.7043 13.0179 10.652 13.0789 10.6046C13.0822 10.602 13.0902 10.6046 13.0932 10.6026C13.1156 10.5823 13.1369 10.5607 13.1569 10.538C13.1766 10.5146 13.1869 10.4773 13.2112 10.4646C13.3306 10.403 13.4536 10.348 13.5742 10.2893C13.5866 10.2814 13.5962 10.2697 13.6016 10.256C13.6769 10.0963 13.8916 10.1406 13.9796 9.99664C14.0064 9.96418 14.0383 9.93617 14.0739 9.91364C14.0979 9.89431 14.1212 9.86664 14.1486 9.86064C14.2136 9.84858 14.2793 9.84002 14.3452 9.83498C14.3569 9.79431 14.3682 9.75364 14.3786 9.72031C14.4909 9.67131 14.6659 9.76631 14.6739 9.56098L14.9406 9.53598C14.9522 9.49398 14.9636 9.45364 14.9739 9.42064C15.0899 9.37364 15.2589 9.46598 15.2816 9.27664C15.3816 9.25731 15.5249 9.26731 15.5509 9.21698C15.6176 9.08998 15.7152 9.11998 15.8106 9.10164C15.8792 9.08825 15.9462 9.06769 16.0106 9.04031C16.0572 9.02098 16.0949 8.97364 16.1422 8.96231C16.2422 8.93764 16.3956 8.96231 16.4346 8.90498C16.5112 8.79131 16.6042 8.81498 16.6986 8.80098C16.8056 8.78531 16.9576 8.80998 17.0099 8.74864C17.1099 8.63031 17.2262 8.66364 17.3396 8.64498C17.3969 8.63531 17.4872 8.64498 17.5062 8.61164C17.5706 8.50264 17.6682 8.51631 17.7629 8.51164C17.9449 8.50031 18.1272 8.49331 18.3089 8.48131C18.3466 8.47741 18.3835 8.46727 18.4179 8.45131C18.4806 8.42531 18.5389 8.38464 18.6036 8.36831C18.6891 8.35326 18.7755 8.3438 18.8622 8.33998C18.8739 8.28731 18.8729 8.21464 18.8956 8.20664C19.0449 8.15464 19.0099 8.01831 19.0409 7.90664L19.1639 7.88264L19.1972 7.75198L19.2336 7.77898C19.3079 7.70064 19.3846 7.62431 19.4536 7.54164C19.4619 7.53164 19.4299 7.46331 19.4179 7.46398C19.3476 7.46664 19.2432 7.45698 19.2142 7.49731C19.1559 7.57864 19.0896 7.57964 19.0109 7.58098C18.6856 7.58631 18.3599 7.59031 18.0349 7.59964C17.9739 7.59964 17.8736 7.60964 17.8606 7.64231C17.8169 7.75331 17.7336 7.73164 17.6539 7.73531C17.5409 7.74064 17.4272 7.74131 17.3142 7.75031C17.2786 7.75739 17.2447 7.7712 17.2142 7.79098C17.1599 7.81964 17.1099 7.86964 17.0532 7.87864C16.9405 7.89001 16.8272 7.89568 16.7139 7.89564C16.6856 7.89564 16.6356 7.90131 16.6326 7.91331C16.5932 8.07998 16.4562 8.01164 16.3566 8.03664C16.1499 8.08898 15.9449 8.14798 15.7392 8.20531C15.7345 8.2067 15.7301 8.20912 15.7264 8.21241C15.7227 8.21569 15.7198 8.21976 15.7179 8.22431C15.6869 8.35231 15.5792 8.32164 15.4919 8.33564C15.4209 8.34698 15.2969 8.34731 15.2886 8.37798C15.2506 8.51398 15.1426 8.46698 15.0629 8.49198C15.0296 8.50164 14.9742 8.50564 14.9716 8.52031C14.9472 8.65364 14.8326 8.61698 14.7519 8.64231C14.7206 8.65231 14.6689 8.65531 14.6619 8.67564C14.6222 8.78331 14.5286 8.77564 14.4439 8.79298C14.4115 8.79885 14.3803 8.81011 14.3516 8.82631C14.2159 8.90831 14.0849 8.99698 13.9466 9.07531C13.8709 9.11798 13.7366 9.06998 13.7326 9.21931C13.5772 9.21098 13.4786 9.32231 13.3609 9.39398C13.3416 9.40598 13.3039 9.41398 13.3029 9.42531C13.2929 9.57264 13.1729 9.52864 13.0916 9.54998C13.0686 9.55524 13.0453 9.55925 13.0219 9.56198L12.9982 9.68531L12.8649 9.69964L12.8806 9.74064C12.8271 9.77822 12.7708 9.81165 12.7122 9.84064C12.6496 9.86598 12.5562 9.84064 12.5606 9.95564C12.5606 9.96698 12.5356 9.98098 12.5206 9.99098C12.4702 10.0243 12.4206 10.0576 12.3682 10.093C12.3426 10.1386 12.2632 10.1516 12.2609 10.173C12.2479 10.292 12.1422 10.2703 12.0792 10.3113C12.0415 10.3362 12.0061 10.3643 11.9732 10.3953C11.9012 10.462 11.8352 10.5373 11.7602 10.6006C11.6852 10.664 11.5899 10.721 11.5112 10.789C11.4681 10.8334 11.4294 10.8818 11.3956 10.9336L11.3876 10.9316L11.2332 11.0876L11.2306 11.084L11.0886 11.2383H11.0836L10.9209 11.3943L10.9292 11.4056L10.7699 11.542L10.7822 11.5523L10.4706 11.864C10.4516 11.8886 10.4149 11.9343 10.3802 11.9813C10.3505 12.0166 10.3244 12.0549 10.3026 12.0956C10.2476 12.2269 10.1536 12.338 10.0332 12.414C10.0129 12.4266 10.0062 12.461 9.99324 12.485C9.97935 12.5135 9.96365 12.5411 9.94624 12.5676C9.91291 12.614 9.87191 12.6556 9.84091 12.7036C9.77891 12.7996 9.72124 12.8986 9.65457 13.008L9.56457 13.0276C9.50924 13.134 9.60357 13.314 9.41357 13.316C9.38791 13.3753 9.37191 13.457 9.34691 13.4596C9.24257 13.4703 9.25357 13.5436 9.24424 13.6086C9.23791 13.652 9.23457 13.6956 9.22991 13.74L9.10957 13.7733C9.09291 13.865 9.09324 14.0093 9.06024 14.0173C8.91224 14.053 8.95591 14.1736 8.91991 14.2583C8.90095 14.2894 8.87859 14.3182 8.85324 14.3443C8.83257 14.373 8.79457 14.404 8.79657 14.4316C8.81057 14.6286 8.56957 14.7276 8.60757 14.9316C8.60757 14.937 8.59491 14.951 8.58791 14.9513C8.46324 14.9563 8.50124 15.0603 8.48157 15.1273C8.47091 15.1646 8.48157 15.2306 8.46257 15.2393C8.29824 15.314 8.35724 15.471 8.32357 15.5926C8.31457 15.626 8.31591 15.6833 8.29991 15.688C8.15157 15.7326 8.19991 15.8603 8.17824 15.9573C8.1633 16.0209 8.14335 16.0832 8.11857 16.1436C8.09657 16.1956 8.05191 16.2403 8.03824 16.2933C8.00824 16.4226 8.07157 16.58 7.91557 16.6693C7.90657 16.6743 7.90724 16.6966 7.90424 16.711C7.85757 16.926 7.91924 17.161 7.75457 17.3573C7.70624 17.415 7.74324 17.5393 7.72891 17.6313C7.70791 17.7646 7.79324 17.9313 7.61157 18.0193C7.60057 18.0243 7.59857 18.0553 7.59824 18.0743C7.59024 18.4686 7.58157 18.8633 7.57924 19.2576C7.57924 19.2856 7.62757 19.314 7.65357 19.3423C7.68286 19.3183 7.70977 19.2915 7.73391 19.2623C7.74591 19.2453 7.74057 19.216 7.74524 19.174C7.86024 19.2033 7.89324 19.135 7.92057 19.0603L8.10157 18.883L8.31457 18.863C8.33257 18.815 8.33891 18.7456 8.36424 18.738C8.49291 18.6993 8.46424 18.5983 8.46991 18.51C8.48324 18.2736 8.49424 18.0373 8.50857 17.8013C8.51091 17.7633 8.51324 17.7046 8.53557 17.6926C8.64791 17.633 8.62524 17.526 8.63557 17.4336C8.64591 17.3413 8.64424 17.2563 8.65224 17.167C8.65524 17.1356 8.66491 17.0816 8.68091 17.078C8.80624 17.0476 8.77757 16.9446 8.78857 16.8626C8.80091 16.7703 8.79924 16.676 8.80624 16.5826C8.80857 16.5543 8.81457 16.505 8.82724 16.502C8.98724 16.4643 8.92391 16.3326 8.94324 16.237C8.95557 16.175 8.94857 16.0646 8.97391 16.057C9.13757 16.009 9.06991 15.8763 9.09624 15.778C9.11509 15.7166 9.13895 15.6568 9.16757 15.5993C9.18924 15.552 9.22591 15.51 9.23991 15.461C9.25127 15.405 9.25774 15.3481 9.25924 15.291L9.38091 15.2466C9.38824 15.153 9.39457 15.0703 9.40157 14.9823L9.52657 14.9473C9.53557 14.8563 9.54357 14.7736 9.55191 14.6846L9.64957 14.6536C9.72924 14.4593 9.78124 14.273 9.88124 14.1173C9.92324 14.0506 9.97224 13.9453 10.0146 13.9263C10.1459 13.8693 10.1359 13.7653 10.1596 13.666C10.1637 13.6473 10.1742 13.6307 10.1892 13.619C10.3489 13.513 10.4459 13.3676 10.4646 13.209C10.5679 13.117 10.6802 13.0576 10.7246 12.966C10.7719 12.866 10.7579 12.7456 10.8912 12.6903C10.9406 12.67 10.9642 12.587 10.9996 12.5326H11.0136L11.1592 12.3743L11.1839 12.3933L11.2039 12.2663L11.2266 12.2833L12.2819 11.238Z" fill="#9E9E9E"/>
</svg>
