<svg width="16" height="16" viewBox="0 0 16 16" fill="none" xmlns="http://www.w3.org/2000/svg">
<path d="M9.14082 2.19788C9.15749 2.18238 9.17199 2.15738 9.19082 2.15288C9.23915 2.14188 9.29082 2.15788 9.32415 2.09404C9.33682 2.07071 9.41049 2.08371 9.45449 2.07271C9.48249 2.06571 9.50615 2.04288 9.53332 2.03088C9.55849 2.01882 9.58518 2.01025 9.61265 2.00538C9.68632 1.99488 9.76982 2.02004 9.82215 1.93721C9.82915 1.92587 9.86365 1.93321 9.88482 1.92937C9.94232 1.91904 10.012 1.94288 10.0472 1.86654C10.0527 1.85454 10.0922 1.85871 10.1158 1.85421C10.1712 1.84387 10.2355 1.86754 10.2748 1.79637C10.2852 1.77771 10.3428 1.78637 10.3783 1.77971C10.4227 1.77187 10.4747 1.78887 10.5028 1.72871C10.5105 1.71204 10.5552 1.71087 10.5835 1.70704C10.6267 1.70137 10.6713 1.70387 10.7137 1.69487C10.7368 1.68987 10.7558 1.66737 10.7782 1.65504C10.7955 1.64488 10.8141 1.63714 10.8335 1.63204C10.8988 1.61721 10.969 1.64371 11.0287 1.57487C11.0563 1.54304 11.1392 1.55971 11.1968 1.55271C11.2353 1.54804 11.2802 1.55837 11.2968 1.50271C11.3005 1.49087 11.3383 1.48954 11.3603 1.48337C11.421 1.46671 11.5047 1.51671 11.5397 1.42137C11.5427 1.41337 11.5707 1.41254 11.5872 1.41154C11.6452 1.40804 11.7038 1.40637 11.7617 1.40321C11.7758 1.40321 11.8008 1.40154 11.8023 1.39587C11.8268 1.30321 11.9023 1.34587 11.9578 1.33554C11.9916 1.3316 12.0255 1.3296 12.0595 1.32954C12.0713 1.32954 12.0913 1.32804 12.0928 1.32237C12.123 1.23371 12.1995 1.27237 12.2573 1.26071C12.3152 1.24904 12.3925 1.28987 12.424 1.19971C12.4262 1.19321 12.4505 1.19304 12.4647 1.19204C12.5252 1.18854 12.5862 1.18837 12.6462 1.18121C12.668 1.17854 12.6875 1.15887 12.7085 1.14787C12.7295 1.13687 12.7485 1.12237 12.7693 1.12054C12.8418 1.11437 12.9153 1.11771 12.9872 1.10821C13.0205 1.10371 13.0512 1.07754 13.0837 1.06271C13.1001 1.05415 13.1179 1.04851 13.1363 1.04604C13.2065 1.04121 13.2772 1.04154 13.3472 1.03521C13.3878 1.03171 13.433 1.04054 13.4608 0.989541C13.4697 0.972875 13.5138 0.972875 13.5422 0.972875C13.6608 0.966208 13.7798 0.963708 13.8985 0.955375C13.9237 0.953541 13.9473 0.932874 13.9723 0.922874C13.9931 0.911996 14.0157 0.904887 14.039 0.901875C14.2557 0.899208 14.4712 0.897041 14.6872 0.899541C14.717 0.899541 14.7458 0.928375 14.7765 0.940708C14.8026 0.951486 14.8297 0.959421 14.8575 0.964375C14.9105 0.972708 14.9692 0.960875 15.0007 1.02604C15.0077 1.04054 15.0435 1.04121 15.0673 1.04837C15.0822 1.10637 15.0598 1.17371 15.1247 1.21771C15.1425 1.22971 15.1413 1.27687 15.1413 1.30787C15.1413 1.51171 15.1413 1.71571 15.1363 1.91938C15.1363 1.95038 15.1083 1.98021 15.096 2.01154C15.088 2.03126 15.0832 2.05214 15.0818 2.07337C15.0773 2.17754 15.0763 2.28204 15.071 2.38621C15.0683 2.43621 15.0797 2.49438 15.0183 2.52588C15.009 2.53071 15.0087 2.55671 15.0075 2.57321C15.0033 2.63621 15.0028 2.69938 14.9967 2.76204C14.9913 2.81404 15.0093 2.87388 14.945 2.90904C14.9313 2.91654 14.9317 2.95371 14.93 2.97754C14.9253 3.04288 14.927 3.10888 14.9177 3.17354C14.9132 3.20438 14.889 3.23221 14.875 3.26204C14.8672 3.27637 14.862 3.29193 14.8595 3.30804C14.8547 3.35804 14.8543 3.40988 14.8483 3.46038C14.8437 3.50071 14.8563 3.54654 14.802 3.57238C14.7853 3.58038 14.7825 3.62438 14.7793 3.65271C14.774 3.69838 14.7773 3.74521 14.7698 3.79038C14.7658 3.81471 14.746 3.83604 14.7353 3.85971C14.7219 3.88426 14.7119 3.91057 14.7057 3.93788C14.6993 3.98088 14.7023 4.02521 14.6982 4.06854C14.6952 4.10188 14.7075 4.14304 14.655 4.15588C14.6448 4.15821 14.6383 4.18921 14.636 4.20688C14.6302 4.26471 14.6303 4.32354 14.6218 4.38071C14.6188 4.40171 14.5977 4.41988 14.5857 4.44004C14.5757 4.45671 14.561 4.47338 14.559 4.49204C14.5535 4.54021 14.559 4.59004 14.5498 4.63704C14.5432 4.67038 14.5165 4.69971 14.5043 4.73271C14.4942 4.7634 14.4864 4.79483 14.481 4.82671C14.4698 4.87904 14.5083 4.94921 14.4208 4.97554C14.4088 4.97904 14.412 5.03354 14.408 5.06454C14.401 5.11754 14.4278 5.18204 14.3525 5.21221C14.3408 5.21704 14.3385 5.25171 14.3358 5.27288C14.3322 5.31638 14.3322 5.36021 14.3297 5.40371C14.3287 5.42038 14.3297 5.44838 14.3215 5.45221C14.2292 5.49504 14.2733 5.58088 14.2548 5.64704C14.2492 5.66838 14.2292 5.68554 14.2185 5.70621C14.2058 5.72945 14.1955 5.75397 14.188 5.77938C14.1733 5.83671 14.2107 5.90954 14.1272 5.94754C14.1105 5.95504 14.1172 6.01088 14.1113 6.04404C14.1 6.10704 14.1237 6.18121 14.0495 6.22471C14.039 6.23088 14.043 6.26088 14.0392 6.27971C14.0268 6.33954 14.053 6.41304 13.9743 6.45038C13.9657 6.45438 13.969 6.48204 13.9645 6.49804C13.9468 6.55988 13.9812 6.63621 13.899 6.68238C13.8762 6.69521 13.8845 6.76354 13.8752 6.82988C13.8488 6.80638 13.8223 6.79438 13.8182 6.77688C13.8067 6.72838 13.8193 6.67688 13.7602 6.64221C13.738 6.62904 13.7463 6.56538 13.7398 6.52554C13.7333 6.48571 13.7398 6.45204 13.694 6.42138C13.6663 6.40321 13.6712 6.33338 13.6645 6.28638C13.6598 6.25304 13.6682 6.22071 13.62 6.20754C13.6053 6.20371 13.6003 6.15871 13.594 6.13171C13.5817 6.07988 13.621 6.00771 13.5303 5.98554C13.5197 5.98288 13.5235 5.92721 13.5178 5.89654C13.5097 5.85154 13.5367 5.78938 13.459 5.77504C13.4512 5.77371 13.4475 5.73721 13.4462 5.71654C13.4428 5.67004 13.4443 5.62171 13.3778 5.62304C13.3752 5.58621 13.3735 5.55488 13.3702 5.52304C13.3688 5.50921 13.3667 5.48488 13.3605 5.48338C13.2923 5.46671 13.3177 5.40004 13.2938 5.36671C13.2517 5.31004 13.2438 5.22904 13.205 5.19271C13.1662 5.15638 13.1615 5.12371 13.147 5.08471C13.1402 5.06621 13.122 5.05138 13.109 5.03571C13.098 5.02298 13.0878 5.00962 13.0783 4.99571C13.0723 4.98621 13.0722 4.96671 13.0653 4.96454C12.9963 4.94238 12.979 4.87188 12.9338 4.82788C12.9266 4.8216 12.9189 4.81602 12.9107 4.81121C12.8837 4.79501 12.8591 4.77534 12.8373 4.75271C12.785 4.74904 12.7223 4.71121 12.677 4.78788C12.6625 4.81254 12.6077 4.81321 12.5837 4.82121L12.467 4.94204L12.4752 4.95521L12.4123 4.96304L12.4222 4.97971C12.4 4.99638 12.3785 5.01521 12.3555 5.03171C12.2942 5.07604 12.2323 5.11971 12.1622 5.16971C12.1459 5.19338 12.1274 5.21542 12.107 5.23554C12.0685 5.26888 12.0052 5.28771 11.9892 5.32754C11.9548 5.41288 11.844 5.38088 11.8117 5.46438C11.8007 5.49271 11.7545 5.50754 11.7257 5.53571L11.6467 5.60954C11.6272 5.63071 11.607 5.65388 11.5852 5.67621C11.5764 5.68379 11.5662 5.68946 11.5552 5.69288C11.5125 5.70854 11.4563 5.70154 11.4452 5.76788C11.4435 5.77738 11.407 5.78071 11.3952 5.79621L11.3167 5.86671L11.3142 5.86271L11.2412 5.93838L11.2263 5.92671C11.2212 5.94704 11.2158 5.96754 11.2097 5.99054C11.1677 5.99254 11.123 5.99254 11.1338 6.03238L10.9043 6.19388L10.9088 6.20154L10.8328 6.26821C10.8147 6.29557 10.7945 6.32148 10.7723 6.34571C10.7403 6.37619 10.7054 6.40354 10.6682 6.42738C10.6125 6.46271 10.5515 6.48954 10.4977 6.52738C10.4703 6.54654 10.4535 6.58104 10.4263 6.60871L10.35 6.67988L10.3372 6.66838L10.3205 6.72938L10.3067 6.71838C10.287 6.73904 10.2672 6.75954 10.2478 6.78038C10.2448 6.78388 10.2438 6.79254 10.2415 6.79271C10.1623 6.79771 10.1118 6.85754 10.0698 6.89271L9.88982 7.06138C9.8696 7.07318 9.85076 7.08722 9.83365 7.10321C9.80378 7.13535 9.77684 7.1701 9.75315 7.20704C9.75132 7.20988 9.77982 7.23538 9.79649 7.24688C9.83149 7.27088 9.90332 7.24488 9.89365 7.32271C9.95132 7.34271 10.0225 7.31371 10.0585 7.38938C10.0662 7.40521 10.1173 7.40371 10.1485 7.40404C10.2917 7.40521 10.435 7.40654 10.578 7.40288C10.628 7.40171 10.6847 7.41421 10.7152 7.34854C10.7218 7.33421 10.769 7.33938 10.7973 7.33421C10.8473 7.32488 10.9125 7.35088 10.9352 7.27388C10.9377 7.26538 10.9703 7.26671 10.9885 7.26154C11.0242 7.25138 11.076 7.26954 11.0838 7.20754C11.0847 7.20138 11.1028 7.19588 11.1138 7.19304C11.161 7.18054 11.2167 7.19621 11.2433 7.12638C11.2517 7.10471 11.3178 7.10554 11.3433 7.09954C11.3925 7.05221 11.4267 6.99954 11.4737 6.97888C11.5299 6.95665 11.5913 6.95087 11.6507 6.96221C11.7033 6.97271 11.7507 7.01454 11.7918 7.05371C11.8183 7.07221 11.85 7.08704 11.8698 7.11021C11.8972 7.14354 11.932 7.16838 11.9577 7.19654C11.991 7.23288 12.0285 7.24654 12.065 7.26988C12.1032 7.29668 12.1388 7.32704 12.1713 7.36054C12.2155 7.40271 12.2577 7.44704 12.3002 7.49104C12.3084 7.49911 12.3152 7.50859 12.3202 7.51904C12.338 7.56238 12.3465 7.61021 12.4012 7.62954C12.4132 7.63371 12.4147 7.66754 12.4223 7.69221C12.468 7.69221 12.5002 7.70988 12.4822 7.77138C12.5448 7.76255 12.5663 7.78971 12.5575 7.84288L12.6087 7.85171C12.671 7.94954 12.7295 8.04188 12.794 8.14338L12.8413 8.15688C12.8413 8.25854 12.9172 8.31488 12.978 8.38088C13.0133 8.42504 12.968 8.51421 13.0635 8.52071C13.0813 8.57821 13.0668 8.64288 13.1405 8.67388C13.1593 8.68188 13.1758 8.73238 13.194 8.76221C13.2405 8.83888 13.2658 8.92888 13.2963 9.01505C13.3087 9.04955 13.3078 9.08171 13.348 9.10905C13.3765 9.12888 13.3732 9.19488 13.3857 9.24654C13.4577 9.25138 13.4403 9.31321 13.445 9.36321C13.4497 9.41321 13.4338 9.47538 13.519 9.48105C13.519 9.52388 13.5163 9.56288 13.519 9.60121C13.5217 9.63955 13.5068 9.69255 13.5725 9.70288C13.5797 9.70388 13.5858 9.73088 13.587 9.74638C13.5908 9.79471 13.587 9.84438 13.5957 9.89155C13.6025 9.92571 13.626 9.95671 13.6412 9.98955C13.6503 10.0053 13.6566 10.0225 13.6597 10.0404C13.6637 10.113 13.663 10.186 13.6675 10.2587C13.6702 10.3035 13.6527 10.356 13.7175 10.3812C13.7312 10.3865 13.732 10.434 13.7328 10.4622C13.7395 10.6955 13.743 10.9289 13.7518 11.161C13.7532 11.1944 13.7797 11.2277 13.7903 11.2629C13.7989 11.2899 13.8036 11.3179 13.8043 11.3462C13.8085 11.7177 13.8075 12.0892 13.817 12.4605C13.8202 12.5835 13.7837 12.7135 13.874 12.829C13.8998 12.8624 13.8805 12.929 13.8882 12.979C13.8915 12.9997 13.9133 13.0169 13.9237 13.0374C13.9443 13.078 13.9628 13.1207 13.9873 13.172C14.0275 13.1872 14.0888 13.1734 14.1335 13.2387C14.1535 13.2679 14.252 13.2435 14.3208 13.2435C14.3348 13.2102 14.3407 13.1574 14.4073 13.1849C14.4073 13.1319 14.4122 13.0884 14.474 13.1059C14.4832 13.0059 14.4917 12.9145 14.5 12.8225L14.5232 12.821C14.5478 12.8877 14.6513 12.9044 14.6297 13.0015C14.628 13.0092 14.6345 13.0257 14.6393 13.0267C14.7182 13.0412 14.6912 13.1055 14.7 13.1529C14.7078 13.1945 14.6885 13.2497 14.7567 13.2615C14.7627 13.2625 14.7677 13.287 14.7677 13.3007C14.7689 13.5896 14.7694 13.8785 14.7693 14.1674C14.7693 14.179 14.7693 14.1994 14.763 14.2007C14.6823 14.2312 14.713 14.3049 14.6963 14.3612C14.6892 14.3867 14.6687 14.4087 14.6533 14.4317C14.6497 14.4372 14.6367 14.4409 14.6367 14.4442C14.6457 14.5227 14.5883 14.5704 14.552 14.6275C14.5433 14.6394 14.5338 14.6506 14.5233 14.6609C14.5097 14.6762 14.4953 14.6909 14.4822 14.7065C14.475 14.715 14.4713 14.727 14.4632 14.734C14.4386 14.7534 14.4151 14.774 14.3927 14.7959L14.2785 14.8959L14.265 14.8864C14.261 14.9065 14.257 14.9269 14.2528 14.9474L14.1283 14.9594C14.1207 14.9789 14.1117 15 14.1033 15.0222C14.07 15.0249 14.0388 15.0265 14.0077 15.03C13.9938 15.0315 13.9703 15.033 13.968 15.04C13.9428 15.12 13.8757 15.0945 13.8227 15.0974C13.7502 15.1012 13.677 15.0999 13.6043 15.0974C13.5693 15.0959 13.523 15.1085 13.515 15.0487C13.5138 15.0407 13.4833 15.034 13.4658 15.032C13.4372 15.0275 13.4082 15.0265 13.3765 15.0239C13.3698 15.0037 13.3633 14.9839 13.3567 14.9634L13.2587 14.9514L13.1647 14.8645L13.1655 14.8605C13.1433 14.8435 13.121 14.8265 13.0988 14.8094C13.0892 14.8037 13.0805 14.7966 13.073 14.7882C13.0372 14.7382 12.9941 14.6939 12.945 14.6569C12.9057 14.6235 12.8827 14.5717 12.8525 14.5279C12.8485 14.522 12.8473 14.514 12.8427 14.509C12.7788 14.4415 12.7787 14.4415 12.7695 14.3725L12.7105 14.3534C12.6997 14.2985 12.7172 14.2314 12.6388 14.2104C12.63 14.208 12.6307 14.1707 12.6287 14.1592L12.5415 14.086L12.5505 14.0622C12.4367 14.0622 12.323 14.0622 12.2092 14.0622C12.1717 14.0622 12.1312 14.0675 12.1133 14.0167C12.1092 14.005 12.0765 13.9989 12.0567 13.9984C11.9257 13.994 11.7947 13.9925 11.6637 13.9885C11.643 13.9885 11.6075 13.9845 11.6047 13.9749C11.5857 13.9105 11.5337 13.9249 11.4912 13.9249C11.3528 13.9204 11.2143 13.9209 11.0762 13.9144C11.0478 13.913 11.0212 13.8874 10.9928 13.8764C10.9653 13.864 10.936 13.856 10.906 13.8527C10.7265 13.8459 10.5468 13.8444 10.3675 13.836C10.3308 13.8342 10.296 13.807 10.2593 13.7944C10.2372 13.7862 10.2139 13.7814 10.1903 13.7802C9.97199 13.7737 9.75349 13.7699 9.53515 13.761C9.50082 13.7595 9.46849 13.7337 9.43332 13.7234C9.40397 13.7138 9.37348 13.7082 9.34265 13.7067C8.96882 13.6987 8.59499 13.6929 8.22115 13.6832C8.18165 13.6822 8.14315 13.6587 8.10449 13.6472C8.08409 13.6403 8.06283 13.6363 8.04132 13.6354C7.69132 13.6354 7.34215 13.6344 6.99249 13.6364C6.96682 13.6364 6.94149 13.656 6.91532 13.664C6.88901 13.6741 6.8615 13.6807 6.83349 13.6837C6.59082 13.692 6.34815 13.6974 6.10565 13.7067C6.07832 13.7079 6.05215 13.7295 6.02465 13.74C5.99876 13.7517 5.9713 13.7595 5.94315 13.7632C5.78549 13.7704 5.62765 13.7724 5.47032 13.7814C5.43699 13.7834 5.40565 13.8102 5.37215 13.8214C5.34102 13.8328 5.30852 13.8401 5.27549 13.843C5.18099 13.8484 5.08615 13.8474 4.99215 13.8535C4.96732 13.8552 4.94415 13.8759 4.91932 13.8852C4.88599 13.8974 4.85265 13.9142 4.81932 13.9162C4.71032 13.9227 4.60099 13.9227 4.49182 13.9265C4.47065 13.9265 4.43399 13.929 4.43099 13.9387C4.40649 14.0174 4.34232 13.9887 4.29232 13.9927C4.21982 13.998 4.14682 13.996 4.07399 13.9992C4.03465 14.001 3.98982 13.992 3.97232 14.0474C3.96915 14.0575 3.93899 14.0632 3.92232 14.064C3.83249 14.0682 3.74265 14.0694 3.65299 14.0729C3.63632 14.0729 3.60865 14.0772 3.60715 14.0842C3.59049 14.1597 3.52999 14.1342 3.48432 14.1387C3.42382 14.1437 3.36299 14.1427 3.30232 14.1445C3.26632 14.1457 3.23032 14.1422 3.21315 14.1887C3.20849 14.2012 3.17649 14.208 3.15649 14.2095C3.08865 14.214 3.02065 14.2135 2.95282 14.2179C2.91199 14.2205 2.86332 14.2074 2.84365 14.2662C2.84032 14.2764 2.81032 14.2809 2.79199 14.282C2.72915 14.2864 2.66582 14.2859 2.60299 14.2914C2.55765 14.2954 2.50299 14.2817 2.47932 14.3435C2.47599 14.3525 2.44965 14.355 2.43365 14.3562C2.37315 14.3605 2.31232 14.3615 2.25199 14.3665C2.20082 14.3707 2.14382 14.3599 2.11215 14.4205C2.10732 14.4299 2.08165 14.4305 2.06532 14.4319C2.00499 14.4365 1.94399 14.4369 1.88399 14.445C1.85932 14.4484 1.83649 14.4669 1.81332 14.4784C1.80315 14.4839 1.79449 14.496 1.78432 14.497C1.68532 14.506 1.58632 14.5152 1.48715 14.5189C1.47499 14.5189 1.45099 14.4879 1.45099 14.471C1.45099 14.4009 1.45715 14.3305 1.46132 14.2604C1.46132 14.253 1.46049 14.2419 1.46432 14.2394C1.56432 14.174 1.51099 14.0685 1.53249 13.9829C1.54192 13.9559 1.55305 13.9295 1.56582 13.9039C1.57782 13.8732 1.59432 13.8425 1.59765 13.8107C1.60432 13.7482 1.60299 13.6847 1.60532 13.6217C1.60649 13.5884 1.60132 13.555 1.64749 13.5405C1.65949 13.537 1.66782 13.5049 1.66915 13.4852C1.67432 13.4054 1.67565 13.3252 1.67982 13.2452C1.68065 13.2267 1.68415 13.194 1.69199 13.1922C1.76765 13.1755 1.74199 13.1144 1.74632 13.0689C1.75132 13.0085 1.74999 12.9475 1.75182 12.8869C1.75282 12.8535 1.74865 12.8202 1.79565 12.8072C1.80699 12.8042 1.81565 12.772 1.81682 12.7527C1.82182 12.6679 1.82149 12.5827 1.82832 12.4982C1.83015 12.4765 1.85132 12.4567 1.86282 12.4355C1.87232 12.4189 1.88715 12.4005 1.88849 12.3824C1.89382 12.3025 1.89399 12.2224 1.89815 12.1424C1.90099 12.0862 1.88849 12.0244 1.95465 11.9894C1.96382 11.9845 1.96349 11.9582 1.96415 11.9417C1.96732 11.8737 1.96782 11.8057 1.97215 11.7379C1.97515 11.6895 1.96349 11.6369 2.02215 11.6045C2.03715 11.596 2.03749 11.5557 2.03882 11.5297C2.04449 11.4297 2.04665 11.3309 2.05265 11.2315C2.05549 11.183 2.04449 11.1289 2.10115 11.097C2.11049 11.0919 2.10999 11.0659 2.11082 11.0494C2.11499 10.9645 2.11615 10.8794 2.12232 10.7947C2.12632 10.7399 2.11032 10.6792 2.17149 10.638C2.18649 10.628 2.18399 10.588 2.18532 10.5619C2.19182 10.4189 2.19565 10.2757 2.20415 10.1327C2.20565 10.1075 2.22582 10.0837 2.23465 10.0584C2.24714 10.0304 2.25539 10.0008 2.25915 9.97038C2.26682 9.74488 2.27015 9.51904 2.27932 9.29354C2.28082 9.25421 2.30432 9.21588 2.31649 9.17688C2.32317 9.15896 2.32716 9.14014 2.32832 9.12105C2.32832 8.69371 2.32782 8.26643 2.32682 7.83921C2.32682 7.82721 2.32949 7.81004 2.32282 7.80388C2.24849 7.73538 2.27965 7.64571 2.27732 7.56538C2.26849 7.27421 2.26749 6.98204 2.25899 6.69171C2.25782 6.65054 2.23015 6.61054 2.21765 6.56904C2.20969 6.54392 2.20498 6.51787 2.20365 6.49154C2.19649 6.26354 2.19232 6.03538 2.18265 5.80738C2.18099 5.77104 2.15449 5.73621 2.14249 5.69971C2.13333 5.67513 2.12772 5.64937 2.12582 5.62321C2.11982 5.46071 2.11799 5.29804 2.10915 5.13554C2.10715 5.09938 2.08132 5.06504 2.07015 5.02871C2.06035 4.99938 2.05436 4.9689 2.05232 4.93804C2.04582 4.79504 2.04315 4.65188 2.03565 4.50888C2.03432 4.48388 2.01332 4.46054 2.00432 4.43538C1.99077 4.40552 1.98162 4.37386 1.97715 4.34138C1.97032 4.20804 1.97015 4.07471 1.96165 3.94138C1.95965 3.91154 1.93165 3.88388 1.91815 3.85404C1.90853 3.83554 1.90238 3.81543 1.89999 3.79471C1.89615 3.71238 1.89565 3.62971 1.89315 3.54721C1.89099 3.47588 1.82899 3.40921 1.75282 3.39921C1.74582 3.30754 1.66949 3.34021 1.61782 3.32654L1.62549 3.30871C1.59215 3.29104 1.55699 3.27538 1.52399 3.25554C1.50199 3.24288 1.48232 3.22588 1.46099 3.21154C1.43913 3.19881 1.41873 3.18372 1.40015 3.16654L1.32449 3.09738C1.29765 3.07654 1.27599 3.05288 1.24899 3.04004C1.21315 3.02338 1.23065 2.97138 1.17449 2.95671C1.13032 2.94538 1.10182 2.87338 1.05865 2.81921C1.02149 2.82038 1.00765 2.79004 1.00349 2.74188C1.00149 2.71771 0.97582 2.69538 0.959653 2.67304C0.955986 2.66771 0.942153 2.66404 0.942986 2.66188C0.965319 2.56354 0.857986 2.50888 0.861153 2.41638C0.863986 2.33638 0.85982 2.25621 0.86282 2.17604C0.86432 2.13654 0.849319 2.08754 0.914486 2.07238C0.927153 2.06938 0.931153 2.01754 0.933819 1.98771C0.933519 1.97293 0.936988 1.95832 0.943899 1.94526C0.95081 1.9322 0.960935 1.92111 0.973319 1.91304C1.00265 1.89121 1.00665 1.83537 1.02015 1.79837L1.31649 1.49621L1.31932 1.50071L1.40565 1.42937L1.39665 1.41587L1.52299 1.40371L1.54115 1.34237C1.58299 1.33987 1.62165 1.33971 1.65982 1.33471C1.69799 1.32971 1.74682 1.34604 1.75315 1.28187C1.75315 1.27521 1.78099 1.26687 1.79582 1.26671C2.08215 1.26671 2.36865 1.26571 2.65499 1.26821C2.67349 1.26821 2.69165 1.29321 2.71049 1.30571C2.72482 1.31504 2.73915 1.32921 2.75465 1.33104C2.80732 1.33721 2.86049 1.33904 2.91749 1.34271C2.92282 1.44437 3.00632 1.39504 3.04349 1.41304L3.14049 1.53454C3.114 1.54106 3.08718 1.54618 3.06015 1.54987C3.00932 1.55387 2.95799 1.55187 2.90765 1.55837C2.88899 1.56071 2.87199 1.57937 2.85532 1.59171C2.84199 1.60154 2.83065 1.61404 2.81765 1.62504C2.80471 1.63279 2.79259 1.64184 2.78149 1.65204C2.76601 1.67597 2.7482 1.6983 2.72832 1.71871C2.69499 1.85804 2.70582 1.90421 2.77949 1.94021C2.77082 2.02554 2.79865 2.08471 2.89832 2.08338C2.90315 2.08338 2.91132 2.08338 2.91215 2.08604C2.95399 2.20271 3.05515 2.13454 3.12765 2.15388C3.16549 2.16388 3.20882 2.15021 3.23049 2.20238C3.23615 2.21604 3.27699 2.21904 3.30182 2.21988C3.75349 2.22404 4.20515 2.22654 4.65665 2.23054C4.70665 2.23054 4.76432 2.21221 4.79432 2.28054C4.79949 2.29237 4.83882 2.29188 4.86249 2.29238C5.08582 2.29615 5.30915 2.29932 5.53249 2.30187C5.56582 2.30187 5.59815 2.29871 5.61582 2.34154C5.62182 2.35604 5.65615 2.36421 5.67832 2.36571C5.75332 2.37088 5.82832 2.37138 5.90382 2.37454C5.95615 2.37671 6.00532 2.37454 6.04565 2.42738C6.06315 2.45021 6.12232 2.44054 6.16232 2.44654C6.20615 2.45304 6.25949 2.43088 6.28315 2.49754C6.28815 2.51188 6.33549 2.51271 6.36382 2.51671C6.41382 2.52371 6.48049 2.51054 6.51099 2.53821C6.56599 2.58821 6.64915 2.57071 6.68449 2.60621C6.74765 2.66971 6.83182 2.64804 6.88699 2.68721C6.93934 2.72547 7.00187 2.74734 7.06665 2.75004C7.07499 2.84871 7.15649 2.80488 7.20499 2.82671C7.20282 2.83238 7.20049 2.83788 7.19832 2.84338C7.23065 2.86004 7.26132 2.88188 7.29549 2.88988C7.33415 2.89888 7.35149 2.92071 7.37882 2.94688C7.43165 2.99788 7.51115 3.02088 7.59449 3.06354C7.59449 3.06354 7.60032 3.08404 7.60682 3.10704C7.71599 3.10004 7.76882 3.17921 7.84299 3.24354L8.03465 3.34904C8.03632 3.35821 8.04032 3.37854 8.04482 3.40221C8.09082 3.40221 8.13249 3.40921 8.12199 3.44688C8.15532 3.48021 8.17532 3.50188 8.19632 3.52238C8.2036 3.53113 8.2127 3.53818 8.22299 3.54304C8.26865 3.55804 8.31232 3.56288 8.33965 3.62038C8.35865 3.66088 8.42299 3.67771 8.46099 3.71238C8.49899 3.74704 8.52315 3.78854 8.55499 3.82604C8.56562 3.83699 8.57767 3.84647 8.59082 3.85421C8.60182 3.86154 8.61899 3.86421 8.62499 3.87404C8.65832 3.92988 8.70565 3.96838 8.75549 4.01021C8.81049 4.05621 8.83999 4.13254 8.88699 4.20588L8.95715 4.29271L8.99849 4.30104C9.00199 4.35788 9.01265 4.41604 9.00649 4.47238C9.00115 4.51971 9.03049 4.59654 8.92749 4.59171L8.94832 4.61188C8.92232 4.63538 8.88732 4.65454 8.87249 4.68388C8.85482 4.71888 8.85449 4.76254 8.84532 4.80804L8.79532 4.82138C8.76549 4.87588 8.81682 4.96338 8.71599 4.97004C8.70399 5.03488 8.71599 5.10071 8.65115 5.14738C8.62932 5.16321 8.63815 5.22054 8.63215 5.25871C8.62365 5.31354 8.64082 5.37738 8.57499 5.41238C8.56665 5.41671 8.56515 5.43888 8.56515 5.45271C8.56449 5.58849 8.56449 5.72432 8.56515 5.86021C8.56515 5.87688 8.56515 5.90421 8.57415 5.90804C8.64399 5.93921 8.62415 6.00288 8.63415 6.05654C8.64065 6.09171 8.63415 6.13538 8.68915 6.14554C8.70115 6.14771 8.70582 6.18604 8.71215 6.20071L8.81899 6.27671L8.94899 6.07854L8.99899 6.06854C9.00249 6.04871 9.00615 6.02788 9.01049 6.00271L9.07115 5.99204L9.06032 5.97854L9.13165 5.90254V5.89921L9.19482 5.84254C9.20165 5.83638 9.21499 5.82921 9.21415 5.82421C9.20215 5.74088 9.28332 5.71071 9.31415 5.65154C9.33565 5.60988 9.39082 5.58654 9.42732 5.55154C9.46065 5.52004 9.48815 5.48354 9.51799 5.44888C9.54122 5.42491 9.56262 5.39923 9.58199 5.37204C9.61699 5.31571 9.64582 5.25538 9.68199 5.19988C9.69132 5.18588 9.71982 5.18438 9.74315 5.17588L9.74999 5.11671L9.76299 5.12454L9.87032 5.01871V5.01521C9.89395 4.99617 9.91592 4.97515 9.93599 4.95238C9.9504 4.93131 9.96059 4.90765 9.96599 4.88271C9.97332 4.85304 9.96749 4.82054 10.016 4.81604C10.0293 4.81504 10.0397 4.77738 10.0587 4.76238C10.0773 4.73871 10.095 4.71404 10.1152 4.69171C10.1268 4.68196 10.1392 4.6731 10.1522 4.66521C10.164 4.65584 10.1752 4.64559 10.1855 4.63454C10.2 4.61871 10.2128 4.60121 10.2272 4.58588C10.2347 4.57771 10.25 4.57254 10.252 4.56388C10.272 4.47571 10.3325 4.42138 10.3995 4.36704C10.4373 4.33638 10.4578 4.28454 10.4875 4.24338C10.4959 4.23331 10.5064 4.22523 10.5183 4.21971C10.5263 4.21538 10.5418 4.21888 10.5457 4.21321C10.575 4.17004 10.6038 4.12638 10.629 4.08121C10.6457 4.05104 10.6332 4.00071 10.6927 3.99938C10.7015 3.99938 10.7093 3.96004 10.7202 3.93271C10.7677 3.93871 10.7925 3.91471 10.7817 3.85854L10.8468 3.84571L10.8352 3.82904C10.8591 3.8107 10.8814 3.79028 10.9018 3.76804C10.9383 3.72325 10.9711 3.67553 10.9998 3.62538C11.0294 3.56726 11.0724 3.51704 11.1253 3.47888C11.1352 3.4702 11.143 3.45944 11.1482 3.44738C11.1547 3.43504 11.1577 3.41021 11.1633 3.40988C11.2168 3.40688 11.2252 3.36988 11.224 3.32988C11.222 3.26321 11.2292 3.19038 11.2073 3.12988C11.1923 3.08971 11.1317 3.06721 11.0925 3.03538C11.0829 3.026 11.0752 3.01499 11.0695 3.00288C11.0637 2.99304 11.0583 2.97254 11.0552 2.97304C10.9762 2.98521 10.9087 2.92788 10.8847 2.88421C10.8383 2.80088 10.722 2.85088 10.6948 2.75938C10.6948 2.75721 10.6917 2.75388 10.6902 2.75404C10.6013 2.76104 10.5458 2.68238 10.4665 2.66654C10.4148 2.65621 10.3528 2.67271 10.3293 2.60121C10.327 2.59421 10.3032 2.59438 10.2892 2.59121C10.2463 2.58154 10.1922 2.60188 10.1725 2.53254C10.1683 2.51804 10.1058 2.52054 10.0715 2.51354C10.0307 2.50521 9.97699 2.52738 9.96015 2.45938C9.95732 2.44738 9.90799 2.44904 9.88165 2.43988C9.85532 2.43071 9.82699 2.41104 9.79832 2.40204C9.75115 2.38738 9.70165 2.37988 9.65465 2.36504C9.62899 2.35688 9.60699 2.33754 9.58182 2.32671C9.55297 2.31344 9.52288 2.30305 9.49199 2.29571C9.44032 2.28488 9.38365 2.31004 9.34332 2.24071C9.32799 2.21454 9.24865 2.22554 9.19849 2.21971C9.18449 2.21804 9.17032 2.21688 9.15615 2.21554L9.14082 2.19788ZM6.34082 10.4645C6.36349 10.5184 6.26965 10.4944 6.26582 10.5222C6.25765 10.5812 6.21199 10.5734 6.18099 10.5934C6.13738 10.6212 6.09532 10.6515 6.05499 10.6839C6.02548 10.7062 5.99898 10.7323 5.97615 10.7614C5.93865 10.8127 5.89965 10.8602 5.84149 10.8894C5.83132 10.8945 5.82765 10.9119 5.81982 10.9227C5.81157 10.9356 5.80178 10.9475 5.79065 10.958C5.75149 10.9902 5.70932 11.019 5.67165 11.0529C5.65074 11.0748 5.63167 11.0985 5.61465 11.1235L5.58999 11.102C5.60965 11.1727 5.57082 11.1827 5.52049 11.1827C5.52732 11.2367 5.50599 11.264 5.44282 11.2532C5.46049 11.317 5.42482 11.3295 5.38099 11.3365C5.3629 11.3603 5.34099 11.3809 5.31615 11.3975L5.29432 11.4142L5.21099 11.4809C5.17049 11.5125 5.12432 11.5392 5.09082 11.5769C5.04882 11.6242 5.01482 11.6779 4.95265 11.7032C4.94415 11.7067 4.94132 11.7225 4.93365 11.7307C4.91949 11.746 4.90349 11.7599 4.88849 11.7744C4.87749 11.7849 4.86599 11.7949 4.85515 11.8062C4.82282 11.8429 4.79249 11.8815 4.75832 11.9164C4.74075 11.9328 4.72172 11.9476 4.70149 11.9605L4.60149 12.0605C4.56415 12.0487 4.55332 12.0875 4.55149 12.1367C4.49432 12.1275 4.47165 12.1534 4.47765 12.1967C4.18315 12.3782 3.96999 12.6375 3.73182 12.8689C3.67965 12.8669 3.66249 12.899 3.66365 12.9275L3.57599 13.0074L3.57699 13.0092L3.50182 13.0815C3.42299 13.1119 2.86549 13.6117 2.83632 13.6777L2.76215 13.7525L2.76315 13.7545L2.64532 13.8554C2.62965 13.8782 2.61915 13.9112 2.60282 13.9144C2.54965 13.925 2.55915 13.9532 2.57099 13.9977C2.61765 13.9899 2.68915 13.995 2.69915 13.9725C2.72515 13.9147 2.76715 13.9262 2.80682 13.924C2.88915 13.9194 2.97182 13.9202 3.05432 13.9162C3.08032 13.915 3.12099 13.9134 3.12899 13.898C3.16232 13.8357 3.21849 13.8519 3.26865 13.849C3.34132 13.8449 3.41432 13.8455 3.48682 13.8412C3.51799 13.8394 3.56582 13.8399 3.57615 13.822C3.61215 13.7595 3.66749 13.7797 3.71682 13.7762C3.78699 13.7714 3.85765 13.773 3.92782 13.7682C3.95849 13.766 4.00399 13.7649 4.01615 13.746C4.05049 13.6927 4.09949 13.7049 4.14499 13.7019C4.22499 13.6964 4.30499 13.6952 4.38499 13.6905C4.41132 13.6889 4.45165 13.6905 4.46115 13.6754C4.50365 13.6107 4.56682 13.6309 4.62349 13.6254C4.68399 13.6202 4.74482 13.6195 4.80515 13.6149C4.82375 13.6123 4.84188 13.6071 4.85899 13.5994C4.89232 13.586 4.92565 13.5615 4.95899 13.5585C5.06765 13.5489 5.17699 13.5479 5.28599 13.5419C5.31199 13.5404 5.35365 13.5392 5.36032 13.5252C5.38599 13.4707 5.43299 13.4832 5.47299 13.4802C5.56732 13.4732 5.66215 13.4715 5.75632 13.4672C5.77299 13.4664 5.79899 13.4692 5.80499 13.46C5.85399 13.3864 5.93099 13.4112 5.99665 13.4047C6.08582 13.3959 6.17599 13.3975 6.26565 13.3935C6.28465 13.3935 6.31465 13.3935 6.32049 13.383C6.35699 13.3164 6.42049 13.333 6.47449 13.3302C6.58115 13.324 6.68799 13.3235 6.79465 13.3184C6.8149 13.3151 6.83439 13.3081 6.85215 13.2979C6.87999 13.2849 6.90615 13.2592 6.93415 13.2577C7.06249 13.2505 7.19132 13.2502 7.31982 13.2462C7.33858 13.245 7.35702 13.2408 7.37449 13.2339C7.41965 13.2172 7.46349 13.1879 7.50915 13.1852C7.66182 13.1762 7.81482 13.1772 7.96765 13.1725C7.99015 13.1725 8.02749 13.1665 8.03199 13.1539C8.05199 13.098 8.09665 13.11 8.13515 13.1095C8.45065 13.1052 8.76615 13.1025 9.08182 13.0979C9.10728 13.0959 9.13224 13.0897 9.15565 13.0795C9.18665 13.0677 9.21599 13.04 9.24615 13.04C10.1006 13.038 10.9551 13.0378 11.8097 13.0392C11.8287 13.0392 11.8597 13.0374 11.8648 13.0474C11.9093 13.1264 11.9838 13.0974 12.0467 13.0987C12.1643 13.1029 12.2823 13.0999 12.4013 13.0999C12.4013 12.99 12.4013 12.8889 12.4013 12.7875C12.4013 12.774 12.3955 12.7517 12.387 12.7487C12.3302 12.7284 12.3433 12.6797 12.3403 12.639C12.3362 12.5834 12.3403 12.527 12.3327 12.4724C12.3287 12.4407 12.3115 12.4104 12.2993 12.38C12.2893 12.3554 12.2717 12.3324 12.2677 12.307C12.2592 12.2547 12.278 12.1777 12.2493 12.153C12.1788 12.0922 12.1978 12.0185 12.1858 11.948C12.1807 11.9177 12.18 11.8677 12.1637 11.8612C12.1047 11.838 12.1247 11.7895 12.1155 11.751C12.1063 11.7125 12.1118 11.6524 12.0915 11.6429C12.0305 11.614 12.0473 11.5635 12.037 11.52C12.0337 11.5062 12.0357 11.4822 12.0285 11.4794C11.9468 11.4469 11.9757 11.37 11.9578 11.3127C11.9514 11.2941 11.9429 11.2764 11.9325 11.2597C11.9178 11.2401 11.9045 11.2194 11.8928 11.1979C11.8822 11.172 11.8808 11.1204 11.8717 11.1195C11.8035 11.1129 11.8252 11.0582 11.8103 11.0224C11.7984 11.0019 11.7837 10.9832 11.7667 10.9667C11.7585 10.9564 11.7488 10.9472 11.7415 10.9364C11.7248 10.9117 11.7093 10.8864 11.6933 10.8612L11.6767 10.8702C11.6433 10.8057 11.6095 10.7412 11.5753 10.6769C11.5735 10.6734 11.5663 10.6732 11.5627 10.6702C11.5205 10.6359 11.4793 10.6 11.436 10.5674C11.4064 10.5463 11.3756 10.5269 11.3438 10.5092C11.3323 10.5024 11.3078 10.4995 11.3077 10.4944C11.306 10.4255 11.2518 10.4434 11.2133 10.4337C11.1967 10.4294 11.168 10.421 11.166 10.4104C11.1555 10.3567 11.116 10.3689 11.0812 10.3649C11.0537 10.3617 11.0058 10.3597 11.0027 10.3482C10.986 10.2854 10.9378 10.2982 10.8977 10.2964C10.825 10.293 10.752 10.2917 10.6793 10.2954C10.6293 10.2979 10.5642 10.2709 10.5413 10.3499C10.5393 10.3569 10.5157 10.3595 10.5018 10.3605C10.4608 10.3639 10.4185 10.3637 10.3785 10.3685C10.3618 10.3705 10.3332 10.3807 10.3322 10.3895C10.3265 10.4395 10.2898 10.4377 10.2573 10.4369C10.2073 10.4354 10.1728 10.4485 10.174 10.4847C10.0977 10.5297 10.0317 10.5649 9.97049 10.607C9.94532 10.6237 9.93049 10.657 9.91832 10.6737L9.82099 10.7667C9.81099 10.821 9.73765 10.8822 9.68465 10.87C9.67115 10.825 9.67082 10.7632 9.64265 10.7455C9.62858 10.7383 9.6168 10.7273 9.60862 10.7138C9.60044 10.7002 9.59618 10.6847 9.59632 10.6689C9.59399 10.6452 9.58865 10.6042 9.57815 10.6022C9.50899 10.5874 9.53132 10.5279 9.51532 10.4877C9.50999 10.4747 9.50632 10.4499 9.50115 10.4497C9.43682 10.4474 9.45832 10.3907 9.44082 10.3592C9.41332 10.3092 9.38415 10.261 9.35549 10.212C9.33649 10.1787 9.31665 10.1469 9.29799 10.114C9.28932 10.0987 9.28332 10.0819 9.27382 10.067C9.25865 10.0434 9.24049 10.0219 9.22582 9.99788C9.20649 9.96605 9.18982 9.93271 9.17199 9.90005L9.15199 9.91005C9.15999 9.79838 9.07615 9.74571 9.00682 9.66421C9.00365 9.64205 8.99815 9.60171 8.99249 9.56105L8.93432 9.54805L8.94532 9.53505L8.87065 9.45321L8.87732 9.45188L8.77215 9.26455C8.75349 9.25721 8.72532 9.25538 8.71615 9.24105C8.68132 9.18738 8.65282 9.12955 8.62199 9.07338C8.61824 9.06468 8.61366 9.05637 8.60832 9.04854C8.56615 8.99988 8.52882 8.94471 8.47882 8.90604C8.44315 8.8808 8.41265 8.84895 8.38899 8.81221C8.37349 8.78688 8.33899 8.77321 8.31299 8.75438L8.32199 8.73571H8.19315L8.20199 8.75355C8.17332 8.77288 8.12599 8.78688 8.11865 8.81238C8.10199 8.87905 8.04615 8.87905 8.00082 8.89805C7.99432 8.90088 7.98415 8.90238 7.98199 8.90721C7.94865 8.99055 7.84232 9.00921 7.81415 9.09738C7.81215 9.10338 7.79749 9.10438 7.78965 9.11004C7.74855 9.13718 7.70955 9.16738 7.67299 9.20038C7.63749 9.23655 7.61265 9.28371 7.57849 9.32055C7.56465 9.33588 7.53549 9.33721 7.51932 9.35055C7.49817 9.372 7.47872 9.39507 7.46115 9.41955L7.45599 9.41821L7.34132 9.54521L7.29882 9.55205C7.30215 9.55771 7.30565 9.56338 7.30915 9.56871L7.24449 9.61871C7.23541 9.62484 7.22698 9.63188 7.21932 9.63971C7.18782 9.67755 7.16199 9.74188 7.12515 9.74871C7.05065 9.76255 7.01332 9.81821 6.96049 9.85505C6.92082 9.88271 6.89132 9.92521 6.85699 9.96088C6.82265 9.99655 6.78865 10.033 6.75299 10.0675C6.73232 10.0875 6.70849 10.1042 6.68632 10.1222L6.68732 10.1269L6.57582 10.2259L6.49999 10.3077L6.49899 10.3069L6.42615 10.3805L6.42415 10.3784L6.34082 10.4645ZM5.09415 6.35271C5.07749 6.24421 5.08265 6.23821 5.19149 6.21221L5.37299 6.03604C5.37299 6.03871 5.37382 6.00521 5.38099 6.00388C5.46765 5.98888 5.44099 5.91438 5.45932 5.85854L5.50932 5.84838C5.52399 5.79954 5.52449 5.73621 5.55082 5.72254C5.60082 5.69621 5.59165 5.65954 5.59915 5.62254C5.60403 5.59785 5.61175 5.5738 5.62215 5.55088C5.63499 5.52304 5.66365 5.49754 5.66465 5.47038C5.66932 5.34438 5.66699 5.21804 5.66615 5.09204C5.66615 5.07538 5.66482 5.04754 5.65649 5.04454C5.58565 5.01738 5.60482 4.95471 5.59749 4.90338C5.59099 4.85854 5.59649 4.80721 5.53082 4.81154C5.52399 4.78304 5.52382 4.75688 5.51199 4.73771C5.48632 4.69621 5.45465 4.65838 5.42532 4.61904L5.44199 4.60338L5.38065 4.58921L5.39182 4.57554L5.31665 4.50004C5.27541 4.45504 5.23017 4.41387 5.18149 4.37704C5.12799 4.34038 5.03782 4.32788 5.01582 4.28054C4.97849 4.20038 4.91782 4.22904 4.86299 4.21054C4.85549 4.11171 4.76999 4.15938 4.71482 4.13621C4.70982 4.11954 4.70382 4.09921 4.69815 4.07821L4.56149 4.06654C4.56365 3.98938 4.50515 4.00488 4.45999 3.99821C4.42249 3.99271 4.35699 3.99438 4.35249 3.97888C4.33199 3.90704 4.27715 3.93371 4.23582 3.92504C4.20082 3.91771 4.14065 3.92238 4.13449 3.90588C4.10699 3.83204 4.04765 3.86054 4.00115 3.85104C3.96649 3.84388 3.90899 3.84771 3.90115 3.82954C3.87682 3.77371 3.83249 3.78404 3.79232 3.77871C3.74915 3.77304 3.70365 3.77871 3.66249 3.76704C3.62549 3.75704 3.59582 3.72154 3.55815 3.71304C3.43815 3.68571 3.31315 3.71521 3.19282 3.64204C3.12465 3.60054 3.01315 3.63054 2.92115 3.62871C2.87532 3.62771 2.85749 3.64888 2.86015 3.69538C2.86615 3.79954 2.86715 3.90404 2.87249 4.00821C2.87601 4.029 2.88258 4.04916 2.89199 4.06804C2.90132 4.09354 2.92015 4.11804 2.92015 4.14438C2.92171 5.05715 2.92199 5.96993 2.92099 6.88271C2.92012 6.90413 2.91607 6.92531 2.90899 6.94554C2.89682 6.98488 2.87165 7.02321 2.87032 7.06221C2.86115 7.35088 2.85682 7.63971 2.84982 7.92888C2.84843 7.95218 2.84343 7.97512 2.83499 7.99688C2.82049 8.03771 2.79149 8.07688 2.78915 8.11771C2.78082 8.27271 2.78165 8.42821 2.77649 8.58355C2.77565 8.60788 2.76782 8.64804 2.75382 8.65271C2.70732 8.66804 2.71349 8.70171 2.71265 8.73455C2.70949 8.86305 2.70815 8.99171 2.70349 9.12021C2.6999 9.14261 2.69191 9.16408 2.67999 9.18338C2.66782 9.20871 2.64232 9.23221 2.64099 9.25755C2.63415 9.38605 2.63415 9.51471 2.62915 9.64321C2.62541 9.66518 2.61749 9.68623 2.60582 9.70521C2.59332 9.73088 2.56849 9.75521 2.56682 9.78088C2.55982 9.88971 2.56065 9.99921 2.55632 10.1082C2.55515 10.1392 2.55632 10.1867 2.53832 10.1977C2.47615 10.2359 2.49215 10.2927 2.48915 10.345C2.48515 10.4154 2.48632 10.4859 2.48249 10.556C2.48065 10.587 2.48249 10.6342 2.46415 10.6452C2.40715 10.6802 2.42015 10.7319 2.41765 10.7797C2.41332 10.8597 2.41365 10.9399 2.40999 11.0199C2.40882 11.046 2.40999 11.0865 2.39532 11.0954C2.33232 11.1317 2.34732 11.19 2.34349 11.2429C2.33732 11.3275 2.33449 11.4124 2.32949 11.497C2.32849 11.5137 2.32949 11.5387 2.31899 11.5445C2.26132 11.5794 2.27315 11.6357 2.26982 11.687C2.26432 11.7719 2.26115 11.8567 2.25582 11.9414C2.25465 11.958 2.25299 11.984 2.24365 11.9882C2.18699 12.0134 2.20449 12.0652 2.19515 12.1077C2.16849 12.2275 2.23182 12.3635 2.12965 12.4709C2.12015 12.4809 2.12282 12.5042 2.12199 12.5209C2.11665 12.6227 2.11299 12.7245 2.10615 12.8262C2.10248 12.8463 2.09525 12.8655 2.08482 12.883C2.07432 12.9052 2.05349 12.9257 2.05149 12.9482C2.04299 13.047 2.04049 13.1465 2.03382 13.2457C2.03232 13.2687 2.02849 13.306 2.01549 13.3114C1.95799 13.3342 1.97065 13.3804 1.97165 13.4219C1.97165 13.4375 1.98599 13.453 1.99365 13.4687C2.00882 13.4582 2.02482 13.4487 2.03899 13.437C2.05315 13.4254 2.05965 13.4142 2.07115 13.4037C2.10949 13.3704 2.14999 13.3399 2.18665 13.305C2.20686 13.2828 2.22531 13.259 2.24182 13.2339L2.24682 13.2349L2.39032 13.0849C2.44399 13.0259 2.50515 12.9704 2.54815 12.9032C2.60299 12.818 2.65599 12.748 2.69349 12.7255L2.92182 12.49L2.98565 12.4219L2.99849 12.4324L3.01265 12.3692L3.05299 12.3624L3.17832 12.2174L3.21932 12.209C3.22382 12.1859 3.22749 12.1674 3.23115 12.1487L3.24582 12.1584C3.26415 12.1362 3.28215 12.1142 3.30049 12.0917C3.30749 12.0832 3.31482 12.075 3.32232 12.0667C3.36182 12.0237 3.40449 11.9834 3.44015 11.9374C3.47582 11.8914 3.50532 11.8394 3.53832 11.7907C3.54149 11.7859 3.55282 11.7872 3.55749 11.7827C3.57265 11.7684 3.58599 11.7524 3.60082 11.7379C3.61299 11.7262 3.62632 11.7157 3.63899 11.7045C3.65085 11.6953 3.66199 11.6852 3.67232 11.6742C3.70465 11.6349 3.73432 11.593 3.76815 11.555C3.78981 11.534 3.81298 11.5145 3.83749 11.4969V11.4937L3.90615 11.4239L4.02199 11.3122L4.02099 11.3087L4.10565 11.2279C4.13765 11.1917 4.17799 11.1445 4.21949 11.1C4.25465 11.0614 4.30282 11.0297 4.32449 10.9849C4.35507 10.9141 4.40698 10.8546 4.47299 10.8147C4.48232 10.8092 4.48199 10.7889 4.48965 10.7775C4.49839 10.7655 4.50857 10.7546 4.51999 10.745C4.55732 10.7105 4.59615 10.6784 4.63215 10.642C4.65444 10.6174 4.67547 10.5916 4.69515 10.5649L4.78049 10.4839C4.78332 10.4802 4.79715 10.459 4.81465 10.4402C4.83215 10.4214 4.85249 10.4029 4.88349 10.3725C4.92149 10.3837 4.93049 10.3434 4.94449 10.304C4.97482 10.2802 4.99165 10.246 5.01715 10.2207C5.05415 10.1839 5.11099 10.161 5.13499 10.1184C5.16715 10.0615 5.24815 10.036 5.24082 9.95455C5.24082 9.94938 5.25532 9.94388 5.26149 9.93688C5.30099 9.89238 5.33965 9.84688 5.37965 9.80355C5.3899 9.7947 5.40108 9.78699 5.41299 9.78055C5.42636 9.77286 5.43883 9.76369 5.45015 9.75321C5.46915 9.73205 5.48565 9.70855 5.50332 9.68655L5.50882 9.68755L5.61399 9.56821L5.61815 9.57055L5.68965 9.49471C5.70199 9.47971 5.72532 9.47321 5.73965 9.45838C5.76028 9.43532 5.77901 9.41062 5.79565 9.38455C5.8216 9.36669 5.84648 9.34732 5.87015 9.32655C5.90215 9.29455 5.93149 9.25988 5.96065 9.22521C5.99399 9.18538 6.02732 9.14438 6.06065 9.10421C6.1051 9.05088 6.14954 8.99771 6.19399 8.94471C6.20765 8.92805 6.22282 8.91371 6.23699 8.89788C6.24715 8.88655 6.25649 8.87421 6.26649 8.86255C6.27899 8.84838 6.29132 8.83388 6.30465 8.82054C6.31549 8.80971 6.32932 8.80171 6.33899 8.79021C6.35715 8.76904 6.37332 8.74604 6.39015 8.72354H6.39482L6.46832 8.64888L6.48049 8.65888C6.48449 8.63821 6.48865 8.61738 6.49282 8.59638L6.55115 8.58654L6.54065 8.57354L6.60732 8.50688L6.68982 8.42621C6.70732 8.41221 6.71599 8.38721 6.73282 8.37071C6.76965 8.33504 6.81282 8.30604 6.84949 8.27071C6.8942 8.22733 6.93633 8.18137 6.97565 8.13304C7.01449 8.08521 7.04732 8.03304 7.08382 7.98304C7.09649 7.96638 7.11282 7.95154 7.12699 7.93538C7.13715 7.92371 7.14665 7.91154 7.15632 7.89954C7.16832 7.88471 7.18065 7.87004 7.19232 7.85488C7.20399 7.83971 7.22365 7.82321 7.22682 7.80488C7.23007 7.77164 7.23057 7.7382 7.22832 7.70488L7.20882 7.71538L7.14215 7.64438L7.06365 7.56671L7.06215 7.56788C7.03749 7.54304 7.01215 7.51788 6.98832 7.49354C6.97549 7.47688 6.94599 7.47421 6.93565 7.45821C6.89596 7.39822 6.83926 7.35145 6.77282 7.32388C6.72549 7.30238 6.67465 7.27571 6.64165 7.23754C6.57982 7.16554 6.51765 7.10188 6.44165 7.09854C6.35915 7.02104 6.29915 6.95238 6.19265 6.95338C6.19265 6.84204 6.09632 6.90604 6.05249 6.87004C6.04815 6.85238 6.04382 6.83421 6.03965 6.81738C6.01299 6.81154 5.97299 6.81154 5.96949 6.80071C5.94699 6.72121 5.87999 6.74338 5.82315 6.73204C5.81615 6.63504 5.73215 6.67538 5.68415 6.64504C5.65827 6.62169 5.6287 6.60277 5.59665 6.58904L5.49882 6.53988L5.50565 6.52321C5.45565 6.50388 5.37599 6.53988 5.36965 6.45571C5.31865 6.42238 5.24149 6.46388 5.22332 6.37888C5.22199 6.37238 5.19799 6.36988 5.18415 6.36721C5.15349 6.36221 5.12282 6.35738 5.09349 6.35238L5.09415 6.35271Z" fill="#9E9E9E"/>
</svg>
