<svg width="40" height="40" viewBox="0 0 40 40" fill="none" xmlns="http://www.w3.org/2000/svg">
<path d="M10.3709 23.5333L10.4936 23.5716C10.5029 23.6716 10.5123 23.7633 10.5219 23.863L10.6613 23.9046C10.6706 24.0046 10.6796 24.098 10.6893 24.2006L10.8226 24.239C10.8796 24.3563 10.7656 24.555 10.9929 24.5723C11.0363 24.6953 10.9763 24.8583 11.1559 24.9093C11.1723 24.914 11.1629 24.984 11.1796 25.0166C11.2166 25.0896 11.2653 25.157 11.3039 25.2293C11.3786 25.3693 11.4483 25.512 11.5226 25.6523C11.5466 25.6948 11.5738 25.7353 11.6039 25.7736C11.6129 25.7853 11.6433 25.789 11.6443 25.798C11.6596 25.9646 11.7529 26.0903 11.8396 26.2233C11.8896 26.3 11.8313 26.442 11.9886 26.459C12.0046 26.4606 12.0113 26.538 12.0246 26.5793C12.0503 26.6586 12.0093 26.768 12.1519 26.7966C12.1823 26.8026 12.1923 26.9556 12.1919 27.041C12.1919 27.063 12.1176 27.085 12.1063 27.091L11.9363 26.895C11.8719 26.8343 11.8229 26.7896 11.7753 26.7436C11.7566 26.7253 11.7236 26.7026 11.7256 26.6853C11.7483 26.499 11.5296 26.452 11.5003 26.292C11.4959 26.2683 11.4159 26.2586 11.3929 26.2206L11.2263 26.048L11.2289 26.0386C11.1756 25.994 11.1129 25.957 11.0716 25.9033C10.9889 25.796 10.9193 25.679 10.8419 25.5673C10.8086 25.5196 10.7703 25.4753 10.7336 25.43C10.7143 25.4063 10.6929 25.3846 10.6739 25.3606C10.6375 25.3115 10.5979 25.2649 10.5553 25.221L10.3886 25.0293L10.3846 25.0323L10.1999 24.826C10.1623 24.798 10.0899 24.7643 10.0469 24.708C9.96461 24.6003 9.90061 24.4783 9.82528 24.365C9.7918 24.318 9.75504 24.2734 9.71528 24.2316C9.70161 24.2166 9.67328 24.2103 9.66661 24.1936C9.60628 24.0466 9.48994 23.9583 9.36661 23.8646C9.28028 23.798 9.25194 23.641 9.16294 23.598C8.98394 23.515 9.04228 23.2613 8.84294 23.2066C8.81628 23.1996 8.80961 23.1213 8.78028 23.0913L8.60594 22.8993L8.62794 22.8733L8.49461 22.8496L8.46661 22.71L8.42361 22.7323C8.38921 22.6746 8.34996 22.62 8.30628 22.569C8.27294 22.5356 8.21861 22.519 8.20228 22.477C8.13261 22.384 8.06161 22.292 7.99294 22.198C7.92428 22.104 7.86528 22.0023 7.78794 21.9166C7.70128 21.8203 7.59861 21.7376 7.50861 21.64C7.45494 21.592 7.39928 21.546 7.34828 21.4956C7.2801 21.4351 7.21793 21.3681 7.16261 21.2956C7.07928 21.1716 7.01528 21.0346 6.93194 20.911C6.90261 20.8673 6.84028 20.8443 6.78161 20.8073C6.77761 20.7793 6.77128 20.7356 6.77161 20.737L6.57361 20.5436L6.60061 20.5076L6.45094 20.4796C6.45261 20.3743 6.43728 20.2796 6.34328 20.3083L6.15694 20.1083C6.08228 20.0233 6.14861 19.8696 5.95961 19.8133C5.87228 19.7873 5.83128 19.6253 5.75494 19.5376C5.67861 19.45 5.58828 19.3866 5.50661 19.3113C5.48042 19.2888 5.45713 19.2632 5.43728 19.235C5.42028 19.2086 5.42128 19.1626 5.39928 19.1483C5.23861 19.045 5.13661 18.905 5.05628 18.729C5.00261 18.6113 4.87528 18.5273 4.76728 18.441C4.75194 18.345 4.72394 18.2613 4.58961 18.2966C4.58128 18.234 4.57561 18.1913 4.56861 18.1393L4.42294 18.1146C4.41594 18.067 4.40994 18.0243 4.41094 18.0296L4.20728 17.8206H4.19361C4.15594 17.7633 4.12228 17.703 4.08028 17.649C3.98894 17.531 3.89461 17.4156 3.79961 17.3C3.78361 17.2806 3.75394 17.272 3.73894 17.252C3.71628 17.2216 3.46328 16.9683 3.43894 16.9383C3.36461 16.848 3.29728 16.752 3.22728 16.6583C3.21461 16.6413 3.20361 16.6086 3.19128 16.6086C3.09528 16.6063 3.06228 16.5546 3.04461 16.4663C3.03928 16.4396 2.96394 16.427 2.94194 16.39C2.83428 16.2876 2.72461 16.187 2.61928 16.082C2.59238 16.0516 2.57126 16.0166 2.55694 15.9786C2.52094 15.897 2.55694 15.77 2.40628 15.759C2.38628 15.759 2.37294 15.666 2.35194 15.603L2.23328 15.5713C2.17628 15.4513 2.28461 15.264 2.05428 15.2353C2.04861 15.1323 2.04494 15.0283 2.03594 14.9246C2.02894 14.845 2.04228 14.758 1.92961 14.7246C1.90394 14.717 1.88661 14.6416 1.88594 14.597C1.88161 14.3416 1.88294 14.0863 1.88394 13.8303C1.88394 13.797 1.88161 13.7473 1.89961 13.7363C2.05661 13.6393 2.02994 13.481 2.04528 13.3363C2.05628 13.2286 2.01194 13.092 2.18161 13.0573C2.19661 13.054 2.20228 13.0003 2.21094 12.97C2.21961 12.9396 2.22261 12.8826 2.23594 12.88C2.42328 12.8466 2.36028 12.6873 2.37694 12.6283L2.58994 12.4126H2.59194L2.75861 12.239V12.2353L3.01194 11.9956L3.00994 11.9773C3.06928 11.9336 3.14328 11.9003 3.18461 11.844C3.27128 11.7313 3.33428 11.6006 3.42028 11.4876C3.49928 11.3836 3.59594 11.2933 3.68461 11.197C3.70494 11.1746 3.72494 11.1516 3.74494 11.1303C3.77594 11.097 3.80894 11.0636 3.83761 11.0256C3.87128 10.9765 3.9103 10.9312 3.95394 10.8906C3.99528 10.8346 4.03461 10.7773 4.07861 10.724C4.10052 10.7032 4.12392 10.684 4.14861 10.6666C4.17994 10.6383 4.21028 10.6083 4.23928 10.5776C4.26828 10.547 4.28961 10.5173 4.31594 10.488C4.34228 10.4586 4.38261 10.435 4.39628 10.4006C4.43294 10.3076 4.39328 10.1673 4.56294 10.163C4.57828 10.163 4.59094 10.0766 4.62594 10.0503C4.67994 9.99231 4.73416 9.93442 4.78861 9.87664L4.76361 9.84697L4.86361 9.82831C4.94661 9.72531 5.01494 9.63964 5.08428 9.55464C5.19061 9.42431 5.29961 9.29564 5.40394 9.16364C5.47728 9.07064 5.54461 8.97297 5.61528 8.87797C5.62715 8.86123 5.64054 8.84561 5.65528 8.83131C5.70794 8.78331 5.76161 8.73664 5.81294 8.67997L6.06728 8.43564V8.41864C6.12094 8.37531 6.21194 8.33931 6.22194 8.28764C6.25128 8.13364 6.46261 8.12097 6.46094 7.94564C6.46094 7.90131 6.52761 7.85497 6.56494 7.81231C6.57828 7.79731 6.61694 7.79097 6.61694 7.78064C6.61694 7.67564 6.67861 7.64464 6.76861 7.62197C6.79161 7.61631 6.79561 7.53464 6.83328 7.51131L6.99994 7.33997H7.00161L7.33328 6.99997L7.84494 6.48397L8.01594 6.31097L8.02794 6.31497C8.07128 6.26064 8.10528 6.19331 8.15961 6.15497C8.29728 6.05764 8.44394 5.97331 8.58694 5.88397L8.62027 5.92331C8.63327 5.87764 8.64594 5.83197 8.66128 5.77764C8.72794 5.76997 8.80328 5.77364 8.86828 5.74997C8.92261 5.73031 8.96561 5.67831 8.99427 5.60564C9.09861 5.59997 9.20528 5.60564 9.30694 5.58497C9.36728 5.57297 9.41861 5.51997 9.47594 5.48931C9.51594 5.46797 9.55894 5.43931 9.60161 5.43764C9.77361 5.43097 9.94627 5.42864 10.1183 5.43364C10.2139 5.43664 10.3346 5.39497 10.3719 5.54931C10.3776 5.57164 10.4596 5.58264 10.5073 5.58631C10.6073 5.59664 10.7073 5.59964 10.8173 5.60597C10.8316 5.64797 10.8466 5.69231 10.8653 5.74664L11.1386 5.77597L11.1186 5.81364C11.1853 5.85464 11.2933 5.88397 11.3076 5.93831C11.3613 6.13831 11.6093 6.07164 11.6893 6.24797C11.7333 6.34797 11.8836 6.39197 11.9726 6.47597C12.0533 6.55164 12.1093 6.65297 12.1876 6.73164C12.2843 6.82897 12.3929 6.91397 12.4909 7.00931C12.5346 7.05197 12.5796 7.09297 12.6209 7.13764C12.6585 7.18384 12.7011 7.22566 12.7479 7.26231C12.7844 7.31977 12.8259 7.37387 12.8719 7.42397C12.9076 7.45731 12.9626 7.47064 12.9909 7.50831C13.0476 7.5652 13.1044 7.62208 13.1613 7.67897L13.1576 7.68264C13.6674 8.19375 14.1769 8.70397 14.6863 9.21331L14.6953 9.20797L14.9329 9.46331H14.9476C14.9842 9.52088 15.0258 9.57509 15.0719 9.62531C15.1079 9.65864 15.1633 9.67131 15.1909 9.71031L15.3623 9.87964L15.3603 9.88797C15.4103 9.92997 15.4603 9.97297 15.5109 10.013C15.5846 10.071 15.5966 10.173 15.7146 10.213C15.8039 10.243 15.8366 10.413 15.9253 10.477C16.0646 10.5793 16.1689 10.8246 16.4279 10.6103C16.4509 10.532 16.4206 10.377 16.5916 10.329C16.6143 10.3226 16.6146 10.2396 16.6273 10.1826L16.7076 10.1686L16.8966 9.95131C16.9599 9.85497 16.9299 9.70164 17.0986 9.65131C17.1186 9.64531 17.1183 9.57097 17.1299 9.51631C17.2216 9.50097 17.3353 9.49064 17.3146 9.34964C17.5509 8.92331 17.9593 8.61897 18.1353 8.21397L18.4526 7.89564C18.5153 7.65164 18.5153 7.65164 18.6343 7.61731L18.6523 7.48031L18.7759 7.45097L19.0446 6.98164L19.1856 6.82264H19.1933C19.2336 6.76564 19.2629 6.67497 19.3163 6.65597C19.5163 6.58931 19.4229 6.33531 19.6216 6.24097C19.7483 6.18064 19.7996 5.96164 19.8849 5.81364L19.8516 5.78031H20.1263C20.1429 5.84697 20.1429 5.92131 20.1776 5.97264C20.2535 6.07716 20.3351 6.17732 20.4223 6.27264C20.4316 6.28364 20.4596 6.28064 20.4659 6.29164C20.5479 6.43431 20.6276 6.57864 20.7146 6.73431L20.8733 6.91031L20.8446 6.94364L20.9839 6.98331C21.0209 7.09531 20.9656 7.24997 21.1456 7.29231C21.1713 7.29831 21.1789 7.38797 21.2246 7.41931C21.2605 7.47672 21.3003 7.53153 21.3439 7.58331C21.3773 7.61864 21.4269 7.63831 21.4803 7.67231C21.5313 7.90031 21.6803 8.11464 21.7716 8.13897C21.8549 8.22964 21.9086 8.28064 21.9536 8.33897C21.9744 8.37527 21.992 8.4133 22.0063 8.45264C22.0429 8.52331 22.0173 8.64131 22.1503 8.64164C22.1633 8.64164 22.1776 8.67197 22.1896 8.68931C22.2296 8.74697 22.2686 8.80497 22.2953 8.84397C22.3696 8.91697 22.4246 8.96464 22.4709 9.01931C22.4913 9.05128 22.5068 9.08611 22.5169 9.12264C22.5503 9.20564 22.5213 9.33197 22.6733 9.33497C22.6889 9.33497 22.7033 9.41997 22.7229 9.48031L22.8563 9.51364C22.8623 9.55797 22.8686 9.60597 22.8749 9.65097C23.0166 9.69231 23.0166 9.69231 23.0596 9.97564L23.1903 10.0046C23.1996 10.0483 23.1956 10.1076 23.2236 10.138C23.2516 10.1683 23.3103 10.1713 23.3393 10.1823L23.6166 10.6546C23.6649 10.6703 23.7146 10.6814 23.7649 10.688C23.8079 10.6919 23.8508 10.6801 23.8856 10.6546C23.9986 10.553 24.1083 10.4476 24.2106 10.3356C24.2869 10.252 24.3439 10.149 24.4206 10.069C24.5116 9.97464 24.6179 9.89531 24.7099 9.80397L25.0529 9.45397C25.0969 9.42064 25.1529 9.38064 25.2049 9.33397C25.2716 9.27397 25.2836 9.17864 25.3919 9.13597C25.4383 9.11797 25.5033 9.02397 25.5729 8.96931C25.6619 8.89931 25.7113 8.78064 25.7929 8.69764C25.8746 8.61464 25.9753 8.56431 26.0543 8.48564C26.1396 8.40031 26.2053 8.29564 26.2856 8.20497C26.3553 8.12697 26.4326 8.05597 26.5086 7.98397C26.5563 7.93864 26.6086 7.89731 26.6556 7.84431L26.9116 7.60697L27.1546 7.34531H27.1653C27.2053 7.29337 27.2484 7.24384 27.2943 7.19697C27.3803 7.11697 27.4726 7.04397 27.5609 6.96697C27.6359 6.90626 27.7073 6.84137 27.7749 6.77264C27.8503 6.69031 27.9046 6.58697 27.9859 6.51231C28.0919 6.41531 28.2166 6.33931 28.3313 6.25164C28.4453 6.16569 28.5548 6.0739 28.6593 5.97664L28.8519 5.80997L28.8306 5.77897L29.1199 5.75031C29.1319 5.70664 29.1443 5.66131 29.1586 5.60764C29.2489 5.60331 29.3376 5.60464 29.4253 5.59264C29.5129 5.58064 29.6219 5.61897 29.6516 5.47964C29.6559 5.45864 29.7239 5.44031 29.7633 5.43897C29.9353 5.43331 30.1076 5.43031 30.2796 5.43464C30.3769 5.43697 30.4926 5.39831 30.5396 5.54664C30.5493 5.57664 30.6476 5.58597 30.7063 5.59064C30.7943 5.59764 30.8836 5.59264 30.9789 5.59264C30.9993 5.64597 31.0156 5.68997 31.0356 5.74331L31.3206 5.77664C31.3313 5.81731 31.3429 5.86297 31.3559 5.91197C31.3708 5.91743 31.3859 5.92199 31.4013 5.92564C31.5039 5.94697 31.6036 5.93431 31.6759 6.06331C31.7349 6.16864 31.8759 6.22797 31.9716 6.31531L32.8209 7.16664V7.16464L33.0136 7.35897C33.0469 7.39231 33.1009 7.45097 33.1803 7.53697C33.1703 7.60364 33.2233 7.66331 33.3213 7.68331L33.4766 7.81664C33.4889 7.82731 33.5053 7.83531 33.5126 7.84997C33.5836 7.98131 33.6403 8.12297 33.7273 8.24231C33.7939 8.33364 33.8979 8.39764 33.9863 8.47297C33.9983 8.48331 34.0276 8.48631 34.0283 8.49464C34.0376 8.59464 34.1116 8.61964 34.1843 8.67064C34.2739 8.73364 34.3146 8.86297 34.3876 8.95497C34.4499 9.03297 34.5306 9.09664 34.5983 9.17064C34.6491 9.21987 34.6918 9.27679 34.7249 9.33931C34.7553 9.40597 34.7699 9.45597 34.8526 9.50164C34.9573 9.55897 35.0193 9.69464 35.1193 9.82264C35.1786 9.82731 35.2786 9.84197 35.2253 9.98931L35.3879 10.0163C35.3946 10.066 35.4003 10.1086 35.4076 10.1623L35.5453 10.1916L35.5226 10.2193C35.5719 10.2733 35.6226 10.326 35.6696 10.3826C35.6929 10.4115 35.7114 10.4439 35.7246 10.4786C35.7553 10.559 35.7449 10.642 35.8706 10.6846C35.9613 10.7156 36.0123 10.8623 36.0809 10.9573C36.0958 10.9785 36.1117 10.999 36.1286 11.0186C36.1666 11.06 36.2046 11.101 36.2449 11.14C36.3259 11.219 36.4093 11.2956 36.4903 11.3733C36.5184 11.4002 36.5444 11.4293 36.5679 11.4603C36.6236 11.5353 36.6813 11.6093 36.7306 11.6883C36.7583 11.733 36.7709 11.7866 36.8103 11.816L36.9529 11.9683L37.1376 12.1433L37.1243 12.1546L37.3043 12.3103L37.2933 12.3296L37.6006 12.6103C37.6199 12.677 37.6339 12.781 37.7339 12.8923C37.8339 13.0036 38.0056 13.165 37.9496 13.3883C37.9316 13.4593 37.9313 13.5573 38.0496 13.5866C38.0726 13.5923 38.0916 13.6603 38.0923 13.7C38.0976 14.0163 38.1506 14.3453 38.0803 14.6446C38.0356 14.8336 37.9356 15.0176 37.9299 15.224C37.7433 15.272 37.7839 15.4363 37.7596 15.5746L37.6369 15.602L37.3703 16.0813L37.3169 16.0903L37.0906 16.3603L36.8886 16.5543V16.56L36.6326 16.8073L36.6369 16.8213C36.5826 16.867 36.5263 16.9103 36.4746 16.9583C36.4117 17.0144 36.3526 17.0745 36.2976 17.1383C36.2269 17.2254 36.1612 17.3164 36.1009 17.411C36.0536 17.485 36.0599 17.5926 35.9386 17.619C35.9099 17.6253 35.8983 17.711 35.8586 17.7403L35.6723 17.9403C35.5896 17.9263 35.5519 17.9993 35.5653 18.1146L35.4179 18.1363C35.4103 18.1836 35.4026 18.231 35.4019 18.2343L35.1926 18.4293C35.1536 18.4843 35.1259 18.57 35.0719 18.5903C34.8923 18.6586 34.9386 18.8903 34.7633 18.973C34.6689 19.018 34.6126 19.1533 34.5526 19.256C34.5063 19.336 34.3463 19.3083 34.3753 19.4516C34.2573 19.473 34.2333 19.5876 34.1649 19.6583C34.0316 19.7956 33.8683 19.9073 33.8579 20.0793L33.6603 20.2876V20.286L33.5036 20.443C33.5133 20.455 33.5226 20.467 33.5323 20.4786L33.3836 20.512C33.3773 20.5586 33.3706 20.6063 33.3639 20.654C33.3499 20.646 33.3356 20.6383 33.3213 20.6306C33.2826 20.6856 33.2473 20.7436 33.2039 20.795C33.1373 20.8756 33.0613 20.951 32.9916 21.0303C32.9483 21.0793 32.9073 21.1303 32.8676 21.183C32.7883 21.2876 32.7116 21.3943 32.6323 21.499C32.5989 21.545 32.5599 21.589 32.5209 21.6323C32.4997 21.6542 32.4755 21.673 32.4489 21.688C32.4226 21.7036 32.3773 21.7066 32.3676 21.728C32.3061 21.864 32.2032 21.9772 32.0736 22.0513C32.0369 22.073 32.0306 22.1473 32.0119 22.1983C31.9873 22.265 31.9736 22.3193 31.8873 22.365C31.7829 22.421 31.7229 22.5593 31.6716 22.6256L31.3886 22.8996L31.3919 22.914C31.3313 22.965 31.2586 23.0076 31.2129 23.0693C31.1619 23.136 31.1149 23.205 31.0599 23.2693C30.9763 23.3656 30.9556 23.5206 30.8289 23.6046C30.7892 23.6383 30.7536 23.6766 30.7229 23.7186C30.7033 23.7406 30.6843 23.763 30.6646 23.7853C30.6313 23.8206 30.6016 23.856 30.5693 23.8906C30.5463 23.9153 30.5213 23.938 30.4983 23.9626C30.4649 23.996 30.4343 24.032 30.4023 24.0666C30.3779 24.0905 30.3551 24.1159 30.3339 24.1426C30.3133 24.1716 30.3006 24.2073 30.2803 24.2353C30.2469 24.2806 30.2043 24.3203 30.1693 24.3653C30.1169 24.432 30.1486 24.559 30.0103 24.5683C29.9869 24.5683 29.9696 24.659 29.9189 24.6866C29.8809 24.7383 29.8456 24.7923 29.8036 24.8406C29.7782 24.8634 29.7504 24.8833 29.7206 24.9C29.6945 24.9151 29.6703 24.9333 29.6486 24.9543C29.6043 25.0076 29.5646 25.065 29.5136 25.1333C29.4656 25.1753 29.4036 25.2136 29.3626 25.2666C29.2806 25.3746 29.2113 25.4916 29.1349 25.604C29.1016 25.651 29.0683 25.6966 29.0316 25.7406C29.0126 25.7636 28.9856 25.7803 28.9649 25.8033C28.9259 25.8558 28.8828 25.9052 28.8359 25.951L28.6796 26.133L28.6736 26.1293C28.6203 26.189 28.5666 26.2483 28.5126 26.308C28.4609 26.3556 28.4033 26.3943 28.3659 26.447C28.3236 26.5063 28.3033 26.5803 28.2659 26.644C28.2423 26.6846 28.2016 26.7146 28.1753 26.754C28.1443 26.8 28.1323 26.876 28.0919 26.894C28.0043 26.9336 27.9253 26.9636 27.9253 27.078L27.7943 27.0673C27.8103 26.9726 27.7986 26.8186 27.8476 26.796C27.9436 26.752 27.9359 26.6913 27.9563 26.6203C27.9766 26.5493 27.9509 26.4296 28.0896 26.4266C28.1016 26.4266 28.1116 26.36 28.1229 26.3266C28.1536 26.242 28.1109 26.1163 28.2563 26.0933C28.2713 26.0913 28.2816 26.038 28.2896 26.0073C28.3126 25.9103 28.3026 25.812 28.4289 25.751C28.4956 25.7176 28.5036 25.5876 28.5779 25.5063C28.6679 25.408 28.6623 25.2373 28.7743 25.1226C28.8409 25.056 28.7666 24.8946 28.9359 24.856C28.9713 24.848 28.9713 24.6843 28.9899 24.578L29.1216 24.539C29.1309 24.445 29.1403 24.352 29.1509 24.247L29.2899 24.207C29.2986 24.1143 29.3076 24.0213 29.3176 23.916L29.4579 23.8676C29.4676 23.781 29.4779 23.689 29.4886 23.5966L29.5296 23.6136C29.5693 23.5343 29.6059 23.4533 29.6493 23.376C29.6806 23.3203 29.7229 23.2706 29.7566 23.216C29.7782 23.1817 29.795 23.1447 29.8066 23.106C29.8333 23.0126 29.7949 22.886 29.9483 22.8596C29.9656 22.8566 29.9676 22.7813 29.9816 22.742C30.0119 22.663 29.9753 22.5466 30.1149 22.524C30.1396 22.52 30.1483 22.419 30.1643 22.3626C30.1856 22.2803 30.1619 22.1626 30.3023 22.1996C30.3459 22.0593 30.2929 21.8933 30.4763 21.843C30.4869 21.84 30.4903 21.8033 30.4936 21.7816C30.5093 21.6763 30.4989 21.5706 30.6373 21.515C30.7003 21.4896 30.7316 21.3763 30.7679 21.2986C30.8496 21.1246 30.9263 20.948 31.0013 20.7713C31.0139 20.7423 31.0039 20.6986 31.0223 20.6773C31.1626 20.514 31.1643 20.515 31.1843 20.339C31.4133 20.323 31.3029 20.1286 31.3509 20.0056L31.4843 19.9633C31.4956 19.8633 31.5066 19.7706 31.5176 19.6776L31.5639 19.697C31.605 19.6288 31.6405 19.5573 31.6699 19.4833C31.6936 19.409 31.6613 19.3113 31.7846 19.2933C31.8043 19.2906 31.8179 19.233 31.8296 19.1986C31.8576 19.102 31.8129 18.9653 31.9759 18.9433C31.9883 18.9416 31.9916 18.884 32.0019 18.853C32.0313 18.7626 31.9873 18.6313 32.1436 18.6093C32.1586 18.6073 32.1613 18.5396 32.1769 18.505C32.2103 18.423 32.1573 18.29 32.3103 18.2776C32.3143 18.2776 32.3219 18.2696 32.3213 18.2663C32.2879 18.0436 32.4756 17.9063 32.5479 17.7263C32.6203 17.5463 32.6406 17.3233 32.7406 17.186C32.8329 17.059 32.8093 16.8983 32.8843 16.827C33.1286 16.5936 32.9609 16.2936 33.0619 16.0583C33.1346 15.8893 33.1086 15.7703 33.0569 15.6183C33.0236 15.5183 33.0463 15.398 33.0346 15.2876C33.0259 15.2056 33.0429 15.1076 32.9126 15.0836C32.8809 15.0776 32.8649 14.986 32.8309 14.948L31.9859 14.0916L32.0063 14.0676L31.9169 14.0536L31.7353 13.8513L31.7019 13.8763C31.6916 13.829 31.6813 13.7813 31.6686 13.7266C31.5526 13.733 31.4799 13.6933 31.5176 13.541L31.4666 13.5853C31.4309 13.5278 31.39 13.4736 31.3443 13.4236C31.3083 13.3903 31.2523 13.3776 31.2253 13.3333C31.1726 13.2876 31.1059 13.251 31.0709 13.1946C31.0136 13.103 30.9376 13.042 30.8556 12.9746C30.7503 12.8873 30.6939 12.7476 30.5556 12.685C30.5186 12.6683 30.5063 12.5976 30.4636 12.572C30.4116 12.5233 30.3636 12.4646 30.3053 12.4283C30.2449 12.3962 30.1795 12.3744 30.1119 12.3636C29.9946 12.3393 29.8523 12.397 29.7713 12.2536C29.7602 12.2469 29.7476 12.2429 29.7346 12.2419C29.7216 12.2409 29.7086 12.243 29.6966 12.248C29.5966 12.397 29.4406 12.3533 29.3049 12.3623C29.1976 12.3696 29.1199 12.3866 29.1339 12.5316L29.0873 12.488C29.0429 12.54 29.0019 12.5963 28.9539 12.6433C28.8809 12.7136 28.7979 12.7733 28.7266 12.8433C28.6266 12.9433 28.5396 13.0516 28.4406 13.1503C28.3576 13.2333 28.2653 13.307 28.1779 13.3853C28.1589 13.4021 28.1413 13.4205 28.1253 13.4403C28.0843 13.4916 28.0446 13.5436 28.0229 13.5716C27.9493 13.644 27.9009 13.69 27.8543 13.7383C27.8346 13.7551 27.8187 13.7759 27.8076 13.7993C27.7723 13.907 27.7843 14.0326 27.6263 14.0766C27.5719 14.091 27.5433 14.1993 27.5029 14.2646L27.4556 14.2433L27.4356 14.372L27.3996 14.349L27.0576 14.9L26.9506 15.004L27.0793 15.0956L27.3209 15.5463L27.2903 15.5743L27.4193 15.6076C27.4709 15.733 27.3806 15.9183 27.5553 15.9326L27.7219 16.145C27.8069 16.2323 27.7466 16.374 27.9159 16.465C28.0263 16.5243 28.0273 16.765 28.1356 16.8553C28.2813 16.9753 28.2409 17.197 28.4186 17.281C28.4409 17.2913 28.4476 17.335 28.4616 17.363C28.4756 17.391 28.4916 17.453 28.5099 17.4543C28.6356 17.4643 28.6059 17.5696 28.6366 17.6393C28.6673 17.709 28.7033 17.7683 28.7393 17.8323L28.7846 17.813C28.7969 17.906 28.8096 17.9986 28.8233 18.1003L28.9599 18.143C28.9673 18.2543 28.9636 18.361 28.9849 18.463C28.9973 18.5216 29.0516 18.571 29.0833 18.627C29.1074 18.6597 29.1235 18.6976 29.1303 18.7376C29.1349 18.9263 29.1396 19.1156 29.1273 19.3043C29.1236 19.3603 29.0586 19.4096 29.0309 19.4666C29.0027 19.5213 28.983 19.58 28.9726 19.6406C28.9589 19.7406 28.9669 19.8516 28.7933 19.8233L28.8383 19.8733C28.7821 19.911 28.7293 19.9537 28.6806 20.0006C28.6473 20.0373 28.6359 20.0923 28.6086 20.1523L28.4783 20.1726L28.5023 20.206L28.3259 20.3663L28.2973 20.3403C28.2836 20.3863 28.2699 20.4326 28.2566 20.4786C28.2466 20.468 28.2366 20.457 28.2263 20.4453C28.1399 20.5096 28.0553 20.5763 27.9669 20.638C27.8669 20.7083 27.7409 20.756 27.6669 20.8466C27.6022 20.9272 27.5231 20.995 27.4336 21.0466C27.3739 21.08 27.3286 21.141 27.2669 21.1703C27.1983 21.2036 27.1146 21.1836 27.0956 21.3066C27.0853 21.3733 26.9596 21.3816 26.8989 21.4733C26.8253 21.5843 26.6459 21.6236 26.5139 21.697C26.4863 21.7168 26.4605 21.7391 26.4369 21.7636C26.3999 21.7946 26.3633 21.8253 26.3249 21.8543C26.3046 21.87 26.2619 21.8813 26.2619 21.8946C26.2619 22.028 26.1549 22.0066 26.0766 22.0343C26.0273 22.0579 25.9823 22.0894 25.9433 22.1276C25.9196 22.1466 25.9043 22.1766 25.8799 22.1943C25.8253 22.234 25.7673 22.2686 25.7106 22.3053L25.7329 22.3486L25.5886 22.3676L25.6089 22.3956L25.3989 22.594C25.3816 22.6666 25.4459 22.8273 25.2713 22.8983C25.2509 22.9063 25.2526 22.98 25.2516 23.0233C25.2433 23.362 25.2379 23.701 25.2293 24.0396C25.2273 24.12 25.2436 24.2086 25.1293 24.2396C25.1059 24.2463 25.0876 24.3133 25.0876 24.3523C25.0856 25.219 25.0856 26.0856 25.0876 26.9523C25.0876 26.9896 25.0916 27.0523 25.1109 27.0603C25.2776 27.127 25.2249 27.2686 25.2299 27.3866C25.2406 27.642 25.2393 27.898 25.2536 28.1533C25.2566 28.2056 25.3099 28.2533 25.3373 28.3063C25.3586 28.3466 25.3886 28.3886 25.3919 28.4316C25.4053 28.6143 25.4033 28.7983 25.4219 28.98C25.4273 29.033 25.4986 29.0773 25.5093 29.132C25.5323 29.2456 25.5616 29.459 25.5426 29.4653C25.3669 29.5143 25.4296 29.6613 25.4066 29.7213L25.1186 30.0363L25.0906 30.018C25.0789 30.1053 25.0676 30.1926 25.0623 30.231L24.8643 30.45L24.8913 30.4833L24.7579 30.512C24.7209 30.6393 24.7656 30.7963 24.5843 30.841C24.5623 30.8466 24.5593 30.93 24.5149 30.9576C24.4759 31.0146 24.4483 31.1033 24.3963 31.1243C24.2059 31.1966 24.2713 31.4306 24.0993 31.5363C23.9689 31.6166 23.9166 31.8236 23.7993 32.0283C23.6886 32.1233 23.5126 32.2503 23.5306 32.507L23.4283 32.5273L23.2766 32.7383L23.2403 32.714C23.1696 33.0093 23.1696 33.0093 23.0479 33.0436C23.0426 33.0883 23.0369 33.1363 23.0303 33.1893L22.8903 33.2196C22.8882 33.252 22.8842 33.2841 22.8783 33.316C22.8576 33.3996 22.8919 33.51 22.7503 33.5336C22.7169 33.539 22.7013 33.6303 22.6526 33.667C22.6139 33.7246 22.5859 33.798 22.5339 33.8366C22.4119 33.927 22.3673 34.0473 22.3413 34.1876C22.3363 34.2136 22.2586 34.226 22.2146 34.2446C22.1833 34.402 22.0049 34.5683 21.8766 34.5506C21.8683 34.4766 21.8603 34.4003 21.8509 34.3243C21.8476 34.297 21.8509 34.2533 21.8349 34.2456C21.6499 34.1513 21.7089 33.9723 21.6829 33.823C21.6773 33.7896 21.6829 33.739 21.6663 33.7283C21.4733 33.6126 21.5383 33.4193 21.5129 33.2523C21.5003 33.1676 21.5416 33.0523 21.4049 33.0216C21.3886 33.018 21.3716 32.977 21.3716 32.953C21.3643 32.6883 21.3546 32.4233 21.3599 32.159C21.3599 32.104 21.4213 32.0506 21.4706 31.9946C21.5199 31.9386 21.5749 31.8786 21.6276 31.821C21.6349 31.8133 21.6493 31.8096 21.6526 31.801C21.7253 31.613 21.7946 31.4236 21.8699 31.237C21.9033 31.1619 21.9407 31.0887 21.9819 31.0176C21.9893 31.0036 22.0133 30.992 22.0123 30.981C21.9896 30.7036 22.2699 30.5073 22.2123 30.2143C22.1923 30.1143 22.1979 30.0023 22.3143 29.922C22.3599 29.8886 22.3619 29.7793 22.3646 29.7036C22.3773 29.3483 22.3796 28.9926 22.3943 28.637C22.3969 28.5733 22.4529 28.513 22.4609 28.448C22.4809 28.3036 22.4879 28.1576 22.4963 28.012C22.4963 28.002 22.4589 27.9786 22.4459 27.9823C22.4246 27.9893 22.3946 28.0126 22.3929 28.0313C22.3829 28.1453 22.3723 28.2513 22.2349 28.2923C22.2143 28.2986 22.2139 28.3703 22.2016 28.4116C22.1773 28.5033 22.2266 28.6316 22.0726 28.6616C22.0556 28.665 22.0506 28.7283 22.0393 28.766C22.0113 28.8596 21.9876 28.941 21.9153 29.0296C21.7866 29.187 21.7299 29.4036 21.6236 29.579L21.2819 30.1L21.3039 30.107L21.1339 30.2756L21.1409 30.2816L20.9703 30.444C20.9776 30.4563 20.9849 30.469 20.9919 30.4816C20.9113 30.5046 20.8323 30.5253 20.8336 30.3883C20.8336 30.3726 20.8273 30.346 20.8183 30.3433C20.6239 30.2873 20.6926 30.1243 20.6816 29.999C20.6683 29.8496 20.6816 29.699 20.6613 29.55C20.6506 29.4703 20.5966 29.3966 20.5613 29.3203C20.5463 29.287 20.5189 29.2536 20.5186 29.2203C20.5153 28.9203 20.5166 28.6203 20.5166 28.323C20.6873 28.1973 20.8706 28.0756 20.8543 27.8143L21.0006 27.779C20.9533 27.5913 21.1703 27.5393 21.2006 27.353C21.2339 27.153 21.3099 26.9196 21.4766 26.75C21.5099 26.7146 21.5053 26.6373 21.5153 26.579C21.5363 26.4573 21.4849 26.3123 21.6549 26.2413C21.6909 26.2256 21.6756 26.0966 21.6883 26.021C21.7069 25.9146 21.6633 25.7876 21.8116 25.7246C21.8449 25.71 21.8449 25.604 21.8533 25.539C21.8649 25.4286 21.8623 25.3166 21.8803 25.2076C21.8889 25.1566 21.9329 25.112 21.9579 25.063C21.9808 25.028 21.9972 24.9891 22.0063 24.9483C22.0209 24.788 22.0239 24.6266 22.0396 24.4666C22.0489 24.3743 22.0203 24.262 22.1516 24.215C22.1743 24.207 22.1813 24.136 22.1849 24.0933C22.1963 23.8993 22.2029 23.7053 22.2126 23.511C22.2146 23.473 22.2079 23.4143 22.2293 23.4C22.4066 23.2796 22.3539 23.0953 22.3646 22.9333C22.3773 22.7393 22.3723 22.5443 22.3819 22.3503C22.3894 22.2248 22.4222 22.1022 22.4783 21.9896C22.5569 21.823 22.5046 21.5913 22.5036 21.3896C22.5036 21.376 22.4563 21.3473 22.4416 21.353C22.4279 21.3586 22.4156 21.3673 22.4056 21.3783C22.3956 21.3893 22.3882 21.4024 22.3839 21.4166C22.3736 21.4876 22.3786 21.561 22.3706 21.6323C22.3599 21.7253 22.3903 21.839 22.2453 21.8693C22.2233 21.874 22.2159 21.9536 22.2029 21.9986C22.1646 22.134 22.2506 22.311 22.0556 22.3986C22.0223 22.4136 22.0296 22.5216 22.0203 22.5873C22.0036 22.7 22.0449 22.8376 21.8869 22.8873C21.8826 22.8873 21.8789 22.8953 21.8776 22.9003C21.8083 23.126 21.7423 23.3526 21.6683 23.5766C21.6509 23.6293 21.5983 23.6696 21.5766 23.722C21.5369 23.8176 21.5079 23.918 21.4669 24.039C21.2849 24.06 21.3613 24.239 21.3266 24.375C21.1069 24.3863 21.1956 24.5723 21.1673 24.662C21.0006 24.8323 20.8196 24.955 20.8276 25.1646L20.6093 25.392C20.5771 25.4447 20.5393 25.4939 20.4966 25.5386C20.4073 25.619 20.3083 25.6883 20.2129 25.7613C20.2003 25.771 20.1743 25.7746 20.1723 25.7843C20.1356 25.9843 19.9853 25.9003 19.8886 25.876C19.8253 25.8346 19.7523 25.803 19.7009 25.7503C19.6096 25.6563 19.5313 25.5503 19.4799 25.487C19.3599 25.3663 19.2766 25.282 19.1616 25.166C19.1163 24.9443 19.1163 24.9443 18.9833 24.8903C18.9779 24.8433 18.9723 24.7943 18.9659 24.7406L18.8286 24.7073C18.8186 24.613 18.8086 24.5203 18.7973 24.4156L18.6676 24.3783C18.5939 24.274 18.7343 24.0663 18.4913 24.0423C18.4843 23.966 18.4796 23.8896 18.4696 23.8136C18.4656 23.783 18.4553 23.7306 18.4396 23.7276C18.2799 23.6943 18.3209 23.5656 18.3046 23.4636C18.2893 23.3693 18.3089 23.2606 18.1809 23.2163C18.1569 23.208 18.1496 23.1426 18.1399 23.1023C18.1169 23.0023 18.1673 22.88 18.0126 22.8283C17.9793 22.8166 17.9863 22.686 17.9686 22.6116C17.9453 22.515 18.0043 22.386 17.8443 22.3376C17.8109 22.328 17.8093 22.2086 17.7989 22.1376C17.7799 22.0136 17.8046 21.891 17.6686 21.7896C17.6019 21.74 17.6273 21.5723 17.6019 21.46C17.5933 21.42 17.5589 21.3856 17.5353 21.3486C17.5129 21.3866 17.4719 21.424 17.4709 21.4623C17.4666 21.6173 17.4206 21.8033 17.4879 21.9216C17.6926 22.2803 17.5619 22.664 17.6279 23.0286C17.6419 23.1073 17.6976 23.1773 17.7279 23.2536C17.7494 23.3037 17.7631 23.3568 17.7683 23.411C17.7806 23.605 17.7819 23.7996 17.7969 23.9933C17.8046 24.09 17.7716 24.2056 17.9076 24.26C17.9369 24.272 17.9409 24.36 17.9459 24.414C17.9569 24.5633 17.9566 24.714 17.9699 24.863C17.9773 24.945 17.9576 25.0393 18.0719 25.0866C18.1053 25.1003 18.1103 25.1943 18.1166 25.2533C18.1299 25.3746 18.1279 25.4976 18.1469 25.618C18.1549 25.667 18.2059 25.708 18.2293 25.7563C18.2562 25.812 18.2779 25.8702 18.2939 25.93C18.3273 26.0583 18.2356 26.2236 18.4353 26.3083C18.4796 26.3273 18.4599 26.494 18.4719 26.5923C18.4816 26.669 18.4566 26.759 18.5833 26.781C18.6109 26.786 18.6269 26.903 18.6343 26.97C18.6429 27.0473 18.6276 27.131 18.7399 27.144C18.7536 27.144 18.7776 27.1656 18.7763 27.1733C18.7283 27.413 19.0336 27.528 18.9743 27.7733L19.1203 27.814C19.1536 27.9416 19.1399 28.0573 19.2929 28.1533C19.4569 28.2563 19.5346 28.468 19.4866 28.7023C19.4533 28.8736 19.4736 29.0563 19.4666 29.2356C19.4626 29.3316 19.4823 29.4356 19.3583 29.4896C19.3333 29.5 19.3249 29.567 19.3223 29.609C19.3129 29.7473 19.2819 29.8923 19.3106 30.0236C19.3553 30.2273 19.1813 30.3236 19.1296 30.477C19.1229 30.497 19.0499 30.4943 18.9963 30.504C18.9826 30.443 18.9713 30.3916 18.9576 30.331C18.8313 30.3513 18.7909 30.2816 18.8063 30.167L18.6696 30.137C18.6623 30.118 18.6559 30.1036 18.6509 30.0883C18.6176 29.991 18.6843 29.843 18.5039 29.8166C18.4809 29.8133 18.4706 29.7213 18.4523 29.662L18.3289 29.6203C18.2746 29.499 18.3673 29.3103 18.1566 29.2963C18.1003 29.1776 18.1756 29.0063 17.9899 28.9596C17.9763 28.9563 17.9779 28.899 17.9683 28.868C17.9403 28.7776 17.9893 28.65 17.8329 28.6173C17.8069 28.612 17.8033 28.499 17.7893 28.4356C17.7789 28.3883 17.7846 28.327 17.7559 28.296C17.6909 28.2236 17.6096 28.1656 17.4983 28.0706C17.5017 28.1421 17.5099 28.2133 17.5226 28.2836C17.5383 28.3483 17.5893 28.4083 17.5913 28.4716C17.6046 28.7993 17.6016 29.1273 17.6173 29.4543C17.6239 29.5996 17.5966 29.7466 17.7373 29.8786C17.8069 29.9453 17.7689 30.1213 17.7849 30.2476C17.7983 30.3546 17.7713 30.4616 17.8953 30.551C17.9599 30.5973 17.9369 30.758 17.9659 30.8636C17.9826 30.9243 18.0309 30.9756 18.0533 31.0353C18.0829 31.1153 18.1029 31.1993 18.1246 31.282C18.1476 31.3713 18.1129 31.49 18.2553 31.5153C18.2726 31.5186 18.2886 31.568 18.2929 31.598C18.3086 31.7 18.2993 31.813 18.4369 31.8456C18.4506 31.8486 18.4563 31.8816 18.4676 31.8996C18.5039 31.9566 18.5409 32.0133 18.5726 32.0616C18.6409 32.1243 18.6889 32.1756 18.7443 32.217C18.8109 32.2676 18.8163 32.4836 18.7353 32.5056C18.6353 32.534 18.6416 32.5956 18.6393 32.6673C18.6363 32.7563 18.6329 32.845 18.6253 32.934C18.6229 32.9646 18.6126 33.0173 18.5966 33.021C18.4373 33.0576 18.4869 33.1876 18.4709 33.2876C18.4456 33.442 18.5159 33.621 18.3246 33.731C18.2879 33.752 18.3059 33.8663 18.2956 33.937C18.2793 34.0496 18.3216 34.1796 18.1653 34.247C18.1276 34.263 18.1429 34.3906 18.1223 34.464C18.1109 34.503 18.0749 34.535 18.0503 34.57C18.0138 34.5463 17.979 34.52 17.9463 34.4913C17.8539 34.3986 17.7649 34.303 17.6746 34.209C17.6669 34.2013 17.6533 34.1976 17.6493 34.189C17.5762 34.0363 17.5038 33.8832 17.4323 33.7296L17.3899 33.758L17.0566 33.2626L17.0773 33.2533C17.0204 33.1895 16.9635 33.1256 16.9066 33.0616C16.7913 32.997 16.7913 32.997 16.7546 32.7123L16.6196 32.6853L16.6443 32.658L16.4886 32.4776L16.4586 32.4993C16.4456 32.4073 16.4323 32.3153 16.4193 32.223L16.3859 32.242C16.3491 32.183 16.3084 32.1265 16.2639 32.073C16.2306 32.0366 16.1813 32.0146 16.1203 31.973C16.1076 31.7683 15.9756 31.613 15.7969 31.4863C15.7793 31.4736 15.7776 31.4376 15.7696 31.412C15.7406 31.322 15.7316 31.238 15.6269 31.1723C15.5326 31.113 15.4899 30.9723 15.4206 30.8723C15.3469 30.764 15.2686 30.6586 15.1926 30.552L15.2336 30.5146L15.0876 30.4783C15.0819 30.4293 15.0763 30.381 15.0699 30.3283C14.8566 30.3143 14.9416 30.1333 14.8729 30.041L14.6179 29.761C14.5549 29.663 14.6083 29.504 14.4293 29.4516C14.4149 29.4473 14.4526 29.244 14.4786 29.136C14.4909 29.086 14.5526 29.0453 14.5576 28.9966C14.5736 28.8423 14.5699 28.6863 14.5806 28.53C14.5869 28.4366 14.5579 28.3236 14.6986 28.2873C14.7186 28.282 14.7299 28.2113 14.7319 28.1703C14.7406 27.887 14.7393 27.6036 14.7556 27.321C14.7596 27.2513 14.8179 27.1856 14.8483 27.1166C14.8669 27.074 14.8936 27.0286 14.8936 26.9833C14.8963 26.0613 14.8956 25.1391 14.8916 24.2166C14.8916 24.1633 14.8393 24.1106 14.8146 24.0563C14.7899 24.002 14.7566 23.953 14.7546 23.9003C14.7426 23.573 14.7443 23.245 14.7273 22.918C14.7239 22.8496 14.6606 22.7846 14.6273 22.718C14.6003 22.6616 14.5786 22.603 14.5469 22.527C14.4749 22.5166 14.3716 22.5053 14.4136 22.366L14.2959 22.3523C14.1933 22.247 14.1126 22.159 14.0253 22.0783C13.9911 22.0537 13.952 22.037 13.9106 22.0293C13.8313 22.0066 13.7596 22.0136 13.7163 21.896C13.6829 21.8056 13.4986 21.7773 13.4496 21.6853C13.3553 21.511 13.1103 21.575 13.0353 21.3783C13.0116 21.3156 12.8999 21.2863 12.8386 21.222C12.7386 21.1503 12.5759 21.194 12.5323 21.017C12.5266 20.9936 12.4446 20.989 12.4186 20.9503L12.2123 20.774C12.0926 20.644 11.9513 20.499 11.7686 20.474L11.4936 20.2016L11.5113 20.1706L11.3686 20.1476L11.3906 20.1213L11.2213 19.949V19.9433C11.1699 19.8956 11.1019 19.8563 11.0709 19.7976C11.0339 19.7283 11.0259 19.6426 11.0099 19.5643C10.9909 19.4716 11.0213 19.3606 10.8909 19.3156C10.8669 19.3073 10.8546 19.24 10.8529 19.1993C10.8473 19.0773 10.8469 18.955 10.8499 18.8326C10.8519 18.7433 10.8279 18.6476 10.9566 18.602C10.9926 18.589 10.9919 18.4746 11.0083 18.4066C11.0346 18.298 10.9546 18.1543 11.1416 18.096C11.1853 18.0823 11.1813 17.9146 11.1993 17.8176L11.2373 17.8363C11.2739 17.773 11.3139 17.7113 11.3466 17.6456C11.3826 17.574 11.3896 17.5063 11.4769 17.4433C11.5856 17.3653 11.6273 17.195 11.7009 17.0666C11.7263 17.0258 11.7557 16.9876 11.7886 16.9526C11.7983 16.9416 11.8256 16.9443 11.8323 16.933C11.9016 16.8116 11.9679 16.6883 12.0363 16.5663C12.0696 16.5066 12.1053 16.4486 12.1403 16.3896L12.1823 16.41C12.1959 16.3173 12.2093 16.225 12.2243 16.1233L12.3623 16.0866C12.3676 16.037 12.3726 15.9936 12.3786 15.9396L12.5199 15.9023C12.5309 15.8083 12.5416 15.7156 12.5533 15.612L12.6889 15.5786L12.6609 15.5453C12.7126 15.4876 12.7669 15.4326 12.8146 15.372C12.836 15.3417 12.852 15.3078 12.8616 15.272C12.8889 15.1863 12.8479 15.0573 13.0036 15.056C12.9975 15.0084 12.9863 14.9616 12.9703 14.9163C12.9483 14.8693 12.9006 14.8333 12.8823 14.7856C12.8523 14.7073 12.8709 14.6106 12.7523 14.578C12.7166 14.568 12.7026 14.481 12.6709 14.4113L12.5479 14.383C12.5426 14.3333 12.5376 14.29 12.5316 14.2363L12.3963 14.2046C12.3898 14.1944 12.3849 14.1831 12.3819 14.1713C12.3649 13.9616 12.2283 13.8356 12.0736 13.7196C12.0516 13.7033 12.0476 13.6646 12.0306 13.6396C12.0086 13.6081 11.9842 13.5784 11.9576 13.5506C11.9286 13.5193 11.8966 13.491 11.8666 13.461C11.8413 13.4318 11.8143 13.4042 11.7856 13.3783C11.7656 13.3623 11.7229 13.3626 11.7156 13.345C11.6039 13.0783 11.3416 12.9423 11.1776 12.7196C11.1109 12.6286 10.9776 12.5863 10.8853 12.5133C10.8483 12.484 10.8353 12.4246 10.8076 12.3716C10.6973 12.3633 10.5706 12.381 10.4683 12.3383C10.3213 12.2776 10.1996 12.246 10.0526 12.341C9.99094 12.381 9.88594 12.3496 9.80828 12.3706C9.75561 12.3846 9.71228 12.4343 9.66428 12.4676C9.63561 12.4876 9.60561 12.5056 9.57794 12.527C9.54461 12.5533 9.51128 12.582 9.47794 12.6096C9.44461 12.6373 9.41328 12.6663 9.37794 12.6926C9.35761 12.7086 9.32394 12.715 9.31328 12.735C9.24451 12.8666 9.13731 12.9741 9.00594 13.0433C8.93261 13.082 8.98094 13.2666 8.87428 13.2253C8.78461 13.296 8.72494 13.333 8.67928 13.3826C8.64594 13.4186 8.63028 13.4713 8.59994 13.5306L8.47128 13.557C8.46461 13.6056 8.45894 13.6483 8.45228 13.6996L8.30494 13.7263C8.29728 13.7716 8.29028 13.814 8.28794 13.8263L8.08794 13.9876L8.09561 14.002L7.88761 14.1973C7.8517 14.2464 7.81238 14.293 7.76994 14.3366C7.68828 14.413 7.59928 14.4813 7.51428 14.5543C7.48761 14.577 7.46428 14.6026 7.43928 14.627C7.40594 14.6603 7.37261 14.6936 7.33661 14.7246C7.32094 14.7383 7.29328 14.7423 7.28294 14.758C7.21894 14.8563 7.18094 14.9913 7.09194 15.049C6.87261 15.1886 6.93928 15.3973 6.92928 15.5823C6.91561 15.831 6.92928 16.0823 6.93694 16.3313C6.94094 16.451 6.90961 16.5763 7.05728 16.6646C7.10861 16.695 7.09061 16.8393 7.10794 16.9313C7.12161 17.0076 7.09094 17.1083 7.21461 17.1256C7.22794 17.1276 7.25094 17.1476 7.24794 17.1556C7.20461 17.389 7.46561 17.5183 7.45161 17.748C7.44761 17.818 7.44294 17.9356 7.57328 17.953C7.59094 17.9553 7.60928 18.003 7.61494 18.0323C7.63561 18.1383 7.59994 18.2713 7.75961 18.307C7.77228 18.3096 7.77528 18.356 7.78228 18.3823C7.80761 18.4793 7.76361 18.6133 7.92494 18.6403C7.94028 18.6426 7.94628 18.707 7.95494 18.7433C7.97594 18.8326 7.94161 18.9526 8.08828 18.9706C8.10328 18.9706 8.11761 19.024 8.12161 19.054C8.13961 19.156 8.10294 19.2836 8.25994 19.3173C8.27661 19.321 8.28661 19.384 8.28894 19.4203C8.29661 19.5346 8.31094 19.6416 8.44528 19.657C8.49294 19.782 8.39361 19.9656 8.61494 19.9903C8.65094 20.1143 8.59994 20.2803 8.78161 20.3353C8.79361 20.339 8.78594 20.3896 8.79794 20.4126C8.84028 20.494 8.88761 20.5726 8.93128 20.653C8.94394 20.6756 8.95161 20.701 8.96461 20.723C8.99528 20.7732 9.02739 20.8225 9.06094 20.871C9.06961 20.8836 9.09428 20.8886 9.09794 20.902C9.16794 21.0733 9.23328 21.247 9.30594 21.4173C9.33031 21.4595 9.36012 21.4983 9.39461 21.5326C9.41361 21.5563 9.44161 21.5766 9.45094 21.6036C9.48694 21.708 9.44194 21.8493 9.60628 21.895C9.63294 21.9023 9.62394 22.01 9.64761 22.0646C9.67128 22.1193 9.71928 22.1523 9.74394 22.2016C9.77728 22.2683 9.79061 22.3406 9.82128 22.4066C9.8462 22.4521 9.87569 22.4949 9.90928 22.5343C9.92761 22.5586 9.96061 22.5776 9.96761 22.6043C9.99728 22.7166 9.95861 22.861 10.1273 22.9043C10.1449 22.909 10.1436 22.9856 10.1519 23.029C10.1676 23.109 10.1419 23.1956 10.2716 23.2333C10.3353 23.2546 10.3409 23.4216 10.3709 23.5333ZM14.0789 19.7906L14.5626 20.0596C14.5626 20.0596 14.5709 20.1053 14.5796 20.1523L14.7303 20.1726L14.7703 20.313L15.0256 20.3493C15.0656 20.4076 15.0899 20.4603 15.1293 20.496C15.1835 20.5395 15.2409 20.5789 15.3009 20.614C15.3949 20.6856 15.5599 20.6296 15.6009 20.814C15.6029 20.8223 15.7049 20.8083 15.7603 20.8046C15.7449 20.6486 15.7856 20.438 15.6999 20.351C15.6023 20.2536 15.6173 20.1626 15.5903 20.0673C15.5696 19.994 15.5773 19.8606 15.5449 19.8516C15.3919 19.809 15.4449 19.685 15.4179 19.5956C15.4059 19.555 15.4056 19.4873 15.3813 19.477C15.2479 19.4213 15.2596 19.305 15.2513 19.1976C15.2426 19.084 15.2319 18.9753 15.0919 18.9576C15.0809 18.8503 15.0709 18.752 15.0613 18.654L15.0076 18.6716C14.9769 18.605 14.9466 18.5403 14.9156 18.4746C14.8786 18.3966 14.8409 18.319 14.8036 18.2413L14.7553 18.2596C14.7479 18.1663 14.7403 18.073 14.7319 17.971L14.5909 17.9356C14.5809 17.8356 14.5716 17.7413 14.5613 17.6393L14.4279 17.599C14.3863 17.4706 14.4783 17.281 14.2863 17.268C14.1886 17.0513 14.1029 16.8566 14.0119 16.6646C13.978 16.5964 13.9379 16.5314 13.8923 16.4703C13.8756 16.4476 13.8386 16.4406 13.8146 16.4216C13.7906 16.4026 13.7479 16.3766 13.7443 16.349C13.7206 16.2236 13.6463 16.2606 13.5729 16.2763C13.5609 16.341 13.5626 16.401 13.5396 16.4483C13.4653 16.5933 13.4043 16.7586 13.3176 16.8786C13.2587 16.9615 13.2194 17.0567 13.2026 17.157C13.1959 17.1883 13.1923 17.2426 13.1769 17.2466C13.0026 17.2913 13.0636 17.4353 13.0436 17.5466C13.0332 17.6311 13.0163 17.7145 12.9929 17.7963C12.9703 17.863 12.9156 17.9206 12.8929 17.988C12.7873 18.288 13.0833 18.5036 13.0596 18.788C13.0596 18.795 13.0739 18.8093 13.0823 18.81C13.2156 18.82 13.1949 18.937 13.2289 19.0166C13.2436 19.05 13.2549 19.1006 13.2816 19.113C13.4196 19.1756 13.4816 19.342 13.6589 19.3626C13.7373 19.3716 13.8073 19.475 13.8759 19.541C13.9259 19.5893 13.9673 19.6466 14.0126 19.7L14.0499 19.6733C14.0593 19.7146 14.0703 19.7566 14.0789 19.7906ZM24.9349 18.6556C24.9103 18.7746 24.9203 18.934 24.8626 18.964C24.7293 19.034 24.7403 19.1366 24.7386 19.2406C24.7349 19.4516 24.4956 19.5793 24.5436 19.8073C24.5436 19.812 24.5129 19.8193 24.5043 19.831C24.4709 19.8776 24.4236 19.9226 24.4106 19.9753C24.3843 20.0816 24.4143 20.2536 24.3543 20.2906C24.1623 20.4096 24.2626 20.5883 24.2209 20.733C24.2189 20.7509 24.2216 20.7691 24.2286 20.7857C24.2356 20.8023 24.2467 20.8169 24.2609 20.828C24.2966 20.8423 24.3786 20.835 24.3819 20.822C24.4286 20.6376 24.5936 20.6833 24.7316 20.641C24.6983 20.5016 24.7956 20.4936 24.9033 20.4943C24.9089 20.2533 25.1196 20.3736 25.2006 20.2713L25.4139 20.1046C25.4139 20.0993 25.4266 20.0533 25.4379 20.007L25.4656 20.0403L25.8926 19.8016C25.9336 19.7441 25.9856 19.6953 26.0456 19.658C26.0658 19.6417 26.0852 19.6245 26.1036 19.6063C26.2069 19.515 26.3103 19.4233 26.4143 19.3326C26.4756 19.2793 26.5306 19.2066 26.6023 19.1796C26.7479 19.1246 26.7789 19.013 26.7999 18.882C26.8026 18.866 26.8333 18.8563 26.8453 18.8393C26.8827 18.7892 26.9151 18.7355 26.9419 18.679C26.9696 18.6123 26.9649 18.495 27.0063 18.479C27.0983 18.4416 27.1016 18.386 27.1009 18.3123C27.1009 18.1846 27.1009 18.057 27.0976 17.9296C27.0976 17.8926 27.0886 17.8276 27.0723 17.8236C26.8913 17.78 26.9659 17.6323 26.9453 17.5253C26.9246 17.4183 26.9849 17.2833 26.8163 17.2426C26.7986 17.2386 26.7799 17.1713 26.7879 17.14C26.8433 16.918 26.6729 16.7586 26.5746 16.6266C26.4883 16.5113 26.4509 16.4033 26.4149 16.2576C26.3619 16.2713 26.2816 16.271 26.2713 16.298C26.2176 16.4353 26.0536 16.498 26.0516 16.68C26.0516 16.7723 25.9593 16.8953 25.8736 16.9466C25.7709 17.008 25.7703 17.091 25.7469 17.177C25.7386 17.2083 25.7373 17.2653 25.7246 17.268C25.5246 17.307 25.6029 17.4836 25.5579 17.6063C25.3293 17.6233 25.4439 17.82 25.3859 17.9446L25.2589 17.978C25.2473 18.0866 25.2369 18.1846 25.2256 18.278L25.0849 18.3223C25.0766 18.429 25.0689 18.5223 25.0613 18.62L24.9349 18.6556Z" fill="#9E9E9E"/>
</svg>
