<svg width="40" height="40" viewBox="0 0 40 40" fill="none" xmlns="http://www.w3.org/2000/svg">
<path d="M14.9709 24.616L15.1076 24.6493C15.1162 24.747 15.1249 24.841 15.1339 24.9397L15.2696 24.9807C15.2942 25.1023 15.2609 25.2473 15.4289 25.2947C15.4499 25.3007 15.4496 25.381 15.4929 25.4067C15.5285 25.4623 15.567 25.5161 15.6082 25.5677C15.6729 25.6417 15.7436 25.7107 15.8126 25.7807C15.8989 25.8673 15.9869 25.953 16.0739 26.0393C16.1482 26.113 16.2226 26.1873 16.2972 26.261C16.3337 26.302 16.3738 26.3397 16.4169 26.3737C16.4609 26.404 16.5139 26.4213 16.5469 26.4693C16.6006 26.5063 16.6556 26.542 16.7072 26.5817C16.7278 26.6024 16.7468 26.6247 16.7639 26.6483C16.786 26.6784 16.8133 26.7043 16.8446 26.7247C16.9346 26.766 17.0779 26.7153 17.0976 26.879C17.0976 26.89 17.1669 26.888 17.1999 26.9017C17.2736 26.9327 17.3939 26.8903 17.4042 27.0293C17.4042 27.043 17.4559 27.056 17.4849 27.0627C17.5849 27.0893 17.7069 27.0497 17.7569 27.1997C17.7679 27.233 17.8932 27.2287 17.9662 27.2393C18.0616 27.2537 18.1716 27.2283 18.2216 27.3537C18.2302 27.3747 18.2882 27.383 18.3216 27.387C18.4436 27.397 18.5676 27.393 18.6882 27.4123C18.7526 27.4227 18.8102 27.4717 18.8726 27.499C18.9192 27.5193 18.9692 27.547 19.0176 27.5473C19.6729 27.5507 20.3282 27.552 20.9842 27.5473C21.0406 27.5473 21.0956 27.49 21.1529 27.462C21.1875 27.4414 21.2254 27.4269 21.2649 27.419C21.3982 27.406 21.5316 27.407 21.6626 27.3877C21.7166 27.38 21.7626 27.3293 21.8159 27.3073C21.8817 27.2806 21.9496 27.2593 22.0189 27.2437C22.1232 27.2193 22.2616 27.277 22.3039 27.1103C22.3082 27.092 22.3812 27.0933 22.4212 27.0817C22.4996 27.0587 22.6086 27.0947 22.6296 26.9577C22.6332 26.933 22.7342 26.928 22.7862 26.9053C22.8524 26.8775 22.9131 26.838 22.9652 26.7887C23.1986 26.7273 23.3959 26.5887 23.4606 26.4623C23.5052 26.4133 23.5492 26.364 23.5939 26.315C23.6076 26.3 23.6199 26.2773 23.6369 26.273C23.7856 26.2343 23.8426 26.096 23.9402 26.0017C24.0196 25.9253 24.1092 25.8597 24.1896 25.7843C24.2612 25.7177 24.3286 25.644 24.3936 25.57C24.4376 25.5197 24.4739 25.4623 24.5312 25.384C24.5736 25.344 24.6482 25.2993 24.6832 25.234C24.7216 25.1623 24.7232 25.0713 24.7419 24.984L24.8689 24.9387C24.8779 24.8437 24.8866 24.754 24.8956 24.6587L25.0322 24.616C25.0392 24.5233 25.0462 24.4333 25.0539 24.331C25.2082 24.327 25.1969 24.2087 25.2069 24.0977C25.2169 23.9867 25.1626 23.8453 25.3359 23.7977C25.3509 23.7937 25.3539 23.731 25.3556 23.6937C25.3626 23.534 25.3556 23.373 25.3766 23.215C25.3866 23.134 25.4432 23.0593 25.4729 22.9817C25.4921 22.9395 25.5043 22.8944 25.5089 22.8483C25.5152 22.6887 25.5216 22.5283 25.5146 22.369C25.5086 22.2337 25.5479 22.093 25.4166 21.9727C25.3626 21.923 25.3779 21.7913 25.3719 21.6967C25.3632 21.5583 25.3672 21.4193 25.3586 21.2813C25.3532 21.1963 25.3689 21.1053 25.2509 21.0573C25.2139 21.0423 25.2136 20.9267 25.2042 20.8573C25.1949 20.788 25.2092 20.735 25.1176 20.6953C25.0702 20.6747 25.0602 20.553 25.0459 20.4747C25.0269 20.371 25.0642 20.2387 24.8986 20.2413C24.8552 20.1217 24.9212 19.9637 24.7419 19.916C24.7206 19.9103 24.7189 19.8303 24.7052 19.772L24.5806 19.7403L24.6092 19.7197C24.5519 19.6197 24.4909 19.5227 24.4392 19.4197C24.4242 19.3893 24.4359 19.3453 24.4352 19.3076C24.4659 19.3181 24.496 19.3303 24.5252 19.3443C24.5746 19.3717 24.6186 19.4136 24.6709 19.4303C24.7579 19.458 24.8739 19.408 24.9172 19.547C24.9266 19.576 25.0109 19.5857 25.0619 19.596C25.1796 19.6203 25.3242 19.56 25.3872 19.7417C25.4006 19.7797 25.5539 19.769 25.6439 19.7807C25.6386 19.7947 25.6336 19.809 25.6282 19.823C25.7109 19.8587 25.7949 19.8897 25.8752 19.931C25.9219 19.958 25.9657 19.9897 26.0059 20.0257C26.0169 20.0347 26.0196 20.0647 26.0276 20.065C26.1769 20.0743 26.3102 20.1093 26.3996 20.2467C26.4317 20.2902 26.4738 20.3255 26.5222 20.3497C26.5729 20.381 26.6298 20.4009 26.6889 20.408C26.7852 20.4127 26.8509 20.4313 26.8269 20.522L27.0332 20.6607L27.0086 20.702C27.1279 20.742 27.2916 20.704 27.3332 20.885C27.3372 20.9033 27.4102 20.906 27.4312 20.9463C27.4856 20.9863 27.5426 21.023 27.5932 21.0673C27.6686 21.134 27.7386 21.2053 27.8126 21.2727C27.8552 21.3113 27.9006 21.3473 27.9459 21.382C28.0476 21.4587 28.1559 21.5277 28.2516 21.611C28.3516 21.6993 28.4419 21.801 28.5359 21.8973C28.5519 21.9102 28.5654 21.9261 28.5756 21.944C28.6169 22.0487 28.6189 22.169 28.7646 22.2177C28.8046 22.231 28.7932 22.3813 28.9232 22.354C28.9332 22.406 28.9422 22.4513 28.9536 22.5083L29.0836 22.5343L29.0589 22.5677C29.1072 22.6143 29.1589 22.6587 29.2032 22.7083C29.2251 22.7347 29.2412 22.7654 29.2506 22.7983C29.2769 22.8823 29.2469 23.0013 29.3912 23.009C29.4032 23.009 29.4102 23.054 29.4246 23.0757C29.4561 23.1261 29.4956 23.1712 29.5416 23.209C29.6186 23.3047 29.5162 23.5003 29.6729 23.509C29.7622 23.6397 29.8289 23.7317 29.8886 23.828C29.9069 23.857 29.9016 23.8997 29.9139 23.9333C29.9419 24.012 29.9159 24.1193 30.0352 24.1553C30.0462 24.1587 30.0352 24.2703 30.0159 24.3267C30.0016 24.3723 29.9552 24.407 29.9362 24.452C29.8999 24.5393 29.9102 24.6353 29.8029 24.7037C29.7296 24.75 29.7099 24.8813 29.6659 24.9743C29.6219 25.0673 29.5819 25.1517 29.5326 25.259C29.3992 25.376 29.2392 25.505 29.2479 25.746L29.0999 25.7797C29.1216 25.895 29.0719 25.9517 28.9526 25.937C28.9456 25.989 28.9402 26.0303 28.9336 26.0813L28.8002 26.11L28.8216 26.1373C28.7722 26.183 28.7216 26.2283 28.6739 26.2743C28.6592 26.288 28.6362 26.3017 28.6336 26.3183C28.6002 26.5183 28.4569 26.6293 28.3059 26.7427C28.2182 26.8093 28.1589 26.9113 28.0859 26.9967C28.0724 27.0122 28.0564 27.0254 28.0386 27.0357C27.9166 27.1087 27.7889 27.1733 27.6739 27.2553C27.6142 27.298 27.5762 27.371 27.5072 27.417C27.4719 27.5017 27.4536 27.5953 27.3089 27.5473C27.3226 27.684 27.2539 27.711 27.1509 27.7257C27.0819 27.7353 27.0176 27.79 26.9539 27.8257C26.9602 27.842 26.9666 27.859 26.9726 27.8747L26.8392 27.891C26.8286 27.9327 26.8172 27.9767 26.8042 28.0287L26.5316 28.062L26.5009 28.178L26.0512 28.4093L26.0262 28.376C26.0102 28.4193 25.9929 28.463 25.9776 28.5093C25.9109 28.517 25.8486 28.5237 25.7859 28.5323C25.7602 28.5357 25.7152 28.538 25.7122 28.549C25.6719 28.711 25.5382 28.6847 25.4236 28.6973C25.4082 28.699 25.3819 28.7023 25.3796 28.71C25.3296 28.888 25.1726 28.8243 25.0576 28.86C24.9909 28.8803 24.9362 28.9363 24.8766 28.9767C24.8682 28.9823 24.8606 28.9987 24.8552 28.9973C24.6249 28.9517 24.4886 29.199 24.2659 29.185C24.1719 29.179 24.0846 29.1887 24.0029 29.285C23.9502 29.3463 23.8029 29.3283 23.7002 29.3453C23.5839 29.3643 23.4456 29.3077 23.3699 29.4657C23.3539 29.499 23.2526 29.499 23.1896 29.503C23.0782 29.5113 22.9659 29.5083 22.8562 29.5173C22.7562 29.5253 22.6482 29.4963 22.5776 29.6197C22.5552 29.6583 22.4509 29.658 22.3832 29.661C22.1649 29.6707 21.9462 29.6703 21.7282 29.6797C21.6172 29.6843 21.4989 29.6527 21.4142 29.7797C21.3879 29.8193 21.2856 29.819 21.2179 29.8193C20.4079 29.8217 19.5976 29.8243 18.7879 29.816C18.7006 29.816 18.6149 29.744 18.5269 29.71C18.488 29.6952 18.4469 29.6868 18.4052 29.6853C18.1602 29.6763 17.9149 29.6753 17.6719 29.6617C17.5629 29.6557 17.4329 29.693 17.3669 29.55C17.3576 29.5297 17.3002 29.5277 17.2632 29.5257C17.1146 29.517 16.9632 29.517 16.8166 29.503C16.7282 29.4947 16.6206 29.5173 16.5772 29.3917C16.5696 29.3697 16.5036 29.3627 16.4636 29.3583C16.3262 29.342 16.1522 29.3773 16.0592 29.3057C15.8926 29.1773 15.6762 29.2433 15.5409 29.144C15.4129 29.0503 15.2299 29.0723 15.1666 28.9937C15.0376 28.8343 14.8579 28.9067 14.7382 28.827C14.6132 28.7433 14.4222 28.732 14.3656 28.6533C14.2772 28.5317 14.1866 28.5377 14.0806 28.52C14.0652 28.517 14.0376 28.5157 14.0362 28.5093C13.9999 28.3377 13.8562 28.3713 13.7399 28.3503C13.7226 28.3473 13.7066 28.3267 13.6932 28.3127C13.6432 28.266 13.5932 28.2183 13.5442 28.1713L13.5109 28.1987L13.4722 28.0653L13.1936 28.032C13.1859 27.9907 13.1782 27.9503 13.1779 27.9483L12.9626 27.7667L12.9812 27.741C12.9182 27.7351 12.8558 27.7239 12.7946 27.7077C12.7582 27.6957 12.7296 27.6587 12.7002 27.63C12.6769 27.6073 12.6596 27.5783 12.6366 27.5553C12.6032 27.522 12.5659 27.4887 12.5289 27.4553C12.5042 27.4333 12.4766 27.4147 12.4516 27.393C12.4198 27.3662 12.3894 27.3379 12.3606 27.308C12.3509 27.2977 12.3549 27.2717 12.3446 27.2647C12.2402 27.1933 12.1306 27.1313 12.0306 27.0533C11.9306 26.9753 11.8306 26.8833 11.7322 26.7953C11.6417 26.7212 11.5571 26.6403 11.4789 26.5533C11.4192 26.48 11.3849 26.3867 11.3479 26.3167L11.1812 26.1387L11.2062 26.1053L11.0629 26.0817C11.0846 25.96 11.0329 25.905 10.9629 25.915L10.7869 25.7173C10.7272 25.6253 10.7646 25.476 10.5979 25.428C10.5756 25.4213 10.5742 25.3423 10.5646 25.2967L10.5226 25.316C10.4866 25.2493 10.4532 25.1793 10.4139 25.114C10.3806 25.0607 10.3429 25.012 10.3069 24.9613C10.2899 24.9373 10.2619 24.9153 10.2572 24.8893C10.2382 24.7857 10.2362 24.6787 10.1176 24.6227C10.0972 24.6133 10.1046 24.553 10.0889 24.5227C10.0532 24.4513 9.99823 24.387 9.9759 24.3127C9.96384 24.2522 9.96868 24.1896 9.9899 24.1317C10.0046 24.0823 10.0499 24.0433 10.0709 23.995C10.1376 23.8377 10.1616 23.635 10.2759 23.5323C10.3902 23.4297 10.3806 23.319 10.4426 23.2263C10.4912 23.1523 10.5576 23.0483 10.6179 23.0137C10.7252 22.9517 10.7236 22.8683 10.7529 22.7833C10.7651 22.7518 10.7835 22.723 10.8069 22.6987C10.8496 22.6523 10.8966 22.6097 10.9419 22.5653L10.9152 22.532L11.0502 22.5023L11.0262 22.4757L11.2079 22.2737C11.2302 22.2553 11.2806 22.214 11.3309 22.1737C11.3426 22.164 11.3642 22.152 11.3642 22.1433C11.3409 21.9573 11.5216 21.8933 11.5976 21.7667C11.6506 21.677 11.7686 21.627 11.8532 21.5547C11.9712 21.4547 12.0819 21.343 12.2026 21.245C12.2909 21.1733 12.3942 21.1207 12.4819 21.0487C12.5152 21.0203 12.5152 20.9453 12.5502 20.9217C12.6856 20.831 12.8289 20.7523 13.0112 20.6443L13.2169 20.452L13.1972 20.4187C13.2653 20.4128 13.333 20.403 13.3999 20.3893C13.4338 20.3741 13.4646 20.3529 13.4909 20.3267C13.5269 20.2993 13.5609 20.2687 13.5986 20.244C13.6149 20.233 13.6546 20.236 13.6562 20.2273C13.6939 20.0363 13.8562 20.094 13.9829 20.0683C13.9919 19.9583 14.0559 19.9093 14.1689 19.917C14.2669 19.9233 14.3559 19.9093 14.3356 19.7743C14.4222 19.7667 14.4909 19.763 14.5589 19.7537C14.5879 19.7497 14.6379 19.736 14.6396 19.7203C14.6589 19.5657 14.7832 19.613 14.8729 19.594C14.9702 19.5733 15.0832 19.601 15.1376 19.4663C15.1509 19.433 15.2636 19.4457 15.3259 19.4233C15.3766 19.4053 15.4189 19.3643 15.4672 19.3383C15.5009 19.3229 15.5357 19.3099 15.5712 19.2993C15.5712 19.337 15.5852 19.3817 15.5712 19.411C15.5192 19.511 15.4569 19.6043 15.3736 19.7413C15.2736 19.7747 15.1372 19.991 15.1172 20.2173L15.0739 20.2003C15.0379 20.2717 14.9856 20.3393 14.9696 20.4147C14.9449 20.53 14.9796 20.6637 14.8296 20.725C14.8112 20.7327 14.8132 20.7917 14.8082 20.828C14.7936 20.931 14.8352 21.0523 14.6886 21.1083C14.6589 21.1197 14.6552 21.2143 14.6502 21.2713C14.6389 21.436 14.6446 21.6023 14.6219 21.7653C14.6086 21.862 14.5272 21.952 14.5236 22.047C14.5112 22.3523 14.5206 22.6587 14.5216 22.965C14.6526 23.0347 14.6216 23.165 14.6326 23.2757C14.6459 23.4133 14.6466 23.5523 14.6539 23.6903C14.6559 23.722 14.6539 23.776 14.6689 23.7807C14.8709 23.8497 14.7802 24.0267 14.8099 24.157C14.8249 24.2237 14.8052 24.2983 14.9099 24.3063C14.9282 24.3063 14.9512 24.36 14.9566 24.3913C14.9629 24.4633 14.9642 24.5333 14.9709 24.616Z" fill="#9E9E9E"/>
<path d="M21.1606 20.591C21.2923 20.5483 21.2923 20.5483 21.3119 20.266C21.4633 20.2597 21.4563 20.1423 21.4679 20.0327C21.4749 19.9885 21.4895 19.9459 21.5109 19.9067C21.5443 19.8367 21.5979 19.7733 21.6209 19.7C21.6516 19.6 21.6159 19.491 21.7513 19.4203C21.8079 19.3907 21.8006 19.238 21.8243 19.132C21.9299 19.132 22.0423 19.0827 22.1019 19.235C22.1159 19.2703 22.2019 19.278 22.2316 19.3243C22.4506 19.4843 22.6696 19.6447 22.9206 19.8277L23.1573 20.2277C23.1819 20.2537 23.2336 20.3097 23.2853 20.3653L23.2593 20.397C23.2839 20.4023 23.3089 20.4067 23.3333 20.413C23.3576 20.4193 23.3723 20.4263 23.3919 20.4333C23.4016 20.5227 23.4109 20.6067 23.4216 20.7L23.5489 20.747C23.5542 20.7611 23.5585 20.7756 23.5616 20.7903C23.5726 20.874 23.5553 21.0107 23.5976 21.0323C23.7693 21.121 23.7173 21.272 23.7376 21.4033C23.7559 21.5233 23.7186 21.6617 23.8633 21.7383C23.8823 21.7483 23.8803 21.8073 23.8806 21.844C23.8823 22.174 23.8863 22.5043 23.8806 22.8343C23.8806 22.8927 23.8306 22.9497 23.8043 23.0073C23.7856 23.0376 23.7714 23.0704 23.7623 23.1047C23.7486 23.21 23.7436 23.3163 23.7319 23.422C23.7259 23.4797 23.7299 23.5753 23.7013 23.5887C23.5223 23.6653 23.5906 23.8303 23.5523 23.9637L23.4259 23.9953C23.4146 24.0863 23.4026 24.18 23.3926 24.2737L23.3669 24.2537L23.2156 24.4267L23.2416 24.457L23.1083 24.4877L23.1326 24.517C23.085 24.5681 23.0373 24.619 22.9893 24.6697C22.9786 24.681 22.9559 24.6933 22.9559 24.703C22.9813 24.8873 22.7803 24.9233 22.7263 25.0553C22.7225 25.0622 22.7174 25.0683 22.7113 25.0733C22.7052 25.0782 22.6981 25.0818 22.6906 25.084C22.5026 25.1353 22.3869 25.275 22.2539 25.406C22.1539 25.506 21.9939 25.5433 21.8603 25.606C21.8416 25.615 21.8049 25.6097 21.8009 25.6207C21.7243 25.8143 21.5463 25.7493 21.4056 25.779C21.3803 25.7843 21.3356 25.7857 21.3326 25.797C21.2846 25.9927 21.1249 25.9083 21.0086 25.9273C20.9356 25.9393 20.8599 25.9367 20.7859 25.9433C20.7549 25.9463 20.7033 25.948 20.6969 25.964C20.6303 26.139 20.4806 26.081 20.3599 26.0833C20.067 26.0891 19.774 26.0875 19.4809 26.0783C19.4323 26.0783 19.3856 26.025 19.3369 25.998C19.3036 25.9787 19.2683 25.95 19.2319 25.9463C19.1156 25.9343 18.9986 25.9347 18.8813 25.9253C18.8036 25.919 18.7119 25.9477 18.6836 25.8193C18.6769 25.789 18.5553 25.7803 18.4836 25.769C18.3836 25.7533 18.2653 25.7803 18.2223 25.64C18.2163 25.6207 18.1556 25.6213 18.1259 25.6067C18.0523 25.5677 17.9793 25.527 17.9089 25.4823C17.8089 25.4187 17.7089 25.3557 17.6143 25.2823C17.4879 25.1847 17.3829 25.0313 17.2423 24.9877C17.0423 24.9253 17.1243 24.67 16.9296 24.621C16.8779 24.6073 16.8503 24.5 16.7909 24.4423L16.6546 24.2583L16.6146 24.2817L16.5786 24.015L16.5366 24.0313C16.5006 23.9557 16.4523 23.883 16.4319 23.8033C16.4116 23.7237 16.4253 23.6497 16.3253 23.612C16.2953 23.6007 16.2849 23.5213 16.2759 23.4713C16.2449 23.297 16.3189 23.094 16.1313 22.9637C16.1253 22.9597 16.1256 22.9437 16.1256 22.9333C16.1256 22.55 16.1249 22.1667 16.1236 21.7833C16.3179 21.6097 16.2453 21.3667 16.2903 21.1537C16.2956 21.1267 16.3236 21.1043 16.3386 21.0797C16.3719 21.0394 16.4002 20.9953 16.4229 20.9483C16.4543 20.859 16.4036 20.7407 16.5586 20.6983C16.5999 20.687 16.6006 20.527 16.6373 20.453L16.7926 20.2817L16.8066 20.279C16.8454 20.2218 16.8803 20.162 16.9109 20.1C16.9423 20.0263 16.9443 19.9573 17.0503 19.9163C17.1413 19.883 17.1963 19.7537 17.2673 19.667C17.2803 19.651 17.2896 19.6287 17.3063 19.6197C17.4313 19.553 17.5646 19.4967 17.6813 19.4167C17.7729 19.3533 17.8363 19.25 17.9279 19.185C17.9946 19.139 18.0853 19.13 18.1786 19.1003C18.1963 19.195 18.2083 19.2563 18.2189 19.318C18.2233 19.344 18.2159 19.3883 18.2289 19.3943C18.4069 19.482 18.3533 19.663 18.3999 19.803C18.4167 19.8338 18.4368 19.8626 18.4599 19.889C18.4903 19.9316 18.5161 19.9773 18.5369 20.0253C18.5673 20.1093 18.5159 20.222 18.6666 20.262C18.7079 20.273 18.7076 20.442 18.7263 20.5387L18.7629 20.5233C18.7963 20.59 18.8406 20.6567 18.8576 20.7273C18.8776 20.8117 18.8516 20.9057 18.9789 20.9363C19.0066 20.9427 19.0143 21.0473 19.0246 21.1077C19.0423 21.21 18.9959 21.336 19.1529 21.381C19.1776 21.388 19.1863 21.4847 19.1863 21.54C19.1879 21.64 19.2036 21.722 19.3236 21.7143C19.3903 21.8307 19.2569 22.0313 19.4903 22.054C19.5176 22.1903 19.4733 22.3463 19.6386 22.4283C19.6689 22.4433 19.6586 22.5377 19.6696 22.595C19.6879 22.688 19.6609 22.7973 19.7939 22.845C19.8253 22.856 19.8323 22.9567 19.8373 23.0173C19.8459 23.1197 19.8853 23.167 19.9966 23.1647C20.0986 23.1623 20.1556 23.1403 20.1613 23.0257C20.1659 22.9363 20.1569 22.8337 20.2836 22.7977C20.3083 22.7903 20.3169 22.713 20.3256 22.6667C20.3473 22.5473 20.3123 22.4067 20.4723 22.3443C20.4939 22.336 20.4849 22.2563 20.4969 22.211C20.5159 22.1387 20.4793 22.0493 20.6083 22.0147C20.6529 22.0027 20.6573 21.8383 20.6839 21.7267C20.8136 21.7167 20.8119 21.6057 20.8246 21.4933C20.8299 21.444 20.8853 21.402 20.9093 21.3527C20.9394 21.2957 20.9625 21.2353 20.9779 21.1727C21.0003 21.0677 20.9479 20.9457 21.1093 20.8837C21.1546 20.8667 21.1436 20.7 21.1606 20.591Z" fill="#9E9E9E"/>
<path d="M18.2805 8.71377C18.4438 8.7011 18.3565 8.52044 18.4185 8.42144C18.5485 8.2741 18.7355 8.16244 18.7115 7.91044C18.9398 7.90444 18.8388 7.71444 18.8925 7.59277L18.9945 7.5661L19.2301 7.1291L19.2385 7.12644C19.2775 7.05077 19.3148 6.97444 19.3555 6.89977C19.3877 6.83365 19.4357 6.77642 19.4951 6.7331C19.5691 6.5911 19.6428 6.44877 19.7311 6.2781C19.7597 6.23461 19.7947 6.19582 19.8351 6.1631C19.8914 6.12533 19.9563 6.1024 20.0238 6.09644C20.0768 6.09938 20.1271 6.12058 20.1661 6.15644C20.2135 6.19577 20.2465 6.25244 20.2971 6.2941C20.3471 6.3981 20.3475 6.5051 20.4565 6.61044C20.5398 6.69144 20.7035 6.81044 20.6665 7.00244C20.6608 7.0311 20.7455 7.07777 20.8102 7.13577C20.8348 7.20844 20.7768 7.35777 20.9488 7.40244C20.9732 7.40844 20.9765 7.49644 20.9928 7.5581L21.1205 7.5991C21.1298 7.68744 21.1395 7.77644 21.1502 7.8751L21.2912 7.90844C21.2672 8.15377 21.4625 8.26377 21.6012 8.4111C21.6125 8.49477 21.6235 8.57777 21.6345 8.66243L21.6722 8.64543C21.7105 8.7161 21.7448 8.7891 21.7878 8.85677C21.8238 8.91377 21.8745 8.96143 21.9098 9.01843C21.98 9.128 22.0444 9.24116 22.1028 9.35744C22.1345 9.4241 22.1078 9.5241 22.2265 9.52977C22.2415 9.52977 22.2572 9.5781 22.2665 9.6061C22.2998 9.69943 22.2628 9.82343 22.3928 9.8751C22.4028 9.8791 22.3962 9.97743 22.3825 9.98143C22.2642 10.0148 22.2925 10.1148 22.2848 10.1924C22.2715 10.3258 22.2815 10.4591 22.2602 10.5924C22.2468 10.6718 22.1915 10.7441 22.1578 10.8208C22.142 10.8532 22.1316 10.888 22.1268 10.9238C22.1148 11.0618 22.1075 11.2001 22.0982 11.3381C22.0908 11.4474 22.1078 11.5634 21.9882 11.6348C21.9665 11.6478 21.9655 11.7014 21.9628 11.7381C21.9522 11.8761 21.9502 12.0151 21.9332 12.1524C21.9268 12.2008 21.8858 12.2448 21.8622 12.2914C21.8399 12.3249 21.8236 12.3618 21.8138 12.4008C21.7982 12.5541 21.7925 12.7084 21.7778 12.8618C21.7685 12.9618 21.8022 13.0738 21.6715 13.1368C21.6382 13.1528 21.6322 13.2428 21.6285 13.2994C21.6188 13.4378 21.6215 13.5764 21.6122 13.7148C21.6068 13.7938 21.6305 13.8888 21.5122 13.9248C21.4895 13.9318 21.4788 13.9988 21.4745 14.0391C21.4638 14.1931 21.4618 14.3478 21.4505 14.5014C21.4442 14.5858 21.4698 14.6878 21.3432 14.7218C21.3222 14.7274 21.3098 14.7931 21.3062 14.8321C21.2972 14.9754 21.2955 15.1194 21.2885 15.2631C21.2838 15.3658 21.3088 15.4808 21.1708 15.5298C21.1515 15.5368 21.1435 15.5941 21.1418 15.6298C21.1355 15.7468 21.1385 15.8631 21.1298 15.9811C21.1235 16.0678 21.1632 16.1811 21.0215 16.2084C21.0045 16.2118 20.9908 16.2714 20.9882 16.3058C20.9795 16.4548 20.9758 16.6038 20.9705 16.7528C20.9685 16.8061 20.9878 16.8841 20.9602 16.9084C20.8378 17.0154 20.8072 17.1491 20.7985 17.2994C20.7985 17.3121 20.7245 17.3298 20.6852 17.3298C20.2268 17.3321 19.7685 17.3298 19.3101 17.3334C19.2141 17.3334 19.1768 17.3038 19.1791 17.2054C19.1815 17.1071 19.2008 16.9988 19.0601 16.9641C19.0425 16.9598 19.0358 16.8888 19.0338 16.8484C19.0251 16.6728 19.0221 16.4971 19.0128 16.3214C19.0108 16.2814 18.9981 16.2118 18.9795 16.2081C18.8375 16.1801 18.8735 16.0691 18.8675 15.9818C18.8588 15.8544 18.8705 15.7244 18.8511 15.5991C18.8395 15.5234 18.7845 15.4548 18.7511 15.3821C18.7317 15.3473 18.7183 15.3094 18.7115 15.2701C18.7031 15.1478 18.7051 15.0251 18.6978 14.9034C18.6928 14.8184 18.7185 14.7184 18.5921 14.6844C18.5705 14.6788 18.5588 14.6121 18.5545 14.5724C18.5451 14.4291 18.5465 14.2848 18.5341 14.1418C18.5258 14.0474 18.5548 13.9334 18.4231 13.8858C18.4035 13.8784 18.3958 13.8211 18.3931 13.7858C18.3835 13.6421 18.3818 13.4981 18.3691 13.3551C18.3601 13.2551 18.3858 13.1368 18.2565 13.0804C18.2385 13.0724 18.2335 13.0244 18.2315 12.9944C18.2241 12.8944 18.2275 12.7914 18.2145 12.6911C18.1945 12.5381 18.2111 12.3911 18.0931 12.2408C18.0035 12.1251 18.0551 11.9024 18.0371 11.7278C18.0271 11.6331 18.0531 11.5214 17.9305 11.4658C17.9091 11.4558 17.9018 11.3991 17.8988 11.3658C17.8895 11.2438 17.8945 11.1194 17.8745 10.9991C17.8621 10.9248 17.8108 10.8574 17.7841 10.7841C17.7608 10.7257 17.7454 10.6645 17.7381 10.6021C17.7248 10.4534 17.7275 10.3021 17.7088 10.1558C17.7015 10.0988 17.6485 10.0488 17.6268 9.99143C17.6097 9.95275 17.606 9.90948 17.6161 9.86843C17.6465 9.79705 17.6832 9.72855 17.7258 9.66377C17.7568 9.61244 17.7948 9.56544 17.8278 9.5151C17.8478 9.48757 17.864 9.45754 17.8761 9.42577C17.9045 9.3361 17.9208 9.2621 18.0095 9.1841C18.1335 9.07577 18.1855 8.8911 18.2805 8.71377Z" fill="#9E9E9E"/>
<path d="M29.0602 28.5953C29.1205 28.6287 29.1795 28.665 29.2412 28.6953C29.3098 28.7287 29.3972 28.7097 29.4352 28.8243C29.4542 28.8807 29.5742 28.9067 29.6458 28.9687C29.7738 29.08 29.9592 29.124 30.1192 29.1997C30.16 29.2219 30.1979 29.249 30.2322 29.2803C30.2428 29.289 30.2418 29.3163 30.2525 29.3213C30.4052 29.3907 30.5592 29.4577 30.7112 29.5247C30.7595 29.658 30.7595 29.658 31.0335 29.6913C31.0438 29.7313 31.0548 29.7753 31.0668 29.823L31.3452 29.8563C31.3572 29.9013 31.3692 29.945 31.3815 29.9897L31.5282 30.005C31.5948 30.1417 31.5948 30.1417 31.8542 30.1717C31.8668 30.2133 31.8805 30.2573 31.8922 30.296C32.0105 30.3447 32.1922 30.26 32.1985 30.4113C32.3232 30.4947 32.4102 30.56 32.5038 30.614C32.6525 30.7 32.8058 30.7783 32.9568 30.8657C33.016 30.9046 33.0777 30.9396 33.1415 30.9703C33.2185 31.0037 33.2972 30.995 33.3415 31.1067C33.3728 31.1837 33.5038 31.224 33.5955 31.2703C33.6872 31.3167 33.8252 31.28 33.8452 31.437C33.8452 31.4477 33.9025 31.4503 33.9328 31.4583C34.0168 31.4807 34.1328 31.4437 34.1502 31.5893C34.1502 31.6047 34.2262 31.6063 34.2608 31.625C34.3245 31.6583 34.3818 31.7053 34.4452 31.7403C34.4975 31.769 34.5548 31.7887 34.6265 31.8193C34.6315 31.8397 34.6412 31.8797 34.6542 31.9313L34.9318 31.962L34.9675 32.0953L35.2485 32.1287C35.2585 32.1717 35.2675 32.2117 35.2762 32.25C35.4095 32.314 35.5428 32.376 35.6732 32.4413C35.7057 32.4603 35.7363 32.4827 35.7642 32.508C35.7975 32.534 35.8268 32.562 35.8585 32.5887C35.9285 32.648 36.0175 32.6947 36.0648 32.7683C36.1438 32.8903 36.1908 33.0323 36.2615 33.1603C36.3012 33.2323 36.3738 33.2867 36.4092 33.3603C36.4445 33.434 36.4092 33.5463 36.5362 33.571C36.5558 33.5747 36.5622 33.631 36.5812 33.6587C36.6046 33.6911 36.6303 33.7219 36.6582 33.7507C36.6802 33.775 36.7035 33.798 36.7248 33.8213C36.6958 33.8443 36.6698 33.8807 36.6375 33.888C36.5745 33.8979 36.5106 33.9015 36.4468 33.8987C34.6931 33.8987 32.9394 33.8987 31.1858 33.8987C31.0695 33.8987 30.9385 33.9387 30.8835 33.753C30.8575 33.6657 30.7238 33.6123 30.6442 33.5383C30.5645 33.4643 30.4968 33.3913 30.4262 33.315C30.3555 33.2387 30.2858 33.15 30.2112 33.0717C30.1212 32.977 30.0282 32.8843 29.9325 32.7957C29.8502 32.7197 29.7612 32.651 29.6768 32.5777C29.613 32.5254 29.552 32.4698 29.4942 32.411C29.4185 32.3287 29.3538 32.236 29.2758 32.156C29.2425 32.1227 29.1788 32.1227 29.1488 32.0893C29.0758 32.007 29.0155 31.9123 28.9488 31.8263C28.896 31.7581 28.8377 31.6943 28.7745 31.6357C28.6948 31.5643 28.6035 31.5067 28.5228 31.4357C28.4498 31.373 28.3838 31.3023 28.3155 31.2357C28.2215 31.1417 28.1262 31.049 28.0355 30.952C27.9605 30.8723 27.8952 30.7837 27.8192 30.7057C27.7432 30.6277 27.6525 30.5503 27.5668 30.4747C27.5562 30.465 27.5275 30.4677 27.5248 30.459C27.4962 30.3697 27.4355 30.333 27.3518 30.2877C27.2682 30.2423 27.2245 30.1113 27.1518 30.027C27.1283 30.0067 27.0988 29.9944 27.0678 29.992L26.8528 29.7637C26.8528 29.6477 26.5502 29.6123 26.7118 29.3683C26.7765 29.3077 26.9972 29.4507 27.0042 29.2197C27.1282 29.1793 27.2512 29.2083 27.3412 29.0573C27.4045 28.9513 27.5965 28.9263 27.7238 28.853C27.8142 28.801 27.9298 28.745 27.9665 28.661C28.0095 28.5633 28.0815 28.5687 28.1458 28.5333C28.1921 28.5026 28.2367 28.4692 28.2792 28.4333C28.3102 28.4113 28.3435 28.3787 28.3772 28.3767C28.5028 28.37 28.6292 28.374 28.7578 28.374C28.7742 28.428 28.7858 28.4673 28.8002 28.515L29.0618 28.5557L29.0602 28.5953Z" fill="#9E9E9E"/>
<path d="M3.38821 33.6917C3.43488 33.6427 3.48355 33.5953 3.52788 33.5443C3.5474 33.5213 3.56193 33.4946 3.57055 33.4657C3.59755 33.3727 3.56655 33.2467 3.71855 33.2267C3.73055 33.2267 3.73121 33.16 3.74221 33.1267C3.76621 33.0513 3.75955 32.973 3.86455 32.9267C3.93855 32.8933 3.95255 32.7723 4.03555 32.6997C4.16688 32.5847 4.26121 32.433 4.45721 32.4177C4.48355 32.4157 4.50921 32.3893 4.53221 32.371C4.58578 32.3202 4.65068 32.283 4.72155 32.2623L4.75488 32.129L5.02955 32.1013L5.06655 31.968L5.34821 31.9347L5.37488 31.8197L5.82421 31.5863L5.82188 31.5723C5.89055 31.539 5.95521 31.492 6.02888 31.4723C6.10255 31.4527 6.18255 31.4663 6.18621 31.3577C6.18767 31.3501 6.19083 31.3429 6.19545 31.3368C6.20007 31.3306 6.20603 31.3255 6.21288 31.322C6.34621 31.2597 6.48254 31.2 6.61688 31.1383C6.63954 31.128 6.67821 31.1123 6.67821 31.0987C6.68121 30.972 6.79188 31.0143 6.85355 30.981C6.91521 30.9477 6.97988 30.9107 7.04321 30.8753L7.02321 30.8373L7.28988 30.7887L7.27321 30.7593C7.32921 30.7227 7.41188 30.6987 7.43621 30.647C7.51988 30.4713 7.78121 30.565 7.84555 30.3643C7.85321 30.3403 7.92888 30.334 7.97421 30.3273C8.11221 30.307 8.11221 30.3087 8.15654 30.175C8.27154 30.1507 8.42654 30.1987 8.47454 30.0193C8.47921 30.0007 8.56188 30.0027 8.60788 29.995L8.59055 29.9527C8.66621 29.915 8.74221 29.878 8.81721 29.8393C8.87388 29.8103 8.92921 29.7793 8.98388 29.7493L8.96221 29.6993C9.02954 29.6926 9.09635 29.6815 9.16221 29.666C9.20021 29.6547 9.23121 29.6197 9.26421 29.5937C9.29721 29.5677 9.31821 29.5443 9.34721 29.5223C9.38521 29.4933 9.42521 29.4667 9.46455 29.4397C9.49512 29.4136 9.52869 29.3912 9.56455 29.373C9.65021 29.3397 9.77554 29.375 9.79221 29.228C9.79221 29.2167 9.84854 29.212 9.87854 29.2033C9.96321 29.179 10.0785 29.2067 10.0955 29.0673C10.0972 29.0543 10.1375 29.0413 10.1622 29.036C10.2622 29.0147 10.3445 29.001 10.4209 28.8967C10.4932 28.7967 10.6519 28.7633 10.7712 28.6967C10.8308 28.6665 10.8848 28.6264 10.9309 28.578C11.1999 28.5043 11.1999 28.5043 11.2439 28.3713H11.6795L11.6622 28.4143C11.7329 28.4553 11.8059 28.493 11.8732 28.539C11.9275 28.576 11.9732 28.6277 12.0269 28.664C12.1302 28.733 12.2385 28.7943 12.3432 28.8613C12.4002 28.898 12.4525 28.942 12.5099 28.978C12.6282 29.052 12.7482 29.1237 12.8685 29.1947C12.9282 29.228 12.9905 29.2613 13.0515 29.2947C13.0455 29.309 13.0395 29.323 13.0339 29.3373L13.3132 29.3753V29.5867L13.1229 29.7893C13.0455 29.8227 12.9609 29.8463 12.9895 29.931C12.9102 30.0057 12.8542 30.058 12.7732 30.1337C12.7378 30.1796 12.6993 30.2231 12.6582 30.264C12.5785 30.3377 12.4915 30.4037 12.4099 30.475C12.3342 30.5417 12.2585 30.6083 12.1865 30.6777C12.0892 30.772 11.9915 30.867 11.9009 30.9677C11.8245 31.052 11.7642 31.1517 11.6839 31.232C11.6225 31.293 11.5449 31.3227 11.4999 31.418C11.4605 31.502 11.3332 31.54 11.2575 31.6133C11.182 31.6957 11.1121 31.783 11.0482 31.8747C11.0359 31.8907 11.0329 31.9207 11.0185 31.9267C10.8682 31.9883 10.7852 32.1147 10.6825 32.2327C10.5615 32.3727 10.3929 32.4703 10.2565 32.5993C10.1762 32.675 10.1259 32.7813 10.0489 32.8617C9.97188 32.942 9.88421 32.9973 9.80321 33.067C9.73485 33.1228 9.67006 33.1828 9.60921 33.2467C9.48455 33.3847 9.37588 33.5383 9.24088 33.665C9.10588 33.7917 8.98955 33.9123 8.75521 33.9097C7.03921 33.8923 5.32188 33.9003 3.60621 33.9C3.54235 33.9035 3.47831 33.9012 3.41488 33.893C3.36504 33.8785 3.31696 33.8585 3.27155 33.8333L3.38855 33.7207L3.38821 33.6917Z" fill="#9E9E9E"/>
<path d="M25.0124 30.1909L25.1731 30.3459L25.1664 30.3483L25.3094 30.5149C25.3664 30.5739 25.4137 30.6236 25.4621 30.6726C25.4727 30.6836 25.4981 30.6939 25.4954 30.7009C25.4621 30.8789 25.6094 31.0146 25.6981 31.0703C25.8594 31.1703 25.8097 31.3873 25.9841 31.4633C26.0461 31.4903 26.0741 31.5946 26.1174 31.6633L26.1527 31.6443C26.2314 31.7826 26.3104 31.9206 26.4044 32.0856L26.5377 32.2266L26.5114 32.2599L26.6527 32.2903C26.6357 32.5326 26.8194 32.6399 26.9311 32.7903C26.9907 32.8479 27.0444 32.8953 27.0924 32.9479C27.1142 32.9737 27.13 33.004 27.1387 33.0366C27.1634 33.1219 27.1347 33.2346 27.2771 33.2526C27.2987 33.2553 27.3104 33.3429 27.3297 33.4036L27.4504 33.4336C27.4567 33.6063 27.7287 33.6669 27.6111 33.8956H23.3641C23.1014 33.8933 23.1017 33.8933 23.0937 33.6319C23.0938 33.5361 23.089 33.4403 23.0794 33.3449C23.0744 33.3066 23.0374 33.2726 23.0147 33.2366C22.9921 33.2006 22.9481 33.1593 22.9421 33.1169C22.9284 33.0169 22.9364 32.9146 22.9264 32.8139C22.9171 32.7226 22.9597 32.6019 22.8064 32.5763C22.7914 32.5736 22.7801 32.5129 22.7774 32.4786C22.7701 32.3723 22.7801 32.2633 22.7594 32.1603C22.7444 32.0866 22.6884 32.0216 22.6554 31.9509C22.6369 31.9107 22.6229 31.8686 22.6137 31.8253C22.5804 31.6753 22.6607 31.4993 22.4804 31.3809C22.4354 31.3513 22.4561 31.2203 22.4491 31.1356C22.4434 31.0669 22.4431 30.9973 22.4374 30.9283C22.4307 30.8449 22.4561 30.8009 22.5504 30.7969C22.6447 30.7929 22.7361 30.8089 22.7961 30.6969C22.8164 30.6583 22.9217 30.6573 22.9894 30.6523C23.1167 30.6429 23.2451 30.6479 23.3724 30.6369C23.4511 30.6303 23.5391 30.6479 23.5857 30.5369C23.6001 30.5036 23.6984 30.4983 23.7594 30.4896C23.8927 30.4706 24.0241 30.4999 24.1467 30.3743C24.2157 30.3039 24.3887 30.3373 24.5134 30.3189C24.5984 30.3066 24.6974 30.3429 24.7397 30.2019C24.7524 30.1596 24.9181 30.1629 25.0137 30.1453L25.0124 30.1909Z" fill="#9E9E9E"/>
<path d="M12.3303 33.8945L12.5796 33.4375C12.8129 33.2975 12.8489 32.9889 13.0543 32.8022L13.0246 32.7755L13.1456 32.7422C13.2293 32.5945 13.3066 32.4569 13.3843 32.3195L13.3539 32.2922L13.4873 32.2589L13.4639 32.2345L13.6153 32.0592C13.6819 31.9735 13.6323 31.8355 13.8006 31.7699C13.8886 31.7365 13.9136 31.5635 14.0006 31.4912C14.1046 31.4029 14.1339 31.2969 14.1823 31.1809C14.2193 31.0899 14.3333 31.0312 14.4103 30.9549C14.4351 30.9308 14.4539 30.9012 14.4653 30.8685C14.4946 30.7775 14.4899 30.6795 14.6159 30.6352C14.6756 30.6142 14.7053 30.5089 14.7679 30.4462L14.9893 30.1619H15.2609C15.2709 30.3189 15.3849 30.3132 15.4979 30.3182C15.6109 30.3232 15.7579 30.2962 15.8223 30.3562C15.9819 30.5055 16.1669 30.4702 16.3459 30.4972C16.3793 30.5019 16.4059 30.5305 16.4366 30.5495C16.4833 30.5759 16.5289 30.6179 16.5783 30.6235C16.7099 30.6395 16.8449 30.6355 16.9766 30.6472C17.0813 30.6565 17.1979 30.6275 17.2669 30.7595C17.2849 30.7929 17.3843 30.7929 17.4463 30.7929C17.5463 30.7929 17.5763 30.8389 17.5689 30.9312C17.5599 31.0425 17.5589 31.1545 17.5513 31.2645C17.5486 31.3065 17.5493 31.3739 17.5263 31.3852C17.3399 31.4769 17.4159 31.6489 17.3929 31.7899C17.3823 31.8565 17.4086 31.9305 17.3083 31.9719C17.2676 31.9885 17.2523 32.0909 17.2439 32.1565C17.2309 32.2619 17.2343 32.3692 17.2283 32.4755C17.2266 32.5069 17.2243 32.5615 17.2116 32.5649C17.0099 32.6189 17.0953 32.7859 17.0783 32.9069C17.0643 33.0069 17.0753 33.1069 17.0753 33.2152C16.9263 33.2322 16.9183 33.3272 16.9133 33.4345C16.8916 33.8905 16.8896 33.8905 16.4356 33.8905H12.3303V33.8945Z" fill="#9E9E9E"/>
<path d="M23.5432 17.7976C23.3642 17.7976 23.1839 17.7976 23.0036 17.7976C22.9806 17.7976 22.9396 17.7823 22.9369 17.7686C22.9122 17.6279 22.7979 17.6603 22.7109 17.6519C22.5626 17.6379 22.4136 17.6346 22.2646 17.6276C22.1769 17.6236 22.1259 17.5859 22.1272 17.4916C22.1292 17.3606 22.0776 17.2219 22.2422 17.1303C22.2846 17.1066 22.2682 16.9816 22.2836 16.9039C22.3022 16.8099 22.2536 16.6889 22.4049 16.6446C22.4346 16.6359 22.4332 16.5206 22.4459 16.4546C22.4669 16.3473 22.3959 16.2069 22.5736 16.1546C22.6026 16.1459 22.5939 16.0173 22.6069 15.9446C22.6239 15.8446 22.5672 15.7176 22.7316 15.6756C22.7592 15.6686 22.7512 15.5486 22.7732 15.4856C22.7909 15.4346 22.8339 15.3926 22.8569 15.3429C22.8876 15.2808 22.9116 15.2155 22.9282 15.1483C22.9502 15.0483 22.9026 14.9343 23.0542 14.8729C23.1029 14.8533 23.0932 14.6899 23.1446 14.6083C23.1806 14.5319 23.2299 14.4589 23.2492 14.3786C23.2676 14.3036 23.2456 14.2269 23.3609 14.2023C23.3909 14.1959 23.3999 14.0736 23.4119 14.0023C23.4289 13.9023 23.3966 13.7846 23.5403 13.7416C23.5623 13.7346 23.5643 13.6586 23.5736 13.6139C23.5916 13.5333 23.5546 13.4209 23.6936 13.4099C23.7043 13.4099 23.7183 13.3893 23.7226 13.3766C23.7846 13.1816 23.8446 12.9863 23.9063 12.7913C23.9223 12.7399 23.9396 12.6896 23.9636 12.6229C24.0919 12.7606 24.2566 12.8229 24.2576 13.0319C24.2576 13.0859 24.3803 13.1633 24.4176 13.2633C24.4549 13.3633 24.5379 13.4496 24.6009 13.5419L24.5656 13.5733L24.6836 13.6046C24.7526 13.7169 24.6393 13.9076 24.8566 13.9173C24.8999 14.0336 24.8333 14.2006 25.0233 14.2396C25.0399 14.2429 25.0403 14.3269 25.0503 14.3849L25.1806 14.4136C25.1916 14.5049 25.2019 14.5889 25.2123 14.6726C25.3969 14.7623 25.3916 14.7703 25.2616 14.9343C25.2096 15.0009 25.1999 15.0986 25.1663 15.1959L25.0586 15.2249C25.0053 15.3333 25.1029 15.5249 24.8943 15.5366C24.8143 15.6896 24.7396 15.8323 24.6646 15.9749L24.6979 16.0039L24.5699 16.0303C24.5293 16.1516 24.5219 16.2573 24.4176 16.3619C24.3366 16.4433 24.1739 16.5499 24.2056 16.7309C24.2096 16.7553 24.1643 16.7903 24.1389 16.8169C24.1296 16.8269 24.1019 16.8219 24.0956 16.8319C24.0291 16.9294 23.9677 17.0302 23.9116 17.1339C23.8726 17.2106 23.9039 17.3299 23.7666 17.3423C23.7539 17.3423 23.7473 17.4073 23.7376 17.4423C23.7156 17.5189 23.7306 17.6113 23.6146 17.6406C23.5829 17.6473 23.5706 17.7333 23.5432 17.7976Z" fill="#9E9E9E"/>
<path d="M15.4458 16.0335C15.3125 16.0038 15.3125 16.0038 15.2321 15.7465C15.1965 15.6911 15.1735 15.6155 15.1228 15.5851C14.9831 15.5005 14.9618 15.3681 14.9345 15.2291C14.9305 15.2085 14.8598 15.2008 14.8531 15.1625C14.7945 15.0711 14.7415 14.9751 14.6751 14.8895C14.6088 14.8038 14.6418 14.7325 14.7891 14.6831C14.7995 14.5975 14.8105 14.5085 14.8225 14.4141L14.9368 14.3841L15.1701 13.9508L15.1348 13.9205L15.2725 13.8828C15.2835 13.7941 15.2945 13.7055 15.3058 13.6065L15.4361 13.5731L15.3998 13.5414C15.4628 13.4494 15.5315 13.3608 15.5875 13.2644C15.6725 13.1184 15.7488 12.9674 15.8461 12.7861C15.8854 12.7432 15.9286 12.704 15.9751 12.6691C15.9925 12.6571 16.0635 12.6824 16.0695 12.7024C16.0918 12.7781 16.0885 12.8614 16.1121 12.9358C16.1288 12.9884 16.1731 13.0324 16.2051 13.0801C16.2218 13.1051 16.2495 13.1274 16.2545 13.1544C16.2761 13.2661 16.2938 13.3571 16.3825 13.4618C16.5015 13.6031 16.5258 13.8251 16.5881 14.0135C16.6151 14.0951 16.5711 14.2108 16.7158 14.2348C16.7381 14.2388 16.7465 14.3458 16.7558 14.4061C16.7651 14.4665 16.7451 14.5435 16.8501 14.5611C16.8768 14.5655 16.8945 14.6525 16.9071 14.7035C16.9271 14.7838 16.8848 14.8891 17.0235 14.9148C17.0495 14.9195 17.0625 15.0231 17.0725 15.0815C17.0905 15.1885 17.0418 15.3178 17.2058 15.3695C17.2358 15.3791 17.2241 15.4968 17.2461 15.5598C17.2638 15.6101 17.3045 15.6521 17.3335 15.6988C17.3576 15.7283 17.3757 15.7623 17.3868 15.7988C17.3991 15.8881 17.3991 15.9791 17.4068 16.0695C17.4091 16.1005 17.4151 16.1555 17.4265 16.1575C17.6158 16.1908 17.5388 16.3415 17.5598 16.4475C17.5781 16.5388 17.5368 16.6508 17.6825 16.6905C17.7128 16.6988 17.7095 16.8238 17.7235 16.8968C17.7435 16.9968 17.7191 17.0968 17.8311 17.1898C17.8978 17.2445 17.8731 17.4271 17.8585 17.5485C17.8541 17.5838 17.7441 17.6231 17.6791 17.6308C17.5315 17.6481 17.3815 17.6465 17.2328 17.6541C17.1956 17.6513 17.1582 17.657 17.1235 17.6708C16.8865 17.8158 16.8015 17.8335 16.4625 17.7965C16.3831 17.6505 16.3039 17.5046 16.2248 17.3588L16.2155 17.3615C16.1795 17.2995 16.1308 17.2411 16.1101 17.1745C16.0828 17.0858 16.0198 17.0368 15.9648 16.9711C15.8615 16.8475 15.8038 16.6855 15.7338 16.5521C15.6105 16.3868 15.4215 16.2791 15.4458 16.0335Z" fill="#9E9E9E"/>
<path d="M31.0282 28.2126C30.7615 28.1919 30.7615 28.1919 30.7185 28.0539C30.6742 28.0503 30.6269 28.0469 30.5799 28.0426C30.5329 28.0383 30.4855 28.0333 30.4309 28.0276C30.4179 27.9826 30.4055 27.9386 30.3925 27.8943C30.3159 27.8873 30.2472 27.8833 30.1789 27.8746C30.1492 27.8709 30.0972 27.8606 30.0955 27.8479C30.0752 27.6993 29.9559 27.7383 29.8659 27.7146C29.8202 27.7029 29.7852 27.6553 29.7409 27.6333C29.6805 27.6029 29.6149 27.5833 29.5529 27.5559C29.5102 27.5369 29.4335 27.5096 29.4352 27.4913C29.4415 27.4119 29.4502 27.3179 29.4969 27.2606C29.5802 27.1573 29.6939 27.0829 29.7635 26.9606C29.8129 26.8723 29.9049 26.8083 29.9769 26.7329C30.0082 26.7044 30.036 26.6722 30.0595 26.6369C30.1059 26.5556 30.0629 26.4156 30.2212 26.4036C30.2379 26.4036 30.2489 26.3199 30.2635 26.2703C30.5032 26.2703 30.7455 26.2703 30.9882 26.2703C31.0025 26.2703 31.0282 26.2799 31.0299 26.2889C31.0632 26.4666 31.2072 26.3979 31.3099 26.4133C31.4555 26.4353 31.6129 26.3923 31.7229 26.5543C31.7529 26.5983 31.8842 26.5703 31.9679 26.5819C32.0612 26.5953 32.1679 26.5623 32.2239 26.6943C32.2389 26.7306 32.3505 26.7209 32.4125 26.7459C32.4527 26.7673 32.4876 26.7972 32.5149 26.8336C32.5344 26.8621 32.5517 26.8921 32.5665 26.9233C32.6035 26.9806 32.6442 27.0356 32.6792 27.0943C32.7142 27.1529 32.7459 27.2173 32.7769 27.2789L32.8232 27.2593C32.8355 27.3479 32.8475 27.4366 32.8602 27.5296L32.9899 27.5679C32.9955 27.6116 33.0019 27.6579 33.0055 27.6859C33.0609 27.7379 33.1219 27.7726 33.1459 27.8243C33.1735 27.8836 33.1682 27.9576 33.1792 28.0326L33.2952 28.0589C33.3742 28.1589 33.2315 28.3703 33.4179 28.3706C33.4939 28.4593 33.5469 28.5136 33.5902 28.5746C33.6122 28.6151 33.6308 28.6574 33.6459 28.7009C33.6768 28.7713 33.7184 28.8365 33.7692 28.8943C33.8279 28.9983 33.7922 29.1233 33.9439 29.2066C34.0439 29.2606 34.0835 29.4253 34.1379 29.5463C34.1502 29.5733 34.1179 29.6479 34.0912 29.6573C34.0579 29.6689 33.9782 29.6443 33.9715 29.6203C33.9382 29.5043 33.8425 29.5236 33.7645 29.5103C33.6619 29.4929 33.5502 29.5059 33.4979 29.3789C33.4892 29.3579 33.4335 29.3559 33.3979 29.3456C33.3102 29.3183 33.1855 29.3606 33.1589 29.2146C33.1565 29.2013 33.1035 29.1973 33.0739 29.1886C32.9819 29.1616 32.8549 29.2049 32.8239 29.0526C32.8199 29.0333 32.7382 29.0306 32.6932 29.0193C32.6189 28.9993 32.5112 29.0319 32.5042 28.9009C32.5042 28.8909 32.4819 28.8746 32.4689 28.8733C32.3312 28.8589 32.2132 28.8273 32.1022 28.7209C32.0312 28.6543 31.9052 28.6543 31.8022 28.5783C31.6415 28.4589 31.4145 28.4309 31.2175 28.3583C31.1516 28.3295 31.0878 28.2961 31.0265 28.2583L31.0282 28.2126Z" fill="#9E9E9E"/>
<path d="M6.7044 28.0604L6.83107 28.033C6.83116 27.9895 6.8345 27.9461 6.84107 27.903C6.85774 27.832 6.83674 27.739 6.9584 27.7254C6.9844 27.7227 7.00074 27.6317 7.02774 27.5657L7.14507 27.5304C7.15507 27.4417 7.16474 27.3577 7.1754 27.2637L7.30874 27.2234C7.31307 27.205 7.3184 27.185 7.32174 27.165C7.33674 27.0694 7.31807 26.963 7.44707 26.9154C7.4804 26.9024 7.4894 26.818 7.51374 26.7574C7.6324 26.7337 7.76274 26.7447 7.86474 26.615C7.90974 26.5577 8.0674 26.5954 8.17107 26.575C8.2294 26.5634 8.27974 26.5177 8.33774 26.4934C8.39782 26.4628 8.46172 26.4404 8.52774 26.4267C8.63274 26.4124 8.74007 26.4157 8.84607 26.409C8.87707 26.407 8.9314 26.4007 8.93374 26.388C8.9704 26.2117 9.11274 26.27 9.21674 26.264C9.3904 26.254 9.56507 26.2614 9.7444 26.2614C9.77107 26.344 9.7444 26.4717 9.88907 26.426C9.9404 26.55 9.9074 26.683 10.0607 26.756C10.1484 26.798 10.1811 26.9447 10.2554 27.0297C10.3297 27.1147 10.4357 27.1704 10.5051 27.2574C10.5511 27.3154 10.5657 27.4044 10.5741 27.482C10.5764 27.5024 10.5074 27.54 10.4644 27.5544C10.3827 27.582 10.2644 27.5357 10.2434 27.68C10.2411 27.6967 10.1837 27.709 10.1507 27.717C10.0577 27.7394 9.92974 27.6837 9.90174 27.847C9.89807 27.868 9.79607 27.8664 9.74374 27.886C9.68053 27.9132 9.61878 27.9435 9.55874 27.977C9.56507 27.994 9.57174 28.0104 9.57807 28.0287L9.28507 28.055C9.27374 28.098 9.26207 28.1417 9.25007 28.1884C9.1744 28.1954 9.10607 28.2014 9.03807 28.2084C9.01207 28.2114 8.9674 28.2107 8.96374 28.222C8.90874 28.3964 8.75707 28.3484 8.63474 28.3764C8.58007 28.3887 8.53474 28.44 8.4834 28.4717C8.45326 28.4951 8.41948 28.5133 8.3834 28.5257C8.28907 28.5467 8.17674 28.5257 8.13907 28.659C8.13374 28.6774 8.07474 28.6817 8.03907 28.6904C7.9524 28.7121 7.84207 28.684 7.80574 28.8144C7.80074 28.8344 7.7324 28.836 7.6944 28.8477C7.6134 28.8754 7.48874 28.8254 7.47307 28.9734C7.47307 28.9864 7.4324 28.9994 7.40874 29.0067C7.30874 29.035 7.16607 28.9824 7.13374 29.1497C7.13107 29.162 7.0754 29.1617 7.04607 29.1717C6.9604 29.2007 6.83174 29.1517 6.81107 29.2997C6.81107 29.3037 6.8044 29.3084 6.79974 29.3097C6.61107 29.3764 6.42107 29.4404 6.23474 29.5131C6.1634 29.5411 6.1014 29.5934 6.03274 29.6277C5.99429 29.6503 5.9499 29.6608 5.9054 29.6577C5.8854 29.6537 5.8574 29.5824 5.86807 29.5554C5.90022 29.4891 5.93791 29.4257 5.98074 29.3657C6.04907 29.256 6.1244 29.1497 6.18274 29.035C6.21807 28.9654 6.19207 28.8594 6.31607 28.8511C6.32974 28.8511 6.34574 28.8007 6.35107 28.772C6.36329 28.6816 6.40625 28.5982 6.47274 28.5357C6.58907 28.421 6.64874 28.2484 6.7324 28.1004L6.7044 28.0604Z" fill="#9E9E9E"/>
<path d="M21.4742 33.885H18.5556C18.5709 33.7647 18.4936 33.6317 18.6616 33.5667C18.6829 33.5584 18.6949 33.504 18.6949 33.47C18.7022 33.3744 18.7006 33.278 18.7072 33.1827C18.7156 33.0674 18.6759 32.9417 18.8122 32.8574C18.8499 32.834 18.8516 32.7404 18.8559 32.6777C18.8652 32.5504 18.8619 32.422 18.8699 32.2944C18.8749 32.211 18.8459 32.1067 18.9802 32.0844C18.9966 32.0814 19.0112 32.0217 19.0136 31.9877C19.0219 31.8334 19.0219 31.6787 19.0319 31.5247C19.0379 31.432 19.0072 31.3327 19.1426 31.2747C19.1906 31.254 19.1819 31.102 19.2022 30.993H20.8079C20.8136 31.0597 20.8172 31.128 20.8256 31.195C20.8292 31.225 20.8376 31.2764 20.8522 31.2797C21.0089 31.313 20.9636 31.4384 20.9702 31.5357C20.9786 31.663 20.9739 31.7914 20.9819 31.919C20.9869 31.9984 20.9652 32.0967 21.0916 32.116C21.1076 32.1187 21.1249 32.1767 21.1249 32.21C21.1329 32.359 21.1332 32.51 21.1412 32.6574C21.1469 32.7574 21.1159 32.8764 21.2592 32.9217C21.2776 32.9277 21.2859 32.986 21.2879 33.0217C21.2952 33.155 21.2979 33.2884 21.3029 33.4217C21.3056 33.495 21.3146 33.5474 21.3916 33.603C21.4522 33.6437 21.4466 33.775 21.4742 33.885Z" fill="#9E9E9E"/>
<path d="M11.8787 19.5375C11.894 19.4582 11.8667 19.3595 11.9967 19.2709C12.101 19.2002 12.1413 19.0335 12.2063 18.9072C12.2227 18.8762 12.2197 18.8072 12.2323 18.8072C12.3927 18.7845 12.3543 18.6499 12.3853 18.5535C12.3999 18.5228 12.4192 18.4945 12.4423 18.4695C12.472 18.4299 12.504 18.3915 12.5323 18.3509C12.544 18.3345 12.5463 18.2992 12.5577 18.2972C12.7417 18.2639 12.6577 18.1009 12.722 17.9899C12.9197 17.9842 12.8317 17.7999 12.8793 17.6772L13.0073 17.6412C13.0127 17.5889 13.0173 17.5412 13.023 17.4859C13.2183 17.4649 13.1607 17.3002 13.1897 17.1769L13.3207 17.1405C13.3243 16.8542 13.5023 17.0099 13.6087 17.0512C13.6644 17.0905 13.7172 17.1337 13.7667 17.1805C13.84 17.2595 13.903 17.3472 13.9733 17.4302C14.04 17.5069 14.1067 17.5805 14.1767 17.6545C14.2767 17.7639 14.38 17.8722 14.4813 17.9812C14.5747 18.0812 14.67 18.1812 14.759 18.2852C14.786 18.3185 14.818 18.3709 14.8077 18.4012C14.7874 18.4732 14.7484 18.5385 14.6947 18.5905C14.658 18.6219 14.5827 18.6075 14.5247 18.6139C14.472 18.6195 14.041 18.8582 13.9973 18.8982C13.9733 18.917 13.9448 18.9292 13.9147 18.9335C13.8177 18.9519 13.7323 18.9639 13.661 19.0629C13.601 19.1462 13.4793 19.1859 13.3827 19.2415C13.302 19.2879 13.1607 19.2392 13.146 19.3942C13.146 19.4042 13.088 19.4062 13.059 19.4172C12.976 19.4505 12.8773 19.4172 12.829 19.5579C12.799 19.6439 12.6457 19.7119 12.5357 19.7385C12.4118 19.7655 12.2833 19.7622 12.161 19.7289C12.0667 19.7035 11.9923 19.6175 11.8787 19.5375Z" fill="#9E9E9E"/>
<path d="M26.9813 17.4843C26.987 17.54 26.992 17.587 26.9977 17.6407L27.1143 17.6703C27.199 17.7663 27.053 17.9827 27.2943 17.979C27.2987 18.0449 27.3087 18.1102 27.3243 18.1743C27.3377 18.2153 27.3767 18.2483 27.4057 18.2833C27.4263 18.3087 27.4507 18.3307 27.4723 18.356C27.4777 18.3627 27.4723 18.3843 27.4753 18.3863C27.6607 18.4653 27.582 18.735 27.7847 18.824C27.816 18.9167 27.7877 19.04 27.933 19.124C28.029 19.1803 28.0697 19.342 28.1167 19.4637C28.1277 19.4923 28.0677 19.5527 28.033 19.5924C28.0183 19.609 27.9693 19.6017 27.962 19.6177C27.862 19.8317 27.6583 19.7743 27.5157 19.743C27.3673 19.7097 27.2403 19.5797 27.1157 19.4727C27.0203 19.404 26.852 19.4727 26.8103 19.289C26.8073 19.2763 26.7503 19.2803 26.7223 19.2687C26.646 19.2353 26.5537 19.253 26.5073 19.1384C26.4777 19.0647 26.3523 19.0613 26.274 18.9933C26.1407 18.8793 25.919 18.8717 25.777 18.7637C25.6187 18.6437 25.4437 18.6303 25.273 18.5747C25.1607 18.5393 25.1827 18.337 25.2824 18.2747C25.361 18.2243 25.4667 18.1587 25.4844 18.082C25.5217 17.92 25.647 17.8307 25.731 17.7103C25.7917 17.623 25.9004 17.5707 25.9777 17.4927C26.055 17.4147 26.111 17.2993 26.2027 17.2377C26.3137 17.162 26.348 17.001 26.5097 16.9843C26.5977 16.9753 26.6624 16.9553 26.6794 17.0797C26.685 17.1227 26.7587 17.1563 26.822 17.213C26.841 17.3 26.7853 17.4637 26.9813 17.4843Z" fill="#9E9E9E"/>
</svg>
