<svg width="20" height="20" viewBox="0 0 20 20" fill="none" xmlns="http://www.w3.org/2000/svg">
<path d="M10.4821 8.82256L10.5201 8.65723L10.5395 8.66656C10.5604 8.63274 10.5793 8.59761 10.5958 8.5614C10.6098 8.52573 10.5958 8.47456 10.6585 8.4714C10.6653 8.4714 10.6735 8.45023 10.6766 8.43806C10.6898 8.38556 10.696 8.34206 10.7503 8.2979C10.8121 8.2479 10.8336 8.1479 10.8788 8.05823C10.9301 8.06156 10.9288 8.00923 10.9401 7.9599C10.9476 7.92656 10.972 7.89673 10.9888 7.86523L11.014 7.8759C11.0196 7.8294 11.0253 7.78306 11.0306 7.73223L11.0885 7.7129L11.209 7.4869L11.2138 7.48456C11.2338 7.44523 11.2603 7.40773 11.2715 7.36606C11.2815 7.32906 11.2823 7.30373 11.3263 7.27923C11.3575 7.26256 11.3581 7.18923 11.3748 7.13273L11.4323 7.11223C11.4526 7.0504 11.4221 6.9664 11.5156 6.94073C11.5243 6.9384 11.5196 6.89873 11.5275 6.87873C11.5418 6.84223 11.52 6.78723 11.5873 6.7739C11.6011 6.77106 11.6011 6.7099 11.6123 6.67723C11.6221 6.6489 11.6396 6.62323 11.6521 6.59573C11.6666 6.5644 11.6905 6.5324 11.6911 6.5004C11.6943 6.30906 11.6937 6.11773 11.6893 5.9264C11.6893 5.89923 11.6583 5.87273 11.6408 5.8464C11.6366 5.84006 11.6258 5.8369 11.6241 5.82973C11.5908 5.7259 11.5575 5.62206 11.5261 5.51773C11.5148 5.4804 11.525 5.4344 11.4655 5.42306C11.4516 5.42023 11.4458 5.36606 11.441 5.33473C11.4353 5.29756 11.441 5.2639 11.391 5.24256C11.3683 5.2329 11.3645 5.17223 11.3576 5.13373C11.348 5.0829 11.3633 5.03106 11.2946 4.99573C11.2655 4.98073 11.2723 4.89573 11.2613 4.83656C11.1733 4.83273 11.1965 4.7614 11.1878 4.70456C11.1798 4.65106 11.2183 4.56873 11.11 4.5759C11.1071 4.52306 11.1051 4.47906 11.1025 4.4349C11.1032 4.4238 11.1012 4.41269 11.0966 4.40256C11.0466 4.33223 11.0001 4.26173 11.0151 4.16923C10.906 4.11923 10.9471 4.01623 10.9318 3.93306C10.9303 3.92506 10.9288 3.9119 10.9243 3.9104C10.823 3.8779 10.8635 3.78906 10.8501 3.72256C10.8428 3.6859 10.8215 3.65856 10.8061 3.62956C10.7748 3.5694 10.7835 3.4884 10.7756 3.41606C10.7956 3.4169 10.8325 3.4144 10.8333 3.41873C10.8456 3.4829 10.8628 3.54006 10.93 3.57106C10.9416 3.57656 10.9391 3.61206 10.9441 3.63773L11.0126 3.65273L11.0001 3.6674L11.0946 3.7674C11.0893 3.8029 11.1163 3.83173 11.178 3.8219C11.1816 3.84906 11.1846 3.87056 11.1875 3.8919L11.2041 3.88206C11.2244 3.91399 11.247 3.9443 11.272 3.97273C11.3121 4.01256 11.3586 4.04606 11.4006 4.0844C11.4426 4.12273 11.4775 4.16106 11.5173 4.19856C11.5645 4.2439 11.6136 4.28706 11.66 4.3334C11.6843 4.35773 11.7018 4.3889 11.7266 4.41306C11.7515 4.43723 11.7766 4.45223 11.8006 4.47723L11.893 4.55756C11.9438 4.5844 12.0191 4.5714 12.0416 4.65906C12.0441 4.66923 12.0865 4.66923 12.1138 4.67456C12.1176 4.69573 12.1215 4.7169 12.1263 4.7429C12.2448 4.74573 12.3175 4.82456 12.3883 4.9079C12.4216 4.91256 12.4536 4.91706 12.4863 4.9219C12.4998 4.9239 12.5241 4.9244 12.5253 4.92956C12.5445 5.01756 12.6253 4.99256 12.6786 5.02006C12.732 5.04756 12.7693 5.09623 12.8156 5.1334C12.8349 5.14764 12.8562 5.15888 12.8788 5.16673C12.9188 5.18223 12.9675 5.17156 12.985 5.23723C12.9908 5.2599 13.0683 5.26373 13.0928 5.27056L13.2185 5.3739C13.221 5.46523 13.32 5.41256 13.3625 5.45323L13.4533 5.53306C13.5231 5.6079 13.5845 5.6919 13.6866 5.6894C13.7406 5.74323 13.7823 5.78506 13.8243 5.82706L13.933 5.9254C13.9498 5.94993 13.9687 5.97296 13.9895 5.99423C14.0378 6.03806 14.0895 6.07756 14.1346 6.1239L14.2206 6.20906L14.2338 6.19773C14.2371 6.2194 14.2403 6.2409 14.2441 6.26556L14.3183 6.28356C14.3156 6.3389 14.3296 6.3804 14.3715 6.3704L14.4801 6.4894C14.4786 6.5824 14.5634 6.64356 14.6403 6.7099C14.6679 6.76756 14.6438 6.85223 14.7358 6.88006C14.748 6.88373 14.7423 6.93306 14.7525 6.95773C14.7665 6.98373 14.7832 7.00814 14.8025 7.03056C14.8053 7.03456 14.8146 7.03573 14.8154 7.0394C14.8475 7.1959 14.9641 7.33323 14.9216 7.50606C14.9167 7.52087 14.9075 7.53387 14.8951 7.5434C14.8678 7.56556 14.8381 7.5849 14.8103 7.6089L14.7166 7.68706L14.7285 7.70373L14.5921 7.7224C14.5851 7.74256 14.5774 7.76506 14.5686 7.79123L14.4936 7.8019C14.4885 7.82556 14.4835 7.84873 14.4785 7.8719L14.3365 7.88956C14.3301 7.90973 14.3231 7.93223 14.3146 7.9589L14.2441 7.9679L14.2536 7.99123C14.219 8.01006 14.1858 8.03956 14.1491 8.04473C14.0973 8.05223 14.056 8.05823 14.0603 8.11956C14.0005 8.14673 13.9353 8.1249 13.8883 8.2004C13.8538 8.25556 13.7531 8.26573 13.6883 8.30706C13.6235 8.3484 13.5666 8.40306 13.4833 8.4039C13.4615 8.50056 13.3738 8.46223 13.3116 8.48723C13.3048 8.60106 13.2051 8.54406 13.1441 8.57306C13.1345 8.6859 13.0365 8.62723 12.9735 8.6574C12.9735 8.7194 12.9268 8.72823 12.8735 8.72906C12.8328 8.72906 12.7945 8.7259 12.7765 8.78323C12.7706 8.80223 12.7098 8.80656 12.674 8.81306C12.6231 8.82206 12.5613 8.80056 12.5406 8.87973C12.5373 8.89306 12.482 8.8949 12.4501 8.89906C12.4133 8.9039 12.371 8.89223 12.3638 8.95206C12.3625 8.9634 12.3196 8.97106 12.2951 8.97806C12.2311 8.9964 12.1393 8.94806 12.1118 9.05523C12.1103 9.0609 12.0866 9.0614 12.0731 9.06323C12.0161 9.07073 11.9588 9.05723 11.9155 9.12556C11.8971 9.15456 11.817 9.14223 11.7666 9.15456C11.7361 9.1624 11.7096 9.18523 11.68 9.19806C11.649 9.21324 11.6162 9.22444 11.5825 9.2314C11.5223 9.2404 11.461 9.24056 11.4006 9.2489C11.3865 9.25073 11.3748 9.2704 11.3621 9.28223C11.3746 9.29406 11.3873 9.31556 11.4 9.31556C11.5191 9.31673 11.6626 9.35523 11.7515 9.30273C11.8796 9.2269 12.0056 9.25823 12.1298 9.2309C12.1606 9.22423 12.1876 9.2019 12.2173 9.18856C12.2363 9.17866 12.2568 9.1719 12.278 9.16856C12.3581 9.16106 12.4385 9.15806 12.5186 9.1504C12.5626 9.14606 12.6148 9.15723 12.6353 9.09573C12.6391 9.0849 12.6686 9.07906 12.6868 9.0774C12.7558 9.0714 12.8256 9.07206 12.8941 9.06206C12.924 9.05773 12.95 9.03173 12.9793 9.01873C13.0079 9.00381 13.0385 8.99308 13.0701 8.9869C13.1251 8.98006 13.1816 8.9854 13.2368 8.97656C13.2623 8.9724 13.2838 8.94606 13.3081 8.9314C13.3243 8.91915 13.3428 8.91036 13.3625 8.90556C13.4176 8.90006 13.4735 8.90173 13.5291 8.8964C13.5733 8.89206 13.6266 8.9034 13.6423 8.8369C13.6448 8.82656 13.6791 8.82023 13.6993 8.81823C13.7601 8.8134 13.8211 8.81173 13.8865 8.80856C13.8941 8.7409 13.9395 8.73406 13.9966 8.72923C14.0568 8.72423 14.1388 8.7639 14.168 8.66106C14.172 8.64706 14.24 8.6529 14.278 8.6464C14.328 8.6379 14.3946 8.66423 14.41 8.5809C14.4113 8.5729 14.4433 8.56906 14.46 8.5654C14.5091 8.55506 14.5745 8.58206 14.5918 8.49873C14.5943 8.48656 14.6456 8.48323 14.6751 8.4784C14.7326 8.46873 14.8003 8.48456 14.8296 8.4089C14.8333 8.3999 14.8591 8.39906 14.8748 8.39523C14.9248 8.3829 14.9863 8.39956 15.0108 8.32556C15.0151 8.31256 15.0823 8.31306 15.1173 8.3209C15.1361 8.32506 15.1593 8.35706 15.1616 8.37856C15.17 8.45856 15.1656 8.5399 15.1761 8.61923C15.1808 8.65456 15.2095 8.6859 15.2271 8.72023C15.2384 8.73707 15.2465 8.7559 15.2508 8.77573C15.2558 8.84506 15.2563 8.9144 15.2588 8.9839C15.2601 9.02223 15.2559 9.06206 15.3113 9.0719C15.3218 9.07373 15.3316 9.10706 15.3331 9.12656C15.3378 9.19023 15.3371 9.25423 15.341 9.3179C15.3435 9.35956 15.3308 9.41023 15.3966 9.42123C15.4059 9.42273 15.4149 9.45256 15.4163 9.4699C15.4209 9.53356 15.4216 9.5974 15.4253 9.66123C15.4275 9.70073 15.4166 9.74673 15.4768 9.75923C15.4869 9.7614 15.4971 9.79056 15.498 9.80756C15.5005 9.8654 15.499 9.92423 15.499 9.95473C15.4608 9.99873 15.4403 10.0321 15.4111 10.0534C15.3866 10.0714 15.3508 10.0732 15.3219 10.0867C15.2929 10.0994 15.2678 10.1197 15.2493 10.1454C15.2061 10.1672 15.1435 10.1621 15.166 10.2362C15.1011 10.2601 15.038 10.2474 14.9993 10.3217C14.9743 10.3689 14.8856 10.3791 14.8493 10.4247C14.8026 10.4839 14.7516 10.5127 14.686 10.5146C14.6168 10.6067 14.5431 10.6812 14.4193 10.6867C14.4133 10.7082 14.4068 10.7312 14.3993 10.7572L14.323 10.7654C14.323 10.8866 14.2229 10.8274 14.1633 10.8612L14.1511 10.9122L13.9255 11.0366L13.9105 11.0199C13.9035 11.0429 13.8965 11.0659 13.8896 11.0879C13.85 11.0961 13.8063 11.0939 13.776 11.1137C13.7235 11.1491 13.682 11.1999 13.632 11.2396C13.6126 11.2549 13.582 11.2552 13.5585 11.2662C13.5217 11.2821 13.4879 11.3041 13.4585 11.3312C13.4046 11.3646 13.3198 11.3362 13.2971 11.4282C13.2961 11.4322 13.2823 11.4332 13.2743 11.4349C13.2196 11.4457 13.1668 11.4456 13.1313 11.5102C13.1156 11.5387 13.0571 11.5554 13.0191 11.5826C12.9433 11.6369 12.8388 11.6492 12.7566 11.6974C12.6933 11.7341 12.6266 11.7654 12.5666 11.8017C12.5038 11.8397 12.4741 11.9326 12.4398 12.0084C12.3846 12.0196 12.375 12.0601 12.3718 12.1164C12.3681 12.1796 12.3968 12.2587 12.3066 12.2947C12.2961 12.2991 12.2956 12.3352 12.2951 12.3567C12.2908 12.5289 12.29 12.7012 12.2821 12.8734C12.2806 12.9051 12.2508 12.9347 12.2373 12.9667C12.224 12.9922 12.2156 13.0199 12.2125 13.0484C12.2071 13.3234 12.2045 13.5984 12.2003 13.8732C12.2003 13.9187 12.2093 13.9657 12.149 13.9921C12.1323 13.9994 12.129 14.0511 12.1286 14.0826C12.1236 14.4602 12.121 14.8381 12.1166 15.2159C12.1155 15.3131 12.1136 15.4104 12.1061 15.5072C12.1036 15.5394 12.0811 15.5696 12.0696 15.6014C12.0583 15.6255 12.0511 15.6514 12.0483 15.6779C12.0465 16.0667 12.0451 16.4556 12.0483 16.8446C12.0483 16.8827 12.0836 16.9194 12.0913 16.9591C12.1047 17.0264 12.1127 17.0946 12.115 17.1632C12.1163 17.2116 12.1458 17.2799 12.0546 17.2901C12.0445 17.2912 12.0391 17.3327 12.0196 17.3449C11.9948 17.3699 11.9696 17.3949 11.9455 17.4202C11.94 17.4259 11.9351 17.4396 11.932 17.4391C11.8391 17.4224 11.801 17.5189 11.7255 17.5391C11.7133 17.5422 11.7035 17.5601 11.6953 17.5724C11.6871 17.5847 11.6881 17.6032 11.6786 17.6081C11.6105 17.6444 11.5385 17.6747 11.4723 17.7139C11.4285 17.7401 11.3775 17.7712 11.3556 17.8139C11.3171 17.8907 11.257 17.8721 11.1913 17.8817C11.1895 17.8464 11.1865 17.8194 11.1866 17.7924C11.1894 16.7035 11.1926 15.6146 11.1961 14.5257C11.1961 14.4729 11.1813 14.4147 11.252 14.3841C11.2668 14.3774 11.267 14.3286 11.2676 14.2989C11.2723 14.0434 11.2748 13.7879 11.2801 13.5322C11.2813 13.4736 11.2713 13.4097 11.3368 13.3689C11.351 13.3601 11.3508 13.3232 11.3516 13.2989C11.356 13.1796 11.3573 13.0602 11.3621 12.9409C11.3643 12.8847 11.3545 12.8226 11.4241 12.7909C11.4346 12.7862 11.4365 12.7566 11.4376 12.7381C11.4418 12.6689 11.4401 12.5989 11.4491 12.5304C11.4531 12.4994 11.4786 12.4716 11.492 12.4412C11.5059 12.4154 11.5157 12.3876 11.5211 12.3587C11.5278 12.2869 11.5253 12.2142 11.5331 12.1421C11.5383 12.0967 11.522 12.0389 11.5886 12.0166C11.5983 12.0132 11.601 11.9819 11.6026 11.9632C11.609 11.8941 11.6135 11.8249 11.6193 11.7559C11.6206 11.7392 11.6171 11.7142 11.6263 11.7079C11.7235 11.6392 11.6866 11.5334 11.7028 11.4427C11.7096 11.4037 11.7028 11.3659 11.7528 11.3396C11.777 11.3267 11.7776 11.2662 11.7861 11.2266C11.7955 11.1796 11.7861 11.1276 11.8496 11.1044C11.8686 11.0974 11.8743 11.0544 11.8876 11.0244C11.9376 10.9992 12.0335 11.0474 12.0408 10.9447L12.289 10.8182C12.297 10.7374 12.3875 10.7746 12.454 10.7572L12.4763 10.6929C12.5353 10.6656 12.6301 10.7164 12.6388 10.6096C12.6993 10.5792 12.799 10.6352 12.8055 10.5502C12.8721 10.5047 12.9186 10.4684 12.9693 10.4387C13.045 10.3942 13.1235 10.3544 13.2008 10.3126L13.2135 10.3292C13.2188 10.3082 13.224 10.2874 13.2281 10.2702L13.4471 10.1457C13.5338 10.0957 13.5805 9.98656 13.7101 9.99573C13.7281 9.9504 13.7331 9.8879 13.82 9.92406L13.7961 9.89206C13.8241 9.87223 13.8528 9.85356 13.8795 9.83223C13.8899 9.82146 13.8994 9.80986 13.908 9.79756C13.9221 9.78206 13.937 9.76706 13.9521 9.75256C13.9673 9.73806 13.9828 9.72823 13.9956 9.7139C14.0041 9.7044 14.0093 9.68056 14.0145 9.68056C14.109 9.68873 14.1401 9.59606 14.2066 9.56023C14.2166 9.55473 14.2233 9.51906 14.2168 9.5119C14.1891 9.4829 14.094 9.5039 14.063 9.53173C14.0366 9.55352 14.005 9.56796 13.9713 9.57356C13.9225 9.58206 13.8713 9.57456 13.8223 9.58456C13.7923 9.59056 13.7665 9.6169 13.739 9.6329C13.7225 9.64505 13.7038 9.65377 13.684 9.65856C13.6233 9.6639 13.5611 9.65856 13.5006 9.6689C13.4646 9.67506 13.4325 9.70223 13.3981 9.7189C13.3805 9.72969 13.3612 9.7373 13.341 9.7414C13.2856 9.7459 13.2298 9.7439 13.1743 9.74856C13.1233 9.75273 13.0595 9.7304 13.0393 9.81006C13.037 9.81956 13.0003 9.8239 12.9791 9.8249C12.8791 9.8289 12.7791 9.8299 12.6791 9.83423C12.6266 9.83656 12.5653 9.81923 12.5408 9.89423C12.5373 9.90473 12.5018 9.90823 12.481 9.9089C12.3005 9.91373 12.12 9.91623 11.9395 9.92173C11.8803 9.9234 11.8263 9.92623 11.7728 9.97506C11.7395 10.0064 11.6626 9.99173 11.6053 9.9974L11.564 10.0014L11.3778 10.1882V10.1894C11.3525 10.2144 11.3258 10.2382 11.3023 10.2647C11.2906 10.2784 11.282 10.2944 11.277 10.3117C11.264 10.3547 11.2683 10.4061 11.203 10.4166C11.19 10.4187 11.184 10.4627 11.1728 10.4922L11.114 10.5079L11.1243 10.5177L11.032 10.6221L10.9525 10.6997L10.9555 10.7054C10.931 10.7259 10.9055 10.7457 10.882 10.7672C10.8708 10.7771 10.8613 10.7887 10.854 10.8016C10.8465 10.8152 10.847 10.8376 10.8363 10.8449C10.754 10.9006 10.6895 10.9662 10.663 11.0679C10.6541 11.1012 10.6141 11.1277 10.5855 11.1542C10.5431 11.1936 10.4983 11.2301 10.4545 11.2676C10.4446 11.2759 10.4261 11.2842 10.4261 11.2921C10.4261 11.3361 10.406 11.3524 10.3636 11.3621C10.348 11.3657 10.3405 11.4057 10.3211 11.4201L10.2366 11.5077H10.232C10.2118 11.5356 10.1968 11.5791 10.1701 11.5881C10.097 11.6132 10.0886 11.7422 9.98212 11.7047C9.95535 11.6928 9.93113 11.6758 9.91079 11.6547C9.86562 11.6136 9.82229 11.5704 9.77945 11.5271C9.76789 11.5138 9.75772 11.4994 9.74912 11.4841C9.74079 11.4711 9.73695 11.4507 9.72529 11.4451C9.65862 11.4117 9.61845 11.3537 9.57978 11.2939C9.5741 11.2849 9.56714 11.2769 9.55912 11.2699C9.53195 11.2472 9.50412 11.2252 9.47662 11.2032L9.48812 11.1866L9.42412 11.1732L9.43462 11.1612C9.40915 11.1391 9.38511 11.1154 9.36262 11.0902C9.34793 11.0683 9.33585 11.0447 9.32662 11.0199C9.30995 10.9849 9.31595 10.9366 9.25578 10.9317C9.24345 10.9307 9.23445 10.8874 9.21428 10.8734L9.13329 10.7857L9.05162 10.6992H9.05295L8.95195 10.5984C8.94328 10.5864 8.92845 10.5519 8.90195 10.5329C8.85773 10.5033 8.82181 10.4628 8.79762 10.4154C8.78312 10.3854 8.75529 10.3617 8.73329 10.3354C8.71129 10.3091 8.68679 10.2831 8.66662 10.2551C8.63129 10.2082 8.59995 10.1577 8.56229 10.1132C8.54562 10.0931 8.51579 10.0834 8.48329 10.0632C8.48029 10.0514 8.47412 10.0281 8.46662 10.0024L8.33979 9.9934C8.28979 9.98973 8.23979 10.0009 8.19929 9.94606C8.18262 9.9234 8.12762 9.92373 8.08962 9.92256C7.90629 9.91656 7.72295 9.9139 7.53962 9.9099C7.50162 9.9099 7.46329 9.91556 7.44645 9.86273C7.44162 9.84756 7.40062 9.83773 7.37562 9.83656C7.26195 9.83073 7.14795 9.8319 7.03445 9.82373C7.00612 9.82173 6.97995 9.79423 6.95245 9.7789C6.93479 9.76923 6.91712 9.75423 6.89845 9.75256C6.83495 9.74706 6.77095 9.7469 6.70712 9.7439C6.66162 9.7419 6.61245 9.75223 6.59045 9.69006C6.58545 9.6764 6.54729 9.6704 6.52379 9.6684C6.46295 9.66306 6.40129 9.66589 6.34045 9.65756C6.31379 9.6539 6.28962 9.63073 6.26429 9.6164C6.24645 9.6064 6.22979 9.5899 6.21112 9.58723C6.15895 9.58023 6.10529 9.58323 6.05379 9.57406C6.00929 9.56623 5.95812 9.5779 5.92829 9.51523C5.91945 9.49673 5.83529 9.51373 5.78579 9.51523C5.78429 9.51523 5.77895 9.53973 5.78362 9.54423C5.82075 9.58244 5.86063 9.61787 5.90295 9.65023C5.94279 9.6784 6.01962 9.65523 6.02195 9.73906C6.02195 9.74606 6.06562 9.7519 6.07862 9.76806L6.16195 9.8514L6.18012 9.8379C6.18412 9.86123 6.18795 9.88456 6.19195 9.90806L6.20679 9.8959L6.29845 9.97623L6.30279 9.96656L6.55745 10.1374L6.54362 10.1584C6.60205 10.1709 6.65678 10.1968 6.70345 10.2341C6.75929 10.2764 6.80612 10.3674 6.90345 10.3507C6.91562 10.3487 6.93329 10.3731 6.94662 10.3869C6.95162 10.3922 6.94962 10.4064 6.95479 10.4092C7.03062 10.4512 7.10695 10.4926 7.19845 10.5409C7.20379 10.6319 7.30195 10.5797 7.35945 10.6056L7.35062 10.6246C7.3817 10.6446 7.4143 10.6621 7.44812 10.6771C7.48662 10.6907 7.54129 10.6746 7.54445 10.7424C7.54445 10.7496 7.56995 10.7591 7.58462 10.7616C7.63712 10.7687 7.69945 10.7537 7.71295 10.8342C7.71429 10.8419 7.75412 10.8399 7.77312 10.8487C7.80645 10.8654 7.83862 10.8862 7.87195 10.9041C7.89895 10.9184 7.92729 10.9306 7.96329 10.9477C7.98812 11.0086 7.98812 11.0086 8.09779 11.0204C8.13762 11.0627 8.17262 11.0892 8.19245 11.1242C8.21029 11.1556 8.21229 11.1961 8.21962 11.2329C8.22912 11.2806 8.20679 11.3392 8.28129 11.3617C8.29795 11.3666 8.29795 11.4252 8.30379 11.4591C8.31545 11.5216 8.27745 11.6002 8.36745 11.6381C8.38045 11.6436 8.38162 11.6837 8.38312 11.7081C8.38712 11.7747 8.38212 11.8414 8.39312 11.9081C8.40062 11.9519 8.43012 11.9914 8.44812 12.0342C8.4574 12.0531 8.46359 12.0734 8.46645 12.0942C8.47212 12.1689 8.46895 12.2442 8.48129 12.3184C8.48912 12.3656 8.51895 12.4091 8.53762 12.4547C8.54534 12.4719 8.55034 12.4902 8.55245 12.5089C8.55729 12.5726 8.55462 12.6372 8.56529 12.6997C8.57178 12.7382 8.59862 12.7731 8.61395 12.8104C8.62314 12.8299 8.6291 12.8508 8.63162 12.8722C8.63795 12.9692 8.63762 13.0667 8.64829 13.1631C8.65745 13.2464 8.62512 13.3404 8.70862 13.4102C8.72679 13.4254 8.71895 13.4737 8.71979 13.5071C8.72679 13.7652 8.73078 14.0237 8.74112 14.2816C8.74295 14.3261 8.77445 14.3686 8.78562 14.4137C8.79607 14.4535 8.80167 14.4944 8.80229 14.5356C8.80895 15.1049 8.81579 15.6742 8.81895 16.2437C8.82195 16.7547 8.82145 17.2659 8.82028 17.7771C8.82028 17.8104 8.80479 17.8727 8.79062 17.8744C8.74062 17.8809 8.69062 17.8794 8.65078 17.8196C8.61945 17.7714 8.55412 17.7452 8.50345 17.7099C8.49462 17.7037 8.47745 17.7017 8.47562 17.6947C8.45429 17.6114 8.37745 17.6299 8.34329 17.6169C8.25679 17.5224 8.18695 17.4424 8.07762 17.4241L7.97445 17.3366L7.91312 17.2619C7.90662 17.2654 7.90029 17.2691 7.89395 17.2727C7.89395 17.1789 7.86062 17.0666 7.90029 16.9947C8.00462 16.8066 7.94945 16.6114 7.96079 16.4214C7.96985 16.227 7.96841 16.0323 7.95645 15.8381C7.95195 15.7464 7.98279 15.6432 7.89829 15.5646C7.88529 15.5524 7.89345 15.5166 7.89329 15.4917C7.88895 15.0417 7.88456 14.5917 7.88012 14.1417C7.87929 14.0774 7.88945 14.0097 7.82245 13.9614C7.80579 13.9492 7.80962 13.9044 7.80912 13.8744C7.80412 13.6217 7.80145 13.3689 7.79529 13.1162C7.79395 13.0554 7.80629 12.9894 7.73879 12.9446C7.72212 12.9336 7.72512 12.8879 7.72412 12.8579C7.71812 12.6912 7.71545 12.5246 7.70745 12.3579C7.70595 12.3299 7.68045 12.3037 7.66912 12.2754C7.65616 12.2434 7.64503 12.2107 7.63579 12.1774C7.62012 12.1211 7.66262 12.0454 7.56479 12.0152C7.54079 12.0077 7.53979 11.9257 7.51629 11.8882L7.41662 11.7831C7.38412 11.7736 7.30329 11.7962 7.28462 11.7039C7.28329 11.6976 7.24695 11.7022 7.23045 11.6942C7.19445 11.6766 7.16129 11.6536 7.12612 11.6339C7.11062 11.6253 7.09432 11.6182 7.07745 11.6127C7.03145 11.5977 6.97745 11.6127 6.95079 11.5432C6.93845 11.5099 6.87395 11.5099 6.83562 11.4716C6.78912 11.4252 6.70579 11.4199 6.64795 11.3681C6.61195 11.3359 6.53212 11.3636 6.51679 11.2847C6.51512 11.2762 6.47695 11.2751 6.45595 11.2699C6.41795 11.2607 6.36962 11.2686 6.36362 11.2081C6.36279 11.1991 6.33962 11.1904 6.32545 11.1849C6.31129 11.1794 6.28945 11.1824 6.27879 11.1729C6.19979 11.1039 6.20029 11.1032 6.11495 11.0896C6.11045 11.0699 6.10562 11.0489 6.10012 11.0244C6.06579 11.0191 6.02795 11.0201 5.99645 11.0064C5.96895 10.9944 5.94862 10.9662 5.90945 10.9312L5.86179 10.9271L5.84362 10.8554C5.82929 10.8537 5.81579 10.8536 5.80262 10.8507C5.75645 10.8406 5.68995 10.8631 5.68729 10.7799C5.68729 10.7742 5.67062 10.7694 5.66162 10.7632C5.63161 10.7449 5.60429 10.7224 5.58045 10.6966C5.52495 10.6736 5.47312 10.6614 5.41862 10.6101C5.37079 10.5647 5.30845 10.5052 5.22412 10.4831C5.18579 10.4729 5.11945 10.4211 5.07795 10.3622C5.03279 10.2982 4.93629 10.2704 4.84462 10.2162C4.78529 10.0956 4.61312 10.0882 4.52129 9.97373L4.50195 9.98606C4.50479 9.92873 4.50712 9.87123 4.51045 9.8139C4.51129 9.80023 4.51045 9.7784 4.51779 9.77423C4.61379 9.72273 4.57329 9.6294 4.58695 9.55323C4.59695 9.49756 4.56912 9.42806 4.65079 9.3999C4.66045 9.39656 4.66312 9.36523 4.66445 9.34656C4.66895 9.2799 4.66745 9.21323 4.67645 9.14656C4.68062 9.11656 4.70495 9.08956 4.71929 9.0609C4.73091 9.04309 4.73936 9.02341 4.74429 9.00273C4.75045 8.9449 4.75062 8.88606 4.75495 8.8284C4.75862 8.78073 4.74995 8.73156 4.80595 8.69873C4.82645 8.68656 4.83112 8.63923 4.83379 8.60723C4.83962 8.53806 4.83529 8.46806 4.84412 8.3994C4.84762 8.37106 4.87045 8.32723 4.89145 8.32273C4.93112 8.31406 4.98695 8.27506 5.01545 8.3549C5.02362 8.37723 5.08112 8.38073 5.11545 8.39573C5.14279 8.40773 5.16829 8.42406 5.19479 8.43806C5.21533 8.45085 5.23704 8.46168 5.25962 8.4704C5.32512 8.48973 5.41262 8.4564 5.44612 8.55373C5.44929 8.56306 5.48729 8.5599 5.50912 8.56323C5.55229 8.56956 5.60179 8.55323 5.62112 8.62156C5.62629 8.63956 5.69545 8.63823 5.73479 8.64823C5.78179 8.6599 5.84779 8.62423 5.86812 8.7099C5.87162 8.72523 5.94279 8.72373 5.98229 8.7319C6.03229 8.74223 6.10295 8.70623 6.12029 8.7969C6.12245 8.80856 6.17995 8.81056 6.21195 8.81523C6.27745 8.8249 6.35779 8.7884 6.39662 8.8819C6.40195 8.89473 6.44229 8.89573 6.46679 8.89756C6.52212 8.90173 6.57779 8.90256 6.63345 8.90556C6.65012 8.90656 6.67729 8.90556 6.68062 8.9134C6.72362 9.01506 6.81512 8.97356 6.88762 8.9859C6.94662 8.9959 7.01912 8.97056 7.04845 9.05423C7.05129 9.06206 7.07879 9.06306 7.09495 9.06406C7.14762 9.06723 7.20045 9.06823 7.25295 9.07173C7.28345 9.07356 7.32795 9.06723 7.34162 9.08406C7.42329 9.18606 7.53795 9.14173 7.63795 9.1594C7.69829 9.17006 7.76729 9.15306 7.80829 9.22156C7.81479 9.23223 7.84395 9.23106 7.86295 9.2324C7.94329 9.2374 8.02395 9.23873 8.10395 9.2464C8.15045 9.25106 8.20679 9.23856 8.23079 9.30206C8.23429 9.31123 8.26012 9.31523 8.27562 9.3159C8.36995 9.31973 8.46445 9.32523 8.55895 9.32273C8.58545 9.32273 8.61145 9.29673 8.63779 9.28273C8.61129 9.26856 8.58629 9.2479 8.55812 9.2414C8.52079 9.23306 8.48079 9.23656 8.44145 9.23373C8.39262 9.23023 8.34812 9.23106 8.31229 9.17856C8.29562 9.15323 8.23229 9.15906 8.19012 9.15023C8.14012 9.1399 8.08545 9.1579 8.05079 9.08806C8.03695 9.0604 7.95562 9.06623 7.91145 9.03806C7.86572 9.01772 7.819 8.9997 7.77145 8.98406C7.71912 8.96906 7.64662 9.0064 7.62429 8.9154C7.62112 8.90206 7.55762 8.90756 7.52429 8.8964C7.49829 8.88756 7.47745 8.8649 7.45279 8.85123C7.42932 8.8366 7.4039 8.82538 7.37729 8.8179C7.31462 8.80456 7.23479 8.8369 7.20395 8.74256C7.19995 8.73073 7.15195 8.73706 7.12695 8.7279C7.09122 8.71306 7.05628 8.69637 7.02229 8.6779L7.03129 8.6524L6.89112 8.64023L6.90012 8.61756C6.86443 8.59684 6.82734 8.57863 6.78912 8.56306C6.75229 8.55073 6.70329 8.56506 6.69762 8.50223C6.69679 8.49273 6.66262 8.48556 6.64312 8.47873C6.59962 8.46456 6.53962 8.48256 6.52562 8.41206C6.52395 8.40273 6.48679 8.4014 6.46679 8.3944C6.42845 8.38056 6.37445 8.39323 6.36379 8.33006C6.36212 8.32023 6.33345 8.31156 6.31612 8.3079C6.26903 8.29891 6.22585 8.27563 6.19245 8.24123C6.13095 8.18273 6.04245 8.15256 5.96529 8.1104L5.95112 8.12856C5.94479 8.10556 5.93862 8.08273 5.93162 8.0569C5.90924 8.05665 5.88692 8.05436 5.86495 8.05006C5.82912 8.03973 5.77879 8.0534 5.77195 7.9889C5.77062 7.97506 5.72345 7.9659 5.69345 7.9529C5.67329 7.8934 5.67329 7.8934 5.53212 7.86956L5.51395 7.8044L5.43762 7.7924C5.43045 7.6984 5.35195 7.72173 5.29279 7.7049C5.27495 7.69973 5.26662 7.6609 5.25179 7.6334L5.18429 7.62373C5.20762 7.5369 5.05979 7.56323 5.08312 7.46223C5.09979 7.3904 5.06329 7.2789 5.10229 7.24556C5.17412 7.18373 5.14679 7.07756 5.19229 7.0494C5.26912 7.0019 5.25062 6.94156 5.26545 6.88273L5.28445 6.8914C5.30595 6.85206 5.33595 6.81473 5.34662 6.77273C5.35729 6.73073 5.38312 6.71523 5.41479 6.6894C5.46479 6.64756 5.48762 6.57173 5.52412 6.51173C5.53944 6.49059 5.55615 6.47049 5.57412 6.45156C5.58529 6.4379 5.59429 6.4224 5.60579 6.40906C5.61962 6.3924 5.63495 6.3784 5.65012 6.3634C5.66229 6.35123 5.67562 6.34023 5.68729 6.32756C5.70395 6.3109 5.71845 6.2924 5.73312 6.27406C5.75103 6.25083 5.77017 6.22858 5.79045 6.2074L5.92612 6.0779L5.99929 5.99823L6.00212 5.99973L6.08729 5.9164L6.10229 5.9284L6.11062 5.88123L6.21195 5.79906V5.79323C6.23879 5.76623 6.26479 5.73856 6.29262 5.71256C6.30361 5.70185 6.31689 5.69376 6.33145 5.6889C6.37779 5.67556 6.44095 5.6929 6.44812 5.61273C6.44812 5.60273 6.49579 5.59606 6.51112 5.57306C6.53962 5.55323 6.56879 5.5344 6.59629 5.5134C6.60804 5.50347 6.61811 5.4917 6.62612 5.47856C6.63329 5.46756 6.63945 5.44323 6.64279 5.44373C6.73879 5.4644 6.77612 5.36573 6.85079 5.34123C6.86929 5.33523 6.87829 5.30023 6.89429 5.27456C6.94429 5.2504 7.03412 5.28873 7.05129 5.18906C7.05229 5.1829 7.08212 5.1839 7.09662 5.17756C7.13612 5.1609 7.17562 5.1599 7.21062 5.11306C7.25012 5.0599 7.33245 5.03823 7.39745 5.00506C7.41412 4.99656 7.44979 4.99923 7.45095 4.9924C7.46545 4.90473 7.53912 4.9304 7.59129 4.91173C7.61645 4.90273 7.63279 4.86923 7.66129 4.83773C7.70695 4.8309 7.77562 4.84273 7.80562 4.76323C7.81112 4.74873 7.85479 4.74856 7.88462 4.7409C7.88862 4.72156 7.89279 4.70056 7.89712 4.6794L7.91562 4.69306C7.94095 4.66306 7.96079 4.62323 7.99279 4.60556C8.03179 4.5839 8.08112 4.58073 8.10812 4.57406L8.20629 4.47606C8.23279 4.4559 8.26062 4.43606 8.28679 4.41406C8.2977 4.40376 8.30698 4.39184 8.31429 4.37873C8.32245 4.36556 8.32462 4.34273 8.33529 4.3384C8.40829 4.30756 8.45362 4.25056 8.49979 4.1884C8.53212 4.1454 8.58545 4.1189 8.62462 4.08023C8.66728 4.03806 8.70462 3.9904 8.74395 3.94473C8.75108 3.93401 8.75876 3.92366 8.76695 3.91373C8.79262 3.8899 8.81962 3.86756 8.85129 3.84006C8.86883 3.81105 8.88884 3.78362 8.91112 3.75806C8.92778 3.7414 8.95579 3.73423 8.98562 3.71923C8.98812 3.70256 8.99195 3.6794 8.99612 3.65256L9.05962 3.64223C9.09462 3.5744 9.12629 3.5079 9.16312 3.4439C9.17478 3.42356 9.19779 3.40956 9.22529 3.38323C9.25662 3.56006 9.24045 3.62106 9.16128 3.6579C9.15895 3.70923 9.15729 3.76173 9.15395 3.81423C9.15162 3.85173 9.15862 3.89406 9.10045 3.90106C9.09045 3.90223 9.07945 3.9344 9.07729 3.95456C9.07129 4.0069 9.08945 4.0879 9.06279 4.1069C8.98162 4.16256 9.01995 4.27156 8.97945 4.30573C8.89145 4.3789 8.91528 4.46556 8.89945 4.54906C8.89795 4.55706 8.89495 4.5704 8.89062 4.5714C8.79762 4.59073 8.83329 4.66806 8.81995 4.7239C8.80995 4.7659 8.82445 4.8239 8.75678 4.83356C8.75245 4.83356 8.74512 4.8414 8.74562 4.84406C8.77029 4.9619 8.64445 5.02873 8.64562 5.14056C8.64562 5.18556 8.65379 5.2439 8.58645 5.26306C8.57745 5.26556 8.57412 5.2909 8.56979 5.30623C8.55495 5.35623 8.58145 5.42406 8.50212 5.44906C8.48695 5.45373 8.48545 5.5039 8.47879 5.53356C8.46729 5.5909 8.49445 5.66506 8.40495 5.6884C8.39562 5.6909 8.39795 5.73423 8.39279 5.75806C8.38429 5.7969 8.40379 5.85173 8.33429 5.85806C8.32645 5.8589 8.31579 5.89006 8.31562 5.90806C8.31362 6.10806 8.31112 6.30806 8.31562 6.50806C8.31562 6.5414 8.35112 6.5719 8.36562 6.60556C8.37768 6.63432 8.38645 6.66434 8.39179 6.69506C8.40045 6.74223 8.38362 6.8054 8.46012 6.79056C8.49345 6.85723 8.43995 6.95456 8.54829 6.96773C8.57262 7.03023 8.53995 7.11523 8.63379 7.14073C8.64295 7.14323 8.64045 7.18206 8.64645 7.20306C8.65679 7.2399 8.64529 7.29056 8.70762 7.2964C8.71679 7.29723 8.72562 7.32656 8.73062 7.34373C8.74462 7.39256 8.72595 7.4594 8.80645 7.47056C8.81345 7.47156 8.81279 7.50623 8.82112 7.52223C8.83879 7.55656 8.86129 7.5889 8.87929 7.62223C8.89395 7.64973 8.90495 7.67906 8.92045 7.71406C9.02545 7.71806 8.97295 7.81406 9.00045 7.87606L9.06712 7.89506C9.07079 7.9284 9.06845 7.96656 9.08029 7.99906C9.09029 8.02606 9.11662 8.0469 9.14328 8.06573C9.16728 8.12073 9.13495 8.20673 9.23329 8.22473C9.22329 8.31406 9.32762 8.3414 9.34062 8.43273C9.34912 8.4914 9.40395 8.5634 9.43562 8.63156C9.44729 8.65673 9.49979 8.6744 9.50562 8.72256C9.53035 8.72348 9.55511 8.72303 9.57978 8.72123C9.56778 8.67123 9.55829 8.62023 9.54262 8.57123C9.53479 8.54656 9.51028 8.5269 9.50262 8.50223C9.48845 8.45573 9.50795 8.3989 9.43795 8.37306C9.41879 8.36606 9.41929 8.30306 9.41262 8.2654C9.40445 8.2184 9.41395 8.16906 9.35329 8.1399C9.33212 8.1299 9.33812 8.06973 9.32479 8.03523C9.31479 8.00973 9.29295 7.98906 9.27762 7.9654C9.26502 7.95015 9.25551 7.9326 9.24962 7.91373C9.24295 7.87556 9.24795 7.8349 9.23779 7.79823C9.22613 7.76403 9.20566 7.7335 9.17845 7.70973C9.14645 7.5554 9.14645 7.5554 9.08262 7.53273C9.07995 7.4864 9.08262 7.43573 9.07212 7.3884C9.06479 7.35673 9.03612 7.3304 9.01862 7.30056C9.00789 7.2833 8.99964 7.26462 8.99412 7.24506C8.98129 7.19506 9.01429 7.1239 8.92529 7.1069C8.91445 7.1049 8.91312 7.0519 8.90762 7.02256C8.89695 6.9644 8.92229 6.89273 8.83828 6.86156C8.82462 6.8564 8.82729 6.80606 8.82329 6.77656C8.81479 6.71623 8.82929 6.64806 8.75412 6.61256C8.74162 6.60673 8.74512 6.56723 8.74062 6.54356C8.72662 6.47156 8.75529 6.3899 8.67595 6.3319C8.65645 6.31773 8.65579 6.2319 8.67495 6.21806C8.75045 6.1624 8.72712 6.08473 8.73979 6.0144C8.74629 5.9784 8.73545 5.94156 8.78862 5.92206C8.81012 5.91423 8.81395 5.8554 8.82345 5.8189C8.83712 5.7669 8.79862 5.69073 8.89212 5.67506C8.89829 5.67406 8.90062 5.64573 8.90362 5.62973C8.91312 5.57706 8.89295 5.51656 8.96912 5.48556C8.99029 5.4769 8.98462 5.4044 8.99279 5.3614C9.00029 5.32206 8.98162 5.26856 9.05062 5.2604C9.06078 5.25906 9.06912 5.22056 9.07379 5.1984C9.08412 5.14923 9.05712 5.08523 9.13795 5.06506C9.15095 5.0619 9.15462 5.01056 9.15812 4.9809C9.16279 4.93706 9.16295 4.89273 9.16529 4.84206C9.23445 4.8439 9.23829 4.79806 9.24479 4.74506C9.25262 4.68223 9.21062 4.59706 9.31479 4.56656C9.32695 4.56306 9.32495 4.51056 9.32945 4.48056C9.33829 4.42156 9.31545 4.35323 9.39612 4.31706C9.41379 4.30906 9.40945 4.2504 9.41395 4.21573C9.42129 4.1604 9.41012 4.10206 9.47762 4.06573C9.49828 4.05456 9.49179 3.99473 9.49978 3.95756C9.51162 3.9034 9.48195 3.8369 9.56179 3.80206C9.58262 3.7929 9.57845 3.72606 9.58512 3.6854C9.59378 3.63106 9.58745 3.58023 9.63928 3.53073C9.67395 3.4974 9.66228 3.41606 9.67162 3.35623C9.67962 3.30506 9.66129 3.24556 9.73062 3.2149C9.74729 3.20756 9.74945 3.16006 9.75245 3.13056C9.75812 3.07256 9.75962 3.0139 9.76328 2.95606C9.76445 2.9394 9.76329 2.91156 9.76995 2.9084C9.87762 2.86356 9.82795 2.76706 9.84212 2.69273C9.85312 2.6349 9.82395 2.56756 9.90112 2.52756C9.92045 2.51756 9.91879 2.4609 9.92112 2.42523C9.92629 2.3419 9.93012 2.25856 9.93045 2.17523C9.93045 2.11423 9.97245 2.12023 10.0108 2.1194C10.0491 2.11856 10.0833 2.1164 10.0833 2.1759C10.0833 2.2759 10.0888 2.3759 10.093 2.4759C10.093 2.49473 10.096 2.52756 10.1041 2.52973C10.2001 2.55623 10.161 2.63456 10.1686 2.69323C10.1743 2.73706 10.1721 2.78206 10.175 2.82656C10.176 2.84323 10.178 2.87106 10.1848 2.87273C10.2825 2.89673 10.2441 2.97656 10.2526 3.0354C10.259 3.07923 10.2571 3.12423 10.2611 3.16873C10.2625 3.1844 10.2666 3.2109 10.275 3.21323C10.362 3.2374 10.3303 3.3094 10.338 3.36423C10.348 3.43573 10.328 3.51423 10.4075 3.56556C10.4241 3.57623 10.417 3.62223 10.4223 3.65156C10.4336 3.71456 10.402 3.7919 10.4913 3.82956C10.507 3.83623 10.5023 3.89106 10.508 3.92356C10.5171 3.98506 10.4891 4.05973 10.5746 4.0944C10.5863 4.09906 10.5848 4.13506 10.5903 4.1564C10.607 4.22306 10.576 4.30106 10.6603 4.35356C10.6885 4.37106 10.6725 4.45356 10.6853 4.50356C10.6926 4.53273 10.7216 4.5559 10.7328 4.58506C10.7466 4.6251 10.7578 4.66603 10.7661 4.70756C10.7778 4.7564 10.7511 4.81856 10.8278 4.84456C10.8445 4.8504 10.8445 4.90973 10.85 4.94456C10.8583 4.99923 10.8441 5.05906 10.9166 5.0914C10.9361 5.10023 10.9285 5.1629 10.94 5.19873C10.948 5.2229 10.9698 5.24206 10.9818 5.2654C10.9984 5.2936 11.011 5.32401 11.0191 5.35573C11.03 5.4149 11.0058 5.48506 11.0896 5.51606C11.1035 5.52106 11.105 5.57123 11.1045 5.6004C11.1045 5.65323 11.1111 5.69523 11.182 5.68873C11.185 5.7439 11.1861 5.79356 11.1911 5.84273C11.1951 5.88123 11.1846 5.9304 11.2491 5.93456C11.2573 5.93456 11.2681 5.9644 11.2701 5.98123C11.2753 6.0279 11.2725 6.07606 11.281 6.12206C11.2856 6.14806 11.3121 6.16956 11.3185 6.19573C11.3296 6.2419 11.3518 6.32423 11.3365 6.33173C11.2553 6.37456 11.2823 6.44523 11.2746 6.50673C11.2705 6.54006 11.2705 6.5734 11.2686 6.6049C11.1363 6.6549 11.2186 6.77506 11.1743 6.8604C11.1096 6.8569 11.1118 6.9089 11.1048 6.9594C11.0965 7.02106 11.1335 7.1029 11.0355 7.1304C11.0281 7.1324 11.027 7.16006 11.0246 7.17606C11.0165 7.22956 11.0358 7.29373 10.958 7.3189C10.9451 7.32306 10.9421 7.36323 10.938 7.3874C10.9271 7.45056 10.9556 7.52956 10.8635 7.55956C10.8551 7.5624 10.8571 7.5954 10.8531 7.61423C10.8433 7.6589 10.8618 7.71306 10.794 7.73656C10.7756 7.7429 10.776 7.80123 10.767 7.83556C10.7538 7.88556 10.785 7.95873 10.6993 7.97406C10.698 7.97454 10.6968 7.97529 10.6958 7.97626C10.6947 7.97724 10.694 7.97842 10.6935 7.97973C10.6601 8.07973 10.6268 8.1789 10.5961 8.2789C10.5825 8.3229 10.6006 8.3789 10.5318 8.3994C10.5151 8.40456 10.5183 8.46473 10.5061 8.49706C10.4972 8.52464 10.4817 8.54967 10.4611 8.57006C10.4118 8.61123 10.4126 8.73306 10.4821 8.82256ZM11.1166 9.3474C11.1495 9.37815 11.1928 9.39526 11.2379 9.39526C11.2829 9.39526 11.3262 9.37815 11.3591 9.3474H11.1166ZM8.87795 9.38406C8.80429 9.31623 8.70512 9.32106 8.65762 9.38406H8.87795Z" fill="#9E9E9E"/>
<path d="M14.0525 16.0909L13.9141 16.1052L13.8911 16.1749C13.8828 16.1767 13.8726 16.1796 13.8623 16.1809C13.8111 16.1872 13.7541 16.1809 13.7345 16.2489C13.732 16.2577 13.7128 16.2624 13.7011 16.2674C13.6301 16.2969 13.5816 16.3626 13.4925 16.3704C13.4496 16.3741 13.4186 16.4574 13.3721 16.4902C13.334 16.5171 13.2806 16.5224 13.2416 16.5504C13.2123 16.5681 13.1838 16.5876 13.1531 16.6029C13.1148 16.6221 13.0778 16.6267 13.0455 16.6734C13.0083 16.7271 12.9245 16.7481 12.8621 16.7847C12.8419 16.7974 12.8229 16.8119 12.8053 16.8281C12.7936 16.8379 12.7855 16.8522 12.7733 16.8614C12.7433 16.8793 12.7159 16.9012 12.6918 16.9264C12.6395 16.9561 12.5571 16.9297 12.5388 17.0231C12.5373 17.0311 12.4946 17.0311 12.463 17.0361C12.4605 17.0049 12.4566 16.9811 12.4568 16.9572C12.4628 16.4267 12.4681 15.8964 12.4771 15.3661C12.4771 15.3236 12.5063 15.2827 12.5173 15.2394C12.5271 15.2025 12.5327 15.1646 12.534 15.1264C12.5426 14.6739 12.5495 14.2212 12.5581 13.7686C12.5591 13.7154 12.548 13.6591 12.604 13.6172C12.6206 13.6044 12.6175 13.5602 12.6183 13.5302C12.625 13.2997 12.6291 13.0694 12.637 12.8389C12.6386 12.7889 12.6266 12.7319 12.6886 12.7009C12.6996 12.6954 12.701 12.6659 12.7026 12.6472C12.709 12.5754 12.7128 12.5032 12.7193 12.4306C12.721 12.4122 12.7248 12.3814 12.7345 12.3784C12.8178 12.3527 12.793 12.2757 12.8038 12.2459L12.9085 12.1409L12.9146 12.1424C12.936 12.1152 12.9536 12.0832 12.9801 12.0624C13.0016 12.0457 13.0346 12.0444 13.0608 12.0324C13.0942 12.0181 13.1243 11.9972 13.1493 11.9709C13.1983 11.9317 13.2921 11.9814 13.3091 11.8747C13.3105 11.8669 13.3546 11.8659 13.3845 11.8607C13.3871 11.7469 13.4845 11.7969 13.5486 11.7707L13.5663 11.7064C13.6284 11.6941 13.6874 11.6696 13.74 11.6342C13.7966 11.5944 13.8463 11.5009 13.945 11.5249C13.9551 11.5276 13.9793 11.5159 13.9795 11.5102C13.9816 11.4342 14.045 11.4451 14.088 11.4384C14.131 11.4317 14.138 11.3972 14.1601 11.3787C14.2255 11.3257 14.3058 11.2914 14.381 11.2454C14.4201 11.2247 14.46 11.2052 14.4976 11.1832C14.5226 11.1687 14.545 11.1499 14.5695 11.1342C14.5979 11.1196 14.6227 11.0987 14.642 11.0732C14.6768 11.0547 14.7123 11.0377 14.746 11.0176C14.7726 11.0009 14.796 10.9806 14.823 10.9639C14.85 10.9472 14.8756 10.9346 14.9145 10.9139L14.9293 10.8599C15.0495 10.8571 15.1126 10.7729 15.178 10.6882L15.2495 10.6782L15.2385 10.6586C15.264 10.6399 15.3065 10.6252 15.3121 10.6019C15.3381 10.4964 15.4788 10.5444 15.5136 10.4444C15.5205 10.4247 15.6065 10.4324 15.6636 10.4277C15.6693 10.4884 15.6646 10.5382 15.6803 10.5806C15.711 10.6639 15.7815 10.7332 15.7745 10.8316C15.8578 10.8559 15.823 10.9649 15.8556 10.9832C15.9533 11.0372 15.8945 11.1654 15.9875 11.2139C16.0061 11.2237 16.0098 11.2684 16.014 11.2981C16.0223 11.3561 16.0093 11.4216 16.0873 11.4481C16.0975 11.4516 16.0961 11.4882 16.101 11.5092C16.1111 11.5532 16.0935 11.6046 16.1656 11.6259C16.1891 11.6331 16.1886 11.7192 16.2005 11.7759C16.309 11.7866 16.2526 11.8824 16.2768 11.9402L16.2991 11.9324C16.3175 11.9717 16.3433 12.0094 16.3523 12.0509C16.3613 12.0924 16.3533 12.1294 16.4076 12.1481C16.426 12.1544 16.4331 12.2044 16.4378 12.2356C16.446 12.2894 16.4378 12.3467 16.5045 12.3747C16.5173 12.3801 16.5168 12.4186 16.5211 12.4414C16.5293 12.4827 16.52 12.5326 16.583 12.5441C16.5933 12.5459 16.5996 12.5797 16.6046 12.5994C16.6175 12.6441 16.602 12.7034 16.6723 12.7176C16.6811 12.7192 16.6836 12.7509 16.69 12.7676C16.7055 12.8102 16.6855 12.8727 16.7566 12.8854C16.7638 12.8866 16.7693 12.9071 16.7723 12.9187C16.7848 12.9712 16.7666 13.0389 16.8463 13.0572C16.8536 13.0589 16.8548 13.0867 16.8593 13.1024C16.8726 13.1489 16.8583 13.2112 16.9316 13.2242C16.9393 13.2257 16.9436 13.2524 16.9471 13.2681C16.9575 13.3147 16.9686 13.3514 17.0105 13.3914C17.0643 13.4414 17.0833 13.5291 17.121 13.5984C17.1353 13.6247 17.1601 13.6454 17.1941 13.6849C17.1855 13.7832 17.2713 13.8459 17.3673 13.9376C17.3695 13.9847 17.3728 14.0607 17.3756 14.1209C17.2815 14.1669 17.1826 14.1887 17.1281 14.2501C17.081 14.3029 17.0373 14.3141 16.9798 14.3282C16.9585 14.3336 16.9448 14.3696 16.9236 14.3967C16.8705 14.4124 16.7876 14.3871 16.7645 14.4801C16.7633 14.4851 16.7446 14.4861 16.734 14.4884C16.6846 14.4971 16.6394 14.5215 16.605 14.5579C16.546 14.6174 16.4541 14.6446 16.3628 14.6926C16.3648 14.7346 16.3235 14.7476 16.2681 14.7501C16.2328 14.7516 16.1848 14.7454 16.187 14.8061C16.187 14.8107 16.1811 14.8199 16.179 14.8196C16.079 14.8064 16.0265 14.9047 15.9366 14.9304C15.9106 14.9944 15.9106 14.9944 15.7726 15.0071C15.7658 15.0271 15.7581 15.0496 15.749 15.0767C15.7156 15.0806 15.6788 15.0787 15.6466 15.0912C15.6211 15.1012 15.6025 15.1291 15.5873 15.1557L15.3575 15.2772L15.344 15.2606C15.3386 15.2812 15.3335 15.3017 15.3286 15.3212C15.2738 15.3557 15.1706 15.2964 15.1638 15.4127C15.1001 15.4282 15.0425 15.4316 14.9931 15.4942C14.951 15.5479 14.8498 15.5519 14.7973 15.6016C14.7368 15.6589 14.6575 15.6682 14.5973 15.7124C14.5161 15.7726 14.4538 15.8624 14.3333 15.8529C14.3261 15.8776 14.3195 15.9004 14.312 15.9269C14.2901 15.9268 14.2684 15.9289 14.247 15.9331C14.2111 15.9439 14.1606 15.9307 14.1541 15.9949C14.1528 16.0081 14.1056 16.0167 14.0696 16.0314C14.0666 16.0419 14.0603 16.0647 14.0525 16.0909Z" fill="#9E9E9E"/>
<path d="M7.54128 17.043L7.31995 16.9227L7.30662 16.9378C7.29928 16.915 7.29178 16.892 7.28328 16.8653C7.23795 16.8608 7.18028 16.867 7.19845 16.7938C7.05062 16.7645 7.05062 16.7645 7.01845 16.712C6.99295 16.687 6.96845 16.661 6.94162 16.6377C6.92875 16.6286 6.91474 16.6213 6.89995 16.616C6.85562 16.5945 6.78445 16.616 6.77445 16.5367C6.77362 16.53 6.73912 16.5295 6.72178 16.5223C6.68445 16.5068 6.63195 16.5187 6.61962 16.4557C6.61662 16.4402 6.56962 16.4332 6.55028 16.4047C6.51512 16.386 6.48162 16.3613 6.44428 16.3503C6.40695 16.3393 6.36728 16.3425 6.36095 16.2888C6.36012 16.2802 6.33545 16.2747 6.32262 16.2663C6.30381 16.2514 6.28411 16.2377 6.26362 16.2252C6.21912 16.203 6.17295 16.184 6.11045 16.156L6.09578 16.1047L5.95245 16.089C5.94695 16.0688 5.94078 16.046 5.93578 16.028L5.70545 15.9065L5.69328 15.9217C5.68662 15.8987 5.67978 15.8758 5.67378 15.855C5.61245 15.8335 5.54978 15.8513 5.50245 15.7762C5.46778 15.7212 5.37178 15.7045 5.30245 15.6713C5.29278 15.6667 5.27312 15.6678 5.27178 15.6628C5.24978 15.5778 5.16478 15.6052 5.11912 15.572C5.08078 15.5443 5.04812 15.5072 5.00245 15.4845C4.95245 15.4603 4.90962 15.4243 4.84395 15.3805C4.83945 15.3017 4.74545 15.3428 4.68478 15.3223L4.69395 15.2985C4.65945 15.2818 4.62378 15.2663 4.59045 15.247C4.56095 15.2303 4.53445 15.2073 4.50578 15.1885C4.49072 15.1788 4.47476 15.1705 4.45812 15.1638C4.44345 15.1577 4.41528 15.1562 4.41428 15.1493C4.39762 15.0448 4.30862 15.0978 4.24945 15.066L4.23028 15.0023L4.08728 14.9875C4.08078 14.9647 4.07412 14.9417 4.06878 14.9235L3.82578 14.7968C3.83028 14.742 3.76978 14.7542 3.72462 14.74C3.69159 14.7286 3.66261 14.7078 3.64128 14.6802C3.52928 14.6612 3.44495 14.599 3.37295 14.5135C3.36095 14.4992 3.33278 14.498 3.31195 14.4918C3.27262 14.4802 3.21778 14.4918 3.21512 14.4252C3.21512 14.4185 3.18728 14.413 3.17245 14.4072C3.12728 14.3892 3.05412 14.4177 3.04878 14.3322C3.04878 14.3277 3.03045 14.3223 3.02012 14.3207C2.96428 14.311 2.92012 14.3092 2.87545 14.2458C2.83078 14.1825 2.72928 14.166 2.64212 14.1235C2.60428 13.9967 2.62545 13.9135 2.71662 13.8887C2.71945 13.8663 2.72245 13.8422 2.72562 13.8165C2.83512 13.8065 2.79028 13.7133 2.81662 13.6522L2.88245 13.634C2.8836 13.6025 2.88767 13.5711 2.89462 13.5403C2.90436 13.5192 2.91742 13.4997 2.93328 13.4827C2.94528 13.4673 2.95978 13.454 2.97145 13.4385C2.98728 13.4173 3.00195 13.395 3.01645 13.3718C3.02883 13.3553 3.03934 13.3375 3.04778 13.3187C3.06445 13.2747 3.03845 13.2067 3.11962 13.201C3.12495 13.201 3.12928 13.1773 3.13262 13.1643C3.14562 13.1133 3.12412 13.0452 3.20712 13.0292C3.21695 13.0272 3.22028 12.9845 3.22378 12.9602C3.23045 12.9215 3.22012 12.875 3.28145 12.8668C3.29095 12.8655 3.29578 12.8297 3.30278 12.8098C3.31778 12.7677 3.29495 12.7032 3.37078 12.6963C3.37628 12.6963 3.38245 12.6797 3.38462 12.6688C3.39795 12.6102 3.41212 12.5613 3.45662 12.5075C3.51795 12.4337 3.53045 12.3203 3.56795 12.2255C3.58178 12.1905 3.60728 12.1603 3.62645 12.1273C3.63674 12.1119 3.64466 12.0951 3.64995 12.0773C3.66162 12.0258 3.63512 11.9568 3.72078 11.9403C3.72945 11.9388 3.73028 11.8958 3.73462 11.872C3.73945 11.8452 3.73995 11.7965 3.74962 11.7947C3.85662 11.7738 3.80328 11.6842 3.83145 11.6205L3.89545 11.597C3.89596 11.565 3.89953 11.5331 3.90612 11.5018C3.91412 11.4755 3.93628 11.4537 3.94878 11.4283C3.96538 11.4 3.97779 11.3695 3.98562 11.3377C3.99562 11.2807 3.97395 11.2142 4.05528 11.186C4.06928 11.1812 4.06978 11.1315 4.07195 11.1027C4.07695 11.0543 4.07328 11.0017 4.14762 11.0143C4.15195 10.9698 4.15462 10.934 4.15945 10.8977C4.16145 10.882 4.16645 10.8543 4.17245 10.8535C4.25862 10.8438 4.22812 10.7738 4.24012 10.7265C4.24345 10.7132 4.23912 10.6895 4.24528 10.6868C4.34078 10.6457 4.32178 10.5535 4.33295 10.4802C4.34178 10.4217 4.38295 10.423 4.41628 10.4242C4.44478 10.4242 4.47362 10.4465 4.50045 10.4622C4.51278 10.4695 4.51828 10.4888 4.53078 10.4955C4.59545 10.5325 4.66278 10.565 4.72545 10.605C4.74212 10.6157 4.74545 10.6473 4.76445 10.6583L4.86845 10.7492C4.93595 10.746 4.95178 10.9077 5.06995 10.8378C5.07895 10.8742 5.08478 10.897 5.08912 10.9137L5.30578 11.0372L5.30745 11.0395C5.34078 11.0602 5.39078 11.0728 5.40512 11.1028C5.44262 11.1782 5.50745 11.1812 5.57378 11.1902C5.58728 11.3035 5.74478 11.2385 5.76445 11.3442C5.84778 11.349 5.87995 11.4588 5.97545 11.4475C5.99212 11.4455 6.01495 11.4855 6.03112 11.51C6.08212 11.5405 6.14945 11.5122 6.19678 11.5958C6.23112 11.6568 6.34112 11.6752 6.43595 11.7217C6.43595 11.7217 6.44278 11.745 6.44862 11.7642C6.50528 11.7975 6.60395 11.7393 6.61245 11.8485L6.84078 11.9675L6.85562 11.9488C6.86262 11.9713 6.86962 11.994 6.87645 12.0167C6.92745 12.0522 7.03545 11.9872 7.03545 12.1122L7.10828 12.1248L7.09612 12.1415L7.18378 12.2248C7.21378 12.271 7.17345 12.3565 7.27145 12.376C7.27878 12.3775 7.28228 12.4103 7.28345 12.429C7.28695 12.4843 7.28212 12.541 7.29262 12.5957C7.30078 12.6378 7.32862 12.6758 7.34412 12.717C7.35535 12.7442 7.3621 12.7731 7.36412 12.8025C7.37212 13.0383 7.37578 13.2743 7.38662 13.51C7.38862 13.555 7.41828 13.5982 7.43145 13.6433C7.4399 13.6721 7.44449 13.7019 7.44512 13.7318C7.45378 14.1901 7.46206 14.6482 7.46995 15.1062C7.47095 15.1623 7.45795 15.2228 7.51745 15.265C7.52845 15.2727 7.52745 15.301 7.52778 15.32C7.53401 15.8726 7.53984 16.4251 7.54528 16.9777C7.54895 16.9928 7.54578 17.0065 7.54128 17.043Z" fill="#9E9E9E"/>
</svg>
