<svg width="40" height="40" viewBox="0 0 40 40" fill="none" xmlns="http://www.w3.org/2000/svg">
<path d="M10.7889 21.1583L10.5006 21.1293C10.4906 21.0406 10.4816 20.9596 10.4709 20.8676C10.4155 20.8615 10.3599 20.8582 10.3042 20.8576C10.2066 20.8619 10.1552 20.8216 10.1632 20.7216C10.1719 20.6126 10.1226 20.5783 10.0162 20.5759C9.8849 20.5733 9.75424 20.5493 9.61624 20.5336C9.60857 20.4466 9.60124 20.3669 9.5929 20.2699L9.31024 20.2526C9.30324 20.1646 9.29657 20.0789 9.28824 19.9763L9.00857 19.9583C9.00057 19.8716 8.99257 19.7866 8.9839 19.6916C8.86224 19.6776 8.7429 19.6479 8.62524 19.6546C8.46157 19.6636 8.40024 19.6019 8.4209 19.4443C8.42021 19.4197 8.4164 19.3953 8.40957 19.3716C8.37917 19.3617 8.34753 19.3561 8.31557 19.3549C8.18957 19.3693 8.1259 19.3249 8.13557 19.1883C8.14324 19.0793 8.08324 19.0393 7.9799 19.0529C7.87657 19.0666 7.8249 19.0196 7.83157 18.9119C7.83924 18.7953 7.79457 18.7413 7.66757 18.7453C7.62824 18.7453 7.5659 18.6786 7.55224 18.6323C7.5189 18.5226 7.5159 18.4049 7.48924 18.2933C7.48157 18.2599 7.43357 18.2119 7.40824 18.2143C7.22524 18.2316 7.18924 18.1316 7.20357 17.9809C7.20126 17.9534 7.19566 17.9262 7.1869 17.8999C6.95357 17.9439 6.87557 17.8283 6.92224 17.5916C6.67224 17.6333 6.56657 17.5373 6.63324 17.2999L6.36224 17.2699C6.34357 17.1539 6.3289 17.0456 6.30824 16.9386C6.26724 16.7229 6.2659 16.7233 6.04157 16.6949C6.03624 16.6076 6.0309 16.5159 6.02424 16.4069L5.75757 16.3883C5.74157 16.2703 5.71057 16.1549 5.71457 16.0439C5.72157 15.8563 5.6479 15.7749 5.4479 15.8179C5.43924 15.7053 5.4319 15.6086 5.42457 15.5149C5.1549 15.4523 5.1539 15.4523 5.13657 15.1613C5.13224 15.0846 5.13657 15.0069 5.13657 14.9116L4.83657 14.8806C4.83657 14.7316 4.83257 14.5836 4.83657 14.4359C4.8399 14.3413 4.8159 14.2833 4.70924 14.2933C4.60257 14.3033 4.56657 14.2489 4.5619 14.1459C4.5519 13.9196 4.5309 13.6939 4.51423 13.4709C4.50157 13.4616 4.49224 13.4489 4.48424 13.4499C4.28724 13.4706 4.2229 13.3806 4.24357 13.1899C4.2559 13.0769 4.23457 12.9599 4.2279 12.8376C4.17524 12.8316 4.1249 12.8393 4.09124 12.8189C4.04524 12.7909 3.9829 12.7453 3.9779 12.7013C3.95423 12.4926 3.94457 12.2819 3.93724 12.0716C3.93457 11.9813 3.92124 11.9163 3.81157 11.9259C3.71157 11.9349 3.67823 11.8899 3.67457 11.7899C3.66457 11.5019 3.63957 11.2143 3.6309 10.9263C3.62757 10.8196 3.60824 10.7539 3.4849 10.7636C3.3849 10.7713 3.3719 10.7069 3.36957 10.6243C3.3609 10.3243 3.3439 10.0243 3.33623 9.72594C3.3339 9.62594 3.32357 9.54794 3.19524 9.55761C3.09523 9.56561 3.07957 9.50461 3.07723 9.42027C3.0639 8.93194 3.0439 8.44361 3.03257 7.95561C3.0299 7.84227 3.0209 7.75861 2.8759 7.76161C2.85455 7.7561 2.83498 7.74516 2.81909 7.72986C2.8032 7.71456 2.79154 7.69541 2.78523 7.67427C2.7719 7.03061 2.7649 6.38661 2.75757 5.74261C2.75757 5.73294 2.76757 5.72327 2.78657 5.68927C2.91057 5.68927 3.0489 5.68427 3.18657 5.69094C3.2909 5.69594 3.34624 5.66427 3.33557 5.55227C3.32423 5.42927 3.39157 5.40727 3.49924 5.40794C3.69924 5.40794 3.89924 5.39127 4.09924 5.39261C4.2039 5.39261 4.24057 5.35161 4.23257 5.25461C4.22157 5.14461 4.27457 5.11227 4.38024 5.11161C4.5629 5.11161 4.7469 5.08361 4.9279 5.09027C5.0809 5.09594 5.14624 5.04694 5.1279 4.89294C5.13026 4.86824 5.1368 4.84412 5.14724 4.82161C5.38557 4.81027 5.6229 4.79527 5.86024 4.78827C5.95524 4.78594 6.0099 4.75994 6.00557 4.65694C6.0009 4.54527 6.06357 4.51994 6.1639 4.51927C6.36924 4.51927 6.57424 4.50094 6.77957 4.49994C6.87957 4.49994 6.9429 4.47794 6.9349 4.36361C6.92724 4.25494 6.99157 4.23994 7.08224 4.23794C7.38224 4.23061 7.68224 4.21261 7.98224 4.20661C8.08224 4.20461 8.14324 4.17794 8.1419 4.06861C8.14057 3.95927 8.20857 3.94794 8.29724 3.94561C8.87424 3.92994 9.45124 3.91027 10.0282 3.89427C10.1152 3.89161 10.1916 3.89427 10.2159 3.77994C10.2222 3.74927 10.2992 3.71327 10.3442 3.71327C11.5329 3.70972 12.7218 3.70972 13.9109 3.71327C13.9499 3.71327 14.0202 3.73627 14.0232 3.75627C14.0479 3.92294 14.1712 3.88961 14.2776 3.89327C14.7442 3.90827 15.2109 3.92661 15.6759 3.93661C15.7782 3.93894 15.8529 3.94961 15.8409 4.07761C15.8316 4.17761 15.8909 4.19494 15.9759 4.19794C16.2696 4.20827 16.5632 4.22861 16.8569 4.23727C16.9542 4.24027 17.0236 4.25427 17.0136 4.37061C17.0059 4.47494 17.0629 4.49827 17.1576 4.50061C17.3622 4.50561 17.5669 4.52761 17.7719 4.53161C17.8719 4.53361 17.9159 4.56961 17.9052 4.66894C17.8946 4.76827 17.9462 4.80494 18.0439 4.80061C18.1266 4.79661 18.2106 4.81394 18.2932 4.80894C18.4349 4.80094 18.5502 4.80894 18.5266 5.00294C18.5239 5.02727 18.5932 5.08161 18.6339 5.08661C18.7869 5.10427 18.9416 5.10727 19.0922 5.11561C19.1589 5.37661 19.1589 5.37661 19.4386 5.40261C19.6966 5.42627 19.6966 5.42627 19.7322 5.67861H20.2922C20.2969 5.63561 20.3019 5.59294 20.3066 5.54994C20.3112 5.50694 20.3146 5.47361 20.3202 5.42127L20.8636 5.39061C20.8722 5.37694 20.8839 5.36694 20.8832 5.35727C20.8629 5.15561 20.9686 5.09661 21.1499 5.11361C21.2099 5.11894 21.2722 5.09894 21.3322 5.10461C21.4479 5.11527 21.5146 5.08261 21.5059 4.95261C21.4989 4.85494 21.5606 4.83694 21.6442 4.83227C21.8776 4.81927 22.1076 4.79894 22.3402 4.78227C22.3466 4.77527 22.3609 4.76661 22.3602 4.75961C22.3379 4.55761 22.4399 4.50694 22.6236 4.52027C22.7549 4.52961 22.8902 4.50661 23.0216 4.49861C23.2509 4.48461 23.2509 4.48461 23.2942 4.24361L23.9492 4.21327C24.0376 4.20927 24.1266 4.19994 24.2159 4.20161C24.3542 4.20394 24.4909 4.21827 24.4826 4.00961C24.4826 3.98861 24.5739 3.94294 24.6239 3.94294C25.2122 3.92394 25.8009 3.90961 26.3906 3.89661C26.4959 3.89394 26.6016 3.89294 26.7066 3.88394C26.7469 3.88061 26.8166 3.86361 26.8206 3.84227C26.8539 3.68061 26.9742 3.70894 27.0809 3.70894C27.7306 3.70894 28.3809 3.71094 29.0306 3.70894C29.1189 3.70894 29.1912 3.70894 29.2176 3.82427C29.2249 3.85561 29.3132 3.88494 29.3656 3.88627C29.9482 3.90327 30.5322 3.91427 31.1142 3.92761C31.2029 3.92994 31.2922 3.94361 31.3809 3.93861C31.5056 3.93127 31.5809 3.95694 31.5832 4.10527C31.5832 4.13561 31.6752 4.18994 31.7259 4.19094C32.0686 4.19861 32.4119 4.19494 32.7566 4.19494C32.7726 4.27761 32.7872 4.31427 32.7856 4.35027C32.7802 4.45261 32.8276 4.48361 32.9256 4.48361C33.1858 4.4905 33.4459 4.50338 33.7059 4.52227C33.9452 4.53927 33.9449 4.54361 33.9996 4.80827C34.2209 4.80827 34.4519 4.81194 34.6832 4.80827C34.7986 4.80561 34.8832 4.82061 34.8679 4.96627C34.8586 5.06061 34.9112 5.08794 35.0012 5.08961C35.1679 5.09227 35.3346 5.11561 35.4992 5.11261C35.6786 5.10927 35.8066 5.13894 35.7232 5.40361C35.9542 5.40361 36.1519 5.39761 36.3492 5.40361C36.6182 5.41361 36.6179 5.41794 36.6662 5.68427H37.2422C37.2422 5.86594 37.2449 6.02461 37.2422 6.18427C37.2329 6.65594 37.2189 7.12761 37.2116 7.59961C37.2116 7.70561 37.1869 7.77094 37.0649 7.76627C36.9429 7.76161 36.9569 7.84794 36.9552 7.92761C36.9432 8.41594 36.9279 8.90427 36.9189 9.39427C36.9169 9.50327 36.8856 9.56494 36.7666 9.55494C36.6666 9.54661 36.6512 9.60761 36.6506 9.69161C36.6472 9.98028 36.6292 10.2693 36.6356 10.5583C36.6392 10.7099 36.5942 10.7766 36.4406 10.7609C36.4202 10.7589 36.3982 10.7706 36.3299 10.7876C36.3299 11.0989 36.3259 11.4189 36.3319 11.7389C36.3339 11.8609 36.3086 11.9339 36.1676 11.9179C36.0692 11.9066 36.0499 11.9669 36.0489 12.0529C36.0469 12.2413 36.0256 12.4303 36.0336 12.6179C36.0396 12.7709 35.9906 12.8369 35.8359 12.8179C35.8058 12.8201 35.7762 12.8261 35.7476 12.8356V13.4003C35.4716 13.4669 35.4709 13.4669 35.4476 13.7493C35.4406 13.8433 35.4359 13.9376 35.4356 14.0316C35.4356 14.1766 35.4392 14.3179 35.2239 14.2949C35.2042 14.2926 35.1609 14.3633 35.1572 14.4039C35.1415 14.5191 35.1344 14.6354 35.1359 14.7516C35.1359 14.8516 35.1026 14.8983 35.0006 14.8873C34.8786 14.8739 34.8506 14.9386 34.8522 15.0473C34.8537 15.1579 34.8451 15.2685 34.8266 15.3776C34.8202 15.4153 34.7706 15.4776 34.7469 15.4756C34.5492 15.4533 34.5469 15.5756 34.5542 15.7136C34.5525 15.7404 34.5483 15.7669 34.5419 15.7929L34.2939 15.8186C34.2749 16.0053 34.2569 16.1853 34.2372 16.3806L33.9802 16.3996C33.9726 16.4889 33.9946 16.5996 33.9496 16.6546C33.9046 16.7096 33.7942 16.7036 33.7002 16.7279C33.6856 16.8356 33.6539 16.9549 33.6566 17.0736C33.6602 17.2246 33.6059 17.2899 33.4566 17.2756C33.4306 17.278 33.4052 17.2841 33.3809 17.2936C33.3759 17.3806 33.3706 17.4676 33.3646 17.5706L33.0872 17.5953C33.0829 17.6833 33.0782 17.7699 33.0732 17.8709L32.7926 17.9043C32.7864 17.9497 32.7839 17.9955 32.7849 18.0413C32.7969 18.1539 32.7566 18.2123 32.6372 18.1969C32.5179 18.1816 32.4779 18.2423 32.4912 18.3529C32.5046 18.4636 32.4526 18.5079 32.3472 18.5003C32.2419 18.4926 32.2066 18.5446 32.2122 18.6406C32.2189 18.7559 32.1586 18.8023 32.0492 18.7959C31.9492 18.7899 31.9072 18.8389 31.9119 18.9359C31.9172 19.0416 31.8682 19.0916 31.7612 19.0783C31.6392 19.0633 31.6142 19.1283 31.6082 19.2359C31.6056 19.2833 31.5416 19.3693 31.5119 19.3656C31.3269 19.3423 31.2902 19.4363 31.3052 19.5889C31.3025 19.6121 31.2959 19.6346 31.2859 19.6556L31.0156 19.6759C31.0052 19.7693 30.9959 19.8556 30.9856 19.9489L30.7112 19.9686C30.7016 20.0619 30.6929 20.1479 30.6829 20.2439C30.6324 20.2508 30.5815 20.2537 30.5306 20.2526C30.4242 20.2423 30.3729 20.2836 30.3806 20.3923C30.3876 20.4923 30.3412 20.5256 30.2429 20.5313C30.1062 20.5383 29.9709 20.5646 29.8266 20.5819C29.8196 20.6659 29.8126 20.7486 29.8049 20.8373L29.5142 20.8613C29.5079 20.9453 29.5022 21.0209 29.4966 21.0946C29.4849 21.1039 29.4772 21.1156 29.4679 21.1169C29.2056 21.1573 29.2049 21.1573 29.2012 21.4329C29.1992 21.6776 29.1962 21.9219 29.1982 22.1663C29.1982 22.2603 29.1879 22.3329 29.0689 22.3309C28.9619 22.3286 28.9449 22.3996 28.9432 22.4866C28.9309 23.0749 28.9149 23.6633 28.9062 24.2533C28.9062 24.3679 28.8959 24.4456 28.7506 24.4449C28.7172 24.4449 28.6569 24.5286 28.6529 24.5783C28.6272 24.9153 28.6132 25.2533 28.5946 25.6036C28.5553 25.6158 28.5148 25.6242 28.4739 25.6286C28.3819 25.6309 28.3506 25.6766 28.3459 25.7646C28.3329 26.0069 28.3126 26.2489 28.2956 26.4979C28.2629 26.5063 28.2293 26.511 28.1956 26.5119C28.0866 26.5026 28.0532 26.5509 28.0486 26.6573C28.0379 26.8943 28.0132 27.1303 27.9922 27.3879C27.7332 27.3326 27.7209 27.4999 27.7282 27.6879C27.7299 27.7376 27.7152 27.7879 27.7199 27.8369C27.7306 27.9539 27.6959 28.0199 27.5649 28.0036C27.4819 27.9943 27.4446 28.0323 27.4442 28.1189C27.4442 28.1959 27.4209 28.2733 27.4236 28.3499C27.4289 28.4999 27.4296 28.6339 27.2159 28.6109C27.1979 28.6089 27.1619 28.6689 27.1532 28.7049C27.1363 28.7692 27.1292 28.8356 27.1322 28.9019C27.1462 29.0969 27.0989 29.2299 26.8599 29.1753C26.8446 29.3199 26.8166 29.4459 26.8219 29.5709C26.8282 29.7263 26.7686 29.7826 26.6199 29.7619C26.5958 29.7629 26.5721 29.7673 26.5492 29.7749C26.5426 29.8709 26.5366 29.9626 26.5296 30.0636L26.2629 30.0816C26.2519 30.2083 26.2272 30.3339 26.2336 30.4579C26.2412 30.6076 26.1979 30.6803 26.0396 30.6559C26.0087 30.6559 25.978 30.6594 25.9479 30.6663C25.9432 30.7576 25.9389 30.8446 25.9339 30.9493L25.6589 30.9709C25.6522 31.0639 25.6452 31.1553 25.6376 31.2579L25.3686 31.2859C25.3549 31.4289 25.3476 31.5663 25.3252 31.7016C25.3182 31.7443 25.2669 31.8163 25.2429 31.8136C25.0429 31.7903 25.0232 31.9076 25.0352 32.0583C25.0329 32.081 25.028 32.1034 25.0206 32.1249C24.7956 32.0819 24.6922 32.1796 24.7496 32.4353C24.5012 32.3873 24.3929 32.4796 24.4472 32.7216L24.1676 32.7436C24.1596 32.8323 24.1516 32.9186 24.1419 33.0213L23.8752 33.0423C23.8672 33.1363 23.8602 33.2226 23.8519 33.3229L23.5766 33.3399C23.5649 33.4333 23.5539 33.5236 23.5432 33.6203L23.2799 33.6369C23.2719 33.7293 23.2646 33.8153 23.2556 33.9156L22.9719 33.9343C23.0052 34.1519 22.9409 34.2856 22.6849 34.2153C22.6703 34.2607 22.6605 34.3075 22.6556 34.3549C22.6556 34.4623 22.6076 34.4983 22.5032 34.5016C22.3936 34.507 22.2848 34.523 22.1782 34.5493C22.1449 34.5566 22.0982 34.6073 22.1012 34.6326C22.1256 34.8203 22.0206 34.8473 21.8726 34.8326C21.8465 34.8344 21.8208 34.8392 21.7959 34.8469C21.7902 34.9286 21.7842 35.0096 21.7772 35.1069L21.4926 35.1366C21.4852 35.2216 21.4782 35.3033 21.4696 35.4009C21.2792 35.3866 21.1049 35.4009 21.1776 35.6723C21.0259 35.6923 20.8912 35.7196 20.7552 35.7253C20.6482 35.7296 20.6119 35.7669 20.6066 35.8733C20.6039 35.9203 20.5399 36.0066 20.5122 36.0033C20.3256 35.9819 20.2789 36.0723 20.2959 36.2343C20.2976 36.2489 20.2862 36.2649 20.2762 36.2933H19.6902C19.7622 36.0123 19.5472 36.0069 19.3802 36.0053C19.1736 36.0033 19.0626 35.9506 19.1222 35.7119L18.8222 35.6926C18.8149 35.6073 18.8076 35.5216 18.7989 35.4189C18.6169 35.4283 18.4292 35.4309 18.5159 35.1406C18.3246 35.1319 18.1026 35.1603 18.2082 34.8613C18.0416 34.8373 17.9009 34.8223 17.7619 34.7946C17.7189 34.7859 17.6472 34.7389 17.6496 34.7156C17.6672 34.5279 17.5616 34.5023 17.4162 34.5156C17.3892 34.512 17.3629 34.5042 17.3382 34.4926C17.3942 34.2556 17.2762 34.1826 17.0462 34.2313C17.0369 34.1273 17.0292 34.0413 17.0199 33.9393L16.7442 33.9219C16.7366 33.8306 16.7296 33.7446 16.7212 33.6443L16.4472 33.6256L16.4256 33.3463L16.1462 33.3289C16.1396 33.2413 16.1332 33.1553 16.1256 33.0506L15.8492 33.0283C15.8426 32.9406 15.8356 32.8503 15.8279 32.7506L15.5522 32.7289C15.5456 32.6366 15.5389 32.5499 15.5319 32.4519L15.2526 32.4303C15.2469 32.3413 15.2419 32.2546 15.2356 32.1493L14.9662 32.1276C14.9566 32.0914 14.9515 32.0541 14.9509 32.0166C14.9649 31.8876 14.9296 31.8166 14.7812 31.8259C14.7456 31.8279 14.6902 31.7676 14.6719 31.7239C14.6453 31.6572 14.6323 31.5858 14.6336 31.5139C14.6359 31.3639 14.6172 31.2473 14.4199 31.2739C14.3979 31.2766 14.3532 31.2119 14.3436 31.1739C14.3306 31.1169 14.3402 31.0546 14.3402 30.9696C14.0796 31.0283 14.0126 30.8969 14.0522 30.6753L13.7926 30.6519C13.7729 30.5363 13.7339 30.4276 13.7412 30.3219C13.7546 30.1259 13.6789 30.0446 13.4769 30.0829C13.4672 29.9739 13.4589 29.8829 13.4496 29.7793L13.1919 29.7609C13.1749 29.6343 13.1462 29.5103 13.1446 29.3856C13.1429 29.2609 13.1129 29.1856 12.9686 29.1906C12.9352 29.1906 12.8732 29.1339 12.8762 29.1093C12.9012 28.9043 12.8206 28.8169 12.5979 28.8679C12.5879 28.7263 12.5646 28.6013 12.5742 28.4766C12.5852 28.3209 12.5389 28.2453 12.3742 28.2669C12.3462 28.2657 12.3185 28.2611 12.2916 28.2533C12.2846 28.1076 12.2709 27.9599 12.2726 27.8123C12.2726 27.7123 12.2392 27.6629 12.1392 27.6713C12.0099 27.6823 11.9829 27.6179 11.9826 27.5009C11.9826 27.2799 11.9659 27.0589 11.9556 26.8236L11.6912 26.7979C11.6809 26.5646 11.6649 26.3349 11.6629 26.1046C11.6629 25.9906 11.6396 25.9213 11.5089 25.9303C11.4072 25.9369 11.3792 25.8816 11.3802 25.7849C11.3819 25.5739 11.3682 25.3629 11.3702 25.1516C11.3702 25.0516 11.3466 24.9899 11.2336 24.9966C11.1366 25.0026 11.1139 24.9463 11.1116 24.8606C11.0976 24.3726 11.0782 23.8849 11.0656 23.3969C11.0632 23.2969 11.0562 23.2206 10.9272 23.2259C10.8092 23.2306 10.8196 23.1409 10.8182 23.0626C10.8082 22.4848 10.7981 21.9071 10.7879 21.3293C10.7879 21.2723 10.7889 21.2183 10.7889 21.1583ZM22.9909 14.5953C22.9732 14.4403 22.9646 14.2953 22.9366 14.1559C22.9279 14.1129 22.8649 14.0476 22.8292 14.0489C22.6876 14.0549 22.6566 13.9869 22.6682 13.8659C22.6683 13.822 22.6644 13.7782 22.6566 13.7349L22.3862 13.7103C22.3811 13.6789 22.3787 13.6471 22.3792 13.6153C22.3966 13.4736 22.3709 13.3756 22.1929 13.3863C22.1656 13.3879 22.1152 13.3173 22.1072 13.2743C22.0816 13.1346 22.0702 12.9923 22.0526 12.8459L21.7836 12.8263C21.7772 12.7203 21.7716 12.6293 21.7662 12.5389L21.4946 12.5209C21.4872 12.4183 21.4806 12.3273 21.4739 12.2343L21.1906 12.2129C21.2609 11.9646 21.1456 11.8839 20.9072 11.9229C20.9536 11.6796 20.8586 11.5769 20.6096 11.6259C20.6669 11.3659 20.5489 11.2799 20.3319 11.3169C20.2929 11.0303 20.2929 11.0299 20.0086 11.0283C19.9529 11.0283 19.8969 11.0316 19.8419 11.0266C19.7236 11.0166 19.6602 11.0623 19.6689 11.1863C19.6756 11.2863 19.6306 11.3313 19.5309 11.3196C19.4199 11.3066 19.3812 11.3596 19.3889 11.4656C19.388 11.5207 19.3828 11.5757 19.3732 11.6299C19.0899 11.5466 19.0762 11.7276 19.0926 11.9163L18.8086 11.9369C18.8016 12.0393 18.7956 12.1259 18.7896 12.2179L18.5136 12.2383C18.5066 12.3383 18.5006 12.4309 18.4946 12.5226L18.2196 12.5436C18.2129 12.6483 18.2076 12.7346 18.2019 12.8266L17.9306 12.8479C17.9169 13.0003 17.9116 13.1386 17.8879 13.2736C17.8802 13.3176 17.8212 13.3873 17.7879 13.3859C17.6212 13.3796 17.5902 13.4686 17.6042 13.6059C17.6036 13.6408 17.5995 13.6756 17.5919 13.7096L17.3399 13.7356C17.332 13.764 17.3273 13.7932 17.3259 13.8226C17.3356 13.9593 17.3216 14.0696 17.1372 14.0503C17.1119 14.0476 17.0612 14.0969 17.0552 14.1286C17.0314 14.2419 17.0179 14.3572 17.0149 14.4729C17.0149 14.5766 16.9869 14.6339 16.8746 14.6216C16.7622 14.6093 16.7346 14.6639 16.7329 14.7683C16.7306 14.9096 16.7086 15.0503 16.6956 15.1873L16.4459 15.2143C16.4376 15.3316 16.4156 15.4376 16.4256 15.5403C16.4452 15.7376 16.3719 15.8286 16.1709 15.8069C16.1636 15.8069 16.1549 15.8209 16.1426 15.8323C16.1342 16.0149 16.1256 16.2016 16.1172 16.3883C16.0925 16.3979 16.0664 16.4038 16.0399 16.4056C15.8806 16.3829 15.8399 16.4583 15.8469 16.6056C15.8539 16.7529 15.8342 16.8936 15.8282 17.0389C15.8186 17.2799 15.8192 17.2799 15.5882 17.3113C15.5789 17.3113 15.5709 17.3233 15.5216 17.3586C15.5216 17.6453 15.5176 17.9606 15.5236 18.2759C15.5259 18.3979 15.5002 18.4666 15.3592 18.4589C15.3216 18.4569 15.2489 18.5083 15.2472 18.5386C15.2359 18.7079 15.2419 18.8783 15.2419 19.0473C15.4996 19.0666 15.7369 19.0789 15.9722 19.1073C16.0182 19.1126 16.0889 19.1776 16.0929 19.2203C16.1036 19.3379 16.1552 19.3639 16.2642 19.3656C16.5642 19.3699 16.8626 19.3876 17.1622 19.3989C17.2462 19.4016 17.3052 19.4256 17.3006 19.5219C17.2952 19.6319 17.3492 19.6603 17.4532 19.6603C19.0477 19.6576 20.6418 19.6576 22.2356 19.6603C22.3306 19.6603 22.3869 19.6386 22.3786 19.5329C22.3702 19.4273 22.4286 19.4019 22.5216 19.3996C22.9099 19.3876 23.2976 19.3686 23.6859 19.3586C23.7859 19.3563 23.8506 19.3396 23.8416 19.2236C23.8326 19.1076 23.8902 19.0723 24.0026 19.0756C24.2396 19.0826 24.4769 19.0779 24.7359 19.0779C24.7359 18.7113 24.7329 18.3803 24.7379 18.0496C24.7379 17.9409 24.7132 17.8779 24.5912 17.8886C24.5019 17.8966 24.4639 17.8553 24.4616 17.7626C24.4566 17.5576 24.4369 17.3529 24.4316 17.1479C24.4292 17.0556 24.4119 16.9939 24.3036 17.0059C24.1952 17.0179 24.1576 16.9619 24.1632 16.8576C24.1669 16.7863 24.1429 16.7126 24.1516 16.6426C24.1752 16.4549 24.1109 16.3606 23.9119 16.3843C23.9046 16.3843 23.8956 16.3713 23.8852 16.3623C23.8772 16.2596 23.8519 16.1529 23.8646 16.0509C23.8879 15.8553 23.8259 15.7579 23.6192 15.7803C23.6112 15.7803 23.6019 15.7683 23.5899 15.7589C23.5802 15.6573 23.5506 15.5503 23.5646 15.4496C23.5939 15.2403 23.5046 15.1696 23.3112 15.1853C23.3039 15.1853 23.2952 15.1723 23.2832 15.1616C23.2789 15.0823 23.2782 14.9989 23.2692 14.9169C23.2436 14.6469 23.2422 14.6473 22.9909 14.5953ZM15.5529 24.7439C15.5529 24.9729 15.5566 25.2003 15.5529 25.4276C15.5502 25.5349 15.5739 25.6026 15.6986 25.5879C15.8126 25.5746 15.8369 25.6353 15.8356 25.7376C15.8356 25.8856 15.8476 26.0336 15.8549 26.1813C15.881 26.1887 15.9078 26.1929 15.9349 26.1939C16.0849 26.1736 16.1436 26.2296 16.1319 26.3873C16.1222 26.5169 16.1449 26.6493 16.1536 26.7849L16.4179 26.8069C16.4296 27.0019 16.4406 27.1873 16.4512 27.3923C16.6872 27.3396 16.7492 27.4516 16.7259 27.6513C16.7199 27.7043 16.7489 27.7609 16.7459 27.8149C16.7402 27.9203 16.7772 27.9719 16.8876 27.9639C16.9876 27.9566 17.0346 28.0063 17.0209 28.1046C17.0006 28.2499 17.0569 28.3123 17.2049 28.2939C17.2349 28.2952 17.2645 28.3018 17.2922 28.3133C17.3136 28.4599 17.3256 28.5979 17.3589 28.7306C17.3702 28.7773 17.4322 28.8433 17.4732 28.8449C17.5892 28.8493 17.6399 28.8943 17.6259 29.0066C17.6122 29.1286 17.6592 29.1826 17.7866 29.1676C17.8256 29.168 17.8644 29.1732 17.9022 29.1829C17.9099 29.2776 17.9169 29.3643 17.9246 29.4606L18.1989 29.4839C18.2059 29.5779 18.2122 29.6643 18.2196 29.7586L18.4976 29.7866C18.5039 29.8866 18.5096 29.9736 18.5152 30.0626L18.7952 30.0803C18.8006 30.1836 18.8056 30.2743 18.8102 30.3639L19.0949 30.3793C19.1009 30.4793 19.1062 30.5663 19.1122 30.6593L19.3909 30.6789C19.3976 30.7729 19.4039 30.8589 19.4106 30.9526L19.6872 30.9753C19.6956 31.0683 19.7036 31.1543 19.7132 31.2613H19.9982C20.2749 31.2613 20.2746 31.2613 20.3122 30.9976C20.3122 30.9886 20.3259 30.9813 20.3332 30.9733C20.5666 30.9523 20.5666 30.9523 20.6262 30.6766L20.8826 30.6586C20.8922 30.5563 20.9002 30.4703 20.9089 30.3773L21.1839 30.3623C21.1926 30.2596 21.1999 30.1733 21.2079 30.0796L21.4769 30.0593C21.4839 29.9569 21.4899 29.8703 21.4959 29.7803L21.7719 29.7613C21.7779 29.6593 21.7829 29.5733 21.7879 29.4823L22.0582 29.4593C22.0972 29.1926 22.0972 29.1926 22.3582 29.1403C22.3682 29.0069 22.3696 28.8676 22.3916 28.7329C22.3992 28.6869 22.4649 28.6143 22.5006 28.6163C22.6589 28.6259 22.6936 28.5496 22.6786 28.4143C22.6789 28.3764 22.6838 28.3387 22.6932 28.3019L22.9599 28.2753C22.9652 28.2422 22.968 28.2088 22.9682 28.1753C22.9559 28.0446 22.9682 27.9439 23.1449 27.9549C23.1742 27.9569 23.2286 27.8803 23.2372 27.8339C23.2636 27.6939 23.2729 27.5513 23.2892 27.4059C23.3176 27.399 23.3467 27.3955 23.3759 27.3956C23.5259 27.4169 23.5682 27.3499 23.5616 27.2063C23.5559 27.0766 23.5802 26.9453 23.5912 26.8156L23.8526 26.7929C23.8619 26.6293 23.8652 26.4799 23.8822 26.3323C23.8872 26.2899 23.9362 26.2149 23.9562 26.2176C24.1679 26.2476 24.1606 26.1143 24.1562 25.9723C24.1542 25.9006 24.1762 25.8286 24.1729 25.7573C24.1679 25.6546 24.1962 25.5956 24.3106 25.6079C24.4142 25.6193 24.4402 25.5663 24.4439 25.4699C24.4506 25.2699 24.4749 25.0726 24.4832 24.8736C24.4872 24.7833 24.5166 24.7363 24.6106 24.7433C24.7269 24.7516 24.7439 24.6839 24.7439 24.5863C24.7469 24.3813 24.7652 24.1763 24.7669 23.9713C24.7669 23.8666 24.8002 23.8206 24.9092 23.8179C24.9486 23.8179 25.0172 23.7663 25.0196 23.7346C25.0306 23.5713 25.0246 23.4066 25.0246 23.2479C25.0022 23.2383 24.9912 23.2299 24.9822 23.2299C24.4436 23.2336 23.9052 23.2359 23.3669 23.2473C23.3316 23.2473 23.2716 23.3189 23.2669 23.3606C23.2586 23.4723 23.2042 23.5016 23.1049 23.5003C23.0332 23.5003 22.9616 23.5173 22.8896 23.5173C20.8845 23.5173 18.8792 23.5173 16.8739 23.5173C16.7666 23.5173 16.7112 23.4896 16.7016 23.3706C16.6979 23.3263 16.6306 23.2516 16.5912 23.2509C16.0912 23.2406 15.5932 23.2419 15.0939 23.2386C15.0012 23.2386 14.9652 23.2813 14.9649 23.3719C14.9646 23.4626 14.9792 23.5266 15.0892 23.5256C15.139 23.5301 15.1882 23.5387 15.2366 23.5513C15.2366 23.8306 15.2316 24.1019 15.2366 24.3729C15.2486 24.6613 15.2532 24.6609 15.5529 24.7439ZM25.9559 11.6289C26.1559 11.6013 26.2816 11.6486 26.2416 11.8786C26.2379 11.8996 26.3219 11.9586 26.3676 11.9609C26.4759 11.9663 26.5102 12.0133 26.5142 12.1156C26.5196 12.2523 26.5389 12.3886 26.5526 12.5266C26.5759 12.5335 26.6 12.5372 26.6242 12.5376C26.7796 12.5143 26.8292 12.5823 26.8226 12.7333C26.8169 12.8583 26.8396 12.9846 26.8502 13.1143C26.873 13.1222 26.8968 13.1268 26.9209 13.1279C27.0719 13.1073 27.1262 13.1676 27.1182 13.3216C27.1112 13.4509 27.1376 13.5823 27.1492 13.7149L27.3976 13.7429C27.4076 13.8946 27.4236 14.0373 27.4242 14.1803C27.4242 14.2833 27.4546 14.3416 27.5656 14.3306C27.6766 14.3196 27.6989 14.3813 27.7032 14.4816C27.7086 14.6816 27.7319 14.8793 27.7406 15.0783C27.7439 15.1636 27.7766 15.2033 27.8606 15.1943C27.9812 15.1816 28.0062 15.2413 28.0086 15.3516C28.0126 15.5613 28.0299 15.7716 28.0529 15.9803C28.0572 16.0179 28.1096 16.0613 28.1499 16.0803C28.1902 16.0993 28.2436 16.0946 28.3166 16.1026V16.6863H28.8936C28.9022 16.5829 28.9099 16.4926 28.9179 16.4026L29.1969 16.3849C29.2029 16.2823 29.2079 16.1956 29.2136 16.0999L29.4919 16.0826C29.5002 15.9749 29.5072 15.8883 29.5156 15.7826C29.7652 15.8493 29.8179 15.7193 29.8036 15.5199C29.8002 15.4713 29.8219 15.4199 29.8176 15.3726C29.8069 15.2606 29.8572 15.2206 29.9619 15.2289C30.0779 15.2379 30.1232 15.1833 30.1106 15.0693C30.1092 15.022 30.1114 14.9746 30.1172 14.9276L30.3839 14.8999C30.3929 14.8726 30.3982 14.8441 30.3996 14.8153C30.3862 14.6759 30.4049 14.5729 30.5869 14.5893C30.6129 14.5916 30.6642 14.5226 30.6716 14.4806C30.6969 14.3356 30.7082 14.1876 30.7249 14.0399L30.9699 14.0179C30.9804 13.9855 30.9868 13.9519 30.9889 13.9179C30.9766 13.7776 31.0009 13.6769 31.1779 13.6846C31.2042 13.6846 31.2496 13.6129 31.2579 13.5689C31.2842 13.4246 31.2976 13.2776 31.3186 13.1133C31.5519 13.1816 31.5806 13.0539 31.5732 12.8749C31.5686 12.7626 31.5936 12.6489 31.6066 12.5196C31.8246 12.5659 31.8786 12.4686 31.8689 12.2793C31.8606 12.1203 31.8959 11.9596 31.9022 11.7996C31.9056 11.6996 31.9419 11.6536 32.0409 11.6609C32.1546 11.6693 32.1742 11.6086 32.1776 11.5076C32.1829 11.3033 32.1969 11.0986 32.2226 10.8959C32.2312 10.869 32.2465 10.8446 32.267 10.8251C32.2875 10.8056 32.3126 10.7915 32.3399 10.7843C32.4546 10.7779 32.4756 10.7246 32.4752 10.6249C32.4752 10.4249 32.4892 10.2249 32.4876 10.0249C32.4876 9.91528 32.5159 9.85327 32.6372 9.86727C32.7402 9.87894 32.7682 9.82794 32.7682 9.72961C32.7682 9.42428 32.7836 9.11928 32.7816 8.81394C32.7816 8.69928 32.8149 8.64728 32.9309 8.65861C33.0196 8.66694 33.0642 8.63161 33.0619 8.53461C33.0619 8.44461 33.0319 8.40561 32.9379 8.40127C32.7399 8.38961 32.5416 8.37427 32.3452 8.34627C32.2972 8.33927 32.2212 8.27961 32.2196 8.24127C32.2136 8.10261 32.1439 8.08061 32.0252 8.07994C31.7312 8.0775 31.4374 8.06772 31.1436 8.05061C31.0959 8.04761 31.0139 7.98894 31.0129 7.95427C31.0086 7.81427 30.9362 7.79561 30.8192 7.79361C30.2366 7.78361 29.6542 7.76594 29.0716 7.75427C28.9786 7.75227 28.9132 7.74394 28.9016 7.62594C28.8972 7.58361 28.8242 7.51494 28.7819 7.51427C28.1768 7.50739 27.5717 7.50739 26.9666 7.51427C26.9252 7.51427 26.8502 7.57527 26.8492 7.60961C26.8442 7.74561 26.7686 7.75394 26.6616 7.75594C26.1732 7.76461 25.6852 7.78127 25.1972 7.79194C25.1022 7.79394 25.0306 7.80761 25.0379 7.92527C25.0456 8.02927 24.9922 8.05394 24.8962 8.05661C24.6026 8.06461 24.3092 8.08594 24.0156 8.09361C23.9099 8.09627 23.8599 8.13127 23.8682 8.23927C23.8756 8.33927 23.8286 8.38594 23.7296 8.37627C23.6116 8.36527 23.5776 8.42027 23.5789 8.53361C23.5802 8.64694 23.6389 8.66394 23.7269 8.65494C23.8452 8.64261 23.8876 8.69861 23.8796 8.81094C23.8797 8.85199 23.8836 8.89294 23.8912 8.93327C23.9856 8.95527 24.0972 8.94894 24.1436 8.99994C24.1899 9.05094 24.1769 9.16361 24.1876 9.25194L24.4426 9.26861C24.4509 9.37361 24.4579 9.46061 24.4652 9.55061L24.7382 9.57261C24.7452 9.67561 24.7509 9.76261 24.7572 9.85461L25.0382 9.88028C25.0382 9.94694 25.0232 10.0073 25.0426 10.0539C25.0619 10.1006 25.1186 10.1716 25.1532 10.1686C25.3139 10.1546 25.3289 10.2329 25.3319 10.3663C25.3392 10.7093 25.3462 10.7089 25.6076 10.7563C25.6162 10.7579 25.6232 10.7699 25.6409 10.7876C25.5879 11.0059 25.6806 11.1113 25.9209 11.0663C25.9332 11.2576 25.9436 11.4279 25.9559 11.6289ZM9.59724 14.8939C9.61784 14.9033 9.63958 14.9099 9.6619 14.9136C9.8119 14.9026 9.91057 14.9373 9.8849 15.1219C9.87057 15.2263 9.9559 15.2343 10.0309 15.2313C10.1309 15.2269 10.1619 15.2696 10.1676 15.3689C10.1806 15.5032 10.2004 15.6367 10.2269 15.7689C10.4552 15.8083 10.4552 15.8083 10.5269 16.0823L10.7936 16.1026C10.7379 16.3323 10.8192 16.4506 11.0582 16.3943C11.1249 16.7036 11.1249 16.7036 11.4519 16.6683C11.4685 16.6659 11.4852 16.665 11.5019 16.6656C11.6286 16.6769 11.6599 16.6129 11.6612 16.4953C11.6632 16.2696 11.6809 16.0439 11.6922 15.8119L11.9866 15.7736C11.9866 15.5366 11.9909 15.3099 11.9846 15.0833C11.9819 14.9749 12.0209 14.9273 12.1289 14.9373C12.2529 14.9486 12.2736 14.8786 12.2722 14.7723C12.2706 14.6303 12.2842 14.4883 12.2912 14.3466C12.3239 14.3382 12.3575 14.3337 12.3912 14.3329C12.5449 14.3533 12.5806 14.2786 12.5722 14.1389C12.5646 14.0083 12.5822 13.8763 12.5889 13.7433C12.6198 13.7355 12.6514 13.7315 12.6832 13.7313C12.8336 13.7529 12.8759 13.6856 12.8672 13.5419C12.8592 13.4113 12.8792 13.2789 12.8869 13.1419C12.9164 13.1343 12.9467 13.1302 12.9772 13.1299C13.1296 13.1529 13.1672 13.0813 13.1612 12.9403C13.1559 12.8106 13.1789 12.6796 13.1916 12.5243C13.4439 12.6073 13.4852 12.4776 13.4656 12.2803C13.458 12.2141 13.4657 12.147 13.4882 12.0843C13.5076 12.0366 13.5622 11.9699 13.6016 11.9696C13.7389 11.9679 13.7789 11.9029 13.7632 11.7819C13.7476 11.6609 13.8046 11.6223 13.9169 11.6313C13.9544 11.6299 13.9915 11.6239 14.0276 11.6136C14.0442 11.4619 14.0529 11.3183 14.0796 11.1783C14.0876 11.1359 14.1479 11.0706 14.1812 11.0726C14.3289 11.0799 14.3652 11.0103 14.3512 10.8813C14.3514 10.8423 14.356 10.8035 14.3649 10.7656L14.6269 10.7353C14.6333 10.7154 14.6374 10.6948 14.6392 10.6739C14.6249 10.5186 14.6422 10.3949 14.8499 10.4109C14.8719 10.4109 14.9166 10.3353 14.9226 10.2903C14.9439 10.1553 14.9519 10.0183 14.9656 9.87761L15.2369 9.85694C15.2419 9.75127 15.2462 9.66027 15.2506 9.57027L15.5319 9.55028C15.5379 9.44794 15.5429 9.36127 15.5482 9.26827L15.8229 9.24728C15.8302 9.14728 15.8369 9.05527 15.8436 8.96627L16.0986 8.94527C16.1068 8.93082 16.113 8.91536 16.1172 8.89928C16.1172 8.75561 16.1106 8.61261 16.3282 8.64161C16.3476 8.64427 16.4026 8.55961 16.3969 8.52227C16.3899 8.47761 16.3416 8.41427 16.3006 8.40427C16.1576 8.37094 16.0099 8.35594 15.8402 8.33061C15.9146 8.07561 15.7536 8.07327 15.5736 8.07627C15.4019 8.07927 15.2296 8.06994 15.0582 8.05594C15.0152 8.05227 14.9379 8.00661 14.9399 7.98561C14.9559 7.79827 14.8399 7.79561 14.7066 7.79861C14.6296 7.80027 14.5522 7.78194 14.4732 7.78127C13.4626 7.77194 12.4519 7.75827 11.4399 7.75794C10.7732 7.75794 10.1066 7.77827 9.44157 7.78894C9.36157 7.78894 9.2749 7.78461 9.2749 7.89861C9.2769 8.02794 9.20824 8.04927 9.09624 8.05194C8.7249 8.06027 8.35357 8.08327 7.98224 8.09161C7.86224 8.09427 7.7869 8.11694 7.80357 8.25827C7.80254 8.28744 7.79726 8.3163 7.7879 8.34394C7.5469 8.35927 7.31057 8.37727 7.07357 8.38761C6.97657 8.39161 6.92924 8.42594 6.93657 8.52661C6.94323 8.58743 6.94323 8.64879 6.93657 8.70961C6.91057 8.88561 6.9699 8.98294 7.1599 8.97261C7.16724 8.97261 7.1759 8.98594 7.21357 9.02027C7.21357 9.24227 7.21357 9.49127 7.21357 9.74061C7.21357 9.82428 7.23157 9.88694 7.3319 9.87661C7.46524 9.86261 7.48357 9.93361 7.48724 10.0469C7.49657 10.3293 7.51557 10.6113 7.54057 10.8926C7.54457 10.9379 7.6009 11.0169 7.6299 11.0156C7.79657 11.0069 7.8049 11.1033 7.79657 11.2273C7.7919 11.3156 7.80924 11.4056 7.8019 11.4939C7.7919 11.6146 7.83257 11.6739 7.95824 11.6629C8.06124 11.6539 8.09157 11.7059 8.0889 11.8036C8.0889 11.9476 8.09424 12.0919 8.10624 12.2369C8.1279 12.4993 8.13024 12.4993 8.3859 12.5446C8.39624 12.7316 8.4069 12.9219 8.41924 13.1113L8.68324 13.1366C8.6939 13.2943 8.6959 13.4386 8.71657 13.5796C8.7229 13.6229 8.78324 13.6929 8.81657 13.6916C8.98324 13.6849 9.01424 13.7699 8.9989 13.9083C8.99935 13.9459 9.00428 13.9834 9.01357 14.0199C9.03724 14.0274 9.06178 14.0316 9.08657 14.0326C9.22824 14.0143 9.28657 14.0659 9.2809 14.2169C9.27624 14.3363 9.30524 14.4566 9.3219 14.5973C9.59224 14.5333 9.62024 14.7019 9.59724 14.8939Z" fill="#9E9E9E"/>
</svg>
