<svg width="40" height="40" viewBox="0 0 40 40" fill="none" xmlns="http://www.w3.org/2000/svg">
<path d="M27.7816 25.7183C27.652 25.291 27.528 24.8623 27.3913 24.4373C27.258 24.027 27.112 23.6216 26.9753 23.2126C26.9108 23.0217 26.7946 22.8525 26.6396 22.7237C26.1166 22.2743 25.52 21.9403 24.9063 21.635C22.6886 20.5287 20.3573 19.774 17.9043 19.4037C17.691 19.3703 17.4766 19.3453 17.2626 19.3183C17.192 19.3093 17.1206 19.3067 17.0333 19.3C17.0415 19.3354 17.0526 19.3701 17.0666 19.4037C18.1155 21.3592 19.1657 23.3148 20.2173 25.2703C20.3213 25.4652 20.4424 25.6503 20.5793 25.8236C20.7696 26.0616 21.0206 26.177 21.3383 26.1476C22.1316 26.074 22.926 26.0116 23.7196 25.9436C24.1163 25.9103 24.345 26.061 24.5023 26.422C24.9493 27.4483 25.4083 28.469 25.8583 29.494C26.0293 29.8836 26.303 30.1743 26.684 30.352C27.2506 30.6166 27.8253 30.8666 28.3993 31.1166C28.4863 31.1543 28.5406 31.194 28.563 31.2926C28.8301 32.4659 28.9922 33.6606 29.0473 34.8626C29.0463 34.8981 29.0432 34.9335 29.038 34.9686C25.6173 34.407 22.58 32.9646 19.73 31.0366C20.5223 30.3503 21.0043 29.4666 21.5 28.5886C17.18 30.8933 12.6493 31.7836 7.8213 30.7266L7.80164 30.6703C7.89964 30.5606 7.99864 30.4516 8.09564 30.341C9.09997 29.2 10.0213 28 10.7666 26.6666C11.2036 25.8853 11.47 25.037 11.7603 24.198C12.2333 22.8333 12.7173 21.4757 13.363 20.181C13.8553 19.193 14.4296 18.2563 15.137 17.4073C15.9966 16.3767 17.1093 15.731 18.367 15.313C18.9816 15.1083 19.6165 14.9706 20.2606 14.9023C20.3296 14.8967 20.3966 14.8762 20.457 14.8423C20.284 14.8423 20.1106 14.8423 19.9376 14.8423C19.7576 14.8423 19.5773 14.8423 19.3976 14.8493C18.3516 14.8903 17.3136 15.001 16.3186 15.342C15.899 15.4857 15.5046 15.7037 15.0966 15.8823C15.0513 15.9023 14.975 15.909 14.939 15.8823C14.1723 15.349 13.3143 15.031 12.4216 14.7897C12.3196 14.762 12.255 14.7803 12.181 14.8607C11.4503 15.6713 10.909 16.6007 10.4593 17.588C10.0451 18.5008 9.71287 19.4486 9.46664 20.4203C9.45657 20.4695 9.43421 20.5154 9.40164 20.5537C9.32397 20.247 9.24097 19.9417 9.16997 19.6333C8.8753 18.349 8.73897 17.0477 8.79897 15.7307C8.91764 13.1377 9.70564 10.7933 11.4123 8.79734C11.5593 8.62534 11.723 8.46801 11.8713 8.29734C11.9466 8.21101 12.0046 8.20668 12.1006 8.27234C13.0004 8.8779 13.9023 9.48034 14.8063 10.0797C14.851 10.1129 14.9032 10.1346 14.9583 10.143L13.2963 7.11335C13.3426 7.08001 13.3853 7.04668 13.4296 7.01601C14.505 6.29902 15.6763 5.80135 16.9246 5.47602C17.0373 5.44668 17.0776 5.48835 17.1246 5.57768C17.6991 6.69768 18.2752 7.81668 18.853 8.93468C18.8753 8.98596 18.9119 9.02979 18.9583 9.06101C18.8333 7.76668 18.708 6.47302 18.582 5.15735C18.9346 5.12602 19.282 5.08802 19.6276 5.06602C20.6445 5.00253 21.6651 5.03053 22.677 5.14968C22.8003 5.16402 22.8226 5.20035 22.818 5.32002C22.7746 6.40402 22.7383 7.48835 22.7033 8.57268C22.6996 8.68268 22.7183 8.79334 22.7293 8.93734C23.2233 7.74035 23.702 6.58135 24.186 5.40802C25.6097 5.71558 26.9851 6.21479 28.2746 6.89201C27.5003 7.79468 26.821 8.75334 26.1863 9.74767C26.3436 9.61868 26.4986 9.48701 26.6583 9.36134C27.5103 8.69068 28.4393 8.14435 29.4113 7.66968C29.461 7.64535 29.5476 7.64001 29.59 7.66735C30.5156 8.26735 31.38 8.94668 32.1403 9.75101C32.1576 9.76901 32.1713 9.79034 32.198 9.82467C32.1526 9.84267 32.1176 9.85801 32.0816 9.87067C30.2666 10.483 28.5106 11.2293 26.8763 12.2397C26.7763 12.3013 26.728 12.2513 26.6643 12.2C25.6416 11.3757 24.5043 10.7757 23.22 10.4777C21.2143 10.0127 19.2806 10.2633 17.4106 11.094C17.3873 11.1043 17.365 11.117 17.344 11.1297C17.33 11.1415 17.317 11.1543 17.305 11.168C17.563 11.1317 17.801 11.0943 18.0383 11.065C19.5153 10.883 20.9836 10.8887 22.4276 11.2983C23.5193 11.609 24.4943 12.1253 25.2866 12.957C25.3533 13.0273 25.416 13.102 25.4886 13.184C24.782 13.7473 24.115 14.3373 23.5993 15.076C23.9566 15.3837 24.3096 15.6733 24.647 15.98C25.4913 16.7467 26.2526 17.5867 26.8703 18.5517C27.3938 19.3688 27.7127 20.3001 27.8 21.2667C27.94 22.7 27.915 24.1333 27.8103 25.5666C27.8032 25.6168 27.7921 25.6663 27.777 25.7146L27.7816 25.7183Z" fill="#9E9E9E"/>
<path d="M27.7771 25.7137C27.7651 25.9637 27.7611 26.2137 27.7398 26.4634C27.7065 26.8467 27.6621 27.2301 27.6001 27.6121C27.4735 27.1634 27.3598 26.7121 27.2171 26.2674C26.9925 25.5674 26.7505 24.8764 26.5118 24.1824C26.3818 23.8037 26.1375 23.5311 25.7915 23.3157C24.6795 22.6261 23.4771 22.1627 22.2131 21.8537C21.6554 21.7174 21.0861 21.6277 20.5218 21.5174C20.4904 21.5133 20.4588 21.5111 20.4271 21.5107C20.4271 21.5337 20.4221 21.5504 20.4271 21.5617C20.7094 22.1201 20.9791 22.6857 21.2828 23.2321C21.3948 23.4321 21.5771 23.5987 21.7458 23.7654C21.9746 23.9866 22.2819 24.1078 22.6001 24.1024C23.3608 24.1024 24.1215 24.0946 24.8821 24.0791C25.0061 24.0767 25.0631 24.1124 25.1111 24.2221C25.6445 25.4401 26.1778 26.6591 26.7241 27.8711C26.8624 28.1685 27.0259 28.4535 27.2128 28.7231C27.3611 28.9414 27.5648 29.1114 27.8461 29.1507C27.8645 29.156 27.8815 29.1653 27.8958 29.178C27.9102 29.1907 27.9214 29.2064 27.9288 29.2241C28.1148 29.8107 28.2955 30.3984 28.4788 30.9857C28.4788 30.9897 28.4755 30.9951 28.4695 31.0094C28.4526 31.0088 28.4359 31.0053 28.4201 30.9991C27.8848 30.6541 27.3485 30.3104 26.8168 29.9604C26.6418 29.8454 26.5265 29.6814 26.4395 29.4857C25.9105 28.2937 25.3728 27.1057 24.8395 25.9161C24.6601 25.5161 24.3571 25.3317 23.9231 25.3667C23.1702 25.4269 22.4173 25.4887 21.6644 25.5521C21.3381 25.5797 21.0944 25.4414 20.9184 25.1801C20.8089 25.0186 20.7113 24.8494 20.6264 24.6737C19.9266 23.2155 19.2295 21.7559 18.5351 20.2951C18.5197 20.2617 18.5078 20.2284 18.4818 20.1677C18.7334 20.2177 18.9634 20.2604 19.1921 20.3094C20.9314 20.6821 22.6481 21.1331 24.2921 21.8234C25.0245 22.1304 25.7335 22.4827 26.3445 23.0004C26.4376 23.0802 26.5172 23.1745 26.5801 23.2797C27.0164 24.0127 27.3924 24.7799 27.7045 25.5737C27.7275 25.6237 27.7532 25.6725 27.7815 25.7197L27.7771 25.7137Z" fill="#9E9E9E"/>
</svg>
