<svg width="40" height="40" viewBox="0 0 40 40" fill="none" xmlns="http://www.w3.org/2000/svg">
<path d="M16.1747 18.459C15.6493 18.663 15.1237 18.8417 14.6187 19.0674C12.3207 20.0944 10.352 21.552 8.82999 23.5754C8.16333 24.4624 7.64866 25.4297 7.40999 26.5244C7.12399 27.8364 7.32199 29.0577 8.11899 30.1577C9.23733 31.7034 11.1093 32.1627 12.8147 31.3007C13.748 30.828 14.4337 30.1267 14.7147 29.0904C14.886 28.457 14.8237 27.8337 14.5683 27.235C14.2657 26.5257 13.6887 26.186 12.9463 26.1057C12.4644 26.0522 11.9767 26.1049 11.5173 26.26C11.605 26.256 11.693 26.2507 11.781 26.2477C12.681 26.2164 13.3477 26.76 13.4963 27.6437C13.692 28.8104 12.9443 29.9044 11.7843 30.1307C11.1867 30.2474 10.6423 30.0814 10.1393 29.764C8.59566 28.7934 8.06033 26.748 8.94666 25.1564C9.43633 24.2774 10.1503 23.612 11.072 23.2117C12.2287 22.7094 13.3667 22.8937 14.4387 23.4784C16.0027 24.3297 16.9927 25.6354 17.3417 27.3917C17.555 28.465 17.4 29.5077 16.9023 30.479C16.042 32.1577 14.7623 33.3644 12.8903 33.8237C11.1853 34.2424 9.57699 33.9237 8.09633 33.0161C6.26299 31.8897 5.19633 30.2327 4.86499 28.1097C4.60366 26.431 4.91633 24.8247 5.54566 23.27C6.47266 20.9794 7.76399 18.9257 9.56033 17.211C10.59 16.2277 11.7313 15.403 13.0427 14.829C13.1223 14.794 13.2043 14.7624 13.2853 14.731C13.2993 14.7254 13.315 14.7234 13.35 14.7144C13.9743 16.199 14.8667 17.4917 16.1747 18.459Z" fill="#9E9E9E"/>
<path d="M25.2248 20.7074C25.2741 20.4617 25.3248 20.2324 25.3664 20.0021C25.6201 18.6541 25.6691 17.2971 25.5498 15.9324C25.4294 14.5574 25.1408 13.2214 24.6164 11.9424C24.1584 10.8274 23.5531 9.80906 22.6424 8.99639C21.6951 8.15239 20.5928 7.75206 19.3174 7.83506C17.5304 7.95139 16.1507 9.22806 15.9044 11.0037C15.7787 11.9104 15.9097 12.7687 16.3994 13.5514C16.8994 14.3484 17.6364 14.7864 18.5614 14.8931C19.1821 14.9647 19.6984 14.7214 20.1151 14.2651C20.4864 13.8581 20.7118 13.3707 20.8768 12.8517C20.8801 12.8174 20.8801 12.7828 20.8768 12.7484C20.8311 12.8387 20.8048 12.8921 20.7768 12.9447C20.3207 13.8114 19.4434 14.1084 18.5521 13.6984C17.0241 12.9947 16.8227 10.9934 18.1854 10.0117C19.5964 8.99539 22.0581 9.18839 23.1501 11.1357C23.7238 12.1591 23.9398 13.2657 23.6221 14.4221C23.3618 15.3687 22.7534 16.0801 21.9348 16.5867C20.1174 17.7114 18.2201 17.8794 16.2921 16.8944C15.1021 16.2867 14.3564 15.2647 13.8767 14.0381C13.6034 13.3381 13.4284 12.6171 13.4157 11.8634C13.3887 10.2634 13.9417 8.87506 15.0351 7.72273C16.5241 6.15306 18.3704 5.43806 20.5311 5.58239C22.2718 5.69906 23.7474 6.44139 25.0458 7.57306C26.0488 8.44739 26.8241 9.50873 27.5321 10.6231C28.5734 12.2621 29.3544 14.0131 29.7788 15.9144C30.0264 17.0241 30.1418 18.1457 30.0704 19.2827C30.0588 19.4671 30.0274 19.6494 30.0131 19.8344C30.0048 19.9381 29.9658 19.9697 29.8584 19.9677C29.2881 19.9514 28.7171 19.9197 28.1478 19.9391C27.3061 19.9674 26.4811 20.1124 25.7061 20.4604C25.5481 20.5301 25.3974 20.6177 25.2248 20.7074Z" fill="#9E9E9E"/>
<path d="M18.5916 27.3886C18.6796 27.4676 18.7689 27.5493 18.8583 27.629C20.9363 29.4536 23.3249 30.6533 26.0476 31.153C27.3403 31.39 28.6356 31.409 29.9092 31.0143C31.1986 30.6143 32.1626 29.83 32.7249 28.5863C33.4986 26.8753 32.9889 25.053 31.4399 23.9863C30.7562 23.5163 30.0032 23.253 29.1659 23.2956C28.2279 23.3413 27.4829 23.7623 26.9343 24.517C26.6139 24.9573 26.5389 25.4576 26.6676 25.986C26.8196 26.6146 27.1816 27.1193 27.6343 27.568C27.6237 27.5428 27.6113 27.5184 27.5972 27.495C26.8306 26.4136 27.3439 25.3 28.4162 24.8503C29.8106 24.2653 31.2972 25.207 31.3719 26.717C31.4772 28.8416 29.6519 30.5646 27.5296 30.3363C26.6336 30.2396 25.8029 29.954 25.0963 29.378C24.3823 28.795 24.0099 28.0113 23.8486 27.119C23.4726 25.042 24.4773 22.7226 26.2443 21.5876C27.2659 20.931 28.3922 20.7113 29.5902 20.8183C30.5112 20.9006 31.3929 21.129 32.2006 21.5903C33.7102 22.4526 34.6309 23.762 35.0339 25.435C35.7266 28.3076 34.4972 31.2466 31.9436 32.874C30.8519 33.5693 29.6539 33.9816 28.3832 34.1866C27.0016 34.4123 25.5992 34.4846 24.2016 34.4023C22.1796 34.2803 20.2349 33.855 18.4349 32.891C18.0066 32.6613 17.6136 32.3656 17.2033 32.1023C17.1096 32.0423 17.1086 31.9866 17.1646 31.89C17.778 30.834 18.2413 29.7183 18.4523 28.51C18.5196 28.1433 18.5466 27.7703 18.5916 27.3886Z" fill="#9E9E9E"/>
</svg>
