<svg width="40" height="40" viewBox="0 0 40 40" fill="none" xmlns="http://www.w3.org/2000/svg">
<path d="M13.8554 23.7477L16.8757 24.7557L16.8971 24.7274L11.5667 19.5067C13.0621 23.1244 13.8474 26.9101 14.3001 30.7847C14.2744 30.7574 14.2464 30.7324 14.2237 30.703C12.5273 28.4893 10.6501 26.42 8.61141 24.5167C6.98275 22.9994 6.03008 21.1111 5.58242 18.9501C5.45227 18.3247 5.37963 17.6887 5.36542 17.0501C5.88975 17.9731 6.71408 18.5064 7.59208 18.9934C7.56441 18.9437 7.53741 18.8934 7.50841 18.8444C6.76141 17.5847 6.19708 16.2517 5.91008 14.8111C5.64342 13.4641 5.60042 12.1181 5.95042 10.7777C5.96242 10.7307 5.97975 10.6854 6.00308 10.6141C6.40308 11.9661 7.27641 12.9807 8.13641 14.0064L8.17308 13.9914C8.15941 13.9417 8.14674 13.8914 8.13141 13.8431C7.79374 12.7614 7.53874 11.6617 7.44541 10.5304C7.35541 9.44008 7.39675 8.35908 7.80741 7.32709C7.92408 7.03442 8.10741 6.76809 8.26241 6.49142C8.29312 6.44785 8.32807 6.40744 8.36674 6.37075C8.75074 8.38042 9.71541 10.1171 10.7284 11.8327L10.7711 11.8211C10.7344 11.5987 10.6967 11.3764 10.6611 11.1544C10.4374 9.75641 10.2774 8.35442 10.2994 6.93442C10.3207 5.58109 10.9211 4.54376 12.0381 3.79509C12.0924 3.75876 12.1501 3.72842 12.2361 3.67676C12.2207 5.37657 12.4051 7.0723 12.7854 8.72908C13.1674 10.3817 13.7187 11.9717 14.5607 13.4787C14.6044 13.4184 14.6347 13.3804 14.6607 13.3397C15.2697 12.3811 15.8737 11.4187 16.4904 10.4651C16.6656 10.1933 16.8619 9.93578 17.0774 9.69475C17.3241 9.42042 17.6531 9.28708 18.0244 9.27342C18.687 9.24875 19.35 9.21042 20.0127 9.21042C20.6654 9.21042 21.318 9.24875 21.9707 9.27408C22.3417 9.28875 22.668 9.42708 22.915 9.70175C23.1208 9.931 23.3081 10.1762 23.475 10.4351C24.094 11.3937 24.701 12.3597 25.3127 13.3231C25.342 13.3694 25.374 13.4141 25.4214 13.4834C26.2667 11.9754 26.8157 10.3857 27.2 8.73408C27.5816 7.07704 27.7663 5.38076 27.7504 3.68042C27.828 3.72409 27.882 3.75009 27.9317 3.78276C29.04 4.51942 29.6524 5.54109 29.6857 6.88275C29.716 8.11608 29.593 9.33708 29.4164 10.5544C29.3587 10.9511 29.288 11.3454 29.2247 11.7411C29.222 11.7846 29.222 11.8282 29.2247 11.8717C29.7641 11.0182 30.2474 10.1306 30.6717 9.21442C31.09 8.30808 31.4503 7.38109 31.613 6.35075C31.692 6.45075 31.7583 6.52742 31.813 6.60975C32.1977 7.18042 32.3893 7.82208 32.49 8.49375C32.6987 9.88541 32.5177 11.2511 32.1947 12.6044C32.084 13.0681 31.9487 13.5254 31.8257 13.9824C31.9817 13.8934 32.6543 13.0691 33.0823 12.4384C33.461 11.8804 33.8027 11.3051 33.999 10.6364C34.0343 10.7754 34.073 10.9137 34.104 11.0541C34.135 11.1944 34.167 11.3454 34.1883 11.4924C34.48 13.5184 34.0943 15.4414 33.2773 17.2907C33.0477 17.8111 32.758 18.3051 32.4953 18.8107C32.4603 18.8702 32.4313 18.9329 32.4087 18.9981C32.8476 18.7754 33.2604 18.5045 33.6393 18.1904C34.022 17.8757 34.3687 17.5287 34.596 17.0781L34.6363 17.0884C34.5993 17.4787 34.578 17.8711 34.5227 18.2587C34.2963 19.8511 33.779 21.3394 32.905 22.6967C32.4684 23.3714 31.9489 23.9887 31.3587 24.5341C29.3303 26.4254 27.4632 28.4827 25.7767 30.6844C25.7492 30.7226 25.7134 30.754 25.672 30.7764C26.1387 26.9097 26.9254 23.1241 28.423 19.5037L23.086 24.7294L23.1037 24.7577L26.1334 23.7474C26.0107 24.1504 25.897 24.5211 25.7844 24.8921C24.8615 27.9327 23.938 30.9736 23.014 34.0147C22.9367 34.2697 22.7807 34.471 22.5977 34.6537C22.09 35.1597 21.485 35.5304 20.8697 35.887C20.6164 36.0334 20.3554 36.167 20.094 36.2994C20.0464 36.3234 19.9697 36.3384 19.9274 36.3167C19.1227 35.9124 18.3397 35.4714 17.6431 34.8927C17.2701 34.5827 17.0261 34.2097 16.8827 33.7307C15.9051 30.4594 14.9027 27.1957 13.9084 23.9307C13.8931 23.8794 13.8794 23.8311 13.8554 23.7477ZM19.9947 9.19075C19.9514 9.28208 19.9247 9.33575 19.9 9.39075C19.2714 10.7685 18.6428 12.147 18.0144 13.5261C17.5087 14.6331 16.9971 15.7374 16.4964 16.8471C16.2557 17.3804 16.1574 17.9341 16.3394 18.5111C16.4594 18.8921 16.7014 19.2011 16.9374 19.5111C17.9754 20.8777 19.0374 22.2291 19.9557 23.6834C19.969 23.698 19.9841 23.7108 20.0007 23.7214C20.019 23.6981 20.032 23.6824 20.0437 23.6657C20.757 22.6597 21.4657 21.6501 22.1854 20.6487C22.5724 20.1104 22.9854 19.5904 23.3737 19.0531C23.6254 18.7103 23.7533 18.2923 23.7364 17.8674C23.7237 17.4527 23.5964 17.0714 23.426 16.7007C22.5834 14.8596 21.7414 13.019 20.9 11.1787C20.6034 10.5297 20.3087 9.88008 19.9947 9.19075Z" fill="#9E9E9E"/>
<path d="M19.9857 13.3386C20.1907 13.8086 20.3947 14.272 20.596 14.7386C20.9547 15.568 21.2987 16.4053 21.6743 17.2253C21.911 17.7426 21.8743 18.2073 21.5307 18.6546C21.0589 19.2706 20.5877 19.887 20.117 20.5037C20.0767 20.5563 20.039 20.6107 19.9837 20.688C19.4503 19.9756 18.917 19.269 18.3937 18.5546C18.102 18.1586 18.0897 17.7386 18.2877 17.288C18.8277 16.0616 19.3543 14.8296 19.8853 13.5996C19.9227 13.5143 19.953 13.4243 19.9857 13.3386Z" fill="#9E9E9E"/>
</svg>
