<svg width="40" height="40" viewBox="0 0 40 40" fill="none" xmlns="http://www.w3.org/2000/svg">
<path d="M22.3275 14.7485C21.9941 14.7692 21.6851 14.7765 21.3805 14.8088C19.3395 15.0252 17.4768 15.6845 15.9081 17.0505C14.5665 18.2202 13.7598 19.7035 13.3861 21.4342C13.0605 22.9425 13.0425 24.4632 13.1925 25.9912C13.2834 26.948 13.4489 27.8962 13.6875 28.8272C13.6948 28.8558 13.6958 28.8862 13.7045 28.9508C13.3711 28.8195 13.0535 28.7058 12.7451 28.5728C11.4611 28.0188 10.3031 27.2778 9.35414 26.2395C8.61848 25.4342 8.09748 24.5145 7.91481 23.4248C7.75881 22.4915 7.88148 21.5915 8.22281 20.7165C8.92581 18.9148 10.1228 17.4995 11.6605 16.3545C12.4606 15.7579 13.3319 15.2631 14.2541 14.8815C14.2926 14.8674 14.3284 14.847 14.3601 14.8212C12.3798 15.2978 10.6131 16.2098 9.02181 17.4702C7.44634 18.7161 6.10481 20.2321 5.05981 21.9475L5.01148 21.9392C5.01148 21.6035 4.99314 21.2668 5.01448 20.9328C5.13214 19.0995 5.83781 17.4878 6.87181 15.9922C7.69948 14.7948 8.84214 14.0472 10.1761 13.5485C11.4015 13.0905 12.6761 12.8468 13.9721 12.7105C15.0571 12.5965 16.1488 12.5608 17.2388 12.6038C17.2576 12.5997 17.2759 12.5938 17.2935 12.5862C17.2315 12.5528 17.1861 12.5238 17.1391 12.4998C16.1988 12.0245 15.1985 11.7445 14.1591 11.5998C11.9091 11.2835 9.68848 11.4998 7.48414 11.9842C7.32423 12.0254 7.16108 12.053 6.99648 12.0665C7.16748 11.8518 7.32981 11.6292 7.51114 11.4238C8.29048 10.5422 9.25181 9.90917 10.3078 9.4115C11.2047 8.98709 12.1495 8.67248 13.1218 8.4745C13.1864 8.45991 13.2534 8.45878 13.3185 8.47117C17.0665 9.31883 19.9888 11.3835 22.1805 14.5168C22.2271 14.5838 22.2665 14.6545 22.3275 14.7485Z" fill="#9E9E9E"/>
<path d="M34.9955 17.7118C34.8175 17.9451 34.6622 18.1761 34.4822 18.3821C33.5705 19.4185 32.4122 20.0515 31.0979 20.4201C30.7919 20.5058 30.4779 20.5631 30.1679 20.6341C30.0679 20.6568 30.0072 20.6378 29.9465 20.5361C29.5485 19.8695 28.9295 19.4918 28.2152 19.2508C27.4185 18.9841 26.5945 18.9261 25.7635 18.9928C25.2225 19.0361 24.6849 19.1171 24.1569 19.1798C24.2005 18.9341 24.2625 18.6755 24.2902 18.4131C24.3959 17.4191 24.0965 16.5585 23.4135 15.8291C23.3676 15.7825 23.3338 15.7252 23.3152 15.6625C23.0309 14.4875 22.4962 13.4291 21.8122 12.4418C20.5852 10.6701 18.9762 9.32412 17.1122 8.26845C15.2422 7.20845 13.2339 6.51578 11.1455 6.04111C10.9539 6.00208 10.7647 5.95199 10.5789 5.89111C10.9375 5.91411 11.2972 5.92978 11.6555 5.96145C13.2219 6.09919 14.7757 6.35435 16.3039 6.72478C19.7979 7.57278 23.0632 8.93545 25.9875 11.0581C27.3983 12.0771 28.6776 13.2667 29.7962 14.5998C29.8295 14.6391 29.8609 14.6795 29.8999 14.7271C29.8769 14.7605 29.8549 14.7921 29.8312 14.8231C29.4852 15.2721 29.4585 15.7955 29.7725 16.2718C30.1005 16.7701 30.5699 17.0941 31.1159 17.3135C31.8759 17.6191 32.6759 17.7165 33.4852 17.7368C33.9722 17.7485 34.4602 17.7218 34.9955 17.7118ZM26.3552 12.9221C26.351 12.9417 26.349 12.9617 26.3492 12.9818C26.4219 13.5675 26.5572 14.1335 26.8752 14.6405C27.0852 14.9738 27.3592 15.2405 27.7372 15.3768C27.8629 15.4221 27.9979 15.4405 28.1309 15.4718C28.2595 14.4248 27.2962 13.3635 26.3552 12.9221Z" fill="#9E9E9E"/>
<path d="M24.322 34.1085C23.402 33.0485 22.2143 32.3865 21.0317 31.7249C19.448 30.8389 17.7983 30.0845 16.1273 29.3815C16.0707 29.3618 16.0196 29.3287 15.9784 29.285C15.9372 29.2414 15.9071 29.1886 15.8906 29.1309C15.3956 27.6415 15.0046 26.1269 14.7906 24.5705C14.6413 23.4822 14.576 22.3902 14.7626 21.2989C14.9836 20.0099 15.6223 18.9469 16.552 18.0469C17.1746 17.4453 17.8882 16.9458 18.6666 16.5669C18.7073 16.5469 18.749 16.5295 18.8263 16.4949C18.7733 16.5675 18.7433 16.6102 18.7116 16.6519C17.974 17.6162 17.8346 18.6735 18.2263 19.8105C18.2596 19.9025 18.2596 19.9642 18.1893 20.0422C17.6483 20.6325 17.5336 21.3089 17.7893 22.0609C18.0023 22.6869 18.3356 23.2495 18.7466 23.7575C19.2926 24.4322 19.8406 25.1112 20.4466 25.7289C22.38 27.6935 23.5777 30.0329 24.1133 32.7225C24.205 33.1812 24.2537 33.6465 24.322 34.1085Z" fill="#9E9E9E"/>
<path d="M28.3635 26.781C28.1241 26.161 27.9025 25.543 27.6475 24.9393C27.3385 24.209 26.9698 23.508 26.4475 22.903C26.3053 22.7407 26.1499 22.5905 25.9828 22.454C25.6928 22.2136 25.3551 22.1026 24.9745 22.0873C23.9268 22.048 22.8795 21.9946 21.8488 21.78C21.3445 21.675 20.8538 21.5296 20.3888 21.3026C19.5615 20.8983 19.0435 20.2693 18.9048 19.3386C18.7715 18.4453 18.8815 17.6113 19.4611 16.8916C20.0185 16.1996 20.7538 15.8583 21.6468 15.8936C22.5668 15.9309 23.3668 16.6933 23.5035 17.6799C23.5432 17.9539 23.5388 18.2324 23.4905 18.5049C23.3675 19.1583 22.9301 19.5103 22.2905 19.6179C22.1139 19.6513 21.9335 19.6591 21.7548 19.6413C21.3855 19.5946 21.1441 19.3699 21.0131 19.0253C20.9881 18.9586 20.9678 18.8919 20.9398 18.8103C20.8168 19.4033 21.0748 19.9013 21.6155 20.1216C22.1091 20.3216 22.6295 20.3429 23.1488 20.2863C23.9555 20.1983 24.7585 20.0776 25.5645 19.9836C26.1745 19.9123 26.7868 19.9016 27.3901 20.0396C28.5918 20.3146 29.2568 21.1159 29.5251 22.277C29.7015 23.0436 29.5955 23.7993 29.3821 24.5436C29.1538 25.3406 28.8038 26.08 28.3635 26.781Z" fill="#9E9E9E"/>
</svg>
