<svg width="40" height="40" viewBox="0 0 40 40" fill="none" xmlns="http://www.w3.org/2000/svg">
<path d="M26.5475 13.5761C27.3255 13.0144 28.1109 12.5048 29.0662 12.2881C29.1079 12.5714 29.1432 12.8441 29.1889 13.1148C29.4335 14.5744 29.8672 15.9814 30.3922 17.3608C31.3879 19.9751 32.6522 22.4575 34.0879 24.8551C34.1165 24.9025 34.1449 24.9498 34.1985 25.0395C33.7501 24.7479 33.2327 24.5797 32.6985 24.5518C32.1105 24.5158 31.5139 24.4968 30.9292 24.5538C29.3715 24.7061 27.8649 25.0981 26.4192 25.6941C24.4572 26.5028 22.8712 27.8065 21.5825 29.4815C20.9426 30.3042 20.4096 31.2047 19.9962 32.1615C19.1132 30.1921 17.8398 28.5281 16.1392 27.1931C14.8495 26.1818 13.3898 25.5228 11.8155 25.0955C10.8122 24.8235 9.80149 24.5931 8.76183 24.5225C7.98449 24.4695 7.20816 24.4775 6.45715 24.7255C6.23949 24.7975 6.03282 24.9031 5.81915 24.9945C5.83982 24.9581 5.86482 24.9111 5.89182 24.8658C7.51582 22.1471 8.93483 19.3308 9.96416 16.3288C10.3712 15.1414 10.6912 13.9314 10.8642 12.6861C10.8735 12.6194 10.8785 12.5528 10.8875 12.4861C10.8955 12.4258 10.9062 12.3654 10.9182 12.2888C11.8732 12.5008 12.6602 13.0144 13.4288 13.5674C13.3002 13.8394 13.1668 14.1008 13.0532 14.3674C12.6794 15.2213 12.4647 16.1364 12.4198 17.0674C12.3572 18.4721 12.7788 19.7294 13.5805 20.8721C14.2632 21.8448 15.1115 22.6585 16.0138 23.4181C16.8402 24.1131 17.6768 24.7958 18.5055 25.4878C18.6668 25.6211 18.8168 25.7725 18.9645 25.9211C19.4152 26.3791 19.8195 26.8681 19.9872 27.5298C20.3179 26.4438 21.1389 25.7725 21.9382 25.0908C22.7595 24.3908 23.6075 23.7208 24.4279 23.0188C25.1379 22.4158 25.7755 21.7325 26.3279 20.9824C27.5635 19.2938 27.8545 17.4408 27.3065 15.4388C27.1308 14.7891 26.8759 14.1635 26.5475 13.5761V13.5761Z" fill="#9E9E9E"/>
<path d="M21.0308 25.3391C21.3198 24.8231 21.5382 24.2901 21.6178 23.7058C21.7248 22.9181 21.5735 22.1691 21.2575 21.4521C21.0908 21.0725 20.9145 20.6895 20.6875 20.3441C20.2142 19.6251 20.1718 18.8708 20.3972 18.0705C20.6238 17.2648 20.9932 16.5195 21.3532 15.7705C21.6285 15.1968 21.9292 14.6328 22.1662 14.0431C22.5702 13.0391 22.7055 11.9765 22.7015 10.9018C22.6992 10.3068 22.6418 9.71215 22.6088 9.11748C22.6058 9.06115 22.5995 9.00548 22.5918 8.91748C22.6555 8.96215 22.6992 8.99115 22.7412 9.02281C24.8378 10.6045 26.1555 12.6748 26.5641 15.2765C26.9041 17.4431 26.4825 19.4541 25.1165 21.2098C24.7498 21.6828 24.3165 22.1098 23.8918 22.5331C22.9835 23.4425 22.0605 24.3375 21.1435 25.2381C21.1072 25.2718 21.0685 25.3048 21.0308 25.3391Z" fill="#9E9E9E"/>
<path d="M1.28595 29.3059C1.82262 28.3479 2.35595 27.4159 2.87028 26.4726C3.98028 24.4392 5.04228 22.3802 5.92195 20.2332C6.27862 19.3632 6.62195 18.4852 6.78195 17.5542C6.91728 16.7596 7.01095 15.9576 7.10728 15.1569C7.15562 14.7546 7.16562 14.3476 7.20328 13.9436C7.20795 13.8942 7.26662 13.8326 7.31595 13.8069C7.84434 13.5394 8.41336 13.3612 8.99995 13.2796C9.18628 13.2516 9.37495 13.2369 9.59628 13.2129C9.55128 13.5039 9.51628 13.7716 9.46762 14.0366C8.86995 17.2899 7.73428 20.3586 6.25962 23.3072C5.89895 24.0282 5.49762 24.7289 5.11528 25.4386C5.09195 25.4822 5.06928 25.5262 5.04228 25.5776C5.45462 25.5056 5.85195 25.4282 6.25162 25.3676C10.6652 24.6942 14.4471 25.9404 17.5973 29.1062C18.4834 29.9904 19.2299 31.0042 19.811 32.1129C19.8356 32.1606 19.8563 32.2102 19.8599 32.2182C19.4863 31.7796 19.1063 31.2926 18.684 30.8459C17.1666 29.2399 15.377 28.0519 13.241 27.4246C11.863 27.0199 10.4556 26.9132 9.02828 27.0266C6.32095 27.2409 3.79095 28.0622 1.37328 29.2662C1.35128 29.2782 1.32828 29.2872 1.28595 29.3059Z" fill="#9E9E9E"/>
<path d="M38.7141 29.3096C38.6494 29.2813 38.6124 29.2676 38.5774 29.25C36.7421 28.323 34.8181 27.65 32.7978 27.266C31.4481 27.0086 30.0868 26.907 28.7155 27.0436C27.0368 27.2103 25.4788 27.7436 24.0395 28.6213C22.5191 29.5469 21.2013 30.7699 20.1648 32.217C20.1525 32.237 20.1329 32.2516 20.1102 32.2576C20.1308 32.2113 20.1488 32.164 20.1725 32.1193C21.2825 30.0323 22.8672 28.386 24.8488 27.1163C26.1228 26.3 27.4938 25.708 28.9878 25.4233C30.1712 25.1959 31.3807 25.1362 32.5808 25.246C33.3665 25.318 34.1475 25.4406 34.9238 25.54C32.7448 21.7126 31.0801 17.6586 30.3785 13.2C30.7215 13.251 31.0201 13.2866 31.3155 13.342C31.7849 13.4316 32.2396 13.5857 32.6668 13.8C32.7548 13.8436 32.7831 13.894 32.7908 13.9976C32.8308 14.556 32.8725 15.115 32.9405 15.6706C33.0238 16.3536 33.1045 17.0393 33.2385 17.7133C33.4545 18.7963 33.8751 19.8133 34.3125 20.8236C35.5535 23.6846 37.0458 26.4153 38.6031 29.113C38.6361 29.17 38.6668 29.2263 38.7141 29.3096Z" fill="#9E9E9E"/>
<path d="M17.1826 8.66675C17.1409 9.08275 17.1089 9.49108 17.0576 9.89675C16.8909 11.2034 16.5893 12.4821 16.2836 13.7614C15.7786 15.8734 16.3666 17.6874 17.8573 19.2334C18.3423 19.7334 18.8926 20.1554 19.4789 20.5317C19.71 20.6759 19.9311 20.8355 20.1406 21.0094C21.1856 21.9011 21.4926 23.0311 21.0406 24.3271C20.9377 24.6171 20.8126 24.8988 20.6666 25.1697C20.4639 25.5491 20.2333 25.9141 20.0123 26.2927C19.9623 26.2301 19.9059 26.1594 19.8486 26.0881C18.9416 24.9711 17.9153 23.9694 16.8619 22.9934C16.3716 22.5391 15.8603 22.1057 15.3953 21.6267C14.4436 20.6514 13.7703 19.5091 13.4739 18.1681C13.1093 16.5164 13.3899 14.9661 14.2303 13.5051C14.6482 12.7843 15.1235 12.0984 15.6516 11.4541C16.3033 10.6558 16.7994 9.74232 17.1143 8.76108C17.1236 8.73175 17.1356 8.70341 17.1476 8.67475C17.1456 8.67341 17.1536 8.67341 17.1826 8.66675Z" fill="#9E9E9E"/>
<path d="M19.7392 20.0043C18.3902 19.2013 17.2579 18.216 16.7905 16.647C16.5292 15.7706 16.5435 14.8803 16.6905 13.9893C16.9095 12.668 17.3809 11.4226 17.8629 10.1836C18.1735 9.38365 18.4812 8.58365 18.6369 7.73532C18.7909 6.89799 18.8469 6.05966 18.5875 5.23299C18.5025 4.96166 18.3662 4.70666 18.2565 4.45166C18.2769 4.46099 18.3232 4.48099 18.3689 4.50499C19.8082 5.27433 20.7542 6.46199 21.2955 7.98365C21.7115 9.15232 21.8435 10.362 21.7762 11.5966C21.7135 12.745 21.5025 13.8633 21.0449 14.9206C20.8292 15.419 20.5449 15.8873 20.3059 16.376C19.8882 17.2363 19.6175 18.1376 19.6392 19.1043C19.6479 19.4006 19.7039 19.6936 19.7392 20.0043Z" fill="#9E9E9E"/>
<path d="M9.53589 30.9789C10.0903 30.6985 10.6788 30.4912 11.2866 30.3622C11.3379 30.3516 11.4142 30.3866 11.4582 30.4242C12.537 31.3499 13.7612 32.0909 15.0816 32.6176C16.3224 33.1183 17.636 33.4154 18.9716 33.4975C22.5096 33.7073 25.6276 32.6618 28.3256 30.3609C28.3679 30.3246 28.4339 30.2889 28.4846 30.2942C29.1095 30.3548 29.7215 30.5099 30.2999 30.7542C30.3179 30.764 30.3352 30.7752 30.3516 30.7876C24.9066 37.1342 14.9106 37.0752 9.53589 30.9789Z" fill="#9E9E9E"/>
<path d="M35.5389 33.9412C35.2353 33.5745 34.9016 33.1448 34.5366 32.7412C33.4176 31.5058 32.1452 30.4705 30.6032 29.7988C29.2639 29.2155 27.8679 29.0468 26.4252 29.2468C24.4705 29.5182 22.7585 30.3408 21.2215 31.5545L21.1525 31.6082L21.1192 31.5748C21.4249 31.2472 21.7175 30.9055 22.0389 30.5942C23.2002 29.4675 24.5355 28.6242 26.1126 28.1992C27.1282 27.9262 28.1572 27.8778 29.1999 28.0155C30.2152 28.1488 31.2236 28.3182 32.1832 28.6858C32.6197 28.8517 33.041 29.0551 33.4423 29.2938C34.4163 29.8782 34.9756 30.7498 35.1559 31.8745C35.2709 32.5885 35.4186 33.2968 35.5389 33.9412Z" fill="#9E9E9E"/>
<path d="M18.8365 31.6101C18.7289 31.5264 18.6225 31.4411 18.5135 31.3594C17.2182 30.3881 15.7939 29.6927 14.2036 29.3564C11.9312 28.8781 9.8369 29.3164 7.91323 30.6001C6.61324 31.4668 5.51657 32.5511 4.57991 33.7978C4.53724 33.8548 4.49524 33.9121 4.44257 33.9834C4.43357 33.9558 4.42524 33.9438 4.42724 33.9341C4.57624 33.1791 4.72724 32.4244 4.87524 31.6674C5.10124 30.5038 5.79024 29.6948 6.8049 29.1341C7.65023 28.6674 8.5669 28.4041 9.5079 28.2214C10.3052 28.0667 11.1079 27.9377 11.9236 27.9417C13.5542 27.9494 15.0322 28.4534 16.3879 29.3401C17.2983 29.9341 18.1094 30.668 18.7912 31.5148C18.8122 31.5411 18.8319 31.5684 18.8522 31.5954L18.8365 31.6101Z" fill="#9E9E9E"/>
<path d="M22.6089 7.87183C25.3422 8.43849 27.6892 9.69483 29.6976 11.6528C29.5249 11.6805 29.3819 11.7125 29.2369 11.7215C29.1882 11.7248 29.1256 11.6805 29.0869 11.6408C27.9755 10.5016 26.6633 9.57742 25.2162 8.91483C24.4375 8.55574 23.6236 8.27858 22.7876 8.08783C22.6796 8.06349 22.6096 8.02049 22.6089 7.87183Z" fill="#9E9E9E"/>
<path d="M17.1333 7.8667C17.1333 8.0177 17.0546 8.0577 16.9436 8.08337C14.9999 8.53336 13.2553 9.39436 11.7083 10.653C11.5129 10.8117 11.3229 10.9777 11.1383 11.1487C11.0669 11.2154 11.0049 11.241 10.9049 11.2194C10.7916 11.1947 10.6733 11.192 10.5186 11.1757C12.4483 9.47036 14.6363 8.37336 17.1333 7.8667Z" fill="#9E9E9E"/>
</svg>
