<svg width="40" height="40" viewBox="0 0 40 40" fill="none" xmlns="http://www.w3.org/2000/svg">
<path d="M23.4228 18.1674C27.8718 14.9274 31.1068 10.7574 33.2058 5.6377C33.3575 5.92003 33.5058 6.16403 33.6241 6.42236C34.3265 7.9587 34.3968 9.54336 33.9788 11.1657C33.7268 12.1447 33.2595 13.0214 32.7071 13.8557C32.0828 14.7987 31.4321 15.724 30.8181 16.6734C29.6725 18.4457 28.9001 20.3694 28.5408 22.454C28.3827 23.3501 28.2967 24.2575 28.2838 25.1674C28.2838 25.2454 28.2653 25.3224 28.2299 25.3919C28.1944 25.4614 28.143 25.5215 28.0798 25.5674C27.8835 25.7239 27.6748 25.8643 27.4558 25.987C25.728 26.9248 24.1169 28.0631 22.6558 29.3784C22.5681 29.4567 22.4935 29.549 22.3971 29.6517C22.2598 29.4154 22.1508 29.188 22.0041 28.988C21.8765 28.814 21.8991 28.688 22.0058 28.513C22.5798 27.5737 23.3201 26.7774 24.1058 26.0167C24.5058 25.63 24.8981 25.2384 25.2975 24.8527C25.5668 24.5927 25.6438 24.286 25.5188 23.9377C25.2701 23.2474 25.0058 22.5627 24.7545 21.8734C24.3203 20.6823 23.8888 19.4903 23.4601 18.2974C23.4428 18.2484 23.4315 18.1987 23.4228 18.1674Z" fill="#9E9E9E"/>
<path d="M6.81709 5.68152C6.94675 5.98718 7.07109 6.29518 7.20642 6.59852C9.17976 11.019 12.0825 14.709 15.9148 17.6685C16.0938 17.8062 16.2784 17.9382 16.4688 18.0595C16.5654 18.1209 16.5821 18.1799 16.5448 18.2829C16.1091 19.4789 15.6781 20.6772 15.2421 21.8725C15.0024 22.5279 14.7491 23.1785 14.5054 23.8325C14.4802 23.9161 14.4603 24.0011 14.4458 24.0872C14.3888 24.3295 14.4334 24.5492 14.6044 24.7322C14.8221 24.9655 15.0378 25.1989 15.2691 25.4189C15.9998 26.1152 16.7421 26.7992 17.3548 27.6039C17.6124 27.9425 17.8364 28.3069 18.0704 28.6632C18.0958 28.7015 18.1098 28.7759 18.0898 28.8115C17.9368 29.0839 17.7741 29.3505 17.6021 29.6399C17.5138 29.5492 17.4354 29.4629 17.3511 29.3835C16.4378 28.5245 15.4284 27.7875 14.3844 27.1002C13.7588 26.6882 13.0998 26.3279 12.4561 25.9435C12.3458 25.8769 12.2341 25.8139 12.1281 25.7419C11.8544 25.5559 11.7134 25.3282 11.7044 24.9639C11.6311 22.0015 10.8378 19.2479 9.22776 16.7479C8.59942 15.7712 7.93076 14.8205 7.28942 13.8522C6.75975 13.0522 6.30642 12.2142 6.05075 11.2809C5.59675 9.62219 5.65375 7.99719 6.37442 6.41852C6.49142 6.16285 6.63842 5.92119 6.77142 5.67285L6.81709 5.68152Z" fill="#9E9E9E"/>
<path d="M21.7931 30.2957C21.5791 30.5291 21.3781 30.7571 21.1694 30.9767C21.1319 31.0143 21.1027 31.0592 21.0835 31.1087C21.0643 31.1582 21.0557 31.2111 21.0581 31.2641C21.0624 32.2464 21.0604 33.2287 21.0604 34.2114V34.3617C20.7744 33.6954 20.4189 33.0611 19.9998 32.4694C19.5787 33.0609 19.2226 33.696 18.9374 34.3637V34.2234C18.9374 33.2307 18.9398 32.2381 18.9334 31.2454C18.9301 31.1564 18.8979 31.0709 18.8418 31.0017C18.6394 30.7631 18.4238 30.5351 18.2054 30.2954C18.4108 29.9807 18.6098 29.6621 18.8218 29.3554C18.9074 29.2304 18.9281 29.1027 18.9434 28.9554C18.9808 28.6041 18.8598 28.3361 18.6434 28.0617C17.7504 26.9377 16.8598 25.8147 15.8068 24.8304C15.2974 24.3541 15.2914 24.2251 15.5588 23.5854C16.4517 21.4485 17.3429 19.3109 18.2324 17.1724C18.2858 17.0444 18.3378 17.0017 18.4881 17.0204C19.4981 17.1461 20.5094 17.1204 21.5191 17.0084C21.6448 16.9944 21.7061 17.0224 21.7578 17.1471C22.6716 19.3471 23.5903 21.5456 24.5141 23.7427C24.6728 24.1181 24.6141 24.4121 24.3358 24.6931C23.8691 25.1631 23.3831 25.6201 22.9518 26.1221C22.3184 26.8587 21.7258 27.6297 21.1184 28.3887C21.084 28.4376 21.065 28.4956 21.0638 28.5554C21.0468 29.1511 21.0484 29.1511 21.3754 29.6521L21.7931 30.2957ZM19.9998 26.2211C20.6611 25.5234 21.3131 24.8387 21.9601 24.1497C22.0828 24.0191 22.0934 23.8497 22.0424 23.6851C22.0099 23.5878 21.9693 23.4933 21.9211 23.4027C21.2989 22.1699 20.6767 20.9373 20.0544 19.7051C20.0391 19.6747 20.0211 19.6457 19.9981 19.6051C19.9704 19.6577 19.9481 19.6977 19.9281 19.7384C19.5321 20.5451 19.1418 21.3541 18.7394 22.1574C18.5141 22.6074 18.2641 23.0444 18.0351 23.4907C17.8608 23.8321 17.8941 24.0074 18.1554 24.2811C18.3932 24.5304 18.631 24.7795 18.8688 25.0284C19.2394 25.4211 19.6111 25.8121 19.9998 26.2211Z" fill="#9E9E9E"/>
<path d="M19.8313 16.7502C18.521 16.7349 17.118 16.5709 15.7713 16.0685C15.2147 15.8609 14.6874 15.5972 14.2397 15.1972C13.9627 14.9499 13.7417 14.6639 13.6594 14.2909C13.5614 13.8465 13.7137 13.4699 13.9927 13.1349C14.352 12.7015 14.826 12.4209 15.3283 12.1902C16.205 11.7885 17.133 11.5732 18.084 11.4465C19.1448 11.3033 20.2186 11.2831 21.284 11.3862C22.574 11.5122 23.8333 11.7662 24.986 12.3995C25.3907 12.6212 25.759 12.8915 26.0227 13.2799C26.3673 13.7879 26.363 14.3155 26.0083 14.8172C25.6933 15.2625 25.2497 15.5505 24.775 15.7905C23.9833 16.1905 23.136 16.4139 22.267 16.5619C21.5 16.6915 20.725 16.7472 19.8313 16.7502ZM19.936 15.5552C19.936 15.5679 19.939 15.5809 19.9407 15.5935C20.5993 15.5269 21.261 15.4822 21.9157 15.3879C22.6343 15.2842 23.3317 15.0879 23.9743 14.7332C24.2463 14.5832 24.4967 14.4039 24.6743 14.1422C24.8853 13.8325 24.902 13.4882 24.6697 13.1962C24.5088 12.9965 24.3176 12.8234 24.103 12.6832C23.5767 12.3385 22.9783 12.1632 22.3697 12.0295C21.2313 11.7795 20.079 11.7269 18.9203 11.8195C18.0833 11.8862 17.2597 12.0302 16.4717 12.3342C16.057 12.4942 15.6603 12.6879 15.3447 13.0112C14.939 13.4262 14.9397 13.9049 15.3447 14.3195C15.4197 14.3965 15.497 14.4789 15.5893 14.5295C15.9033 14.7019 16.212 14.8942 16.545 15.0195C17.6363 15.4305 18.7793 15.5432 19.936 15.5552V15.5552Z" fill="#9E9E9E"/>
<path d="M29.4185 22.0726C29.6672 21.4966 29.9062 20.9076 30.1738 20.3319C30.8018 18.9809 31.5342 17.6909 32.4865 16.5376C32.9088 16.0262 33.3711 15.5472 33.7778 15.0246C34.663 13.8922 35.3397 12.6114 35.7761 11.2419C35.7841 11.2126 35.8026 11.1873 35.8281 11.1709C35.8921 11.4649 35.9634 11.7576 36.0188 12.0536C36.1658 12.8432 36.2594 13.6396 36.2424 14.4446C36.2278 15.1316 36.1424 15.8062 35.8711 16.4479C35.6641 16.9399 35.3285 17.3376 34.9255 17.6679C34.3895 18.1069 33.8365 18.5279 33.2681 18.9242C32.4505 19.4946 31.5928 20.0116 30.8488 20.6802C30.3568 21.1226 29.9002 21.6026 29.4185 22.0726Z" fill="#9E9E9E"/>
<path d="M4.19311 11.1499C4.45786 12.0005 4.81639 12.8189 5.26211 13.5902C5.73499 14.4286 6.30565 15.2079 6.96211 15.9119C8.18212 17.2076 9.06845 18.7192 9.81779 20.3179C10.0705 20.8569 10.2845 21.4132 10.5178 21.9619C10.5381 22.0045 10.5482 22.0511 10.5475 22.0982C10.4318 21.9649 10.3175 21.8316 10.2005 21.6982C9.37512 20.7649 8.38178 20.0372 7.35711 19.3436C6.69345 18.8946 6.04578 18.4219 5.39478 17.9542C5.26144 17.8586 5.14811 17.7366 5.02244 17.6306C4.20211 16.9379 3.86777 16.0189 3.78477 14.9822C3.68311 13.7176 3.86044 12.4802 4.15477 11.2549C4.16573 11.2193 4.17853 11.1842 4.19311 11.1499Z" fill="#9E9E9E"/>
<path d="M3.87891 17.7825C4.42525 18.5158 5.12025 19.0385 5.81791 19.5555C6.73858 20.2375 7.67758 20.8948 8.59958 21.5751C9.49025 22.2341 10.2509 23.0128 10.7666 24.0041C10.8982 24.2565 10.9939 24.5275 11.1236 24.8305C11.0299 24.8041 10.9872 24.7948 10.9462 24.7801C9.38625 24.2191 7.82791 23.6545 6.26625 23.0985C5.90091 22.9689 5.58201 22.7343 5.34958 22.4241C4.93925 21.8908 4.69058 21.2788 4.48291 20.6475C4.19058 19.7618 4.01125 18.8511 3.87925 17.9298C3.87614 17.8807 3.87603 17.8315 3.87891 17.7825V17.7825Z" fill="#9E9E9E"/>
<path d="M36.1415 17.814C36.0748 18.214 36.0138 18.614 35.9348 19.0106C35.7531 19.9239 35.5215 20.8236 35.1065 21.6633C34.9795 21.9153 34.8338 22.1574 34.6705 22.3876C34.4362 22.7229 34.1007 22.9743 33.7131 23.1049C32.1658 23.6553 30.6221 24.2156 29.0771 24.7716C29.0295 24.7886 28.9808 24.8016 28.8968 24.8276C28.9595 24.6499 29.0041 24.4942 29.0671 24.3476C29.4444 23.469 30.0299 22.6955 30.7731 22.0939C31.5065 21.4916 32.2921 20.9526 33.0511 20.3806C33.7811 19.8299 34.5178 19.2856 35.2288 18.714C35.5538 18.451 35.8281 18.1263 36.1415 17.814Z" fill="#9E9E9E"/>
<path d="M19.991 12.8938C20.3213 13.6938 20.635 14.4558 20.9613 15.2468H19.0193L19.991 12.8938Z" fill="#9E9E9E"/>
</svg>
