<svg width="40" height="40" viewBox="0 0 40 40" fill="none" xmlns="http://www.w3.org/2000/svg">
<path d="M20 12.7933C20.2443 12.537 20.4743 12.2896 20.711 12.049C20.9253 11.831 21.1357 11.607 21.368 11.409C21.7643 11.072 22.2283 10.9773 22.715 11.1596C23.0878 11.295 23.4474 11.4642 23.7893 11.665C26.386 13.2316 28.9784 14.8059 31.5667 16.3876C33.4527 17.5413 35.3277 18.712 37.2093 19.8723C37.271 19.9103 37.3507 19.9183 37.4093 19.937V20.0036C37.3427 20.028 37.2593 20.042 37.194 20.082C33.1773 22.5486 29.1611 25.0153 25.1453 27.482C24.6083 27.8113 24.0617 28.1253 23.5153 28.4396C23.186 28.6293 22.842 28.7853 22.4617 28.849C22.125 28.9056 21.8053 28.8516 21.536 28.649C21.2838 28.4535 21.0452 28.241 20.822 28.013C20.5433 27.7373 20.2813 27.4463 20.002 27.1493C19.7587 27.4036 19.531 27.6466 19.2977 27.8846C19.0903 28.0966 18.887 28.3146 18.6643 28.5096C18.2427 28.8783 17.7527 28.9693 17.231 28.77C16.8932 28.6446 16.5671 28.4898 16.2563 28.3073C14.0188 26.9618 11.785 25.6084 9.55501 24.2473C7.29601 22.864 5.04735 21.4636 2.79235 20.0733C2.73135 20.0356 2.65235 20.0273 2.59235 20.0066V19.94C2.65901 19.9156 2.74235 19.902 2.80768 19.8616C6.82479 17.395 10.8412 14.9283 14.857 12.4616C15.4953 12.0706 16.147 11.7003 16.8057 11.3446C17.03 11.2233 17.29 11.1576 17.5413 11.0993C17.9103 11.0136 18.2577 11.1106 18.5457 11.3446C18.8103 11.5596 19.0497 11.8073 19.2917 12.0487C19.5337 12.29 19.757 12.5383 20 12.7933ZM33.6593 19.9746C33.5877 19.9413 33.5427 19.92 33.4973 19.8993C30.1896 18.41 26.8811 16.9214 23.572 15.4336C23.2823 15.304 22.974 15.2146 22.672 15.1166C22.5833 15.088 22.483 15.0946 22.388 15.0853L22.379 15.1233L27.4237 19.973L22.3473 24.851C22.4293 24.851 22.4687 24.8536 22.5073 24.851C22.8543 24.8223 23.172 24.6943 23.4843 24.5536C26.4263 23.2292 29.368 21.9041 32.3093 20.5783C32.75 20.38 33.1917 20.1836 33.6597 19.9746H33.6593ZM12.576 19.973L17.6257 15.1213L17.607 15.08C17.47 15.1016 17.325 15.1013 17.198 15.1493C16.781 15.3076 16.3647 15.4723 15.9583 15.6546C12.8061 17.0666 9.65501 18.4819 6.50501 19.9003C6.45801 19.9216 6.41168 19.9443 6.34701 19.975C6.41368 20.0063 6.45901 20.0276 6.50435 20.048C9.80368 21.5324 13.1037 23.0165 16.4043 24.5003C16.7023 24.6336 17.019 24.727 17.3303 24.829C17.418 24.8576 17.5173 24.851 17.611 24.8603L17.6207 24.8206L12.576 19.973ZM15.702 25.7843C15.651 25.751 15.617 25.7293 15.5823 25.708C12.5292 23.8295 9.47579 21.9518 6.42201 20.0746C6.37059 20.0493 6.31772 20.0271 6.26368 20.008C6.25794 20.0043 6.25309 19.9994 6.24946 19.9937C6.24583 19.9879 6.24351 19.9814 6.24268 19.9746C6.24336 19.9678 6.24565 19.9612 6.24935 19.9554C6.25306 19.9496 6.25808 19.9448 6.26401 19.9413C6.31811 19.9224 6.37099 19.9001 6.42235 19.8746C9.47634 17.9978 12.5298 16.12 15.5827 14.2413C15.6177 14.2196 15.651 14.1956 15.6863 14.172L2.75301 19.9763L15.702 25.7843ZM24.3333 25.767L37.2457 19.972L24.306 14.167C24.3537 14.1976 24.3873 14.2206 24.422 14.242C27.4753 16.1204 30.529 17.9982 33.583 19.8753C33.6345 19.9001 33.6873 19.9218 33.7413 19.9403C33.752 19.945 33.759 19.9646 33.7607 19.9783C33.7609 19.9842 33.7596 19.9901 33.757 19.9954C33.7544 20.0007 33.7505 20.0052 33.7457 20.0086C33.6911 20.0258 33.6379 20.0469 33.5863 20.0716C30.5401 21.9428 27.4942 23.8153 24.4487 25.6893C24.416 25.7096 24.385 25.7336 24.3333 25.767ZM20 21.1263C20.1943 20.7426 20.38 20.3776 20.5633 20.0116C20.5685 19.9996 20.5711 19.9867 20.5711 19.9736C20.5711 19.9606 20.5685 19.9477 20.5633 19.9356C20.3803 19.569 20.1947 19.2046 19.9993 18.819C19.8057 19.204 19.62 19.567 19.4377 19.9336C19.4324 19.948 19.43 19.9633 19.4308 19.9786C19.4315 19.9939 19.4353 20.0089 19.442 20.0226C19.6237 20.3853 19.8077 20.746 20 21.1263Z" fill="#9E9E9E"/>
<path d="M22.6027 34.8961C20.9791 35.227 19.3052 35.2258 17.6821 34.8924C17.8711 33.7711 18.0591 32.6568 18.2487 31.5344C18.5364 31.5574 18.8087 31.5798 19.0821 31.6011C19.916 31.6628 20.7537 31.6534 21.5861 31.5731C21.6451 31.5678 21.7044 31.5644 21.7637 31.5601C22.0391 31.5391 22.0434 31.5384 22.0907 31.8168C22.2618 32.8203 22.4311 33.8244 22.5984 34.8291C22.6001 34.8464 22.6001 34.8647 22.6027 34.8961Z" fill="#9E9E9E"/>
<path d="M22.6048 5.10558L22.0381 8.47225C20.7816 8.32419 19.512 8.32531 18.2558 8.47558C18.0651 7.34691 17.8771 6.23258 17.6891 5.10891C19.3107 4.77667 20.9827 4.77554 22.6048 5.10558V5.10558Z" fill="#9E9E9E"/>
<path d="M27.6333 32.8198C26.8875 33.3192 26.0949 33.7448 25.2666 34.0905L24.2186 31.1501C24.406 31.1004 24.583 31.0608 24.7553 31.0064C25.2246 30.8581 25.6926 30.7044 26.1603 30.5501C26.2296 30.5274 26.278 30.5081 26.327 30.5938C26.7436 31.3078 27.166 32.0188 27.5863 32.7308C27.6016 32.7541 27.6123 32.7795 27.6333 32.8198Z" fill="#9E9E9E"/>
<path d="M16.0684 31.1587L15.0247 34.086C14.1961 33.74 13.4034 33.3135 12.658 32.8127C12.758 32.644 12.851 32.484 12.9454 32.324C13.2838 31.7496 13.6218 31.175 13.9594 30.6003C13.997 30.5363 14.0277 30.513 14.1097 30.539C14.743 30.739 15.3804 30.9337 16.016 31.1297C16.0341 31.1382 16.0516 31.1479 16.0684 31.1587Z" fill="#9E9E9E"/>
<path d="M26.2747 9.46432L24.2173 8.82898C24.561 7.86465 24.9063 6.89565 25.2587 5.90698C26.0872 6.25059 26.8799 6.67486 27.6253 7.17365L26.2747 9.46432Z" fill="#9E9E9E"/>
<path d="M14.0183 9.46677L12.6689 7.18011C13.4137 6.68015 14.2056 6.25423 15.0333 5.90845C15.3833 6.89067 15.7306 7.86477 16.0753 8.83077L14.0183 9.46677Z" fill="#9E9E9E"/>
<path d="M28.4474 10.4969L29.8064 8.95728C30.3933 9.53837 30.93 10.1681 31.4107 10.8396C31.3441 10.8933 31.2874 10.9426 31.2277 10.9899C30.9381 11.2193 30.6474 11.4476 30.3584 11.6779C30.3074 11.7186 30.2711 11.7359 30.2051 11.6909C29.6384 11.3033 29.0647 10.9209 28.4937 10.5366C28.4824 10.5293 28.4731 10.5189 28.4474 10.4969Z" fill="#9E9E9E"/>
<path d="M8.88776 10.8451C9.3685 10.1749 9.90365 9.54546 10.4878 8.96313L11.8514 10.5071C11.7984 10.5405 11.7561 10.5655 11.7158 10.5925C11.1898 10.9471 10.6611 11.2984 10.1401 11.6591C10.0431 11.7258 9.98876 11.7284 9.89842 11.6541C9.60242 11.4101 9.29842 11.1764 8.99842 10.9381C8.96176 10.9118 8.92909 10.8808 8.88776 10.8451Z" fill="#9E9E9E"/>
<path d="M29.8203 31.0295L28.4743 29.5058L30.3166 28.2615L31.4246 29.1378C30.9444 29.8126 30.4077 30.4455 29.8203 31.0295V31.0295Z" fill="#9E9E9E"/>
<path d="M8.87274 29.1327L9.97974 28.2571L11.8197 29.4994L10.4764 31.0217C9.88934 30.4386 9.35285 29.8067 8.87274 29.1327V29.1327Z" fill="#9E9E9E"/>
<path d="M32.0109 13.3765L32.6859 13.0068C32.9859 13.3538 33.8526 15.7982 33.9416 16.5432C33.7639 16.1718 33.6016 15.7948 33.4083 15.4355C33.2149 15.0762 32.9959 14.7235 32.7666 14.3842C32.5373 14.0448 32.2689 13.7185 32.0109 13.3765Z" fill="#9E9E9E"/>
<path d="M8.30231 13.3869C7.47932 14.3466 6.82966 15.3869 6.37133 16.5613C6.35066 16.1016 7.24032 13.5446 7.60465 13.0066L8.30231 13.3869Z" fill="#9E9E9E"/>
<path d="M32.7168 26.9826L32.0455 26.616C32.4041 26.103 32.7821 25.616 33.1008 25.0923C33.4195 24.5686 33.6778 24.0093 33.9381 23.512C33.6713 24.7135 33.2613 25.8788 32.7168 26.9826V26.9826Z" fill="#9E9E9E"/>
<path d="M8.28645 26.5931L7.58344 26.9771C7.02997 25.8585 6.61994 24.6745 6.3631 23.4531C6.82577 24.6001 7.46911 25.6381 8.28645 26.5931Z" fill="#9E9E9E"/>
</svg>
