<svg width="40" height="40" viewBox="0 0 40 40" fill="none" xmlns="http://www.w3.org/2000/svg">
<path d="M20.0244 4.44385C20.5244 4.91651 21.0524 5.42518 21.591 5.92418C23.683 7.86751 25.871 9.70085 28.0577 11.5342C30.1407 13.2825 31.7807 15.3748 32.8174 17.9098C33.5574 19.7185 33.908 21.6022 33.846 23.5545C33.7887 25.3522 33.4764 27.1008 32.7 28.7405C31.6934 30.8672 30.098 32.4405 28.0637 33.5858C26.4747 34.4808 24.7637 35.0238 22.9694 35.3135C21.6646 35.53 20.3399 35.6021 19.0194 35.5285C16.2674 35.3648 13.6607 34.7075 11.3134 33.2102C9.02336 31.7492 7.43536 29.7412 6.69236 27.1082C6.18976 25.3483 6.03264 23.5078 6.22969 21.6882C6.51736 19.0298 7.52102 16.6622 9.10669 14.5262C10.126 13.1532 11.358 11.9945 12.6734 10.9135C15.12 8.90551 17.504 6.82751 19.781 4.62885C19.8583 4.56228 19.9395 4.50049 20.0244 4.44385ZM32.717 23.0772C32.6887 22.2502 32.599 21.5065 32.4037 20.7772C32.0827 19.5808 31.5574 18.4945 30.655 17.6222C29.9217 16.9118 29.057 16.4735 28.014 16.4555C27.227 16.4428 26.5234 16.7012 25.8694 17.1222C24.814 17.8042 23.836 18.5888 22.8514 19.3665C22.3627 19.7518 21.8664 20.1275 21.2924 20.3822C20.851 20.5778 20.3904 20.7155 19.906 20.6882C19.3118 20.6569 18.737 20.4654 18.2427 20.1342C17.7347 19.7955 17.2507 19.4202 16.758 19.0588C15.858 18.3995 14.9834 17.7052 14.058 17.0868C12.9514 16.3485 11.7534 16.2288 10.5247 16.7972C9.61202 17.2195 8.93836 17.9142 8.43769 18.7695C7.43336 20.4902 7.09436 22.3568 7.38302 24.3108C7.68302 26.3325 8.74969 27.8638 10.5924 28.7842C12.0924 29.5335 13.6147 29.5968 15.1214 28.7462C15.8297 28.3462 16.5837 28.0462 17.3607 27.8038C18.763 27.3675 20.1794 27.2142 21.6334 27.5395C22.8224 27.804 23.9673 28.2375 25.0334 28.8268C25.854 29.2808 26.7334 29.4362 27.6547 29.3182C29.1747 29.1238 30.4094 28.3995 31.3667 27.2128C32.356 25.9865 32.741 24.5578 32.717 23.0768V23.0772ZM21.22 34.2048C21.2034 34.1688 21.202 34.1615 21.1994 34.1608C21.1247 34.1432 21.05 34.1275 20.9754 34.1098C20.313 33.9615 19.6804 33.7432 19.1324 33.3275C18.7577 33.0442 18.4584 32.6942 18.3677 32.2238C18.2087 31.3978 18.415 30.6472 18.9457 30.0045C19.4524 29.3908 20.1637 29.1928 20.9244 29.1478C21.891 29.0902 22.8267 29.2812 23.7454 29.5622C24.0787 29.6642 24.4034 29.7855 24.7397 29.9005C24.7332 29.8849 24.7247 29.8702 24.7144 29.8568C24.6734 29.8182 24.6314 29.7802 24.5884 29.7435C24.0573 29.294 23.4434 28.9527 22.7814 28.7388C21.448 28.3005 20.1017 28.3368 18.748 28.6342C17.648 28.8758 16.6147 29.3028 15.6067 29.7958C14.8734 30.1545 14.102 30.3995 13.2837 30.4755C11.8254 30.6112 10.541 30.2088 9.44402 29.2302C9.40902 29.1988 9.37136 29.1702 9.33469 29.1402C10.6534 30.9962 12.2947 32.4675 14.384 33.3975C16.5724 34.3708 18.8497 34.6302 21.22 34.2048ZM17.2084 17.6302L17.2287 17.6172C17.177 17.5198 17.1237 17.4235 17.074 17.3248C17.021 17.2195 16.968 17.1138 16.92 17.0058C16.26 15.5162 16.1914 13.9632 16.438 12.3805C16.678 10.8395 17.1987 9.38885 17.89 7.99618C17.9137 7.94885 17.934 7.89951 17.9567 7.85118C17.1117 8.76685 16.1394 9.52618 15.1584 10.2758C13.1584 11.8042 11.5547 13.6802 10.263 15.8318C10.2347 15.8792 10.2104 15.9288 10.1717 15.9985C10.395 15.8352 10.579 15.6745 10.7867 15.5552C10.9994 15.4312 11.2253 15.3311 11.46 15.2568C12.2397 15.0172 13.0067 15.1308 13.76 15.3935C14.7677 15.7455 15.6467 16.3215 16.4684 16.9905C16.7187 17.1978 16.961 17.4172 17.2084 17.6302Z" fill="#9E9E9E"/>
<path d="M16.7367 26.11C16.2971 26.3599 15.8323 26.5625 15.35 26.7146C14.135 27.0973 12.9053 27.2066 11.6583 26.8879C11.1093 26.7476 10.6003 26.5213 10.1743 26.1359C9.51664 25.541 9.38164 24.6233 9.84097 23.8806C10.2076 23.289 10.834 23.0473 11.492 23.274C11.7294 23.3564 11.9539 23.4722 12.1586 23.618C14.1667 25.0546 14.3737 25.1706 16.7367 26.11Z" fill="#9E9E9E"/>
<path d="M23.0038 26.1085C23.3541 25.9715 23.6991 25.8445 24.0371 25.7022C25.2461 25.1935 26.3808 24.5565 27.4038 23.7319C27.7154 23.4809 28.0531 23.2799 28.4564 23.2139C29.0201 23.1215 29.4698 23.3192 29.8051 23.7682C30.3504 24.4985 30.2408 25.5015 29.5541 26.1272C29.0648 26.5742 28.4711 26.8152 27.8338 26.9412C26.1431 27.2745 24.5578 26.9445 23.0525 26.1472C23.0352 26.1356 23.019 26.1227 23.0038 26.1085V26.1085Z" fill="#9E9E9E"/>
</svg>
