<svg width="40" height="40" viewBox="0 0 40 40" fill="none" xmlns="http://www.w3.org/2000/svg">
<path d="M26.1667 24.7934C25.9 24.6044 25.6397 24.4031 25.3637 24.2268C22.7817 22.5931 19.8333 23.0998 17.851 24.7198C16.7397 25.6274 16.1603 26.8458 15.9273 28.2418C15.7957 29.0498 15.7919 29.8735 15.916 30.6827C15.8842 30.6814 15.8526 30.6771 15.8217 30.6701C13.763 29.9614 11.866 28.9684 10.255 27.4821C9.24797 26.5541 8.46663 25.4721 8.0333 24.1574C8.00891 24.0881 7.99192 24.0163 7.98263 23.9434C8.8333 24.5998 9.6943 25.2331 10.6113 25.7868C11.5283 26.3404 12.48 26.8404 13.5446 27.0804L13.3903 27.0088C11.6123 26.1811 10.0203 25.0964 8.72897 23.6044C7.78697 22.5161 7.1183 21.2828 6.84496 19.8584C6.7613 19.4224 6.72796 18.9768 6.67163 18.5354L6.7263 18.5158L6.97063 18.7794C8.05263 19.9461 9.18097 21.0638 10.45 22.0304C10.991 22.4428 11.554 22.8208 12.1913 23.0731C12.2667 23.1041 12.3448 23.1281 12.4246 23.1448C10.477 22.0331 8.9173 20.5404 7.9163 18.5144C6.9093 16.4764 6.7613 14.3344 7.2063 12.1254C7.23963 12.2254 7.27297 12.3254 7.3093 12.4234C7.82363 13.8721 8.4943 15.2371 9.48064 16.4298C9.99364 17.0498 10.5866 17.5764 11.3016 17.9564C11.3426 17.9784 11.384 17.9988 11.426 18.0181C11.4413 18.0203 11.4569 18.0203 11.4723 18.0181C11.4571 17.998 11.4406 17.9788 11.423 17.9608C8.9333 15.7331 7.9643 12.9794 8.56664 9.68745C8.82797 8.25946 9.40497 6.95046 10.122 5.69813C10.1358 5.67898 10.1509 5.66082 10.1673 5.64379C10.192 5.90379 10.2123 6.14379 10.2376 6.38579C10.4503 8.40746 10.912 10.3681 11.7026 12.2441C12.3436 13.7651 13.193 15.1518 14.3726 16.3221C15.2463 17.1888 16.2683 17.8251 17.3903 18.3194C19.0143 19.0354 20.6847 19.6301 22.3457 20.2501C23.7953 20.7914 25.2413 21.3421 26.6123 22.0674C27.686 22.6341 28.6933 23.2958 29.5273 24.1941C30.738 25.4984 31.2577 27.0541 31.1747 28.8134C31.1497 29.3394 31.0377 29.8614 30.9657 30.3851C30.9633 30.3974 30.9638 30.4101 30.967 30.4222C30.9703 30.4343 30.9762 30.4456 30.9844 30.4551C31.0107 30.4094 31.039 30.3647 31.0627 30.3177C31.5294 29.3871 31.703 28.3934 31.7 27.3608C31.6954 25.5108 30.936 24.0238 29.5333 22.8464C28.6 22.0664 27.555 21.4694 26.4403 21.0078C24.9733 20.3998 23.4813 19.8531 22.0053 19.2664C20.8737 18.8164 19.7387 18.3744 18.6267 17.8751C17.137 17.2051 16.0017 16.1084 15.098 14.7618C15.0553 14.6923 15.0297 14.6137 15.023 14.5324C14.8476 12.8148 15.216 11.1991 15.9563 9.65812C16.0394 9.47758 16.1399 9.30555 16.2563 9.14445C16.2563 9.21112 16.2563 9.28045 16.2563 9.34879C16.2817 10.7211 16.4753 12.0638 16.9817 13.3488C17.256 14.0444 17.631 14.6788 18.1713 15.2051C18.2114 15.2482 18.2601 15.2823 18.3143 15.3051C18.3083 15.2893 18.3013 15.274 18.2933 15.2591C16.8267 12.8724 16.7043 10.4018 17.86 7.86612C18.5027 6.45446 19.4833 5.28779 20.6053 4.2328C20.6223 4.21997 20.6405 4.20881 20.6597 4.19946C20.5667 4.64646 20.4667 5.08146 20.39 5.52013C20.1077 7.11746 20.001 8.72546 20.15 10.3438C20.286 11.8214 20.6353 13.2401 21.35 14.5554C21.902 15.5721 22.669 16.3968 23.566 17.1154C24.8247 18.1234 26.181 18.9911 27.5157 19.8901C28.6157 20.6318 29.7097 21.3848 30.6823 22.2964C31.473 23.0388 32.156 23.8631 32.5857 24.8701C33.2857 26.5118 33.5084 28.2164 33.1857 29.9721C32.823 31.9364 31.719 33.4054 30.0503 34.4667C29.027 35.1174 27.9263 35.5624 26.717 35.7207C25.215 35.9167 23.7527 35.7517 22.3263 35.2567C21.2807 34.8937 20.323 34.3737 19.502 33.6217C18.742 32.9257 18.1827 32.1034 17.9353 31.0884C17.7303 30.2551 17.8153 29.4347 18.049 28.6218C18.477 27.1311 19.3107 25.9421 20.6643 25.1524C21.709 24.5431 22.8463 24.3191 24.0457 24.4101C24.4036 24.4377 24.7598 24.4856 25.1123 24.5534C25.4627 24.6201 25.806 24.7231 26.1527 24.8104L26.1667 24.7934ZM25.0593 33.7467C26.1593 33.7647 27.1927 33.4207 28.0967 32.7037C29.8967 31.2747 30.0267 28.8281 28.3937 27.2124C26.6097 25.4478 23.3797 25.4588 21.604 27.2361C20.053 28.7881 20.117 31.1127 21.7633 32.5651C22.685 33.3784 23.775 33.7587 25.0587 33.7467H25.0593Z" fill="#9E9E9E"/>
</svg>
