<svg width="40" height="40" viewBox="0 0 40 40" fill="none" xmlns="http://www.w3.org/2000/svg">
<path d="M11.9067 14.6047C10.8953 15.6994 9.70667 16.4714 8.35867 17.1067C8.41467 14.5977 9.16933 12.4544 11.1537 10.8477C10.0027 11.3654 8.789 11.5497 7.49567 11.544C8.58767 8.91405 10.621 7.69838 13.382 7.46305C12.2257 7.06305 11.3103 6.40871 10.6787 5.34171C11.0063 5.29205 11.308 5.23605 11.612 5.20205C12.4743 5.10571 13.336 5.10205 14.1933 5.25605C15.0507 5.41005 15.8463 5.70938 16.5153 6.28938C16.89 6.61405 17.164 7.01205 17.399 7.44638C17.7923 8.17305 18.182 8.90371 18.617 9.60571C19.0137 10.2457 19.5367 10.777 20.219 11.1297C20.8343 11.4474 21.498 11.5694 22.18 11.6084C22.4543 11.6244 22.7303 11.611 23.0133 11.611C23.011 11.5919 23.0062 11.5732 22.999 11.5554C22.5247 10.7197 21.9597 9.96005 21.1447 9.42205C20.5253 9.01405 19.859 8.86738 19.133 9.10771C19.081 9.12505 18.9947 9.09438 18.9463 9.05705C18.3163 8.57405 17.8307 7.96738 17.449 7.27538C16.7993 6.09638 16.545 4.82338 16.5847 3.48971C16.6 3.00005 16.6733 2.50905 16.7213 2.01838C16.7297 1.96363 16.7408 1.90934 16.7547 1.85571C16.7993 1.92005 16.831 1.96371 16.861 2.00838C18.22 4.05071 19.713 5.98471 21.4523 7.72205C22.388 8.65538 23.4477 9.43605 24.5117 10.212C25.517 10.9454 26.5223 11.6787 27.5187 12.4224C27.7727 12.6124 28.0013 12.839 28.2273 13.063C28.6607 13.4937 28.973 13.9964 29.1367 14.5947C29.3677 15.438 29.5727 16.2854 29.682 17.1537C29.6857 17.1827 29.6853 17.2124 29.687 17.24C29.2407 17.1794 28.805 17.112 28.3677 17.0627C27.2178 16.9307 26.0595 16.8875 24.903 16.9334C23.7267 16.9814 22.5517 17.0607 21.3753 17.1064C20.6487 17.1347 19.9257 17.08 19.2293 16.8424C18.1937 16.4884 17.622 15.7314 17.3717 14.6967C17.3587 14.6419 17.3413 14.5883 17.3197 14.5364C17.3592 15.0493 17.4739 15.5537 17.66 16.0334C18.316 17.7784 19.5417 18.9957 21.187 19.8194C21.916 20.1844 22.685 20.4387 23.478 20.6234C23.5273 20.6347 23.576 20.648 23.647 20.6657C23.5783 20.706 23.5277 20.738 23.4747 20.7657C21.2207 21.9664 18.9672 23.1667 16.7143 24.3667C16.6559 24.4017 16.5902 24.4229 16.5224 24.4286C16.4545 24.4344 16.3862 24.4246 16.3227 24.4C14.7307 23.851 13.5327 22.8334 12.713 21.3667C12.1797 20.4114 11.8993 19.3747 11.7797 18.291C11.65 17.1074 11.713 15.93 11.8957 14.7577C11.9027 14.719 11.902 14.6784 11.9067 14.6047Z" fill="#9E9E9E"/>
<path d="M9.4873 35.7941C9.67097 35.0655 9.87297 34.3628 10.3953 33.8055C10.4634 33.7352 10.5394 33.6733 10.622 33.6208C13.1862 31.9361 15.7511 30.252 18.3167 28.5685C18.6722 28.3345 19.0264 28.0967 19.3793 27.8551C19.4107 27.8302 19.4482 27.814 19.4879 27.8081C19.5275 27.8023 19.5681 27.807 19.6053 27.8218C24.4333 29.4598 27.964 32.5621 30.1524 37.1755C30.2981 37.4883 30.4207 37.8114 30.519 38.1422C30.477 38.1195 30.4334 38.0985 30.3924 38.0735C27.8257 36.5191 25.0487 35.5335 22.095 35.0355C20.1661 34.7134 18.2081 34.6006 16.255 34.6991C13.9787 34.8095 11.7363 35.1371 9.54864 35.7948C9.52822 35.7965 9.50769 35.7962 9.4873 35.7941V35.7941Z" fill="#9E9E9E"/>
<path d="M36.452 15.2499C36.4076 15.2808 36.3621 15.3117 36.3157 15.3425C27.9637 20.9363 19.6116 26.5313 11.2594 32.1275C10.8494 32.4022 10.4514 32.6942 10.0354 32.9609C9.63203 33.2179 9.3467 33.5699 9.1187 33.9809C8.7757 34.5989 8.52203 35.2539 8.29436 35.9205C8.2767 35.9729 8.25836 36.0252 8.23336 36.0972C7.16482 35.5846 6.23224 34.8272 5.51136 33.8865C4.63636 32.7485 4.1847 31.4532 4.09937 30.0095C4.2517 30.0612 4.39137 30.1172 4.5357 30.1565C5.3567 30.3795 6.1717 30.3089 6.96403 30.0442C7.46503 29.8752 7.95327 29.6706 8.42503 29.4319C13.1195 27.0723 17.8111 24.7061 22.5 22.3332C27.1025 19.9999 31.7006 17.6554 36.2944 15.2999C36.343 15.2752 36.392 15.2515 36.441 15.2275L36.452 15.2499Z" fill="#9E9E9E"/>
<path d="M27.8457 22.3733C28.191 22.7376 28.5503 23.084 28.872 23.4623C30.098 24.9043 30.8313 26.5856 31.2177 28.4253C31.6637 30.5496 31.6543 32.681 31.2803 34.8146C31.2713 34.865 31.2577 34.9146 31.2407 34.9883C31.1913 34.8883 31.1527 34.805 31.1117 34.724C30.686 33.88 30.07 33.1866 29.383 32.5516C28.1943 31.4516 26.8497 30.5706 25.4547 29.7646C23.8503 28.8443 22.1871 28.0308 20.4757 27.3293C20.43 27.3103 20.3847 27.2896 20.312 27.258L27.8457 22.3733Z" fill="#9E9E9E"/>
<path d="M6.25072 35.2528C5.30972 35.4951 4.35072 35.0995 3.83638 34.2861C3.34871 33.5151 3.53005 32.5971 4.00305 31.9761C4.14141 32.644 4.41139 33.2777 4.79724 33.8401C5.18308 34.4026 5.67707 34.8826 6.25039 35.2521L6.25072 35.2528Z" fill="#9E9E9E"/>
</svg>
