<svg width="70" height="70" viewBox="0 0 56 56" fill="none" xmlns="http://www.w3.org/2000/svg">
<path d="M26.3815 5.5764L14.5558 17.197C14.0965 17.6483 14.0903 18.354 14.5416 18.8132L18.4453 22.7857C18.8966 23.245 19.6022 23.2512 20.0615 22.7999L31.8872 11.1793C32.3464 10.728 32.3526 10.0223 31.9013 9.56306L27.9976 5.59054C27.5462 5.15405 26.8405 5.14788 26.3815 5.5764Z" fill="#FFAB04"/>
<path d="M35.1814 14.5546L14.4003 34.9752C13.9411 35.4265 13.9349 36.1322 14.3862 36.5914L18.2898 40.564C18.7411 41.0232 19.4468 41.0294 19.906 40.5781L40.6871 20.1574C41.1463 19.7061 41.1525 19.0005 40.7012 18.5412L36.7976 14.5687C36.3691 14.1096 35.6406 14.1033 35.1814 14.5546Z" fill="#FFAB04"/>
<path d="M44.0042 23.5101L23.2231 43.9308C22.7638 44.3821 22.7576 45.0878 23.2089 45.547L27.1126 49.5195C27.5639 49.9788 28.2695 49.985 28.7288 49.5337L49.5098 29.113C49.9691 28.6617 49.9753 27.956 49.524 27.4968L45.6204 23.5243C45.1691 23.065 44.4406 23.0586 44.0042 23.5101Z" fill="#FFAB04"/>
<path d="M9.51249 31.5861L5.60885 27.6136C5.15756 27.1543 5.16373 26.4486 5.62298 25.9974L9.59553 22.0937C10.0548 21.6424 10.7604 21.6486 11.2117 22.1079L15.1154 26.0804C15.5666 26.5396 15.5605 27.2453 15.1012 27.6966L11.1287 31.6002C10.6694 32.0515 9.94101 32.0451 9.51249 31.5861Z" fill="#FFAB04"/>
</svg>
