<svg width="70" height="70" viewBox="0 0 70 70" fill="none" xmlns="http://www.w3.org/2000/svg">
<path d="M37.8547 27.8961C39.9219 26.9446 41.6828 25.4133 42.9188 23.5211H54.6875C57.1047 23.5211 59.0625 25.4789 59.0625 27.8961V36.6461C59.0625 34.2289 57.1047 32.2711 54.6875 32.2711H10.9375C8.52031 32.2711 6.5625 30.3133 6.5625 27.8961C6.5625 25.4789 8.52031 23.5211 10.9375 23.5211H22.75C23.987 25.4133 25.7469 26.9446 27.8152 27.8961H37.8547Z" fill="#BC2E49"/>
<path d="M61.25 38.8226C62.4542 38.8226 63.4375 39.8059 63.4375 41.0101C63.4375 42.2231 62.4542 43.1976 61.25 43.1976H59.0625V38.8226H61.25Z" fill="#BC2E49"/>
<path d="M52.5 48.6664C53.7042 48.6664 54.6875 49.6497 54.6875 50.8539C54.6875 52.0669 53.7042 53.0414 52.5 53.0414C51.287 53.0414 50.3125 52.0669 50.3125 50.8539C50.3125 49.6508 51.287 48.6664 52.5 48.6664Z" fill="#FFCE54"/>
<path d="M61.25 43.1976C62.4542 43.1976 63.4375 42.2231 63.4375 41.0101V56.3226C63.4375 57.5356 62.4542 58.5101 61.25 58.5101H59.0625H48.125L42.6562 51.1273L48.125 43.1976H59.0625H61.25ZM54.6875 50.8539C54.6875 49.6497 53.7042 48.6664 52.5 48.6664C51.287 48.6664 50.3125 49.6497 50.3125 50.8539C50.3125 52.0669 51.287 53.0414 52.5 53.0414C53.7042 53.0414 54.6875 52.0669 54.6875 50.8539Z" fill="#ED5565"/>
<path d="M7 28C7 30.4172 8.95781 32.375 11.375 32.375H55.125C57.5422 32.375 59.5 34.3328 59.5 36.75V38.9266V43.3016H48.5625L43.0938 51.2313L48.5625 58.6141H59.5V64.0828C59.5 66.5109 57.5422 68.4578 55.125 68.4578H11.375C8.95781 68.4578 7 66.5109 7 64.0828V28Z" fill="#DA4453"/>
<path d="M54.6875 63.9789C54.6875 66.407 52.7297 68.3539 50.3125 68.3539H54.6875C57.1047 68.3539 59.0625 66.407 59.0625 63.9789V58.5101H54.6875V63.9789Z" fill="#D3374E"/>
<path d="M54.6875 32.2711H50.3125C52.7297 32.2711 54.6875 34.2289 54.6875 36.6461V38.8227V43.1977H59.0625V38.8227V36.6461C59.0625 34.2289 57.1047 32.2711 54.6875 32.2711Z" fill="#D3374E"/>
<path d="M61.25 43.1976H59.0625V47.9489V56.3226V58.5101H61.25C62.4542 58.5101 63.4375 57.5356 63.4375 56.3226V41.0101C63.4375 42.2231 62.4542 43.1976 61.25 43.1976Z" fill="#DA4453"/>
<path d="M51.4062 28.9877H14.2188C13.6139 28.9877 13.125 28.4988 13.125 27.8939C13.125 27.2891 13.6139 26.8002 14.2188 26.8002H51.4062C52.0111 26.8002 52.5 27.2891 52.5 27.8939C52.5 28.4988 52.0111 28.9877 51.4062 28.9877Z" fill="#A52043"/>
<path d="M44.8667 13.6774C44.8667 20.3274 39.4854 25.7086 32.8354 25.7086C26.1964 25.7086 20.8042 20.3274 20.8042 13.6774C20.8042 7.02737 26.1964 1.64612 32.8354 1.64612C39.4854 1.64612 44.8667 7.02737 44.8667 13.6774Z" fill="#FFCE54"/>
<path d="M32.8355 1.64612C32.0873 1.64612 31.3589 1.72268 30.649 1.85393C36.2512 2.88206 40.4917 7.77549 40.4917 13.6774C40.4917 19.5792 36.2512 24.4716 30.649 25.5008C31.3589 25.6321 32.0873 25.7086 32.8355 25.7086C39.4855 25.7086 44.8667 20.3274 44.8667 13.6774C44.8667 7.02737 39.4855 1.64612 32.8355 1.64612Z" fill="#F6BB42"/>
<path d="M20.8042 13.6774C20.8042 20.3274 26.1964 25.7086 32.8354 25.7086C39.4854 25.7086 44.8667 20.3274 44.8667 13.6774V18.0524C44.8667 20.4805 44.1448 22.7336 42.9198 24.6149C41.6839 26.5071 39.9229 28.0383 37.8558 28.9899H27.8151C25.7469 28.0383 23.987 26.5071 22.75 24.6149C21.5261 22.7336 20.8042 20.4805 20.8042 18.0524V13.6774Z" fill="#EDAB37"/>
<path d="M36.5356 12.366C36.9545 11.8158 37.2126 11.1366 37.2126 10.3928C37.2126 8.58486 35.7415 7.11267 33.9336 7.11267H32.8376C32.8376 6.50783 32.3487 6.01892 31.7439 6.01892C31.1391 6.01892 30.6501 6.50783 30.6501 7.11267H28.4626C27.8578 7.11267 27.3689 7.60158 27.3689 8.20642C27.3689 8.81126 27.8578 9.30017 28.4626 9.30017V18.0502C27.8578 18.0502 27.3689 18.5391 27.3689 19.1439C27.3689 19.7488 27.8578 20.2377 28.4626 20.2377H30.6501C30.6501 20.8425 31.1391 21.3314 31.7439 21.3314C32.3487 21.3314 32.8376 20.8425 32.8376 20.2377H33.9314C36.3442 20.2377 38.3064 18.2755 38.3064 15.8627C38.3064 14.4277 37.6053 13.1644 36.5356 12.366ZM33.9336 9.30017C34.5362 9.30017 35.0251 9.79017 35.0251 10.3928C35.0251 10.9955 34.5362 11.4855 33.9336 11.4855H30.6501V9.30017H33.9336ZM33.9314 18.0502H30.6501V13.673H33.9314C35.1378 13.673 36.1189 14.6552 36.1189 15.8627C36.1189 17.068 35.1378 18.0502 33.9314 18.0502Z" fill="#EDAB37"/>
</svg>
