<svg width="100" height="28" viewBox="0 0 100 28" fill="none" xmlns="http://www.w3.org/2000/svg">
<g clip-path="url(#clip0)">
<path d="M31.9873 16.0465V11.126H29.4072V24.7635H31.9873V23.3076C32.6139 24.1922 33.7565 24.9294 35.3598 24.9294C37.9768 24.9294 40.0224 22.81 40.0224 19.6218C40.0224 16.4335 37.9768 14.3879 35.3598 14.3879C33.8118 14.3879 32.6139 15.1066 31.9873 16.0465ZM37.3871 19.6218C37.3871 21.5569 36.0786 22.6626 34.6779 22.6626C33.2958 22.6626 31.9873 21.5937 31.9873 19.6586C31.9873 17.7236 33.2958 16.6547 34.6779 16.6547C36.0786 16.6547 37.3871 17.6868 37.3871 19.6218Z" fill="#FF5900"/>
<path d="M41.8985 24.7629H44.4786V14.5532H41.8985V24.7629ZM43.207 13.3368C44.11 13.3368 44.7919 12.6734 44.7919 11.8256C44.7919 10.9779 44.11 10.3145 43.207 10.3145C42.2856 10.3145 41.6221 10.9779 41.6221 11.8256C41.6221 12.6734 42.2856 13.3368 43.207 13.3368Z" fill="#FF5900"/>
<path d="M47.4331 21.593C47.4331 23.9335 48.7416 24.7629 50.6951 24.7629H52.3169V22.5882H51.119C50.3081 22.5882 50.0316 22.2934 50.0316 21.6115V16.6725H52.3169V14.5532H50.0316V12.0283H47.4331V14.5532H46.2168V16.6725H47.4331V21.593Z" fill="#FF5900"/>
<path d="M57.0799 16.0465V11.126H54.5V24.7635H57.0799V23.3076C57.7066 24.1923 58.8494 24.9294 60.4527 24.9294C63.0694 24.9294 65.1149 22.81 65.1149 19.6218C65.1149 16.4336 63.0694 14.3879 60.4527 14.3879C58.9044 14.3879 57.7066 15.1066 57.0799 16.0465ZM62.4799 19.6218C62.4799 21.5569 61.1716 22.6626 59.7705 22.6626C58.3883 22.6626 57.0799 21.5937 57.0799 19.6586C57.0799 17.7236 58.3883 16.6547 59.7705 16.6547C61.1716 16.6547 62.4799 17.6868 62.4799 19.6218Z" fill="#0516B2"/>
<path d="M66.3262 19.6216C66.3262 22.8098 68.3901 24.9292 70.9701 24.9292C72.5923 24.9292 73.7528 24.1551 74.3612 23.2705V24.7633H76.9595V14.5536H74.3612V16.0095C73.7528 15.1618 72.6289 14.3877 70.9889 14.3877C68.3901 14.3877 66.3262 16.4334 66.3262 19.6216ZM74.3612 19.6584C74.3612 21.5935 73.0712 22.6624 71.6523 22.6624C70.2701 22.6624 68.9617 21.5566 68.9617 19.6216C68.9617 17.6865 70.2701 16.6545 71.6523 16.6545C73.0712 16.6545 74.3612 17.7234 74.3612 19.6584Z" fill="#0516B2"/>
<path d="M78.8164 19.6584C78.8164 22.8651 80.9175 24.9292 83.8659 24.9292C86.4092 24.9292 88.1231 23.4917 88.6758 21.3171H85.8931C85.5797 22.2385 84.9164 22.7177 83.8475 22.7177C82.4103 22.7177 81.452 21.6488 81.452 19.6584C81.452 17.6681 82.4103 16.5808 83.8475 16.5808C84.9164 16.5808 85.5986 17.1336 85.8931 17.9998H88.6758C88.1231 15.7146 86.4092 14.3877 83.8659 14.3877C80.9175 14.3877 78.8164 16.4518 78.8164 19.6584Z" fill="#0516B2"/>
<path d="M90.5674 24.7635H93.1474V20.4143L96.6118 24.7635H99.9663L95.4324 19.6771L99.929 14.5538H96.5752L93.1474 18.8846V11.126H90.5674V24.7635Z" fill="#0516B2"/>
<path d="M5.66083 18.2353L5.42803 6.16552L0 4.34483L1.24779 0.625L9.29695 3.32463L9.58472 18.1595L5.66083 18.2353Z" fill="#0516B2"/>
<path d="M15.3105 27.2838C12.7844 27.3395 10.3367 26.4053 8.49016 24.6805C6.6436 22.9558 5.54473 20.5774 5.42827 18.0534C5.3118 15.5293 6.18699 13.0598 7.86683 11.1724C9.54666 9.28493 11.898 8.1292 14.4185 7.95215L14.7769 11.8603C13.5887 11.9721 12.4645 12.4506 11.5602 13.2295C10.6559 14.0085 10.0162 15.0493 9.72949 16.2079C9.44288 17.3664 9.52349 18.5855 9.96033 19.6962C10.3971 20.8069 11.1684 21.7544 12.1675 22.4073C13.1665 23.0603 14.3439 23.3865 15.5365 23.3408C16.7292 23.2951 17.8781 22.8797 18.8243 22.1521C19.7704 21.4246 20.4669 20.4209 20.8174 19.28C21.1679 18.1391 21.1549 16.9174 20.7804 15.7842L24.5029 14.539C24.9864 15.9955 25.1174 17.5459 24.885 19.0628C24.6526 20.5798 24.0635 22.0199 23.1662 23.2648C22.2688 24.5097 21.0888 25.5239 19.7231 26.2239C18.3575 26.9239 16.8452 27.2899 15.3105 27.2916V27.2838Z" fill="#0516B2"/>
<path d="M21.7513 10.3457L18.7715 12.8825L20.4673 14.8744L23.447 12.3375L21.7513 10.3457Z" fill="#FF5900"/>
<path d="M16.9137 8.00879L15.7422 11.7427L18.2381 12.5258L19.4097 8.7919L16.9137 8.00879Z" fill="#FF5900"/>
</g>
<defs>
<clipPath id="clip0">
<rect width="100" height="27.5" fill="white"/>
</clipPath>
</defs>
</svg>
