<svg width="20" height="21" viewBox="0 0 20 21" fill="none" xmlns="http://www.w3.org/2000/svg">
<path d="M17.6407 11.529C17.6818 11.193 17.7127 10.857 17.7127 10.5C17.7127 10.143 17.6818 9.807 17.6407 9.471L19.8099 7.7385C20.0052 7.581 20.0566 7.2975 19.9333 7.0665L17.8772 3.4335C17.7538 3.2025 17.4762 3.1185 17.25 3.2025L14.6902 4.2525C14.1556 3.8325 13.5799 3.486 12.9528 3.2235L12.5621 0.441C12.5313 0.189 12.3154 0 12.0584 0H7.94615C7.68913 0 7.47324 0.189 7.4424 0.441L7.05174 3.2235C6.42463 3.486 5.84892 3.843 5.31434 4.2525L2.75449 3.2025C2.51804 3.108 2.25074 3.2025 2.12738 3.4335L0.0712765 7.0665C-0.0623702 7.2975 -0.000687233 7.581 0.194642 7.7385L2.36383 9.471C2.32271 9.807 2.29187 10.1535 2.29187 10.5C2.29187 10.8465 2.32271 11.193 2.36383 11.529L0.194642 13.2615C-0.000687233 13.419 -0.0520897 13.7025 0.0712765 13.9335L2.12738 17.5665C2.25074 17.7975 2.52832 17.8815 2.75449 17.7975L5.31434 16.7475C5.84892 17.1675 6.42463 17.514 7.05174 17.7765L7.4424 20.559C7.47324 20.811 7.68913 21 7.94615 21H12.0584C12.3154 21 12.5313 20.811 12.5621 20.559L12.9528 17.7765C13.5799 17.514 14.1556 17.157 14.6902 16.7475L17.25 17.7975C17.4865 17.892 17.7538 17.7975 17.8772 17.5665L19.9333 13.9335C20.0566 13.7025 20.0052 13.419 19.8099 13.2615L17.6407 11.529ZM10.0023 14.175C8.01815 14.175 6.40407 12.5265 6.40407 10.5C6.40407 8.4735 8.01815 6.825 10.0023 6.825C11.9864 6.825 13.6005 8.4735 13.6005 10.5C13.6005 12.5265 11.9864 14.175 10.0023 14.175Z" fill="#66687B"/>
</svg>
