<svg width="150" height="187" viewBox="0 0 150 187" fill="none" xmlns="http://www.w3.org/2000/svg">
<g clip-path="url(#clip0_3233_29223)">
<path d="M15.92 124.47V35.5898C15.92 24.6998 25.09 15.8398 36.37 15.8398H113.64C124.92 15.8398 134.09 24.6998 134.09 35.5898V124.48L75 167.28L15.92 124.47Z" fill="#07ED00"/>
<path d="M20.46 122.28V35.59C20.46 27.12 27.6 20.23 36.36 20.23H113.63C122.4 20.23 129.53 27.12 129.53 35.59V122.28L75 161.78L20.46 122.28Z" fill="url(#paint0_linear_3233_29223)"/>
<path d="M113.64 0.47998H36.36C16.37 0.47998 0 16.28 0 35.6V88.45V132.16L75 186.48L150 132.16V88.44V35.59C150 16.28 133.63 0.47998 113.64 0.47998ZM143.18 128.86L75 178.25L6.83 128.86V35.59C6.83 19.86 20.08 7.05998 36.38 7.05998H113.65C129.94 7.05998 143.2 19.86 143.2 35.59V128.86H143.18Z" fill="#07ED00"/>
<path d="M77.99 103.66C74.0667 103.66 70.51 102.817 67.32 101.13C64.1667 99.4067 61.6733 97.0417 59.84 94.035C58.0433 90.9917 57.145 87.5633 57.145 83.75C57.145 79.9367 58.0433 76.5267 59.84 73.52C61.6733 70.4767 64.1667 68.1117 67.32 66.425C70.51 64.7017 74.085 63.84 78.045 63.84C81.3817 63.84 84.3883 64.4267 87.065 65.6C89.7783 66.7733 92.0517 68.46 93.885 70.66L88.165 75.94C85.5617 72.9333 82.335 71.43 78.485 71.43C76.1017 71.43 73.975 71.9617 72.105 73.025C70.235 74.0517 68.7683 75.5 67.705 77.37C66.6783 79.24 66.165 81.3667 66.165 83.75C66.165 86.1333 66.6783 88.26 67.705 90.13C68.7683 92 70.235 93.4667 72.105 94.53C73.975 95.5567 76.1017 96.07 78.485 96.07C82.335 96.07 85.5617 94.5483 88.165 91.505L93.885 96.785C92.0517 99.0217 89.7783 100.727 87.065 101.9C84.3517 103.073 81.3267 103.66 77.99 103.66Z" fill="black"/>
</g>
<defs>
<linearGradient id="paint0_linear_3233_29223" x1="75.6518" y1="8.07328" x2="74.2027" y2="165.538" gradientUnits="userSpaceOnUse">
<stop stop-color="white" stop-opacity="0"/>
<stop offset="1" stop-color="white"/>
</linearGradient>
<clipPath id="clip0_3233_29223">
<rect width="150" height="186" fill="white" transform="translate(0 0.47998)"/>
</clipPath>
</defs>
</svg>
