<svg width="150" height="187" viewBox="0 0 150 187" fill="none" xmlns="http://www.w3.org/2000/svg">
<g clip-path="url(#clip0_3233_29224)">
<path d="M16.1702 124.7L15.8702 35.87C15.8302 24.99 24.9502 16.11 36.2102 16.07L113.31 15.82C124.56 15.78 133.74 24.61 133.78 35.49L134.08 124.32L75.2702 167.29L16.1702 124.7Z" fill="#008CFF"/>
<path d="M20.7003 122.49L20.4103 35.8601C20.3803 27.4001 27.4803 20.4901 36.2303 20.4601L113.33 20.2101C122.08 20.1801 129.22 27.0501 129.25 35.5101L129.54 122.14L75.2503 161.79L20.7003 122.49Z" fill="url(#paint0_linear_3233_29224)"/>
<path d="M113.26 0.480152L36.1602 0.730152C16.2102 0.790152 -0.0697751 16.6302 0.000224896 35.9402L0.180218 88.7602L0.330181 132.45L75.3502 186.49L150 131.97L149.85 88.2701L149.67 35.4502C149.59 16.1502 133.21 0.420152 113.26 0.480152ZM143.18 128.68L75.3102 178.25L7.12022 129.11L6.80021 35.9002C6.75021 20.1802 19.9202 7.34015 36.1902 7.29015L113.29 7.04015C129.54 6.99015 142.82 19.7302 142.87 35.4602L143.19 128.67L143.18 128.68Z" fill="#008CFF"/>
<path d="M84.095 103L76.67 92.275H76.23H68.475V103H59.565V64.5H76.23C79.64 64.5 82.5917 65.0683 85.085 66.205C87.615 67.3417 89.5583 68.955 90.915 71.045C92.2717 73.135 92.95 75.61 92.95 78.47C92.95 81.33 92.2533 83.805 90.86 85.895C89.5033 87.9483 87.56 89.525 85.03 90.625L93.665 103H84.095ZM83.93 78.47C83.93 76.3067 83.2333 74.6567 81.84 73.52C80.4467 72.3467 78.4117 71.76 75.735 71.76H68.475V85.18H75.735C78.4117 85.18 80.4467 84.5933 81.84 83.42C83.2333 82.2467 83.93 80.5967 83.93 78.47Z" fill="black"/>
</g>
<defs>
<linearGradient id="paint0_linear_3233_29224" x1="76.0411" y1="11.2718" x2="73.2906" y2="185.845" gradientUnits="userSpaceOnUse">
<stop stop-color="white" stop-opacity="0"/>
<stop offset="1" stop-color="white"/>
</linearGradient>
<clipPath id="clip0_3233_29224">
<rect width="150" height="186.01" fill="white" transform="translate(0 0.47998)"/>
</clipPath>
</defs>
</svg>
