<svg width="150" height="187" viewBox="0 0 150 187" fill="none" xmlns="http://www.w3.org/2000/svg">
<g clip-path="url(#clip0_3233_29225)">
<path d="M15.9099 124.47V35.5898C15.9099 24.6998 25.0799 15.8398 36.3599 15.8398H113.63C124.91 15.8398 134.08 24.6998 134.08 35.5898V124.48L74.9999 167.29L15.9099 124.47Z" fill="#CC24FF"/>
<path d="M20.45 122.28V35.59C20.45 27.12 27.5899 20.23 36.3499 20.23H113.62C122.39 20.23 129.52 27.12 129.52 35.59V122.28L74.9799 161.79L20.45 122.28Z" fill="url(#paint0_linear_3233_29225)"/>
<path d="M113.63 0.47998H36.36C16.37 0.47998 0 16.28 0 35.6V88.45V132.16L75 186.48L150 132.16V88.44V35.59C149.99 16.28 133.62 0.47998 113.63 0.47998ZM143.18 128.86L75 178.25L6.83002 128.86V35.59C6.83002 19.86 20.08 7.05998 36.38 7.05998H113.65C129.94 7.05998 143.2 19.86 143.2 35.59V128.86H143.18Z" fill="#CC24FF"/>
<path d="M54.215 103.66C51.1717 103.66 48.22 103.257 45.36 102.45C42.5367 101.607 40.2633 100.525 38.54 99.205L41.565 92.495C43.215 93.705 45.1767 94.6767 47.45 95.41C49.7233 96.1433 51.9967 96.51 54.27 96.51C56.8 96.51 58.67 96.1433 59.88 95.41C61.09 94.64 61.695 93.6317 61.695 92.385C61.695 91.4683 61.3283 90.7167 60.595 90.13C59.8983 89.5067 58.9817 89.0117 57.845 88.645C56.745 88.2783 55.2417 87.875 53.335 87.435C50.4017 86.7383 48 86.0417 46.13 85.345C44.26 84.6483 42.6467 83.53 41.29 81.99C39.97 80.45 39.31 78.3967 39.31 75.83C39.31 73.5933 39.915 71.5767 41.125 69.78C42.335 67.9467 44.15 66.4983 46.57 65.435C49.0267 64.3717 52.015 63.84 55.535 63.84C57.9917 63.84 60.3933 64.1333 62.74 64.72C65.0867 65.3067 67.14 66.15 68.9 67.25L66.15 74.015C62.5933 71.9983 59.0367 70.99 55.48 70.99C52.9867 70.99 51.135 71.3933 49.925 72.2C48.7517 73.0067 48.165 74.07 48.165 75.39C48.165 76.71 48.8433 77.7 50.2 78.36C51.5933 78.9833 53.7017 79.6067 56.525 80.23C59.4583 80.9267 61.86 81.6233 63.73 82.32C65.6 83.0167 67.195 84.1167 68.515 85.62C69.8717 87.1233 70.55 89.1583 70.55 91.725C70.55 93.925 69.9267 95.9417 68.68 97.775C67.47 99.5717 65.6367 101.002 63.18 102.065C60.7233 103.128 57.735 103.66 54.215 103.66ZM101.168 103L93.7432 92.275H93.3032H85.5482V103H76.6382V64.5H93.3032C96.7132 64.5 99.6649 65.0683 102.158 66.205C104.688 67.3417 106.632 68.955 107.988 71.045C109.345 73.135 110.023 75.61 110.023 78.47C110.023 81.33 109.327 83.805 107.933 85.895C106.577 87.9483 104.633 89.525 102.103 90.625L110.738 103H101.168ZM101.003 78.47C101.003 76.3067 100.307 74.6567 98.9132 73.52C97.5199 72.3467 95.4849 71.76 92.8082 71.76H85.5482V85.18H92.8082C95.4849 85.18 97.5199 84.5933 98.9132 83.42C100.307 82.2467 101.003 80.5967 101.003 78.47Z" fill="black"/>
</g>
<defs>
<linearGradient id="paint0_linear_3233_29225" x1="75.7055" y1="8.41438" x2="74.0419" y2="173.102" gradientUnits="userSpaceOnUse">
<stop stop-color="white" stop-opacity="0"/>
<stop offset="1" stop-color="white"/>
</linearGradient>
<clipPath id="clip0_3233_29225">
<rect width="150" height="186" fill="white" transform="translate(0 0.47998)"/>
</clipPath>
</defs>
</svg>
