<svg width="150" height="186" viewBox="0 0 150 186" fill="none" xmlns="http://www.w3.org/2000/svg">
<path d="M15.8999 124V35.1099C15.8999 24.2199 25.0799 15.3599 36.3499 15.3599H113.62C124.9 15.3599 134.07 24.2199 134.07 35.1099V124L74.9799 166.8L15.8999 124Z" fill="#FF8000"/>
<path d="M20.45 121.8V35.11C20.45 26.64 27.5899 19.75 36.3599 19.75H113.63C122.4 19.75 129.54 26.64 129.54 35.11V121.8L74.9899 161.31L20.45 121.8Z" fill="url(#paint0_linear_3233_29226)"/>
<path d="M113.63 0H36.36C16.36 0 0 15.8 0 35.11V87.96V131.68L75 186L150 131.68V87.96V35.11C149.99 15.8 133.63 0 113.63 0ZM143.18 128.39L75 177.77L6.81999 128.39V35.11C6.81999 19.38 20.07 6.58 36.37 6.58H113.64C129.93 6.58 143.19 19.38 143.19 35.11V128.39H143.18Z" fill="#FF8000"/>
<path d="M37.215 103.66C34.1717 103.66 31.22 103.257 28.36 102.45C25.5367 101.607 23.2633 100.525 21.54 99.205L24.565 92.495C26.215 93.705 28.1767 94.6767 30.45 95.41C32.7233 96.1433 34.9967 96.51 37.27 96.51C39.8 96.51 41.67 96.1433 42.88 95.41C44.09 94.64 44.695 93.6317 44.695 92.385C44.695 91.4683 44.3283 90.7167 43.595 90.13C42.8983 89.5067 41.9817 89.0117 40.845 88.645C39.745 88.2783 38.2417 87.875 36.335 87.435C33.4017 86.7383 31 86.0417 29.13 85.345C27.26 84.6483 25.6467 83.53 24.29 81.99C22.97 80.45 22.31 78.3967 22.31 75.83C22.31 73.5933 22.915 71.5767 24.125 69.78C25.335 67.9467 27.15 66.4983 29.57 65.435C32.0267 64.3717 35.015 63.84 38.535 63.84C40.9917 63.84 43.3933 64.1333 45.74 64.72C48.0867 65.3067 50.14 66.15 51.9 67.25L49.15 74.015C45.5933 71.9983 42.0367 70.99 38.48 70.99C35.9867 70.99 34.135 71.3933 32.925 72.2C31.7517 73.0067 31.165 74.07 31.165 75.39C31.165 76.71 31.8433 77.7 33.2 78.36C34.5933 78.9833 36.7017 79.6067 39.525 80.23C42.4583 80.9267 44.86 81.6233 46.73 82.32C48.6 83.0167 50.195 84.1167 51.515 85.62C52.8717 87.1233 53.55 89.1583 53.55 91.725C53.55 93.925 52.9267 95.9417 51.68 97.775C50.47 99.5717 48.6367 101.002 46.18 102.065C43.7233 103.128 40.735 103.66 37.215 103.66ZM72.2882 103.66C69.2449 103.66 66.2932 103.257 63.4332 102.45C60.6099 101.607 58.3366 100.525 56.6132 99.205L59.6382 92.495C61.2882 93.705 63.2499 94.6767 65.5232 95.41C67.7966 96.1433 70.0699 96.51 72.3432 96.51C74.8732 96.51 76.7432 96.1433 77.9532 95.41C79.1632 94.64 79.7682 93.6317 79.7682 92.385C79.7682 91.4683 79.4016 90.7167 78.6682 90.13C77.9716 89.5067 77.0549 89.0117 75.9182 88.645C74.8182 88.2783 73.3149 87.875 71.4082 87.435C68.4749 86.7383 66.0732 86.0417 64.2032 85.345C62.3332 84.6483 60.7199 83.53 59.3632 81.99C58.0432 80.45 57.3832 78.3967 57.3832 75.83C57.3832 73.5933 57.9882 71.5767 59.1982 69.78C60.4082 67.9467 62.2232 66.4983 64.6432 65.435C67.0999 64.3717 70.0882 63.84 73.6082 63.84C76.0649 63.84 78.4666 64.1333 80.8132 64.72C83.1599 65.3067 85.2132 66.15 86.9732 67.25L84.2232 74.015C80.6666 71.9983 77.1099 70.99 73.5532 70.99C71.0599 70.99 69.2082 71.3933 67.9982 72.2C66.8249 73.0067 66.2382 74.07 66.2382 75.39C66.2382 76.71 66.9166 77.7 68.2732 78.36C69.6666 78.9833 71.7749 79.6067 74.5982 80.23C77.5316 80.9267 79.9332 81.6233 81.8032 82.32C83.6732 83.0167 85.2682 84.1167 86.5882 85.62C87.9449 87.1233 88.6232 89.1583 88.6232 91.725C88.6232 93.925 87.9999 95.9417 86.7532 97.775C85.5432 99.5717 83.7099 101.002 81.2532 102.065C78.7966 103.128 75.8082 103.66 72.2882 103.66ZM119.241 103L111.816 92.275H111.376H103.621V103H94.7115V64.5H111.376C114.786 64.5 117.738 65.0683 120.231 66.205C122.761 67.3417 124.705 68.955 126.061 71.045C127.418 73.135 128.096 75.61 128.096 78.47C128.096 81.33 127.4 83.805 126.006 85.895C124.65 87.9483 122.706 89.525 120.176 90.625L128.811 103H119.241ZM119.076 78.47C119.076 76.3067 118.38 74.6567 116.986 73.52C115.593 72.3467 113.558 71.76 110.881 71.76H103.621V85.18H110.881C113.558 85.18 115.593 84.5933 116.986 83.42C118.38 82.2467 119.076 80.5967 119.076 78.47Z" fill="black"/>
<defs>
<linearGradient id="paint0_linear_3233_29226" x1="74.3286" y1="11.2668" x2="75.9921" y2="179.278" gradientUnits="userSpaceOnUse">
<stop stop-color="white" stop-opacity="0"/>
<stop offset="1" stop-color="white"/>
</linearGradient>
</defs>
</svg>
