<svg width="19" height="19" viewBox="0 0 19 19" fill="none" xmlns="http://www.w3.org/2000/svg">
<g clip-path="url(#clip0_458_2270)">
<path d="M3.24999 16.4918H13.7853L13.2822 14.8626L14.4857 15.8955L15.5889 16.8841L17.5985 18.5635V2.65972C17.5483 1.67113 16.6971 0.831055 15.642 0.831055L3.25369 0.833271C2.19934 0.833271 1.34375 1.67483 1.34375 2.66341V14.6624C1.34375 15.7049 2.19787 16.4918 3.24999 16.4918ZM11.0434 5.02996L11.019 5.03882L11.0279 5.02996H11.0434ZM5.40523 5.96756C6.75955 4.98193 8.01486 5.02922 8.01486 5.02922L8.11609 5.12896C6.45884 5.52425 5.70742 6.26458 5.70742 6.26458C5.70742 6.26458 5.90839 6.16631 6.25934 6.01633C8.49142 5.13857 10.9289 5.20211 13.1854 6.31335C13.1854 6.31335 12.4325 5.62104 10.8772 5.17773L11.0146 5.04252C11.2296 5.04326 12.3675 5.08316 13.5851 5.97347C13.5851 5.97347 14.9475 8.30086 14.9475 11.1602C14.9025 11.1055 14.1023 12.3912 12.0431 12.4355C12.0431 12.4355 11.6944 12.0409 11.4461 11.6966C12.6504 11.3508 13.1011 10.6593 13.1011 10.6593C12.7058 10.9083 12.3453 11.056 12.0527 11.2038C11.6027 11.4018 11.152 11.4994 10.7021 11.5991C8.57122 11.9449 7.37501 11.3664 6.24457 10.9075L5.85815 10.711C5.85815 10.711 6.30811 11.4026 7.46442 11.7484C7.16075 12.0949 6.86003 12.4887 6.86003 12.4887C4.80159 12.4399 4.05091 11.1543 4.05091 11.1543C4.05091 8.29052 5.40523 5.96756 5.40523 5.96756Z" fill="white"/>
<path d="M11.1768 10.267C11.7021 10.267 12.1299 9.82365 12.1299 9.2769C12.1299 8.73384 11.7043 8.29053 11.1768 8.29053V8.29274C10.6536 8.29274 10.2251 8.73458 10.2236 9.28133C10.2236 9.82365 10.6514 10.267 11.1768 10.267Z" fill="white"/>
<path d="M7.76465 10.267C8.28997 10.267 8.71777 9.82365 8.71777 9.2769C8.71777 8.73384 8.29293 8.29053 7.7676 8.29053L7.76465 8.29274C7.23932 8.29274 6.81152 8.73458 6.81152 9.28133C6.81152 9.82365 7.23932 10.267 7.76465 10.267Z" fill="white"/>
</g>
<defs>
<clipPath id="clip0_458_2270">
<rect width="17.7325" height="17.7325" fill="white" transform="translate(0.605469 0.831055)"/>
</clipPath>
</defs>
</svg>
