<svg width="22" height="22" viewBox="0 0 22 22" fill="none" xmlns="http://www.w3.org/2000/svg">
<path d="M19.3835 14.3091C19.3835 17.4468 17.5129 19.3173 14.3753 19.3173H13.3495C12.8754 19.3173 12.4875 18.9294 12.4875 18.4553V13.4816C12.4875 13.2489 12.6771 13.0506 12.9099 13.0506L14.427 13.0247C14.5477 13.0161 14.6511 12.9299 14.677 12.8093L14.9787 11.1628C15.0045 11.0077 14.8839 10.8611 14.7201 10.8611L12.884 10.887C12.6427 10.887 12.453 10.6974 12.4444 10.4646L12.4099 8.35272C12.4099 8.2148 12.522 8.09413 12.6685 8.09413L14.7373 8.05965C14.8838 8.05965 14.9959 7.9476 14.9959 7.80106L14.9614 5.73225C14.9614 5.58571 14.8494 5.47366 14.7028 5.47366L12.3754 5.50815C10.9445 5.53401 9.80671 6.70631 9.83257 8.13722L9.87566 10.5077C9.88428 10.7491 9.69465 10.9387 9.45329 10.9473L8.41888 10.9646C8.27234 10.9646 8.1603 11.0766 8.1603 11.2232L8.18615 12.861C8.18615 13.0075 8.2982 13.1196 8.44474 13.1196L9.47915 13.1023C9.72051 13.1023 9.91013 13.292 9.91875 13.5247L9.99632 18.4381C10.0049 18.9208 9.61705 19.3173 9.13433 19.3173H7.15175C4.01408 19.3173 2.14355 17.4468 2.14355 14.3005V7.08559C2.14355 3.94792 4.01408 2.07739 7.15175 2.07739H14.3753C17.5129 2.07739 19.3835 3.94792 19.3835 7.08559V14.3091Z" fill="white"/>
</svg>
