<svg width="18" height="19" viewBox="0 0 18 19" fill="none" xmlns="http://www.w3.org/2000/svg">
<g clip-path="url(#clip0_458_2274)">
<path d="M16.0433 6.08694C16.7644 5.57491 17.371 4.93581 17.8653 4.19991V4.19917C17.2055 4.48806 16.5036 4.68016 15.7706 4.77326C16.5243 4.3233 17.0998 3.61621 17.3703 2.76432C16.6676 3.18325 15.8918 3.47879 15.065 3.64429C14.3979 2.93351 13.4469 2.4939 12.4096 2.4939C10.397 2.4939 8.77666 4.1275 8.77666 6.12979C8.77666 6.41795 8.80104 6.69502 8.86089 6.95879C5.83898 6.81102 3.16433 5.36286 1.36744 3.15591C1.05416 3.70044 0.869449 4.3233 0.869449 4.99344C0.869449 6.25244 1.51742 7.36811 2.48458 8.01461C1.90015 8.00352 1.32754 7.83359 0.842112 7.56686V7.60676C0.842112 9.37336 2.10186 10.8407 3.75467 11.1791C3.45839 11.2604 3.13625 11.2988 2.80155 11.2988C2.56881 11.2988 2.33386 11.2855 2.11368 11.2367C2.58433 12.676 3.92165 13.7348 5.51019 13.7695C4.27335 14.7367 2.70254 15.3196 1.00244 15.3196C0.704685 15.3196 0.418749 15.3063 0.132812 15.2701C1.74351 16.3082 3.65123 16.9015 5.70968 16.9015C12.1251 16.9015 16.3063 11.5493 16.0433 6.08694Z" fill="white"/>
</g>
<defs>
<clipPath id="clip0_458_2274">
<rect width="17.7325" height="17.7325" fill="white" transform="translate(0.132812 0.831299)"/>
</clipPath>
</defs>
</svg>
